<svg width="300" height="64" viewBox="0 0 300 64" fill="none" xmlns="http://www.w3.org/2000/svg">
<g clip-path="url(#clip0_6_195)">
<mask id="mask0_6_195" style="mask-type:luminance" maskUnits="userSpaceOnUse" x="-55" y="-32" width="385" height="119">
<path d="M-54.6493 -31.4608H329.54V86.3381H-54.6493V-31.4608Z" fill="white"/>
</mask>
<g mask="url(#mask0_6_195)">
<path d="M112.153 26.6296C112.153 27.0851 112.085 27.5044 111.948 27.8876C111.817 28.2597 111.61 28.5997 111.339 28.8852C111.068 29.1674 110.732 29.3881 110.329 29.5472C109.926 29.7057 109.462 29.7851 108.937 29.7854C108.404 29.7854 107.936 29.706 107.533 29.5472C107.13 29.3881 106.794 29.1674 106.524 28.8852C106.252 28.6006 106.044 28.2603 105.914 27.8876C105.777 27.5044 105.709 27.0851 105.709 26.6296V21.9126H107.393V26.5645C107.393 26.8034 107.431 27.024 107.506 27.2265C107.582 27.4284 107.688 27.6036 107.825 27.7521C107.963 27.901 108.13 28.0192 108.316 28.0993C108.506 28.1825 108.714 28.2241 108.937 28.2241C109.16 28.2241 109.365 28.1825 109.552 28.0993C109.739 28.016 109.901 27.9003 110.037 27.7521C110.174 27.6036 110.28 27.4284 110.356 27.2265C110.431 27.024 110.469 26.8034 110.469 26.5645V21.9126H112.153V26.6296Z" fill="white"/>
<path d="M113.363 28.6577C113.362 28.3925 113.464 28.1374 113.648 27.9474C113.739 27.8574 113.845 27.787 113.968 27.7362C114.09 27.6854 114.219 27.66 114.356 27.66C114.492 27.66 114.622 27.6854 114.745 27.7362C114.867 27.7873 114.973 27.8577 115.063 27.9474C115.153 28.0383 115.223 28.1451 115.273 28.2676C115.324 28.3914 115.349 28.5239 115.349 28.6577C115.349 28.7955 115.324 28.9255 115.273 29.0478C115.225 29.1674 115.154 29.2761 115.063 29.3675C114.972 29.4588 114.864 29.5309 114.745 29.5795C114.622 29.6302 114.49 29.6559 114.356 29.6553C114.219 29.6553 114.09 29.63 113.968 29.5795C113.845 29.5294 113.739 29.4588 113.648 29.3679C113.464 29.1783 113.361 28.9229 113.363 28.6577Z" fill="white"/>
<path d="M121.728 23.7889C121.592 23.6156 121.406 23.4872 121.172 23.4036C120.96 23.3252 120.735 23.2832 120.509 23.2792C120.382 23.2801 120.255 23.2948 120.131 23.3231C120.003 23.3513 119.879 23.3967 119.764 23.4581C119.652 23.5162 119.556 23.5999 119.483 23.7025C119.409 23.8107 119.371 23.9397 119.375 24.0709C119.375 24.3027 119.461 24.4796 119.634 24.6018C119.807 24.7252 120.025 24.8302 120.287 24.9167C120.568 25.0092 120.85 25.0961 121.134 25.177C121.432 25.2621 121.716 25.3861 121.981 25.5459C122.245 25.7063 122.468 25.925 122.635 26.1852C122.808 26.4527 122.894 26.8106 122.894 27.259C122.893 27.6856 122.814 28.0578 122.656 28.3757C122.505 28.6855 122.285 28.9563 122.014 29.1674C121.734 29.3822 121.415 29.5405 121.075 29.6337C120.708 29.7368 120.328 29.7879 119.947 29.7856C119.45 29.7856 118.99 29.7097 118.566 29.558C118.141 29.4057 117.745 29.1598 117.378 28.8203L118.576 27.4977C118.747 27.7275 118.971 27.9118 119.229 28.0343C119.483 28.1594 119.762 28.2243 120.044 28.2243C120.18 28.2243 120.319 28.2079 120.46 28.1751C120.6 28.1427 120.725 28.094 120.837 28.029C120.948 27.9641 121.039 27.881 121.107 27.7797C121.176 27.6782 121.21 27.5589 121.21 27.422C121.21 27.1905 121.122 27.0079 120.945 26.8742C120.769 26.7405 120.548 26.6266 120.282 26.5324C120.015 26.4385 119.727 26.3447 119.419 26.2508C119.116 26.1601 118.826 26.0327 118.554 25.8713C118.289 25.7137 118.063 25.4988 117.891 25.2421C117.715 24.9817 117.627 24.6383 117.627 24.2117C117.627 23.8002 117.707 23.4389 117.869 23.1278C118.031 22.8169 118.247 22.5567 118.517 22.3471C118.796 22.1328 119.113 21.9727 119.45 21.8751C119.804 21.7703 120.171 21.7174 120.54 21.7179C120.972 21.7179 121.39 21.7795 121.793 21.9026C122.197 22.0261 122.569 22.237 122.883 22.5203L121.728 23.7889Z" fill="white"/>
<path d="M124.038 28.6577C124.038 28.5207 124.063 28.3907 124.114 28.2676C124.164 28.1448 124.234 28.038 124.324 27.9474C124.414 27.8574 124.521 27.787 124.643 27.7362C124.766 27.6854 124.895 27.66 125.031 27.66C125.168 27.66 125.297 27.6854 125.42 27.7362C125.542 27.7873 125.648 27.8577 125.738 27.9474C125.828 28.0383 125.899 28.145 125.949 28.2676C125.999 28.3907 126.024 28.5207 126.024 28.6577C126.024 28.7955 125.999 28.9255 125.949 29.0478C125.901 29.1676 125.83 29.2764 125.739 29.3678C125.648 29.4591 125.54 29.5312 125.42 29.5795C125.297 29.6303 125.165 29.656 125.031 29.6553C124.898 29.6559 124.766 29.6302 124.643 29.5795C124.524 29.5312 124.415 29.4592 124.324 29.3678C124.233 29.2765 124.162 29.1676 124.114 29.0478C124.064 28.9255 124.039 28.7955 124.038 28.6577Z" fill="white"/>
<path d="M137.54 23.9078C137.376 23.7064 137.167 23.5466 136.93 23.4411C136.69 23.333 136.411 23.2789 136.094 23.2786C135.777 23.2786 135.484 23.3401 135.215 23.4632C134.948 23.5842 134.709 23.7596 134.513 23.9782C134.309 24.2077 134.151 24.4746 134.048 24.7641C133.935 25.0805 133.878 25.4148 133.881 25.7511C133.881 26.1127 133.937 26.4435 134.048 26.7434C134.152 27.0298 134.308 27.2944 134.508 27.524C134.698 27.7417 134.931 27.9171 135.193 28.039C135.458 28.1626 135.748 28.2257 136.04 28.2236C136.385 28.2236 136.691 28.1513 136.958 28.0067C137.224 27.8627 137.45 27.6538 137.616 27.3992L139.019 28.4512C138.709 28.8951 138.284 29.2442 137.789 29.4599C137.306 29.6743 136.784 29.785 136.256 29.7849C135.659 29.7849 135.108 29.6909 134.605 29.5029C134.119 29.3258 133.675 29.0508 133.299 28.6948C132.932 28.3447 132.646 27.9202 132.44 27.4213C132.235 26.9224 132.133 26.3657 132.133 25.7511C132.133 25.1371 132.235 24.5804 132.44 24.0809C132.634 23.6003 132.926 23.1663 133.299 22.8074C133.675 22.4514 134.119 22.1764 134.605 21.9993C135.108 21.8113 135.659 21.7173 136.256 21.7173C136.472 21.7173 136.697 21.7372 136.93 21.7771C137.166 21.8175 137.398 21.8811 137.622 21.967C137.853 22.0557 138.072 22.1722 138.275 22.3142C138.487 22.4622 138.676 22.6411 138.835 22.8451L137.54 23.9078Z" fill="white"/>
<path d="M141.165 21.9126H146.357V23.4738H142.849V24.9058H146.162V26.4666H142.849V28.0288H146.551V29.5901H141.165V21.9126Z" fill="white"/>
<path d="M149.176 21.9126H151.464L154.712 27.2473H154.734V21.9126H156.418V29.5901H154.216L150.882 24.1252H150.859V29.5901H149.176V21.9126Z" fill="white"/>
<path d="M160.565 23.4087H158.386V21.9126H164.43V23.4087H162.249V29.5901H160.565V23.4087Z" fill="white"/>
<path d="M166.435 21.9126H171.627V23.4738H168.119V24.9058H171.432V26.4666H168.119V28.0288H171.821V29.5901H166.435V21.9126Z" fill="white"/>
<path d="M176.022 25.0905H177.014C177.166 25.0902 177.326 25.0846 177.494 25.0736C177.664 25.0633 177.817 25.0308 177.954 24.9762C178.09 24.9219 178.204 24.8369 178.294 24.7212C178.383 24.6055 178.428 24.443 178.428 24.2337C178.428 24.0388 178.389 23.8834 178.31 23.7674C178.233 23.6541 178.13 23.5625 178.008 23.5013C177.875 23.4371 177.733 23.3949 177.586 23.3764C177.433 23.3554 177.278 23.3446 177.122 23.3441H176.022V25.0905ZM174.338 21.913H177.296C177.684 21.913 178.052 21.9511 178.401 22.0272C178.728 22.094 179.04 22.2225 179.319 22.4058C179.585 22.5876 179.8 22.8341 179.944 23.1223C180.1 23.4222 180.177 23.796 180.177 24.2438C180.177 24.7861 180.037 25.2471 179.756 25.6267C179.475 26.0066 179.065 26.2472 178.526 26.3484L180.468 29.5901H178.45L176.853 26.5216H176.022V29.5901H174.338V21.913Z" fill="white"/>
<path d="M186.338 23.7887C186.201 23.6154 186.016 23.487 185.782 23.4034C185.57 23.325 185.345 23.2829 185.119 23.279C184.991 23.2799 184.865 23.2946 184.74 23.3228C184.613 23.3511 184.489 23.3965 184.374 23.4579C184.262 23.5159 184.166 23.5997 184.093 23.7023C184.019 23.8106 183.982 23.9396 183.986 24.0707C183.986 24.3024 184.072 24.4794 184.244 24.6016C184.417 24.725 184.635 24.8299 184.897 24.9164C185.178 25.0089 185.461 25.0957 185.745 25.1768C186.042 25.2619 186.327 25.3859 186.592 25.5456C186.856 25.7056 187.079 25.9244 187.245 26.185C187.418 26.4525 187.504 26.8104 187.503 27.2588C187.504 27.6854 187.425 28.0576 187.266 28.3755C187.115 28.6852 186.896 28.956 186.624 29.1672C186.344 29.382 186.025 29.5403 185.685 29.6335C185.318 29.736 184.939 29.7871 184.558 29.7854C184.061 29.7854 183.601 29.7095 183.176 29.5578C182.751 29.4054 182.356 29.1595 181.989 28.8201L183.186 27.4975C183.357 27.7274 183.582 27.9117 183.84 28.0341C184.221 28.2236 184.656 28.2734 185.07 28.1749C185.211 28.1425 185.337 28.0938 185.448 28.0288C185.56 27.9639 185.649 27.8808 185.718 27.7795C185.786 27.678 185.82 27.5587 185.82 27.4217C185.82 27.1903 185.732 27.0077 185.556 26.874C185.379 26.7403 185.158 26.6263 184.893 26.5322C184.626 26.4383 184.338 26.3444 184.028 26.2506C183.719 26.1564 183.431 26.0299 183.165 25.8711C182.9 25.7135 182.673 25.4986 182.502 25.2419C182.325 24.9815 182.237 24.6381 182.236 24.2115C182.236 23.8 182.317 23.4387 182.48 23.1276C182.636 22.8229 182.858 22.5564 183.128 22.3469C183.407 22.1326 183.724 21.9725 184.061 21.8749C184.415 21.7701 184.783 21.7171 185.152 21.7177C185.583 21.7177 186 21.7793 186.403 21.9024C186.807 22.0251 187.179 22.236 187.493 22.5201L186.338 23.7887Z" fill="white"/>
<path d="M193.958 21.9126H199.085V23.4738H195.642V25.0356H198.826V26.5968H195.642V29.5901H193.958V21.9126Z" fill="white"/>
<path d="M202.434 25.7511C202.434 26.1127 202.49 26.4435 202.601 26.7434C202.706 27.0339 202.87 27.2996 203.081 27.524C203.292 27.7472 203.548 27.9228 203.832 28.039C204.123 28.1624 204.448 28.2239 204.809 28.2236C205.168 28.2236 205.493 28.1621 205.785 28.039C206.069 27.9228 206.325 27.7473 206.536 27.524C206.747 27.2995 206.91 27.0338 207.015 26.7434C207.127 26.4435 207.183 26.1127 207.183 25.7511C207.183 25.3969 207.127 25.0679 207.015 24.7641C206.911 24.4718 206.748 24.2042 206.536 23.9782C206.324 23.7559 206.068 23.5805 205.785 23.4632C205.493 23.3404 205.168 23.2789 204.809 23.2786C204.448 23.2786 204.123 23.3401 203.832 23.4632C203.549 23.5806 203.293 23.756 203.081 23.9782C202.869 24.2042 202.705 24.4717 202.601 24.7641C202.487 25.0805 202.431 25.4148 202.434 25.7511ZM200.685 25.7511C200.685 25.1371 200.788 24.5804 200.993 24.0809C201.186 23.6004 201.478 23.1664 201.85 22.8074C202.227 22.4513 202.671 22.1763 203.158 21.9993C203.661 21.8113 204.211 21.7173 204.809 21.7173C205.405 21.7173 205.956 21.8113 206.46 21.9993C206.945 22.1764 207.39 22.4514 207.766 22.8074C208.138 23.1664 208.431 23.6004 208.624 24.0809C208.829 24.5804 208.931 25.1371 208.931 25.7511C208.931 26.3657 208.829 26.9224 208.624 27.4213C208.419 27.9202 208.133 28.3447 207.766 28.6948C207.39 29.0508 206.945 29.3258 206.46 29.5029C205.956 29.6909 205.405 29.7849 204.809 29.7849C204.211 29.7849 203.661 29.6909 203.158 29.5029C202.671 29.3259 202.227 29.0509 201.85 28.6948C201.484 28.3447 201.199 27.9202 200.993 27.4213C200.787 26.9224 200.685 26.3657 200.685 25.7511Z" fill="white"/>
<path d="M212.403 25.0905H213.396C213.547 25.0902 213.707 25.0846 213.875 25.0736C214.045 25.0633 214.198 25.0308 214.335 24.9762C214.472 24.9219 214.585 24.8369 214.674 24.7212C214.765 24.6055 214.81 24.443 214.81 24.2337C214.81 24.0388 214.77 23.8834 214.691 23.7674C214.614 23.6541 214.51 23.5624 214.388 23.5013C214.256 23.4371 214.114 23.395 213.967 23.3764C213.814 23.3554 213.659 23.3446 213.503 23.3441H212.403V25.0905ZM210.719 21.913H213.676C214.065 21.913 214.433 21.9511 214.783 22.0272C215.131 22.1028 215.437 22.229 215.7 22.4058C215.966 22.5873 216.181 22.8339 216.326 23.1223C216.481 23.4222 216.558 23.796 216.558 24.2438C216.558 24.7861 216.418 25.2471 216.137 25.6267C215.856 26.0066 215.446 26.2472 214.907 26.3484L216.849 29.5901H214.831L213.233 26.5216H212.403V29.5901H210.719V21.913Z" fill="white"/>
<path d="M224.534 28.029H225.408C225.797 28.029 226.158 27.9891 226.493 27.9094C226.828 27.8297 227.117 27.6979 227.362 27.514C227.606 27.3295 227.799 27.0872 227.939 26.787C228.079 26.487 228.15 26.1203 228.15 25.6866C228.15 25.3108 228.079 24.9838 227.939 24.7054C227.805 24.4352 227.611 24.1994 227.372 24.0164C227.121 23.8298 226.838 23.692 226.536 23.6099C226.208 23.5182 225.868 23.4724 225.527 23.474H224.534V28.029ZM222.85 21.9127H225.376C225.987 21.9127 226.568 21.9814 227.119 22.1186C227.669 22.2562 228.149 22.4785 228.56 22.7855C228.97 23.0928 229.296 23.4922 229.537 23.9837C229.777 24.4752 229.898 25.0717 229.898 25.7734C229.898 26.3951 229.781 26.9427 229.548 27.4162C229.322 27.878 229 28.285 228.603 28.609C228.196 28.9374 227.731 29.1856 227.232 29.3405C226.705 29.5089 226.155 29.5931 225.602 29.5903H222.85V21.9127Z" fill="white"/>
<path d="M231.988 21.9126H233.672V29.5901H231.988V21.9126Z" fill="white"/>
<path d="M240.505 23.7889C240.368 23.6156 240.183 23.4872 239.949 23.4036C239.736 23.3252 239.512 23.2832 239.286 23.2792C239.163 23.2792 239.037 23.2938 238.907 23.3231C238.78 23.3513 238.656 23.3967 238.541 23.4581C238.429 23.5161 238.333 23.5999 238.26 23.7025C238.188 23.8038 238.152 23.9266 238.152 24.0709C238.152 24.3027 238.238 24.4796 238.411 24.6018C238.584 24.7252 238.801 24.8302 239.064 24.9167C239.344 25.0091 239.627 25.0959 239.911 25.177C240.209 25.2621 240.494 25.3861 240.759 25.5459C241.022 25.7064 241.245 25.9251 241.412 26.1852C241.584 26.4527 241.67 26.8106 241.67 27.259C241.67 27.6856 241.591 28.0578 241.433 28.3757C241.282 28.6854 241.063 28.9563 240.791 29.1674C240.511 29.3823 240.192 29.5406 239.851 29.6337C239.484 29.7368 239.105 29.7879 238.724 29.7856C238.228 29.7856 237.767 29.7097 237.342 29.558C236.918 29.4057 236.522 29.1598 236.155 28.8203L237.353 27.4977C237.524 27.7275 237.748 27.9118 238.006 28.0343C238.388 28.2237 238.823 28.2735 239.237 28.1751C239.377 28.1427 239.503 28.094 239.614 28.029C239.726 27.9641 239.816 27.881 239.884 27.7797C239.953 27.6782 239.987 27.5589 239.987 27.422C239.987 27.1905 239.899 27.0079 239.722 26.8742C239.546 26.7405 239.325 26.6266 239.059 26.5324C238.773 26.4322 238.485 26.3383 238.195 26.2508C237.893 26.16 237.603 26.0326 237.332 25.8713C237.067 25.7138 236.84 25.4989 236.668 25.2421C236.491 24.9817 236.403 24.6383 236.403 24.2117C236.403 23.8002 236.484 23.4389 236.646 23.1278C236.808 22.8169 237.024 22.5567 237.294 22.3471C237.573 22.1327 237.89 21.9726 238.228 21.8751C238.582 21.7703 238.949 21.7174 239.318 21.7179C239.742 21.7167 240.164 21.779 240.57 21.9026C240.974 22.0253 241.346 22.2362 241.66 22.5203L240.505 23.7889Z" fill="white"/>
<path d="M243.976 21.9126H249.168V23.4738H245.66V24.9058H248.973V26.4666H245.66V28.0288H249.362V29.5901H243.976V21.9126Z" fill="white"/>
<path d="M254.862 24.1464L253.934 26.5322H255.801L254.862 24.1464ZM254.214 21.913H255.606L258.93 29.5901H257.031L256.373 27.9642H253.405L252.768 29.5901H250.912L254.214 21.913Z" fill="white"/>
<path d="M264.37 23.7889C264.233 23.6156 264.048 23.4872 263.814 23.4036C263.601 23.3252 263.377 23.2832 263.151 23.2792C263.028 23.2792 262.902 23.2938 262.772 23.3231C262.645 23.3513 262.521 23.3967 262.406 23.4581C262.294 23.5161 262.198 23.5999 262.125 23.7025C262.053 23.8038 262.017 23.9266 262.017 24.0709C262.017 24.3027 262.104 24.4796 262.276 24.6018C262.449 24.7252 262.666 24.8302 262.929 24.9167C263.209 25.0091 263.492 25.0959 263.776 25.177C264.074 25.2621 264.359 25.3861 264.624 25.5459C264.887 25.7064 265.11 25.9251 265.277 26.1852C265.449 26.4527 265.535 26.8106 265.535 27.259C265.535 27.6856 265.456 28.0578 265.298 28.3757C265.147 28.6854 264.928 28.9563 264.656 29.1674C264.376 29.3823 264.057 29.5406 263.716 29.6337C263.349 29.7368 262.97 29.7879 262.589 29.7856C262.093 29.7856 261.632 29.7097 261.207 29.558C260.783 29.4057 260.387 29.1598 260.02 28.8203L261.218 27.4977C261.389 27.7275 261.613 27.9118 261.871 28.0343C262.252 28.2237 262.688 28.2735 263.102 28.1751C263.242 28.1427 263.368 28.094 263.479 28.029C263.591 27.9641 263.681 27.881 263.749 27.7797C263.818 27.6782 263.852 27.5589 263.852 27.422C263.852 27.1905 263.764 27.0079 263.587 26.8742C263.411 26.7405 263.19 26.6266 262.924 26.5324C262.658 26.4385 262.37 26.3447 262.06 26.2508C261.758 26.16 261.468 26.0326 261.197 25.8713C260.932 25.7138 260.705 25.4989 260.533 25.2421C260.356 24.9817 260.268 24.6383 260.268 24.2117C260.268 23.8002 260.349 23.4389 260.511 23.1278C260.673 22.8169 260.889 22.5567 261.159 22.3471C261.438 22.1327 261.755 21.9726 262.093 21.8751C262.447 21.7703 262.814 21.7174 263.183 21.7179C263.607 21.7167 264.029 21.779 264.435 21.9026C264.839 22.0253 265.211 22.2362 265.525 22.5203L264.37 23.7889Z" fill="white"/>
<path d="M267.841 21.9126H273.033V23.4738H269.525V24.9058H272.838V26.4666H269.525V28.0288H273.227V29.5901H267.841V21.9126Z" fill="white"/>
<path d="M110.707 36.3782C110.543 36.1769 110.334 36.017 110.097 35.9115C109.856 35.8035 109.577 35.7493 109.26 35.749C108.944 35.749 108.651 35.8106 108.381 35.9337C108.114 36.0547 107.875 36.23 107.68 36.4486C107.476 36.6782 107.318 36.945 107.215 37.2346C107.101 37.551 107.045 37.8852 107.048 38.2216C107.048 38.5832 107.104 38.9139 107.215 39.2138C107.327 39.5141 107.479 39.7743 107.673 39.9945C107.864 40.2122 108.097 40.3876 108.359 40.5095C108.624 40.6331 108.914 40.6961 109.206 40.6941C109.552 40.6941 109.858 40.6218 110.123 40.4771C110.39 40.3333 110.617 40.1244 110.782 39.8696L112.186 40.9217C111.876 41.3653 111.45 41.7144 110.955 41.9304C110.472 42.1446 109.95 42.2553 109.423 42.2554C108.825 42.2554 108.275 42.1614 107.772 41.9733C107.286 41.7963 106.841 41.5213 106.464 41.1652C106.099 40.8151 105.813 40.3906 105.607 39.8918C105.402 39.3929 105.299 38.8361 105.299 38.2216C105.299 37.6076 105.402 37.0508 105.607 36.5514C105.8 36.0707 106.092 35.6366 106.464 35.2774C106.841 34.9215 107.286 34.6466 107.772 34.4698C108.275 34.2818 108.825 34.1877 109.423 34.1877C109.638 34.1877 109.863 34.2077 110.097 34.2475C110.333 34.2877 110.564 34.3513 110.788 34.4375C111.019 34.5256 111.238 34.6422 111.441 34.7846C111.653 34.9331 111.842 35.112 112.002 35.3155L110.707 36.3782Z" fill="white"/>
<path d="M114.844 38.2216C114.844 38.5832 114.9 38.9139 115.011 39.2138C115.116 39.5044 115.28 39.7701 115.492 39.9945C115.702 40.2176 115.958 40.3932 116.242 40.5095C116.533 40.6328 116.859 40.6944 117.219 40.6941C117.578 40.6941 117.904 40.6325 118.195 40.5095C118.478 40.3921 118.734 40.2167 118.946 39.9945C119.157 39.7693 119.32 39.5038 119.426 39.2138C119.54 38.8958 119.597 38.5597 119.594 38.2216C119.594 37.8673 119.538 37.5383 119.426 37.2346C119.32 36.9428 119.157 36.6754 118.946 36.4486C118.734 36.2264 118.478 36.051 118.195 35.9337C117.904 35.8109 117.578 35.7493 117.219 35.749C116.859 35.749 116.533 35.8106 116.242 35.9337C115.959 36.0511 115.703 36.2265 115.492 36.4486C115.279 36.6746 115.116 36.9422 115.011 37.2346C114.898 37.551 114.841 37.8852 114.844 38.2216ZM113.096 38.2216C113.096 37.6076 113.198 37.0508 113.403 36.5514C113.596 36.0705 113.889 35.6364 114.261 35.2779C114.637 34.922 115.082 34.647 115.567 34.4698C116.07 34.2818 116.621 34.1877 117.219 34.1877C117.816 34.1877 118.366 34.2818 118.87 34.4698C119.356 34.6469 119.8 34.9219 120.176 35.2779C120.543 35.6283 120.829 36.0528 121.034 36.5514C121.239 37.0508 121.341 37.6076 121.341 38.2216C121.341 38.8361 121.239 39.3929 121.034 39.8918C120.829 40.3906 120.543 40.8151 120.176 41.1652C119.8 41.5212 119.356 41.7962 118.87 41.9733C118.366 42.1614 117.816 42.2554 117.219 42.2554C116.621 42.2554 116.071 42.1614 115.567 41.9733C115.082 41.7961 114.637 41.5211 114.261 41.1652C113.894 40.8151 113.608 40.3906 113.403 39.8918C113.198 39.3929 113.096 38.8361 113.096 38.2216Z" fill="white"/>
<path d="M123.172 34.3825H125.46L128.709 39.7173H128.73V34.3825H130.414V42.0601H128.213L124.877 36.5951H124.856V42.0601H123.172V34.3825Z" fill="white"/>
<path d="M134.065 35.8787H131.885V34.3825H137.929V35.8787H135.749V42.0601H134.065V35.8787Z" fill="white"/>
<path d="M141.09 37.5604H142.083C142.234 37.5601 142.394 37.5545 142.563 37.5436C142.732 37.5333 142.885 37.5008 143.021 37.4462C143.158 37.3919 143.272 37.3069 143.362 37.1911C143.451 37.0754 143.496 36.9129 143.496 36.7036C143.496 36.5088 143.457 36.3534 143.378 36.2374C143.298 36.122 143.197 36.0332 143.076 35.9713C142.943 35.9071 142.801 35.865 142.655 35.8464C142.496 35.8248 142.341 35.8141 142.19 35.8141H141.09V37.5604ZM139.406 34.383H142.363C142.752 34.383 143.121 34.421 143.47 34.4972C143.818 34.5728 144.124 34.699 144.387 34.8758C144.653 35.0574 144.868 35.304 145.013 35.5922C145.168 35.8921 145.245 36.266 145.246 36.7138C145.246 37.2561 145.105 37.717 144.824 38.0966C144.544 38.4766 144.134 38.7171 143.594 38.8184L145.536 42.0601H143.518L141.921 38.9915H141.09V42.0601H139.406V34.383Z" fill="white"/>
<path d="M148.319 38.2216C148.319 38.5832 148.374 38.9139 148.486 39.2138C148.591 39.5044 148.754 39.7701 148.966 39.9945C149.178 40.2167 149.433 40.3921 149.717 40.5095C150.008 40.6328 150.333 40.6944 150.693 40.6941C151.053 40.6941 151.378 40.6325 151.67 40.5095C151.954 40.3926 152.209 40.2171 152.42 39.9945C152.632 39.77 152.795 39.5043 152.9 39.2138C153.015 38.8958 153.071 38.5597 153.068 38.2216C153.068 37.8673 153.012 37.5383 152.9 37.2346C152.796 36.9422 152.633 36.6747 152.42 36.4486C152.209 36.2265 151.953 36.0511 151.67 35.9337C151.378 35.8109 151.053 35.7493 150.693 35.749C150.333 35.749 150.008 35.8106 149.717 35.9337C149.433 36.0511 149.178 36.2264 148.966 36.4486C148.754 36.6746 148.59 36.9422 148.486 37.2346C148.372 37.551 148.315 37.8852 148.319 38.2216ZM146.57 38.2216C146.57 37.6076 146.673 37.0508 146.877 36.5514C147.071 36.0708 147.363 35.6368 147.736 35.2779C148.112 34.9219 148.556 34.6469 149.042 34.4698C149.546 34.2818 150.096 34.1877 150.693 34.1877C151.291 34.1877 151.841 34.2818 152.345 34.4698C152.83 34.647 153.275 34.922 153.651 35.2779C154.023 35.6364 154.316 36.0705 154.509 36.5514C154.713 37.0508 154.816 37.6076 154.816 38.2216C154.816 38.8361 154.713 39.3929 154.509 39.8918C154.316 40.3729 154.024 40.8072 153.651 41.1652C153.275 41.5211 152.83 41.7961 152.345 41.9733C151.841 42.1614 151.29 42.2554 150.693 42.2554C150.096 42.2554 149.546 42.1614 149.042 41.9733C148.556 41.7962 148.112 41.5212 147.736 41.1652C147.369 40.8151 147.083 40.3906 146.877 39.8918C146.673 39.3929 146.57 38.8361 146.57 38.2216Z" fill="white"/>
<path d="M156.679 34.3825H158.363V40.4988H161.482V42.0601H156.679V34.3825Z" fill="white"/>
<path d="M170.711 36.6164L169.782 39.0022H171.649L170.711 36.6164ZM170.063 34.383H171.455L174.78 42.0601H172.879L172.221 40.4341H169.254L168.617 42.0601H166.76L170.063 34.383Z" fill="white"/>
<path d="M175.954 34.3825H178.242L181.491 39.7173H181.512V34.3825H183.197V42.0601H180.994L177.66 36.5951H177.638V42.0601H175.954V34.3825Z" fill="white"/>
<path d="M187.125 40.4987H187.999C188.387 40.4987 188.749 40.4589 189.084 40.3792C189.419 40.2995 189.709 40.1677 189.953 39.9837C190.202 39.7931 190.4 39.5433 190.53 39.2567C190.67 38.9568 190.741 38.59 190.741 38.1564C190.741 37.7806 190.67 37.4535 190.53 37.1751C190.397 36.9045 190.203 36.6687 189.964 36.4861C189.713 36.2995 189.429 36.1616 189.127 36.0797C188.798 35.9879 188.459 35.9422 188.118 35.9437H187.125V40.4987ZM185.441 34.3825H187.967C188.579 34.3825 189.16 34.4511 189.709 34.5884C190.261 34.7259 190.741 34.9482 191.151 35.2552C191.561 35.5625 191.887 35.9619 192.128 36.4534C192.369 36.9449 192.489 37.5415 192.489 38.2431C192.489 38.8648 192.372 39.4124 192.138 39.8859C191.914 40.3481 191.592 40.7553 191.194 41.0788C190.787 41.4063 190.322 41.6544 189.823 41.8103C189.296 41.9786 188.746 42.0629 188.193 42.06H185.441V34.3825Z" fill="white"/>
<path d="M200.454 37.6357H201.576C201.728 37.6357 201.874 37.6214 202.014 37.5928C202.154 37.5632 202.28 37.5142 202.392 37.4457C202.503 37.3773 202.593 37.2832 202.662 37.1637C202.73 37.0447 202.764 36.8948 202.764 36.7138C202.764 36.5184 202.719 36.3612 202.629 36.2422C202.538 36.1228 202.42 36.0277 202.284 35.9655C202.135 35.8985 201.976 35.8563 201.814 35.8406C201.649 35.8238 201.483 35.8148 201.317 35.8136H200.454V37.6357ZM198.77 34.3825H201.609C202.005 34.3825 202.379 34.4185 202.731 34.4906C203.084 34.5632 203.392 34.6881 203.654 34.8652C203.92 35.0465 204.136 35.2927 204.281 35.5807C204.435 35.8806 204.512 36.2583 204.512 36.7138C204.512 37.1625 204.44 37.5384 204.296 37.8416C204.153 38.1454 203.955 38.3876 203.702 38.5682C203.451 38.7489 203.153 38.8773 202.807 38.9534C202.438 39.0313 202.062 39.0693 201.685 39.0668H200.454V42.0601H198.77V34.3825Z" fill="white"/>
<path d="M207.776 37.5604H208.769C208.92 37.5601 209.079 37.5545 209.248 37.5436C209.418 37.5333 209.571 37.5008 209.707 37.4462C209.844 37.3919 209.958 37.3069 210.047 37.1911C210.137 37.0754 210.182 36.9129 210.182 36.7036C210.182 36.5088 210.143 36.3534 210.063 36.2374C209.987 36.1241 209.883 36.0324 209.761 35.9713C209.628 35.9071 209.486 35.865 209.34 35.8464C209.186 35.8254 209.031 35.8146 208.876 35.8141H207.776V37.5604ZM206.092 34.383H209.049C209.437 34.383 209.806 34.421 210.156 34.4972C210.504 34.5728 210.81 34.699 211.072 34.8758C211.338 35.0573 211.554 35.3039 211.699 35.5922C211.854 35.8921 211.931 36.266 211.931 36.7138C211.931 37.2561 211.791 37.717 211.51 38.0966C211.229 38.4766 210.819 38.7171 210.28 38.8184L212.222 42.0601H210.204L208.606 38.9915H207.776V42.0601H206.092V34.383Z" fill="white"/>
<path d="M213.848 34.3825H219.04V35.9438H215.533V37.3758H218.846V38.9366H215.533V40.4988H219.235V42.0601H213.848V34.3825Z" fill="white"/>
<path d="M220.113 34.3825H222.034L223.923 39.4139H223.944L225.866 34.3825H227.668L224.517 42.0601H223.167L220.113 34.3825Z" fill="white"/>
<path d="M228.778 34.3825H233.97V35.9438H230.462V37.3758H233.775V38.9366H230.462V40.4988H234.164V42.0601H228.778V34.3825Z" fill="white"/>
<path d="M236.184 34.3825H238.472L241.722 39.7173H241.743V34.3825H243.427V42.0601H241.225L237.889 36.5951H237.868V42.0601H236.184V34.3825Z" fill="white"/>
<path d="M247.078 35.8787H244.897V34.3825H250.942V35.8787H248.762V42.0601H247.078V35.8787Z" fill="white"/>
<path d="M252.688 34.3825H254.372V42.0601H252.688V34.3825Z" fill="white"/>
<path d="M257.804 38.2216C257.804 38.5832 257.86 38.9139 257.971 39.2138C258.077 39.5044 258.24 39.7701 258.452 39.9945C258.663 40.2176 258.918 40.3931 259.202 40.5095C259.493 40.6328 259.819 40.6944 260.179 40.6941C260.539 40.6941 260.864 40.6325 261.155 40.5095C261.439 40.3921 261.694 40.2167 261.906 39.9945C262.118 39.77 262.281 39.5043 262.386 39.2138C262.498 38.9139 262.554 38.5832 262.554 38.2216C262.554 37.8673 262.498 37.5383 262.386 37.2346C262.282 36.9423 262.118 36.6747 261.906 36.4486C261.694 36.2264 261.439 36.051 261.155 35.9337C260.864 35.8109 260.539 35.7493 260.179 35.749C259.819 35.749 259.493 35.8106 259.202 35.9337C258.919 36.0512 258.663 36.2265 258.452 36.4486C258.24 36.6746 258.076 36.9422 257.971 37.2346C257.858 37.551 257.801 37.8852 257.804 38.2216ZM256.056 38.2216C256.056 37.6076 256.158 37.0508 256.363 36.5514C256.556 36.0705 256.849 35.6364 257.222 35.2779C257.597 34.921 258.041 34.6459 258.527 34.4698C259.031 34.2818 259.581 34.1877 260.179 34.1877C260.776 34.1877 261.326 34.2818 261.83 34.4698C262.316 34.6469 262.76 34.9219 263.136 35.2779C263.509 35.6368 263.801 36.0708 263.995 36.5514C264.199 37.0508 264.302 37.6076 264.302 38.2216C264.302 38.8361 264.199 39.3929 263.995 39.8918C263.789 40.3906 263.503 40.8151 263.136 41.1652C262.76 41.5212 262.316 41.7962 261.83 41.9733C261.326 42.1614 260.776 42.2554 260.179 42.2554C259.581 42.2554 259.031 42.1614 258.527 41.9733C258.041 41.7973 257.597 41.5221 257.222 41.1652C256.855 40.8151 256.568 40.3906 256.363 39.8918C256.158 39.3929 256.056 38.8361 256.056 38.2216Z" fill="white"/>
<path d="M265.981 34.3825H268.269L271.519 39.7173H271.54V34.3825H273.224V42.0601H271.022L267.687 36.5951H267.665V42.0601H265.981V34.3825Z" fill="white"/>
<path d="M1.86012 61.9197H88.6711C93.4865 61.9197 97.4474 58.2428 97.9234 53.531C97.9555 53.2169 97.9715 52.8986 97.9715 52.5759V1.86897H11.161C7.95021 1.86897 5.11981 3.5033 3.44853 5.98868C3.11207 6.48846 2.82483 7.01995 2.59086 7.57564C2.10655 8.72636 1.85802 9.96335 1.86012 11.2127V61.9197Z" fill="#0057B7"/>
<path d="M97.9234 53.5314C97.4474 58.2431 93.4861 61.92 88.671 61.92H22.3521L72.9786 41.3702C74.8407 42.0609 76.7729 42.374 78.5218 42.374C83.7665 42.374 86.541 39.5986 87.173 38.8777C87.2131 38.8324 87.2351 38.7737 87.2348 38.7131C87.2344 38.6524 87.2118 38.594 87.1712 38.5492L85.239 36.3932L97.9714 31.2254V52.5759C97.9714 52.8988 97.9554 53.2173 97.9234 53.5314ZM11.7983 61.92L40.4474 41.766H47.7161C55.6929 41.766 61.8782 37.0937 61.8782 28.3951C61.8782 18.9712 56.0632 15.196 47.9968 14.8944L60.3476 1.86934H94.42L72.5057 15.6901C68.1235 17.4688 64.2855 21.4105 64.2855 28.446C64.2855 34.7057 67.3535 38.5133 71.1147 40.5302L18.419 61.92H11.7983ZM1.86011 60.8658L12.9662 31.7913C14.1421 37.5365 18.3344 40.5953 22.5972 41.7802L4.54771 61.92H1.86011V60.8658ZM2.59085 7.57601C2.82482 7.02032 3.11206 6.48882 3.44852 5.98904C5.11979 3.50322 7.9502 1.86934 11.1605 1.86934H22.8184L16.4529 18.5324C14.1932 20.7441 12.6387 23.9685 12.6387 28.446C12.6393 28.4685 12.6398 28.491 12.6401 28.5138L1.86011 56.7345V11.2131C1.86011 9.92324 2.12014 8.69405 2.59085 7.57601ZM45.9835 14.8723H38.32C38.2549 14.8725 38.1926 14.8986 38.1465 14.9448C38.1005 14.991 38.0744 15.0536 38.0741 15.1189V41.5194C38.0745 41.5524 38.0811 41.5849 38.0935 41.6155L9.2301 61.92H6.52971L24.2504 42.1473C25.1173 42.2958 25.9951 42.3716 26.8745 42.374C32.1193 42.374 34.8933 39.5986 35.5257 38.8777C35.5659 38.8324 35.5879 38.7737 35.5875 38.7131C35.5872 38.6524 35.5646 38.594 35.524 38.5492L32.1955 34.835C32.1522 34.7864 32.0915 34.757 32.0266 34.7533C31.9618 34.7495 31.8981 34.7718 31.8496 34.8151C31.2665 35.3434 29.2673 36.9321 26.2716 36.9826C22.4985 37.0454 18.676 33.9012 18.676 28.446C18.676 22.9909 22.6205 19.9095 26.3152 19.9095C29.0593 19.9095 30.8266 21.2082 31.3652 21.6665C31.4137 21.7076 31.4763 21.728 31.5396 21.7233C31.6028 21.7186 31.6618 21.6891 31.7037 21.6412L35.0546 17.9019C35.0945 17.8586 35.1173 17.8022 35.1189 17.7432C35.1206 17.6843 35.1008 17.6267 35.0634 17.5813C34.5147 16.9202 32.159 14.5185 26.8745 14.5185C24.2544 14.5185 21.2622 15.2004 18.6984 16.7856L24.3963 1.86934H58.3127L45.9835 14.8723ZM47.0351 36.2962H44.2179C44.1857 36.2962 44.1538 36.2899 44.124 36.2775C44.0942 36.2651 44.0671 36.2469 44.0443 36.224C44.0216 36.2011 44.0035 36.1739 43.9911 36.144C43.9788 36.1141 43.9724 36.082 43.9724 36.0496V20.5892C43.9724 20.4528 44.0822 20.3421 44.2179 20.3421H47.4512C52.4416 20.3421 55.7533 22.8111 55.7533 28.0914C55.7533 34.2072 52.5174 36.2962 47.0351 36.2962ZM83.8428 34.835C83.7993 34.7867 83.7386 34.7575 83.6738 34.7538C83.6091 34.7501 83.5455 34.7721 83.4968 34.8151C82.9137 35.3434 80.9145 36.9321 77.9188 36.9826C74.1457 37.0454 70.3227 33.9012 70.3227 28.446C70.3227 22.9909 74.2678 19.9095 77.9625 19.9095C80.7065 19.9095 82.4738 21.2082 83.012 21.6665C83.0606 21.7074 83.1233 21.7277 83.1865 21.723C83.2498 21.7183 83.3088 21.6889 83.3509 21.6412L86.7018 17.9019C86.7417 17.8586 86.7645 17.8022 86.7662 17.7432C86.7678 17.6843 86.7481 17.6267 86.7106 17.5813C86.1619 16.9202 83.8057 14.5185 78.5218 14.5185C78.0308 14.5185 77.5257 14.5455 77.0136 14.5947L97.1909 1.86934H97.9714V29.6287L84.1901 35.2229L83.8428 34.835ZM11.1605 0.00031662C5.00652 0.00031662 -0.000244141 5.03041 -0.000244141 11.2131V63.7891H88.671C94.825 63.7891 99.8318 58.759 99.8318 52.5759V0.00031662H11.1605Z" fill="white"/>
</g>
</g>
<defs>
<clipPath id="clip0_6_195">
<rect width="273.455" height="64" fill="white"/>
</clipPath>
</defs>
</svg>
