<svg width="200" height="40" viewBox="0 0 200 40" fill="none" xmlns="http://www.w3.org/2000/svg">
<g clip-path="url(#clip0_1734_1774)">
<path d="M49.3823 0.00439561C50.3785 0.00439561 59.0952 -0.0230772 62.5819 0.0593419C77.082 0.471437 83.2806 8.13642 83.2806 19.7026C83.2806 31.2687 76.667 39.7304 62.3882 39.7304H49.3823V0.00439561ZM62.6649 32.2845C68.1163 32.2845 73.457 28.9053 73.457 19.592C73.457 11.2951 69.2508 7.4489 62.7202 7.4489H58.8461V32.2838H62.6649V32.2845Z" fill="#E7F2F5"/>
<path d="M89.0191 0.00442505H98.4553V39.7298H89.0191V0.00442505Z" fill="#E7F2F5"/>
<path d="M105.805 0.00442505H121.052C131.9 0.00442505 136.825 3.71329 136.825 10.4717C136.825 14.2629 135.165 17.0377 130.129 19.3454C136.964 21.2411 137.766 25.6093 137.766 28.9335C137.766 36.2963 133.117 39.7304 121.827 39.7304H105.805V0.00442505ZM122.464 15.9656C125.397 15.9656 127.749 14.4546 127.749 11.6523C127.749 8.85006 125.286 7.11926 122.021 7.11926H115.241V15.9656H122.464ZM122.131 32.6142C126.116 32.6142 128.192 30.5538 128.192 27.8889C128.192 25.0317 125.812 23.2734 122.464 23.2734H115.241V32.6142H122.131Z" fill="#E7F2F5"/>
<path d="M142.728 0.00442505H158.736C169.584 0.00442505 174.509 3.71329 174.509 10.4717C174.509 14.2629 172.849 17.0377 167.813 19.3454C174.648 21.2411 175.45 25.6093 175.45 28.9335C175.45 36.2963 170.801 39.7304 159.511 39.7304H142.728V0.00442505ZM160.147 15.9656C163.08 15.9656 165.432 14.4546 165.432 11.6523C165.432 8.85006 162.969 7.11926 159.704 7.11926H152.924V15.9656H160.147ZM159.815 32.6142C163.799 32.6142 165.875 30.5538 165.875 27.8889C165.875 25.0317 163.495 23.2734 160.147 23.2734H152.924V32.6142H159.815Z" fill="#E7F2F5"/>
<path d="M188.71 39.8396C186.901 39.8396 185.047 39.4914 183.148 38.7956C181.247 38.1005 179.596 37.1843 178.194 36.0483L181.847 30.9933C183.101 31.9095 184.31 32.6142 185.472 33.1087C186.634 33.6032 187.787 33.8505 188.931 33.8505C190.149 33.8505 191.034 33.6403 191.588 33.2186C192.141 32.7983 192.418 32.2392 192.418 31.5427C192.418 30.9205 192.149 30.4081 191.615 30.0042C191.08 29.6018 190.388 29.2261 189.54 28.8778C188.691 28.5303 187.787 28.1732 186.828 27.8064C185.721 27.3668 184.623 26.8174 183.535 26.158C182.446 25.4987 181.533 24.647 180.796 23.603C180.057 22.5591 179.689 21.2864 179.689 19.7843C179.689 17.2568 180.657 15.2059 182.594 13.6303C184.531 12.0561 187.067 11.2676 190.204 11.2676C192.307 11.2676 194.161 11.6248 195.766 12.3391C197.371 13.0534 198.745 13.8501 199.889 14.7292L196.237 19.5645C195.276 18.8323 194.318 18.2643 193.359 17.8612C192.398 17.4587 191.44 17.2568 190.481 17.2568C188.378 17.2568 187.326 17.9711 187.326 19.3997C187.326 20.2788 187.852 20.9478 188.903 21.4052C189.955 21.8633 191.182 22.3489 192.584 22.8613C193.764 23.2651 194.917 23.7864 196.043 24.4272C197.168 25.0687 198.109 25.9108 198.865 26.9547C199.622 27.9987 200 29.3641 200 31.0482C200 33.5029 199.04 35.5813 197.122 37.2846C195.203 38.9879 192.398 39.8396 188.71 39.8396Z" fill="#E7F2F5"/>
<path d="M8.49187 0.00576019H1.43964C0.644548 0.00576019 0 0.645673 0 1.43504V8.43655C0 9.22592 0.644548 9.86583 1.43964 9.86583H8.49187C9.28696 9.86583 9.9315 9.22592 9.9315 8.43655V1.43504C9.9315 0.645673 9.28696 0.00576019 8.49187 0.00576019Z" fill="#6499AF"/>
<path d="M8.49187 14.9387H1.43964C0.644548 14.9387 0 15.5786 0 16.368V23.3695C0 24.1589 0.644548 24.7988 1.43964 24.7988H8.49187C9.28696 24.7988 9.9315 24.1589 9.9315 23.3695V16.368C9.9315 15.5786 9.28696 14.9387 8.49187 14.9387Z" fill="#ADCFDC"/>
<path d="M8.49187 29.8717H1.43964C0.644548 29.8717 0 30.5116 0 31.301V38.3025C0 39.0919 0.644548 39.7318 1.43964 39.7318H8.49187C9.28696 39.7318 9.9315 39.0919 9.9315 38.3025V31.301C9.9315 30.5116 9.28696 29.8717 8.49187 29.8717Z" fill="#2E6276"/>
<path d="M23.533 0.00576019H16.4808C15.6857 0.00576019 15.0412 0.645673 15.0412 1.43504V8.43655C15.0412 9.22592 15.6857 9.86583 16.4808 9.86583H23.533C24.3281 9.86583 24.9727 9.22592 24.9727 8.43655V1.43504C24.9727 0.645673 24.3281 0.00576019 23.533 0.00576019Z" fill="#ADCFDC"/>
<path d="M23.533 14.9387H16.4808C15.6857 14.9387 15.0412 15.5786 15.0412 16.368V23.3695C15.0412 24.1589 15.6857 24.7988 16.4808 24.7988H23.533C24.3281 24.7988 24.9727 24.1589 24.9727 23.3695V16.368C24.9727 15.5786 24.3281 14.9387 23.533 14.9387Z" fill="#6499AF"/>
<path d="M23.533 29.8717H16.4808C15.6857 29.8717 15.0412 30.5116 15.0412 31.301V38.3025C15.0412 39.0919 15.6857 39.7318 16.4808 39.7318H23.533C24.3281 39.7318 24.9727 39.0919 24.9727 38.3025V31.301C24.9727 30.5116 24.3281 29.8717 23.533 29.8717Z" fill="#ADCFDC"/>
<path d="M38.5742 0.00576019H31.5219C30.7269 0.00576019 30.0823 0.645673 30.0823 1.43504V8.43655C30.0823 9.22592 30.7269 9.86583 31.5219 9.86583H38.5742C39.3693 9.86583 40.0138 9.22592 40.0138 8.43655V1.43504C40.0138 0.645673 39.3693 0.00576019 38.5742 0.00576019Z" fill="#ADCFDC"/>
<path d="M38.5742 14.9387H31.5219C30.7269 14.9387 30.0823 15.5786 30.0823 16.368V23.3695C30.0823 24.1589 30.7269 24.7988 31.5219 24.7988H38.5742C39.3693 24.7988 40.0138 24.1589 40.0138 23.3695V16.368C40.0138 15.5786 39.3693 14.9387 38.5742 14.9387Z" fill="#ADCFDC"/>
<path d="M38.5742 29.8717H31.5219C30.7269 29.8717 30.0823 30.5116 30.0823 31.301V38.3025C30.0823 39.0919 30.7269 39.7318 31.5219 39.7318H38.5742C39.3693 39.7318 40.0138 39.0919 40.0138 38.3025V31.301C40.0138 30.5116 39.3693 29.8717 38.5742 29.8717Z" fill="#6499AF"/>
<path d="M18.6821 3.1207L3.48806 18.4229L6.44405 21.3159L21.6381 6.01373L18.6821 3.1207Z" fill="#ADCFDC"/>
<path d="M33.5659 18.4292L18.5393 33.3477L21.4744 36.2616L36.501 21.3431L33.5659 18.4292Z" fill="#ADCFDC"/>
<path d="M21.6542 3.13845L18.6658 5.99852L33.5384 21.3155L36.5267 18.4554L21.6542 3.13845Z" fill="#ADCFDC"/>
</g>
<defs>
<clipPath id="clip0_1734_1774">
<rect width="200" height="40" fill="white"/>
</clipPath>
</defs>
</svg>
