<svg width="200" height="40" viewBox="0 0 200 40" fill="none" xmlns="http://www.w3.org/2000/svg">
<g clip-path="url(#clip0_3286_4927)">
<path d="M0.382324 0.00439561C1.37852 0.00439561 10.0952 -0.0230772 13.5819 0.0593419C28.0821 0.471437 34.2806 8.13642 34.2806 19.7026C34.2806 31.2687 27.667 39.7304 13.3882 39.7304H0.382324V0.00439561ZM13.6649 32.2845C19.1163 32.2845 24.457 28.9053 24.457 19.592C24.457 11.2951 20.2509 7.4489 13.7203 7.4489H9.84617V32.2838L13.6649 32.2845Z" fill="#E7F2F5"/>
<path d="M40.0192 0.00488281H49.4553V39.7303H40.0192V0.00488281Z" fill="#E7F2F5"/>
<path d="M56.8049 0.00488281H72.0522C82.8997 0.00488281 87.8253 3.71375 87.8253 10.4722C87.8253 14.2634 86.165 17.0382 81.1287 19.3459C87.9637 21.2416 88.7662 25.6098 88.7662 28.934C88.7662 36.2968 84.1173 39.7309 72.8271 39.7309H56.8049V0.00488281ZM73.4635 15.9661C76.3968 15.9661 78.7489 14.4551 78.7489 11.6528C78.7489 8.85052 76.2861 7.11972 73.0208 7.11972H66.2411V15.9661H73.4635ZM73.1314 32.6147C77.1162 32.6147 79.1916 30.5543 79.1916 27.8894C79.1916 25.0322 76.8118 23.2739 73.4635 23.2739H66.2411V32.6147H73.1314Z" fill="#E7F2F5"/>
<path d="M93.7279 0.00488281H109.736C120.584 0.00488281 125.509 3.71375 125.509 10.4722C125.509 14.2634 123.849 17.0382 118.813 19.3459C125.648 21.2416 126.45 25.6098 126.45 28.934C126.45 36.2968 121.801 39.7309 110.511 39.7309H93.7279V0.00488281ZM111.147 15.9661C114.08 15.9661 116.432 14.4551 116.432 11.6528C116.432 8.85052 113.969 7.11972 110.704 7.11972H103.924V15.9661H111.147ZM110.815 32.6147C114.799 32.6147 116.875 30.5543 116.875 27.8894C116.875 25.0322 114.495 23.2739 111.147 23.2739H103.924V32.6147H110.815Z" fill="#E7F2F5"/>
<path d="M139.71 39.8396C137.901 39.8396 136.047 39.4914 134.148 38.7956C132.247 38.1005 130.596 37.1843 129.194 36.0483L132.847 30.9933C134.101 31.9095 135.31 32.6142 136.472 33.1087C137.634 33.6032 138.787 33.8505 139.931 33.8505C141.149 33.8505 142.034 33.6403 142.588 33.2186C143.141 32.7983 143.418 32.2392 143.418 31.5427C143.418 30.9205 143.149 30.4081 142.615 30.0042C142.08 29.6018 141.388 29.2261 140.54 28.8778C139.691 28.5303 138.787 28.1732 137.828 27.8064C136.721 27.3668 135.623 26.8174 134.535 26.158C133.446 25.4987 132.533 24.647 131.796 23.603C131.057 22.5591 130.689 21.2864 130.689 19.7843C130.689 17.2568 131.657 15.2059 133.594 13.6303C135.531 12.0561 138.068 11.2676 141.204 11.2676C143.307 11.2676 145.161 11.6248 146.766 12.3391C148.371 13.0534 149.745 13.8501 150.889 14.7292L147.237 19.5645C146.276 18.8323 145.318 18.2643 144.359 17.8612C143.399 17.4587 142.44 17.2568 141.481 17.2568C139.378 17.2568 138.326 17.9711 138.326 19.3997C138.326 20.2788 138.852 20.9478 139.904 21.4052C140.955 21.8633 142.182 22.3489 143.584 22.8613C144.764 23.2651 145.917 23.7864 147.043 24.4272C148.168 25.0687 149.109 25.9108 149.865 26.9547C150.622 27.9987 151 29.3641 151 31.0482C151 33.5029 150.04 35.5813 148.122 37.2846C146.203 38.9879 143.399 39.8396 139.71 39.8396Z" fill="#E7F2F5"/>
</g>
<defs>
<clipPath id="clip0_3286_4927">
<rect width="200" height="40" fill="white"/>
</clipPath>
</defs>
</svg>
