<svg width="70" height="60" viewBox="0 0 70 60" fill="none" xmlns="http://www.w3.org/2000/svg">
<g id="Vector">
<path fill-rule="evenodd" clip-rule="evenodd" d="M65.8824 0H4.11765C1.84353 0 0 1.91878 0 4.28571V55.7143C0 58.0812 1.84353 60 4.11765 60H65.8824C68.1565 60 70 58.0812 70 55.7143V4.28571C70 1.91878 68.1565 0 65.8824 0ZM4.11636 55.714V4.28538H65.8811V55.714H4.11636ZM11.3232 17.6781C11.3232 22.1161 14.7798 25.7139 19.0438 25.7139C23.3077 25.7139 26.7644 22.1161 26.7644 17.6781C26.7644 13.2401 23.3077 9.64242 19.0438 9.64242C14.7798 9.64242 11.3232 13.2401 11.3232 17.6781ZM22.6454 17.6778C22.6454 19.7489 21.0323 21.4278 19.0424 21.4278C17.0526 21.4278 15.4395 19.7489 15.4395 17.6778C15.4395 15.6067 17.0526 13.9278 19.0424 13.9278C21.0323 13.9278 22.6454 15.6067 22.6454 17.6778ZM14.8315 50.8068C14.024 51.64 12.7205 51.6341 11.9199 50.7937C11.1194 49.9532 11.125 48.5965 11.9325 47.7632L28.8657 30.2906L38.4096 38.9308C39.2676 39.7075 39.3581 41.061 38.6119 41.954C37.8657 42.8469 36.5652 42.9412 35.7073 42.1645L29.0488 36.1365L14.8315 50.8068ZM30.2788 50.801C29.4748 51.6378 28.1712 51.6379 27.3672 50.8011C26.5631 49.9643 26.5631 48.6075 27.367 47.7707L54.4639 19.5653L69.2984 33.1128C70.1531 33.8934 70.2381 35.2473 69.4881 36.1369C68.7382 37.0264 67.4374 37.1148 66.5827 36.3343L54.6479 25.4349L30.2788 50.801Z" fill="#224A58"/>
<path fill-rule="evenodd" clip-rule="evenodd" d="M65.8824 0H4.11765C1.84353 0 0 1.91878 0 4.28571V55.7143C0 58.0812 1.84353 60 4.11765 60H65.8824C68.1565 60 70 58.0812 70 55.7143V4.28571C70 1.91878 68.1565 0 65.8824 0ZM4.11636 55.714V4.28538H65.8811V55.714H4.11636ZM11.3232 17.6781C11.3232 22.1161 14.7798 25.7139 19.0438 25.7139C23.3077 25.7139 26.7644 22.1161 26.7644 17.6781C26.7644 13.2401 23.3077 9.64242 19.0438 9.64242C14.7798 9.64242 11.3232 13.2401 11.3232 17.6781ZM22.6454 17.6778C22.6454 19.7489 21.0323 21.4278 19.0424 21.4278C17.0526 21.4278 15.4395 19.7489 15.4395 17.6778C15.4395 15.6067 17.0526 13.9278 19.0424 13.9278C21.0323 13.9278 22.6454 15.6067 22.6454 17.6778ZM14.8315 50.8068C14.024 51.64 12.7205 51.6341 11.9199 50.7937C11.1194 49.9532 11.125 48.5965 11.9325 47.7632L28.8657 30.2906L38.4096 38.9308C39.2676 39.7075 39.3581 41.061 38.6119 41.954C37.8657 42.8469 36.5652 42.9412 35.7073 42.1645L29.0488 36.1365L14.8315 50.8068ZM30.2788 50.801C29.4748 51.6378 28.1712 51.6379 27.3672 50.8011C26.5631 49.9643 26.5631 48.6075 27.367 47.7707L54.4639 19.5653L69.2984 33.1128C70.1531 33.8934 70.2381 35.2473 69.4881 36.1369C68.7382 37.0264 67.4374 37.1148 66.5827 36.3343L54.6479 25.4349L30.2788 50.801Z" fill="#224A58"/>
<path d="M65.8824 0H4.11765C1.84353 0 0 1.91878 0 4.28571V55.7143C0 58.0812 1.84353 60 4.11765 60H65.8824C68.1565 60 70 58.0812 70 55.7143V4.28571C70 1.91878 68.1565 0 65.8824 0ZM4.11636 55.714V4.28538H65.8811V55.714H4.11636ZM11.3232 17.6781C11.3232 22.1161 14.7798 25.7139 19.0438 25.7139C23.3077 25.7139 26.7644 22.1161 26.7644 17.6781C26.7644 13.2401 23.3077 9.64242 19.0438 9.64242C14.7798 9.64242 11.3232 13.2401 11.3232 17.6781ZM22.6454 17.6778C22.6454 19.7489 21.0323 21.4278 19.0424 21.4278C17.0526 21.4278 15.4395 19.7489 15.4395 17.6778C15.4395 15.6067 17.0526 13.9278 19.0424 13.9278C21.0323 13.9278 22.6454 15.6067 22.6454 17.6778ZM14.8315 50.8068C14.024 51.64 12.7205 51.6341 11.9199 50.7937C11.1194 49.9532 11.125 48.5965 11.9325 47.7632L28.8657 30.2906L38.4096 38.9308C39.2676 39.7075 39.3581 41.061 38.6119 41.954C37.8657 42.8469 36.5652 42.9412 35.7073 42.1645L29.0488 36.1365L14.8315 50.8068ZM30.2788 50.801C29.4748 51.6378 28.1712 51.6379 27.3672 50.8011C26.5631 49.9643 26.5631 48.6075 27.367 47.7707L54.4639 19.5653L69.2984 33.1128C70.1531 33.8934 70.2381 35.2473 69.4881 36.1369C68.7382 37.0264 67.4374 37.1148 66.5827 36.3343L54.6479 25.4349L30.2788 50.801Z" fill="#224A58"/>
<path d="M65.8824 0H4.11765C1.84353 0 0 1.91878 0 4.28571V55.7143C0 58.0812 1.84353 60 4.11765 60H65.8824C68.1565 60 70 58.0812 70 55.7143V4.28571C70 1.91878 68.1565 0 65.8824 0ZM4.11636 55.714V4.28538H65.8811V55.714H4.11636ZM11.3232 17.6781C11.3232 22.1161 14.7798 25.7139 19.0438 25.7139C23.3077 25.7139 26.7644 22.1161 26.7644 17.6781C26.7644 13.2401 23.3077 9.64242 19.0438 9.64242C14.7798 9.64242 11.3232 13.2401 11.3232 17.6781ZM22.6454 17.6778C22.6454 19.7489 21.0323 21.4278 19.0424 21.4278C17.0526 21.4278 15.4395 19.7489 15.4395 17.6778C15.4395 15.6067 17.0526 13.9278 19.0424 13.9278C21.0323 13.9278 22.6454 15.6067 22.6454 17.6778ZM14.8315 50.8068C14.024 51.64 12.7205 51.6341 11.9199 50.7937C11.1194 49.9532 11.125 48.5965 11.9325 47.7632L28.8657 30.2906L38.4096 38.9308C39.2676 39.7075 39.3581 41.061 38.6119 41.954C37.8657 42.8469 36.5652 42.9412 35.7073 42.1645L29.0488 36.1365L14.8315 50.8068ZM30.2788 50.801C29.4748 51.6378 28.1712 51.6379 27.3672 50.8011C26.5631 49.9643 26.5631 48.6075 27.367 47.7707L54.4639 19.5653L69.2984 33.1128C70.1531 33.8934 70.2381 35.2473 69.4881 36.1369C68.7382 37.0264 67.4374 37.1148 66.5827 36.3343L54.6479 25.4349L30.2788 50.801Z" fill="#224A58"/>
</g>
</svg>
