<svg width="35" height="35" viewBox="0 0 35 35" fill="none" xmlns="http://www.w3.org/2000/svg">
<path d="M17.5 34.9999C14.9963 34.9999 12.8827 33.2766 12.2904 30.9614H1.34615C0.605846 30.9614 0 30.3556 0 29.6153V28.2691C0 25.7654 1.72327 23.6518 4.03846 23.0595V16.1537C4.03846 10.4596 8.00971 5.58642 13.4615 4.34796V4.03846C13.4615 1.81712 15.2787 0 17.5 0C19.7213 0 21.5385 1.81712 21.5385 4.03846V4.34796C26.9903 5.58633 30.9615 10.4594 30.9615 16.1537V23.0595C33.2767 23.6518 35 25.7654 35 28.2691V29.6153C35 30.3556 34.3942 30.9614 33.6538 30.9614H22.7096C22.1173 33.2766 20.0038 34.9999 17.5 34.9999ZM2.69231 28.2691H13.4615C14.2018 28.2691 14.8077 28.875 14.8077 29.6153C14.8077 31.0958 16.0194 32.3076 17.5 32.3076C18.9806 32.3076 20.1923 31.0958 20.1923 29.6153C20.1923 28.875 20.7982 28.2691 21.5385 28.2691H32.3077C32.3077 26.7885 31.096 25.5768 29.6154 25.5768C28.8751 25.5768 28.2692 24.971 28.2692 24.2307V16.1537C28.2692 11.4152 24.7288 7.40373 20.0308 6.81142C19.3577 6.73067 18.8462 6.15187 18.8462 5.47883V4.03844C18.8462 3.29814 18.2403 2.69229 17.5 2.69229C16.7597 2.69229 16.1538 3.29814 16.1538 4.03844V5.47883C16.1538 6.1519 15.6423 6.73075 14.9692 6.81142C10.2712 7.40375 6.73077 11.4152 6.73077 16.1537V24.2307C6.73077 24.971 6.12492 25.5768 5.38462 25.5768C3.90404 25.5768 2.69231 26.7885 2.69231 28.2691Z" fill="#07648D"/>
</svg>
