<svg width="62" height="36" viewBox="0 0 62 36" fill="none" xmlns="http://www.w3.org/2000/svg">
<g clip-path="url(#clip0_721_224)">
<path d="M0.754395 0.668213H58.7119V35.6008H0.754395V0.668213Z" fill="#105EAB"/>
<path d="M24.5471 35.5928L58.6981 0.993846V0.647949H58.5273L24.0355 35.5928H24.5471ZM3.01316 35.5928L5.3214 0.647949H4.95766L2.64941 35.5928H3.01316ZM4.85992 35.5928L9.84612 0.647949H9.47725L4.49363 35.5928H4.85992ZM6.83586 35.5928L14.636 0.647949H14.2663L6.46277 35.5928H6.83586ZM9.0064 35.5928L20.1389 0.647949H19.7632L8.6274 35.5928H9.0064ZM11.0529 35.5928L25.3553 0.647949H24.9619L10.6586 35.5928H11.0529ZM13.407 35.5928L31.2968 0.647949H30.8964L12.9974 35.5928H13.407ZM40.2348 0.647949H39.8005L16.6399 35.5928H17.0733L40.2348 0.647949ZM48.4938 0.647949H48.0366L19.8805 35.5928H20.3445L48.4938 0.647949ZM58.6981 13.8711V13.4121L30.7792 35.5928H31.3545L58.6981 13.8711ZM58.6981 23.4831V23.0564L38.6404 35.5928H39.3271L58.6981 23.4831ZM58.6981 32.5536V32.1491L51.3179 35.5928H52.1746L58.6981 32.5536Z" fill="white"/>
<path d="M18.0543 21.6574C17.337 22.3441 15.5344 23.0852 14.2112 23.0716C10.3613 23.0682 8.56215 19.7962 8.529 14.7981C8.55537 10.0669 10.4964 7.0567 13.8313 7.05075C16.2161 7.055 17.3753 8.43692 18.0085 9.26124L18.7062 10.1919V5.89068L18.4835 5.78785C17.1093 5.14875 15.3636 4.84959 13.7727 4.84619C7.78624 4.8598 3.21651 9.15081 3.20801 15.2094C3.21651 21.4237 7.53553 25.3246 13.7209 25.3348H13.7523C16.8237 25.3348 18.3985 24.4084 19.2297 23.7719L19.4762 23.5849L18.4512 21.2843L18.0543 21.6574ZM34.8298 7.08049C32.8259 5.61107 30.317 5.17679 28.1771 5.17679H20.8649V24.9829H28.653C32.4298 24.9744 38.2667 22.5778 38.2761 15.0251C38.2828 11.0715 36.8398 8.55078 34.8298 7.08049ZM25.6742 22.684V7.41279C29.2114 7.50713 32.9746 7.93801 33.0417 15.105C32.9848 22.0662 29.1341 22.5889 25.6742 22.684ZM54.9564 21.286L54.5595 21.6583C53.8414 22.3467 52.0448 23.0852 50.7223 23.0716C46.8716 23.0716 45.0708 19.7962 45.0384 14.7998C45.0648 10.067 47.0085 7.05755 50.3476 7.0516C52.7289 7.05415 53.8907 8.43776 54.511 9.26208L55.2122 10.2038V5.89323L54.9904 5.7887C53.6229 5.14705 51.8782 4.85129 50.2805 4.84789C44.2957 4.86064 39.7378 9.15165 39.7276 15.2112C39.7378 21.4262 44.0458 25.3246 50.2345 25.3365H50.283C53.3434 25.3365 54.9122 24.4093 55.7443 23.7744L55.9907 23.5857L54.9564 21.286Z" fill="white"/>
<path d="M59.7427 34.6232H60.4412V34.7268H60.1489V35.4773H60.0384V34.7268H59.7427V34.6232ZM61.2538 35.4764V34.9639V34.7549L61.0106 35.4764H60.8968L60.6562 34.7549H60.6537C60.6537 34.8356 60.6562 34.9461 60.6562 34.9639V35.4764H60.5424V34.6232H60.7047L60.9537 35.3464H60.9571L61.1959 34.6232H61.3625V35.4764H61.2538Z" fill="#0033A0"/>
</g>
<defs>
<clipPath id="clip0_721_224">
<rect width="61.9535" height="36" fill="white"/>
</clipPath>
</defs>
</svg>
