<svg width="41" height="25" viewBox="0 0 41 25" fill="none" xmlns="http://www.w3.org/2000/svg">
<path d="M0.540512 16.9054C0.620899 16.5842 0.660952 16.3032 0.741338 15.982C1.50433 13.1309 3.35119 11.3644 6.24232 10.6815C6.4832 10.6415 6.60364 10.5611 6.64398 10.2799C7.48735 6.34489 11.4223 3.89552 15.3172 4.89936C15.5984 4.97975 15.7188 4.89936 15.8793 4.65848C18.0075 1.28564 21.1394 -0.400813 25.1147 0.0809594C29.1701 0.562718 31.8203 2.93202 33.1052 6.82664C33.1856 7.02746 33.2657 7.1479 33.5069 7.18796C37.7231 8.07134 40.6543 11.8859 40.4937 16.2627C40.3327 20.4792 37.0803 24.0525 32.9039 24.6555C32.4222 24.7359 31.9402 24.776 31.4183 24.776H7.7678C4.2745 24.776 1.5039 22.6078 0.700826 19.3151C0.62044 19.0339 0.580386 18.7129 0.5 18.3916C0.540053 17.9096 0.540053 17.4278 0.540053 16.9057L0.540512 16.9054ZM8.93264 13.0508H7.68794C5.23857 13.0105 3.11042 15.0182 3.03004 17.4275C2.94966 20.1178 4.99764 22.2459 7.76803 22.2459H31.2178C31.6194 22.2459 32.0612 22.2459 32.4625 22.2058C35.474 21.8042 37.8029 19.2747 37.9635 16.2631C38.124 13.1712 36.1163 10.4409 33.1047 9.71802C32.4222 9.55753 31.7396 9.51719 31.0167 9.43681C30.9766 9.11554 30.8962 8.79428 30.8562 8.43297C30.375 4.73883 26.6806 1.96822 22.9868 2.61075C20.2965 3.09251 18.4493 4.61844 17.4858 7.18827C17.3253 7.58993 17.1645 7.99128 17.004 8.43297C16.5223 8.19209 16.0806 7.91088 15.6389 7.71034C12.8282 6.30482 9.45534 8.07166 9.05366 11.1636C8.93294 11.7658 8.97328 12.4083 8.93294 13.0508L8.93264 13.0508Z" fill="#07648D"/>
</svg>
