<svg width="26" height="30" viewBox="0 0 26 30" fill="none" xmlns="http://www.w3.org/2000/svg">
<path d="M0.000621294 7.75142C0.000621294 7.41993 0.132331 7.10182 0.366718 6.86743C0.601106 6.63304 0.918936 6.50134 1.25071 6.50134H20.7121L15.2731 2.23482C14.9215 1.95885 14.744 1.51627 14.8073 1.07374C14.8704 0.631466 15.1651 0.256468 15.5797 0.0898851C15.9946 -0.0764194 16.4665 -0.0088933 16.8181 0.267076L25.1001 6.76753C25.402 7.00471 25.5781 7.36718 25.5781 7.75089C25.5781 8.13456 25.402 8.49701 25.1001 8.73396L16.8181 15.2344C16.5574 15.4395 16.2259 15.5324 15.8967 15.4928C15.5674 15.4532 15.2672 15.2846 15.0624 15.0237C14.8575 14.7631 14.7646 14.4316 14.804 14.1024C14.8436 13.7731 15.0121 13.4732 15.273 13.268L20.7121 9.00153H1.25069C0.918915 9.00153 0.601086 8.86982 0.366698 8.63544C0.13231 8.40105 0.000621294 8.08292 0.000621294 7.75142ZM24.3273 21.0024H4.86596L10.305 16.732C10.6563 16.456 10.8338 16.0137 10.7701 15.5715C10.7068 15.1292 10.4124 14.7544 9.9978 14.5881C9.58315 14.4221 9.11131 14.4896 8.76 14.7656L0.477991 21.266C0.17607 21.5032 0 21.8657 0 22.2494C0 22.6331 0.17607 22.9955 0.477991 23.2325L8.76 29.7329C9.11159 30.0089 9.58342 30.0764 9.99837 29.9101C10.413 29.7438 10.7077 29.3688 10.7707 28.9263C10.8341 28.484 10.6566 28.0414 10.305 27.7655L4.86598 23.5026H24.3273C24.7741 23.5026 25.1868 23.2643 25.41 22.8775C25.6332 22.4908 25.6332 22.0142 25.41 21.6275C25.1868 21.2407 24.7741 21.0024 24.3273 21.0024Z" fill="#07648D"/>
</svg>
