<svg width="38" height="29" viewBox="0 0 38 29" fill="none" xmlns="http://www.w3.org/2000/svg">
<path fill-rule="evenodd" clip-rule="evenodd" d="M35.5626 2.45005C34.1553 1.0379 32.2437 0.244141 30.2501 0.244141C28.2564 0.244141 26.3448 1.0379 24.9376 2.45005L26.7126 4.22505C27.9786 2.95899 29.824 2.46454 31.5534 2.92795C33.2829 3.39136 34.6338 4.74223 35.0972 6.4717C35.5606 8.20117 35.0661 10.0465 33.8001 11.3126L23.8001 21.3126C22.5363 22.5786 20.693 23.0743 18.9646 22.6128C17.2363 22.1513 15.8854 20.8028 15.4209 19.0753C14.9564 17.3477 15.4488 15.5036 16.7126 14.2376L18.4751 12.4626L16.7126 10.6876L14.9376 12.4626C13.5254 13.8698 12.7317 15.7814 12.7317 17.7751C12.7317 19.7687 13.5254 21.6803 14.9376 23.0876C16.3519 24.4838 18.2627 25.2616 20.2501 25.2501C22.2515 25.2583 24.1732 24.4662 25.5876 23.0501L35.5876 13.0501C38.5052 10.115 38.494 5.37133 35.5626 2.45005ZM4.23758 25.0251C3.29487 24.0867 2.76488 22.8114 2.76488 21.4813C2.76488 20.1512 3.29487 18.8759 4.23758 17.9376L14.2376 7.93756C15.1759 6.99484 16.4512 6.46485 17.7813 6.46485C19.1114 6.46485 20.3867 6.99484 21.3251 7.93756C22.2621 8.88359 22.7762 10.1687 22.7501 11.5001C22.7578 12.8352 22.2312 14.118 21.2876 15.0626L18.6376 17.7501L20.4126 19.5251L23.0626 16.8751C26 13.9376 26 9.17502 23.0626 6.23756C20.1251 3.30009 15.3625 3.30009 12.4251 6.23756L2.42508 16.2376C1.00909 17.6453 0.212891 19.5596 0.212891 21.5563C0.212891 23.553 1.00909 25.4673 2.42508 26.8751C3.84861 28.2607 5.76371 29.0249 7.75008 29.0001C9.75396 29.002 11.6772 28.2111 13.1001 26.8001L11.3251 25.0251C10.3867 25.9678 9.11145 26.4978 7.78133 26.4978C6.45122 26.4978 5.17593 25.9678 4.23758 25.0251Z" fill="#07648D"/>
</svg>
