<svg width="28" height="39" viewBox="0 0 28 39" fill="none" xmlns="http://www.w3.org/2000/svg">
<path fill-rule="evenodd" clip-rule="evenodd" d="M0.23999 13.8887C0.342857 6.39604 6.49729 0.403863 13.99 0.501168C21.4827 0.403863 27.6371 6.39604 27.74 13.8887C27.7368 16.7981 26.7698 19.6246 24.99 21.9262L13.99 38.0012L2.98999 21.9262C1.2102 19.6246 0.24315 16.7981 0.23999 13.8887ZM25.24 13.8887C25.1236 7.78262 20.0966 2.91753 13.99 3.00117C7.88341 2.91753 2.85633 7.78262 2.73999 13.8887C2.73818 16.2914 3.55367 18.6233 5.05249 20.5012L13.99 33.5762L23.0025 20.4012C24.4532 18.5403 25.2407 16.2482 25.24 13.8887ZM14 10.5C16.0711 10.5 17.75 12.1789 17.75 14.25C17.75 16.3211 16.0711 18 14 18C11.9289 18 10.25 16.3211 10.25 14.25C10.25 12.1789 11.9289 10.5 14 10.5ZM7.74999 14.25C7.74999 10.7982 10.5482 8 14 8C17.4518 8 20.25 10.7982 20.25 14.25C20.25 17.7018 17.4518 20.5 14 20.5C10.5482 20.5 7.74999 17.7018 7.74999 14.25Z" fill="#07648D"/>
</svg>
