<svg width="35" height="35" viewBox="0 0 35 35" fill="none" xmlns="http://www.w3.org/2000/svg">
<path d="M30.5674 0C32.7819 0 34.6062 1.82473 34.6062 4.03877V21.9896C34.6062 24.204 32.7815 26.0283 30.5674 26.0283H28.0149L28.7862 33.5171L28.7865 33.5174C28.8241 33.8874 28.707 34.2568 28.4628 34.5373C28.2187 34.8181 27.8693 34.9853 27.4977 34.999C27.1262 35.0131 26.7652 34.8729 26.5004 34.6115L17.8897 26.0288H4.53877C2.32433 26.0288 0.5 24.204 0.5 21.99V4.03922C0.5 1.82479 2.32473 0.000457327 4.53877 0.000457327H30.5674L30.5674 0ZM30.5674 2.69278H4.53878C3.76965 2.69278 3.19239 3.27002 3.19239 4.03917V21.99C3.19239 22.7591 3.76963 23.3363 4.53878 23.3363H18.4506C18.8081 23.3354 19.1512 23.4766 19.4044 23.7289L25.7294 30.0256L25.1966 24.8085H25.1963C25.1609 24.4325 25.2849 24.0591 25.5384 23.7792C25.7917 23.499 26.151 23.3385 26.5285 23.336H30.5673C31.3364 23.336 31.9137 22.7587 31.9137 21.9896V4.03878C31.9137 3.26965 31.3364 2.69239 30.5673 2.69239L30.5674 2.69278ZM26.5287 10.7706C27.768 10.7706 28.7725 11.7752 28.7725 13.0145C28.7725 14.2538 27.768 15.2583 26.5287 15.2583C25.2893 15.2583 24.2848 14.2538 24.2848 13.0145C24.2848 11.7752 25.2893 10.7706 26.5287 10.7706ZM17.5388 10.7706C18.7782 10.7706 19.7827 11.7752 19.7827 13.0145C19.7827 14.2538 18.7782 15.2583 17.5388 15.2583C16.2995 15.2583 15.295 14.2538 15.295 13.0145C15.295 11.7752 16.2995 10.7706 17.5388 10.7706ZM8.57787 10.7706C9.81719 10.7706 10.8217 11.7752 10.8217 13.0145C10.8217 14.2538 9.81719 15.2583 8.57787 15.2583C7.33854 15.2583 6.33402 14.2538 6.33402 13.0145C6.33402 11.7752 7.33854 10.7706 8.57787 10.7706Z" fill="#07648D"/>
</svg>
