<svg width="34" height="34" viewBox="0 0 34 34" fill="none" xmlns="http://www.w3.org/2000/svg">
<path d="M21.25 12.1429V6.07143C21.25 5.74938 21.1221 5.44052 20.8943 5.2128C20.6666 4.98508 20.3578 4.85714 20.0357 4.85714H13.9643C13.6422 4.85714 13.3334 4.98508 13.1057 5.2128C12.8779 5.44052 12.75 5.74938 12.75 6.07143V12.1429C12.75 12.4649 12.8779 12.7738 13.1057 13.0015C13.3334 13.2292 13.6422 13.3571 13.9643 13.3571H20.0357C20.3578 13.3571 20.6666 13.2292 20.8943 13.0015C21.1221 12.7738 21.25 12.4649 21.25 12.1429ZM18.8214 10.9286H15.1786V7.28571H18.8214V10.9286ZM9.96929 19.7443C9.8564 19.6305 9.7221 19.5401 9.57413 19.4785C9.42616 19.4168 9.26744 19.3851 9.10714 19.3851C8.94684 19.3851 8.78813 19.4168 8.64016 19.4785C8.49218 19.5401 8.35788 19.6305 8.245 19.7443L3.95857 24.0307C3.84476 24.1436 3.75442 24.2779 3.69277 24.4259C3.63113 24.5738 3.59939 24.7326 3.59939 24.8929C3.59939 25.0532 3.63113 25.2119 3.69277 25.3598C3.75442 25.5078 3.84476 25.6421 3.95857 25.755L8.245 30.0414C8.35788 30.1552 8.49218 30.2456 8.64016 30.3072C8.78813 30.3689 8.94684 30.4006 9.10714 30.4006C9.26744 30.4006 9.42616 30.3689 9.57413 30.3072C9.7221 30.2456 9.8564 30.1552 9.96929 30.0414L14.2557 25.755C14.3695 25.6421 14.4599 25.5078 14.5215 25.3598C14.5832 25.2119 14.6149 25.0532 14.6149 24.8929C14.6149 24.7326 14.5832 24.5738 14.5215 24.4259C14.4599 24.2779 14.3695 24.1436 14.2557 24.0307L9.96929 19.7443ZM9.10714 27.4671L6.53286 24.8929L9.10714 22.3186L11.6814 24.8929L9.10714 27.4671ZM32.7857 15.7857H26.1071V1.21429C26.1071 0.892237 25.9792 0.583379 25.7515 0.355656C25.5238 0.127933 25.2149 0 24.8929 0H9.10714C8.78509 0 8.47624 0.127933 8.24851 0.355656C8.02079 0.583379 7.89286 0.892237 7.89286 1.21429V15.7857H1.21429C0.892237 15.7857 0.583379 15.9136 0.355656 16.1414C0.127933 16.3691 0 16.678 0 17V32.7857C0 33.1078 0.127933 33.4166 0.355656 33.6443C0.583379 33.8721 0.892237 34 1.21429 34H32.7857C33.1078 34 33.4166 33.8721 33.6443 33.6443C33.8721 33.4166 34 33.1078 34 32.7857V17C34 16.678 33.8721 16.3691 33.6443 16.1414C33.4166 15.9136 33.1078 15.7857 32.7857 15.7857ZM10.3214 2.42857H23.6786V15.7857H10.3214V2.42857ZM2.42857 18.2143H15.7857V31.5714H2.42857V18.2143ZM31.5714 31.5714H18.2143V18.2143H31.5714V31.5714ZM20.74 21.3957C20.647 21.6169 20.6216 21.8606 20.667 22.0961C20.7124 22.3317 20.8265 22.5485 20.995 22.7193L27.0664 28.7907C27.1799 28.9033 27.3145 28.9923 27.4624 29.0527C27.6103 29.1132 27.7688 29.1438 27.9286 29.1429C28.0879 29.147 28.2459 29.1137 28.39 29.0457C28.6118 28.9546 28.8016 28.7999 28.9356 28.6011C29.0695 28.4023 29.1417 28.1683 29.1429 27.9286V21.8571C29.1429 21.5351 29.0149 21.2262 28.7872 20.9985C28.5595 20.7708 28.2506 20.6429 27.9286 20.6429H21.8571C21.6174 20.6441 21.3834 20.7162 21.1846 20.8502C20.9858 20.9841 20.8311 21.174 20.74 21.3957ZM26.7143 23.0714V25.0021L24.7836 23.0714H26.7143Z" fill="#07648D"/>
</svg>
