<svg width="36" height="36" viewBox="0 0 36 36" fill="none" xmlns="http://www.w3.org/2000/svg">
<path fill-rule="evenodd" clip-rule="evenodd" d="M31.7499 25.675V19.25C31.7499 17.8693 30.6306 16.75 29.2499 16.75H19.2499V10.325C21.6878 9.69554 23.2773 7.35151 22.96 4.85374C22.6428 2.35598 20.5177 0.483765 17.9999 0.483765C15.482 0.483765 13.357 2.35598 13.0397 4.85374C12.7225 7.35151 14.312 9.69554 16.7499 10.325V16.75H6.74988C5.36917 16.75 4.24988 17.8693 4.24988 19.25V25.675C1.812 26.3045 0.222475 28.6485 0.539733 31.1462C0.856991 33.644 2.98205 35.5162 5.49988 35.5162C8.01772 35.5162 10.1428 33.644 10.46 31.1462C10.7773 28.6485 9.18777 26.3045 6.74988 25.675V19.25H29.2499V25.675C26.812 26.3045 25.2225 28.6485 25.5397 31.1462C25.857 33.644 27.982 35.5162 30.4999 35.5162C33.0177 35.5162 35.1428 33.644 35.46 31.1462C35.7773 28.6485 34.1878 26.3045 31.7499 25.675ZM7.99988 30.5C7.99988 31.8807 6.88059 33 5.49988 33C4.11917 33 2.99988 31.8807 2.99988 30.5C2.99988 29.1193 4.11917 28 5.49988 28C6.88059 28 7.99988 29.1193 7.99988 30.5ZM15.4999 5.49999C15.4999 4.11928 16.6192 2.99999 17.9999 2.99999C19.3806 2.99999 20.4999 4.11928 20.4999 5.49999C20.4999 6.88071 19.3806 7.99999 17.9999 7.99999C16.6192 7.99999 15.4999 6.88071 15.4999 5.49999ZM30.4999 33C29.1192 33 27.9999 31.8807 27.9999 30.5C27.9999 29.1193 29.1192 28 30.4999 28C31.8806 28 32.9999 29.1193 32.9999 30.5C32.9999 31.8807 31.8806 33 30.4999 33Z" fill="#07648D"/>
</svg>
