<svg width="36" height="31" viewBox="0 0 36 31" fill="none" xmlns="http://www.w3.org/2000/svg">
<path d="M0.5 0V30.6429H35.5L35.4997 0H0.5ZM13.6429 19.7143V13.1429H22.3929V19.7143H13.6429ZM22.3929 21.8929V28.4643H13.6429V21.8929H22.3929ZM22.3929 4.39286V10.9643H13.6429V4.39286H22.3929ZM11.4286 4.39286V10.9643H2.67857V4.39286H11.4286ZM2.67857 13.1429H11.4286V19.7143H2.67857V13.1429ZM24.5714 13.1429H33.3214V19.7143H24.5714V13.1429ZM24.5714 10.9643V4.39286H33.3214V10.9643H24.5714ZM2.67857 21.8929H11.4286V28.4643H2.67857V21.8929ZM24.5714 28.4643V21.8929H33.3214V28.4643H24.5714Z" fill="#07648D"/>
</svg>
