<svg width="35" height="28" viewBox="0 0 35 28" fill="none" xmlns="http://www.w3.org/2000/svg">
<path fill-rule="evenodd" clip-rule="evenodd" d="M34.9 13.7625L31.15 5.0125C30.9544 4.55062 30.5016 4.25041 30 4.25H26.25V1.75C26.25 1.05964 25.6904 0.5 25 0.5H1.25C0.559644 0.5 0 1.05964 0 1.75V23C0 23.6904 0.559644 24.25 1.25 24.25H3.925C4.51675 26.4275 6.49357 27.9388 8.75 27.9388C11.0064 27.9388 12.9833 26.4275 13.575 24.25H21.425C22.0167 26.4275 23.9936 27.9388 26.25 27.9388C28.5064 27.9388 30.4833 26.4275 31.075 24.25H33.75C34.4404 24.25 35 23.6904 35 23V14.25C34.9997 14.0824 34.9657 13.9167 34.9 13.7625ZM26.25 6.75H29.175L31.85 13H26.25V6.75ZM8.75 25.5C7.36929 25.5 6.25 24.3807 6.25 23C6.25 21.6193 7.36929 20.5 8.75 20.5C10.1307 20.5 11.25 21.6193 11.25 23C11.25 24.3807 10.1307 25.5 8.75 25.5ZM21.425 21.75H13.575C12.9833 19.5725 11.0064 18.0612 8.75 18.0612C6.49357 18.0612 4.51675 19.5725 3.925 21.75H2.5V3H23.75V18.7C22.6004 19.3672 21.7638 20.4647 21.425 21.75ZM26.25 25.5C24.8693 25.5 23.75 24.3807 23.75 23C23.75 21.6193 24.8693 20.5 26.25 20.5C27.6307 20.5 28.75 21.6193 28.75 23C28.75 24.3807 27.6307 25.5 26.25 25.5ZM32.5 21.75H31.075C30.5065 19.5482 28.5239 18.0074 26.25 18V15.5H32.5V21.75Z" fill="#07648D"/>
</svg>
