<svg width="60" height="60" viewBox="0 0 60 60" fill="none" xmlns="http://www.w3.org/2000/svg">
<g id="Group">
<path id="Vector" d="M10 12.5V47.5H50V12.5H10ZM7.5 7.5H52.5C53.163 7.5 53.7989 7.76339 54.2678 8.23223C54.7366 8.70107 55 9.33696 55 10V50C55 50.663 54.7366 51.2989 54.2678 51.7678C53.7989 52.2366 53.163 52.5 52.5 52.5H7.5C6.83696 52.5 6.20107 52.2366 5.73223 51.7678C5.26339 51.2989 5 50.663 5 50V10C5 9.33696 5.26339 8.70107 5.73223 8.23223C6.20107 7.76339 6.83696 7.5 7.5 7.5V7.5ZM37.5 17.5L46.25 25L37.5 32.5V27.5H27.5V22.5H37.5V17.5ZM22.5 42.5L13.75 35L22.5 27.5V32.5H32.5V37.5H22.5V42.5Z" fill="#224A58"/>
</g>
</svg>
