<svg width="60" height="60" viewBox="0 0 60 60" fill="none" xmlns="http://www.w3.org/2000/svg">
<g id="Group">
<path id="Vector" d="M50 7.50024L55 17.5002V50.0002C55 50.6633 54.7366 51.2992 54.2678 51.768C53.7989 52.2369 53.163 52.5002 52.5 52.5002H7.5C6.83696 52.5002 6.20107 52.2369 5.73223 51.768C5.26339 51.2992 5 50.6633 5 50.0002V17.5102L10 7.50024H50ZM50 22.5002H10V47.5002H50V22.5002ZM30 25.0002L40 35.0002H32.5V45.0002H27.5V35.0002H20L30 25.0002ZM46.91 12.5002H13.09L10.5925 17.5002H49.41L46.91 12.5002Z" fill="#224A58"/>
</g>
</svg>
