<svg width="60" height="60" viewBox="0 0 60 60" fill="none" xmlns="http://www.w3.org/2000/svg">
<g id="Group">
<path id="Vector" d="M10 15.3577V47.4177L22.6625 41.9927L37.6625 49.4927L50 44.2002V12.1427L53.2575 10.7477C53.4477 10.6661 53.6552 10.6331 53.8613 10.6515C54.0675 10.6699 54.2658 10.7393 54.4385 10.8533C54.6113 10.9673 54.753 11.1224 54.851 11.3047C54.949 11.4869 55.0002 11.6907 55 11.8977V47.5002L37.5 55.0002L22.5 47.5002L6.7425 54.2527C6.55228 54.3342 6.3448 54.3672 6.13866 54.3488C5.93253 54.3304 5.7342 54.261 5.56147 54.147C5.38874 54.033 5.24701 53.8779 5.14902 53.6957C5.05102 53.5134 4.99982 53.3096 5 53.1027V17.5002L10 15.3577ZM40.6075 28.1077L30 38.7127L19.3925 28.1077C17.295 26.0098 15.8666 23.337 15.288 20.4274C14.7095 17.5177 15.0067 14.5019 16.1421 11.7611C17.2774 9.02037 19.2 6.67784 21.6667 5.02973C24.1334 3.38162 27.0334 2.50195 30 2.50195C32.9666 2.50195 35.8666 3.38162 38.3333 5.02973C40.8 6.67784 42.7226 9.02037 43.858 11.7611C44.9933 14.5019 45.2905 17.5177 44.712 20.4274C44.1334 23.337 42.705 26.0098 40.6075 28.1077V28.1077ZM30 31.6427L37.07 24.5702C38.4688 23.1718 39.4215 21.3899 39.8076 19.45C40.1937 17.5101 39.9959 15.4993 39.2391 13.6719C38.4823 11.8444 37.2006 10.2825 35.556 9.18353C33.9115 8.08459 31.9779 7.49802 30 7.49802C28.0221 7.49802 26.0885 8.08459 24.444 9.18353C22.7994 10.2825 21.5177 11.8444 20.7609 13.6719C20.0041 15.4993 19.8063 17.5101 20.1924 19.45C20.5785 21.3899 21.5312 23.1718 22.93 24.5702L30 31.6427Z" fill="#224A58"/>
</g>
</svg>
