<svg width="60" height="60" viewBox="0 0 60 60" fill="none" xmlns="http://www.w3.org/2000/svg">
<g id="Group">
<path id="Vector" d="M15 53.75C10.1675 53.75 6.25 49.8325 6.25 45C6.25 40.1675 10.1675 36.25 15 36.25C18.9625 36.25 22.31 38.885 23.3875 42.5H37.5V37.5H42.5V23.105L36.8925 17.5H22.5V22.5H7.5V7.50001H22.5V12.5H36.8925L45 4.39001L55.6075 15L47.5 23.1025V37.5H52.5V52.5H37.5V47.5H23.3875C22.3125 51.115 18.9625 53.75 15 53.75ZM15 41.25C12.93 41.25 11.25 42.93 11.25 45C11.25 47.07 12.93 48.75 15 48.75C17.07 48.75 18.75 47.07 18.75 45C18.75 42.93 17.07 41.25 15 41.25ZM47.5 42.5H42.5V47.5H47.5V42.5ZM45 11.465L41.465 15L45 18.535L48.535 15L45 11.465ZM17.5 12.5H12.5V17.5H17.5V12.5Z" fill="#224A58"/>
</g>
</svg>
