<svg width="60" height="60" viewBox="0 0 60 60" fill="none" xmlns="http://www.w3.org/2000/svg">
<g id="Group">
<path id="Vector" d="M50 5.00024C51.38 5.00024 52.5 6.12024 52.5 7.50024V52.5002C52.5 53.8802 51.38 55.0002 50 55.0002H15C13.62 55.0002 12.5 53.8802 12.5 52.5002V47.5002H7.5V42.5002H12.5V37.5002H7.5V32.5002H12.5V27.5002H7.5V22.5002H12.5V17.5002H7.5V12.5002H12.5V7.50024C12.5 6.12024 13.62 5.00024 15 5.00024H50ZM47.5 10.0002H17.5V50.0002H47.5V10.0002ZM35 20.0002V27.5002H42.5V32.5002H34.9975L35 40.0002H30L29.9975 32.5002H22.5V27.5002H30V20.0002H35Z" fill="#224A58"/>
</g>
</svg>
