<svg width="60" height="60" viewBox="0 0 60 60" fill="none" xmlns="http://www.w3.org/2000/svg">
<g id="Group">
<path id="Vector" d="M42.5 42.5001H55V47.5001H47.5V55.0001H42.5V42.5001ZM17.5 17.5001H5V12.5001H12.5V5.00012H17.5V17.5001ZM45.91 38.8401L42.375 35.3001L45.91 31.7651C47.0791 30.6062 48.0077 29.2279 48.6427 27.7091C49.2776 26.1904 49.6063 24.5612 49.6099 22.915C49.6135 21.2689 49.292 19.6383 48.6637 18.1168C48.0354 16.5953 47.1128 15.2128 45.9488 14.0488C44.7848 12.8848 43.4024 11.9622 41.8809 11.3339C40.3593 10.7057 38.7287 10.3841 37.0826 10.3877C35.4365 10.3913 33.8073 10.72 32.2885 11.3549C30.7698 11.9899 29.3914 12.9185 28.2325 14.0876L24.6975 17.6251L21.16 14.0901L24.7 10.5551C27.9821 7.27307 32.4335 5.42923 37.075 5.42923C41.7165 5.42923 46.1679 7.27307 49.45 10.5551C52.7321 13.8372 54.5759 18.2886 54.5759 22.9301C54.5759 27.5716 52.7321 32.0231 49.45 35.3051L45.9125 38.8401H45.91ZM38.84 45.9101L35.3025 49.4451C32.0204 52.7272 27.569 54.571 22.9275 54.571C18.286 54.571 13.8346 52.7272 10.5525 49.4451C7.27045 46.1631 5.42661 41.7116 5.42661 37.0701C5.42661 32.4286 7.27045 27.9772 10.5525 24.6951L14.09 21.1601L17.625 24.7001L14.09 28.2351C12.9209 29.394 11.9923 30.7724 11.3573 32.2911C10.7224 33.8099 10.3937 35.4391 10.3901 37.0852C10.3865 38.7313 10.708 40.362 11.3363 41.8835C11.9646 43.405 12.8872 44.7874 14.0512 45.9514C15.2152 47.1154 16.5976 48.038 18.1191 48.6663C19.6407 49.2946 21.2713 49.6162 22.9174 49.6126C24.5635 49.6089 26.1927 49.2802 27.7115 48.6453C29.2302 48.0104 30.6086 47.0817 31.7675 45.9126L35.3025 42.3776L38.84 45.9126V45.9101ZM37.07 19.3926L40.6075 22.9301L22.93 40.6051L19.3925 37.0701L37.07 19.3951V19.3926Z" fill="#224A58"/>
</g>
</svg>
