<svg width="60" height="60" viewBox="0 0 60 60" fill="none" xmlns="http://www.w3.org/2000/svg">
<g id="Group">
<path id="Vector" d="M17.5 17.5001V7.50012C17.5 6.83708 17.7634 6.2012 18.2322 5.73235C18.7011 5.26351 19.337 5.00012 20 5.00012H52.5C53.163 5.00012 53.7989 5.26351 54.2678 5.73235C54.7366 6.2012 55 6.83708 55 7.50012V40.0001C55 40.6632 54.7366 41.299 54.2678 41.7679C53.7989 42.2367 53.163 42.5001 52.5 42.5001H42.5V52.4826C42.5 53.8726 41.3775 55.0001 39.9825 55.0001H7.5175C7.18681 55.0005 6.85929 54.9356 6.55371 54.8092C6.24812 54.6828 5.97046 54.4973 5.73663 54.2635C5.50279 54.0297 5.31736 53.752 5.19096 53.4464C5.06456 53.1408 4.99967 52.8133 5 52.4826L5.0075 20.0176C5.0075 18.6276 6.13 17.5001 7.525 17.5001H17.5ZM22.5 17.5001H39.9825C41.3725 17.5001 42.5 18.6226 42.5 20.0176V37.5001H50V10.0001H22.5V17.5001ZM37.5 22.5001H10.0075L10 50.0001H37.5V22.5001ZM21.2575 45.0001L12.4175 36.1601L15.9525 32.6251L21.2575 37.9301L31.8625 27.3226L35.3975 30.8576L21.2575 45.0001Z" fill="#224A58"/>
</g>
</svg>
