<svg width="479" height="556" viewBox="0 0 479 556" fill="none" xmlns="http://www.w3.org/2000/svg">
<path d="M447.849 102.404H441.221C441.09 102.404 440.959 102.433 440.838 102.49C440.716 102.547 440.606 102.631 440.513 102.736C440.42 102.841 440.346 102.966 440.296 103.104C440.246 103.242 440.22 103.389 440.22 103.538V151.969H357.394V1.36129C357.394 1.21236 357.369 1.06486 357.318 0.927242C357.268 0.789621 357.194 0.664577 357.101 0.559266C357.008 0.453954 356.898 0.370442 356.776 0.313509C356.655 0.256575 356.525 0.227337 356.393 0.227468H349.765C349.5 0.227468 349.245 0.346924 349.057 0.559558C348.869 0.772191 348.764 1.06058 348.764 1.36129V45.7449H252.229V1.36129C252.229 1.21236 252.203 1.06486 252.153 0.927242C252.103 0.789621 252.029 0.664577 251.936 0.559266C251.843 0.453954 251.733 0.370442 251.611 0.313509C251.49 0.256575 251.359 0.227337 251.228 0.227468H244.6C244.468 0.227468 244.338 0.256803 244.217 0.313795C244.096 0.370787 243.985 0.45432 243.892 0.559618C243.799 0.664917 243.726 0.789916 243.676 0.927473C243.625 1.06503 243.6 1.21244 243.6 1.36129V132.2H148.664V67.71C148.664 67.5611 148.638 67.4137 148.588 67.2761C148.538 67.1385 148.464 67.0135 148.371 66.9083C148.278 66.803 148.168 66.7194 148.046 66.6625C147.925 66.6055 147.795 66.5762 147.663 66.5762H141.035C140.77 66.5764 140.515 66.696 140.328 66.9086C140.14 67.1212 140.035 67.4095 140.035 67.71V206.731H67.9622V186.558C67.9624 186.41 67.9366 186.262 67.8863 186.125C67.8361 185.987 67.7625 185.862 67.6696 185.757C67.5767 185.651 67.4664 185.568 67.345 185.511C67.2235 185.454 67.0934 185.425 66.962 185.425H60.3375C60.206 185.424 60.0757 185.454 59.9542 185.511C59.8327 185.568 59.7223 185.651 59.6293 185.756C59.5363 185.862 59.4625 185.987 59.4123 186.124C59.362 186.262 59.3362 186.409 59.3363 186.558V237.811H67.9658V216.504H140.041V237.811H148.664V141.974H243.6V237.811H252.229V55.5239H348.764V237.811H357.394V161.744H440.22V237.811H448.849V103.538C448.85 103.389 448.824 103.242 448.774 103.104C448.723 102.967 448.65 102.842 448.557 102.736C448.464 102.631 448.354 102.548 448.232 102.491C448.111 102.434 447.981 102.404 447.849 102.404Z" fill="#D8E9F9"/>
<path d="M43.318 236.993H464.865V552.6C464.865 553.501 464.548 554.366 463.985 555.004C463.422 555.642 462.658 556 461.862 556H46.3206C45.5242 556 44.7605 555.642 44.1974 555.004C43.6343 554.366 43.318 553.501 43.318 552.6V236.993Z" fill="#F3F5FD"/>
<path d="M432.544 357.906H387.705C386.876 357.906 386.204 358.668 386.204 359.607V410.388C386.204 411.327 386.876 412.089 387.705 412.089H432.544C433.374 412.089 434.046 411.327 434.046 410.388V359.607C434.046 358.668 433.374 357.906 432.544 357.906Z" fill="#DEE8F5"/>
<path d="M120.477 357.906H75.6383C74.8089 357.906 74.1366 358.668 74.1366 359.607V410.388C74.1366 411.328 74.8089 412.089 75.6383 412.089H120.477C121.307 412.089 121.979 411.328 121.979 410.388V359.607C121.979 358.668 121.307 357.906 120.477 357.906Z" fill="#D8E9F9"/>
<path d="M198.494 357.906H153.655C152.826 357.906 152.154 358.668 152.154 359.607V410.388C152.154 411.328 152.826 412.089 153.655 412.089H198.494C199.324 412.089 199.996 411.328 199.996 410.388V359.607C199.996 358.668 199.324 357.906 198.494 357.906Z" fill="#D8E9F9"/>
<path d="M276.51 357.906H231.671C230.842 357.906 230.169 358.668 230.169 359.607V410.388C230.169 411.328 230.842 412.089 231.671 412.089H276.51C277.34 412.089 278.012 411.328 278.012 410.388V359.607C278.012 358.668 277.34 357.906 276.51 357.906Z" fill="#D8E9F9"/>
<path d="M354.527 357.906H309.688C308.859 357.906 308.187 358.668 308.187 359.607V410.388C308.187 411.328 308.859 412.089 309.688 412.089H354.527C355.357 412.089 356.029 411.328 356.029 410.388V359.607C356.029 358.668 355.357 357.906 354.527 357.906Z" fill="#D8E9F9"/>
<path d="M120.477 271.959H75.6383C74.8089 271.959 74.1366 272.72 74.1366 273.66V324.441C74.1366 325.38 74.8089 326.141 75.6383 326.141H120.477C121.307 326.141 121.979 325.38 121.979 324.441V273.66C121.979 272.72 121.307 271.959 120.477 271.959Z" fill="#D8E9F9"/>
<path d="M198.494 271.959H153.655C152.826 271.959 152.154 272.72 152.154 273.66V324.441C152.154 325.38 152.826 326.141 153.655 326.141H198.494C199.324 326.141 199.996 325.38 199.996 324.441V273.66C199.996 272.72 199.324 271.959 198.494 271.959Z" fill="#D8E9F9"/>
<path d="M276.51 271.959H231.671C230.842 271.959 230.169 272.72 230.169 273.66V324.441C230.169 325.38 230.842 326.141 231.671 326.141H276.51C277.34 326.141 278.012 325.38 278.012 324.441V273.66C278.012 272.72 277.34 271.959 276.51 271.959Z" fill="#D8E9F9"/>
<path d="M354.527 271.959H309.688C308.859 271.959 308.187 272.72 308.187 273.66V324.441C308.187 325.38 308.859 326.141 309.688 326.141H354.527C355.357 326.141 356.029 325.38 356.029 324.441V273.66C356.029 272.72 355.357 271.959 354.527 271.959Z" fill="#D8E9F9"/>
<path d="M432.544 271.959H387.705C386.876 271.959 386.204 272.72 386.204 273.66V324.441C386.204 325.38 386.876 326.141 387.705 326.141H432.544C433.374 326.141 434.046 325.38 434.046 324.441V273.66C434.046 272.72 433.374 271.959 432.544 271.959Z" fill="#DEE8F5"/>
<path d="M204.657 443.855H263.912V556H203.156V445.555C203.156 445.104 203.315 444.672 203.596 444.353C203.877 444.034 204.259 443.855 204.657 443.855Z" fill="#FAFAFA"/>
<path d="M209.792 449.673H258.777V556H208.29V451.366C208.292 450.917 208.451 450.486 208.732 450.168C209.014 449.851 209.395 449.673 209.792 449.673Z" fill="#D8E9F9"/>
<path d="M252.569 498.587C254.04 498.587 255.232 497.237 255.232 495.572C255.232 493.906 254.04 492.556 252.569 492.556C251.098 492.556 249.906 493.906 249.906 495.572C249.906 497.237 251.098 498.587 252.569 498.587Z" fill="#FAFAFA"/>
<path d="M319.532 556H258.777V443.855H318.03C318.429 443.855 318.811 444.034 319.092 444.353C319.374 444.672 319.532 445.105 319.532 445.556V556Z" fill="#FAFAFA"/>
<path d="M314.396 555.997H263.911V449.67H312.895C313.294 449.67 313.675 449.849 313.957 450.168C314.239 450.487 314.397 450.919 314.397 451.37V555.997H314.396Z" fill="#D8E9F9"/>
<path d="M270.118 498.587C271.589 498.587 272.781 497.237 272.781 495.572C272.781 493.906 271.589 492.556 270.118 492.556C268.647 492.556 267.455 493.906 267.455 495.572C267.455 497.237 268.647 498.587 270.118 498.587Z" fill="#FAFAFA"/>
<path d="M384.31 547.369L400.974 545.391C400.224 539.095 399.375 531.531 399.318 530.29C399.322 530.37 399.322 530.435 399.322 530.486H382.54C382.54 530.988 382.54 532.517 384.31 547.369Z" fill="#BB6751"/>
<path d="M451.179 549.371L467.961 549.317C467.961 549.317 467.905 532.019 467.905 530.486H451.123C451.123 532.023 451.179 549.371 451.179 549.371Z" fill="#BB6751"/>
<path d="M430.778 555.851C430.327 555.849 429.881 555.754 429.468 555.572C429.055 555.39 428.684 555.125 428.378 554.793C428.073 554.462 427.839 554.071 427.691 553.646C427.544 553.22 427.485 552.768 427.521 552.319C427.569 551.697 427.795 551.101 428.172 550.602C428.548 550.103 429.059 549.722 429.645 549.504L449.178 542.974C449.557 542.848 449.958 542.806 450.354 542.85C450.75 542.894 451.133 543.023 451.474 543.228C454.159 545.088 457.371 546.038 460.638 545.94C463.183 545.76 465.625 544.869 467.687 543.37C467.868 543.222 468.088 543.128 468.321 543.099C468.554 543.071 468.79 543.109 469.001 543.209C469.213 543.31 469.392 543.468 469.517 543.666C469.642 543.864 469.708 544.093 469.707 544.327V553.862C469.707 554.143 469.651 554.422 469.543 554.682C469.435 554.941 469.276 555.177 469.077 555.376C468.877 555.574 468.64 555.731 468.38 555.838C468.119 555.945 467.84 556 467.558 555.998L430.778 555.851Z" fill="#28A0CB"/>
<path d="M363.863 555.851C363.411 555.849 362.965 555.754 362.553 555.572C362.14 555.39 361.769 555.125 361.463 554.794C361.157 554.462 360.923 554.071 360.776 553.646C360.628 553.22 360.57 552.768 360.605 552.319C360.654 551.697 360.88 551.101 361.256 550.602C361.632 550.103 362.144 549.722 362.73 549.504L382.263 542.974C382.641 542.848 383.042 542.806 383.439 542.85C383.835 542.894 384.217 543.023 384.558 543.228C387.244 545.088 390.456 546.038 393.723 545.94C396.267 545.76 398.71 544.869 400.771 543.37C400.953 543.222 401.172 543.128 401.405 543.099C401.638 543.071 401.874 543.109 402.086 543.209C402.297 543.31 402.476 543.468 402.601 543.666C402.726 543.864 402.792 544.093 402.792 544.327V553.862C402.792 554.143 402.736 554.422 402.628 554.682C402.52 554.941 402.361 555.177 402.162 555.376C401.962 555.574 401.725 555.731 401.464 555.838C401.204 555.945 400.925 556 400.643 555.998L363.863 555.851Z" fill="#28A0CB"/>
<path d="M407.686 542.079L378.118 541.577C379.507 506.45 379.592 469.605 380.025 434.393C385.795 396.441 388.835 354.765 395.956 317.085L396.169 317.148L396.794 312.896L457.591 309.147L459.956 348.799H459.769C462.944 405.753 468.674 485.972 472.286 541.126L442.823 543.612C437.514 489.536 429.299 410.742 424.246 353.933C418.443 381.591 414.496 410.229 409.45 437.649C408.442 471.975 407.589 507.857 407.686 542.079Z" fill="#262626"/>
<path d="M432.7 212.975C432.692 212.751 432.692 212.536 432.692 212.305C432.684 210.853 432.748 209.273 432.892 207.55L431.678 207.327H431.669L420.121 205.189C420.342 208.021 420.3 210.868 419.993 213.693C419.953 214.012 419.913 214.339 419.866 214.666C419.858 214.698 419.858 214.722 419.85 214.754C419.802 215.105 419.746 215.464 419.682 215.815C419.618 216.166 419.562 216.501 419.482 216.844C419.474 216.876 419.474 216.9 419.466 216.924C419.394 217.275 419.314 217.61 419.218 217.945C419.13 218.296 419.034 218.639 418.923 218.982C418.835 219.277 418.739 219.564 418.627 219.851C418.595 219.939 418.563 220.035 418.523 220.123C418.419 220.41 418.299 220.689 418.171 220.96C418.035 221.271 417.884 221.575 417.724 221.87C417.722 221.87 417.72 221.871 417.718 221.872C417.717 221.874 417.716 221.876 417.716 221.878C417.113 223.056 416.266 224.092 415.23 224.917H435.313C434.075 222.779 432.796 219.109 432.7 212.983V212.975Z" fill="#BB6751"/>
<path opacity="0.15" d="M417.715 221.882L428.321 213.781L419.991 213.695C419.749 216.542 418.978 219.318 417.715 221.882Z" fill="black"/>
<path d="M440.132 201.038C439.248 206.134 436.461 210.96 431.958 212.605C426.613 214.56 422.653 214.692 416.489 214.692C408.077 214.692 408.355 205.935 408.12 197.112C407.88 188.252 408.588 178.748 411.912 175.661C418.545 169.499 438.023 173.402 440.392 183.708C441.621 189.04 440.976 196.187 440.132 201.038Z" fill="#BB6751"/>
<path d="M432.295 212.124C432.56 212.971 432.745 213.34 433.51 212.886C436.512 211.106 443.267 207.232 445.568 192.718C447.631 179.714 439.594 174.349 433.182 172.435C427.657 170.785 420.745 169.947 414.694 173.588C409.48 176.726 408.713 184.517 408.713 184.517C411.017 184.624 411.482 186.601 416.919 186.601C421.123 186.601 423.856 184.726 427.791 184.891C431.394 185.042 432.134 187.235 432.006 188.64C431.234 197.166 431.356 209.127 432.295 212.124Z" fill="#0F1011"/>
<path d="M420.141 197.112C420.781 197.112 421.299 196.595 421.299 195.956C421.299 195.318 420.781 194.8 420.141 194.8C419.502 194.8 418.983 195.318 418.983 195.956C418.983 196.595 419.502 197.112 420.141 197.112Z" fill="#0F1011"/>
<path d="M411.006 196.364C411.646 196.364 412.164 195.846 412.164 195.208C412.164 194.57 411.646 194.052 411.006 194.052C410.367 194.052 409.848 194.57 409.848 195.208C409.848 195.846 410.367 196.364 411.006 196.364Z" fill="#0F1011"/>
<path d="M408.999 192.745H409.006L412.074 192.707C412.145 192.706 412.216 192.691 412.282 192.663C412.347 192.635 412.407 192.594 412.457 192.543C412.506 192.492 412.546 192.431 412.572 192.365C412.599 192.299 412.612 192.228 412.611 192.157C412.613 192.084 412.601 192.012 412.574 191.945C412.547 191.878 412.506 191.818 412.454 191.767C412.402 191.717 412.341 191.678 412.273 191.653C412.205 191.628 412.132 191.617 412.06 191.621L408.992 191.659C408.848 191.66 408.71 191.718 408.609 191.821C408.507 191.923 408.451 192.062 408.452 192.206C408.453 192.35 408.511 192.488 408.614 192.589C408.716 192.69 408.855 192.746 408.999 192.745Z" fill="#0F1011"/>
<path d="M422.641 193.861C422.774 193.861 422.902 193.812 423.002 193.724C423.101 193.635 423.165 193.514 423.18 193.382C423.196 193.25 423.162 193.117 423.086 193.008C423.01 192.899 422.897 192.821 422.767 192.79L419.743 192.063C419.673 192.045 419.6 192.041 419.528 192.051C419.457 192.061 419.387 192.085 419.325 192.122C419.263 192.159 419.209 192.208 419.166 192.267C419.123 192.325 419.092 192.391 419.075 192.462C419.058 192.532 419.056 192.605 419.067 192.677C419.079 192.748 419.105 192.816 419.143 192.878C419.182 192.939 419.232 192.992 419.292 193.033C419.351 193.075 419.418 193.104 419.489 193.12L422.513 193.847C422.555 193.857 422.598 193.861 422.641 193.861Z" fill="#0F1011"/>
<path d="M426.165 198.784C426.103 199.431 426.17 200.083 426.363 200.703C426.555 201.324 426.87 201.9 427.287 202.398C427.705 202.896 428.217 203.306 428.795 203.604C429.373 203.903 430.004 204.084 430.652 204.137C431.301 204.19 431.953 204.113 432.572 203.912C433.19 203.711 433.763 203.389 434.255 202.966C434.748 202.542 435.152 202.025 435.443 201.444C435.734 200.863 435.906 200.23 435.95 199.582C436.014 198.939 435.947 198.289 435.754 197.672C435.561 197.054 435.246 196.482 434.827 195.989C434.408 195.496 433.894 195.092 433.315 194.802C432.736 194.511 432.105 194.34 431.459 194.298C427.96 194.187 426.387 196.087 426.165 198.784Z" fill="#BB6751"/>
<g opacity="0.15">
<path d="M415.001 202.368C415.097 202.368 415.189 202.334 415.262 202.271C415.334 202.209 415.382 202.123 415.396 202.028C415.411 201.934 415.39 201.837 415.339 201.756C415.288 201.676 415.21 201.616 415.119 201.588L412.763 200.866L414.411 197.204C414.432 197.156 414.444 197.105 414.446 197.052C414.447 197 414.438 196.948 414.42 196.899C414.401 196.85 414.373 196.805 414.337 196.767C414.301 196.729 414.258 196.698 414.21 196.676C414.162 196.655 414.111 196.643 414.058 196.641C414.006 196.64 413.954 196.648 413.905 196.667C413.855 196.686 413.811 196.714 413.772 196.749C413.734 196.785 413.703 196.828 413.682 196.876L411.849 200.95C411.826 201.002 411.814 201.058 411.814 201.114C411.814 201.171 411.826 201.227 411.85 201.278C411.873 201.33 411.907 201.376 411.95 201.413C411.992 201.451 412.042 201.479 412.096 201.495L414.884 202.35C414.922 202.362 414.961 202.368 415.001 202.368Z" fill="black"/>
</g>
<path d="M419.606 205.06C419.606 205.06 415.331 205.51 412.333 204.464C412.333 204.464 412.357 207.275 415.739 207.552C419.121 207.828 419.606 205.06 419.606 205.06Z" fill="#F8FCFF"/>
<path d="M446.549 191.059C446.823 188.36 446.556 185.633 445.762 183.038C444.969 180.443 443.665 178.032 441.928 175.946C440.191 173.859 438.054 172.139 435.644 170.886C433.233 169.633 430.596 168.872 427.888 168.647C425.179 168.423 422.453 168.739 419.869 169.578C417.284 170.417 414.893 171.762 412.834 173.534C410.776 175.306 409.092 177.469 407.881 179.898C406.67 182.327 405.955 184.972 405.78 187.68" fill="#FFBC78"/>
<path opacity="0.22" d="M414.952 188.636C414.952 188.636 414.621 174.448 430.32 169.378C430.32 169.378 428.579 169.08 427.994 169.032C427.118 168.94 426.236 168.918 425.356 168.966C425.356 168.966 409.858 172.54 408.775 187.928L414.952 188.636Z" fill="white"/>
<path d="M404.481 188.803L447.644 192.38L447.815 190.331L404.651 186.753L404.481 188.803Z" fill="#FFBC78"/>
<path opacity="0.09" d="M404.481 188.803L447.644 192.38L447.815 190.331L404.651 186.753L404.481 188.803Z" fill="black"/>
<path opacity="0.63" d="M432.558 171.73C430.194 171.553 427.831 172.087 425.773 173.263C420.568 176.302 420.259 180.052 420.259 180.052C420.259 180.052 425.479 172.01 432.558 171.73Z" fill="white"/>
<path d="M412.058 185.46C413.739 185.46 415.102 184.1 415.102 182.422C415.102 180.744 413.739 179.383 412.058 179.383C410.377 179.383 409.014 180.744 409.014 182.422C409.014 184.1 410.377 185.46 412.058 185.46Z" fill="#FFBC78"/>
<path opacity="0.09" d="M412.058 185.46C413.739 185.46 415.102 184.1 415.102 182.422C415.102 180.744 413.739 179.383 412.058 179.383C410.377 179.383 409.014 180.744 409.014 182.422C409.014 184.1 410.377 185.46 412.058 185.46Z" fill="black"/>
<path d="M410.559 185.336C412.24 185.336 413.603 183.975 413.603 182.297C413.603 180.619 412.24 179.259 410.559 179.259C408.878 179.259 407.515 180.619 407.515 182.297C407.515 183.975 408.878 185.336 410.559 185.336Z" fill="#FFBC78"/>
<path opacity="0.13" d="M410.559 185.336C412.24 185.336 413.603 183.975 413.603 182.297C413.603 180.619 412.24 179.259 410.559 179.259C408.878 179.259 407.515 180.619 407.515 182.297C407.515 183.975 408.878 185.336 410.559 185.336Z" fill="white"/>
<path opacity="0.36" d="M410.559 183.89C411.441 183.89 412.155 183.177 412.155 182.297C412.155 181.417 411.441 180.704 410.559 180.704C409.678 180.704 408.963 181.417 408.963 182.297C408.963 183.177 409.678 183.89 410.559 183.89Z" fill="white"/>
<path d="M340.165 246.665C338.402 245.069 333.354 238.795 331.572 239.908C330.505 240.575 333.277 246.068 333.277 246.068" fill="#E5A5A0"/>
<path d="M323.116 241.799C320.798 244.348 323.696 248.463 326.197 250.782C333.409 257.47 339.955 261.583 342.274 259.034C344.592 256.486 340.008 249.209 332.245 243.167C329.033 240.668 325.434 239.251 323.116 241.799Z" fill="#E5A5A0"/>
<path d="M371.304 290.364C372.736 290.364 374.146 290.012 375.409 289.339C376.672 288.666 377.749 287.693 378.545 286.505L409.899 239.731L396.898 228.489L369.516 268.701L339.279 242.919L327.962 256.145L365.648 288.279C367.225 289.624 369.23 290.363 371.304 290.364Z" fill="#07648D"/>
<path d="M391.943 315.566C395.292 323.249 461.086 326.44 461.965 312.926C462.524 304.326 454.932 296.819 454.932 280.058C454.932 263.298 470.38 241.894 457.793 229.329C454.141 225.684 447.836 223.33 440.148 223.322C439.572 227.798 431.949 235.4 422.119 234.754C414.743 234.268 412.353 227.814 412.146 223.426C411.107 223.442 410.3 223.458 409.796 223.482C383.28 224.623 394.932 254.746 395.188 276.875C395.501 302.77 388.492 307.653 391.943 315.566Z" fill="#07648D"/>
<path d="M412.147 223.426C412.355 227.814 414.744 234.268 422.121 234.754C431.95 235.4 439.574 227.798 440.149 223.322H440.125C430.448 223.323 417.789 223.338 412.147 223.426Z" fill="#BB6751"/>
<path d="M414.352 223.323L412.335 325.802C412.335 325.802 390.888 326.004 387.075 322.197L392.901 269.717C392.901 269.717 404.802 258.531 403.17 224.261C403.17 224.261 409.538 222.494 414.352 223.323Z" fill="#FFBC78"/>
<path d="M435.769 223.323L432.558 325.319C432.558 325.319 462.377 327.339 466.19 323.531L457.22 269.234C457.22 269.234 445.297 257.95 446.929 223.682C443.235 223.139 439.491 223.018 435.769 223.323Z" fill="#FFBC78"/>
<path d="M391.464 282.685L413.169 283.339L413.233 280.148L407.399 279.973L410.308 223.133C409.232 223.188 408.16 223.297 407.095 223.46L404.21 279.877L391.815 279.502L391.464 282.685Z" fill="white"/>
<path d="M390.084 295.098L412.923 295.864L412.987 292.673L390.435 291.923L390.084 295.098Z" fill="white"/>
<path d="M433.899 282.701L458.784 283.363L458.432 280.164L442.338 279.734L443.688 223.309C442.777 223.245 441.706 223.189 440.492 223.181L439.141 279.646L434.002 279.51L433.899 282.701Z" fill="white"/>
<path d="M433.445 297.236H460.329L459.977 294.045H433.541L433.445 297.236Z" fill="white"/>
<path d="M475.063 304.534C475.063 304.534 437.974 259.919 431.491 249.737L420.176 259.889C420.176 259.889 454.636 300.374 465.51 313.77C465.51 313.768 474.713 313.609 475.063 304.534Z" fill="#DEE8F5"/>
<path d="M428.924 257.889C432.008 254.955 433.092 251.093 431.345 249.263C429.597 247.432 425.681 248.326 422.597 251.26C419.513 254.194 418.429 258.056 420.176 259.886C421.924 261.717 425.84 260.823 428.924 257.889Z" fill="#C1D8ED"/>
<path d="M420.651 260.275C420.651 260.275 421.023 255.942 424.798 254.715L428.061 258.637C428.061 258.637 423.959 262.403 420.651 260.275Z" fill="#F3F5FD"/>
<path d="M472.464 299.775C472.464 299.775 426.353 267.856 417.362 259.795L409.205 272.614C409.205 272.614 451.669 301.263 465.757 311.235C465.757 311.235 474.575 308.611 472.464 299.775Z" fill="#DEE8F5"/>
<path opacity="0.23" d="M472.464 299.775C472.464 299.775 426.353 267.856 417.362 259.795L409.205 272.614C409.205 272.614 451.669 301.263 465.757 311.235C465.757 311.235 474.575 308.611 472.464 299.775Z" fill="white"/>
<path d="M417.091 268.337C419.269 264.683 419.27 260.672 417.094 259.379C414.917 258.086 411.386 260.001 409.208 263.655C407.03 267.31 407.029 271.32 409.205 272.613C411.382 273.906 414.913 271.992 417.091 268.337Z" fill="#C1D8ED"/>
<path d="M409.764 272.863C409.764 272.863 408.954 268.591 412.257 266.394L416.458 269.294C416.458 269.294 413.527 274.019 409.764 272.863Z" fill="#F3F5FD"/>
<path d="M424.419 280.556C418.608 280.556 414.35 271.4 414.35 280.764C414.35 290.129 429.593 290.816 429.593 290.816L429.08 280.455C429.08 280.455 425.744 276.551 424.389 276.551C423.035 276.551 424.419 280.556 424.419 280.556Z" fill="#BB6751"/>
<path d="M429.708 295.44L470.668 293.65C472.031 293.59 473.361 293.212 474.551 292.546C475.741 291.88 476.758 290.944 477.519 289.813C478.28 288.683 478.765 287.39 478.933 286.038C479.102 284.687 478.951 283.314 478.491 282.032L461.326 234.531L450.058 254.328L458.105 276.788L428.944 278.064L429.708 295.44Z" fill="#07648D"/>
<path d="M336.437 267.463C335.893 267.611 335.313 267.538 334.823 267.26C334.333 266.981 333.975 266.52 333.826 265.978L323.379 227.933L327.475 226.812L337.922 264.857C338.071 265.399 337.998 265.978 337.72 266.466C337.441 266.955 336.98 267.313 336.437 267.463Z" fill="#9EBCEA"/>
<path d="M313.137 222.554L314.774 222.107C314.935 222.063 315.103 222.051 315.268 222.071C315.434 222.092 315.594 222.145 315.739 222.228C315.884 222.31 316.012 222.421 316.114 222.552C316.216 222.684 316.292 222.835 316.336 222.995L316.457 223.434L318.939 222.754L318.487 221.107L327.725 218.58C327.725 218.58 332.687 217.987 336.755 223.227C336.755 223.227 332.12 222.537 329.25 224.142L330.129 227.345L320.892 229.874L320.439 228.226L317.956 228.905L318.076 229.345C318.121 229.505 318.133 229.673 318.112 229.839C318.091 230.004 318.038 230.164 317.955 230.308C317.873 230.453 317.762 230.58 317.631 230.683C317.499 230.785 317.348 230.86 317.187 230.904L315.55 231.352C315.389 231.396 315.221 231.408 315.055 231.387C314.89 231.366 314.73 231.313 314.585 231.23C314.44 231.148 314.312 231.038 314.21 230.906C314.107 230.774 314.032 230.624 313.988 230.463L312.244 224.114C312.2 223.953 312.188 223.785 312.209 223.619C312.231 223.454 312.284 223.294 312.367 223.149C312.45 223.005 312.56 222.877 312.693 222.775C312.825 222.673 312.976 222.598 313.137 222.554Z" fill="#28A0CB"/>
<path d="M34.1279 194.876C34.0048 183.283 39.3967 176.096 45.6204 172.153C51.7611 168.261 65.7086 165.496 73.0096 179.626C77.7733 188.846 78.0059 191.518 79.3557 206.286C80.7054 221.053 85.8903 222.603 91.1471 240.502C95.2715 254.542 72.1705 261.997 52.1623 261.352C32.154 260.707 19.4771 256.287 18.3127 243.584C16.6465 225.355 34.3628 217.596 34.1279 194.876Z" fill="#0F1011"/>
<path d="M45.8954 224.854C47.3794 222.171 48.8786 217.111 48.0435 207.973L60.5014 205.548C60.5014 205.548 59.2443 220.199 65.536 224.853L45.8954 224.854Z" fill="#725145"/>
<path opacity="0.15" d="M63.0027 221.843L52.5642 214.025L60.7051 213.865C60.9668 216.644 61.746 219.349 63.0027 221.843Z" fill="black"/>
<path d="M40.9031 201.671C41.8133 206.645 44.5792 211.336 48.9953 212.905C53.8101 214.762 59.0071 215.415 64.1327 214.806C77.783 213.563 74.7958 182.581 68.2548 176.617C61.7137 170.654 42.7156 174.642 40.4931 184.737C39.344 189.958 40.0376 196.938 40.9031 201.671Z" fill="#725145"/>
<path d="M60.3982 197.656C61.0232 197.656 61.5298 197.15 61.5298 196.526C61.5298 195.902 61.0232 195.396 60.3982 195.396C59.7732 195.396 59.2666 195.902 59.2666 196.526C59.2666 197.15 59.7732 197.656 60.3982 197.656Z" fill="#0F1011"/>
<path d="M69.3207 196.843C69.9456 196.843 70.4523 196.337 70.4523 195.713C70.4523 195.089 69.9456 194.583 69.3207 194.583C68.6957 194.583 68.1891 195.089 68.1891 195.713C68.1891 196.337 68.6957 196.843 69.3207 196.843Z" fill="#0F1011"/>
<path d="M71.2547 193.288L68.2563 193.278C68.1153 193.278 67.9802 193.222 67.8805 193.122C67.7808 193.023 67.7249 192.888 67.7249 192.747C67.7249 192.606 67.7808 192.471 67.8805 192.372C67.9802 192.272 68.1153 192.217 68.2563 192.217L71.2555 192.226C71.393 192.231 71.523 192.29 71.6184 192.389C71.7138 192.488 71.7671 192.62 71.7671 192.757C71.7671 192.894 71.7138 193.026 71.6184 193.125C71.523 193.224 71.393 193.283 71.2555 193.288H71.2547Z" fill="#0F1011"/>
<path d="M57.9313 194.501C57.8012 194.502 57.6754 194.454 57.5779 194.369C57.4803 194.283 57.4177 194.164 57.402 194.035C57.3862 193.906 57.4184 193.776 57.4924 193.669C57.5663 193.562 57.677 193.486 57.8034 193.455L60.7531 192.718C60.8899 192.684 61.0347 192.706 61.1556 192.778C61.2766 192.85 61.3637 192.968 61.398 193.104C61.4322 193.241 61.4107 193.386 61.3381 193.506C61.2656 193.627 61.148 193.714 61.0112 193.748L58.0615 194.485C58.0189 194.496 57.9752 194.501 57.9313 194.501Z" fill="#0F1011"/>
<path d="M61.004 205.418C61.004 205.418 65.186 205.817 68.1045 204.772C68.1045 204.772 68.1045 207.519 64.8032 207.82C61.5019 208.12 61.004 205.418 61.004 205.418Z" fill="#F8FCFF"/>
<path d="M49.9766 188.682C49.6793 211.178 47.5072 219.918 47.5072 219.918C47.5072 219.918 36.8362 207.049 35.2251 193.412C33.7155 180.632 43.0903 172.99 49.4579 171.509C73.6569 165.873 73.6625 184.074 73.6625 184.074C72.0978 190.084 47.3554 193.23 47.3554 193.23" fill="#0F1011"/>
<path d="M54.7292 201.447C54.7864 202.074 54.7195 202.705 54.5323 203.306C54.345 203.906 54.0411 204.464 53.6379 204.947C53.2347 205.431 52.7401 205.83 52.1823 206.123C51.6245 206.415 51.0145 206.595 50.387 206.652C49.7595 206.709 49.1269 206.643 48.5253 206.456C47.9237 206.269 47.3648 205.965 46.8807 205.563C46.3965 205.16 45.9965 204.667 45.7035 204.11C45.4105 203.553 45.2302 202.944 45.173 202.318C45.1043 201.689 45.1631 201.054 45.3459 200.448C45.5287 199.843 45.8318 199.281 46.237 198.795C46.6422 198.31 47.1412 197.91 47.7044 197.621C48.2675 197.332 48.8832 197.159 49.5147 197.113C52.9335 196.97 54.4878 198.813 54.7292 201.447Z" fill="#725145"/>
<g opacity="0.15">
<path d="M65.4769 202.746C65.3834 202.747 65.2928 202.714 65.2216 202.653C65.1504 202.593 65.1033 202.509 65.089 202.416C65.0746 202.324 65.094 202.23 65.1435 202.151C65.1929 202.071 65.2693 202.013 65.3586 201.985L67.6537 201.258L66.0107 197.694C65.9705 197.6 65.9685 197.495 66.005 197.4C66.0416 197.305 66.1138 197.228 66.2063 197.186C66.2988 197.143 66.4044 197.138 66.5004 197.172C66.5964 197.206 66.6753 197.276 66.7203 197.368L68.548 201.333C68.571 201.384 68.583 201.438 68.5832 201.494C68.5834 201.549 68.5718 201.604 68.5491 201.655C68.5264 201.705 68.4932 201.75 68.4517 201.787C68.4102 201.824 68.3613 201.851 68.3082 201.868L65.5911 202.728C65.5542 202.739 65.5157 202.746 65.4769 202.746Z" fill="black"/>
</g>
<path d="M33.9825 191.926C33.5645 189.179 33.6944 186.376 34.3648 183.679C35.0351 180.982 36.2327 178.444 37.8886 176.21C39.5446 173.977 41.6263 172.092 44.0142 170.664C46.4021 169.236 49.0491 168.293 51.8032 167.889C54.5573 167.485 57.3642 167.628 60.0626 168.311C62.7611 168.993 65.2978 170.201 67.5273 171.865C69.7567 173.529 71.6348 175.616 73.0537 178.007C74.4726 180.397 75.4044 183.044 75.7955 185.795" fill="#FFBC78"/>
<path opacity="0.22" d="M66.4014 187.377C66.4014 187.377 65.8181 172.728 49.2997 168.519C49.2997 168.519 51.0746 168.099 51.6755 168.011C52.5735 167.86 53.482 167.78 54.3927 167.772C54.3927 167.772 70.6058 170.452 72.7227 186.245L66.4014 187.377Z" fill="white"/>
<path d="M76.8975 184.764L32.629 191.255L32.9383 193.357L77.2068 186.866L76.8975 184.764Z" fill="#FFBC78"/>
<path opacity="0.09" d="M76.8975 184.764L32.629 191.255L32.9383 193.357L77.2068 186.866L76.8975 184.764Z" fill="black"/>
<path opacity="0.63" d="M47.1476 171.089C49.5738 170.754 52.045 171.151 54.2432 172.23C59.8077 175.022 60.3735 178.871 60.3735 178.871C60.3735 178.871 54.463 170.919 47.1476 171.089Z" fill="white"/>
<path d="M68.9796 183.921C70.7164 183.921 72.1243 182.515 72.1243 180.782C72.1243 179.048 70.7164 177.642 68.9796 177.642C67.2429 177.642 65.835 179.048 65.835 180.782C65.835 182.515 67.2429 183.921 68.9796 183.921Z" fill="#FFBC78"/>
<path opacity="0.09" d="M68.9796 183.921C70.7164 183.921 72.1243 182.515 72.1243 180.782C72.1243 179.048 70.7164 177.642 68.9796 177.642C67.2429 177.642 65.835 179.048 65.835 180.782C65.835 182.515 67.2429 183.921 68.9796 183.921Z" fill="black"/>
<path d="M70.5172 183.695C72.2539 183.695 73.6619 182.29 73.6619 180.556C73.6619 178.822 72.2539 177.417 70.5172 177.417C68.7805 177.417 67.3726 178.822 67.3726 180.556C67.3726 182.29 68.7805 183.695 70.5172 183.695Z" fill="#FFBC78"/>
<path opacity="0.13" d="M70.5172 183.695C72.2539 183.695 73.6619 182.29 73.6619 180.556C73.6619 178.822 72.2539 177.417 70.5172 177.417C68.7805 177.417 67.3726 178.822 67.3726 180.556C67.3726 182.29 68.7805 183.695 70.5172 183.695Z" fill="white"/>
<path opacity="0.36" d="M70.5172 182.202C71.4277 182.202 72.1658 181.465 72.1658 180.556C72.1658 179.647 71.4277 178.91 70.5172 178.91C69.6066 178.91 68.8685 179.647 68.8685 180.556C68.8685 181.465 69.6066 182.202 70.5172 182.202Z" fill="white"/>
<path d="M101.048 325.215C101.048 327.592 99.7907 335.539 101.813 336.107C103.026 336.448 104.458 330.523 104.458 330.523" fill="#BB6751"/>
<path d="M62.7517 351.329V383.223C62.7521 385.13 63.511 386.958 64.8614 388.306C66.2118 389.654 68.0432 390.411 69.9528 390.411H144.585C145.531 390.412 146.468 390.227 147.342 389.866C148.216 389.505 149.01 388.976 149.679 388.308C150.348 387.641 150.878 386.848 151.24 385.975C151.601 385.103 151.787 384.168 151.786 383.223V351.329C151.787 350.385 151.601 349.45 151.24 348.577C150.878 347.705 150.348 346.912 149.679 346.245C149.01 345.577 148.216 345.047 147.342 344.687C146.468 344.326 145.531 344.141 144.585 344.142H124.862V339.148C124.86 337.367 124.15 335.66 122.888 334.401C121.627 333.142 119.917 332.433 118.133 332.431H96.4046C94.6209 332.433 92.911 333.142 91.6497 334.401C90.3884 335.66 89.6785 337.367 89.6758 339.148V344.142H69.9528C68.0432 344.142 66.2118 344.899 64.8614 346.247C63.511 347.595 62.7521 349.423 62.7517 351.329ZM120.483 344.142H94.0551V339.148C94.0562 338.526 94.3041 337.93 94.7445 337.49C95.1848 337.051 95.7818 336.803 96.4046 336.802H118.133C118.756 336.803 119.353 337.051 119.794 337.49C120.234 337.93 120.482 338.526 120.483 339.148V344.142Z" fill="#97D4EA"/>
<path d="M110.332 323.967C110.332 323.967 117.416 330.435 112.523 337.658C110.616 340.472 105.592 338.781 105.592 337.298C105.592 331.075 105.108 329.386 101.003 330.877L101.048 324.416" fill="#725145"/>
<path opacity="0.21" d="M62.7517 361.421V383.223C62.7521 385.13 63.511 386.958 64.8614 388.306C66.2118 389.654 68.0432 390.411 69.9528 390.411H144.585C145.531 390.412 146.468 390.227 147.342 389.866C148.216 389.505 149.01 388.976 149.679 388.308C150.348 387.641 150.878 386.848 151.24 385.975C151.601 385.103 151.787 384.168 151.786 383.223V361.421H62.7517Z" fill="white"/>
<path d="M131.607 365.931H131.608C133.105 365.931 134.318 364.72 134.318 363.226V361.665C134.318 360.171 133.105 358.96 131.608 358.96H131.607C130.111 358.96 128.897 360.171 128.897 361.665V363.226C128.897 364.72 130.111 365.931 131.607 365.931Z" fill="white"/>
<path d="M82.9287 365.931H82.9295C84.4261 365.931 85.6394 364.72 85.6394 363.226V361.665C85.6394 360.171 84.4261 358.96 82.9295 358.96H82.9287C81.432 358.96 80.2188 360.171 80.2188 361.665V363.226C80.2188 364.72 81.432 365.931 82.9287 365.931Z" fill="white"/>
<path d="M78.4646 237.068L88.1822 279.502L106.07 325.853" stroke="#28A0CB" stroke-width="20" stroke-miterlimit="10"/>
<path d="M95.6903 547.369L79.0256 545.391C79.7752 539.095 80.6239 531.531 80.6815 530.29C80.6815 530.37 80.6815 530.435 80.6815 530.486H97.4636C97.4572 530.988 97.4572 532.517 95.6903 547.369Z" fill="#725145"/>
<path d="M28.8215 549.371L12.0394 549.317C12.0394 549.317 12.0954 532.019 12.0954 530.486H28.8775C28.8775 532.023 28.8215 549.371 28.8215 549.371Z" fill="#725145"/>
<path d="M49.2222 555.851C49.6735 555.849 50.1195 555.754 50.5324 555.572C50.9452 555.39 51.316 555.125 51.6217 554.794C51.9274 554.462 52.1613 554.071 52.3089 553.646C52.4565 553.22 52.5146 552.768 52.4796 552.319C52.431 551.697 52.2052 551.101 51.8287 550.602C51.4522 550.103 50.9408 549.722 50.3546 549.504L30.8219 542.974C30.4434 542.848 30.0423 542.806 29.646 542.85C29.2497 542.894 28.8676 543.023 28.5259 543.228C25.8408 545.088 22.6287 546.039 19.3621 545.94C16.8175 545.76 14.3749 544.869 12.3128 543.37C12.1316 543.222 11.9119 543.128 11.6792 543.099C11.4466 543.071 11.2106 543.109 10.9988 543.209C10.7871 543.31 10.6083 543.468 10.4834 543.666C10.3585 543.864 10.2926 544.093 10.2933 544.327V553.862C10.2933 554.143 10.349 554.422 10.4571 554.682C10.5652 554.941 10.7236 555.177 10.9233 555.376C11.1229 555.574 11.3599 555.732 11.6206 555.838C11.8812 555.945 12.1605 556 12.4423 555.998L49.2222 555.851Z" fill="#28A0CB"/>
<path d="M116.137 555.851C116.589 555.849 117.035 555.754 117.448 555.572C117.86 555.39 118.231 555.125 118.537 554.794C118.843 554.462 119.077 554.072 119.224 553.646C119.372 553.22 119.43 552.768 119.395 552.319C119.346 551.697 119.12 551.101 118.744 550.602C118.368 550.104 117.856 549.723 117.27 549.504L97.7369 542.974C97.3586 542.848 96.9576 542.806 96.5614 542.85C96.1652 542.894 95.7833 543.023 95.4417 543.228C92.7563 545.088 89.544 546.038 86.2771 545.94C83.7328 545.76 81.2904 544.869 79.2286 543.37C79.0474 543.222 78.8276 543.128 78.5949 543.099C78.3623 543.071 78.1263 543.109 77.9145 543.209C77.7027 543.31 77.5239 543.468 77.3989 543.666C77.2739 543.864 77.2078 544.093 77.2084 544.327V553.862C77.2084 554.143 77.264 554.422 77.3721 554.682C77.4802 554.941 77.6386 555.177 77.8383 555.376C78.038 555.574 78.2749 555.732 78.5356 555.838C78.7963 555.945 79.0755 556 79.3573 555.998L116.137 555.851Z" fill="#28A0CB"/>
<path d="M72.3176 542.079L101.881 541.577C100.492 506.45 100.408 469.605 99.9745 434.393C94.2039 396.441 91.1655 354.765 84.0435 317.085L83.8301 317.148L83.2052 312.896L22.4084 309.147L20.0429 348.799H20.2299C17.0549 405.754 11.325 485.974 7.71289 541.128L37.1767 543.613C42.4846 489.537 50.6999 410.743 55.7529 353.935C61.5555 381.593 65.5025 410.23 70.5491 437.651C71.5584 471.975 72.4119 507.857 72.3176 542.079Z" fill="#262626"/>
<path d="M88.0552 315.566C84.7076 323.249 18.9129 326.44 18.0338 312.926C17.4744 304.326 25.0663 296.819 25.0663 280.058C25.0663 263.298 9.6188 241.894 22.2054 229.329C25.8575 225.684 32.1636 223.33 39.8506 223.322C40.426 227.798 48.0498 235.4 57.8794 234.754C65.2555 234.268 67.6449 227.814 67.8527 223.426C68.8916 223.442 69.6988 223.458 70.2022 223.482C96.718 224.623 85.0664 254.746 84.8106 276.875C84.499 302.77 91.5075 307.653 88.0552 315.566Z" fill="#28A0CB"/>
<path d="M67.8527 223.426C67.645 227.814 65.2555 234.268 57.8794 234.754C48.0498 235.4 40.426 227.798 39.8506 223.322H39.8746C49.5522 223.323 62.2147 223.338 67.8527 223.426Z" fill="#725145"/>
<path d="M65.6511 223.323L67.6682 325.802C67.6682 325.802 89.1149 326.004 92.9284 322.197L87.1026 269.717C87.1026 269.717 75.2017 258.531 76.8328 224.261C76.8296 224.261 70.462 222.494 65.6511 223.323Z" fill="#FFBC78"/>
<path d="M44.2339 223.323L47.4449 325.319C47.4449 325.319 17.6271 327.339 13.8127 323.531L22.78 269.234C22.78 269.234 34.7025 257.95 33.0714 223.682C36.7664 223.138 40.5115 223.018 44.2339 223.323Z" fill="#FFBC78"/>
<path d="M88.5338 282.685L66.8289 283.339L66.765 280.148L72.5988 279.973L69.6899 223.133C70.7656 223.188 71.8379 223.297 72.9025 223.46L75.7874 279.877L88.1822 279.502L88.5338 282.685Z" fill="white"/>
<path d="M89.9164 295.098L67.0768 295.864L67.0128 292.673L89.5648 291.923L89.9164 295.098Z" fill="white"/>
<path d="M46.0991 282.701L21.2136 283.363L21.5652 280.164L37.6601 279.734L36.3095 223.309C37.2206 223.245 38.2914 223.189 39.5061 223.181L40.8567 279.646L45.9952 279.51L46.0991 282.701Z" fill="white"/>
<path d="M46.5546 297.236H19.6713L20.0229 294.045H46.4587L46.5546 297.236Z" fill="white"/>
<path d="M32.5831 252.188L46.0048 250.971L53.8517 259.243L69.2744 257.838L55.422 305.755L39.8506 307.94L33.113 299.634L18.9281 302.946L32.5831 252.188Z" fill="#F3F5FD"/>
<path opacity="0.07" d="M46.0049 250.971L53.8517 259.243L39.8507 307.94L33.113 299.634L46.0049 250.971Z" fill="black"/>
<path d="M55.5818 280.556C61.3916 280.556 65.6511 271.4 65.6511 280.764C65.6511 290.129 50.4073 290.816 50.4073 290.816L50.9212 280.455C50.9212 280.455 54.2568 276.551 55.6122 276.551C56.9676 276.551 55.5818 280.556 55.5818 280.556Z" fill="#725145"/>
<path d="M50.2923 295.44L9.33193 293.65C7.96841 293.591 6.63785 293.213 5.44753 292.546C4.25722 291.88 3.24045 290.943 2.47922 289.812C1.71798 288.681 1.23358 287.388 1.06507 286.036C0.896554 284.684 1.04864 283.311 1.50907 282.029L18.674 234.528L29.942 254.325L21.8937 276.784L51.0539 278.061L50.2923 295.44Z" fill="#28A0CB"/>
</svg>
