<svg width="457" height="440" viewBox="0 0 457 440" fill="none" xmlns="http://www.w3.org/2000/svg">
<g clip-path="url(#clip0_431_462)">
<path d="M390.206 6.56435H311.652V108.714H390.206V6.56435Z" fill="#F4F4F4"/>
<path d="M390.206 108.715H392.755V6.56481H390.206V108.715Z" fill="#F4F4F4"/>
<path opacity="0.05" d="M390.206 108.715H392.755V6.56481H390.206V108.715Z" fill="#292A2E"/>
<path opacity="0.05" d="M375.897 25.1723H325.961V90.1066H375.897V25.1723Z" fill="#292A2E"/>
<path opacity="0.03" d="M375.897 25.1723H373.294V90.1066H375.897V25.1723Z" fill="#292A2E"/>
<path d="M454.452 133.835H390.206V198.607H454.452V133.835Z" fill="#F4F4F4"/>
<path opacity="0.05" d="M442.749 145.634H401.91V186.808H442.749V145.634Z" fill="#292A2E"/>
<path d="M454.452 198.607H457V133.835H454.452V198.607Z" fill="#F4F4F4"/>
<path opacity="0.05" d="M454.452 198.607H457V133.835H454.452V198.607Z" fill="#292A2E"/>
<path opacity="0.03" d="M442.749 145.634H440.146V186.808H442.749V145.634Z" fill="#292A2E"/>
<path d="M222.538 0H8.52565V213.805H222.538V0Z" fill="#F4F4F4"/>
<path d="M224.991 0H222.538V213.805H224.991V0Z" fill="#F4F4F4"/>
<path opacity="0.05" d="M224.991 0H222.538V213.805H224.991V0Z" fill="#292A2E"/>
<path opacity="0.05" d="M170.692 147.329V91.391H124.826V123.89H53.7791V181.434H23.5832V213.805H53.7791H59.5965H212.243V147.329H170.692Z" fill="#292A2E"/>
<path opacity="0.34" d="M164.114 97.4646H130.714V103.538H164.114V97.4646Z" fill="#FFFFFA"/>
<path opacity="0.34" d="M164.114 110.051H130.714V116.124H164.114V110.051Z" fill="#FFFFFA"/>
<path opacity="0.34" d="M164.114 122.636H130.714V128.71H164.114V122.636Z" fill="#FFFFFA"/>
<path opacity="0.34" d="M206.32 153.225H200.164V159.299H206.32V153.225Z" fill="#FFFFFA"/>
<path opacity="0.34" d="M206.32 165.811H200.164V171.885H206.32V165.811Z" fill="#FFFFFA"/>
<path opacity="0.34" d="M206.32 178.397H200.164V184.471H206.32V178.397Z" fill="#FFFFFA"/>
<path opacity="0.34" d="M194.931 153.225H188.775V159.299H194.931V153.225Z" fill="#FFFFFA"/>
<path opacity="0.34" d="M194.931 165.811H188.775V171.885H194.931V165.811Z" fill="#FFFFFA"/>
<path opacity="0.34" d="M194.931 178.397H188.775V184.471H194.931V178.397Z" fill="#FFFFFA"/>
<path opacity="0.34" d="M183.85 153.225H177.694V159.299H183.85V153.225Z" fill="#FFFFFA"/>
<path opacity="0.34" d="M183.85 165.811H177.694V171.885H183.85V165.811Z" fill="#FFFFFA"/>
<path opacity="0.34" d="M183.85 178.397H177.694V184.471H183.85V178.397Z" fill="#FFFFFA"/>
<path d="M222.538 105.703H179.475V0H175.914V105.703H59.5965V0H56.0349V105.703H8.52565V109.261H56.0349V213.805H59.5965V109.261H175.914V213.805H179.475V109.261H222.538V105.703Z" fill="white"/>
<path d="M231.063 213.548H0V220.658H231.063V213.548Z" fill="#F4F4F4"/>
<path opacity="0.1" d="M231.063 213.548H0V220.658H231.063V213.548Z" fill="#292A2E"/>
<path opacity="0.1" d="M234.399 213.548H231.063V220.658H234.399V213.548Z" fill="#292A2E"/>
<path opacity="0.1" d="M234.399 213.548H231.063V220.658H234.399V213.548Z" fill="#292A2E"/>
<path opacity="0.05" d="M344.033 430.959H332.145V438.89H344.033V430.959Z" fill="#292A2E"/>
<path opacity="0.05" d="M418.663 430.959H406.775V438.89H418.663V430.959Z" fill="#292A2E"/>
<path d="M429.56 310.112H321.248V430.959H429.56V310.112Z" fill="#F4F4F4"/>
<path opacity="0.03" d="M429.56 310.112H321.248V430.959H429.56V310.112Z" fill="#292A2E"/>
<path d="M400.794 310.112H292.482V430.959H400.794V310.112Z" fill="#F4F4F4"/>
<path opacity="0.05" d="M315.268 430.959H303.38V438.89H315.268V430.959Z" fill="#292A2E"/>
<path opacity="0.05" d="M389.897 430.959H378.009V438.89H389.897V430.959Z" fill="#292A2E"/>
<path opacity="0.7" d="M394.967 317.584H298.309V348.234H394.967V317.584Z" fill="white"/>
<path opacity="0.7" d="M394.967 355.736H298.309V386.386H394.967V355.736Z" fill="white"/>
<path opacity="0.7" d="M394.967 393.888H298.309V424.537H394.967V393.888Z" fill="white"/>
<path opacity="0.05" d="M346.638 337.198C349.009 337.198 350.931 335.278 350.931 332.909C350.931 330.541 349.009 328.62 346.638 328.62C344.267 328.62 342.345 330.541 342.345 332.909C342.345 335.278 344.267 337.198 346.638 337.198Z" fill="#292A2E"/>
<path opacity="0.05" d="M346.638 375.35C349.009 375.35 350.931 373.43 350.931 371.061C350.931 368.692 349.009 366.772 346.638 366.772C344.267 366.772 342.345 368.692 342.345 371.061C342.345 373.43 344.267 375.35 346.638 375.35Z" fill="#292A2E"/>
<path opacity="0.05" d="M346.638 413.502C349.009 413.502 350.931 411.582 350.931 409.213C350.931 406.844 349.009 404.924 346.638 404.924C344.267 404.924 342.345 406.844 342.345 409.213C342.345 411.582 344.267 413.502 346.638 413.502Z" fill="#292A2E"/>
<path d="M50.9056 380.185C50.8456 380.185 50.7862 380.173 50.7308 380.15C50.6754 380.127 50.6251 380.094 50.5828 380.051C49.9395 379.409 48.8908 367.618 46.0666 332.514C44.911 318.15 43.8194 304.582 43.0227 296.337C42.9661 295.748 42.7374 295.68 42.6625 295.657C41.5718 295.329 38.2559 297.941 36.4046 300.229C36.3284 300.323 36.2179 300.383 36.0975 300.396C35.977 300.408 35.8564 300.373 35.7622 300.297C35.668 300.221 35.6079 300.11 35.5951 299.99C35.5824 299.87 35.618 299.749 35.6942 299.655C36.9186 298.143 40.9089 294.178 42.925 294.784C43.3314 294.906 43.8381 295.259 43.9294 296.25C44.727 304.502 45.8187 318.073 46.9746 332.441C48.6908 353.773 50.6348 377.941 51.274 379.463C51.3229 379.531 51.3521 379.611 51.3584 379.695C51.3646 379.778 51.3476 379.862 51.3093 379.937C51.271 380.011 51.2128 380.074 51.1412 380.118C51.0695 380.161 50.9872 380.185 50.9033 380.185H50.9056Z" fill="#494949"/>
<path d="M41.8498 311.468C49.4257 305.401 51.9367 295.958 47.4582 290.377C42.9797 284.795 33.2077 285.188 25.6317 291.255C18.0558 297.322 15.5448 306.765 20.0233 312.347C24.5018 317.928 34.2739 317.535 41.8498 311.468Z" fill="#A9AEB1"/>
<path opacity="0.2" d="M41.8498 311.468C49.4257 305.401 51.9367 295.958 47.4582 290.377C42.9797 284.795 33.2077 285.188 25.6317 291.255C18.0558 297.322 15.5448 306.765 20.0233 312.347C24.5018 317.928 34.2739 317.535 41.8498 311.468Z" fill="white"/>
<path d="M22.1464 313.765C22.1031 313.765 22.0607 313.753 22.0241 313.73C21.9875 313.707 21.9583 313.673 21.9399 313.634C21.9214 313.595 21.9145 313.551 21.92 313.509C21.9254 313.466 21.943 313.425 21.9707 313.392L43.5615 287.38C43.5806 287.357 43.6041 287.338 43.6307 287.324C43.6572 287.31 43.6862 287.301 43.7161 287.299C43.746 287.296 43.7761 287.299 43.8047 287.308C43.8334 287.317 43.86 287.331 43.8831 287.35C43.9062 287.369 43.9253 287.393 43.9393 287.419C43.9533 287.446 43.9619 287.475 43.9647 287.505C43.9674 287.535 43.9643 287.565 43.9555 287.593C43.9466 287.622 43.9322 287.649 43.913 287.672L22.3222 313.683C22.3008 313.709 22.2739 313.729 22.2435 313.744C22.2132 313.758 22.18 313.765 22.1464 313.765Z" fill="white"/>
<path d="M55.6135 374.609C55.5625 374.609 55.5118 374.6 55.4638 374.583C55.3494 374.543 55.2555 374.459 55.2028 374.351C55.15 374.242 55.1428 374.116 55.1825 374.002L63.2927 350.701C63.5315 350.017 63.9384 349.403 64.4762 348.916C65.0139 348.429 65.6653 348.085 66.3708 347.915C67.0762 347.745 67.813 347.754 68.5138 347.942C69.2146 348.131 69.857 348.491 70.3821 348.992L74.67 353.083C74.7576 353.167 74.8084 353.282 74.8112 353.403C74.814 353.524 74.7685 353.641 74.6848 353.729C74.6012 353.816 74.4861 353.867 74.365 353.87C74.2439 353.872 74.1267 353.827 74.0391 353.743L69.7516 349.651C69.337 349.256 68.8299 348.971 68.2766 348.823C67.7233 348.674 67.1416 348.667 66.5847 348.801C66.0278 348.935 65.5135 349.207 65.089 349.592C64.6645 349.976 64.3432 350.46 64.1547 351.001L56.045 374.302C56.0138 374.392 55.9556 374.469 55.8783 374.524C55.8009 374.579 55.7084 374.609 55.6135 374.609Z" fill="#494949"/>
<path d="M86.6479 365.983C92.2624 361.544 91.9287 351.779 85.9027 344.173C79.8766 336.567 70.4401 334.001 64.8256 338.44C59.2111 342.88 59.5448 352.645 65.5708 360.251C71.5969 367.857 81.0334 370.423 86.6479 365.983Z" fill="#A9AEB1"/>
<path d="M47.2203 378.699C47.1177 378.699 47.0182 378.664 46.9377 378.601C46.8572 378.537 46.8004 378.448 46.7765 378.349L33.1662 321.497C33.0731 321.109 32.8749 320.755 32.5934 320.473C32.3118 320.191 31.9578 319.992 31.5704 319.897C31.1829 319.803 30.7769 319.817 30.397 319.939C30.0171 320.06 29.678 320.283 29.417 320.585L25.2213 325.428C25.1827 325.475 25.135 325.514 25.081 325.543C25.027 325.571 24.9679 325.588 24.9072 325.594C24.8464 325.599 24.7852 325.592 24.7271 325.573C24.6691 325.554 24.6154 325.524 24.5693 325.484C24.5232 325.444 24.4855 325.396 24.4585 325.341C24.4315 325.286 24.4158 325.227 24.4122 325.166C24.4086 325.105 24.4173 325.044 24.4377 324.987C24.4581 324.929 24.4898 324.876 24.531 324.831L28.7263 319.988C29.0971 319.56 29.579 319.242 30.119 319.069C30.659 318.897 31.2361 318.877 31.7869 319.011C32.3376 319.145 32.8407 319.428 33.2408 319.829C33.641 320.23 33.9226 320.734 34.0547 321.285L47.664 378.137C47.6922 378.254 47.6724 378.378 47.609 378.481C47.5457 378.584 47.4439 378.658 47.3262 378.686C47.2915 378.695 47.2559 378.699 47.2203 378.699Z" fill="#494949"/>
<path d="M42.1984 338.058C43.8529 328.5 39.4743 319.764 32.4186 318.545C25.3628 317.326 18.3018 324.086 16.6473 333.644C14.9928 343.202 19.3714 351.939 26.4272 353.158C33.4829 354.377 40.544 347.617 42.1984 338.058Z" fill="#A9AEB1"/>
<path d="M50.9056 380.185C50.8868 380.185 50.868 380.184 50.8494 380.181C50.7899 380.174 50.7323 380.155 50.6801 380.126C50.6279 380.096 50.582 380.057 50.5451 380.01C50.5081 379.962 50.4809 379.908 50.4649 379.851C50.4489 379.793 50.4444 379.732 50.4517 379.673L59.1427 309.177C59.2375 308.409 59.5522 307.685 60.0491 307.092C60.546 306.498 61.2039 306.061 61.9436 305.832C62.6834 305.603 63.4737 305.592 64.2193 305.801C64.965 306.01 65.6344 306.43 66.1471 307.01L76.0808 318.25C76.1204 318.295 76.1509 318.347 76.1703 318.404C76.1898 318.46 76.1979 318.52 76.1942 318.58C76.1905 318.64 76.175 318.698 76.1486 318.752C76.1223 318.806 76.0855 318.854 76.0406 318.894C75.9956 318.933 75.9433 318.964 75.8865 318.983C75.8298 319.003 75.7698 319.011 75.7099 319.007C75.6501 319.003 75.5915 318.988 75.5377 318.962C75.4838 318.935 75.4356 318.899 75.3959 318.854L65.4623 307.614C65.0661 307.165 64.5487 306.841 63.9724 306.679C63.396 306.518 62.7853 306.526 62.2135 306.703C61.6417 306.88 61.1332 307.218 60.7492 307.677C60.3653 308.136 60.1221 308.695 60.0489 309.289L51.358 379.784C51.3444 379.895 51.2909 379.996 51.2076 380.07C51.1243 380.144 51.0169 380.184 50.9056 380.185Z" fill="#494949"/>
<path d="M86.2681 324.496C89.734 318.236 85.6561 309.355 77.1599 304.66C68.6636 299.965 58.9664 301.233 55.5005 307.493C52.0347 313.753 56.1126 322.634 64.6088 327.329C73.105 332.024 82.8023 330.755 86.2681 324.496Z" fill="#DCDEE0"/>
<path opacity="0.2" d="M86.6479 365.983C92.2624 361.544 91.9287 351.779 85.9027 344.173C79.8766 336.567 70.4401 334.001 64.8256 338.44C59.2111 342.88 59.5448 352.645 65.5708 360.251C71.5969 367.857 81.0334 370.423 86.6479 365.983Z" fill="white"/>
<path opacity="0.5" d="M42.1984 338.058C43.8529 328.5 39.4743 319.764 32.4186 318.545C25.3628 317.326 18.3018 324.086 16.6473 333.644C14.9928 343.202 19.3714 351.939 26.4272 353.158C33.4829 354.377 40.544 347.617 42.1984 338.058Z" fill="white"/>
<path opacity="0.5" d="M86.2681 324.496C89.734 318.236 85.6561 309.355 77.1599 304.66C68.6636 299.965 58.9664 301.233 55.5005 307.493C52.0347 313.753 56.1126 322.634 64.6088 327.329C73.105 332.024 82.8023 330.755 86.2681 324.496Z" fill="white"/>
<path d="M62.0208 440H39.7885L36.1041 368.936H65.7047L62.0208 440Z" fill="#DCDEE0"/>
<path opacity="0.3" d="M62.0208 440H39.7885L36.1041 368.936H65.7047L62.0208 440Z" fill="#F0F0F0"/>
<path d="M86.6495 366.212C86.615 366.212 86.581 366.204 86.5501 366.189C86.5191 366.174 86.4919 366.152 86.4705 366.125L64.6473 338.582C64.6287 338.559 64.6149 338.532 64.6067 338.503C64.5985 338.474 64.596 338.444 64.5995 338.414C64.603 338.385 64.6122 338.356 64.6268 338.33C64.6414 338.303 64.661 338.28 64.6845 338.262C64.708 338.243 64.735 338.229 64.7638 338.221C64.7926 338.213 64.8228 338.211 64.8526 338.214C64.8824 338.218 64.9112 338.227 64.9374 338.241C64.9636 338.256 64.9866 338.276 65.0053 338.299L86.8284 365.842C86.8552 365.875 86.8718 365.916 86.8766 365.958C86.8813 366.001 86.8739 366.044 86.8552 366.083C86.8365 366.122 86.8073 366.154 86.7709 366.177C86.7345 366.2 86.6924 366.212 86.6495 366.212Z" fill="white"/>
<path d="M84.8173 326.703C84.7687 326.702 84.7215 326.686 84.6827 326.657L56.7572 306.286C56.7083 306.251 56.6755 306.197 56.6662 306.137C56.6569 306.078 56.6717 306.016 56.7074 305.968C56.7431 305.919 56.7968 305.886 56.8567 305.877C56.9165 305.867 56.9776 305.882 57.0266 305.918L84.952 326.289C84.9904 326.318 85.0187 326.358 85.0329 326.404C85.0472 326.449 85.0468 326.498 85.0316 326.544C85.0165 326.589 84.9874 326.629 84.9485 326.657C84.9097 326.685 84.863 326.7 84.8151 326.7L84.8173 326.703Z" fill="white"/>
<path d="M25.293 352.86C25.2731 352.86 25.2533 352.857 25.2341 352.852C25.1761 352.836 25.1267 352.798 25.0967 352.746C25.0667 352.694 25.0585 352.632 25.0738 352.574L33.9634 319.299C33.9707 319.269 33.9838 319.242 34.0019 319.218C34.02 319.193 34.0428 319.173 34.0689 319.158C34.095 319.142 34.1239 319.132 34.1539 319.128C34.184 319.124 34.2145 319.126 34.2438 319.134C34.273 319.141 34.3005 319.155 34.3244 319.174C34.3484 319.192 34.3685 319.215 34.3834 319.241C34.3984 319.268 34.4079 319.297 34.4115 319.327C34.4151 319.357 34.4127 319.387 34.4044 319.417L25.5149 352.691C25.5018 352.74 25.473 352.783 25.4328 352.813C25.3927 352.844 25.3435 352.86 25.293 352.86Z" fill="white"/>
<path d="M338.835 25.103H76.4597C68.8953 25.103 62.7631 31.2292 62.7631 38.7863V327.949C62.7631 335.507 68.8953 341.633 76.4597 341.633H338.835C346.399 341.633 352.531 335.507 352.531 327.949V38.7863C352.531 31.2292 346.399 25.103 338.835 25.103Z" fill="white"/>
<path d="M338.575 341.702H76.1985C72.4462 341.698 68.8489 340.207 66.1956 337.556C63.5423 334.905 62.0498 331.311 62.0454 327.563V38.3995C62.0498 34.6509 63.5423 31.057 66.1956 28.4062C68.8489 25.7555 72.4462 24.2644 76.1985 24.2601H338.575C342.328 24.2643 345.925 25.7554 348.578 28.4061C351.232 31.0569 352.724 34.6508 352.729 38.3995V327.563C352.724 331.311 351.232 334.905 348.578 337.556C345.925 340.207 342.328 341.698 338.575 341.702ZM76.1985 25.1723C72.6883 25.1764 69.3231 26.5713 66.841 29.051C64.3589 31.5307 62.9626 34.8927 62.9585 38.3995V327.563C62.9625 331.069 64.3587 334.432 66.8408 336.911C69.323 339.391 72.6883 340.786 76.1985 340.79H338.575C342.086 340.786 345.451 339.391 347.933 336.911C350.415 334.432 351.811 331.069 351.815 327.563V38.3995C351.811 34.8927 350.415 31.5307 347.933 29.051C345.451 26.5713 342.086 25.1764 338.575 25.1723H76.1985Z" fill="#292A2E"/>
<path d="M352.272 38.3977V48.974H62.5052V38.3977C62.5052 34.7687 63.9482 31.2883 66.5168 28.7221C69.0854 26.156 72.5692 24.7144 76.2017 24.7144H338.575C342.208 24.7144 345.691 26.156 348.26 28.7221C350.828 31.2883 352.272 34.7687 352.272 38.3977Z" fill="#292A2E"/>
<path opacity="0.1" d="M110.819 132.974C129.313 132.974 144.305 117.997 144.305 99.5207C144.305 81.0449 129.313 66.0673 110.819 66.0673C92.3256 66.0673 77.3335 81.0449 77.3335 99.5207C77.3335 117.997 92.3256 132.974 110.819 132.974Z" fill="#73B3E7"/>
<path opacity="0.6" d="M234.482 68.3141H163.141C160.477 68.3141 158.318 70.4715 158.318 73.1329V83.1277C158.318 85.789 160.477 87.9465 163.141 87.9465H234.482C237.146 87.9465 239.306 85.789 239.306 83.1277V73.1329C239.306 70.4715 237.146 68.3141 234.482 68.3141Z" fill="#FFBC78"/>
<path opacity="0.1" d="M194.04 170.269H82.5697C80.2018 170.269 78.2823 172.187 78.2823 174.552V185.135C78.2823 187.501 80.2018 189.418 82.5697 189.418H194.04C196.408 189.418 198.327 187.501 198.327 185.135V174.552C198.327 172.187 196.408 170.269 194.04 170.269Z" fill="#73B3E7"/>
<path opacity="0.1" d="M330.712 170.269H219.242C216.874 170.269 214.954 172.187 214.954 174.552V185.135C214.954 187.501 216.874 189.418 219.242 189.418H330.712C333.08 189.418 334.999 187.501 334.999 185.135V174.552C334.999 172.187 333.08 170.269 330.712 170.269Z" fill="#73B3E7"/>
<path opacity="0.1" d="M194.04 219.723H82.5697C80.2018 219.723 78.2823 221.641 78.2823 224.007V234.589C78.2823 236.955 80.2018 238.873 82.5697 238.873H194.04C196.408 238.873 198.327 236.955 198.327 234.589V224.007C198.327 221.641 196.408 219.723 194.04 219.723Z" fill="#73B3E7"/>
<path opacity="0.1" d="M330.712 219.723H219.242C216.874 219.723 214.954 221.641 214.954 224.007V234.589C214.954 236.955 216.874 238.873 219.242 238.873H330.712C333.08 238.873 334.999 236.955 334.999 234.589V224.007C334.999 221.641 333.08 219.723 330.712 219.723Z" fill="#73B3E7"/>
<path opacity="0.1" d="M194.04 269.178H82.5697C80.2018 269.178 78.2823 271.095 78.2823 273.461V284.044C78.2823 286.409 80.2018 288.327 82.5697 288.327H194.04C196.408 288.327 198.327 286.409 198.327 284.044V273.461C198.327 271.095 196.408 269.178 194.04 269.178Z" fill="#73B3E7"/>
<path opacity="0.1" d="M330.712 269.178H219.242C216.874 269.178 214.954 271.095 214.954 273.461V284.044C214.954 286.409 216.874 288.327 219.242 288.327H330.712C333.08 288.327 334.999 286.409 334.999 284.044V273.461C334.999 271.095 333.08 269.178 330.712 269.178Z" fill="#73B3E7"/>
<path opacity="0.2" d="M110.819 98.0812C117.243 98.0812 122.45 92.879 122.45 86.4618C122.45 80.0446 117.243 74.8424 110.819 74.8424C104.396 74.8424 99.1887 80.0446 99.1887 86.4618C99.1887 92.879 104.396 98.0812 110.819 98.0812Z" fill="#73B3E7"/>
<path opacity="0.2" d="M135.993 121.581C132.85 125.16 128.979 128.029 124.637 129.994C120.296 131.959 115.584 132.975 110.818 132.974C106.052 132.974 101.34 131.957 96.9991 129.991C92.6579 128.025 88.7867 125.156 85.6446 121.576C87.2543 116.153 90.5752 111.396 95.1121 108.013C99.6491 104.629 105.159 102.802 110.821 102.802C116.482 102.803 121.992 104.631 126.528 108.015C131.064 111.399 134.385 116.158 135.993 121.581Z" fill="#73B3E7"/>
<path opacity="0.2" d="M126.636 155.796H81.248C79.6101 155.796 78.2823 157.122 78.2823 158.759C78.2823 160.395 79.6101 161.722 81.248 161.722H126.636C128.274 161.722 129.601 160.395 129.601 158.759C129.601 157.122 128.274 155.796 126.636 155.796Z" fill="#73B3E7"/>
<path opacity="0.2" d="M267.532 98.8001H160.6C159.34 98.8001 158.318 99.8211 158.318 101.081C158.318 102.34 159.34 103.361 160.6 103.361H267.532C268.792 103.361 269.815 102.34 269.815 101.081C269.815 99.8211 268.792 98.8001 267.532 98.8001Z" fill="#73B3E7"/>
<path opacity="0.2" d="M267.532 112.483H160.6C159.34 112.483 158.318 113.504 158.318 114.764C158.318 116.023 159.34 117.045 160.6 117.045H267.532C268.792 117.045 269.815 116.023 269.815 114.764C269.815 113.504 268.792 112.483 267.532 112.483Z" fill="#73B3E7"/>
<path opacity="0.2" d="M249.27 126.167H160.6C159.34 126.167 158.318 127.188 158.318 128.447C158.318 129.707 159.34 130.728 160.6 130.728H249.27C250.53 130.728 251.552 129.707 251.552 128.447C251.552 127.188 250.53 126.167 249.27 126.167Z" fill="#73B3E7"/>
<path opacity="0.2" d="M263.308 155.796H217.92C216.282 155.796 214.954 157.122 214.954 158.759C214.954 160.395 216.282 161.722 217.92 161.722H263.308C264.946 161.722 266.274 160.395 266.274 158.759C266.274 157.122 264.946 155.796 263.308 155.796Z" fill="#73B3E7"/>
<path opacity="0.2" d="M126.636 205.25H81.248C79.6101 205.25 78.2823 206.577 78.2823 208.213C78.2823 209.849 79.6101 211.176 81.248 211.176H126.636C128.274 211.176 129.601 209.849 129.601 208.213C129.601 206.577 128.274 205.25 126.636 205.25Z" fill="#73B3E7"/>
<path opacity="0.2" d="M263.308 205.25H217.92C216.282 205.25 214.954 206.577 214.954 208.213C214.954 209.849 216.282 211.176 217.92 211.176H263.308C264.946 211.176 266.274 209.849 266.274 208.213C266.274 206.577 264.946 205.25 263.308 205.25Z" fill="#73B3E7"/>
<path opacity="0.2" d="M126.636 254.704H81.248C79.6101 254.704 78.2823 256.031 78.2823 257.667C78.2823 259.304 79.6101 260.63 81.248 260.63H126.636C128.274 260.63 129.601 259.304 129.601 257.667C129.601 256.031 128.274 254.704 126.636 254.704Z" fill="#73B3E7"/>
<path opacity="0.2" d="M263.308 254.704H217.92C216.282 254.704 214.954 256.031 214.954 257.667C214.954 259.304 216.282 260.63 217.92 260.63H263.308C264.946 260.63 266.274 259.304 266.274 257.667C266.274 256.031 264.946 254.704 263.308 254.704Z" fill="#73B3E7"/>
<path opacity="0.2" d="M242.226 303.247H172.55C169.738 303.247 167.459 305.524 167.459 308.332V317.721C167.459 320.53 169.738 322.807 172.55 322.807H242.226C245.037 322.807 247.316 320.53 247.316 317.721V308.332C247.316 305.524 245.037 303.247 242.226 303.247Z" fill="#73B3E7"/>
<path d="M219.542 81.7753L226.921 90.4806L226.464 88.9859C226.326 88.5005 226.378 87.9809 226.609 87.5321C226.839 87.0834 227.232 86.7389 227.708 86.5685C227.956 86.4891 228.218 86.461 228.478 86.486C228.737 86.5111 228.989 86.5887 229.218 86.7141C229.446 86.8395 229.647 87.0102 229.807 87.2156C229.968 87.4211 230.084 87.657 230.151 87.909L233.524 100.598C233.949 102.199 233.732 103.904 232.917 105.348C232.103 106.791 230.756 107.86 229.164 108.325C227.316 108.866 225.348 108.843 223.513 108.259C221.678 107.675 220.059 106.556 218.864 105.047L213.464 98.2007C213.176 97.8505 213.018 97.4117 213.018 96.9587C213.017 96.5057 213.172 96.0663 213.459 95.7149C213.724 95.4027 214.082 95.1833 214.481 95.089C214.88 94.9946 215.298 95.0301 215.675 95.1904C215.683 95.1603 215.699 95.1329 215.721 95.111C215.743 95.0918 215.77 95.0783 215.798 95.0717C215.827 95.0652 215.856 95.0659 215.885 95.0736L214.884 93.8102C214.578 93.4399 214.416 92.9713 214.428 92.4909C214.44 92.0105 214.626 91.5508 214.952 91.1967C215.285 90.8568 215.732 90.6527 216.207 90.6238C216.683 90.595 217.152 90.7436 217.523 91.0407C217.526 91.0206 217.532 91.0011 217.542 90.9832L217.131 90.4651C216.863 90.1102 216.716 89.6785 216.712 89.2339C216.709 88.7892 216.849 88.3553 217.111 87.9962C217.432 87.6097 217.892 87.3641 218.391 87.312C218.891 87.2599 219.392 87.4054 219.786 87.7175L219.812 87.6915L216.712 84.0339C216.553 83.8463 216.434 83.6284 216.362 83.3933C216.29 83.1583 216.267 82.9111 216.294 82.6668C216.32 82.4224 216.397 82.1862 216.518 81.9724C216.64 81.7586 216.803 81.5717 216.999 81.4231C217.389 81.1488 217.868 81.0325 218.34 81.0979C218.812 81.1633 219.242 81.4054 219.542 81.7753Z" fill="#CA8043"/>
<path opacity="0.2" d="M219.71 87.9227C219.718 87.9424 219.729 87.9606 219.743 87.9766L222.797 91.4959C222.813 91.5139 222.832 91.5286 222.853 91.5393C222.874 91.55 222.897 91.5564 222.921 91.5581C222.945 91.5599 222.968 91.557 222.991 91.5495C223.014 91.5421 223.034 91.5303 223.052 91.5148C223.07 91.4994 223.085 91.4805 223.096 91.4593C223.107 91.4381 223.113 91.415 223.115 91.3914C223.116 91.3677 223.114 91.344 223.106 91.3214C223.099 91.2989 223.087 91.2781 223.071 91.2601L220.019 87.7421C219.991 87.7126 219.953 87.6937 219.912 87.6884C219.871 87.6831 219.83 87.6917 219.795 87.7128C219.759 87.7339 219.732 87.7663 219.718 87.8047C219.703 87.8432 219.702 87.8854 219.714 87.9246L219.71 87.9227Z" fill="#0C0C0C"/>
<path opacity="0.2" d="M217.528 91.1251C217.535 91.1442 217.546 91.1619 217.559 91.1775L219.937 93.9598C219.969 93.9931 220.012 94.013 220.058 94.0153C220.104 94.0177 220.149 94.0023 220.184 93.9724C220.219 93.9425 220.241 93.9004 220.246 93.8546C220.251 93.8088 220.239 93.7629 220.211 93.7263L217.833 90.944C217.805 90.9114 217.767 90.8897 217.725 90.8827C217.683 90.8757 217.639 90.8839 217.603 90.9058C217.566 90.9277 217.538 90.9619 217.525 91.0023C217.511 91.0427 217.512 91.0867 217.527 91.1265L217.528 91.1251Z" fill="#0C0C0C"/>
<path opacity="0.2" d="M215.672 95.3113C215.68 95.3319 215.692 95.3509 215.706 95.3674L216.862 96.6554C216.878 96.6731 216.897 96.6874 216.918 96.6976C216.94 96.7079 216.963 96.7138 216.986 96.7151C217.01 96.7164 217.034 96.7131 217.056 96.7053C217.078 96.6975 217.099 96.6853 217.117 96.6696C217.134 96.6538 217.149 96.6348 217.159 96.6135C217.169 96.5922 217.175 96.5691 217.176 96.5455C217.178 96.5219 217.174 96.4983 217.166 96.476C217.159 96.4537 217.146 96.4331 217.131 96.4155L215.977 95.127C215.949 95.0964 215.911 95.0764 215.87 95.0705C215.829 95.0646 215.787 95.0731 215.751 95.0946C215.715 95.116 215.688 95.1492 215.674 95.1883C215.66 95.2275 215.66 95.2703 215.674 95.3095L215.672 95.3113Z" fill="#0C0C0C"/>
<path d="M308.91 169.089L244.496 164.585C242.173 164.423 239.942 163.606 238.064 162.229C236.186 160.852 234.737 158.972 233.884 156.806L213.518 105.047L236.463 96.0365L253.98 140.558L310.629 144.519L308.91 169.089Z" fill="#28A0CB"/>
<path d="M346.31 419.261C346.31 419.261 344.249 429.934 334.245 430.531C324.24 431.128 326.41 439.088 326.41 439.088H364.641V420.005L346.31 419.261Z" fill="#97D4EA"/>
<path d="M358.103 224.533C358.103 224.533 357.983 221.324 358.008 228.603C358.103 255.755 358.574 286.769 359.727 304.917C361.579 334.092 366.328 426.074 366.328 426.074L341.206 425.863L316.857 223.43L358.103 224.533Z" fill="#262626"/>
<path d="M301.586 419.261C301.586 419.261 299.525 429.934 289.52 430.531C279.516 431.128 281.685 439.088 281.685 439.088H319.917V420.005L301.586 419.261Z" fill="#97D4EA"/>
<path d="M289.422 226.642C289.422 226.642 287.197 319.44 287.523 323.976L296.866 425.369L321.572 425.825L319.165 320.307C319.165 320.307 320.863 291.2 327.903 264.172C331.505 250.3 333.672 236.096 334.371 221.782L289.422 226.642Z" fill="#262626"/>
<path d="M358.376 224.53L358.458 224.535C358.458 224.535 358.398 222.952 358.376 224.53Z" fill="#333333"/>
<path d="M285.886 175.132C286.404 181.213 288.924 219.151 289.422 226.641H358.074C358.462 219.886 360.203 190.346 361.674 177.136C363.078 164.53 365.832 158.218 363.813 154.492C360.514 148.401 351.499 144.881 345.352 144.05C341.598 143.542 335.953 143.178 335.953 143.178C335.953 143.178 335.475 152.839 324.077 153.377C308.561 154.106 309.597 143.178 309.52 143.178C307.006 143.178 292.369 144.359 289.134 146.848C283.473 151.201 284.786 162.246 285.886 175.132Z" fill="#28A0CB"/>
<path d="M284.938 167.512C284.879 167.512 284.823 167.49 284.781 167.45C284.738 167.41 284.713 167.356 284.71 167.297L284.158 157.641C284.155 157.581 284.175 157.522 284.215 157.476C284.256 157.431 284.312 157.404 284.373 157.4C284.433 157.398 284.492 157.419 284.537 157.459C284.582 157.499 284.61 157.555 284.614 157.615L285.167 167.271C285.171 167.331 285.15 167.391 285.11 167.436C285.07 167.481 285.013 167.508 284.953 167.512L284.938 167.512Z" fill="#0C0C0C"/>
<path d="M372.917 226.244C374.937 226.244 376.926 225.756 378.716 224.822C380.506 223.889 382.044 222.537 383.198 220.882C384.353 219.227 385.09 217.318 385.347 215.317C385.605 213.316 385.374 211.283 384.676 209.39C383.967 207.469 367.339 163.48 364.173 155.33L340.734 164.817C342.515 169.4 348.963 186.77 354.144 200.763L345.537 199.829L342.828 224.726L371.561 226.17C372.011 226.219 372.464 226.244 372.917 226.244Z" fill="#28A0CB"/>
<path d="M301.342 142.345C301.419 142.335 303.525 150.252 319.959 149.02C331.336 148.169 334.112 140.432 334.371 140.432C333.145 140.171 331.153 139.901 330.608 139.611C328.816 138.649 327.511 137.478 326.854 134.966C326.341 133.001 326.078 125.437 326.078 121.643L308.57 125.573C308.815 129.854 310.523 139.778 304.536 141.534C303.541 141.824 302.468 142.091 301.342 142.345Z" fill="#E98862"/>
<path d="M309.177 133.989C316.079 134.533 324.945 131.621 326.629 122.422L328.149 114.121C329.833 104.922 326.362 96.5802 317.694 94.9961C309.024 93.412 301.178 99.6854 299.494 108.885L298.821 112.56C298.174 116.09 296.863 133.018 309.177 133.989Z" fill="#CA8043"/>
<path d="M302.778 125.542C304.017 119.324 304.585 115.174 304.518 110.797C302.773 107.741 303.232 104.229 303.629 102.713C302.428 103.476 301.015 103.838 299.594 103.747C299.594 103.747 302.479 92.1764 312.286 89.063C314.09 88.3615 318.695 87.4757 324.809 88.3136C330.01 89.0261 342.83 92.9112 344.662 107.33V107.338C344.722 107.816 345.953 121.102 348.405 127.476C351.704 136.045 356.336 138.707 356.218 148.594C356.067 161.311 332.666 163.003 318.553 162.052C304.44 161.101 296.559 156.464 296.456 147.299C296.348 137.031 300.299 137.985 302.778 125.542Z" fill="#0A0A0A"/>
<path d="M359.541 177.392L357.855 226.636L358.311 226.651L359.998 177.407L359.541 177.392Z" fill="#0C0C0C"/>
<path d="M329.733 256.551C329.733 256.551 328.691 276.255 328.5 280.881C328.054 291.579 327.899 302.655 327.899 315.214L323.939 282.292C323.939 282.292 326.835 271.974 329.733 256.551Z" fill="#0A0A0A"/>
</g>
<defs>
<clipPath id="clip0_431_462">
<rect width="457" height="440" fill="white"/>
</clipPath>
</defs>
</svg>
