<svg width="550" height="578" viewBox="0 0 550 578" fill="none" xmlns="http://www.w3.org/2000/svg">
<path d="M544 542.657H0C5.96086 527.446 16.9688 514.541 32.4864 510.714C55.1869 505.121 79.2092 520.497 101.859 514.716C114.725 511.435 124.858 501.871 135.503 493.931C175.663 463.968 230.699 455.113 278.22 470.972C303.061 479.258 325.697 493.747 351.143 499.91C384.047 507.878 418.458 501.27 452.295 500.18C485.25 499.119 532.468 512.556 544 542.657Z" fill="white"/>
<path d="M422.215 6.77374H205.781C189.207 6.77374 175.771 20.2187 175.771 36.8039V505.196C175.771 521.781 189.207 535.226 205.781 535.226H422.215C438.789 535.226 452.225 521.781 452.225 505.196V36.8039C452.225 20.2187 438.789 6.77374 422.215 6.77374Z" fill="white"/>
<path d="M422.214 542H205.78C196.029 541.989 186.68 538.108 179.785 531.208C172.89 524.308 169.011 514.953 169 505.195V36.8039C169.011 27.046 172.89 17.6911 179.785 10.7914C186.681 3.89172 196.029 0.0107694 205.781 0L422.215 0C431.966 0.010973 441.314 3.89204 448.209 10.7917C455.104 17.6914 458.983 27.0462 458.994 36.8039V505.195C458.983 514.953 455.105 524.308 448.209 531.208C441.314 538.108 431.965 541.989 422.214 542ZM205.781 13.5475C199.619 13.554 193.711 16.0063 189.354 20.3662C184.996 24.7262 182.545 30.6378 182.538 36.8039V505.195C182.545 511.361 184.996 517.273 189.353 521.633C193.71 525.992 199.617 528.445 205.779 528.452H422.213C428.375 528.445 434.282 525.992 438.639 521.633C442.996 517.273 445.447 511.361 445.454 505.195V36.8039C445.447 30.638 442.996 24.7267 438.639 20.3668C434.282 16.0069 428.375 13.5544 422.213 13.5475H205.781Z" fill="#E3F0FA"/>
<path d="M266.608 6.77374H361.387V25.1749C361.387 28.8279 359.936 32.3311 357.355 34.9141C354.774 37.4971 351.273 38.9481 347.622 38.9481H280.373C276.722 38.9481 273.221 37.497 270.639 34.9138C268.058 32.3307 266.608 28.8272 266.608 25.1741V6.77374Z" fill="#E3F0FA"/>
<path d="M259.939 66.0878H201.144V124.923H259.939V66.0878Z" fill="#E3F0FA"/>
<path d="M426.851 100.247H273.619V115.849H426.851V100.247Z" fill="#E3F0FA"/>
<path d="M382.752 72.3041H273.619V87.9054H382.752V72.3041Z" fill="#E3F0FA"/>
<path d="M426.851 141.765H201.144V311.962H426.851V141.765Z" fill="#E3F0FA"/>
<path d="M426.851 334.141H201.144V419.238H426.851V334.141Z" fill="#E3F0FA"/>
<path d="M426.851 441.663H201.144V504.337H426.851V441.663Z" fill="#E3F0FA"/>
<path d="M316.237 189.31H311.757V263.616H316.237V189.31Z" fill="white"/>
<path d="M351.125 224.221H276.869V228.704H351.125V224.221Z" fill="white"/>
<path d="M476.637 415.37C476.637 415.37 469.626 411.651 471.192 392.549L456.705 389.862C456.705 389.862 458.333 406.987 451.006 412.425L476.637 415.37Z" fill="#E2B764"/>
<path opacity="0.15" d="M453.977 408.844L466.008 399.634L456.559 399.536C456.285 402.772 455.409 405.929 453.977 408.844Z" fill="black"/>
<path d="M479.41 385.142C478.407 390.938 475.246 396.425 470.138 398.296C464.074 400.518 459.582 400.668 452.59 400.668C443.047 400.668 443.363 390.711 443.096 380.676C442.824 370.602 443.627 359.796 447.398 356.285C454.922 349.277 477.017 353.715 479.704 365.435C481.091 371.499 480.366 379.627 479.41 385.142Z" fill="#E2B764"/>
<path d="M437.982 362.111C437.982 362.111 434.074 361.238 435.143 357.338C435.852 354.753 439.164 355.327 439.164 355.327C439.164 355.327 436.029 354.753 436.029 352.014C436.029 350.291 437.353 347.365 441.351 349.036C446.042 350.996 451.39 350.745 455.457 350.06C457.758 349.556 460.094 349.226 462.445 349.073H462.456C465.158 349.026 467.852 349.387 470.447 350.143C477.717 352.32 488.721 358.843 486.382 373.631C483.77 390.137 476.031 396.449 472.625 398.474C472.424 398.595 472.197 398.669 471.963 398.69C471.729 398.711 471.493 398.678 471.273 398.595C471.054 398.511 470.856 398.379 470.695 398.207C470.534 398.036 470.413 397.83 470.343 397.606C469.377 394.512 467.714 386.729 468.179 370.68C445.831 369.583 439.401 369.25 439.401 369.25C439.401 369.25 434.139 369.447 434.139 365.601C434.139 361.756 437.982 362.111 437.982 362.111Z" fill="#0F1011"/>
<path d="M456.729 380.678C457.454 380.678 458.043 380.09 458.043 379.364C458.043 378.638 457.454 378.049 456.729 378.049C456.003 378.049 455.415 378.638 455.415 379.364C455.415 380.09 456.003 380.678 456.729 380.678Z" fill="#0F1011"/>
<path d="M446.366 379.828C447.092 379.828 447.68 379.24 447.68 378.514C447.68 377.788 447.092 377.199 446.366 377.199C445.641 377.199 445.053 377.788 445.053 378.514C445.053 379.24 445.641 379.828 446.366 379.828Z" fill="#0F1011"/>
<path d="M447.569 375.051L444.09 375.095" stroke="#0F1011" stroke-width="1.362" stroke-miterlimit="10" stroke-linecap="round"/>
<path d="M459.564 376.365L456.133 375.538" stroke="#0F1011" stroke-width="1.362" stroke-miterlimit="10" stroke-linecap="round"/>
<path d="M463.562 382.581C463.464 384.042 463.944 385.483 464.899 386.592C465.854 387.702 467.207 388.39 468.665 388.51C470.124 388.629 471.571 388.169 472.693 387.229C473.815 386.289 474.522 384.945 474.662 383.488C474.735 382.756 474.659 382.017 474.44 381.315C474.222 380.613 473.864 379.963 473.388 379.402C472.913 378.841 472.33 378.382 471.673 378.052C471.017 377.721 470.301 377.526 469.567 377.479C465.599 377.353 463.814 379.513 463.562 382.581Z" fill="#E2B764"/>
<g opacity="0.15">
<path d="M450.898 386.654C451.007 386.655 451.112 386.616 451.194 386.545C451.276 386.474 451.33 386.376 451.347 386.268C451.363 386.161 451.34 386.051 451.282 385.959C451.224 385.867 451.135 385.799 451.031 385.767L448.36 384.951L450.228 380.786C450.276 380.677 450.278 380.553 450.235 380.442C450.192 380.33 450.107 380.241 449.998 380.192C449.89 380.143 449.766 380.139 449.654 380.18C449.542 380.222 449.452 380.306 449.401 380.414L447.323 385.047C447.296 385.106 447.283 385.169 447.283 385.234C447.283 385.298 447.297 385.361 447.323 385.42C447.35 385.479 447.388 385.531 447.436 385.573C447.485 385.616 447.541 385.648 447.603 385.667L450.765 386.638C450.808 386.651 450.853 386.656 450.898 386.654Z" fill="black"/>
</g>
<path d="M456.122 389.715C456.122 389.715 451.273 390.227 447.872 389.038C447.872 389.038 447.899 392.234 451.736 392.549C455.572 392.864 456.122 389.715 456.122 389.715Z" fill="#F8FCFF"/>
<path d="M419.709 555.662C417.986 555.373 398.554 552.052 398.554 552.052L401.759 533.274C401.759 533.274 421.138 536.586 422.855 536.874L419.709 555.662Z" fill="#E2B764"/>
<path d="M387.469 573.675C387.387 574.18 387.41 574.698 387.537 575.194C387.663 575.69 387.891 576.155 388.205 576.56C388.519 576.964 388.913 577.3 389.363 577.545C389.812 577.79 390.307 577.94 390.817 577.986C391.524 578.048 392.234 577.907 392.864 577.579C393.493 577.251 394.016 576.751 394.371 576.136L405.351 555.494C405.562 555.094 405.684 554.653 405.709 554.201C405.734 553.749 405.661 553.297 405.495 552.877C403.914 549.52 403.45 545.745 404.171 542.106C404.851 539.291 406.307 536.724 408.373 534.697C408.573 534.522 408.72 534.294 408.795 534.039C408.87 533.783 408.872 533.512 408.799 533.256C408.726 533 408.582 532.77 408.383 532.593C408.185 532.416 407.94 532.299 407.678 532.256L396.992 530.465C396.676 530.413 396.354 530.423 396.042 530.495C395.731 530.567 395.437 530.7 395.177 530.887C394.917 531.073 394.697 531.309 394.528 531.58C394.36 531.852 394.246 532.155 394.195 532.47L387.469 573.675Z" fill="#C1D8ED"/>
<path d="M479.864 504.873C487.927 505.209 496.14 505.445 504.354 505.649L516.697 505.921L529.025 506.143L530.254 506.165C535.346 506.261 540.212 508.285 543.872 511.83C547.531 515.374 549.712 520.175 549.973 525.265C550.235 530.355 548.559 535.354 545.282 539.256C542.005 543.158 537.372 545.671 532.317 546.29L410.478 561.094L405.518 525.062L526.813 506.324L530.105 546.47L517.587 547.28L505.076 548.037C496.723 548.52 488.366 548.972 479.86 549.321L479.864 504.873Z" fill="#262626"/>
<path d="M510.598 547.772C493.777 545.323 492.105 544.869 491.549 544.725L496.496 526.329C496.441 526.314 496.368 526.294 496.28 526.275C497.658 526.576 506.207 527.883 513.337 528.921L510.598 547.772Z" fill="#E2B764"/>
<path d="M531.61 564.147C531.787 564.628 531.862 565.14 531.832 565.651C531.802 566.163 531.667 566.662 531.435 567.119C531.203 567.576 530.88 567.98 530.485 568.306C530.09 568.632 529.633 568.873 529.141 569.015C528.458 569.21 527.735 569.207 527.054 569.004C526.374 568.802 525.766 568.41 525.301 567.873L510.606 549.692C510.324 549.34 510.121 548.93 510.011 548.492C509.902 548.053 509.888 547.597 509.971 547.152C510.888 543.557 510.627 539.763 509.228 536.326C508.028 533.692 506.112 531.449 503.699 529.851C503.468 529.718 503.281 529.521 503.158 529.285C503.036 529.049 502.983 528.782 503.006 528.517C503.029 528.252 503.127 527.999 503.288 527.787C503.45 527.575 503.668 527.414 503.918 527.322L514.071 523.534C514.371 523.422 514.689 523.371 515.009 523.383C515.328 523.394 515.642 523.469 515.933 523.603C516.223 523.736 516.484 523.926 516.702 524.161C516.919 524.395 517.087 524.671 517.198 524.971L531.61 564.147Z" fill="#C1D8ED"/>
<path d="M452.807 546.058C447.703 545.623 442.599 545.309 437.496 545.014C432.394 544.742 427.291 544.47 422.191 544.289L414.539 543.994L406.89 543.773C401.79 543.603 396.692 543.533 391.592 543.436L393.359 506.779C402.905 508.114 412.463 509.342 422.017 510.599C431.571 511.856 441.136 513.014 450.7 514.191L465.055 515.884L479.418 517.495C488.998 518.526 498.58 519.549 508.182 520.393L503.969 556.524C494.43 555.133 484.871 553.921 475.31 552.714L460.966 550.973L446.608 549.313C437.031 548.256 427.455 547.181 417.871 546.2C408.287 545.219 398.701 544.214 389.105 543.314C384.502 542.883 380.232 540.728 377.149 537.281C374.066 533.834 372.397 529.349 372.478 524.723C372.558 520.098 374.381 515.674 377.581 512.336C380.782 508.998 385.124 506.992 389.739 506.721L390.875 506.657C395.965 506.358 401.057 506.087 406.147 505.715L413.783 505.192L421.416 504.596C426.505 504.212 431.593 503.736 436.681 503.264C441.767 502.769 446.855 502.252 451.939 501.616L452.807 546.058Z" fill="#262626"/>
<path d="M498.388 499.309L501.071 544.398L423.571 543.488L429.421 503.568L498.388 499.309Z" fill="#262626"/>
<path d="M524.26 489.113L503.721 425.392C502.871 422.074 501.102 419.064 498.619 416.707C494.475 412.561 487.323 409.885 478.603 409.876C477.949 414.965 447.072 414.983 446.838 409.994C445.659 410.012 444.743 410.03 444.172 410.057C431.698 410.595 426.676 415.399 425.082 422.632L398.898 486.034C398.257 487.586 398.037 489.281 398.262 490.946C398.486 492.611 399.147 494.187 400.176 495.514C401.206 496.84 402.568 497.871 404.124 498.502C405.68 499.132 407.376 499.339 409.038 499.102L423.344 497.062C422.639 500.628 422.528 503.4 423.92 506.605C427.718 515.341 502.353 518.969 503.35 503.602C503.36 503.452 503.361 503.302 503.367 503.149L515.769 501.995C517.243 501.858 518.668 501.391 519.937 500.629C521.207 499.868 522.289 498.83 523.104 497.593C523.919 496.357 524.446 494.953 524.646 493.485C524.846 492.017 524.714 490.523 524.26 489.113ZM422.861 477.89L427.594 466.429C427.541 470.529 427.322 474.126 427.008 477.299L422.861 477.89ZM501.663 483.447L498.044 483.785C496.261 478.105 495.36 472.184 495.374 466.23C495.374 465.536 495.403 464.848 495.447 464.161L501.663 483.447Z" fill="#07648D"/>
<path d="M472.607 440.363L475.811 488.151C475.848 488.714 475.77 489.279 475.581 489.811C475.391 490.343 475.094 490.83 474.709 491.243C474.324 491.655 473.857 491.984 473.34 492.209C472.822 492.434 472.264 492.55 471.7 492.55H404.999C403.98 492.549 402.997 492.171 402.24 491.488C401.483 490.805 401.006 489.866 400.901 488.851L395.967 441.06C395.908 440.486 395.97 439.906 396.149 439.357C396.328 438.808 396.62 438.303 397.006 437.875C397.393 437.446 397.865 437.103 398.392 436.869C398.919 436.634 399.489 436.513 400.066 436.513H468.498C469.543 436.514 470.549 436.912 471.312 437.626C472.075 438.341 472.538 439.319 472.607 440.363Z" fill="#9EBCEA"/>
<path d="M410.571 492.549H480.652C482.24 492.549 483.527 491.261 483.527 489.672C483.527 488.083 482.24 486.794 480.652 486.794H410.571C408.983 486.794 407.695 488.083 407.695 489.672C407.695 491.261 408.983 492.549 410.571 492.549Z" fill="#9EBCEA"/>
<path d="M434.121 470.883C437.625 470.883 440.467 468.04 440.467 464.533C440.467 461.026 437.625 458.183 434.121 458.183C430.616 458.183 427.775 461.026 427.775 464.533C427.775 468.04 430.616 470.883 434.121 470.883Z" fill="white"/>
<path d="M443.264 498.618C447.335 501.131 453.635 502.319 459.129 502.755L459.437 492.74C456.853 492.667 452.883 492.395 448.993 492.549C447.236 491.115 446.224 490.69 444.421 488.885C442.501 486.963 437.462 485.809 436.51 488.885C435.559 491.96 439.691 496.405 443.264 498.618Z" fill="#E2B764"/>
<path d="M446.838 409.994C447.072 414.983 449.784 422.322 458.151 422.875C469.302 423.61 477.949 414.965 478.603 409.876H478.575C467.597 409.876 453.238 409.894 446.838 409.994Z" fill="#E2B764"/>
<path d="M428.336 415.541L413.992 406.469H346V351.094H428.336V415.541Z" fill="#FFBC78"/>
<path d="M358.101 378.27L376.63 369.273V372.793L361.932 379.639V379.717L376.63 386.601V390.083L358.101 381.085V378.27Z" fill="white" stroke="white" stroke-miterlimit="10"/>
<path d="M380.895 391.647L390.433 363.287H393.796L384.257 391.647H380.895Z" fill="white" stroke="white" stroke-miterlimit="10"/>
<path d="M416.236 381.163L397.706 390.082V386.601L412.639 379.717V379.638L397.706 372.751V369.27L416.236 378.188V381.163Z" fill="white" stroke="white" stroke-miterlimit="10"/>
<path d="M111.242 533.866L96.2371 532.081C96.9127 526.398 97.6762 519.571 97.7273 518.452C97.7273 518.524 97.7273 518.583 97.7273 518.629H112.838C112.835 519.082 112.835 520.46 111.242 533.866Z" fill="#725145"/>
<path d="M51.0329 535.674L35.9223 535.625C35.9223 535.625 35.9734 520.01 35.9734 518.629H51.0839C51.0839 520.015 51.0329 535.674 51.0329 535.674Z" fill="#725145"/>
<path d="M116.816 528.638C115.566 496.951 115.49 463.669 115.099 431.897C109.901 397.628 107.17 360.042 100.755 326.016L100.563 326.073L100.001 322.236L45.2592 318.852C45.2592 318.852 43.8316 345.694 43.3344 354.638C40.6663 402.587 35.251 479.652 32.0281 528.233L58.5572 530.476C63.2947 482.695 70.3009 406.577 74.583 359.484C79.2816 383.48 84.4315 410.503 88.6034 434.783C89.5165 465.801 90.28 498.124 90.1972 529.092L116.816 528.638Z" fill="#262626"/>
<path d="M69.4022 541.522C69.8087 541.521 70.2105 541.435 70.5824 541.271C70.9544 541.107 71.2885 540.868 71.5639 540.569C71.8393 540.269 72.0501 539.917 72.183 539.532C72.316 539.148 72.3682 538.74 72.3365 538.335C72.2928 537.773 72.0895 537.235 71.7505 536.785C71.4115 536.334 70.951 535.991 70.4233 535.794L52.8368 529.899C52.4961 529.786 52.135 529.748 51.7783 529.788C51.4216 529.827 51.0777 529.944 50.7702 530.129C48.3522 531.808 45.4599 532.666 42.5184 532.577C40.2273 532.414 38.028 531.61 36.1713 530.257C36.0082 530.123 35.8103 530.038 35.6008 530.013C35.3913 529.987 35.1789 530.021 34.9882 530.112C34.7976 530.203 34.6366 530.346 34.5241 530.524C34.4116 530.703 34.3523 530.91 34.353 531.121V539.727C34.353 539.981 34.4031 540.232 34.5004 540.467C34.5978 540.701 34.7404 540.914 34.9202 541.093C35.1 541.273 35.3133 541.414 35.548 541.511C35.7827 541.607 36.0341 541.656 36.2879 541.655L69.4022 541.522Z" fill="#C1D8ED"/>
<path d="M129.652 541.522C130.059 541.52 130.46 541.435 130.832 541.27C131.204 541.106 131.538 540.867 131.813 540.568C132.089 540.269 132.299 539.916 132.432 539.532C132.565 539.148 132.617 538.74 132.586 538.335C132.542 537.773 132.338 537.235 131.999 536.785C131.661 536.335 131.2 535.991 130.673 535.794L113.085 529.899C112.744 529.786 112.383 529.748 112.026 529.788C111.67 529.827 111.326 529.944 111.018 530.129C108.6 531.808 105.708 532.666 102.766 532.577C100.475 532.414 98.2764 531.61 96.4199 530.257C96.2567 530.123 96.0588 530.039 95.8493 530.013C95.6398 529.987 95.4273 530.022 95.2367 530.112C95.046 530.203 94.885 530.346 94.7724 530.524C94.6598 530.703 94.6003 530.91 94.6009 531.121V539.727C94.6009 539.981 94.651 540.232 94.7483 540.467C94.8456 540.701 94.9883 540.914 95.1681 541.093C95.3478 541.273 95.5612 541.414 95.7959 541.511C96.0306 541.607 96.282 541.656 96.5357 541.655L129.652 541.522Z" fill="#C1D8ED"/>
<path d="M297 134.641H112.858V273.495H297V134.641Z" fill="#FFBC78"/>
<path d="M126.829 268.264L127.164 268.408L122.979 269.084L127.087 276.932C127.087 276.932 142.323 280.5 149.451 272.474C149.632 272.27 149.748 272.015 149.783 271.744C149.817 271.472 149.769 271.197 149.645 270.953C149.52 270.71 149.325 270.509 149.085 270.379C148.845 270.248 148.571 270.192 148.299 270.22C144.191 270.637 136.865 271.133 133.566 269.832C135.017 269.119 136.941 268.027 136.639 267.374C135.843 265.662 128.946 267.923 126.829 268.264Z" fill="#725145"/>
<path d="M171.983 268.264L172.317 268.408L168.132 269.084L172.24 276.932C172.24 276.932 187.475 280.5 194.604 272.474C194.785 272.27 194.9 272.015 194.935 271.744C194.969 271.473 194.921 271.197 194.797 270.954C194.673 270.71 194.478 270.51 194.238 270.379C193.998 270.248 193.724 270.193 193.453 270.22C189.344 270.637 182.018 271.133 178.719 269.832C180.17 269.119 182.094 268.027 181.792 267.374C180.996 265.662 174.1 267.923 171.983 268.264Z" fill="#725145"/>
<path d="M62.073 243.957C62.073 243.957 67.8596 241.47 67.8596 226.258L79.4911 225.072C79.4911 225.072 77.0936 238.514 82.537 243.288L62.073 243.957Z" fill="#725145"/>
<path d="M61.8384 219.864C62.2564 224.514 64.4007 229.061 68.32 230.873C72.582 232.984 77.2954 234.019 82.049 233.889C94.6757 233.889 94.5332 205.147 89.0323 199.115C83.5313 193.083 65.7678 195.16 62.8824 204.257C61.3901 208.962 61.4412 215.439 61.8384 219.864Z" fill="#725145"/>
<path d="M80.1552 217.809C80.731 217.809 81.1978 217.342 81.1978 216.765C81.1978 216.189 80.731 215.722 80.1552 215.722C79.5794 215.722 79.1126 216.189 79.1126 216.765C79.1126 217.342 79.5794 217.809 80.1552 217.809Z" fill="#367CFF"/>
<path d="M78.106 214.699C77.9821 214.699 77.8626 214.653 77.7717 214.569C77.6808 214.484 77.6252 214.369 77.616 214.245C77.6069 214.122 77.645 213.999 77.7225 213.903C77.8001 213.806 77.9114 213.742 78.034 213.725L80.8014 213.293C80.9298 213.273 81.0609 213.305 81.1658 213.381C81.2707 213.458 81.3409 213.573 81.3608 213.702C81.3808 213.83 81.3489 213.962 81.2722 214.067C81.1955 214.172 81.0802 214.242 80.9518 214.262L78.1844 214.694C78.1584 214.698 78.1322 214.699 78.106 214.699Z" fill="#367CFF"/>
<path d="M95.6838 210.173C95.6838 210.173 94.8879 189.687 72.2157 192.842C70.5482 193.104 68.9343 193.635 67.4364 194.413C66.3442 193.368 65.0311 192.582 63.5942 192.114C62.1573 191.645 60.6336 191.507 59.1358 191.708C57.638 191.908 56.2045 192.444 54.9416 193.274C53.6787 194.105 52.6188 195.209 51.8402 196.505C51.0616 197.801 50.5845 199.256 50.444 200.762C50.3035 202.267 50.5034 203.785 51.0288 205.203C51.5542 206.621 52.3916 207.903 53.4791 208.953C54.5665 210.003 55.8762 210.794 57.3109 211.269C57.3109 211.444 57.3109 211.616 57.3224 211.793C57.952 225.072 64.2402 231.311 66.8658 232.329C77.9397 236.621 82.5556 231.216 87.3147 210.8C90.117 210.825 92.9164 210.615 95.6838 210.173Z" fill="#0F1011"/>
<path d="M169.804 266.48L131.704 278.828L129.027 273.493H119.558L113.981 265.753H113.974L103.634 251.172C99.7989 245.088 96.8272 241.927 87.7105 241.538C84.8179 241.408 70.7219 241.387 60.4036 241.387C53.4672 241.387 47.7755 243.518 44.4872 246.809C33.1543 258.149 47.0632 277.475 47.0632 292.595C47.0632 307.716 40.2275 314.499 40.7311 322.261C41.5226 334.465 100.763 331.578 103.778 324.651C106.555 318.272 101.828 314.06 100.979 296.606L113.298 290.414L116.91 294.856C117.646 295.761 118.574 296.49 119.627 296.99C120.68 297.491 121.831 297.751 122.997 297.751C123.816 297.749 124.629 297.62 125.408 297.369L174.639 281.413L169.804 266.48ZM101.691 278.677C101.778 277.943 101.864 277.216 101.95 276.481L103.145 277.95L101.691 278.677Z" fill="#97D4EA"/>
<path d="M88.3307 221.194C88.3158 222.357 87.8436 223.467 87.0164 224.285C86.1891 225.102 85.0734 225.56 83.9108 225.56C82.7483 225.56 81.6325 225.102 80.8053 224.285C79.978 223.467 79.5058 222.357 79.491 221.194C79.4811 220.61 79.5886 220.03 79.8072 219.489C80.0257 218.948 80.3509 218.457 80.7633 218.044C81.1756 217.631 81.6668 217.306 82.2075 217.087C82.7482 216.868 83.3273 216.761 83.9105 216.77C87.0585 216.925 88.3307 218.75 88.3307 221.194Z" fill="#725145"/>
<g opacity="0.61">
<path d="M157.784 201.908C171.187 201.908 182.053 191.036 182.053 177.624C182.053 164.212 171.187 153.339 157.784 153.339C144.382 153.339 133.516 164.212 133.516 177.624C133.516 191.036 144.382 201.908 157.784 201.908Z" fill="white"/>
<path opacity="0.2" d="M157.282 178.353C161.987 178.353 165.802 174.537 165.802 169.829C165.802 165.122 161.987 161.306 157.282 161.306C152.577 161.306 148.763 165.122 148.763 169.829C148.763 174.537 152.577 178.353 157.282 178.353Z" fill="#775540"/>
<path opacity="0.2" d="M175.268 194.162C173.082 196.635 170.388 198.615 167.368 199.972C164.348 201.329 161.07 202.031 157.755 202.031C154.439 202.03 151.162 201.328 148.142 199.971C145.122 198.613 142.429 196.632 140.243 194.159C141.363 190.415 143.673 187.129 146.829 184.793C149.985 182.456 153.818 181.194 157.757 181.195C161.695 181.195 165.528 182.458 168.684 184.795C171.839 187.132 174.149 190.417 175.268 194.162Z" fill="#775540"/>
<path d="M276.34 241.731H133.516V254.128H276.34V241.731Z" fill="white"/>
<path d="M276.34 215.383H133.516V227.78H276.34V215.383Z" fill="white"/>
<path d="M276.341 184.599H189.717V196.996H276.341V184.599Z" fill="white"/>
<path d="M276.341 158.251H189.717V170.648H276.341V158.251Z" fill="white"/>
</g>
</svg>
