<svg width="1142" height="547" viewBox="0 0 1142 547" fill="none" xmlns="http://www.w3.org/2000/svg">
<g clip-path="url(#clip0_433_681)">
<path d="M75.3959 547C34.3746 547 4.60359 512.463 15.1332 477.249C31.9484 421.028 80.12 345.643 214.768 309.888C323 245.27 329 153 477 127C637 127 698.414 173.115 741 183C783.586 192.885 897.929 158.618 929.817 245.27C988.764 405.448 1067.89 328.233 1129.29 451.578C1133.11 459.33 1136.42 467.25 1139.19 475.304C1151.56 510.922 1121.53 546.999 1079.55 546.999L75.3959 547Z" fill="#28A0CB"/>
<path opacity="0.56" d="M287.908 547H82.9638C71.7236 519.46 105.502 505.873 116.234 523.723C109.828 513.075 108.125 499.58 121.429 490.891C135.372 484.005 152.158 491.878 154.728 504.335C151.309 487.743 167.591 471.217 185.712 467.458C232.218 457.818 242.592 501.018 238.376 507.81C250.662 488.019 301.45 512.445 287.908 547Z" fill="#DCDEE0"/>
<path d="M363.589 133.743C358.924 132.318 353.9 132.318 349.234 133.743C346.553 134.586 344.158 136.088 342.299 138.093C339.927 140.74 338.178 144.405 338.349 147.919C338.472 149.734 339.082 151.491 340.123 153.025C341.163 154.558 342.6 155.817 344.299 156.685C347.308 158.138 351.835 158.439 354.47 156.116C356.48 154.347 356.377 151.305 355.081 149.194C353.01 145.826 348.488 144.452 344.562 144.921C342.324 145.224 340.173 145.947 338.237 147.048C336.301 148.148 334.62 149.604 333.294 151.329C332.041 152.96 331.134 154.804 330.621 156.758C330.033 158.612 330.064 160.591 330.711 162.427C330.847 162.846 331.149 163.199 331.553 163.415C331.957 163.631 332.434 163.694 332.886 163.59C333.336 163.471 333.719 163.188 333.95 162.805C334.181 162.422 334.242 161.968 334.121 161.542C333.901 161.07 333.778 160.563 333.756 160.047C333.724 159.411 333.777 158.774 333.914 158.151C334.229 156.71 334.801 155.331 335.606 154.071C337.235 151.56 339.754 149.672 342.717 148.741C345.551 147.848 348.897 147.856 351.172 149.879C351.595 150.238 351.942 150.67 352.192 151.153C352.225 151.207 352.327 151.451 352.206 151.164C352.261 151.293 352.309 151.426 352.35 151.56C352.377 151.644 352.401 151.729 352.423 151.817C352.451 151.932 352.494 152.465 352.468 151.978C352.475 152.111 352.597 152.896 352.468 152.972C352.428 152.995 352.572 152.498 352.492 152.79C352.478 152.84 352.477 152.894 352.46 152.944C352.428 153.087 352.387 153.227 352.335 153.365C352.108 153.712 351.767 153.98 351.363 154.128C351.621 154.013 351.095 154.212 351.099 154.212C350.989 154.244 350.878 154.27 350.767 154.297C350.444 154.377 350.112 154.425 349.777 154.44C349.202 154.478 348.623 154.463 348.05 154.398C347.436 154.294 346.835 154.125 346.262 153.892C345.009 153.318 343.942 152.439 343.172 151.345C342.402 150.252 341.957 148.984 341.884 147.673C341.918 146.183 342.274 144.715 342.931 143.359C343.193 142.808 343.492 142.274 343.825 141.759C344.118 141.299 344.447 140.861 344.809 140.448C345.177 140.038 345.571 139.651 345.991 139.288C346.196 139.112 346.406 138.941 346.621 138.776C347.04 138.455 346.353 138.956 346.784 138.659C346.916 138.569 347.052 138.48 347.185 138.394C347.652 138.096 348.137 137.825 348.639 137.582C348.899 137.456 349.163 137.338 349.429 137.225C349.487 137.201 349.743 137.105 349.445 137.218C349.616 137.153 349.788 137.09 349.962 137.03C351.116 136.642 352.308 136.36 353.521 136.188C354.028 136.112 353.153 136.22 353.662 136.171C353.815 136.157 353.967 136.139 354.12 136.126C354.423 136.099 354.727 136.078 355.032 136.063C355.629 136.033 356.227 136.027 356.82 136.042C357.396 136.055 357.972 136.089 358.546 136.142C358.672 136.154 359.53 136.255 359.041 136.19C359.309 136.225 359.572 136.264 359.836 136.307C360.79 136.461 361.732 136.676 362.654 136.951C364.827 137.605 365.757 134.391 363.594 133.74L363.589 133.743Z" fill="#FFBC78"/>
<path d="M15.1161 113.176C19.6281 111.649 24.336 114.737 26.4556 118.518C28.5449 122.245 28.0574 127.567 23.9702 129.952C22.2325 130.962 19.7998 131.304 18.2848 130.004C16.7045 128.648 16.8011 126.958 18.3626 125.602C18.7283 125.293 19.1269 125.02 19.5521 124.789C19.7999 124.648 20.0521 124.515 20.3105 124.393C20.4053 124.348 20.501 124.309 20.5967 124.263C20.8588 124.147 20.2148 124.393 20.6915 124.226C21.0734 124.091 21.4635 123.977 21.8596 123.885C22.048 123.842 22.2379 123.804 22.4292 123.771C22.5393 123.752 22.6493 123.734 22.7602 123.718C22.3935 123.772 22.939 123.702 22.9632 123.7C23.8616 123.623 24.7663 123.637 25.6615 123.743C25.9611 123.778 25.4227 123.706 25.7214 123.753C25.8385 123.772 25.9566 123.79 26.0738 123.811C26.2803 123.847 26.4851 123.888 26.69 123.932C27.1893 124.043 27.682 124.179 28.1656 124.34C28.3034 124.386 28.7201 124.535 28.7175 124.535C28.5699 124.476 28.8436 124.588 28.84 124.587C28.9509 124.634 29.0609 124.683 29.17 124.732C29.6343 124.945 30.085 125.183 30.5196 125.445C31.2647 125.888 31.9387 126.429 32.5211 127.052C33.0933 127.657 33.5677 128.338 33.9288 129.073C34.0001 129.209 34.0599 129.35 34.1077 129.494C34.2159 129.775 34.3107 130.061 34.3984 130.348C34.5919 130.969 34.7369 131.601 34.8322 132.242C35.1415 134.596 34.7431 136.985 33.6822 139.137C32.6213 141.289 30.9406 143.117 28.831 144.414C27.9892 144.91 27.0342 145.209 26.045 145.288C25.0559 145.366 24.061 145.222 23.1429 144.866C22.8886 144.752 22.644 144.619 22.4114 144.469C22.1323 144.293 22.5428 144.592 22.3819 144.451C22.3398 144.414 22.2969 144.379 22.2575 144.34C22.2039 144.288 22.1574 144.234 22.1064 144.181C22.5679 144.661 22.1601 144.27 22.1887 144.258C22.1486 144.198 22.1125 144.136 22.0805 144.072C22.1788 144.217 22.1574 144.361 22.1109 144.12C22.1001 144.06 22.0008 143.578 22.033 143.851C22.0626 144.104 22.0393 143.689 22.033 143.606C22.0268 143.522 22.0456 143.444 22.0483 143.362C22.0483 143.426 21.9588 143.723 22.0402 143.429C22.0948 143.232 22.1296 143.036 22.2012 142.843C22.2343 142.746 22.4158 142.357 22.2754 142.637C22.3649 142.451 22.4695 142.268 22.5795 142.09C22.6895 141.913 22.8246 141.717 22.9596 141.539C22.9739 141.52 23.1564 141.297 23.0177 141.461C23.0973 141.368 23.1805 141.277 23.2655 141.187C23.9974 140.412 24.8532 139.75 25.8019 139.224C26.0925 139.056 26.3894 138.9 26.6962 138.755C26.7991 138.706 27.2758 138.515 26.8867 138.659C27.2592 138.521 27.6399 138.403 28.027 138.306C28.81 138.086 29.6246 137.981 30.4417 137.996C30.9029 137.99 31.3642 138.006 31.8235 138.044C31.9792 138.048 32.1339 138.067 32.285 138.103C32.5649 138.151 32.8431 138.205 33.1186 138.271C34.0381 138.469 34.9045 138.843 35.6639 139.37C37.0646 140.437 38.0508 141.911 38.4686 143.561C38.9437 145.28 38.9871 147.08 38.5956 148.818C38.2319 150.537 37.4337 152.148 36.2685 153.515C35.677 154.191 34.9808 154.78 34.2034 155.262C32.3038 156.428 34.0746 159.314 35.9921 158.138C38.1307 156.742 39.8449 154.844 40.965 152.632C42.085 150.421 42.572 147.972 42.3778 145.528C42.2532 143.059 41.3712 140.678 39.8387 138.671C38.1842 136.62 35.7495 135.254 33.047 134.86C30.5074 134.428 27.8891 134.703 25.5132 135.652C23.1373 136.601 21.1072 138.182 19.672 140.202C18.5549 141.869 17.9995 144.15 19.1425 145.938C20.5914 148.212 24.0918 148.849 26.6694 148.549C29.7754 148.067 32.5606 146.466 34.4368 144.086C36.6429 141.641 38.0265 138.634 38.4113 135.447C38.7575 132.481 38.1581 129.486 36.6897 126.842C35.4538 124.822 33.6355 123.172 31.4452 122.085C27.2543 119.963 21.8318 119.558 17.6722 121.962C14.9525 123.536 12.8221 126.312 13.8417 129.436C14.3252 130.842 15.2779 132.064 16.5581 132.919C17.8383 133.774 19.3774 134.216 20.9464 134.181C27.6746 134.074 31.9174 127.444 31.1322 121.621C30.3165 115.579 25.0703 110.167 18.5334 109.483C17.0624 109.329 15.5734 109.491 14.1788 109.958C13.733 110.085 13.356 110.369 13.1261 110.75C12.8961 111.131 12.8308 111.581 12.9437 112.007C13.0716 112.431 13.3713 112.79 13.7782 113.008C14.1852 113.225 14.6667 113.284 15.1188 113.17L15.1161 113.176Z" fill="#FFBC78"/>
<path d="M76.2176 40.7227L70.6064 44.1202L79.1503 56.6336L84.7615 53.2361L76.2176 40.7227Z" fill="#FFBC78"/>
<path d="M244.833 197.971L235.183 211.691L240.744 215.159L250.394 201.44L244.833 197.971Z" fill="#FFBC78"/>
<path d="M404.976 206.25L398.499 207.756L402.639 223.546L409.115 222.041L404.976 206.25Z" fill="#FFBC78"/>
<path d="M418.326 80.8646L412.834 84.4293L423.011 98.3327L428.503 94.7679L418.326 80.8646Z" fill="#FFBC78"/>
<path d="M319.753 62.1448C315.242 60.6179 310.533 63.7054 308.414 67.4869C306.325 71.2137 306.812 76.5365 310.9 78.9208C312.637 79.9314 315.069 80.2733 316.585 78.973C318.165 77.617 318.068 75.9276 316.507 74.5708C316.141 74.2619 315.742 73.9896 315.317 73.758C315.069 73.6174 314.817 73.4843 314.559 73.3622C314.465 73.3176 314.368 73.278 314.272 73.2325C314.01 73.1163 314.654 73.3622 314.179 73.1954C313.796 73.0604 313.406 72.9466 313.01 72.8543C312.821 72.8111 312.631 72.7729 312.441 72.7398C312.331 72.7213 312.22 72.7036 312.109 72.6876C312.476 72.7415 311.93 72.6716 311.906 72.669C311.008 72.5915 310.103 72.6059 309.208 72.712C308.909 72.7474 309.447 72.6749 309.149 72.7221C309.031 72.7406 308.913 72.7592 308.795 72.7802C308.59 72.8164 308.384 72.8569 308.18 72.9015C307.68 73.012 307.187 73.148 306.704 73.3091C306.566 73.3546 306.15 73.5045 306.152 73.5037C306.3 73.4456 306.027 73.5576 306.029 73.5559C305.918 73.6031 305.808 73.6519 305.699 73.7016C305.235 73.9137 304.784 74.1517 304.35 74.4141C303.605 74.8574 302.931 75.3985 302.348 76.021C301.776 76.6258 301.301 77.3069 300.94 78.0423C300.868 78.1783 300.807 78.319 300.757 78.4634C300.65 78.7439 300.554 79.0302 300.467 79.3174C300.273 79.9376 300.128 80.5704 300.033 81.2107C299.724 83.5651 300.122 85.9541 301.183 88.1059C302.244 90.2578 303.924 92.0862 306.034 93.3831C306.875 93.8786 307.83 94.1781 308.82 94.2567C309.809 94.3354 310.804 94.191 311.722 93.8354C311.976 93.7204 312.22 93.5875 312.453 93.4379C312.732 93.2619 312.323 93.5608 312.483 93.4202C312.525 93.3831 312.572 93.3478 312.608 93.309C312.661 93.2568 312.708 93.2029 312.758 93.1498C312.298 93.6299 312.705 93.2391 312.677 93.2273C312.717 93.1672 312.753 93.1051 312.785 93.0412C312.686 93.1861 312.707 93.3301 312.754 93.0892C312.765 93.0294 312.865 92.5468 312.833 92.8205C312.802 93.0732 312.826 92.658 312.827 92.5746C312.828 92.4912 312.816 92.4129 312.813 92.3312C312.813 92.3952 312.902 92.6925 312.82 92.3978C312.765 92.2015 312.726 92.0053 312.66 91.8124C312.626 91.7147 312.444 91.3256 312.585 91.6061C312.495 91.42 312.392 91.2372 312.281 91.0595C312.17 90.8818 312.036 90.6864 311.901 90.5078C311.887 90.4893 311.704 90.2661 311.843 90.4304C311.764 90.3369 311.68 90.2459 311.596 90.1558C310.864 89.3817 310.008 88.7196 309.059 88.1935C308.768 88.025 308.471 87.8684 308.165 87.7243C308.062 87.6755 307.586 87.4843 307.974 87.6283C307.602 87.4897 307.221 87.3718 306.834 87.2754C306.051 87.0547 305.236 86.9501 304.419 86.9655C303.958 86.9588 303.497 86.9748 303.038 87.0135C302.882 87.017 302.728 87.0364 302.577 87.0716C302.296 87.1196 302.018 87.1744 301.743 87.2401C300.823 87.4366 299.957 87.8093 299.197 88.3349C297.796 89.4017 296.81 90.8754 296.393 92.5258C295.918 94.2451 295.874 96.0449 296.266 97.7828C296.631 99.5019 297.43 101.113 298.597 102.479C299.188 103.155 299.885 103.744 300.662 104.225C302.562 105.392 300.791 108.278 298.873 107.102C296.735 105.706 295.021 103.808 293.901 101.596C292.781 99.3846 292.294 96.9358 292.489 94.4923C292.612 92.0231 293.494 89.6407 295.028 87.6342C296.682 85.5841 299.116 84.2182 301.819 83.8241C304.358 83.392 306.976 83.6672 309.352 84.6159C311.728 85.5647 313.758 87.1458 315.194 89.1654C316.312 90.8329 316.866 93.1136 315.724 94.9025C314.274 97.1764 310.775 97.8131 308.197 97.5133C305.091 97.0308 302.305 95.4302 300.429 93.0496C298.223 90.6052 296.84 87.5982 296.454 84.4111C296.108 81.4454 296.708 78.4497 298.177 75.8063C299.412 73.7856 301.23 72.136 303.42 71.0486C307.612 68.9271 313.035 68.522 317.193 70.9257C319.914 72.4998 322.044 75.2765 321.024 78.4003C320.54 79.8063 319.588 81.0277 318.307 81.8827C317.027 82.7377 315.488 83.1805 313.919 83.1453C307.191 83.0383 302.948 76.4076 303.734 70.5846C304.549 64.5426 309.795 59.1306 316.332 58.4467C317.806 58.2953 319.298 58.4618 320.694 58.9335C321.14 59.0604 321.517 59.3437 321.747 59.725C321.977 60.1062 322.042 60.5562 321.93 60.9817C321.801 61.405 321.501 61.7638 321.094 61.9812C320.687 62.1986 320.206 62.2573 319.754 62.1448H319.753Z" fill="#FFBC78"/>
<path d="M176.253 115.704C171.1 115.248 166.256 113.187 162.486 109.847C160.32 107.859 158.81 105.323 158.139 102.545C157.302 99.1126 157.634 95.038 159.722 92.0499C160.697 90.7164 161.98 89.6078 163.475 88.807C164.969 88.0062 166.637 87.5338 168.352 87.4253C171.63 87.2948 175.818 88.6625 177.224 91.7046C178.349 94.1369 176.956 97.0231 174.73 98.4422C171.196 100.688 166.585 100.17 163.088 98.1466C161.187 96.9917 159.552 95.4873 158.283 93.7235C157.014 91.9597 156.135 89.9728 155.701 87.8818C154.937 84.1828 155.398 79.5928 158.367 76.8228C158.736 76.5521 159.204 76.4292 159.669 76.4807C160.134 76.5323 160.559 76.7541 160.851 77.0982C161.132 77.4487 161.258 77.8875 161.203 78.3232C161.149 78.7589 160.918 79.1581 160.559 79.4378C160.827 79.1911 160.434 79.5877 160.417 79.6063C160.342 79.6955 160.27 79.7882 160.201 79.8817C160.069 80.0508 159.956 80.2329 159.865 80.4249C159.576 81.0098 159.357 81.6226 159.209 82.2525C158.92 83.5907 158.858 84.9637 159.024 86.3203C159.403 89.2815 160.891 92.0183 163.221 94.0383C165.42 95.9232 168.425 97.1983 171.373 96.319C171.967 96.1626 172.519 95.8858 172.988 95.508C173.077 95.4372 173.167 95.3631 173.256 95.2865C172.982 95.5316 173.346 95.1879 173.373 95.1526C173.438 95.0785 173.499 95.0018 173.559 94.9235C173.619 94.8452 173.927 94.3289 173.699 94.755C173.853 94.4695 173.919 94.104 174.085 93.8345C174.076 93.8497 174.035 94.2245 174.069 93.8834C174.101 93.7112 174.108 93.5359 174.09 93.362C174 92.8112 174.121 93.4159 174.019 93.1203C174.006 93.0807 173.827 92.7295 173.93 92.9072C173.842 92.7786 173.745 92.6552 173.642 92.5375C173.6 92.4853 173.323 92.2065 173.533 92.3994C173.1 92.0264 172.611 91.7143 172.083 91.473C171.021 90.9346 169.825 90.6776 168.621 90.7293C168.87 90.7209 168.483 90.7445 168.428 90.7504C168.274 90.768 168.12 90.7798 167.967 90.8009C167.659 90.8422 167.353 90.9002 167.052 90.9744C167.26 90.9222 166.963 91.0005 166.943 91.0064C166.764 91.0611 166.585 91.1234 166.406 91.19C166.075 91.3147 165.751 91.4553 165.435 91.6111C164.294 92.1943 163.314 93.0206 162.573 94.024C160.982 96.3089 161.018 99.5127 161.635 102.044C161.71 102.351 161.755 102.503 161.808 102.658C161.9 102.932 162.002 103.203 162.114 103.47C162.333 103.99 162.588 104.497 162.876 104.986C163.152 105.456 162.697 104.734 162.997 105.181C163.059 105.273 163.121 105.364 163.185 105.455C163.344 105.68 163.51 105.9 163.683 106.116C164.06 106.585 164.468 107.031 164.904 107.452C164.982 107.528 165.062 107.603 165.143 107.678C164.879 107.434 165.3 107.81 165.354 107.856C165.583 108.048 165.818 108.235 166.057 108.417C166.578 108.809 167.12 109.175 167.682 109.512C167.936 109.665 168.197 109.809 168.456 109.954C168.531 109.997 168.85 110.164 168.539 110.004C168.682 110.077 168.826 110.148 168.971 110.218C169.541 110.493 170.122 110.746 170.716 110.976C171.765 111.375 172.84 111.709 173.936 111.975C174.032 111.999 174.353 112.066 173.969 111.984C174.104 112.013 174.237 112.042 174.373 112.068C174.634 112.121 174.896 112.168 175.159 112.211C175.645 112.291 176.133 112.353 176.623 112.399C178.894 112.611 178.52 115.924 176.254 115.713L176.253 115.704Z" fill="#FFBC78"/>
<path d="M269.408 30.2137L260.864 42.7271L266.475 46.1245L275.019 33.6112L269.408 30.2137Z" fill="#FFBC78"/>
<path d="M87.4416 227.389L81.8807 230.858L91.5302 244.577L97.0911 241.109L87.4416 227.389Z" fill="#FFBC78"/>
<path d="M415.431 132.915L410.335 136.968L422.805 150.871L427.901 146.818L415.431 132.915Z" fill="#FFBC78"/>
<path d="M32.5751 243.989L20.5234 255.64L25.302 260.024L37.3537 248.373L32.5751 243.989Z" fill="#FFBC78"/>
<path d="M292.247 229.128L286.636 232.525L295.18 245.038L300.791 241.641L292.247 229.128Z" fill="#FFBC78"/>
<path d="M862.898 39.0284C867.409 37.5015 872.117 40.5899 874.237 44.3706C876.326 48.0973 875.839 53.4201 871.751 55.8044C870.015 56.815 867.581 57.157 866.066 55.8566C864.486 54.5006 864.582 52.8112 866.144 51.4544C866.51 51.1459 866.908 50.8736 867.333 50.6416C867.581 50.501 867.834 50.3679 868.092 50.2458C868.186 50.2012 868.282 50.1616 868.378 50.1161C868.641 49.9999 867.997 50.2458 868.473 50.079C868.855 49.9439 869.245 49.8301 869.641 49.738C869.829 49.695 870.02 49.6537 870.21 49.6234C870.32 49.6049 870.43 49.5872 870.541 49.5712C870.176 49.6251 870.72 49.5552 870.744 49.5527C871.643 49.4756 872.548 49.49 873.443 49.5956C873.742 49.631 873.204 49.5586 873.502 49.6057C873.621 49.6243 873.738 49.6428 873.856 49.6638C874.061 49.7001 874.267 49.7405 874.471 49.7851C874.971 49.8955 875.463 50.0315 875.947 50.1927C876.085 50.2382 876.501 50.3881 876.499 50.3873C876.351 50.3292 876.625 50.4412 876.622 50.4395C876.732 50.4867 876.842 50.5355 876.951 50.5852C877.415 50.7975 877.866 51.0354 878.301 51.2977C879.046 51.7406 879.72 52.2817 880.302 52.9047C880.875 53.5094 881.349 54.1905 881.71 54.926C881.783 55.0616 881.844 55.2024 881.893 55.3471C882.002 55.6275 882.096 55.9139 882.184 56.201C882.378 56.8213 882.522 57.4541 882.618 58.0943C882.927 60.4488 882.529 62.8379 881.468 64.9898C880.407 67.1416 878.726 68.9699 876.617 70.2668C875.775 70.7623 874.82 71.0618 873.831 71.1405C872.841 71.2191 871.847 71.0746 870.929 70.719C870.674 70.6045 870.43 70.4716 870.198 70.3215C869.919 70.1455 870.328 70.4445 870.167 70.3038C870.125 70.2668 870.078 70.2314 870.043 70.1926C869.99 70.1404 869.943 70.0865 869.892 70.0335C870.353 70.5135 869.946 70.1227 869.974 70.1109C869.934 70.051 869.898 69.9889 869.866 69.9248C869.965 70.0697 869.943 70.2137 869.897 69.9728C869.886 69.913 869.786 69.4304 869.819 69.7042C869.848 69.9568 869.825 69.5416 869.819 69.4582C869.812 69.3748 869.831 69.2965 869.834 69.2148C869.834 69.2788 869.744 69.5761 869.826 69.2814C869.88 69.0851 869.92 68.8889 869.987 68.696C870.021 68.5983 870.201 68.2092 870.061 68.4897C870.155 68.3036 870.255 68.1208 870.366 67.9431C870.477 67.7654 870.611 67.57 870.745 67.3915C870.76 67.3729 870.942 67.1497 870.803 67.314C870.883 67.2205 870.967 67.1295 871.051 67.0394C871.783 66.2653 872.639 65.6032 873.587 65.0771C873.879 64.9086 874.175 64.7528 874.482 64.608C874.585 64.5591 875.06 64.3679 874.671 64.5119C875.044 64.3735 875.425 64.2557 875.812 64.1591C876.595 63.9383 877.409 63.8338 878.226 63.8491C878.688 63.8424 879.149 63.8584 879.609 63.8971C879.764 63.9006 879.919 63.9201 880.07 63.9552C880.35 64.0033 880.628 64.058 880.903 64.1237C881.823 64.3217 882.689 64.6958 883.449 65.2228C884.849 66.2897 885.836 67.7633 886.253 69.4136C886.728 71.1329 886.772 72.9328 886.38 74.6707C886.016 76.3898 885.216 78.0008 884.05 79.3668C883.458 80.0432 882.761 80.6321 881.984 81.1135C880.085 82.28 881.855 85.1654 883.772 83.9897C885.911 82.5938 887.625 80.696 888.745 78.4843C889.865 76.2726 890.352 73.8237 890.158 71.3802C890.034 68.9112 889.152 66.5292 887.619 64.5229C885.965 62.4722 883.53 61.106 880.827 60.7119C878.288 60.2799 875.669 60.5552 873.293 61.5041C870.918 62.4531 868.888 64.0344 867.452 66.054C866.335 67.7208 865.781 70.0015 866.923 71.7903C868.372 74.0643 871.872 74.701 874.45 74.4011C877.556 73.9189 880.341 72.3182 882.217 69.9374C884.423 67.4935 885.807 64.4862 886.192 61.2989C886.538 58.3333 885.938 55.3378 884.47 52.6941C883.234 50.6736 881.416 49.0241 879.226 47.9365C875.035 45.815 869.612 45.4098 865.453 47.8135C862.733 49.3876 860.602 52.1643 861.623 55.2881C862.106 56.6942 863.059 57.9157 864.339 58.7707C865.619 59.6257 867.159 60.0685 868.728 60.0331C875.455 59.9261 879.699 53.2954 878.912 47.4724C878.098 41.4304 872.85 36.0184 866.314 35.3345C864.843 35.1808 863.354 35.3435 861.959 35.8104C861.513 35.9372 861.137 36.2207 860.907 36.6019C860.677 36.9832 860.611 37.4332 860.724 37.8586C860.853 38.2819 861.153 38.6407 861.56 38.8581C861.967 39.0755 862.448 39.1342 862.9 39.0217L862.898 39.0284Z" fill="#FFBC78"/>
<path d="M1029.05 235.863C1034.2 235.407 1039.05 233.346 1042.82 230.007C1044.98 228.018 1046.49 225.482 1047.16 222.704C1048 219.271 1047.67 215.196 1045.58 212.208C1044.6 210.875 1043.32 209.766 1041.83 208.965C1040.33 208.165 1038.67 207.692 1036.95 207.584C1033.67 207.453 1029.48 208.822 1028.08 211.863C1026.95 214.295 1028.35 217.182 1030.57 218.601C1034.11 220.845 1038.72 220.327 1042.21 218.305C1044.12 217.15 1045.75 215.646 1047.02 213.882C1048.29 212.118 1049.17 210.131 1049.6 208.039C1050.36 204.34 1049.9 199.75 1046.93 196.98C1046.57 196.71 1046.1 196.587 1045.63 196.638C1045.17 196.69 1044.74 196.912 1044.45 197.256C1044.17 197.606 1044.04 198.045 1044.1 198.481C1044.15 198.917 1044.38 199.316 1044.74 199.596C1044.47 199.349 1044.87 199.745 1044.89 199.765C1044.96 199.854 1045.03 199.947 1045.1 200.04C1045.23 200.209 1045.35 200.391 1045.44 200.583C1045.73 201.168 1045.95 201.781 1046.09 202.411C1046.38 203.749 1046.44 205.123 1046.28 206.48C1045.9 209.44 1044.41 212.177 1042.08 214.197C1039.88 216.082 1036.88 217.358 1033.93 216.477C1033.33 216.322 1032.78 216.045 1032.31 215.666C1032.22 215.596 1032.14 215.522 1032.05 215.445C1032.32 215.69 1031.96 215.346 1031.93 215.312C1031.87 215.237 1031.81 215.16 1031.75 215.082C1031.69 215.004 1031.38 214.488 1031.61 214.913C1031.45 214.627 1031.39 214.262 1031.22 213.992C1031.23 214.008 1031.27 214.382 1031.24 214.041C1031.21 213.869 1031.2 213.693 1031.22 213.52C1031.31 212.969 1031.19 213.574 1031.29 213.279C1031.3 213.238 1031.48 212.887 1031.38 213.065C1031.46 212.936 1031.56 212.813 1031.66 212.695C1031.71 212.643 1031.98 212.365 1031.77 212.557C1032.21 212.184 1032.7 211.872 1033.22 211.631C1034.29 211.093 1035.48 210.836 1036.69 210.887C1036.44 210.878 1036.82 210.902 1036.88 210.909C1037.03 210.926 1037.19 210.938 1037.34 210.959C1037.65 210.999 1037.95 211.055 1038.25 211.128C1038.05 211.076 1038.34 211.155 1038.36 211.16C1038.54 211.215 1038.72 211.277 1038.9 211.343C1039.23 211.468 1039.56 211.608 1039.87 211.764C1041.01 212.347 1041.99 213.174 1042.73 214.177C1044.32 216.461 1044.29 219.665 1043.67 222.197C1043.6 222.503 1043.55 222.655 1043.5 222.811C1043.41 223.085 1043.3 223.355 1043.19 223.623C1042.97 224.143 1042.72 224.649 1042.43 225.139C1042.15 225.608 1042.61 224.882 1042.31 225.333C1042.25 225.425 1042.18 225.517 1042.12 225.607C1041.96 225.832 1041.8 226.052 1041.62 226.269C1041.25 226.737 1040.84 227.183 1040.4 227.604C1040.32 227.68 1040.24 227.755 1040.16 227.83C1040.43 227.586 1040.01 227.962 1039.95 228.007C1039.72 228.2 1039.49 228.387 1039.25 228.569C1038.73 228.961 1038.19 229.327 1037.62 229.664C1037.37 229.817 1037.11 229.961 1036.85 230.107C1036.78 230.149 1036.46 230.316 1036.77 230.156C1036.62 230.229 1036.48 230.3 1036.34 230.37C1035.77 230.645 1035.18 230.897 1034.59 231.128C1033.54 231.527 1032.47 231.861 1031.37 232.127C1031.27 232.151 1030.95 232.217 1031.34 232.137C1031.2 232.165 1031.07 232.194 1030.93 232.221C1030.67 232.273 1030.41 232.321 1030.15 232.364C1029.66 232.444 1029.17 232.507 1028.68 232.552C1026.41 232.763 1026.79 236.076 1029.05 235.865L1029.05 235.863Z" fill="#FFBC78"/>
<path d="M988.516 37.4796L982.905 40.8771L991.449 53.3904L997.06 49.9929L988.516 37.4796Z" fill="#FFBC78"/>
<path d="M1135.63 174.473L1125.98 188.192L1131.54 191.66L1141.19 177.941L1135.63 174.473Z" fill="#FFBC78"/>
<path d="M786.995 77.6865L778.539 89.877L784.123 93.3121L792.579 81.1216L786.995 77.6865Z" fill="#FFBC78"/>
<path d="M842.492 140.182L830.022 154.085L835.118 158.138L847.588 144.235L842.492 140.182Z" fill="#FFBC78"/>
<path d="M1110.06 132.724C1104.91 132.267 1100.06 130.207 1096.29 126.867C1094.13 124.878 1092.62 122.342 1091.95 119.565C1091.11 116.132 1091.44 112.057 1093.53 109.069C1094.51 107.736 1095.79 106.627 1097.28 105.826C1098.78 105.025 1100.44 104.553 1102.16 104.445C1105.44 104.314 1109.63 105.682 1111.03 108.724C1112.16 111.156 1110.76 114.043 1108.54 115.462C1105 117.707 1100.39 117.189 1096.9 115.166C1094.99 114.011 1093.36 112.507 1092.09 110.743C1090.82 108.979 1089.94 106.992 1089.51 104.901C1088.74 101.202 1089.21 96.6122 1092.17 93.8422C1092.54 93.5715 1093.01 93.4486 1093.48 93.5002C1093.94 93.5517 1094.37 93.7735 1094.66 94.1176C1094.94 94.4681 1095.07 94.9069 1095.01 95.3426C1094.96 95.7783 1094.73 96.1775 1094.37 96.4572C1094.63 96.2105 1094.24 96.6071 1094.22 96.6257C1094.15 96.7149 1094.08 96.8076 1094.01 96.9011C1093.88 97.0704 1093.76 97.2525 1093.67 97.4443C1093.38 98.0292 1093.16 98.642 1093.02 99.2719C1092.73 100.61 1092.67 101.983 1092.83 103.34C1093.21 106.301 1094.7 109.038 1097.03 111.058C1099.23 112.943 1102.23 114.218 1105.18 113.338C1105.77 113.181 1106.32 112.905 1106.79 112.527C1106.88 112.457 1106.97 112.383 1107.06 112.306C1106.79 112.551 1107.15 112.207 1107.18 112.172C1107.24 112.098 1107.3 112.021 1107.36 111.943C1107.42 111.865 1107.73 111.348 1107.5 111.774C1107.66 111.489 1107.72 111.123 1107.89 110.854C1107.88 110.869 1107.84 111.244 1107.87 110.903C1107.9 110.731 1107.91 110.555 1107.89 110.381C1107.8 109.831 1107.92 110.435 1107.82 110.14C1107.81 110.1 1107.63 109.749 1107.73 109.927C1107.65 109.798 1107.55 109.675 1107.45 109.557C1107.41 109.505 1107.13 109.226 1107.34 109.419C1106.9 109.046 1106.42 108.734 1105.89 108.492C1104.83 107.954 1103.63 107.697 1102.42 107.749C1102.67 107.74 1102.29 107.764 1102.23 107.77C1102.08 107.787 1101.92 107.799 1101.77 107.82C1101.46 107.862 1101.16 107.92 1100.86 107.994C1101.07 107.942 1100.77 108.02 1100.75 108.026C1100.57 108.081 1100.39 108.143 1100.21 108.209C1099.88 108.334 1099.56 108.475 1099.24 108.63C1098.1 109.214 1097.12 110.04 1096.38 111.043C1094.79 113.328 1094.82 116.532 1095.44 119.064C1095.51 119.37 1095.56 119.522 1095.61 119.678C1095.71 119.952 1095.81 120.222 1095.92 120.49C1096.14 121.01 1096.39 121.516 1096.68 122.006C1096.96 122.476 1096.5 121.753 1096.8 122.2C1096.86 122.293 1096.93 122.384 1096.99 122.475C1097.15 122.699 1097.31 122.92 1097.49 123.136C1097.86 123.605 1098.27 124.051 1098.71 124.472C1098.79 124.547 1098.87 124.622 1098.95 124.697C1098.68 124.454 1099.11 124.83 1099.16 124.875C1099.39 125.068 1099.62 125.255 1099.86 125.437C1100.38 125.829 1100.93 126.194 1101.49 126.532C1101.74 126.685 1102 126.828 1102.26 126.974C1102.34 127.017 1102.65 127.183 1102.34 127.023C1102.49 127.097 1102.63 127.167 1102.78 127.237C1103.35 127.513 1103.93 127.764 1104.52 127.995C1105.57 128.395 1106.65 128.728 1107.74 128.994C1107.84 129.019 1108.16 129.085 1107.77 129.003C1107.91 129.032 1108.04 129.062 1108.18 129.088C1108.44 129.14 1108.7 129.187 1108.96 129.231C1109.45 129.31 1109.94 129.373 1110.43 129.419C1112.7 129.63 1112.33 132.943 1110.06 132.732L1110.06 132.724Z" fill="#FFBC78"/>
<path d="M956.729 193.76L951.168 197.228L960.818 210.948L966.379 207.479L956.729 193.76Z" fill="#FFBC78"/>
<path d="M944.873 240.747L932.821 252.397L937.6 256.781L949.651 245.13L944.873 240.747Z" fill="#FFBC78"/>
<path opacity="0.4" d="M1055.38 476.39C1050.9 475.012 1046.31 476.563 1041.92 479.704C1047.71 465.951 1050.1 453.529 1040.21 452.969C1033.29 452.578 1027.99 457.575 1023.96 464.682C1022.55 452.188 1018.89 442.869 1010.71 445.959C1001.72 449.35 1000.36 460.975 1001.72 473.138C997.762 466.926 993.501 463.461 989.631 467.105C978.082 477.98 1006.43 508.626 1006.43 508.626H1013.47L1017.49 512.733C1016.67 514.353 1016.23 515.317 1016.23 515.317L1021.33 525.097C1021.33 525.097 1073.94 482.111 1055.38 476.39Z" fill="#F0F0F0"/>
<path d="M1042.75 547H1002.91L996.241 503.199H1049.42L1042.75 547Z" fill="#C1D8ED"/>
<path d="M928.539 71.3253L918.604 67.8647C918.604 67.8647 917.352 55.0159 928.81 48.2219C932.606 45.9706 935.377 49.9728 934.681 51.2799C932.383 55.6004 929.656 59.5765 929.71 63.7286C931.178 62.4375 933.296 60.7859 933.92 61.3881C935.563 62.9723 928.539 71.3253 928.539 71.3253Z" fill="#BB6751"/>
<path d="M1075.67 365.029L1071.95 347.693C1071.89 347.704 1071.82 347.717 1071.74 347.738C1073.08 347.417 1081.21 344.958 1087.96 342.867L1093.83 359.667C1077.91 364.605 1076.22 364.924 1075.67 365.029Z" fill="#BB6751"/>
<path d="M1106.36 379.541C1106.48 380.003 1106.49 380.484 1106.41 380.952C1106.32 381.421 1106.13 381.867 1105.85 382.264C1105.57 382.66 1105.21 382.998 1104.79 383.257C1104.36 383.515 1103.89 383.689 1103.39 383.766C1102.7 383.874 1101.99 383.793 1101.34 383.534C1100.7 383.275 1100.15 382.849 1099.75 382.304L1087.41 363.967C1087.17 363.611 1087.02 363.211 1086.96 362.795C1086.9 362.378 1086.94 361.955 1087.07 361.553C1088.38 358.336 1088.56 354.809 1087.57 351.491C1086.7 348.933 1085.07 346.658 1082.89 344.927C1082.68 344.779 1082.52 344.578 1082.42 344.347C1082.33 344.116 1082.31 343.865 1082.36 343.623C1082.41 343.381 1082.54 343.158 1082.72 342.98C1082.9 342.802 1083.13 342.677 1083.39 342.619L1093.76 340.209C1094.07 340.138 1094.39 340.125 1094.7 340.17C1095.01 340.215 1095.31 340.317 1095.58 340.471C1095.85 340.625 1096.09 340.828 1096.27 341.068C1096.46 341.308 1096.59 341.58 1096.67 341.868L1106.36 379.541Z" fill="#C1D8ED"/>
<path d="M937.268 486.265C930.617 471.769 930.128 470.223 929.967 469.715L947.968 464.666C947.952 464.615 947.93 464.549 947.901 464.47C948.361 465.707 951.689 473.105 954.509 479.251L937.268 486.265Z" fill="#BB6751"/>
<path d="M917.37 499.795C916.891 499.948 916.384 500.007 915.881 499.967C915.377 499.928 914.887 499.79 914.442 499.564C913.997 499.338 913.607 499.028 913.295 498.654C912.983 498.279 912.757 497.848 912.63 497.387C912.455 496.749 912.476 496.077 912.693 495.45C912.909 494.824 913.311 494.268 913.852 493.85L932.139 480.627C932.494 480.372 932.903 480.193 933.338 480.101C933.773 480.009 934.224 480.006 934.661 480.094C938.181 481.03 941.927 480.878 945.349 479.659C947.975 478.606 950.235 476.88 951.87 474.676C952.007 474.466 952.206 474.297 952.442 474.188C952.678 474.08 952.941 474.038 953.202 474.065C953.463 474.093 953.71 474.19 953.914 474.345C954.119 474.499 954.272 474.706 954.357 474.94L957.836 484.457C957.939 484.737 957.981 485.034 957.962 485.331C957.942 485.627 957.86 485.917 957.722 486.184C957.583 486.451 957.389 486.689 957.153 486.885C956.916 487.081 956.64 487.231 956.342 487.327L917.37 499.795Z" fill="#C1D8ED"/>
<path d="M897.536 373.398C898.458 354.224 917.31 266.983 919.307 257.574L986.954 260.458C986.954 260.458 1009.38 342.589 1010.29 344.878L1075.3 340.54L1081.96 371.063L1001.57 383.83C997.288 384.818 992.774 384.358 988.815 382.532C984.856 380.705 981.704 377.628 979.909 373.836C979.909 373.836 954.348 303.074 953.832 301.769L932.795 367.422L956.543 468.328L924.944 477.584C924.944 477.584 897.164 381.152 897.536 373.398Z" fill="#262626"/>
<path d="M1049.07 96.7523L1059.64 97.3663C1059.64 97.3663 1065.19 84.5218 1057.62 73.9487C1055.12 70.4443 1050.86 73.0518 1050.94 74.5122C1051.19 79.3389 1053.09 85.5796 1051.26 89.3578C1050.47 87.6178 1049.24 85.3009 1048.41 85.6142C1046.23 86.4387 1049.07 96.7523 1049.07 96.7523Z" fill="#BB6751"/>
<path d="M986.866 167.382C985.363 171.93 975.498 178.449 964.793 176.007C956.752 174.171 955.358 167.037 955.965 162.43C962.199 163.357 976.168 165.622 986.838 167.374C986.843 167.373 986.848 167.374 986.853 167.375C986.858 167.377 986.862 167.379 986.866 167.382Z" fill="#BB6751"/>
<path d="M932.937 176.316L906.167 128.496C905.19 126.75 904.836 124.754 905.159 122.804L914.804 64.3552L934.073 67.1749L924.923 122.622L950.188 167.752L932.937 176.316Z" fill="#97D4EA"/>
<path d="M993.716 264.514C990.148 278.411 918.214 263.209 915.996 254.618C913.706 245.758 922.372 241.952 927.006 214.959C930.977 191.899 923.919 158.455 953.361 162.06C953.916 162.127 954.81 162.253 955.964 162.43C955.357 167.037 985.362 171.93 986.865 167.383C995.343 168.772 1001.85 172.368 1005.17 176.807C1016.64 192.152 995.486 211.632 992.266 229.057C989.046 246.483 995.984 255.671 993.716 264.514Z" fill="#97D4EA"/>
<path d="M1004.83 188.126L992.943 173.567L1036.42 142.094L1046.7 91.3L1065.86 94.7379L1054.88 148.964C1054.43 151.174 1053.14 153.152 1051.25 154.523L1004.83 188.126Z" fill="#97D4EA"/>
<path d="M984.108 169.954C984.108 169.954 977.589 165.874 980.989 148.371L967.033 144.557C967.033 144.557 966.959 160.528 959.236 164.878L984.108 169.954Z" fill="#BB6751"/>
<g opacity="0.15">
<path d="M962.498 161.843L975.209 154.439L965.942 153.48C965.357 156.446 964.19 159.282 962.498 161.843Z" fill="black"/>
</g>
<path d="M989.779 142.284C988.229 147.545 984.591 152.325 979.393 153.585C973.711 155.116 967.717 155.315 961.934 154.164C946.496 151.504 953.094 118.464 961.167 112.682C969.241 106.899 990.496 113.031 991.99 124.106C992.764 129.833 991.253 137.275 989.779 142.284Z" fill="#BB6751"/>
<path d="M950.606 108.569C951.074 104.142 957.69 97.4371 972.241 108.9L972.256 108.911C976.322 109.184 980.33 109.98 984.166 111.279C986.904 112.309 989.403 113.831 991.524 115.759C995.519 119.484 998.108 125.241 995.706 133.878C991.533 148.887 984.471 152.336 980.931 153.893C980.028 154.289 979.863 153.882 979.662 152.966C979.082 149.587 978.773 146.172 978.737 142.75C978.601 139.178 975.478 136.629 976.329 132.452C976.627 130.991 979.716 125.826 971.925 125.04C967.542 124.596 969.164 124.914 964.483 124.475C963.816 124.413 963.231 124.329 962.694 124.234H962.688C946.526 122.716 950.139 112.997 950.606 108.569Z" fill="#0F1011"/>
<path d="M974.471 138.46C974.224 139.804 974.551 141.184 975.38 142.302C976.208 143.42 977.472 144.185 978.896 144.43C980.321 144.676 981.79 144.382 982.985 143.612C984.18 142.843 985.005 141.66 985.279 140.321C985.422 139.652 985.42 138.963 985.273 138.294C985.127 137.625 984.839 136.991 984.427 136.43C984.015 135.868 983.487 135.39 982.875 135.024C982.263 134.659 981.579 134.413 980.864 134.301C976.98 133.817 975.017 135.65 974.471 138.46Z" fill="#BB6751"/>
<path d="M978.597 122.354L982.475 124.122C982.475 124.122 979.048 142.927 977.378 147.999C975.707 153.071 972.197 156.146 968.594 156.1C963.063 156.029 959.084 155.693 955.204 153.962C950.828 152.01 952.675 140.602 952.675 140.602C952.675 140.602 967.117 143.459 971.35 142.009C975.583 140.56 978.597 122.354 978.597 122.354Z" fill="#0F1011"/>
<path d="M968.076 136.081C968.792 136.081 969.372 135.534 969.372 134.86C969.372 134.187 968.792 133.64 968.076 133.64C967.361 133.64 966.78 134.187 966.78 134.86C966.78 135.534 967.361 136.081 968.076 136.081Z" fill="#0F1011"/>
<path d="M957.986 134.343C958.702 134.343 959.282 133.796 959.282 133.122C959.282 132.448 958.702 131.902 957.986 131.902C957.27 131.902 956.69 132.448 956.69 133.122C956.69 133.796 957.27 134.343 957.986 134.343Z" fill="#0F1011"/>
<path d="M959.506 130.607C959.488 130.608 959.471 130.608 959.453 130.607L956.033 130.329C955.953 130.322 955.876 130.301 955.805 130.266C955.734 130.232 955.671 130.184 955.619 130.126C955.568 130.069 955.529 130.002 955.505 129.93C955.48 129.859 955.472 129.783 955.478 129.708C955.485 129.633 955.508 129.56 955.545 129.493C955.582 129.426 955.632 129.367 955.693 129.318C955.754 129.27 955.825 129.233 955.901 129.21C955.978 129.188 956.058 129.179 956.138 129.186L959.558 129.465C959.713 129.479 959.857 129.549 959.96 129.659C960.062 129.77 960.116 129.914 960.109 130.061C960.103 130.208 960.036 130.347 959.924 130.449C959.812 130.551 959.662 130.609 959.506 130.61V130.607Z" fill="#0F1011"/>
<path d="M971.152 132.923C971.084 132.923 971.016 132.912 970.952 132.891L967.664 131.813C967.514 131.761 967.392 131.655 967.324 131.519C967.255 131.383 967.246 131.228 967.299 131.086C967.352 130.943 967.461 130.827 967.604 130.76C967.748 130.693 967.913 130.682 968.065 130.729L971.352 131.807C971.488 131.853 971.602 131.941 971.675 132.058C971.748 132.174 971.774 132.311 971.75 132.445C971.726 132.578 971.653 132.699 971.544 132.787C971.434 132.874 971.296 132.923 971.152 132.923Z" fill="#0F1011"/>
<g opacity="0.15">
<path d="M961.641 141.059C961.747 141.069 961.853 141.042 961.941 140.984C962.028 140.926 962.09 140.841 962.117 140.744C962.143 140.646 962.131 140.543 962.084 140.453C962.036 140.363 961.956 140.292 961.858 140.252L959.315 139.248L961.556 135.572C961.586 135.524 961.605 135.471 961.613 135.416C961.62 135.362 961.616 135.306 961.601 135.252C961.586 135.199 961.56 135.149 961.524 135.105C961.488 135.061 961.443 135.024 961.392 134.997C961.341 134.969 961.285 134.951 961.227 134.944C961.169 134.937 961.11 134.94 961.053 134.955C960.996 134.969 960.943 134.994 960.896 135.027C960.85 135.061 960.81 135.103 960.781 135.151L958.288 139.24C958.256 139.292 958.237 139.349 958.23 139.409C958.224 139.468 958.231 139.528 958.252 139.585C958.272 139.641 958.305 139.693 958.348 139.737C958.391 139.78 958.444 139.815 958.502 139.838L961.512 141.026C961.553 141.044 961.596 141.055 961.641 141.059Z" fill="black"/>
</g>
<path d="M966.47 144.368C966.47 144.368 961.66 144.395 958.44 142.984C958.44 142.984 958.154 145.94 961.89 146.583C965.626 147.227 966.47 144.368 966.47 144.368Z" fill="white"/>
<path d="M214.298 110.778L223.798 106.374C223.798 106.374 223.641 93.4722 211.504 87.8227C207.479 85.9505 205.162 90.2003 205.996 91.4333C208.754 95.5079 211.899 99.1993 212.3 103.334C210.699 102.192 208.412 100.754 207.857 101.413C206.399 103.148 214.298 110.778 214.298 110.778Z" fill="#EBCAC2"/>
<path d="M56.6679 375.187C56.1223 375.058 54.4615 374.668 38.7889 369.058L45.4616 352.526C52.1076 354.904 60.1067 357.705 61.4375 358.084C61.3481 358.06 61.2819 358.043 61.2273 358.031L56.6679 375.187Z" fill="#EBCAC2"/>
<path d="M25.3208 388.378C25.1801 388.835 25.1409 389.314 25.2057 389.785C25.2704 390.257 25.4378 390.711 25.6973 391.119C25.9568 391.527 26.3029 391.881 26.7139 392.157C27.1249 392.434 27.5921 392.627 28.0862 392.726C28.7711 392.863 29.4833 392.813 30.139 392.581C30.7947 392.35 31.3664 391.947 31.787 391.42L44.9957 373.626C45.25 373.281 45.4221 372.889 45.5002 372.475C45.5783 372.062 45.5606 371.637 45.4482 371.23C44.2987 367.96 44.2937 364.429 45.4339 361.156C46.434 358.638 48.1654 356.436 50.4307 354.8C50.6478 354.661 50.8185 354.467 50.9228 354.24C51.0271 354.013 51.0608 353.763 51.0198 353.519C50.9788 353.275 50.8649 353.046 50.6914 352.861C50.5179 352.675 50.2919 352.54 50.0399 352.471L39.787 349.623C39.4845 349.539 39.1675 349.512 38.854 349.544C38.5405 349.575 38.2367 349.665 37.9601 349.807C37.6835 349.95 37.4395 350.142 37.2421 350.374C37.0446 350.605 36.8977 350.871 36.8097 351.156L25.3208 388.378Z" fill="#C1D8ED"/>
<path d="M133.468 430.761L130.271 413.333C137.276 412.194 145.673 410.77 147.024 410.456C146.934 410.476 146.868 410.497 146.812 410.511L152.173 427.462C151.632 427.614 149.99 428.074 133.468 430.761Z" fill="#EBCAC2"/>
<path d="M132.324 453.848C132.45 454.308 132.675 454.739 132.986 455.114C133.297 455.489 133.686 455.8 134.13 456.026C134.575 456.253 135.063 456.391 135.567 456.432C136.07 456.472 136.576 456.415 137.055 456.263C137.719 456.053 138.304 455.668 138.743 455.155C139.182 454.641 139.457 454.02 139.533 453.365L141.279 431.72C141.311 431.301 141.247 430.881 141.091 430.487C140.935 430.094 140.69 429.737 140.373 429.441C137.615 427.178 135.702 424.142 134.913 420.778C134.412 418.132 134.71 415.406 135.775 412.911C135.887 412.688 135.928 412.439 135.895 412.194C135.862 411.949 135.756 411.717 135.589 411.527C135.421 411.337 135.2 411.195 134.951 411.119C134.701 411.042 134.434 411.034 134.18 411.095L123.816 413.561C123.51 413.633 123.223 413.762 122.97 413.94C122.717 414.117 122.504 414.34 122.343 414.595C122.182 414.85 122.076 415.133 122.032 415.427C121.987 415.721 122.004 416.02 122.083 416.308L132.324 453.848Z" fill="#C1D8ED"/>
<path d="M235.12 398.717L235.031 398.006C232.679 379.602 219.584 289.885 218.038 280.401H150.323C150.323 280.401 123.975 361.493 122.956 363.74L58.2259 350.744L50.1007 380.947L129.801 403.02C134.031 404.19 138.563 403.924 142.605 402.267C146.648 400.611 149.944 397.671 151.919 393.959C151.919 393.959 180.852 324.358 181.433 323.077L199.292 389.558L138.868 405.754L147.926 435.726L223.239 415.54C227.02 414.524 230.293 412.273 232.471 409.19C234.648 406.107 235.587 402.394 235.12 398.717Z" fill="#262626"/>
<path d="M89.0078 126.073L78.8765 128.982C78.8765 128.982 70.3139 117.703 75.0656 105.763C76.6406 101.805 81.4156 103.413 81.7053 104.851C82.6525 109.6 82.3448 116.085 85.0574 119.359C85.3963 117.495 86.0197 114.972 86.9042 115.096C89.2295 115.42 89.0078 126.073 89.0078 126.073Z" fill="#EBCAC2"/>
<path d="M178.305 197.055C167.484 199.034 157.941 192.095 156.662 187.496C156.67 187.488 156.689 187.488 156.698 187.488C167.439 186.191 181.507 184.523 187.777 183.866C188.171 188.49 186.418 195.565 178.305 197.055Z" fill="#EBCAC2"/>
<path d="M209.085 200.07L194.317 188.077L228.09 151.203L208.796 108.44L226.744 101.26L248.407 149.282C249.119 150.86 249.347 152.595 249.066 154.29C248.785 155.984 248.005 157.57 246.816 158.869L209.085 200.07Z" fill="#07648D"/>
<path d="M223.274 277.663C220.645 286.152 148.059 298.272 145.161 284.232C143.328 275.305 150.689 266.428 148.309 248.876C145.929 231.325 125.736 210.969 137.926 196.129C141.459 191.834 148.131 188.524 156.663 187.496C157.941 192.095 188.171 188.49 187.777 183.866C188.94 183.74 189.834 183.656 190.389 183.614C219.983 181.264 211.326 214.371 214.179 237.574C217.515 264.735 225.983 268.912 223.274 277.663Z" fill="#07648D"/>
<path d="M139.138 213.562L85.0422 186.051C83.6809 185.359 82.5141 184.371 81.6382 183.171C80.7624 181.97 80.2026 180.59 80.0052 179.145L72.5391 124.545L91.8804 122.2L98.7079 172.13L148.404 197.404L139.138 213.562Z" fill="#07648D"/>
<path d="M159.127 190.594C159.127 190.594 165.815 186.764 163.166 169.146L177.273 165.862C177.273 165.862 176.664 181.823 184.195 186.462L159.127 190.594Z" fill="#EBCAC2"/>
<g opacity="0.15">
<path d="M181.065 183.308L168.681 175.429L177.982 174.822C178.44 177.807 179.485 180.685 181.065 183.308Z" fill="black"/>
</g>
<path d="M154.643 162.731C155.966 168.047 159.397 172.961 164.537 174.417C170.149 176.162 176.13 176.588 181.957 175.656C197.496 173.585 192.315 140.321 184.496 134.238C176.677 128.154 155.176 133.474 153.209 144.484C152.192 150.182 153.383 157.67 154.643 162.731Z" fill="#EBCAC2"/>
<path d="M189.723 135.107C189.213 134.436 188.525 133.904 187.727 133.564C180.572 130.398 167.644 129.883 161.581 131.964C154.547 134.378 145.922 140.53 149.083 154.108C149.216 154.68 149.351 155.23 149.498 155.769C147.214 155.532 144.905 155.891 142.823 156.808C140.741 157.724 138.967 159.162 137.696 160.964C136.424 162.767 135.704 164.864 135.614 167.026C135.523 169.188 136.067 171.332 137.184 173.223C138.302 175.114 139.95 176.679 141.949 177.746C143.948 178.813 146.22 179.342 148.517 179.274C150.814 179.206 153.047 178.545 154.971 177.362C156.895 176.178 158.436 174.519 159.425 172.566C160.542 173.371 161.738 174.074 162.996 174.666C163.88 175.096 164.063 174.696 164.303 173.786C165.143 170.609 165.387 158.213 164.016 149.297L180.808 147.816L183.247 139.799L186.142 147.52L191.873 147.202C192.36 142.904 192.853 138.035 189.723 135.107Z" fill="#0F1011"/>
<path d="M176.644 157.356C177.36 157.356 177.94 156.81 177.94 156.136C177.94 155.462 177.36 154.915 176.644 154.915C175.929 154.915 175.349 155.462 175.349 156.136C175.349 156.81 175.929 157.356 176.644 157.356Z" fill="#0F1011"/>
<path d="M186.801 156.002C187.516 156.002 188.097 155.456 188.097 154.782C188.097 154.108 187.516 153.561 186.801 153.561C186.085 153.561 185.505 154.108 185.505 154.782C185.505 155.456 186.085 156.002 186.801 156.002Z" fill="#0F1011"/>
<path d="M185.414 152.212C185.255 152.211 185.104 152.151 184.991 152.047C184.879 151.942 184.814 151.8 184.81 151.651C184.807 151.502 184.865 151.358 184.973 151.248C185.08 151.139 185.229 151.074 185.387 151.066L188.817 150.916C188.978 150.909 189.136 150.963 189.255 151.065C189.374 151.168 189.446 151.311 189.453 151.463C189.46 151.615 189.403 151.763 189.294 151.876C189.185 151.988 189.033 152.055 188.872 152.062L185.442 152.211L185.414 152.212Z" fill="#0F1011"/>
<path d="M173.679 154.084C173.533 154.084 173.392 154.035 173.281 153.945C173.171 153.856 173.098 153.732 173.076 153.596C173.055 153.46 173.086 153.321 173.163 153.205C173.241 153.089 173.36 153.003 173.5 152.962L176.83 152.009C176.982 151.973 177.142 151.993 177.278 152.065C177.414 152.138 177.515 152.256 177.561 152.396C177.607 152.537 177.594 152.689 177.525 152.82C177.455 152.952 177.335 153.053 177.188 153.104L173.857 154.057C173.799 154.074 173.739 154.084 173.679 154.084Z" fill="#0F1011"/>
<path d="M170.101 159.49C170.211 160.167 170.177 160.857 170.002 161.52C169.826 162.184 169.513 162.809 169.079 163.358C168.646 163.907 168.101 164.369 167.476 164.719C166.852 165.068 166.16 165.297 165.44 165.393C164.721 165.489 163.989 165.45 163.286 165.277C162.583 165.105 161.923 164.803 161.345 164.389C160.766 163.975 160.281 163.457 159.917 162.865C159.552 162.273 159.317 161.619 159.222 160.941C159.109 160.266 159.14 159.577 159.315 158.915C159.49 158.252 159.804 157.63 160.24 157.084C160.676 156.538 161.223 156.081 161.851 155.739C162.478 155.397 163.172 155.177 163.892 155.093C167.793 154.756 169.676 156.661 170.101 159.49Z" fill="#EBCAC2"/>
<g opacity="0.15">
<path d="M182.81 162.574C182.703 162.581 182.597 162.551 182.511 162.49C182.426 162.428 182.367 162.34 182.344 162.241C182.322 162.143 182.338 162.039 182.39 161.951C182.442 161.862 182.526 161.794 182.627 161.759L185.211 160.853L183.128 157.095C183.074 156.996 183.063 156.88 183.098 156.774C183.134 156.667 183.213 156.578 183.318 156.527C183.423 156.475 183.546 156.465 183.659 156.498C183.772 156.532 183.867 156.606 183.922 156.705L186.238 160.886C186.268 160.939 186.285 160.997 186.288 161.057C186.292 161.116 186.282 161.176 186.259 161.232C186.236 161.288 186.201 161.338 186.156 161.38C186.111 161.422 186.057 161.455 185.998 161.475L182.94 162.548C182.898 162.563 182.855 162.572 182.81 162.574Z" fill="black"/>
</g>
<path d="M177.843 165.697C177.843 165.697 182.648 165.906 185.926 164.619C185.926 164.619 186.085 167.582 182.325 168.084C178.564 168.586 177.843 165.697 177.843 165.697Z" fill="white"/>
</g>
<defs>
<clipPath id="clip0_433_681">
<rect width="1142" height="547" fill="white"/>
</clipPath>
</defs>
</svg>
