<svg width="324" height="174" viewBox="0 0 324 174" fill="none" xmlns="http://www.w3.org/2000/svg">
<g clip-path="url(#clip0_433_2814)">
<path d="M29.7152 172.065C24.0665 172.138 18.4126 171.675 11.9888 167.335C10.671 166.447 9.30095 165.205 9.34863 163.616C9.38432 162.419 10.2725 161.373 11.3442 160.833C11.7447 160.636 12.167 160.486 12.6023 160.387C12.6045 160.387 12.607 160.387 12.607 160.384C13.2792 160.241 13.9631 160.159 14.6503 160.14L14.8461 160.133C18.117 160.013 21.3876 160.376 24.5522 161.21C24.8388 161.284 25.1422 161.26 25.4131 161.14C25.6839 161.021 25.9063 160.813 26.0439 160.551C26.1814 160.29 26.2262 159.989 26.1708 159.699C26.1154 159.408 25.9631 159.145 25.7387 158.952C25.33 158.603 24.8869 158.297 24.416 158.037C23.7254 157.666 23.0013 157.359 22.2534 157.122C21.2558 156.796 20.2243 156.551 19.2076 156.286C15.4286 155.308 11.7341 154.029 8.15971 152.462C5.60807 151.342 3.0379 150.015 1.29212 147.844C0.490342 146.846 -0.132994 145.597 0.0244748 144.327C0.287104 142.24 2.53335 140.953 4.62675 140.691C8.29593 140.233 11.8766 141.868 15.1428 143.596C17.8525 145.033 20.8793 146.614 23.8368 145.8C24.3489 145.685 24.8162 145.424 25.1808 145.047C25.8493 144.275 25.6845 143.041 25.0879 142.211C24.4912 141.382 23.5647 140.865 22.6719 140.369C17.4847 137.493 12.3048 134.431 8.16544 130.189C4.02603 125.948 0.980729 120.343 0.976914 114.42C0.976914 112.687 1.24663 110.914 2.0702 109.389C2.89378 107.863 4.33552 106.608 6.04479 106.296C8.37222 105.866 10.664 107.203 12.4255 108.779C18.4769 114.184 20.8904 122.424 24.4648 129.701C25.4652 131.738 26.6228 133.785 28.4683 135.132C28.6407 135.263 28.8393 135.355 29.0507 135.404C30.2966 135.67 30.8409 134.143 30.8981 132.978C31.1202 128.369 29.9838 123.549 31.6645 119.25C32.3066 117.613 33.4596 116.045 35.1378 115.514C37.1884 114.865 39.4943 116.005 40.726 117.766C41.9577 119.526 42.2895 121.763 42.2789 123.912C42.2598 127.894 41.181 131.813 39.5959 135.466C38.7604 137.394 37.7578 139.393 37.9965 141.478C38.091 142.183 38.3643 142.851 38.7905 143.421C39.2166 143.99 39.7814 144.441 40.4312 144.731C40.7326 144.859 41.0567 144.926 41.3843 144.926C41.7119 144.927 42.0363 144.862 42.3383 144.736C42.99 144.457 43.4866 143.92 43.9642 143.397C44.1644 143.177 44.3649 142.956 44.5679 142.737C45.3652 141.864 46.1626 140.992 46.9599 140.118C48.9866 137.897 51.5194 135.478 54.5064 135.86C56.0321 136.055 57.2945 137.002 58.1587 138.276C58.9373 139.434 59.3763 140.787 59.4264 142.181C59.5171 145.086 57.0537 154.048 55.6667 156.602C54.0476 159.585 49.0421 171.813 29.7152 172.065Z" fill="#97D4EA"/>
<path d="M294.286 172.065C299.935 172.138 305.589 171.675 312.012 167.335C313.33 166.447 314.7 165.205 314.653 163.616C314.617 162.419 313.729 161.373 312.657 160.833C312.257 160.636 311.834 160.486 311.399 160.387C311.397 160.387 311.394 160.387 311.394 160.384C310.722 160.241 310.038 160.159 309.351 160.14L309.155 160.133C305.884 160.013 302.614 160.376 299.449 161.21C299.163 161.284 298.859 161.26 298.588 161.14C298.318 161.021 298.095 160.813 297.958 160.551C297.82 160.289 297.775 159.989 297.831 159.699C297.886 159.408 298.039 159.145 298.263 158.952C298.671 158.603 299.114 158.297 299.585 158.037C300.276 157.666 301 157.359 301.748 157.122C302.746 156.796 303.777 156.551 304.794 156.286C308.573 155.308 312.267 154.03 315.842 152.464C318.393 151.344 320.963 150.016 322.709 147.846C323.511 146.847 324.134 145.599 323.977 144.329C323.714 142.241 321.468 140.954 319.374 140.692C315.705 140.235 312.125 141.87 308.858 143.597C306.149 145.034 303.122 146.616 300.164 145.801C299.652 145.687 299.185 145.425 298.821 145.048C298.152 144.276 298.317 143.042 298.914 142.212C299.511 141.383 300.437 140.866 301.329 140.371C306.517 137.494 311.697 134.432 315.836 130.191C319.975 125.949 323.019 120.345 323.024 114.421C323.024 112.689 322.754 110.916 321.93 109.39C321.107 107.864 319.665 106.609 317.956 106.297C315.628 105.868 313.337 107.205 311.575 108.78C305.524 114.184 303.11 122.424 299.537 129.702C298.536 131.739 297.379 133.786 295.533 135.132C295.361 135.263 295.162 135.356 294.951 135.404C293.705 135.671 293.161 134.144 293.103 132.978C292.881 128.37 294.018 123.549 292.337 119.251C291.695 117.614 290.542 116.045 288.864 115.514C286.813 114.866 284.507 116.005 283.276 117.766C282.044 119.527 281.712 121.764 281.723 123.912C281.742 127.894 282.821 131.814 284.406 135.467C285.241 137.395 286.244 139.394 286.005 141.479C285.91 142.183 285.637 142.852 285.211 143.421C284.785 143.99 284.22 144.441 283.57 144.732C283.269 144.86 282.945 144.926 282.617 144.927C282.29 144.928 281.965 144.863 281.663 144.736C281.012 144.457 280.515 143.92 280.038 143.397C279.837 143.178 279.637 142.956 279.434 142.737C278.636 141.865 277.839 140.992 277.042 140.118C275.015 137.897 272.482 135.479 269.495 135.86C267.969 136.055 266.707 137.002 265.843 138.276C265.064 139.435 264.625 140.787 264.575 142.182C264.485 145.086 266.948 154.048 268.335 156.603C269.952 159.585 274.958 171.813 294.286 172.065Z" fill="#97D4EA"/>
<path d="M289.074 162.507H34.9258C31.7465 162.507 29.1692 165.08 29.1692 168.253V168.254C29.1692 171.427 31.7465 174 34.9258 174H289.074C292.253 174 294.831 171.427 294.831 168.254V168.253C294.831 165.08 292.253 162.507 289.074 162.507Z" fill="#C1D8ED"/>
<path d="M268.494 0H54.6531C49.9704 0 46.1743 3.78934 46.1743 8.46373V155.911C46.1743 160.585 49.9704 164.374 54.6531 164.374H268.494C273.176 164.374 276.972 160.585 276.972 155.911V8.46373C276.972 3.78934 273.176 0 268.494 0Z" fill="#C1D8ED"/>
<path d="M267.967 5.77221H55.1796C53.1093 5.77221 51.4309 7.44759 51.4309 9.51428V154.677C51.4309 156.744 53.1093 158.42 55.1796 158.42H267.967C270.037 158.42 271.715 156.744 271.715 154.677V9.51428C271.715 7.44759 270.037 5.77221 267.967 5.77221Z" fill="#C1D8ED"/>
<path d="M264.096 13.871H58.2715V151.309H264.096V13.871Z" fill="white"/>
<path d="M264.096 13.871H58.2715V25.1924H264.096V13.871Z" fill="#DEE8F5"/>
<path d="M257.728 22.3725C259.3 22.3725 260.574 21.1007 260.574 19.5319C260.574 17.9632 259.3 16.6914 257.728 16.6914C256.156 16.6914 254.882 17.9632 254.882 19.5319C254.882 21.1007 256.156 22.3725 257.728 22.3725Z" fill="white"/>
<path d="M115.383 35.2174H71.9094V38.0664H115.383V35.2174Z" fill="#C1D8ED"/>
<path d="M159.906 41.9512H71.9094V44.8002H159.906V41.9512Z" fill="#DEE8F5"/>
<path d="M218.711 41.9512H168.76V44.8002H218.711V41.9512Z" fill="#DEE8F5"/>
<path d="M141.812 55.4189H71.9094V58.2679H141.812V55.4189Z" fill="#DEE8F5"/>
<path d="M218.711 55.4189H150.665V58.2679H218.711V55.4189Z" fill="#DEE8F5"/>
<path d="M180.034 48.6851H71.9094V51.534H180.034V48.6851Z" fill="#DEE8F5"/>
<path d="M240.972 48.6851H188.888V51.534H240.972V48.6851Z" fill="#C1D8ED"/>
<path d="M198.969 62.1527H71.9094V65.0017H198.969V62.1527Z" fill="#DEE8F5"/>
<path d="M249.793 62.1527H207.823V65.0017H249.793V62.1527Z" fill="#C1D8ED"/>
<path d="M115.383 113.556H71.9094V116.405H115.383V113.556Z" fill="#DEE8F5"/>
<path d="M159.906 120.29H71.9094V123.139H159.906V120.29Z" fill="#C1D8ED"/>
<path d="M218.711 120.29H168.76V123.139H218.711V120.29Z" fill="#C1D8ED"/>
<path d="M141.812 133.757H71.9094V136.606H141.812V133.757Z" fill="#C1D8ED"/>
<path d="M218.711 133.757H150.665V136.606H218.711V133.757Z" fill="#DEE8F5"/>
<path d="M180.034 127.024H71.9094V129.873H180.034V127.024Z" fill="#DEE8F5"/>
<path d="M240.972 127.024H188.888V129.873H240.972V127.024Z" fill="#C1D8ED"/>
<path d="M198.969 140.492H71.9094V143.341H198.969V140.492Z" fill="#DEE8F5"/>
<path d="M249.793 140.492H207.823V143.341H249.793V140.492Z" fill="#C1D8ED"/>
<path d="M121.545 78.2105H71.9094V81.0595H121.545V78.2105Z" fill="#DEE8F5"/>
<path d="M218.71 78.2105H130.399V81.0595H218.71V78.2105Z" fill="#DEE8F5"/>
<path d="M141.812 91.6781H71.9094V94.5271H141.812V91.6781Z" fill="#DEE8F5"/>
<path d="M182.168 91.6781H150.665V94.5271H182.168V91.6781Z" fill="#DEE8F5"/>
<path d="M198.969 84.9443H71.9094V87.7933H198.969V84.9443Z" fill="#C1D8ED"/>
<path d="M240.972 84.9443H207.823V87.7933H240.972V84.9443Z" fill="#C1D8ED"/>
<path d="M159.276 98.412H71.9094V101.261H159.276V98.412Z" fill="#C1D8ED"/>
<path d="M210.1 98.412H168.13V101.261H210.1V98.412Z" fill="#C1D8ED"/>
<path d="M121.545 105.186H71.9094V108.035H121.545V105.186Z" fill="#DEE8F5"/>
<path d="M218.71 105.186H130.399V108.035H218.71V105.186Z" fill="#C1D8ED"/>
<path d="M115.383 70.1816H71.9094V73.0306H115.383V70.1816Z" fill="#C1D8ED"/>
<path d="M133.471 38.0664H132.195V47.7049H133.471V38.0664Z" fill="#262626"/>
<path d="M135.009 38.7027V37.4297H130.657V38.7027H135.009Z" fill="#262626"/>
<path d="M135.009 48.0995V46.8265H130.657V48.0995H135.009Z" fill="#262626"/>
<path d="M104.764 55.6229H128.431V46.0088H104.764V55.6229Z" fill="#262626"/>
<path d="M110.714 50.9668L114.211 49.273V49.9358L111.437 51.2246V51.2392L114.211 52.5354V53.1908L110.714 51.4971V50.9668Z" fill="white" stroke="white" stroke-width="0.628" stroke-miterlimit="10"/>
<path d="M115.016 53.4853L116.816 48.1463H117.45L115.649 53.4853H115.016Z" fill="white" stroke="white" stroke-width="0.628" stroke-miterlimit="10"/>
<path d="M121.685 51.5117L118.189 53.1908V52.5354L121.007 51.2392V51.2246L118.189 49.9284V49.273L121.685 50.9521V51.5117Z" fill="white" stroke="white" stroke-width="0.628" stroke-miterlimit="10"/>
<path d="M114.331 101.898H113.055V111.536H114.331V101.898Z" fill="#FFBC78"/>
<path d="M115.869 102.534V101.261H111.517V102.534H115.869Z" fill="#FFBC78"/>
<path d="M115.869 111.931V110.658H111.517V111.931H115.869Z" fill="#FFBC78"/>
<path d="M85.8061 119.24H109.473V109.625H85.8061V119.24Z" fill="#FFBC78"/>
<path d="M91.8811 114.311L95.3781 112.618V113.28L92.6042 114.569V114.584L95.3781 115.88V116.535L91.8811 114.842V114.311Z" fill="white" stroke="white" stroke-width="0.628" stroke-miterlimit="10"/>
<path d="M96.1829 116.831L97.9831 111.492H98.6176L96.8176 116.831H96.1829Z" fill="white" stroke="white" stroke-width="0.628" stroke-miterlimit="10"/>
<path d="M102.853 114.856L99.3557 116.535V115.879L102.174 114.583V114.568L99.3557 113.272V112.617L102.853 114.296V114.856Z" fill="white" stroke="white" stroke-width="0.628" stroke-miterlimit="10"/>
<path d="M227.212 80.246H225.936V89.8846H227.212V80.246Z" fill="#8DDBE0"/>
<path d="M228.75 80.8824V79.6094H224.398V80.8824H228.75Z" fill="#8DDBE0"/>
<path d="M228.75 90.2792V89.0062H224.398V90.2792H228.75Z" fill="#8DDBE0"/>
<path d="M256.854 86.1975H233.188V95.8116H256.854V86.1975Z" fill="#8DDBE0"/>
<path d="M239.639 90.7415L243.136 89.0475V89.7103L240.362 90.9991V91.014L243.136 92.3099V92.9656L239.639 91.2716V90.7415Z" fill="white" stroke="white" stroke-width="0.628" stroke-miterlimit="10"/>
<path d="M243.94 93.2601L245.74 87.9208H246.375L244.575 93.2601H243.94Z" fill="white" stroke="white" stroke-width="0.628" stroke-miterlimit="10"/>
<path d="M250.61 91.2863L247.113 92.9656V92.3099L249.931 91.014V90.9991L247.113 89.7029V89.0475L250.61 90.7266V91.2863Z" fill="white" stroke="white" stroke-width="0.628" stroke-miterlimit="10"/>
</g>
<defs>
<clipPath id="clip0_433_2814">
<rect width="324" height="174" fill="white"/>
</clipPath>
</defs>
</svg>
