<svg width="325" height="175" viewBox="0 0 325 175" fill="none" xmlns="http://www.w3.org/2000/svg">
<g clip-path="url(#clip0_433_2891)">
<path d="M29.8069 169.982C24.1408 170.055 18.4694 169.589 12.0258 165.225C10.704 164.331 9.32966 163.082 9.37748 161.484C9.41328 160.28 10.3042 159.229 11.3792 158.685C11.781 158.487 12.2045 158.336 12.6412 158.236C12.6434 158.236 12.6459 158.236 12.6459 158.234C13.3201 158.09 14.0062 158.007 14.6955 157.988L14.892 157.981C18.1729 157.861 21.4536 158.226 24.628 159.064C24.9154 159.139 25.2198 159.115 25.4915 158.994C25.7632 158.874 25.9862 158.666 26.1242 158.402C26.2623 158.139 26.3071 157.837 26.2515 157.545C26.196 157.253 26.0432 156.988 25.8182 156.794C25.4082 156.443 24.9637 156.135 24.4914 155.874C23.7985 155.5 23.0722 155.192 22.3221 154.953C21.3214 154.625 20.2867 154.379 19.2669 154.112C15.4763 153.129 11.7704 151.843 8.1849 150.268C5.62538 149.142 3.04728 147.806 1.29611 145.623C0.491855 144.619 -0.133404 143.363 0.0245504 142.086C0.28799 139.987 2.54117 138.692 4.64103 138.429C8.32154 137.969 11.9132 139.613 15.1896 141.35C17.9076 142.795 20.9437 144.386 23.9104 143.567C24.424 143.452 24.8927 143.189 25.2585 142.81C25.9291 142.033 25.7638 140.792 25.1653 139.958C24.5668 139.124 23.6374 138.604 22.7419 138.105C17.5387 135.213 12.3428 132.133 8.19064 127.867C4.03845 123.601 0.983756 117.965 0.97993 112.007C0.97993 110.264 1.25047 108.481 2.07659 106.946C2.90271 105.412 4.3489 104.15 6.06344 103.836C8.39806 103.404 10.6969 104.749 12.4639 106.333C18.5339 111.769 20.9549 120.057 24.5403 127.376C25.5438 129.425 26.7049 131.484 28.5561 132.838C28.729 132.97 28.9283 133.063 29.1404 133.112C30.3901 133.38 30.9361 131.844 30.9935 130.672C31.2162 126.037 30.0764 121.189 31.7622 116.865C32.4063 115.219 33.5628 113.642 35.2462 113.107C37.3032 112.456 39.6162 113.601 40.8517 115.372C42.0872 117.143 42.4201 119.393 42.4094 121.554C42.3903 125.558 41.3081 129.501 39.7182 133.174C38.88 135.113 37.8743 137.124 38.1137 139.221C38.2086 139.929 38.4827 140.602 38.9102 141.174C39.3376 141.747 39.9042 142.201 40.556 142.492C40.8583 142.621 41.1834 142.688 41.512 142.689C41.8406 142.69 42.166 142.625 42.469 142.497C43.1227 142.217 43.6208 141.675 44.0999 141.15C44.3007 140.93 44.5019 140.707 44.7055 140.486C45.5053 139.609 46.3051 138.731 47.1049 137.853C49.1378 135.619 51.6784 133.186 54.6746 133.57C56.205 133.766 57.4714 134.719 58.3382 136C59.1193 137.165 59.5597 138.526 59.6098 139.928C59.7008 142.85 57.2298 151.863 55.8385 154.432C54.2144 157.431 49.1935 169.73 29.8069 169.982Z" fill="#97D4EA"/>
<path d="M295.195 169.982C300.861 170.055 306.532 169.589 312.976 165.225C314.297 164.331 315.672 163.082 315.624 161.484C315.588 160.28 314.697 159.229 313.622 158.685C313.22 158.487 312.797 158.336 312.36 158.236C312.358 158.236 312.355 158.236 312.355 158.234C311.681 158.09 310.995 158.007 310.306 157.988L310.109 157.981C306.828 157.861 303.548 158.226 300.373 159.064C300.086 159.139 299.781 159.115 299.51 158.995C299.238 158.875 299.015 158.666 298.877 158.403C298.739 158.139 298.694 157.837 298.749 157.545C298.805 157.252 298.958 156.988 299.183 156.794C299.593 156.443 300.038 156.134 300.51 155.874C301.203 155.5 301.929 155.192 302.679 154.953C303.68 154.625 304.715 154.379 305.735 154.112C309.525 153.129 313.231 151.843 316.816 150.268C319.376 149.142 321.954 147.806 323.706 145.623C324.51 144.619 325.135 143.363 324.977 142.086C324.713 139.987 322.46 138.692 320.36 138.429C316.68 137.969 313.088 139.613 309.812 141.35C307.094 142.795 304.058 144.386 301.091 143.567C300.577 143.452 300.109 143.189 299.743 142.81C299.073 142.033 299.238 140.792 299.836 139.958C300.435 139.124 301.364 138.604 302.259 138.105C307.463 135.213 312.659 132.133 316.811 127.867C320.963 123.601 324.016 117.965 324.021 112.007C324.021 110.264 323.75 108.481 322.924 106.946C322.098 105.412 320.652 104.15 318.937 103.836C316.602 103.404 314.304 104.749 312.537 106.333C306.467 111.769 304.046 120.056 300.461 127.375C299.458 129.424 298.297 131.483 296.445 132.837C296.273 132.969 296.073 133.062 295.861 133.11C294.612 133.379 294.066 131.842 294.008 130.671C293.785 126.036 294.925 121.187 293.239 116.864C292.595 115.217 291.439 113.64 289.755 113.106C287.698 112.454 285.385 113.6 284.15 115.371C282.914 117.142 282.582 119.391 282.592 121.552C282.611 125.557 283.694 129.499 285.284 133.173C286.122 135.112 287.127 137.123 286.888 139.22C286.793 139.928 286.519 140.6 286.091 141.173C285.664 141.746 285.097 142.199 284.446 142.491C284.143 142.62 283.818 142.687 283.49 142.688C283.161 142.688 282.836 142.623 282.533 142.496C281.879 142.216 281.381 141.674 280.902 141.149C280.701 140.928 280.5 140.706 280.296 140.485C279.496 139.608 278.697 138.73 277.897 137.851C275.864 135.618 273.323 133.185 270.327 133.569C268.797 133.765 267.53 134.717 266.663 135.999C265.882 137.164 265.442 138.524 265.392 139.927C265.301 142.848 267.772 151.861 269.163 154.43C270.786 157.431 275.806 169.73 295.195 169.982Z" fill="#97D4EA"/>
<path d="M289.42 163.441H34.487C31.2979 163.441 28.7126 166.028 28.7126 169.22V169.221C28.7126 172.412 31.2979 175 34.487 175H289.42C292.609 175 295.194 172.412 295.194 169.221V169.22C295.194 166.028 292.609 163.441 289.42 163.441Z" fill="#C1D8ED"/>
<path d="M268.776 0H54.2755C49.5783 0 45.7705 3.81112 45.7705 8.51237V156.807C45.7705 161.508 49.5783 165.319 54.2755 165.319H268.776C273.473 165.319 277.281 161.508 277.281 156.807V8.51237C277.281 3.81112 273.473 0 268.776 0Z" fill="#C1D8ED"/>
<path d="M268.247 5.80539H54.8038C52.727 5.80539 51.0435 7.4904 51.0435 9.56897V155.566C51.0435 157.645 52.727 159.33 54.8038 159.33H268.247C270.324 159.33 272.008 157.645 272.008 155.566V9.56897C272.008 7.4904 270.324 5.80539 268.247 5.80539Z" fill="#C1D8ED"/>
<path d="M157.749 13.2477H58.5088V79.4143H157.749V13.2477Z" fill="#F3F5FD"/>
<path d="M70.3857 21.5643H62.1545V79.3285H70.3857V21.5643Z" fill="#C1D8ED"/>
<path d="M70.3853 79.3284H97.3608V21.5643H70.3853V79.3284Z" fill="#DEE8F5"/>
<g opacity="0.53">
<path d="M71.6014 78.1241H96.145V57.9436H71.6014V78.1241Z" fill="#F3F5FD"/>
</g>
<g opacity="0.53">
<path d="M71.6014 33.2902H96.145V22.8069L71.6014 22.8069V33.2902Z" fill="white"/>
</g>
<g opacity="0.53">
<path d="M71.6014 44.9685H96.145V34.4852H71.6014V44.9685Z" fill="white"/>
</g>
<g opacity="0.53">
<path d="M71.6014 56.6469H96.145V46.1635H71.6014V56.6469Z" fill="white"/>
</g>
<path d="M83.329 78.5095H84.4172V57.5948H83.329V78.5095Z" fill="#DEE8F5"/>
<path d="M87.0924 75.0982C87.704 75.0982 88.1998 74.602 88.1998 73.9899C88.1998 73.3779 87.704 72.8817 87.0924 72.8817C86.4809 72.8817 85.9851 73.3779 85.9851 73.9899C85.9851 74.602 86.4809 75.0982 87.0924 75.0982Z" fill="white"/>
<path d="M80.6542 75.0982C81.2657 75.0982 81.7615 74.602 81.7615 73.9899C81.7615 73.3779 81.2657 72.8817 80.6542 72.8817C80.0426 72.8817 79.5469 73.3779 79.5469 73.9899C79.5469 74.602 80.0426 75.0982 80.6542 75.0982Z" fill="white"/>
<path d="M91.5521 36.5816V38.2277V44.9685H82.9072V38.2277V36.5816H91.5521Z" fill="#C1D8ED"/>
<path d="M94.1747 38.2274H85.5298V44.9685H94.1747V38.2274Z" fill="#DEE8F5"/>
<path d="M94.1747 38.2274H85.5298V38.7326H94.1747V38.2274Z" fill="#C1D8ED"/>
<path d="M85.5302 38.2272H94.175V36.5812H85.5302V38.2272Z" fill="#DEE8F5"/>
<path d="M88.9135 40.5934H90.7909C90.9116 40.5934 91.0095 40.4954 91.0095 40.3745V39.7999C91.0095 39.679 90.9116 39.5811 90.7909 39.5811H88.9135C88.7927 39.5811 88.6949 39.679 88.6949 39.7999V40.3745C88.6949 40.4954 88.7927 40.5934 88.9135 40.5934Z" fill="white"/>
<path d="M81.8566 37.7225V39.1448V44.9682H74.3882V39.1448V37.7225H81.8566Z" fill="#C1D8ED"/>
<path d="M84.3043 39.1448H76.8359V44.9685H84.3043V39.1448Z" fill="#DEE8F5"/>
<path d="M84.3043 39.1448H76.8359V39.5813H84.3043V39.1448Z" fill="#C1D8ED"/>
<path d="M76.836 39.1448H84.3044V37.7228H76.836V39.1448Z" fill="#DEE8F5"/>
<path d="M79.7591 41.1888H81.381C81.4853 41.1888 81.5698 41.1042 81.5698 40.9998V40.5034C81.5698 40.399 81.4853 40.3144 81.381 40.3144H79.7591C79.6548 40.3144 79.5703 40.399 79.5703 40.5034V40.9998C79.5703 41.1042 79.6548 41.1888 79.7591 41.1888Z" fill="white"/>
<path d="M95.5775 26.663L94.4478 26.3957L93.0315 32.3911L94.1613 32.6584L95.5775 26.663Z" fill="white"/>
<path d="M93.2054 25.9298L92.5781 26.0456L93.5481 31.3081L94.1753 31.1923L93.2054 25.9298Z" fill="#C1D8ED"/>
<path d="M93.205 25.928L92.5784 26.0473L92.6887 26.6277L93.3153 26.5083L93.205 25.928Z" fill="#DEE8F5"/>
<path d="M95.1471 27.2682L93.1147 32.4316L93.4631 32.5689L95.4954 27.4055L95.1471 27.2682Z" fill="#C1D8ED"/>
<path d="M95.5915 29.5272H92.5281V33.4458H95.5915V29.5272Z" fill="#C1D8ED"/>
<path d="M90.9078 26.4728H88.3083V33.3698H90.9078V26.4728Z" fill="#C1D8ED"/>
<path d="M88.5682 25.5237H87.1775V33.3698H88.5682V25.5237Z" fill="#DEE8F5"/>
<path d="M87.1775 25.9665H85.0134V33.3698H87.1775V25.9665Z" fill="white"/>
<path d="M79.7637 25.9665H78.4993V33.3698H79.7637V25.9665Z" fill="#DEE8F5"/>
<path d="M82.2456 26.4954L79.8584 27.6588L82.6262 33.3477L85.0134 32.1842L82.2456 26.4954Z" fill="#DEE8F5"/>
<path d="M78.5091 26.5146H75.9097V33.4116H78.5091V26.5146Z" fill="#C1D8ED"/>
<path d="M76.1698 25.5656H74.7791V33.4116H76.1698V25.5656Z" fill="#DEE8F5"/>
<path d="M74.7791 26.0084H72.615V33.4117H74.7791V26.0084Z" fill="#C1D8ED"/>
<path d="M89.558 49.5739L88.3499 49.2004L86.167 56.274L87.3751 56.6475L89.558 49.5739Z" fill="#DEE8F5"/>
<path d="M76.3235 49.7496H73.7241V56.6466H76.3235V49.7496Z" fill="#C1D8ED"/>
<path d="M77.4542 48.8005H76.0635V56.6466H77.4542V48.8005Z" fill="white"/>
<path d="M79.6182 49.2436H77.4541V56.6468H79.6182V49.2436Z" fill="#DEE8F5"/>
<path d="M86.1326 49.2436H84.8682V56.6468H86.1326V49.2436Z" fill="#DEE8F5"/>
<path d="M84.7734 50.9575L82.3862 49.7941L79.6184 55.4829L82.0056 56.6464L84.7734 50.9575Z" fill="white"/>
<path d="M90.198 52.9601C90.2509 53.0549 90.3391 53.1249 90.4434 53.1547C90.5477 53.1846 90.6595 53.1718 90.7544 53.1193C90.8225 53.0964 90.8952 53.0911 90.9658 53.1038C91.0364 53.1164 91.1027 53.1467 91.1586 53.1918C91.3429 53.3299 91.4716 53.5296 91.5213 53.7547H93.6758C93.6839 53.6247 93.7006 53.4954 93.7258 53.3676C93.7838 53.0189 93.9482 52.6967 94.1964 52.4451C94.2554 52.3806 94.3345 52.3381 94.4207 52.3244C94.4694 52.3522 94.5232 52.3696 94.5788 52.3757C94.6345 52.3819 94.6908 52.3765 94.7443 52.36C94.7978 52.3435 94.8473 52.3162 94.8899 52.2798C94.9324 52.2434 94.9671 52.1987 94.9917 52.1484C95.0163 52.0981 95.0304 52.0432 95.033 51.9873C95.0357 51.9313 95.0268 51.8754 95.0071 51.823C94.9873 51.7706 94.957 51.7228 94.918 51.6825C94.8791 51.6423 94.8323 51.6104 94.7806 51.589C94.5876 51.5094 94.3748 51.491 94.171 51.5364C93.9671 51.5818 93.7822 51.6887 93.6411 51.8428C93.5309 51.9449 93.432 52.0586 93.3462 52.1819C93.379 51.9729 93.43 51.7672 93.4987 51.5671C93.5812 51.3143 93.7327 51.0896 93.9359 50.9183C94.0181 50.851 94.071 50.7544 94.0834 50.6489C94.0959 50.5434 94.0669 50.4371 94.0027 50.3525C93.9385 50.2679 93.8439 50.2116 93.739 50.1953C93.6341 50.1791 93.527 50.2042 93.4402 50.2654C93.1099 50.5312 92.8632 50.8866 92.7297 51.2892C92.7149 51.3299 92.7024 51.3712 92.6884 51.4131C92.4335 50.7777 92.1725 50.24 91.6461 49.9304C91.5528 49.88 91.4435 49.8678 91.3414 49.8963C91.2392 49.9249 91.1521 49.992 91.0983 50.0835C91.0445 50.175 91.0283 50.2838 91.053 50.387C91.0777 50.4903 91.1414 50.5799 91.2308 50.6371C91.5521 50.8261 91.7445 51.2534 91.9615 51.8015C91.7221 51.5249 91.4352 51.2933 91.1143 51.1177C91.067 51.0884 91.0141 51.069 90.959 51.0608C90.9039 51.0526 90.8477 51.0558 90.7938 51.0701C90.74 51.0843 90.6896 51.1095 90.6458 51.1439C90.6019 51.1783 90.5656 51.2213 90.5389 51.2703C90.5122 51.3192 90.4958 51.3731 90.4906 51.4286C90.4855 51.4841 90.4917 51.5401 90.5088 51.5932C90.526 51.6462 90.5538 51.6952 90.5906 51.7371C90.6273 51.7791 90.6722 51.813 90.7225 51.837C90.972 51.9747 91.1933 52.1582 91.3748 52.378C91.214 52.3063 91.0394 52.2713 90.8634 52.2756C90.6875 52.2798 90.5147 52.3233 90.3576 52.4027C90.2627 52.4555 90.1925 52.5438 90.1626 52.6483C90.1327 52.7528 90.1454 52.865 90.198 52.9601Z" fill="#8DDBE0"/>
<path d="M94.4813 53.7547H90.6743V54.8624H94.4813V53.7547Z" fill="#DEE8F5"/>
<path d="M90.6736 54.8627V56.0771C90.6736 56.2281 90.7335 56.373 90.8402 56.4798C90.9469 56.5865 91.0916 56.6465 91.2425 56.6465H93.9117C94.0626 56.6465 94.2073 56.5866 94.3141 56.4798C94.4208 56.373 94.4808 56.2281 94.4809 56.0771V54.8627H90.6736Z" fill="#C1D8ED"/>
<path d="M148.594 26.571V56.0771H132.864V56.7116H132.155V56.0771H116.425V26.571H148.594Z" fill="white"/>
<path d="M148.595 19.2607H116.425V56.0768H148.595V19.2607Z" fill="white"/>
<g opacity="0.78">
<path d="M125.993 39.92H118.198V56.7117H125.993V39.92Z" fill="#C1D8ED"/>
</g>
<g opacity="0.78">
<path d="M133.714 36.3243L141.298 33.977V57.0333H133.714V36.3243Z" fill="#C1D8ED"/>
</g>
<path d="M125.348 43.0974L130.294 39.8275L134.921 43.0974V57.0333H125.348V43.0974Z" fill="#DEE8F5"/>
<path d="M148.586 46.5527H139.21V57.0333H148.586V46.5527Z" fill="#DEE8F5"/>
<path d="M119.821 50.7835H116.425V56.6247H119.821V50.7835Z" fill="#DEE8F5"/>
<path d="M148.595 40.9691H116.425V41.6789H148.595V40.9691Z" fill="#F3F5FD"/>
<path d="M148.595 33.2762H116.425V33.986H148.595V33.2762Z" fill="#F3F5FD"/>
<path d="M148.595 48.6637H116.425V49.3735H148.595V48.6637Z" fill="#F3F5FD"/>
<path d="M132.865 26.571H132.156V56.7116H132.865V26.571Z" fill="#F3F5FD"/>
<path d="M150.864 56.0768H114.156V57.7693H150.864V56.0768Z" fill="#C1D8ED"/>
<path d="M150.864 17.5682H114.156V19.2607H150.864V17.5682Z" fill="#C1D8ED"/>
<path d="M148.595 25.0926H116.425V26.5715H148.595V25.0926Z" fill="#DEE8F5"/>
<path d="M148.595 23.1487H116.425V24.6276H148.595V23.1487Z" fill="#DEE8F5"/>
<path d="M148.595 21.2049H116.425V22.6838H148.595V21.2049Z" fill="#DEE8F5"/>
<path d="M148.595 19.2607H116.425V20.7396H148.595V19.2607Z" fill="#DEE8F5"/>
<path d="M87.8071 29.865C87.747 24.0336 90.0497 20.4199 93.1719 18.4358C96.2525 16.478 105.913 14.774 109.575 21.8821C111.965 26.5196 111.022 28.1774 111.699 35.6052C112.376 43.0331 114.978 43.8124 117.615 52.8154C119.684 59.8776 108.095 63.6267 98.0573 63.3026C88.0198 62.9785 81.6584 60.7548 81.076 54.3657C80.2401 45.1955 87.9249 41.2927 87.8071 29.865Z" fill="#0F1011"/>
<path d="M93.7869 45.9876C93.7869 45.9876 96.8019 44.352 96.0499 36.1006L102.299 34.8812C102.299 34.8812 101.664 42.2913 104.852 44.6129L93.7869 45.9876Z" fill="#725145"/>
<g opacity="0.15">
<path d="M103.555 43.0769L98.3184 39.1426L102.402 39.0627C102.571 40.4374 102.906 41.9114 103.555 43.0769Z" fill="black"/>
</g>
<path d="M92.4685 32.9313C92.9249 35.4326 94.3126 37.7928 96.5281 38.5816C99.1581 39.5184 101.113 39.8125 104.122 39.5389C110.97 38.9137 109.472 23.3301 106.19 20.3307C102.909 17.3313 93.3788 19.3359 92.2627 24.4135C91.6861 27.0395 92.0343 30.5501 92.4685 32.9313Z" fill="#725145"/>
<path d="M102.249 30.9111C102.562 30.9111 102.816 30.6568 102.816 30.3431C102.816 30.0293 102.562 29.775 102.249 29.775C101.935 29.775 101.681 30.0293 101.681 30.3431C101.681 30.6568 101.935 30.9111 102.249 30.9111Z" fill="#0F1011"/>
<path d="M106.725 30.5025C107.038 30.5025 107.292 30.2482 107.292 29.9344C107.292 29.6207 107.038 29.3663 106.725 29.3663C106.411 29.3663 106.157 29.6207 106.157 29.9344C106.157 30.2482 106.411 30.5025 106.725 30.5025Z" fill="#0F1011"/>
<path d="M107.695 28.7143L106.192 28.7091C106.121 28.7091 106.053 28.6809 106.003 28.6309C105.953 28.5808 105.925 28.5129 105.925 28.4421C105.925 28.3713 105.953 28.3034 106.003 28.2534C106.053 28.2033 106.121 28.1752 106.192 28.1752L107.695 28.1804C107.766 28.1804 107.833 28.2085 107.883 28.2586C107.933 28.3086 107.962 28.3765 107.962 28.4473C107.962 28.5181 107.933 28.586 107.883 28.6361C107.833 28.6861 107.766 28.7143 107.695 28.7143Z" fill="#0F1011"/>
<path d="M101.011 29.3248C100.946 29.3248 100.883 29.3009 100.835 29.2577C100.786 29.2145 100.755 29.155 100.747 29.0903C100.739 29.0257 100.755 28.9603 100.792 28.9066C100.828 28.8529 100.884 28.8146 100.947 28.7988L102.426 28.4279C102.461 28.4187 102.496 28.4163 102.531 28.421C102.566 28.4258 102.6 28.4374 102.631 28.4554C102.661 28.4733 102.688 28.4972 102.709 28.5256C102.731 28.5539 102.746 28.5863 102.755 28.6207C102.763 28.655 102.765 28.6908 102.76 28.7259C102.754 28.7609 102.742 28.7946 102.723 28.8248C102.705 28.8551 102.681 28.8814 102.652 28.9021C102.623 28.9229 102.591 28.9377 102.556 28.9457L101.076 29.3166C101.055 29.322 101.033 29.3247 101.011 29.3248Z" fill="#0F1011"/>
<path d="M102.552 34.8159C102.552 34.8159 104.65 35.018 106.114 34.4907C106.114 34.4907 106.114 35.8722 104.458 36.0224C102.802 36.1725 102.552 34.8159 102.552 34.8159Z" fill="white"/>
<path d="M97.02 26.3976C97.5327 35.2631 95.7698 42.0566 95.7698 42.0566C95.7698 42.0566 90.428 35.6345 89.6211 28.7769C88.8638 22.3493 93.5666 18.5053 96.761 17.7597C108.901 14.9255 109.744 23.788 109.744 23.788C108.959 26.8111 95.7064 28.6869 95.7064 28.6869" fill="#0F1011"/>
<path d="M99.4043 32.8184C99.4592 33.453 99.2607 34.0836 98.8523 34.5721C98.4439 35.0607 97.8587 35.3674 97.2249 35.4253C96.5911 35.4831 95.9602 35.2874 95.4702 34.8809C94.9802 34.4743 94.671 33.8901 94.6102 33.256C94.576 32.9399 94.6057 32.6202 94.6975 32.3159C94.7893 32.0115 94.9413 31.7288 95.1446 31.4845C95.3478 31.2402 95.5981 31.0394 95.8805 30.8939C96.163 30.7485 96.4718 30.6614 96.7885 30.6379C98.5036 30.5665 99.2836 31.4934 99.4043 32.8184Z" fill="#725145"/>
<g opacity="0.15">
<path d="M104.796 33.4718C104.749 33.4717 104.704 33.4549 104.669 33.4245C104.633 33.394 104.61 33.3519 104.603 33.3057C104.596 33.2595 104.605 33.2123 104.63 33.1725C104.654 33.1328 104.692 33.1031 104.737 33.0889L105.888 32.7232L105.064 30.9303C105.052 30.9067 105.044 30.8809 105.042 30.8543C105.04 30.8277 105.043 30.8009 105.052 30.7757C105.06 30.7504 105.074 30.7271 105.092 30.7073C105.109 30.6874 105.131 30.6714 105.155 30.6603C105.179 30.6491 105.206 30.643 105.232 30.6423C105.259 30.6416 105.285 30.6463 105.31 30.6563C105.335 30.6662 105.357 30.681 105.376 30.6999C105.395 30.7188 105.41 30.7414 105.42 30.7662L106.336 32.7606C106.348 32.7859 106.354 32.8133 106.354 32.8411C106.355 32.8689 106.349 32.8965 106.338 32.9219C106.327 32.9473 106.31 32.9701 106.289 32.9886C106.269 33.0072 106.244 33.0211 106.218 33.0295L104.855 33.4622C104.836 33.4684 104.816 33.4716 104.796 33.4718Z" fill="black"/>
</g>
<path d="M134.913 49.409C134.913 49.409 135.538 44.7538 138.838 45.4015C140.921 45.8101 150.958 46.5606 150.996 47.4895C151.09 49.787 141.893 49.225 140.81 51.2222L134.913 49.409Z" fill="#725145"/>
<path d="M137.641 45.4075C137.641 45.4075 142.459 44.4598 143.565 44.8692C144.545 45.2316 142.243 46.6197 142.243 46.6197L137.641 45.4075Z" fill="#725145"/>
<path d="M123.139 75.889C123.077 75.889 123.015 75.889 122.952 75.8843C122.292 75.8521 121.651 75.6489 121.092 75.2945C120.533 74.9401 120.076 74.4467 119.765 73.8625L107.503 50.8311L114.667 47.652L123.501 64.61L135.261 46.9135L141.626 51.1505L126.321 74.1819C125.972 74.7069 125.499 75.1374 124.944 75.4352C124.389 75.733 123.769 75.8889 123.139 75.889Z" fill="#28A0CB"/>
<path d="M115.267 79.4149H83.953C84.7832 76.9814 85.241 74.4363 85.3109 71.8658C85.3164 71.639 85.3191 71.4082 85.3191 71.1735C85.301 69.8695 85.1504 68.5706 84.8699 67.297C83.8349 62.2706 81.3719 56.8213 81.5121 52.2047C81.5771 50.0045 82.2357 47.9925 83.9197 46.3057C85.7058 44.5194 88.7881 43.3657 92.5471 43.3616C92.828 45.5552 106.137 45.5631 106.238 43.4119C106.747 43.4199 107.142 43.4278 107.386 43.4393C112.139 43.645 114.384 45.7601 115.314 48.8913C116.552 53.0517 115.468 59.0051 114.866 64.6587C114.684 66.3561 114.548 68.0273 114.53 69.6134C114.458 72.8967 114.704 76.1793 115.267 79.4149Z" fill="#28A0CB"/>
<path d="M106.238 43.4114C106.137 45.562 104.968 48.7258 101.362 48.9638C96.5561 49.2808 92.8286 45.5538 92.5471 43.36H92.5589C97.2907 43.3605 103.48 43.3682 106.238 43.4114Z" fill="#725145"/>
<path d="M99.3328 75.7251L98.3189 79.4148H83.953C83.9519 79.4184 83.9505 79.4219 83.9489 79.4252L83.9117 79.4148L77.7848 77.7278C77.2915 77.5919 76.8305 77.3583 76.4291 77.0408C76.0277 76.7234 75.694 76.3285 75.4478 75.8796C75.2017 75.4307 75.0481 74.9369 74.9961 74.4274C74.9441 73.918 74.9948 73.4033 75.1452 72.9139L81.5126 52.2038L82.248 49.81L89.5544 52.0594L84.8704 67.2962L83.6103 71.3967L85.3114 71.865L99.3328 75.7251Z" fill="#28A0CB"/>
<path d="M108.043 75.9571C109.827 75.9571 111.272 74.5101 111.272 72.7252C111.272 70.9403 109.827 69.4933 108.043 69.4933C106.26 69.4933 104.814 70.9403 104.814 72.7252C104.814 74.5101 106.26 75.9571 108.043 75.9571Z" fill="#FD5D76"/>
<path d="M109.633 73.7227H108.849C108.747 73.7227 108.65 73.6824 108.578 73.6106C108.507 73.5388 108.466 73.4414 108.466 73.3398V72.8084C108.466 72.7118 108.502 72.6187 108.568 72.548C108.396 72.5104 108.22 72.4927 108.044 72.4952C107.858 72.4923 107.672 72.5124 107.49 72.5551C107.562 72.6269 107.602 72.7243 107.602 72.8259V73.3398C107.602 73.4414 107.562 73.5388 107.49 73.6106C107.418 73.6824 107.321 73.7227 107.22 73.7227H106.454C106.353 73.7227 106.256 73.6824 106.184 73.6106C106.112 73.5388 106.072 73.4414 106.072 73.3398C106.072 72.3458 106.828 71.7282 108.045 71.7282C109.262 71.7282 110.018 72.3458 110.018 73.3398C110.018 73.3903 110.008 73.4402 109.989 73.4868C109.969 73.5334 109.941 73.5758 109.905 73.6113C109.87 73.6469 109.827 73.6751 109.78 73.6942C109.734 73.7133 109.684 73.723 109.633 73.7227Z" fill="white"/>
<path d="M99.418 75.0104C100.679 75.0104 101.701 73.9873 101.701 72.7252C101.701 71.4631 100.679 70.44 99.418 70.44C98.157 70.44 97.1348 71.4631 97.1348 72.7252C97.1348 73.9873 98.157 75.0104 99.418 75.0104Z" fill="#8DDBE0"/>
<path d="M99.4184 73.4593C99.2777 73.4592 99.1429 73.4032 99.0434 73.3037C98.9439 73.2042 98.8879 73.0692 98.8877 72.9284V71.9131C98.8877 71.7722 98.9436 71.6371 99.0431 71.5375C99.1427 71.4379 99.2776 71.382 99.4184 71.382C99.5591 71.382 99.6941 71.4379 99.7937 71.5375C99.8932 71.6371 99.9491 71.7722 99.9491 71.9131V72.9284C99.9489 73.0692 99.8929 73.2042 99.7934 73.3037C99.6939 73.4032 99.5591 73.4592 99.4184 73.4593Z" fill="white"/>
<path d="M99.4185 74.0135C99.4043 74.0135 99.3903 74.0107 99.3773 74.0053C99.3642 73.9998 99.3523 73.9919 99.3423 73.9819C99.3323 73.9719 99.3244 73.96 99.319 73.9469C99.3136 73.9339 99.3108 73.9198 99.3108 73.9057V72.9361C99.3108 72.9075 99.3221 72.8801 99.3423 72.8599C99.3625 72.8397 99.3899 72.8283 99.4185 72.8283C99.447 72.8283 99.4744 72.8397 99.4946 72.8599C99.5148 72.8801 99.5261 72.9075 99.5261 72.9361V73.9057C99.5262 73.9198 99.5234 73.9339 99.518 73.947C99.5126 73.9601 99.5047 73.972 99.4947 73.982C99.4847 73.992 99.4728 73.9999 99.4597 74.0053C99.4466 74.0107 99.4326 74.0135 99.4185 74.0135Z" fill="white"/>
<path d="M99.9026 74.0682H98.9338C98.9053 74.0682 98.8779 74.0568 98.8577 74.0366C98.8375 74.0164 98.8262 73.989 98.8262 73.9604C98.8262 73.9318 98.8375 73.9044 98.8577 73.8842C98.8779 73.864 98.9053 73.8526 98.9338 73.8526H99.9026C99.9312 73.8526 99.9586 73.864 99.9787 73.8842C99.9989 73.9044 100.01 73.9318 100.01 73.9604C100.01 73.989 99.9989 74.0164 99.9787 74.0366C99.9586 74.0568 99.9312 74.0682 99.9026 74.0682Z" fill="white"/>
<path d="M116.669 75.0104C117.93 75.0104 118.952 73.9873 118.952 72.7252C118.952 71.4631 117.93 70.44 116.669 70.44C115.408 70.44 114.385 71.4631 114.385 72.7252C114.385 73.9873 115.408 75.0104 116.669 75.0104Z" fill="#FFBC78"/>
<path d="M117.326 71.979H115.485V73.4716H117.326V71.979Z" fill="white"/>
<path d="M117.852 73.3504L117.199 72.6973L117.852 72.0439" fill="white"/>
<path d="M264.542 13.2477H165.302V79.414H264.542V13.2477Z" fill="#F3F5FD"/>
<path d="M216.18 47.2277V23.6654H187.585V47.2277H216.18Z" fill="#DEE8F5"/>
<path d="M214.209 45.2546V25.6385H189.556V45.2546H214.209Z" fill="white"/>
<path d="M205.782 39.8748V29.3844H193.52V39.8748H205.782Z" fill="#C1D8ED"/>
<path d="M206.456 43.1075C208.549 43.1075 210.245 41.4095 210.245 39.3149C210.245 37.2203 208.549 35.5223 206.456 35.5223C204.363 35.5223 202.667 37.2203 202.667 39.3149C202.667 41.4095 204.363 43.1075 206.456 43.1075Z" fill="#DEE8F5"/>
<path d="M200.541 43.1078V34.6296H198.869V43.1078H200.541Z" fill="#F3F5FD"/>
<path d="M200.231 79.216C199.772 79.0609 199.358 78.7951 199.025 78.4422C198.693 78.0892 198.452 77.6599 198.325 77.192C198.08 76.2497 198.112 75.2568 198.416 74.3321C198.638 73.5745 198.973 72.8423 199.056 72.0573C199.331 69.4436 196.798 66.7729 197.99 64.4311C198.376 63.6737 199.122 63.0818 199.255 62.243C199.364 61.5488 199.023 60.8754 198.853 60.1916C198.721 59.7251 198.696 59.2344 198.782 58.757C198.867 58.2795 199.06 57.8279 199.347 57.4365C199.955 56.6848 201.105 56.3564 201.943 56.8377C203.039 57.4668 203.134 59.0215 202.852 60.2548C202.571 61.4881 202.049 62.7569 202.393 63.9746C202.721 65.1349 203.789 66.0087 203.981 67.1994C204.14 68.1889 203.657 69.1542 203.445 70.1339C203.112 71.6738 203.451 73.27 203.465 74.8455C203.48 76.421 203.036 78.1865 200.231 79.216Z" fill="#8DDBE0"/>
<path d="M198.797 79.0062C197.692 78.6698 196.808 78.0489 196.587 76.9124C196.406 75.9748 196.629 74.9218 196.116 74.1166C195.421 73.025 194.709 72.9016 193.844 71.9396C192.515 70.4607 192.468 69.8062 192.556 67.0661C192.593 65.9075 190.994 64.6001 191.557 63.4872C192.053 62.5064 193.561 62.5025 194.415 63.1915C195.27 63.8805 195.645 64.9877 196.018 66.0219C196.391 67.056 196.86 68.1498 197.805 68.7111C198.371 69.0475 199.112 69.2034 199.425 69.7832C199.676 70.2482 199.55 70.8182 199.449 71.3382C199.195 72.645 199.257 74.2394 200.354 74.9943C200.848 75.3348 201.496 75.4519 201.902 75.8939C202.304 76.3315 202.369 76.9784 202.342 77.5716" fill="#DEE8F5"/>
<path d="M210.212 62.7077C210.212 64.3625 208.971 65.0736 208.34 65.823C207.431 66.9081 206.949 68.2884 206.985 69.7042C207.028 71.2852 207.701 72.9673 206.982 74.3759C206.454 75.4098 205.329 75.9623 204.443 76.7117C203.597 77.4352 202.954 78.3665 202.577 79.4141H199.579C199.347 78.8837 199.245 78.3056 199.282 77.7279C199.319 77.1502 199.494 76.5898 199.792 76.0936C200.464 75.0296 201.713 74.2966 201.975 73.0657C202.21 71.9689 201.56 70.8366 201.757 69.7343C201.967 68.5336 203.074 67.7459 203.954 66.9034C204.183 66.6987 204.38 66.4608 204.539 66.1978C204.924 65.5003 204.818 64.6469 204.949 63.8592C205.2 62.3549 206.441 61.0174 207.947 60.7685C209.266 60.5496 210.212 61.31 210.212 62.7077Z" fill="#F3F5FD"/>
<path d="M204.378 77.6799H196.417V79.414H204.378V77.6799Z" fill="#FFBC78"/>
<path d="M259.215 72.7605H237.252L238.741 56.5432C238.777 56.1552 238.956 55.7945 239.244 55.5318C239.531 55.2692 239.907 55.1236 240.296 55.1236H259.125C259.342 55.1236 259.557 55.1689 259.755 55.2566C259.954 55.3443 260.132 55.4725 260.278 55.633C260.425 55.7935 260.536 55.9828 260.605 56.1888C260.674 56.3948 260.699 56.6129 260.68 56.8293L259.215 72.7605Z" fill="#C1D8ED"/>
<path d="M239.713 65.1794H224.781V78.547H239.713V65.1794Z" fill="#C1D8ED"/>
<path d="M254.958 72.7605H233.805L235.294 56.5432C235.33 56.1552 235.509 55.7945 235.797 55.5319C236.084 55.2693 236.46 55.1237 236.849 55.1236H254.867C255.084 55.1236 255.299 55.1689 255.497 55.2566C255.696 55.3443 255.874 55.4725 256.02 55.633C256.167 55.7935 256.278 55.9828 256.347 56.1888C256.416 56.3948 256.442 56.6129 256.422 56.8293L254.958 72.7605Z" fill="#DEE8F5"/>
<g opacity="0.48">
<path d="M254.958 72.7605H233.805L235.294 56.5432C235.33 56.1552 235.509 55.7945 235.797 55.5319C236.084 55.2693 236.46 55.1237 236.849 55.1236H254.867C255.084 55.1236 255.299 55.1689 255.497 55.2566C255.696 55.3443 255.874 55.4725 256.02 55.633C256.167 55.7935 256.278 55.9828 256.347 56.1888C256.416 56.3948 256.442 56.6129 256.422 56.8293L254.958 72.7605Z" fill="#C1D8ED"/>
</g>
<path d="M262.424 67.3957V78.5771C262.425 78.8642 262.369 79.1486 262.26 79.4141H247.492V65.1803H260.211C260.798 65.1803 261.361 65.4137 261.776 65.8292C262.191 66.2447 262.424 66.8082 262.424 67.3957Z" fill="#C1D8ED"/>
<path d="M249.922 67.6132V78.3624C249.922 78.727 249.84 79.087 249.681 79.4154H222.589C222.431 79.0868 222.35 78.7268 222.351 78.3624V67.6132C222.372 66.9821 222.637 66.3839 223.091 65.9449C223.544 65.5059 224.151 65.2605 224.782 65.2605C225.413 65.2605 226.019 65.5059 226.472 65.9449C226.926 66.3839 227.191 66.9821 227.212 67.6132V75.9308H245.063V67.6132C245.063 66.9683 245.319 66.3498 245.775 65.8938C246.23 65.4378 246.848 65.1816 247.492 65.1816C248.137 65.1816 248.755 65.4378 249.21 65.8938C249.666 66.3498 249.922 66.9683 249.922 67.6132Z" fill="#DEE8F5"/>
<path d="M225.939 71.129H245.096V76.3312H225.939C225.527 76.3312 225.132 76.1675 224.841 75.876C224.55 75.5845 224.386 75.1891 224.386 74.7769V72.6834C224.386 72.2711 224.55 71.8757 224.841 71.5842C225.132 71.2927 225.527 71.129 225.939 71.129Z" fill="#F3F5FD"/>
<g opacity="0.15">
<path d="M225.939 71.129H245.096V76.3312H225.939C225.527 76.3312 225.132 76.1675 224.841 75.876C224.55 75.5845 224.386 75.1891 224.386 74.7769V72.6834C224.386 72.2711 224.55 71.8757 224.841 71.5842C225.132 71.2927 225.527 71.129 225.939 71.129Z" fill="#C1D8ED"/>
</g>
<path d="M175.487 77.68H190.419V65.1795H175.487V77.68Z" fill="#C1D8ED"/>
<path d="M181.395 72.7594H165.302V55.1231H178.351C178.74 55.1228 179.115 55.2682 179.403 55.5309C179.691 55.7936 179.87 56.1545 179.905 56.5426L181.395 72.7594Z" fill="#DEE8F5"/>
<g opacity="0.48">
<path d="M181.395 72.7594H165.302V55.1231H178.351C178.74 55.1228 179.115 55.2682 179.403 55.5309C179.691 55.7936 179.87 56.1545 179.905 56.5426L181.395 72.7594Z" fill="#C1D8ED"/>
</g>
<path d="M167.711 65.1803V79.4141H165.303V78.7056C165.286 78.5915 165.278 78.4763 165.278 78.361V67.6132C165.278 67.4979 165.286 67.3827 165.303 67.2686V65.1816L167.711 65.1803Z" fill="#C1D8ED"/>
<path d="M192.848 67.6132V78.3624C192.849 78.7268 192.768 79.0868 192.61 79.4154H165.517C165.359 79.087 165.277 78.727 165.277 78.3624V67.6132C165.277 67.4979 165.285 67.3827 165.301 67.2686C165.393 66.663 165.709 66.1141 166.187 65.7314C166.664 65.3487 167.269 65.1603 167.879 65.2038C168.489 65.2473 169.061 65.5195 169.48 65.9661C169.899 66.4126 170.134 67.0008 170.138 67.6132V75.9308H187.989V67.6132C187.989 66.9683 188.245 66.3498 188.701 65.8938C189.156 65.4378 189.774 65.1816 190.418 65.1816C191.063 65.1816 191.681 65.4378 192.136 65.8938C192.592 66.3498 192.848 66.9683 192.848 67.6132Z" fill="#DEE8F5"/>
<path d="M189.261 76.3312H170.105V71.129H189.261C189.673 71.129 190.068 71.2927 190.36 71.5842C190.651 71.8757 190.814 72.2711 190.814 72.6834V74.7768C190.814 75.1891 190.651 75.5845 190.36 75.876C190.068 76.1675 189.673 76.3312 189.261 76.3312Z" fill="#F3F5FD"/>
<g opacity="0.15">
<path d="M189.261 76.3312H170.104V71.129H189.261C189.673 71.129 190.068 71.2927 190.359 71.5842C190.651 71.8757 190.814 72.2711 190.814 72.6834V74.7768C190.814 75.1891 190.651 75.5845 190.359 75.876C190.068 76.1675 189.673 76.3312 189.261 76.3312Z" fill="#C1D8ED"/>
</g>
<path d="M223.565 46.9149C223.565 46.9149 220.246 45.2688 220.733 36.3342L213.941 35.265C213.941 35.265 214.919 43.2369 211.569 45.8681L223.565 46.9149Z" fill="#E2B764"/>
<g opacity="0.15">
<path d="M212.908 44.1592L218.405 39.7066L213.994 39.7818C213.867 41.2719 213.563 42.8758 212.908 44.1592Z" fill="black"/>
</g>
<path d="M224.473 32.7721C224.079 35.4898 222.675 38.0912 220.315 39.0302C217.514 40.145 215.419 40.2725 212.157 40.3619C207.705 40.4839 207.725 35.8328 207.472 31.1532C207.218 26.4547 207.453 21.401 209.168 19.7145C212.591 16.348 222.956 18.1366 224.359 23.5711C225.085 26.3831 224.848 30.1858 224.473 32.7721Z" fill="#E2B764"/>
<path d="M220.484 38.769C220.637 39.2148 220.74 39.4082 221.138 39.1566C222.702 38.1681 226.221 36.0141 227.228 28.278C228.13 21.346 223.799 18.6161 220.379 17.6929C217.431 16.8975 210.601 16.9047 207.451 18.9238C204.737 20.6644 207.603 24.4616 207.603 24.4616C208.824 24.4846 209.099 25.5284 211.977 25.4485C214.202 25.3875 215.621 24.3525 217.707 24.3818C219.616 24.4091 220.039 25.5625 219.992 26.3087C219.706 30.8463 219.944 37.1924 220.484 38.769Z" fill="#0F1011"/>
<path d="M213.816 30.979C214.155 30.979 214.429 30.7043 214.429 30.3655C214.429 30.0267 214.155 29.752 213.816 29.752C213.478 29.752 213.203 30.0267 213.203 30.3655C213.203 30.7043 213.478 30.979 213.816 30.979Z" fill="#0F1011"/>
<path d="M208.97 30.7145C209.308 30.7145 209.583 30.4398 209.583 30.101C209.583 29.7622 209.308 29.4875 208.97 29.4875C208.631 29.4875 208.357 29.7622 208.357 30.101C208.357 30.4398 208.631 30.7145 208.97 30.7145Z" fill="#0F1011"/>
<path d="M207.864 28.8229C207.789 28.8225 207.717 28.7928 207.663 28.74C207.61 28.6871 207.579 28.6154 207.577 28.5402C207.576 28.4649 207.604 28.3921 207.655 28.3372C207.707 28.2824 207.778 28.2498 207.853 28.2466L209.476 28.1817C209.514 28.1802 209.551 28.1862 209.587 28.1993C209.623 28.2124 209.655 28.2323 209.683 28.258C209.711 28.2837 209.733 28.3146 209.749 28.349C209.765 28.3834 209.774 28.4206 209.775 28.4584C209.777 28.4962 209.771 28.534 209.758 28.5696C209.745 28.6051 209.725 28.6377 209.699 28.6655C209.673 28.6933 209.643 28.7158 209.608 28.7317C209.574 28.7476 209.537 28.7565 209.499 28.758L207.876 28.8226L207.864 28.8229Z" fill="#0F1011"/>
<path d="M215.101 29.2175C215.081 29.2176 215.061 29.2155 215.041 29.2113L213.43 28.8696C213.392 28.8622 213.357 28.8475 213.325 28.8262C213.293 28.8049 213.266 28.7775 213.245 28.7456C213.224 28.7138 213.21 28.678 213.203 28.6405C213.195 28.603 213.196 28.5644 213.204 28.527C213.212 28.4897 213.227 28.4543 213.249 28.4228C213.27 28.3914 213.298 28.3646 213.33 28.344C213.362 28.3234 213.398 28.3094 213.436 28.3029C213.473 28.2963 213.512 28.2972 213.549 28.3056L215.161 28.6473C215.231 28.6621 215.293 28.7021 215.335 28.7597C215.376 28.8172 215.396 28.8883 215.388 28.9591C215.381 29.0299 215.347 29.0955 215.295 29.1432C215.242 29.1909 215.173 29.2174 215.102 29.2175H215.101Z" fill="#0F1011"/>
<path d="M217.046 31.7793C217.008 32.4684 217.246 33.1443 217.706 33.6581C218.167 34.1719 218.812 34.4817 219.501 34.5193C220.189 34.5568 220.864 34.319 221.378 33.8583C221.891 33.3975 222.201 32.7515 222.238 32.0624C222.316 30.6275 221.22 29.3305 219.784 29.3231C217.929 29.3133 217.124 30.3444 217.046 31.7793Z" fill="#E2B764"/>
<g opacity="0.15">
<path d="M211.183 33.8427C211.164 33.8427 211.145 33.8401 211.126 33.8351L209.638 33.422C209.61 33.414 209.583 33.3999 209.56 33.3807C209.537 33.3615 209.518 33.3376 209.505 33.3106C209.492 33.2836 209.484 33.2541 209.483 33.2241C209.483 33.1941 209.488 33.1642 209.5 33.1365L210.411 30.9484C210.432 30.8966 210.473 30.8555 210.525 30.8341C210.577 30.8127 210.635 30.8128 210.687 30.8343C210.739 30.8559 210.78 30.8971 210.801 30.9489C210.823 31.0008 210.822 31.059 210.801 31.1108L209.981 33.0782L211.238 33.4272C211.287 33.4411 211.33 33.4722 211.358 33.515C211.386 33.5577 211.398 33.6091 211.391 33.6597C211.384 33.7104 211.359 33.7568 211.321 33.7906C211.282 33.8243 211.233 33.843 211.182 33.8433L211.183 33.8427Z" fill="black"/>
</g>
<path d="M213.665 35.2045C213.665 35.2045 211.409 35.5054 209.808 34.9942C209.808 34.9942 209.863 36.4851 211.656 36.5831C213.449 36.681 213.665 35.2045 213.665 35.2045Z" fill="white"/>
<path d="M177.163 47.388C177.163 47.388 177.633 43.8887 178.223 43.823C179.207 43.7136 180.066 48.4504 180.487 49.4908L175.864 50.9561" fill="#E2B764"/>
<path d="M172.812 40.0239C171.394 40.4705 171.74 44.9491 173.333 48.8858C174.927 52.8225 177.337 55.5626 178.715 55.0038C180.093 54.445 179.917 50.7999 178.325 46.8621C176.732 42.9243 175.864 39.0628 172.812 40.0239Z" fill="#E2B764"/>
<path d="M186.371 77.2002C185.499 77.2003 184.647 76.9368 183.928 76.4442C183.208 75.9516 182.654 75.2529 182.338 74.4396L172.812 49.9167L180.876 46.7787L187.755 64.488L202.594 46.8014L209.221 52.3688L189.683 75.6546C189.277 76.1385 188.77 76.5277 188.198 76.7947C187.626 77.0617 187.002 77.2001 186.371 77.2002Z" fill="#07648D"/>
<path d="M231.864 72.0715C231.858 74.5618 232.218 77.0395 232.933 79.4247H201.621C202.065 76.4664 202.258 73.4759 202.198 70.4851C202.071 59.4673 196.284 44.4699 209.451 43.9043C209.7 43.892 210.102 43.8837 210.617 43.8769C210.72 46.0615 224.234 46.0533 224.521 43.8236C228.338 43.8277 231.47 44.9997 233.285 46.8158C234.13 47.6483 234.78 48.6593 235.185 49.775C236.843 54.337 234.378 60.2066 232.879 65.8014C232.298 67.9611 231.864 70.0841 231.864 72.0715Z" fill="#07648D"/>
<path d="M210.618 43.8766C210.721 46.0609 211.908 49.2737 215.57 49.516C220.451 49.8377 224.236 46.053 224.522 43.825H224.51C219.705 43.825 213.42 43.8329 210.618 43.8766Z" fill="#E2B764"/>
<path d="M246.071 79.4252H237.344L236.661 74.3223L232.881 65.8009L227.32 53.2738L235.186 49.7728L235.227 49.7564L244.819 71.3738C244.985 71.7494 245.097 72.1468 245.151 72.554L246.071 79.4252Z" fill="#07648D"/>
<path d="M214.837 75.9571C216.62 75.9571 218.066 74.5101 218.066 72.7252C218.066 70.9403 216.62 69.4933 214.837 69.4933C213.054 69.4933 211.608 70.9403 211.608 72.7252C211.608 74.5101 213.054 75.9571 214.837 75.9571Z" fill="#FD5D76"/>
<path d="M216.427 73.7227H215.643C215.542 73.7227 215.445 73.6824 215.373 73.6106C215.301 73.5388 215.261 73.4414 215.261 73.3398V72.8084C215.261 72.7117 215.297 72.6187 215.363 72.548C215.191 72.5104 215.015 72.4927 214.839 72.4952C214.652 72.4922 214.466 72.5124 214.285 72.5551C214.321 72.5906 214.349 72.6329 214.368 72.6793C214.387 72.7258 214.397 72.7756 214.397 72.8259V73.3398C214.397 73.4414 214.357 73.5388 214.285 73.6106C214.213 73.6824 214.116 73.7227 214.014 73.7227H213.249C213.148 73.7227 213.051 73.6824 212.979 73.6106C212.907 73.5388 212.867 73.4414 212.867 73.3398C212.867 72.3458 213.623 71.7282 214.84 71.7282C216.057 71.7282 216.813 72.3458 216.813 73.3398C216.813 73.3904 216.803 73.4405 216.784 73.4872C216.764 73.5339 216.736 73.5762 216.7 73.6118C216.664 73.6474 216.621 73.6756 216.574 73.6946C216.528 73.7136 216.477 73.7232 216.427 73.7227Z" fill="white"/>
<path d="M206.211 75.0104C207.472 75.0104 208.495 73.9873 208.495 72.7252C208.495 71.4631 207.472 70.44 206.211 70.44C204.95 70.44 203.928 71.4631 203.928 72.7252C203.928 73.9873 204.95 75.0104 206.211 75.0104Z" fill="#8DDBE0"/>
<path d="M206.212 73.4593C206.071 73.4592 205.936 73.4032 205.837 73.3037C205.737 73.2042 205.681 73.0692 205.681 72.9284V71.9131C205.681 71.7722 205.737 71.6371 205.836 71.5375C205.936 71.4379 206.071 71.382 206.212 71.382C206.352 71.382 206.487 71.4379 206.587 71.5375C206.686 71.6371 206.742 71.7722 206.742 71.9131V72.9284C206.742 73.0692 206.686 73.2041 206.587 73.3036C206.487 73.4031 206.352 73.4591 206.212 73.4593Z" fill="white"/>
<path d="M206.212 74.0135C206.198 74.0135 206.184 74.0107 206.171 74.0053C206.158 73.9999 206.146 73.992 206.136 73.982C206.126 73.972 206.118 73.9601 206.112 73.947C206.107 73.9339 206.104 73.9198 206.104 73.9057V72.9361C206.104 72.9075 206.116 72.8801 206.136 72.8599C206.156 72.8397 206.183 72.8283 206.212 72.8283C206.24 72.8283 206.268 72.8397 206.288 72.8599C206.308 72.8801 206.32 72.9075 206.32 72.9361V73.9057C206.32 73.9343 206.308 73.9617 206.288 73.9819C206.268 74.0021 206.24 74.0135 206.212 74.0135Z" fill="white"/>
<path d="M206.696 74.0682H205.727C205.699 74.0682 205.671 74.0568 205.651 74.0366C205.631 74.0164 205.62 73.989 205.62 73.9604C205.62 73.9318 205.631 73.9044 205.651 73.8842C205.671 73.864 205.699 73.8526 205.727 73.8526H206.696C206.725 73.8526 206.752 73.864 206.772 73.8842C206.792 73.9044 206.804 73.9318 206.804 73.9604C206.804 73.989 206.792 74.0164 206.772 74.0366C206.752 74.0568 206.725 74.0682 206.696 74.0682Z" fill="white"/>
<path d="M223.462 75.0104C224.723 75.0104 225.745 73.9873 225.745 72.7252C225.745 71.4631 224.723 70.44 223.462 70.44C222.201 70.44 221.179 71.4631 221.179 72.7252C221.179 73.9873 222.201 75.0104 223.462 75.0104Z" fill="#FFBC78"/>
<path d="M224.12 71.979H222.279V73.4716H224.12V71.979Z" fill="white"/>
<path d="M224.646 73.3504L223.993 72.6973L224.646 72.0439" fill="white"/>
<path d="M264.543 85.9048H165.302V152.071H264.543V85.9048Z" fill="#F3F5FD"/>
<path d="M171.338 151.209C172.114 151.429 172.868 151.717 173.593 152.071H168.663C168.672 152.008 168.687 151.947 168.709 151.888C168.81 151.657 168.969 151.457 169.171 151.308C169.373 151.159 169.61 151.065 169.86 151.037C170.044 151.011 170.23 151.006 170.415 151.023C170.417 151.023 170.417 151.023 170.417 151.021C170.702 151.05 170.984 151.106 171.259 151.187C171.286 151.196 171.314 151.2 171.338 151.209Z" fill="#DEE8F5"/>
<path d="M191.337 149.809C191.032 150.603 190.641 151.361 190.173 152.071H175.765C175.659 151.906 175.538 151.752 175.405 151.609C175.179 151.371 174.931 151.156 174.664 150.966C174.312 150.709 173.934 150.476 173.565 150.241C172.192 149.365 170.891 148.381 169.674 147.298C168.805 146.524 167.958 145.665 167.545 144.577C167.434 144.332 167.372 144.069 167.364 143.801C167.356 143.532 167.4 143.265 167.496 143.015C167.868 142.219 168.925 141.997 169.789 142.161C171.303 142.451 172.513 143.562 173.587 144.67C174.476 145.591 175.473 146.609 176.752 146.666C176.97 146.686 177.189 146.642 177.383 146.54C177.553 146.411 177.677 146.23 177.736 146.025C177.795 145.819 177.786 145.6 177.711 145.4C177.549 145.004 177.303 144.649 176.99 144.358C175.301 142.544 173.642 140.66 172.546 138.439C171.45 136.218 170.964 133.598 171.726 131.243C171.928 130.543 172.3 129.904 172.808 129.383C173.065 129.125 173.375 128.926 173.716 128.802C174.058 128.678 174.422 128.63 174.784 128.663C175.763 128.792 176.498 129.618 176.995 130.471C178.7 133.401 178.594 136.989 179.075 140.342C179.209 141.283 179.405 142.246 179.963 143.02C180.015 143.095 180.082 143.157 180.16 143.203C180.619 143.469 181.031 142.93 181.206 142.476C181.504 141.688 181.704 140.849 181.933 140.033C182.141 139.212 182.457 138.422 182.873 137.684C182.997 137.485 183.132 137.295 183.278 137.112C183.742 136.546 184.404 136.07 185.136 136.073C186.035 136.081 186.803 136.831 187.063 137.689C187.322 138.548 187.169 139.481 186.888 140.334C186.331 141.909 185.463 143.354 184.335 144.585C183.756 145.244 183.1 145.909 182.925 146.77C182.872 147.063 182.895 147.364 182.991 147.645C183.086 147.926 183.252 148.179 183.472 148.378C183.575 148.468 183.695 148.536 183.825 148.579C183.955 148.621 184.093 148.637 184.229 148.625C184.521 148.576 184.799 148.466 185.046 148.302C185.155 148.239 185.262 148.179 185.371 148.116C185.8 147.872 186.229 147.628 186.658 147.383C187.749 146.759 189.063 146.125 190.2 146.661C190.481 146.804 190.727 147.006 190.924 147.252C191.12 147.499 191.261 147.785 191.337 148.091C191.498 148.652 191.498 149.248 191.337 149.809Z" fill="#DEE8F5"/>
<path d="M242.841 101.021C245.896 101.021 248.372 98.5422 248.372 95.4848C248.372 92.4273 245.896 89.9488 242.841 89.9488C239.786 89.9488 237.31 92.4273 237.31 95.4848C237.31 98.5422 239.786 101.021 242.841 101.021Z" fill="#C1D8ED"/>
<path d="M241.714 101.021C244.769 101.021 247.245 98.5422 247.245 95.4848C247.245 92.4273 244.769 89.9488 241.714 89.9488C238.659 89.9488 236.183 92.4273 236.183 95.4848C236.183 98.5422 238.659 101.021 241.714 101.021Z" fill="#DEE8F5"/>
<path d="M241.714 100.205C244.318 100.205 246.43 98.0917 246.43 95.4848C246.43 92.8778 244.318 90.7644 241.714 90.7644C239.109 90.7644 236.998 92.8778 236.998 95.4848C236.998 98.0917 239.109 100.205 241.714 100.205Z" fill="#F3F5FD"/>
<path d="M241.714 95.9202C241.674 95.9203 241.635 95.9096 241.6 95.8893C241.566 95.8694 241.538 95.841 241.518 95.8068C241.499 95.7727 241.489 95.734 241.489 95.6946V92.2067C241.489 92.1468 241.512 92.0894 241.555 92.0471C241.597 92.0048 241.654 91.981 241.714 91.981C241.774 91.981 241.831 92.0048 241.873 92.0471C241.916 92.0894 241.939 92.1468 241.939 92.2067V95.3089L243.88 94.2176C243.906 94.2021 243.934 94.1921 243.964 94.1879C243.994 94.1837 244.024 94.1856 244.053 94.1934C244.082 94.2011 244.11 94.2146 244.133 94.2331C244.157 94.2515 244.177 94.2746 244.192 94.3008C244.206 94.3271 244.216 94.3561 244.219 94.386C244.223 94.4159 244.22 94.4462 244.211 94.4751C244.203 94.504 244.189 94.5309 244.17 94.5542C244.151 94.5775 244.127 94.5968 244.101 94.6109L241.825 95.8912C241.791 95.9103 241.753 95.9203 241.714 95.9202Z" fill="#DEE8F5"/>
<path d="M248.586 142.366L248.329 143.619L246.599 152.071H245.809L247.547 143.619L247.881 141.992L248.586 142.366Z" fill="#C1D8ED"/>
<path d="M259.112 152.071H258.325L256.593 143.619L256.33 142.342L257.038 141.967L257.377 143.619L259.112 152.071Z" fill="#C1D8ED"/>
<path d="M259.796 140.794H245.121C244.75 140.794 244.449 141.095 244.449 141.466V142.947C244.449 143.318 244.75 143.619 245.121 143.619H259.796C260.167 143.619 260.468 143.318 260.468 142.947V141.466C260.468 141.095 260.167 140.794 259.796 140.794Z" fill="#DEE8F5"/>
<path d="M256.747 130.741C256.153 130.546 255.543 130.765 254.959 131.209C255.728 129.267 256.045 127.512 254.732 127.434C253.812 127.379 253.108 128.085 252.573 129.088C252.384 127.324 251.899 126.008 250.812 126.444C249.618 126.923 249.436 128.565 249.617 130.282C249.091 129.405 248.524 128.915 248.011 129.43C246.476 130.966 250.243 135.295 250.243 135.295H251.178L251.712 135.875C251.604 136.104 251.545 136.239 251.545 136.239L252.223 137.621C252.223 137.621 259.213 131.549 256.747 130.741Z" fill="#DEE8F5"/>
<path d="M255.07 140.713H249.776L248.889 134.528H255.956L255.07 140.713Z" fill="#C1D8ED"/>
<path d="M236.255 148.292H209.826L212.039 128.225C212.154 127.567 212.498 126.97 213.009 126.539C213.521 126.109 214.167 125.873 214.835 125.873H235.503C235.917 125.873 236.326 125.964 236.701 126.139C237.076 126.314 237.409 126.569 237.675 126.886C237.942 127.203 238.135 127.575 238.243 127.975C238.351 128.375 238.37 128.793 238.299 129.202L236.255 148.292Z" fill="#C1D8ED"/>
<path d="M232.645 138.844C232.645 138.844 232.514 143.502 232.243 148.291C232.172 149.571 232.09 150.859 231.998 152.071H191.487V141.847C191.487 141.051 191.802 140.287 192.364 139.724C192.927 139.161 193.689 138.844 194.485 138.844H232.645Z" fill="#F3F5FD"/>
<path d="M221.755 138.844V152.071H197.898V141.847C197.898 141.452 197.976 141.062 198.126 140.698C198.277 140.333 198.498 140.002 198.777 139.723C199.055 139.444 199.386 139.223 199.75 139.072C200.114 138.921 200.504 138.844 200.899 138.844H221.755Z" fill="#DEE8F5"/>
<path d="M230.947 148.292H204.517L206.73 128.225C206.845 127.567 207.189 126.97 207.7 126.539C208.212 126.109 208.858 125.873 209.526 125.873H230.195C230.609 125.873 231.018 125.964 231.393 126.139C231.769 126.314 232.101 126.569 232.367 126.886C232.634 127.203 232.828 127.575 232.935 127.975C233.043 128.375 233.062 128.793 232.991 129.202L230.947 148.292Z" fill="#DEE8F5"/>
<path d="M227.117 150.484V152.071H192.533V150.484C192.533 150.196 192.59 149.911 192.7 149.645C192.81 149.379 192.972 149.137 193.175 148.933C193.379 148.73 193.62 148.568 193.886 148.458C194.152 148.348 194.437 148.291 194.725 148.291H224.925C225.213 148.291 225.498 148.348 225.764 148.458C226.03 148.568 226.271 148.73 226.475 148.933C226.678 149.137 226.84 149.379 226.95 149.645C227.06 149.911 227.117 150.196 227.117 150.484Z" fill="white"/>
<path d="M238.455 138.844V152.071H220.946V141.847C220.946 141.452 221.024 141.062 221.174 140.698C221.325 140.333 221.546 140.002 221.825 139.723C222.103 139.444 222.434 139.223 222.798 139.072C223.162 138.921 223.553 138.844 223.947 138.844H238.455Z" fill="#F3F5FD"/>
<path d="M242.305 141.661V152.071H227.357V141.847C227.357 141.452 227.435 141.062 227.586 140.698C227.736 140.333 227.957 140.002 228.236 139.723C228.515 139.444 228.845 139.223 229.209 139.072C229.574 138.921 229.964 138.844 230.358 138.844H239.491C240.237 138.844 240.953 139.14 241.481 139.669C242.009 140.197 242.305 140.914 242.305 141.661Z" fill="#DEE8F5"/>
<path d="M185.676 112.941H185.363V120.684H185.676V112.941Z" fill="#C1D8ED"/>
<path d="M185.519 121.711C185.925 121.711 186.254 121.382 186.254 120.976C186.254 120.571 185.925 120.242 185.519 120.242C185.114 120.242 184.785 120.571 184.785 120.976C184.785 121.382 185.114 121.711 185.519 121.711Z" fill="#C1D8ED"/>
<path d="M182.933 108.092L182.914 117.594L182.873 137.684L182.843 152.071H181.909L181.933 140.033L181.98 117.594L181.999 108.092H182.933Z" fill="#C1D8ED"/>
<path d="M189.333 117.594H175.203L177.857 104.338H186.679L189.333 117.594Z" fill="#DEE8F5"/>
<path d="M190.936 151.321C190.287 151.321 189.648 151.163 189.073 150.861C188.499 150.558 188.007 150.121 187.639 149.586C187.271 149.051 187.038 148.435 186.961 147.79C186.884 147.145 186.964 146.491 187.195 145.884L195.081 125.185L200.643 127.308L203.926 122.832L210.383 127.576L194.165 149.685C193.793 150.192 193.307 150.605 192.746 150.889C192.185 151.174 191.565 151.322 190.936 151.321Z" fill="#00BDE3"/>
<path d="M237.737 151.339C237.288 151.684 236.774 151.933 236.225 152.071H234.184C233.833 151.982 233.495 151.847 233.178 151.67L232.061 151.046C232.187 151.396 232.305 151.736 232.412 152.071H199.492C200.102 149.404 201.195 145.599 201.109 138.393C200.988 127.804 195.425 116.824 208.082 116.279C208.321 116.267 208.707 116.261 209.202 116.252C209.301 118.35 222.292 118.344 222.567 116.201C226.236 116.205 229.245 117.331 230.988 119.076C232.132 120.153 232.912 121.561 233.218 123.104L239.238 147.019C239.436 147.807 239.4 148.636 239.133 149.404C238.866 150.172 238.381 150.844 237.737 151.339Z" fill="#00BDE3"/>
<path d="M209.202 116.252C209.301 118.352 210.442 121.44 213.962 121.673C218.653 121.982 222.292 118.344 222.567 116.203H222.555C217.936 116.203 211.895 116.21 209.202 116.252Z" fill="#BB6751"/>
<path d="M204.568 123.405C204.766 123.673 204.598 124.054 203.527 125.183C202.859 125.889 202.043 126.87 201.44 127.611L195.982 125.527C196.371 123.916 196.993 121.694 197.573 121.19C198.502 120.381 201.948 121.938 201.948 121.938C201.948 121.938 202.321 120.793 202.81 119.609C203.37 118.247 204.083 116.83 204.549 117.063C204.999 117.288 204.667 118.697 204.152 120.209C203.492 122.156 202.527 124.271 202.527 124.271C202.527 124.271 204.079 122.754 204.568 123.405Z" fill="#BB6751"/>
<path d="M205.125 135.408L209.748 134.67C209.93 134.64 210.104 134.573 210.258 134.472C210.412 134.371 210.543 134.239 210.642 134.084C210.742 133.929 210.807 133.754 210.835 133.572C210.862 133.39 210.851 133.204 210.801 133.026L207.892 122.578C207.806 122.268 207.609 122.001 207.339 121.828C207.069 121.654 206.744 121.586 206.427 121.637L201.804 122.375C201.622 122.405 201.448 122.472 201.294 122.573C201.14 122.674 201.009 122.806 200.91 122.961C200.81 123.116 200.745 123.291 200.717 123.473C200.69 123.655 200.701 123.841 200.751 124.019L203.66 134.467C203.746 134.777 203.943 135.044 204.213 135.217C204.483 135.391 204.808 135.459 205.125 135.408Z" fill="#C1D8ED"/>
<path d="M212.571 132.669L209.844 136.372C209.844 136.372 202.514 134.902 201.827 129.251C201.748 128.6 201.816 126.8 202.622 127.041C204.718 127.671 207.33 130.892 209.161 131.321C208.743 130.572 208.233 129.516 208.562 129.322C209.426 128.813 211.751 131.881 212.571 132.669Z" fill="#BB6751"/>
<path d="M205.616 94.7386C205.616 94.7386 202.677 105.28 201.025 110.75C200.947 111.009 200.931 111.283 200.977 111.549C201.024 111.816 201.132 112.068 201.293 112.285C201.455 112.503 201.665 112.679 201.907 112.801C202.148 112.922 202.415 112.985 202.686 112.985H213.001C213.446 112.985 213.875 112.813 214.197 112.505C214.52 112.197 214.711 111.777 214.732 111.332L215.428 96.6579L205.616 94.7386Z" fill="#0F1011"/>
<path d="M221.425 118.186C221.425 118.186 218.425 116.598 219.087 108.425L212.891 107.28C212.891 107.28 213.593 114.607 210.461 116.936L221.425 118.186Z" fill="#BB6751"/>
<g opacity="0.15">
<path d="M211.729 115.404L216.873 111.458L212.831 111.419C212.715 112.804 212.341 114.156 211.729 115.404Z" fill="black"/>
</g>
<path d="M222.6 105.253C222.173 107.733 220.824 110.082 218.637 110.885C216.256 111.834 213.679 112.185 211.132 111.907C204.349 111.357 205.677 95.9205 208.894 92.9194C212.111 89.9184 221.563 91.8087 222.717 96.822C223.315 99.4152 223.006 102.895 222.6 105.253Z" fill="#BB6751"/>
<path d="M212.895 103.352C213.205 103.352 213.457 103.1 213.457 102.79C213.457 102.479 213.205 102.227 212.895 102.227C212.585 102.227 212.333 102.479 212.333 102.79C212.333 103.1 212.585 103.352 212.895 103.352Z" fill="#0F1011"/>
<path d="M208.462 102.992C208.772 102.992 209.024 102.74 209.024 102.43C209.024 102.119 208.772 101.867 208.462 101.867C208.152 101.867 207.9 102.119 207.9 102.43C207.9 102.74 208.152 102.992 208.462 102.992Z" fill="#0F1011"/>
<path d="M207.487 101.232C207.418 101.231 207.353 101.202 207.305 101.153C207.257 101.104 207.23 101.039 207.229 100.97C207.229 100.901 207.255 100.835 207.303 100.785C207.35 100.736 207.415 100.706 207.483 100.704L208.972 100.684H208.976C209.045 100.685 209.11 100.714 209.158 100.763C209.206 100.812 209.233 100.877 209.234 100.946C209.234 101.015 209.208 101.081 209.161 101.131C209.113 101.18 209.048 101.21 208.98 101.212L207.491 101.232H207.487Z" fill="#0F1011"/>
<path d="M214.107 101.77C214.086 101.77 214.065 101.767 214.045 101.762L212.577 101.41C212.543 101.403 212.51 101.389 212.481 101.369C212.452 101.349 212.427 101.323 212.408 101.293C212.389 101.263 212.376 101.23 212.37 101.195C212.364 101.16 212.366 101.124 212.374 101.09C212.382 101.055 212.397 101.023 212.418 100.994C212.439 100.966 212.466 100.942 212.496 100.924C212.527 100.906 212.56 100.894 212.595 100.889C212.63 100.884 212.666 100.887 212.7 100.896L214.168 101.248C214.231 101.263 214.286 101.301 214.323 101.354C214.36 101.407 214.376 101.472 214.368 101.536C214.361 101.6 214.33 101.659 214.282 101.703C214.234 101.746 214.171 101.769 214.107 101.77Z" fill="#0F1011"/>
<path d="M212.639 107.218C212.639 107.218 210.566 107.439 209.111 106.932C209.111 106.932 209.123 108.3 210.765 108.433C212.406 108.566 212.639 107.218 212.639 107.218Z" fill="white"/>
<g opacity="0.15">
<path d="M210.404 105.911C210.45 105.911 210.495 105.895 210.53 105.864C210.565 105.834 210.589 105.792 210.595 105.746C210.602 105.7 210.592 105.653 210.568 105.614C210.543 105.574 210.505 105.545 210.46 105.532L209.317 105.181L210.115 103.399C210.135 103.352 210.136 103.299 210.117 103.252C210.098 103.205 210.062 103.167 210.016 103.147C209.97 103.126 209.917 103.124 209.87 103.142C209.822 103.159 209.783 103.195 209.762 103.24L208.784 105.424L210.347 105.903C210.365 105.909 210.384 105.911 210.404 105.911Z" fill="black"/>
</g>
<path d="M205.263 96.0023C205.263 96.0023 206.256 87.9631 219.126 89.9376C222.335 90.4299 226.882 92.937 227.619 101.154C227.956 104.924 229.254 108.478 230.244 110.727C230.361 110.991 230.411 111.281 230.388 111.569C230.365 111.857 230.271 112.134 230.114 112.377C229.956 112.619 229.741 112.818 229.487 112.956C229.234 113.094 228.95 113.167 228.661 113.167L219.614 113.17C219.155 113.171 218.714 112.989 218.389 112.665C218.064 112.34 217.881 111.9 217.88 111.441C217.88 111.415 217.88 111.389 217.881 111.364C217.946 109.823 217.998 107.213 217.91 103.225C217.44 100.949 218.692 99.3438 216.874 99.867C210.119 101.806 205.77 96.1325 205.263 96.0023Z" fill="#0F1011"/>
<path d="M215.735 105.211C215.684 105.841 215.885 106.466 216.294 106.948C216.703 107.43 217.287 107.729 217.917 107.78C218.546 107.831 219.171 107.63 219.652 107.22C220.133 106.811 220.433 106.227 220.484 105.596C220.544 104.978 220.357 104.36 219.963 103.879C219.568 103.399 218.999 103.095 218.381 103.034C218.354 103.031 218.328 103.029 218.302 103.028C216.604 102.972 215.841 103.898 215.735 105.211Z" fill="#BB6751"/>
<path d="M214.922 148.63C216.706 148.63 218.151 147.183 218.151 145.398C218.151 143.613 216.706 142.166 214.922 142.166C213.139 142.166 211.693 143.613 211.693 145.398C211.693 147.183 213.139 148.63 214.922 148.63Z" fill="#FD5D76"/>
<path d="M216.512 146.395H215.728C215.626 146.395 215.529 146.355 215.457 146.283C215.385 146.211 215.345 146.114 215.345 146.012V145.48C215.345 145.384 215.382 145.291 215.447 145.22C215.275 145.182 215.099 145.165 214.923 145.167C214.736 145.164 214.551 145.184 214.369 145.227C214.441 145.299 214.481 145.396 214.481 145.498V146.012C214.481 146.113 214.441 146.211 214.369 146.283C214.297 146.354 214.2 146.395 214.098 146.395H213.333C213.232 146.395 213.134 146.354 213.063 146.283C212.991 146.211 212.951 146.113 212.951 146.012C212.951 145.018 213.707 144.4 214.924 144.4C216.141 144.4 216.897 145.018 216.897 146.012C216.897 146.062 216.887 146.112 216.868 146.159C216.849 146.206 216.82 146.248 216.784 146.284C216.749 146.319 216.706 146.348 216.66 146.367C216.613 146.386 216.563 146.396 216.512 146.395Z" fill="white"/>
<path d="M206.297 147.683C207.558 147.683 208.58 146.66 208.58 145.398C208.58 144.136 207.558 143.113 206.297 143.113C205.036 143.113 204.014 144.136 204.014 145.398C204.014 146.66 205.036 147.683 206.297 147.683Z" fill="#8DDBE0"/>
<path d="M206.297 146.132C206.157 146.132 206.022 146.076 205.922 145.976C205.823 145.877 205.767 145.742 205.767 145.601V144.586C205.767 144.445 205.823 144.31 205.922 144.21C206.022 144.111 206.157 144.055 206.297 144.055C206.438 144.055 206.573 144.111 206.673 144.21C206.772 144.31 206.828 144.445 206.828 144.586V145.601C206.828 145.742 206.772 145.877 206.672 145.976C206.573 146.076 206.438 146.132 206.297 146.132Z" fill="white"/>
<path d="M206.297 146.687C206.269 146.686 206.242 146.675 206.222 146.655C206.202 146.635 206.19 146.607 206.19 146.579V145.609C206.19 145.581 206.201 145.553 206.221 145.533C206.241 145.513 206.269 145.502 206.297 145.502C206.326 145.502 206.353 145.513 206.374 145.533C206.394 145.553 206.405 145.581 206.405 145.609V146.579C206.405 146.608 206.394 146.635 206.374 146.655C206.353 146.675 206.326 146.687 206.297 146.687Z" fill="white"/>
<path d="M206.782 146.741H205.813C205.784 146.741 205.757 146.73 205.737 146.71C205.716 146.69 205.705 146.662 205.705 146.634C205.705 146.605 205.716 146.578 205.737 146.557C205.757 146.537 205.784 146.526 205.813 146.526H206.782C206.81 146.526 206.837 146.537 206.858 146.557C206.878 146.578 206.889 146.605 206.889 146.634C206.889 146.662 206.878 146.69 206.858 146.71C206.837 146.73 206.81 146.741 206.782 146.741Z" fill="white"/>
<path d="M223.548 147.683C224.809 147.683 225.831 146.66 225.831 145.398C225.831 144.136 224.809 143.113 223.548 143.113C222.287 143.113 221.264 144.136 221.264 145.398C221.264 146.66 222.287 147.683 223.548 147.683Z" fill="#FFBC78"/>
<path d="M224.205 144.651H222.364V146.144H224.205V144.651Z" fill="white"/>
<path d="M224.731 146.023L224.078 145.37L224.731 144.717" fill="white"/>
<path d="M157.748 85.9046H58.5073V152.071H157.748V85.9046Z" fill="#F3F5FD"/>
<path d="M84.765 102.985H70.3796V117.383H84.765V102.985Z" fill="#DEE8F5"/>
<path d="M83.7732 103.978H71.3713V116.391H83.7732V103.978Z" fill="white"/>
<path d="M73.8801 106.805V111.514L78.5592 106.831L73.8801 106.805Z" fill="#F3F5FD"/>
<path d="M78.0843 113.563C79.535 113.563 80.711 112.386 80.711 110.934C80.711 109.482 79.535 108.305 78.0843 108.305C76.6336 108.305 75.4575 109.482 75.4575 110.934C75.4575 112.386 76.6336 113.563 78.0843 113.563Z" fill="#C1D8ED"/>
<path d="M101.302 91.2778H87.2996V108.301H101.302V91.2778Z" fill="#DEE8F5"/>
<path d="M100.129 92.4514H88.4722V107.127H100.129V92.4514Z" fill="white"/>
<path d="M96.932 94.8108H90.698V102.11H96.932V94.8108Z" fill="#DEE8F5"/>
<path d="M96.5997 100.256H96.5994C95.3547 100.256 94.3457 101.266 94.3457 102.512V102.512C94.3457 103.758 95.3547 104.768 96.5994 104.768H96.5997C97.8444 104.768 98.8534 103.758 98.8534 102.512V102.512C98.8534 101.266 97.8444 100.256 96.5997 100.256Z" fill="#C1D8ED"/>
<path d="M98.8531 97.9951H93.8149V98.9907H98.8531V97.9951Z" fill="#F3F5FD"/>
<path d="M101.812 111.506H90.0671V123.261H101.812V111.506Z" fill="#DEE8F5"/>
<path d="M100.854 112.464H91.0242V122.302H100.854V112.464Z" fill="white"/>
<path d="M99.408 113.648H96.9067V121.033H99.408V113.648Z" fill="#DEE8F5"/>
<path d="M95.6809 113.648L92.354 116.978H98.9711L95.6809 113.648Z" fill="#C1D8ED"/>
<path d="M98.1817 118.4H93.1436V119.396H98.1817V118.4Z" fill="#F3F5FD"/>
<path d="M149.248 149.145C149.248 149.145 148.784 131.925 144.317 131.637C139.85 131.349 147.978 150.262 147.978 150.262" fill="#DEE8F5"/>
<path d="M149.447 147.968C149.447 147.968 155.015 135.578 151.308 133.068C147.601 130.558 147.788 148.288 147.788 148.288" fill="#C1D8ED"/>
<path d="M150.613 146.901H145.606V152.071H150.613V146.901Z" fill="#C1D8ED"/>
<path d="M85.406 133.351H61.8577V152.071H85.406V133.351Z" fill="#C1D8ED"/>
<path d="M91.6587 133.351H68.1104V152.071H91.6587V133.351Z" fill="#DEE8F5"/>
<g opacity="0.53">
<path d="M90.3927 134.978H69.3782V141.654H90.3927V134.978Z" fill="#F3F5FD"/>
</g>
<g opacity="0.53">
<path d="M90.3927 143.287H69.3782V149.963H90.3927V143.287Z" fill="#F3F5FD"/>
</g>
<path d="M79.8856 139.25C80.4011 139.25 80.8189 138.832 80.8189 138.316C80.8189 137.8 80.4011 137.382 79.8856 137.382C79.3702 137.382 78.9524 137.8 78.9524 138.316C78.9524 138.832 79.3702 139.25 79.8856 139.25Z" fill="white"/>
<path d="M79.8856 147.56C80.4011 147.56 80.8189 147.141 80.8189 146.625C80.8189 146.11 80.4011 145.691 79.8856 145.691C79.3702 145.691 78.9524 146.11 78.9524 146.625C78.9524 147.141 79.3702 147.56 79.8856 147.56Z" fill="white"/>
<path d="M101.023 118.615C101.023 118.615 103.994 117.038 103.331 108.94L109.47 107.801C109.47 107.801 108.78 115.061 111.886 117.367L101.023 118.615Z" fill="#B78557"/>
<g opacity="0.15">
<path d="M110.628 115.849L105.528 111.944L109.534 111.902C109.687 113.252 110.002 114.7 110.628 115.849Z" fill="black"/>
</g>
<path d="M99.8476 105.8C100.273 108.257 101.612 110.583 103.778 111.377C106.348 112.319 108.252 112.383 111.216 112.383C115.26 112.383 115.127 108.161 115.24 103.907C115.355 99.6359 115.015 95.0542 113.417 93.566C110.226 90.5951 100.861 92.4763 99.7225 97.4453C99.1333 100.015 99.4432 103.461 99.8476 105.8Z" fill="#B78557"/>
<path d="M117.408 96.0351C117.408 96.0351 119.064 95.665 118.611 94.0111C118.31 92.9148 116.907 93.1582 116.907 93.1582C116.907 93.1582 118.235 92.9148 118.235 91.7537C118.235 91.0218 117.674 89.7828 115.979 90.4912C113.991 91.3221 111.724 91.2154 110 90.9252C108.994 90.7559 108.014 90.5202 107.038 90.507H107.033C105.888 90.4873 104.746 90.6401 103.646 90.9605C100.564 91.8834 95.9003 94.6492 96.8918 100.919C97.9986 107.917 101.279 110.593 102.723 111.451C102.808 111.502 102.904 111.534 103.003 111.543C103.103 111.552 103.203 111.538 103.296 111.502C103.389 111.467 103.473 111.411 103.541 111.338C103.61 111.265 103.66 111.178 103.69 111.083C104.1 109.772 104.806 106.472 104.608 99.6674C114.08 99.2024 116.806 99.0613 116.806 99.0613C116.806 99.0613 119.036 99.1447 119.036 97.5142C119.036 95.8838 117.408 96.0351 117.408 96.0351Z" fill="#0F1011"/>
<path d="M109.461 103.907C109.769 103.907 110.018 103.658 110.018 103.35C110.018 103.042 109.769 102.793 109.461 102.793C109.154 102.793 108.905 103.042 108.905 103.35C108.905 103.658 109.154 103.907 109.461 103.907Z" fill="#0F1011"/>
<path d="M113.854 103.547C114.161 103.547 114.41 103.297 114.41 102.989C114.41 102.682 114.161 102.432 113.854 102.432C113.546 102.432 113.297 102.682 113.297 102.989C113.297 103.297 113.546 103.547 113.854 103.547Z" fill="#0F1011"/>
<path d="M114.819 101.803H114.816L113.34 101.784C113.27 101.783 113.204 101.755 113.156 101.705C113.107 101.656 113.081 101.589 113.082 101.519C113.082 101.45 113.111 101.384 113.16 101.335C113.21 101.287 113.277 101.26 113.346 101.261L114.822 101.279C114.89 101.282 114.954 101.311 115.001 101.36C115.048 101.409 115.074 101.474 115.074 101.543C115.074 101.611 115.047 101.676 114.999 101.724C114.952 101.773 114.887 101.801 114.819 101.803L114.819 101.803Z" fill="#0F1011"/>
<path d="M108.26 102.34C108.195 102.34 108.133 102.317 108.085 102.274C108.037 102.232 108.007 102.173 107.999 102.109C107.992 102.045 108.008 101.981 108.044 101.929C108.081 101.876 108.136 101.839 108.198 101.824L109.653 101.474C109.686 101.466 109.721 101.465 109.755 101.47C109.789 101.476 109.821 101.488 109.85 101.506C109.88 101.524 109.905 101.547 109.925 101.575C109.946 101.603 109.96 101.634 109.968 101.668C109.976 101.701 109.978 101.736 109.972 101.77C109.967 101.804 109.955 101.836 109.937 101.866C109.919 101.895 109.896 101.92 109.868 101.941C109.84 101.961 109.809 101.975 109.775 101.983L108.321 102.334C108.301 102.338 108.28 102.34 108.26 102.34Z" fill="#0F1011"/>
<path d="M106.565 104.713C106.616 105.338 106.417 105.957 106.012 106.435C105.607 106.913 105.029 107.21 104.405 107.261C103.781 107.312 103.163 107.113 102.685 106.708C102.208 106.303 101.911 105.724 101.86 105.1C101.829 104.79 101.861 104.476 101.954 104.179C102.046 103.881 102.198 103.605 102.399 103.368C102.601 103.13 102.848 102.935 103.126 102.795C103.404 102.655 103.708 102.572 104.019 102.552C105.702 102.497 106.458 103.413 106.565 104.713Z" fill="#B78557"/>
<g opacity="0.15">
<path d="M111.934 106.441C111.887 106.442 111.842 106.426 111.806 106.396C111.77 106.366 111.746 106.324 111.739 106.278C111.732 106.231 111.743 106.184 111.768 106.145C111.794 106.105 111.833 106.077 111.878 106.065L113.01 105.717L112.218 103.951C112.197 103.905 112.195 103.852 112.213 103.804C112.232 103.756 112.268 103.718 112.314 103.697C112.361 103.676 112.414 103.674 112.461 103.693C112.509 103.711 112.547 103.747 112.568 103.794L113.45 105.758C113.461 105.783 113.467 105.81 113.467 105.837C113.467 105.864 113.461 105.891 113.45 105.916C113.439 105.941 113.422 105.963 113.402 105.981C113.381 105.999 113.357 106.012 113.331 106.02L111.99 106.433C111.972 106.438 111.953 106.441 111.934 106.441Z" fill="black"/>
</g>
<path d="M109.719 107.738C109.719 107.738 111.774 107.955 113.215 107.451C113.215 107.451 113.204 108.806 111.577 108.939C109.95 109.073 109.719 107.738 109.719 107.738Z" fill="white"/>
<path d="M148.787 152.071H136.072C132.809 149.497 129.923 147.202 128.945 146.379L121.636 135.445C121.355 137.568 121.185 139.705 121.128 141.846C121.046 145.276 121.335 148.704 121.988 152.072H91.47C92.5152 149.281 93.0529 146.325 93.0578 143.344C93.0578 141.465 92.6451 139.46 92.0986 137.417L88.5214 145.475L87.6359 152.072H79.3748L80.487 143.804C80.5389 143.418 80.6456 143.041 80.804 142.685L89.8768 122.237L89.9233 122.256C90.3055 121.199 90.9179 120.241 91.716 119.45C93.4294 117.735 96.3918 116.625 100.005 116.622C100.275 118.731 113.062 118.736 113.16 116.671C113.647 116.679 114.026 116.685 114.261 116.696C117.672 116.843 119.735 118.014 120.935 119.849L121.017 119.795L134.999 140.701L148.787 152.071Z" fill="#97D4EA"/>
<path d="M113.159 116.669C113.061 118.736 111.939 121.776 108.474 122.005C103.855 122.309 100.275 118.728 100.004 116.62H100.016C104.562 116.62 110.508 116.627 113.159 116.669Z" fill="#B78557"/>
<path d="M131.954 99.979L130.39 100.883L133.454 106.194L135.018 105.291L131.954 99.979Z" fill="#DEE8F5"/>
<path d="M130.784 100.02H128.979V106.154H130.784V100.02Z" fill="#DEE8F5"/>
<path d="M141.301 98.355H139.495V106.154H141.301V98.355Z" fill="#DEE8F5"/>
<path d="M139.444 100.02H137.638V106.154H139.444V100.02Z" fill="#C1D8ED"/>
<path d="M143.107 99.2319H141.301V106.154H143.107V99.2319Z" fill="#C1D8ED"/>
<path d="M137.61 99.0158H134.726V106.153H137.61V99.0158Z" fill="white"/>
<path d="M146 104.116C146 104.116 145.991 101.065 147.522 100.428C149.054 99.7907 146.761 104.116 146.761 104.116H146Z" fill="#DEE8F5"/>
<path d="M146.761 104.116C146.761 104.116 147.561 98.4045 145.927 98.4045C144.293 98.4045 146 104.116 146 104.116" fill="#DEE8F5"/>
<path d="M146.271 104.367C146.271 104.367 145.505 99.2771 144.137 99.6854C142.77 100.094 145.734 104.527 145.734 104.527L146.271 104.367Z" fill="#DEE8F5"/>
<path d="M147.779 102.585H144.213V106.154H147.779V102.585Z" fill="#C1D8ED"/>
<path d="M149.231 106.154H128.076V106.946H149.231V106.154Z" fill="#DEE8F5"/>
<path d="M108.043 148.614C109.827 148.614 111.272 147.167 111.272 145.383C111.272 143.598 109.827 142.151 108.043 142.151C106.26 142.151 104.814 143.598 104.814 145.383C104.814 147.167 106.26 148.614 108.043 148.614Z" fill="#FD5D76"/>
<path d="M109.633 146.38H108.849C108.747 146.38 108.65 146.34 108.578 146.268C108.507 146.196 108.466 146.099 108.466 145.997V145.466C108.466 145.369 108.503 145.276 108.568 145.205C108.396 145.168 108.22 145.15 108.044 145.153C107.858 145.15 107.672 145.17 107.49 145.212C107.562 145.284 107.602 145.381 107.602 145.483V145.997C107.602 146.099 107.562 146.196 107.49 146.268C107.418 146.34 107.321 146.38 107.22 146.38H106.454C106.353 146.38 106.256 146.34 106.184 146.268C106.112 146.196 106.072 146.099 106.072 145.997C106.072 145.003 106.828 144.385 108.045 144.385C109.262 144.385 110.018 145.003 110.018 145.997C110.018 146.048 110.008 146.098 109.989 146.144C109.969 146.191 109.941 146.233 109.905 146.269C109.87 146.304 109.827 146.332 109.78 146.352C109.734 146.371 109.684 146.38 109.633 146.38Z" fill="white"/>
<path d="M99.418 147.668C100.679 147.668 101.701 146.645 101.701 145.383C101.701 144.12 100.679 143.097 99.418 143.097C98.157 143.097 97.1348 144.12 97.1348 145.383C97.1348 146.645 98.157 147.668 99.418 147.668Z" fill="#8DDBE0"/>
<path d="M99.4184 146.117C99.2777 146.117 99.1428 146.061 99.0433 145.961C98.9438 145.861 98.8878 145.726 98.8877 145.585V144.57C98.8877 144.43 98.9436 144.295 99.0431 144.195C99.1427 144.095 99.2776 144.039 99.4184 144.039C99.5591 144.039 99.6941 144.095 99.7937 144.195C99.8932 144.295 99.9491 144.43 99.9491 144.57V145.585C99.949 145.726 99.893 145.861 99.7935 145.961C99.694 146.061 99.5591 146.117 99.4184 146.117Z" fill="white"/>
<path d="M99.4185 146.672C99.39 146.671 99.3629 146.66 99.3428 146.64C99.3227 146.62 99.3112 146.593 99.3108 146.564V145.595C99.3108 145.566 99.3221 145.539 99.3423 145.518C99.3625 145.498 99.3899 145.487 99.4185 145.487C99.447 145.487 99.4744 145.498 99.4946 145.518C99.5148 145.539 99.5261 145.566 99.5261 145.595V146.564C99.5261 146.593 99.5148 146.62 99.4946 146.64C99.4744 146.661 99.447 146.672 99.4185 146.672Z" fill="white"/>
<path d="M99.9026 146.726H98.9338C98.9053 146.726 98.8779 146.714 98.8577 146.694C98.8375 146.674 98.8262 146.646 98.8262 146.618C98.8262 146.589 98.8375 146.562 98.8577 146.542C98.8779 146.521 98.9053 146.51 98.9338 146.51H99.9026C99.9312 146.51 99.9586 146.521 99.9787 146.542C99.9989 146.562 100.01 146.589 100.01 146.618C100.01 146.646 99.9989 146.674 99.9787 146.694C99.9586 146.714 99.9312 146.726 99.9026 146.726Z" fill="white"/>
<path d="M116.669 147.668C117.93 147.668 118.952 146.645 118.952 145.383C118.952 144.12 117.93 143.097 116.669 143.097C115.408 143.097 114.385 144.12 114.385 145.383C114.385 146.645 115.408 147.668 116.669 147.668Z" fill="#FFBC78"/>
<path d="M117.326 144.636H115.485V146.129H117.326V144.636Z" fill="white"/>
<path d="M117.852 146.008L117.199 145.354L117.852 144.701" fill="white"/>
</g>
<defs>
<clipPath id="clip0_433_2891">
<rect width="325" height="175" fill="white"/>
</clipPath>
</defs>
</svg>
