<svg width="437" height="304" viewBox="0 0 437 304" fill="none" xmlns="http://www.w3.org/2000/svg">
<g clip-path="url(#clip0_433_3245)">
<path opacity="0.2" d="M132.954 41.2711L388.851 105.381L231.373 171.557L132.954 41.2711ZM375.696 271.575L36.8466 245.304L230.96 173.644L375.696 271.575ZM34.4574 244.283L130.892 41.5018L229.645 172.227L34.4574 244.283ZM130.625 38.8482L130.228 38.7474L130.051 39.1182L31.6617 246.011L31.3493 246.668L32.0746 246.725L378.918 273.617L379.309 273.647L379.808 273.686L379.846 273.187L392.555 105.236L392.58 104.906L392.612 104.485L392.203 104.383L130.935 38.9267L130.934 38.9264L130.625 38.8482ZM390.667 106.554L378.215 271.126L232.945 172.832L390.667 106.554Z" fill="#07648D" stroke="#07648D"/>
<path d="M436.386 108.696C436.072 116.661 433.843 124.431 429.89 131.342C425.936 138.254 420.375 144.101 413.683 148.385C406.99 152.668 399.364 155.26 391.457 155.94C383.549 156.62 375.596 155.366 368.276 152.287C364.843 150.842 361.587 149.004 358.572 146.811C352.81 142.633 348.014 137.254 344.512 131.042V131.037C340.779 124.393 338.63 116.97 338.234 109.351C337.839 101.732 339.208 94.1248 342.234 87.127C345.259 80.1293 349.859 73.9315 355.672 69.0206C361.485 64.1098 368.352 60.6197 375.735 58.8244C383.117 57.0292 390.814 56.9778 398.219 58.6743C405.625 60.3708 412.538 63.7689 418.415 68.6017C424.293 73.4345 428.974 79.5703 432.092 86.5271C435.21 93.4838 436.68 101.072 436.385 108.695L436.386 108.696Z" fill="white"/>
<path opacity="0.09" d="M436.386 108.696C436.072 116.661 433.843 124.431 429.89 131.342C425.936 138.254 420.375 144.101 413.683 148.385C406.99 152.668 399.364 155.26 391.457 155.94C383.549 156.62 375.596 155.366 368.276 152.287C364.843 150.842 361.587 149.004 358.572 146.811C352.81 142.633 348.014 137.254 344.512 131.042V131.037C340.779 124.393 338.63 116.97 338.234 109.351C337.839 101.732 339.208 94.1248 342.234 87.127C345.259 80.1293 349.859 73.9315 355.672 69.0206C361.485 64.1098 368.352 60.6197 375.735 58.8244C383.117 57.0292 390.814 56.9778 398.219 58.6743C405.625 60.3708 412.538 63.7689 418.415 68.6017C424.293 73.4345 428.974 79.5703 432.092 86.5271C435.21 93.4838 436.68 101.072 436.385 108.695L436.386 108.696Z" fill="#28A0CB"/>
<path d="M398.911 69.2047C398.911 69.2047 410.656 69.3492 406.607 85.6064L405.504 85.6605L403.265 85.7701" fill="#0C0C0C"/>
<path d="M385.797 102.663C385.851 102.658 386.068 112.798 397.803 112.372C405.927 112.078 409.149 103.559 409.335 103.566C408.469 103.345 407.008 103.016 406.629 102.794C405.38 102.056 403.829 101.278 403.514 98.7739C403.332 97.3305 404.018 90.0102 403.95 88.5547L391.408 90.8575C391.463 93.9287 392.405 101.079 388.094 102.171C387.377 102.351 386.605 102.513 385.797 102.663Z" fill="#B78557"/>
<path d="M390.904 99.3726C391.123 98.7497 391.274 98.1046 391.353 97.4487C391.548 95.9527 391.579 94.4397 391.446 92.9369C393.986 92.6928 396.408 91.7379 398.435 90.1806C398.633 91.0444 399.758 94.8381 399.373 95.6383C398.65 97.1515 395.431 99.5493 390.904 99.3726Z" fill="#0C0C0C"/>
<path d="M393.751 97.581C398.667 97.2277 404.598 94.2212 404.804 87.5295L404.991 81.4927C405.197 74.8022 401.863 69.2695 395.593 69.0748C389.321 68.8784 384.466 74.1578 384.26 80.8484L384.178 83.5211C384.166 84.4396 384.216 85.3579 384.327 86.2695C384.606 88.6803 385.038 92.346 386.619 94.8491C388.11 97.212 390.61 97.806 393.751 97.581Z" fill="#B78557"/>
<path d="M404.352 89.5571C406.258 89.616 407.866 87.6159 407.925 85.7018C407.985 83.7877 406.472 82.6836 404.566 82.6243L403.544 83.8764L402.713 89.506L404.352 89.5571Z" fill="#B78557"/>
<path d="M384.583 88.2901C384.927 88.7001 385.368 89.0172 385.866 89.2123C386.363 89.4075 386.901 89.4746 387.431 89.4075C388.565 89.2642 389.317 89.7314 390.263 89.6376C391.058 89.5591 391.195 89.1904 392.551 89.1099C397.784 88.7985 401.711 88.4672 401.966 81.8712L405.296 78.9001C405.296 78.9001 406.784 97.1782 396.942 99.6078C390.893 101.1 385.221 100.555 384.491 94.8491C383.899 90.2132 384.583 88.2901 384.583 88.2901Z" fill="#0C0C0C"/>
<path d="M387.062 84.4728C387.489 84.4728 387.835 84.1253 387.835 83.6966C387.835 83.2679 387.489 82.9203 387.062 82.9203C386.636 82.9203 386.29 83.2679 386.29 83.6966C386.29 84.1253 386.636 84.4728 387.062 84.4728Z" fill="#0C0C0C"/>
<path d="M393.967 84.3284C394.394 84.3284 394.74 83.9808 394.74 83.5521C394.74 83.1234 394.394 82.7759 393.967 82.7759C393.54 82.7759 393.194 83.1234 393.194 83.5521C393.194 83.9808 393.54 84.3284 393.967 84.3284Z" fill="#0C0C0C"/>
<path d="M402.511 86.4451C402.511 86.4451 402.04 76.9644 399.191 76.3272C397.294 75.9027 392.628 78.5311 388.366 77.6335C386.502 77.2409 384.717 77.6727 384.52 78.5578C384.442 78.908 382.967 75.8018 385.967 72.0223C388.355 69.0131 396.121 68.1666 399.575 69.2307C409.142 72.1778 404.952 83.0487 404.952 83.0487L404.464 86.3053L402.511 86.4451Z" fill="#0C0C0C"/>
<path d="M406.859 78.8004C409.675 78.8004 411.957 76.5077 411.957 73.6796C411.957 70.8515 409.675 68.5588 406.859 68.5588C404.043 68.5588 401.76 70.8515 401.76 73.6796C401.76 76.5077 404.043 78.8004 406.859 78.8004Z" fill="#0C0C0C"/>
<path d="M390.356 89.3329H390.344C389.73 89.3152 388.702 89.2171 388.714 88.7557C388.725 88.3733 389.884 84.275 390.016 83.8085C390.027 83.7684 390.054 83.7345 390.09 83.7142C390.126 83.6939 390.169 83.6889 390.209 83.7003C390.249 83.7117 390.283 83.7386 390.303 83.775C390.323 83.8114 390.328 83.8544 390.317 83.8945C389.802 85.7097 389.035 88.5044 389.027 88.7632C389.084 88.8739 389.717 88.9988 390.353 89.0172C390.394 89.0168 390.434 89.0329 390.464 89.062C390.493 89.0911 390.51 89.1309 390.511 89.1725C390.511 89.2142 390.495 89.2543 390.466 89.2841C390.437 89.3139 390.398 89.3309 390.356 89.3313V89.3329Z" fill="#0C0C0C"/>
<path d="M388.486 81.0593C387.852 80.8705 387.178 80.857 386.537 81.02C386.221 81.0979 385.919 81.2232 385.64 81.3914C385.364 81.5564 385.11 81.7557 384.884 81.9847C384.844 82.02 384.821 82.0695 384.818 82.1224C384.815 82.1752 384.833 82.227 384.868 82.2664C384.903 82.3059 384.953 82.3296 385.005 82.3325C385.058 82.3354 385.11 82.3172 385.149 82.2819L385.161 82.2717C385.372 82.0806 385.606 81.9169 385.857 81.7845C386.105 81.6526 386.371 81.5592 386.647 81.5073C387.191 81.4005 387.753 81.4399 388.277 81.6215L388.296 81.629C388.333 81.6434 388.373 81.6502 388.413 81.6491C388.452 81.648 388.491 81.639 388.527 81.6226C388.563 81.6062 388.596 81.5827 388.623 81.5536C388.65 81.5244 388.671 81.4901 388.685 81.4527C388.698 81.4153 388.704 81.3756 388.703 81.3358C388.701 81.296 388.691 81.257 388.674 81.221C388.657 81.185 388.633 81.1527 388.604 81.1261C388.574 81.0995 388.54 81.079 388.502 81.0659L388.486 81.0593Z" fill="#0C0C0C"/>
<path d="M393.04 81.6223C393.543 81.39 394.099 81.2958 394.651 81.3494C394.93 81.374 395.204 81.4411 395.464 81.5485C395.727 81.6556 395.975 81.7956 396.204 81.9651L396.216 81.9737C396.259 82.0015 396.31 82.012 396.36 82.0028C396.41 81.9937 396.455 81.9657 396.485 81.9246C396.515 81.8834 396.528 81.8323 396.522 81.7817C396.515 81.7311 396.49 81.6849 396.451 81.6525C396.203 81.4467 395.931 81.2731 395.64 81.1358C395.347 80.9956 395.034 80.9004 394.712 80.8535C394.057 80.7545 393.388 80.8341 392.775 81.084C392.703 81.1152 392.646 81.1737 392.617 81.2468C392.587 81.3198 392.588 81.4016 392.618 81.4744C392.648 81.5472 392.705 81.6052 392.778 81.6358C392.85 81.6664 392.931 81.6672 393.004 81.638L393.019 81.6317L393.04 81.6223Z" fill="#0C0C0C"/>
<path d="M424.35 127.983C423.913 131.298 423.486 135.851 423.105 140.56C421.616 142.151 420.024 143.642 418.34 145.022C417.269 145.896 416.164 146.727 415.024 147.514C408.862 151.739 401.824 154.502 394.442 155.593C387.061 156.684 379.529 156.076 372.416 153.814C372.319 149.441 372.187 143.542 372.056 138.138C371.905 131.904 371.753 126.322 371.671 124.488C371.334 117.209 369.413 112.353 370.866 108.382C371.3 107.206 371.998 106.147 372.906 105.287C376.289 101.96 384.693 102.036 388.064 102.168C388.123 102.17 387.082 109.984 398.172 109.89C406.324 109.823 406.935 102.903 406.935 102.903C406.935 102.903 410.952 103.323 413.62 103.788C417.984 104.556 420.82 106.163 423.028 108.564C425.088 110.802 426.303 113.179 424.35 127.983Z" fill="#07648D"/>
<path d="M359.147 102.938L359.483 94.6005C359.49 94.4171 359.46 94.2342 359.393 94.0633C359.327 93.8925 359.225 93.7374 359.096 93.6081C358.966 93.4788 358.811 93.3781 358.64 93.3123C358.47 93.2466 358.287 93.2173 358.105 93.2263C357.769 93.2535 357.455 93.4052 357.223 93.6519C356.992 93.8985 356.861 94.2226 356.854 94.5612L356.782 96.3493L354.438 90.6235C354.188 89.9823 353.474 89.3556 352.776 89.6843C352.499 89.7931 352.267 89.9928 352.118 90.251C351.969 90.5091 351.912 90.8104 351.955 91.1056C351.948 91.1065 351.942 91.1079 351.935 91.11C351.931 91.1125 351.927 91.1154 351.923 91.1186L351.538 90.1299C351.467 89.9468 351.356 89.7819 351.213 89.6474C351.07 89.5129 350.899 89.4121 350.713 89.3523C350.526 89.2925 350.329 89.2753 350.135 89.3019C349.941 89.3285 349.755 89.3982 349.591 89.506C349.337 89.681 349.15 89.9384 349.062 90.2352C348.974 90.532 348.99 90.8503 349.107 91.1367L349.271 91.5572C349.261 91.5676 349.253 91.5797 349.247 91.5929C349.071 91.3347 348.809 91.1478 348.508 91.0656C348.207 90.9834 347.887 91.0112 347.605 91.1441C347.301 91.299 347.065 91.5636 346.946 91.8851C346.827 92.2065 346.833 92.5612 346.963 92.8784L347.37 93.9236C347.354 93.9129 347.335 93.9061 347.316 93.9039C347.297 93.9018 347.278 93.9042 347.26 93.911C347.239 93.9204 347.221 93.9357 347.208 93.955C346.987 93.7686 346.712 93.6601 346.424 93.6463C346.136 93.6324 345.851 93.714 345.614 93.8784C345.368 94.0564 345.189 94.3124 345.107 94.605C345.024 94.8977 345.042 95.2098 345.157 95.491L348.588 104.309C349.068 105.543 349.904 106.604 350.989 107.358C352.073 108.111 353.357 108.522 354.676 108.538C355.813 108.551 356.91 108.119 357.735 107.333C358.56 106.547 359.047 105.469 359.093 104.327L359.147 102.938Z" fill="#B78557"/>
<g opacity="0.2">
<path d="M354.246 96.7852C354.217 96.7967 354.184 96.7961 354.155 96.7835C354.125 96.7708 354.102 96.7472 354.09 96.7176L351.869 91.269C351.861 91.254 351.858 91.2377 351.857 91.2212C351.856 91.2046 351.859 91.1881 351.865 91.1727C351.871 91.1573 351.88 91.1432 351.892 91.1314C351.903 91.1196 351.917 91.1103 351.933 91.104C351.948 91.0977 351.964 91.0946 351.981 91.0949C351.997 91.0952 352.013 91.0989 352.028 91.1057C352.043 91.1125 352.057 91.1223 352.068 91.1345C352.079 91.1467 352.088 91.1611 352.093 91.1767L354.315 96.6254C354.321 96.6402 354.324 96.6561 354.324 96.6721C354.324 96.6881 354.321 96.704 354.315 96.7187C354.308 96.7335 354.299 96.7469 354.288 96.7582C354.277 96.7694 354.263 96.7783 354.248 96.7844L354.246 96.7852Z" fill="#0C0C0C"/>
</g>
<g opacity="0.2">
<path d="M351.881 97.8358C351.851 97.8474 351.818 97.8468 351.789 97.8341C351.76 97.8214 351.737 97.7976 351.725 97.7679L349.245 91.6871C349.234 91.6574 349.234 91.6243 349.247 91.5949C349.259 91.5655 349.283 91.5422 349.312 91.53C349.342 91.5194 349.374 91.5204 349.403 91.5326C349.432 91.5449 349.455 91.5677 349.468 91.5964L351.947 97.6772C351.96 97.7071 351.959 97.7407 351.947 97.7705C351.935 97.8003 351.911 97.8239 351.881 97.8362V97.8358Z" fill="#0C0C0C"/>
</g>
<g opacity="0.2">
<path d="M349.326 98.9882C349.296 98.9999 349.263 98.9993 349.234 98.9865C349.204 98.9738 349.181 98.95 349.169 98.9203L347.192 94.0701C347.179 94.0402 347.18 94.0067 347.192 93.9769C347.204 93.9471 347.228 93.9235 347.258 93.9112C347.288 93.899 347.321 93.8991 347.351 93.9116C347.38 93.9241 347.404 93.9479 347.416 93.9778L349.395 98.8269C349.407 98.8568 349.407 98.8904 349.394 98.9202C349.382 98.95 349.358 98.9736 349.328 98.9859L349.326 98.9882Z" fill="#0C0C0C"/>
</g>
<path d="M386.626 116.01L366.423 147.207C365.688 148.341 364.704 149.291 363.547 149.983C361.825 149.03 360.163 147.97 358.572 146.811C355.178 144.352 352.112 141.467 349.448 138.227L345.204 105.181L362.187 102.448L364.123 118.355L371.882 106.374L386.626 116.01Z" fill="#07648D"/>
<path d="M388.995 91.035C390.848 91.1586 392.689 90.6584 394.227 89.6133C394.281 89.5773 394.343 89.5573 394.408 89.5557C394.472 89.5541 394.535 89.5709 394.59 89.6041C394.645 89.6373 394.69 89.6857 394.719 89.7434C394.748 89.8011 394.759 89.8659 394.753 89.9301C394.629 91.0295 394.088 93.0516 391.792 93.3092C390.309 93.4752 389.234 92.3315 388.693 91.5709C388.655 91.5183 388.634 91.456 388.63 91.3915C388.627 91.3269 388.642 91.2627 388.674 91.2064C388.705 91.1501 388.752 91.1041 388.809 91.0737C388.866 91.0433 388.93 91.0299 388.995 91.035Z" fill="white"/>
<path d="M429.828 131.489C426.842 136.659 422.95 141.244 418.34 145.022C417.269 145.896 416.164 146.727 415.024 147.514L407.133 117.363L424.904 112.668L429.828 131.489Z" fill="#07648D"/>
<path d="M415.197 147.396C415.14 147.433 415.079 147.475 415.024 147.514C414.968 147.553 414.911 147.592 414.855 147.629L408.841 124.66L409.221 124.56L415.197 147.396Z" fill="#0C0C0C"/>
<path d="M372.103 139.558C372.054 139.556 372.008 139.536 371.973 139.501C371.939 139.466 371.918 139.42 371.916 139.371L371.528 130.811C371.526 130.759 371.544 130.708 371.579 130.67C371.614 130.631 371.663 130.608 371.715 130.606C371.767 130.604 371.817 130.622 371.855 130.657C371.894 130.692 371.917 130.741 371.919 130.793L372.306 139.353C372.309 139.405 372.29 139.456 372.256 139.494C372.221 139.533 372.172 139.555 372.12 139.558H372.103Z" fill="#0C0C0C"/>
<path d="M225.951 218.764C253.611 218.764 276.033 196.243 276.033 168.461C276.033 140.68 253.611 118.158 225.951 118.158C198.291 118.158 175.869 140.68 175.869 168.461C175.869 196.243 198.291 218.764 225.951 218.764Z" fill="white"/>
<path opacity="0.09" d="M276.034 168.46C276.034 178.409 273.096 188.134 267.593 196.406C262.09 204.678 254.269 211.126 245.117 214.933C235.966 218.74 225.897 219.736 216.182 217.795C206.467 215.854 197.543 211.064 190.539 204.029C183.535 196.994 178.765 188.031 176.833 178.273C174.901 168.516 175.892 158.402 179.683 149.21C183.473 140.019 189.892 132.163 198.128 126.635C206.364 121.108 216.047 118.158 225.952 118.158C232.536 118.134 239.059 119.418 245.146 121.937C251.233 124.456 256.764 128.161 261.419 132.837C266.075 137.512 269.763 143.067 272.271 149.181C274.779 155.295 276.058 161.847 276.034 168.46Z" fill="#28A0CB"/>
<path d="M203.782 138.791C203.782 138.791 203.279 146.385 201.577 149.14C196.681 157.072 195.262 165.994 200.166 170.657C205.069 175.319 236.347 175.383 238.716 164.661C240.71 155.634 236.43 154.664 235.389 147.217C234.917 143.848 233.621 136.783 233.621 136.783" fill="#0A0A0A"/>
<path d="M230.62 163.088C230.566 163.081 229.968 173.066 218.418 172.197C210.423 171.596 207.573 163.075 207.389 163.075C208.251 162.892 209.703 162.624 210.087 162.419C211.345 161.739 212.903 161.032 213.309 158.576C213.544 157.163 213.146 149.92 213.27 148.488L225.542 151.24C225.371 154.263 224.171 161.275 228.377 162.516C229.075 162.72 229.829 162.909 230.62 163.088Z" fill="#BB6751"/>
<path opacity="0.5" d="M225.712 159.65C225.52 159.027 225.396 158.386 225.343 157.736C225.208 156.254 225.235 154.762 225.423 153.286C222.929 152.949 220.579 151.915 218.64 150.302C218.413 151.148 217.159 154.841 217.507 155.645C218.164 157.163 221.244 159.65 225.712 159.65Z" fill="#0C0C0C"/>
<path d="M224.125 156.539C219.287 157.01 213.026 155.065 211.729 148.593L210.559 142.753C209.262 136.281 211.595 130.351 217.662 129.124C223.729 127.898 229.315 132.226 230.612 138.7L231.13 141.285C231.628 143.768 232.758 155.7 224.125 156.539Z" fill="#BB6751"/>
<path opacity="0.1" d="M221.049 148.059C221.845 147.964 222.434 147.411 222.365 146.824C222.295 146.237 221.593 145.839 220.797 145.935C220.001 146.03 219.412 146.583 219.481 147.17C219.551 147.756 220.253 148.155 221.049 148.059Z" fill="#0C0C0C"/>
<path opacity="0.1" d="M229.463 145.712C229.535 146.298 230.237 146.694 231.033 146.601C231.171 146.585 231.306 146.554 231.438 146.51C231.474 145.811 231.477 145.139 231.456 144.517C231.235 144.461 231.006 144.448 230.78 144.478C229.983 144.571 229.395 145.124 229.463 145.712Z" fill="#0C0C0C"/>
<path opacity="0.5" d="M225.945 147.523H225.957C226.203 147.471 226.445 147.405 226.684 147.327C227.04 147.209 227.505 147.011 227.441 146.687C227.368 146.318 225.565 142.543 225.359 142.113C225.34 142.078 225.308 142.052 225.27 142.039C225.232 142.027 225.19 142.03 225.154 142.047C225.118 142.065 225.09 142.095 225.076 142.133C225.062 142.17 225.062 142.212 225.078 142.249C225.847 143.859 227.085 146.501 227.135 146.749C227.096 146.864 226.505 147.091 225.895 147.214C225.856 147.223 225.822 147.247 225.8 147.28C225.778 147.313 225.769 147.353 225.776 147.393C225.782 147.432 225.803 147.467 225.835 147.492C225.866 147.516 225.906 147.528 225.945 147.524V147.523Z" fill="#0C0C0C"/>
<path d="M205.718 144.85L211.158 143.782C215.266 142.055 216.432 134.865 216.432 134.865C216.432 134.865 221.502 139.715 233.621 136.782C233.621 136.782 230.988 119.79 213.095 124.948C207.325 126.611 203.238 132.518 203.846 140.342C204.271 145.826 205.718 144.85 205.718 144.85Z" fill="#0A0A0A"/>
<path d="M212.501 150.489C210.657 150.861 208.766 149.182 208.396 147.33C208.027 145.478 209.315 144.155 211.159 143.782L212.358 144.831L214.088 150.168L212.501 150.489Z" fill="#BB6751"/>
<path d="M226.667 139.102C227.128 138.774 227.667 138.575 228.23 138.525C228.513 138.498 228.798 138.514 229.076 138.572C229.356 138.629 229.628 138.722 229.886 138.847L229.894 138.85C229.922 138.862 229.954 138.862 229.983 138.851C230.011 138.84 230.034 138.818 230.047 138.79C230.06 138.762 230.062 138.731 230.053 138.701C230.043 138.672 230.023 138.648 229.996 138.633C229.723 138.489 229.433 138.379 229.133 138.307C228.831 138.233 228.52 138.206 228.209 138.225C227.581 138.26 226.974 138.463 226.45 138.814C226.43 138.827 226.412 138.844 226.399 138.864C226.385 138.884 226.375 138.906 226.371 138.93C226.366 138.953 226.366 138.978 226.37 139.001C226.375 139.025 226.385 139.048 226.398 139.067C226.412 139.087 226.429 139.104 226.449 139.118C226.47 139.131 226.492 139.139 226.516 139.144C226.54 139.148 226.564 139.147 226.587 139.141C226.611 139.136 226.633 139.126 226.652 139.111L226.656 139.109L226.667 139.102Z" fill="#0C0C0C"/>
<path d="M221.698 139.792C221.081 139.669 220.441 139.714 219.847 139.923C219.554 140.025 219.277 140.171 219.026 140.355C218.777 140.537 218.551 140.75 218.354 140.988C218.334 141.012 218.323 141.043 218.325 141.074C218.327 141.105 218.341 141.134 218.364 141.155C218.387 141.176 218.417 141.187 218.448 141.186C218.479 141.185 218.509 141.172 218.53 141.15L218.536 141.143C218.726 140.928 218.942 140.738 219.18 140.578C219.414 140.417 219.671 140.292 219.943 140.209C220.482 140.039 221.056 140.016 221.608 140.141L221.621 140.144C221.644 140.15 221.668 140.152 221.692 140.148C221.716 140.145 221.738 140.137 221.759 140.125C221.78 140.113 221.797 140.096 221.812 140.077C221.826 140.058 221.836 140.036 221.842 140.012C221.847 139.989 221.848 139.965 221.844 139.941C221.841 139.917 221.832 139.895 221.819 139.874C221.807 139.854 221.79 139.836 221.771 139.823C221.751 139.809 221.729 139.799 221.706 139.794L221.698 139.792Z" fill="#0C0C0C"/>
<path d="M211.161 143.693C214.817 142.326 216.03 139.79 216.405 137.903C216.646 136.644 216.624 135.348 216.338 134.099L216.225 134.13C216.506 135.364 216.528 136.642 216.288 137.884C215.92 139.74 214.725 142.236 211.12 143.582L211.161 143.693Z" fill="#0C0C0C"/>
<path d="M257.388 161.099L259.577 153.639C259.625 153.475 259.706 153.323 259.816 153.193C259.926 153.062 260.062 152.956 260.215 152.881C260.367 152.806 260.534 152.764 260.704 152.757C260.874 152.75 261.044 152.779 261.202 152.842C261.49 152.967 261.723 153.195 261.853 153.482C261.984 153.769 262.004 154.094 261.909 154.395L261.44 155.995L265.213 151.645C265.625 151.154 266.442 150.816 266.96 151.315C267.171 151.495 267.317 151.74 267.371 152.013C267.426 152.286 267.387 152.569 267.261 152.816C267.267 152.819 267.272 152.822 267.277 152.826C267.28 152.83 267.283 152.834 267.285 152.838L267.919 152.08C268.037 151.94 268.184 151.828 268.35 151.752C268.516 151.677 268.697 151.639 268.879 151.642C269.062 151.646 269.241 151.69 269.404 151.771C269.568 151.853 269.711 151.971 269.823 152.115C269.996 152.346 270.084 152.629 270.073 152.917C270.063 153.206 269.954 153.482 269.765 153.699L269.495 154.021C269.501 154.034 269.505 154.047 269.505 154.061C269.738 153.886 270.025 153.799 270.315 153.817C270.605 153.835 270.879 153.956 271.089 154.159C271.312 154.387 271.441 154.691 271.45 155.01C271.459 155.33 271.348 155.641 271.139 155.882L270.469 156.682C270.486 156.677 270.505 156.677 270.522 156.681C270.54 156.684 270.556 156.692 270.57 156.704C270.586 156.719 270.597 156.738 270.603 156.759C270.853 156.661 271.129 156.648 271.387 156.723C271.645 156.798 271.872 156.956 272.032 157.173C272.196 157.404 272.277 157.683 272.263 157.966C272.249 158.25 272.14 158.52 271.954 158.733L266.3 165.486C265.509 166.431 264.455 167.116 263.273 167.455C262.092 167.794 260.836 167.771 259.668 167.389C258.66 167.059 257.821 166.348 257.327 165.406C256.833 164.465 256.725 163.367 257.024 162.346L257.388 161.099Z" fill="#BB6751"/>
<g opacity="0.2">
<path d="M263.545 157.142C263.568 157.161 263.597 157.17 263.626 157.167C263.655 157.165 263.682 157.151 263.702 157.129L267.285 152.988C267.304 152.965 267.314 152.936 267.312 152.906C267.31 152.876 267.296 152.848 267.273 152.828C267.251 152.808 267.221 152.798 267.191 152.8C267.161 152.803 267.134 152.817 267.114 152.839L263.531 156.98C263.521 156.991 263.514 157.004 263.509 157.019C263.504 157.033 263.502 157.048 263.503 157.062C263.505 157.077 263.508 157.092 263.515 157.105C263.522 157.119 263.531 157.13 263.542 157.14L263.545 157.142Z" fill="#0C0C0C"/>
</g>
<g opacity="0.2">
<path d="M265.32 158.78C265.343 158.798 265.372 158.807 265.401 158.805C265.43 158.802 265.457 158.789 265.477 158.767L269.475 154.145C269.485 154.134 269.492 154.121 269.497 154.107C269.502 154.093 269.504 154.078 269.503 154.063C269.502 154.048 269.498 154.033 269.491 154.02C269.484 154.007 269.475 153.995 269.464 153.985C269.441 153.966 269.411 153.957 269.382 153.959C269.352 153.961 269.325 153.975 269.304 153.996L265.308 158.618C265.299 158.629 265.291 158.642 265.287 158.656C265.282 158.67 265.28 158.685 265.281 158.7C265.282 158.715 265.286 158.73 265.293 158.743C265.299 158.756 265.309 158.768 265.32 158.778L265.32 158.78Z" fill="#0C0C0C"/>
</g>
<g opacity="0.2">
<path d="M267.232 160.564C267.255 160.583 267.284 160.592 267.313 160.59C267.342 160.587 267.369 160.574 267.388 160.551L270.578 156.865C270.596 156.842 270.604 156.813 270.602 156.784C270.599 156.755 270.585 156.729 270.563 156.71C270.541 156.69 270.513 156.681 270.484 156.682C270.455 156.683 270.428 156.695 270.408 156.716L267.218 160.403C267.208 160.414 267.2 160.427 267.196 160.441C267.191 160.455 267.189 160.47 267.19 160.485C267.191 160.5 267.195 160.514 267.202 160.528C267.209 160.541 267.218 160.553 267.229 160.563L267.232 160.564Z" fill="#0C0C0C"/>
</g>
<path d="M270.711 164.356L262.247 202.921C262.228 203.007 262.208 203.097 262.185 203.184C260.284 205.181 258.225 207.021 256.028 208.684C255.586 209.014 255.144 209.34 254.691 209.654C254.41 209.686 254.129 209.701 253.846 209.701C252.338 209.701 250.856 209.302 249.55 208.545C248.243 207.787 247.158 206.698 246.403 205.386L230.274 177.354L245.168 168.713L250.215 177.484L253.913 160.636L270.711 164.356Z" fill="#00BDE3"/>
<path d="M244.664 181.938C244.613 182.55 244.511 183.642 244.371 185.079C243.667 192.425 242.021 208.798 241.259 216.364C231.629 219.457 221.295 219.562 211.604 216.667H211.6C204.444 214.515 197.858 210.78 192.328 205.736C192.359 198.971 192.262 191.361 191.808 186.469C190.452 171.851 191.734 169.562 193.841 167.446C194.013 167.273 194.193 167.104 194.372 166.939C196.55 164.953 199.282 163.657 203.266 163.115C205.901 162.758 209.865 162.499 209.865 162.499C209.865 162.499 210.201 169.322 218.203 169.699C229.098 170.214 228.371 162.499 228.425 162.499C231.166 162.499 237.264 162.671 241.11 164.638C241.114 164.638 241.114 164.638 241.118 164.642C241.893 165.021 242.598 165.53 243.202 166.146C247.608 170.834 245.434 172.839 244.664 181.938Z" fill="#00BDE3"/>
<path d="M227.567 148.799C225.995 149.601 224.201 149.855 222.469 149.52C222.41 149.509 222.348 149.515 222.291 149.538C222.234 149.56 222.185 149.599 222.149 149.648C222.114 149.698 222.093 149.757 222.089 149.818C222.085 149.879 222.099 149.94 222.129 149.994C222.646 150.908 223.87 152.47 225.971 151.833C227.327 151.422 227.84 150.021 228.03 149.153C228.043 149.093 228.039 149.031 228.018 148.973C227.997 148.915 227.96 148.865 227.911 148.828C227.862 148.79 227.804 148.768 227.743 148.763C227.682 148.758 227.621 148.77 227.567 148.799Z" fill="white"/>
<path d="M227.666 141.776C228.085 141.776 228.425 141.434 228.425 141.013C228.425 140.592 228.085 140.25 227.666 140.25C227.246 140.25 226.906 140.592 226.906 141.013C226.906 141.434 227.246 141.776 227.666 141.776Z" fill="#0C0C0C"/>
<path d="M220.366 143.059C220.785 143.059 221.125 142.718 221.125 142.297C221.125 141.875 220.785 141.534 220.366 141.534C219.946 141.534 219.606 141.875 219.606 142.297C219.606 142.718 219.946 143.059 220.366 143.059Z" fill="#0C0C0C"/>
<path d="M242.984 198.407C242.979 198.408 242.974 198.408 242.969 198.407C242.938 198.403 242.91 198.387 242.892 198.362C242.873 198.337 242.865 198.305 242.869 198.275L244.212 184.686C244.214 184.67 244.219 184.655 244.226 184.642C244.234 184.628 244.244 184.616 244.257 184.607C244.269 184.598 244.283 184.591 244.298 184.587C244.313 184.583 244.329 184.583 244.344 184.585C244.375 184.59 244.403 184.606 244.422 184.631C244.44 184.656 244.449 184.687 244.444 184.718L243.102 198.307C243.097 198.335 243.083 198.361 243.062 198.379C243.04 198.398 243.012 198.408 242.984 198.407Z" fill="#0C0C0C"/>
<path d="M234.856 197.753L242.196 194.46C242.357 194.388 242.531 194.351 242.708 194.35C242.884 194.35 243.059 194.386 243.22 194.456C243.382 194.527 243.527 194.631 243.647 194.761C243.767 194.891 243.858 195.045 243.916 195.212C244.012 195.525 243.99 195.863 243.852 196.16C243.715 196.457 243.473 196.692 243.173 196.82L241.599 197.527L247.563 197.589C248.228 197.584 249.043 198.004 248.999 198.752C249.001 199.04 248.905 199.321 248.728 199.548C248.55 199.776 248.302 199.936 248.022 200.002C248.024 200.009 248.024 200.015 248.025 200.021C248.024 200.026 248.023 200.031 248.022 200.036L249.045 200.029C249.234 200.028 249.421 200.069 249.592 200.149C249.764 200.23 249.915 200.348 250.035 200.494C250.156 200.641 250.242 200.813 250.288 200.997C250.334 201.181 250.338 201.374 250.301 201.56C250.235 201.852 250.072 202.113 249.838 202.299C249.604 202.485 249.313 202.584 249.015 202.581L248.58 202.584C248.574 202.597 248.566 202.608 248.557 202.618C248.851 202.685 249.112 202.854 249.294 203.096C249.476 203.339 249.565 203.638 249.548 203.94C249.518 204.271 249.366 204.578 249.121 204.801C248.876 205.023 248.557 205.145 248.226 205.142L247.145 205.149C247.161 205.16 247.173 205.174 247.182 205.191C247.191 205.207 247.196 205.226 247.196 205.245C247.195 205.267 247.188 205.288 247.175 205.307C247.421 205.439 247.617 205.649 247.733 205.905C247.849 206.16 247.878 206.447 247.815 206.72C247.744 207.006 247.579 207.259 247.347 207.439C247.115 207.618 246.829 207.714 246.536 207.711L237.417 207.776C236.141 207.785 234.891 207.411 233.828 206.702C232.765 205.994 231.937 204.982 231.451 203.798C231.03 202.776 231.024 201.631 231.431 200.604C231.839 199.578 232.629 198.751 233.633 198.301L234.856 197.753Z" fill="#BB6751"/>
<g opacity="0.2">
<path d="M242.119 199.97C242.119 200.002 242.131 200.031 242.153 200.054C242.175 200.076 242.205 200.088 242.236 200.088L247.907 200.139C247.938 200.14 247.968 200.128 247.991 200.106C248.013 200.084 248.025 200.054 248.026 200.023C248.026 199.991 248.014 199.961 247.992 199.939C247.97 199.917 247.94 199.904 247.909 199.904L242.237 199.852C242.206 199.852 242.176 199.865 242.154 199.887C242.132 199.909 242.12 199.939 242.12 199.97H242.119Z" fill="#0C0C0C"/>
</g>
<g opacity="0.2">
<path d="M242.027 202.483C242.027 202.514 242.04 202.544 242.062 202.566C242.084 202.589 242.113 202.601 242.145 202.601L248.473 202.658C248.505 202.658 248.534 202.646 248.556 202.624C248.578 202.602 248.591 202.572 248.591 202.541C248.59 202.51 248.577 202.48 248.555 202.458C248.534 202.436 248.504 202.424 248.473 202.423L242.144 202.365C242.113 202.365 242.083 202.378 242.061 202.4C242.039 202.422 242.027 202.452 242.027 202.483H242.027Z" fill="#0C0C0C"/>
</g>
<g opacity="0.2">
<path d="M241.912 205.201C241.912 205.233 241.925 205.263 241.947 205.285C241.969 205.307 241.999 205.319 242.03 205.319L247.078 205.365C247.109 205.365 247.139 205.353 247.161 205.331C247.183 205.309 247.196 205.279 247.196 205.247C247.196 205.216 247.183 205.186 247.161 205.164C247.139 205.142 247.109 205.13 247.078 205.13L242.03 205.084C241.999 205.084 241.969 205.096 241.947 205.118C241.925 205.141 241.912 205.171 241.912 205.202V205.201Z" fill="#0C0C0C"/>
</g>
<path d="M236.959 210.879L211.604 216.667H211.6C204.444 214.515 197.858 210.78 192.328 205.736C191.734 205.194 191.153 204.639 190.584 204.071C189.594 203.078 188.647 202.045 187.742 200.973L191.292 172.295C191.679 169.983 192.965 167.92 194.866 166.561C196.768 165.201 199.129 164.656 201.43 165.045C203.732 165.434 205.786 166.725 207.139 168.635C208.493 170.544 209.036 172.916 208.649 175.228L206.405 202.155L234.676 195.727L236.959 210.879Z" fill="#00BDE3"/>
<path d="M200.686 203.213C200.671 203.214 200.655 203.212 200.64 203.207C200.626 203.202 200.612 203.195 200.6 203.184C200.589 203.174 200.579 203.162 200.572 203.148C200.565 203.134 200.561 203.119 200.56 203.104C200.559 203.088 200.561 203.073 200.565 203.058C200.57 203.043 200.578 203.03 200.588 203.018C200.598 203.006 200.61 202.996 200.624 202.989C200.638 202.982 200.653 202.978 200.668 202.977L206.337 201.76C206.352 201.758 206.367 201.758 206.382 201.762C206.397 201.766 206.412 201.772 206.424 201.782C206.436 201.791 206.447 201.802 206.455 201.816C206.463 201.829 206.468 201.844 206.47 201.859C206.473 201.874 206.472 201.89 206.468 201.905C206.464 201.92 206.458 201.934 206.449 201.946C206.439 201.959 206.428 201.969 206.415 201.977C206.401 201.985 206.387 201.991 206.371 201.993L200.701 203.21C200.696 203.211 200.691 203.212 200.686 203.213Z" fill="#0C0C0C"/>
<path d="M236.959 210.879C236.965 210.909 236.96 210.941 236.944 210.967C236.928 210.994 236.902 211.013 236.873 211.021L212.241 216.851C212.085 216.808 211.932 216.765 211.78 216.717L236.701 210.824L234.48 195.904L206.377 201.994C206.359 201.997 206.341 201.995 206.323 201.99C206.305 201.985 206.289 201.975 206.276 201.963C206.264 201.948 206.255 201.932 206.25 201.915C206.245 201.897 206.243 201.879 206.245 201.86L207.82 186.473C207.823 186.458 207.828 186.443 207.837 186.43C207.845 186.417 207.856 186.406 207.869 186.397C207.882 186.388 207.896 186.382 207.911 186.379C207.926 186.376 207.942 186.376 207.957 186.378C207.987 186.383 208.015 186.4 208.033 186.425C208.051 186.45 208.059 186.482 208.054 186.512L206.503 201.743L234.531 195.641C234.546 195.637 234.562 195.636 234.578 195.639C234.594 195.641 234.608 195.648 234.621 195.657C234.635 195.664 234.646 195.674 234.656 195.686C234.665 195.698 234.672 195.712 234.676 195.727L236.959 210.879Z" fill="#0C0C0C"/>
<path d="M46.3459 276.722C71.7082 276.722 92.2684 256.071 92.2684 230.597C92.2684 205.123 71.7082 184.473 46.3459 184.473C20.9836 184.473 0.42334 205.123 0.42334 230.597C0.42334 256.071 20.9836 276.722 46.3459 276.722Z" fill="white"/>
<path opacity="0.09" d="M46.3459 276.722C71.7082 276.722 92.2684 256.071 92.2684 230.597C92.2684 205.123 71.7082 184.473 46.3459 184.473C20.9836 184.473 0.42334 205.123 0.42334 230.597C0.42334 256.071 20.9836 276.722 46.3459 276.722Z" fill="#28A0CB"/>
<path d="M33.6992 204.435C33.6992 204.435 34.1969 218.327 43.4284 218.966L44.992 200.647L33.6992 204.435Z" fill="#0A0A0A"/>
<path d="M35.4772 221.803C38.4976 221.803 40.9462 219.344 40.9462 216.31C40.9462 213.277 38.4976 210.817 35.4772 210.817C32.4568 210.817 30.0083 213.277 30.0083 216.31C30.0083 219.344 32.4568 221.803 35.4772 221.803Z" fill="#0A0A0A"/>
<path d="M56.8755 225.413C56.8266 225.407 56.2864 234.415 45.8677 233.629C38.6549 233.088 36.0834 225.402 35.9185 225.402C36.7427 225.264 37.5558 225.066 38.3511 224.809C39.4867 224.196 40.8921 223.558 41.258 221.343C41.4691 220.066 41.1114 213.534 41.2212 212.242L52.2928 214.725C52.1364 217.453 51.0551 223.778 54.8502 224.897C55.4811 225.082 56.1613 225.253 56.8755 225.413Z" fill="#725145"/>
<path opacity="0.5" d="M52.4477 222.311C52.2742 221.75 52.1625 221.17 52.1147 220.584C51.9931 219.247 52.0173 217.901 52.187 216.57C49.9367 216.265 47.8168 215.332 46.068 213.877C45.8623 214.64 44.7318 217.972 45.0449 218.696C45.6368 220.069 48.4174 222.311 52.4477 222.311Z" fill="#0C0C0C"/>
<path d="M50.7132 219.885C46.3283 219.941 40.8465 217.718 40.1671 211.802L39.5541 206.462C38.8743 200.546 41.4172 195.39 46.9635 194.749C52.5095 194.106 57.2056 198.422 57.8854 204.338L58.1567 206.702C58.4174 208.973 58.537 219.785 50.7132 219.885Z" fill="#725145"/>
<path d="M56.5673 206.543C56.947 206.543 57.2549 206.234 57.2549 205.852C57.2549 205.471 56.947 205.162 56.5673 205.162C56.1875 205.162 55.8796 205.471 55.8796 205.852C55.8796 206.234 56.1875 206.543 56.5673 206.543Z" fill="#0C0C0C"/>
<path d="M49.5389 207.35C49.9187 207.35 50.2266 207.041 50.2266 206.66C50.2266 206.278 49.9187 205.969 49.5389 205.969C49.1592 205.969 48.8513 206.278 48.8513 206.66C48.8513 207.041 49.1592 207.35 49.5389 207.35Z" fill="#0C0C0C"/>
<path opacity="0.5" d="M53.0266 211.918H53.0376C53.2623 211.89 53.4853 211.85 53.7057 211.798C54.0348 211.717 54.4687 211.576 54.4347 211.28C54.3956 210.943 53.0591 207.412 52.9066 207.011C52.9 206.993 52.8901 206.978 52.8774 206.964C52.8647 206.951 52.8495 206.94 52.8326 206.932C52.8157 206.925 52.7975 206.92 52.779 206.92C52.7605 206.919 52.7421 206.922 52.7249 206.929C52.7076 206.936 52.6918 206.946 52.6783 206.958C52.6649 206.971 52.6541 206.987 52.6465 207.003C52.639 207.02 52.6348 207.039 52.6343 207.057C52.6338 207.076 52.6369 207.094 52.6435 207.112C53.2139 208.615 54.129 211.086 54.1548 211.313C53.803 211.512 53.4087 211.623 53.0051 211.637C52.9679 211.64 52.9334 211.658 52.9091 211.686C52.8847 211.715 52.8727 211.752 52.8756 211.789C52.8784 211.826 52.8959 211.861 52.9243 211.885C52.9526 211.91 52.9894 211.922 53.0266 211.919V211.918Z" fill="#0C0C0C"/>
<path opacity="0.5" d="M52.0352 214.38C52.936 214.328 53.8121 214.065 54.593 213.611C54.6237 213.592 54.646 213.562 54.6551 213.526C54.6642 213.491 54.6596 213.454 54.642 213.422C54.6245 213.39 54.5955 213.366 54.561 213.355C54.5265 213.344 54.4891 213.347 54.4566 213.363C52.7701 214.3 51.1572 214.355 49.7929 213.52C49.7654 213.503 49.7369 213.486 49.7077 213.472C49.6739 213.458 49.6363 213.459 49.6028 213.473C49.5692 213.486 49.5423 213.513 49.5276 213.546C49.5128 213.579 49.5114 213.617 49.5236 213.651C49.5358 213.686 49.5607 213.714 49.5932 213.73C49.6037 213.736 49.6217 213.747 49.6463 213.762C50.3636 214.202 51.1954 214.418 52.0352 214.38Z" fill="#0C0C0C"/>
<path d="M35.0448 207.98L40.0145 207.433C43.8373 206.193 45.4256 199.816 45.4256 199.816C45.4256 199.816 48.8512 203.729 59.0025 201.942C59.0025 201.942 58.6093 188.797 43.1704 190.648C37.7949 191.293 33.7415 196.708 33.6997 203.787C33.6707 208.748 35.0448 207.98 35.0448 207.98Z" fill="#0A0A0A"/>
<path d="M40.7186 213.565C39.0329 213.761 37.4587 212.107 37.2644 210.414C37.0701 208.721 38.3289 207.63 40.0145 207.434L41.0133 208.468L42.1677 213.397L40.7186 213.565Z" fill="#725145"/>
<path d="M54.1353 204.129C54.6324 203.853 55.1943 203.716 55.7623 203.732C56.0427 203.738 56.3206 203.787 56.5867 203.876C56.851 203.963 57.1033 204.084 57.3376 204.234C57.3611 204.249 57.3779 204.273 57.3845 204.3C57.3912 204.327 57.3871 204.356 57.3733 204.38C57.3594 204.404 57.3368 204.422 57.3101 204.43C57.2835 204.438 57.2548 204.435 57.2301 204.422L57.2231 204.418C57.0011 204.286 56.7634 204.182 56.5155 204.109C56.2701 204.035 56.0149 204 55.7587 204.003C55.249 204.005 54.749 204.143 54.3096 204.403L54.2991 204.41C54.2809 204.421 54.2605 204.43 54.2391 204.434C54.2178 204.437 54.1958 204.437 54.1746 204.432C54.1534 204.427 54.1334 204.418 54.1158 204.406C54.0981 204.393 54.0832 204.377 54.0719 204.358C54.0606 204.339 54.0532 204.319 54.05 204.297C54.0469 204.276 54.0481 204.254 54.0536 204.232C54.0591 204.211 54.0688 204.192 54.0821 204.174C54.0954 204.157 54.112 204.143 54.131 204.132L54.1353 204.129Z" fill="#0C0C0C"/>
<path d="M49.6812 204.952C49.1952 204.797 48.6771 204.775 48.1797 204.887C47.9292 204.942 47.6884 205.035 47.4655 205.162C47.2402 205.289 47.0317 205.443 46.8447 205.622L46.8388 205.628C46.8176 205.643 46.7913 205.651 46.7649 205.648C46.7386 205.646 46.714 205.634 46.6959 205.615C46.6778 205.595 46.6675 205.57 46.6668 205.543C46.6661 205.517 46.6752 205.491 46.6922 205.47C46.8871 205.271 47.1062 205.097 47.3443 204.953C47.5839 204.806 47.844 204.696 48.116 204.627C48.666 204.484 49.2442 204.492 49.7903 204.649C49.8114 204.655 49.8312 204.664 49.8485 204.678C49.8658 204.691 49.8802 204.708 49.891 204.727C49.9017 204.746 49.9085 204.767 49.911 204.789C49.9134 204.81 49.9115 204.832 49.9053 204.853C49.8991 204.874 49.8887 204.894 49.8748 204.911C49.8609 204.927 49.8438 204.941 49.8244 204.951C49.8051 204.961 49.7839 204.967 49.7622 204.969C49.7404 204.971 49.7186 204.968 49.698 204.961H49.6937L49.6812 204.952Z" fill="#0C0C0C"/>
<path d="M52.1296 215.718C52.2926 215.711 52.4548 215.69 52.6143 215.656C52.6498 215.647 52.6805 215.625 52.6999 215.594C52.7193 215.563 52.726 215.525 52.7184 215.489C52.7109 215.453 52.6897 215.422 52.6595 215.401C52.6292 215.381 52.5921 215.373 52.5561 215.379C52.307 215.452 52.0452 215.471 51.7882 215.434C51.5312 215.398 51.2849 215.307 51.0659 215.167C51.037 215.143 50.9999 215.132 50.9627 215.135C50.9255 215.139 50.8914 215.158 50.8677 215.187C50.8441 215.216 50.8329 215.253 50.8366 215.29C50.8404 215.328 50.8587 215.362 50.8877 215.386C51.251 215.637 51.6898 215.755 52.1296 215.718Z" fill="#0C0C0C"/>
<path opacity="0.1" d="M48.5866 212.027C49.3096 212.002 49.8807 211.55 49.8621 211.017C49.8436 210.484 49.2424 210.073 48.5194 210.098C47.7963 210.124 47.2253 210.576 47.2438 211.109C47.2624 211.642 47.8636 212.053 48.5866 212.027Z" fill="#0C0C0C"/>
<path opacity="0.1" d="M56.3243 210.557C56.3446 211.089 56.9455 211.499 57.6687 211.475C57.7937 211.471 57.9179 211.453 58.0393 211.423C58.1249 210.798 58.1773 210.194 58.2058 209.634C58.0111 209.567 57.8058 209.537 57.6003 209.546C56.8786 209.571 56.3079 210.022 56.3243 210.557Z" fill="#0C0C0C"/>
<path d="M72.436 234.901C72.4047 238.046 71.3297 241.796 70.9466 246.327C70.845 247.536 68.2606 251.034 67.8853 254.925C67.4123 259.881 68.4643 267.608 68.605 270.949C61.341 274.986 53.124 276.972 44.8267 276.695C36.5294 276.419 28.4616 273.89 21.48 269.378C21.2924 260.795 21.0695 250.198 20.7842 247.658C19.8577 239.271 20.1079 233.967 21.4448 231.485C23.63 227.433 27.5197 226.196 31.5891 225.639C34.0753 225.301 37.8086 225.061 37.8086 225.061C37.8086 225.061 38.1252 231.489 45.6699 231.846C55.9393 232.333 55.2552 225.061 55.306 225.061C59.0315 225.061 66.0914 225.957 68.7966 227.81C71.6659 229.769 72.4712 232.094 72.436 234.901Z" fill="#97D4EA"/>
<path d="M36.9564 239.793L23.0241 270.331C17.6748 267.159 13.0205 262.932 9.34204 257.904L20.964 232.43L36.9564 239.793Z" fill="#97D4EA"/>
<path d="M83.6905 257.442C80.9611 261.267 77.6669 264.651 73.9215 267.478C72.6887 268.413 71.4087 269.283 70.0866 270.085L55.7869 238.509L71.7988 231.191L83.6905 257.442Z" fill="#97D4EA"/>
<path d="M141.918 96.0462C168.324 96.0462 189.731 74.5455 189.731 48.0231C189.731 21.5007 168.324 0 141.918 0C115.512 0 94.1055 21.5007 94.1055 48.0231C94.1055 74.5455 115.512 96.0462 141.918 96.0462Z" fill="white"/>
<path opacity="0.09" d="M141.918 96.0462C168.324 96.0462 189.731 74.5455 189.731 48.0231C189.731 21.5007 168.324 0 141.918 0C115.512 0 94.1055 21.5007 94.1055 48.0231C94.1055 74.5455 115.512 96.0462 141.918 96.0462Z" fill="#28A0CB"/>
<path d="M151.163 19.2659C151.163 19.2659 154.191 15.9701 153.957 9.69265C153.776 4.83219 149.978 8.693 149.978 8.693C149.978 8.693 149.813 5.1946 147.398 5.9838C144.982 6.773 144.24 10.6146 144.24 10.6146" fill="#0C0C0C"/>
<path d="M134.66 8.71265C134.66 8.71265 122.602 12.2719 130.063 28.1996L131.164 28.0748L133.399 27.8219" fill="#0C0C0C"/>
<path d="M151.747 44.7214C151.693 44.7144 151.083 54.875 139.331 53.9877C131.195 53.3756 128.294 44.7057 128.107 44.7057C128.985 44.5184 130.069 44.2346 130.499 44.1368C131.438 43.9179 132.289 43.4171 132.937 42.7009C133.586 41.9847 134.002 41.0871 134.131 40.1276C134.369 38.6874 133.965 31.3191 134.089 29.8621L146.577 32.6616C146.403 35.7395 145.182 42.8741 149.462 44.1368C150.175 44.3461 150.942 44.5385 151.747 44.7214Z" fill="#EBCAC2"/>
<path d="M146.753 41.2214C146.558 40.5882 146.432 39.9355 146.377 39.2748C146.24 37.767 146.268 36.2487 146.459 34.7469C143.921 34.4027 141.53 33.3504 139.557 31.7094C139.325 32.5697 138.05 36.3284 138.403 37.1459C139.07 38.6913 142.207 41.2214 146.753 41.2214Z" fill="#0C0C0C"/>
<path d="M144.714 37.9865C139.789 38.4313 133.43 36.4096 132.156 29.8149L131.005 23.8645C129.73 17.2682 132.146 11.251 138.327 10.0456C144.509 8.8398 150.164 13.2849 151.439 19.8796L151.947 22.5138C152.106 23.4213 152.204 24.3387 152.239 25.2595C152.349 27.6939 152.507 31.3937 151.342 34.1288C150.243 36.7116 147.862 37.7026 144.714 37.9865Z" fill="#EBCAC2"/>
<path opacity="0.5" d="M145.459 31.4668C146.361 31.4497 147.247 31.22 148.044 30.7962C148.062 30.7883 148.077 30.7769 148.09 30.7629C148.103 30.7488 148.113 30.7322 148.119 30.7142C148.125 30.6962 148.128 30.677 148.127 30.6579C148.126 30.6389 148.121 30.6202 148.112 30.6032C148.103 30.5861 148.091 30.571 148.077 30.5586C148.062 30.5463 148.045 30.5371 148.027 30.5315C148.009 30.5259 147.99 30.5241 147.971 30.5261C147.952 30.5281 147.934 30.534 147.917 30.5433C146.197 31.4153 144.583 31.4071 143.251 30.5221C143.224 30.5034 143.197 30.4861 143.168 30.4703C143.151 30.4621 143.133 30.4572 143.115 30.456C143.096 30.4548 143.078 30.4573 143.06 30.4633C143.043 30.4693 143.027 30.4787 143.013 30.491C142.999 30.5033 142.987 30.5182 142.979 30.5349C142.971 30.5515 142.966 30.5697 142.965 30.5882C142.964 30.6068 142.966 30.6254 142.972 30.643C142.978 30.6605 142.988 30.6768 143 30.6907C143.012 30.7047 143.027 30.7161 143.044 30.7243C143.054 30.7302 143.071 30.742 143.096 30.7581C143.796 31.2253 144.619 31.4721 145.459 31.4668Z" fill="#0C0C0C"/>
<path d="M145.502 32.8084C145.666 32.8079 145.828 32.7935 145.989 32.7652C146.007 32.7621 146.025 32.7554 146.04 32.7455C146.056 32.7356 146.07 32.7228 146.08 32.7076C146.091 32.6925 146.099 32.6753 146.103 32.6572C146.107 32.6391 146.107 32.6204 146.104 32.6021C146.101 32.5838 146.094 32.5663 146.085 32.5506C146.075 32.5348 146.062 32.5212 146.047 32.5105C146.032 32.4997 146.015 32.4921 145.997 32.488C145.979 32.4839 145.96 32.4833 145.942 32.4865C145.69 32.5498 145.428 32.5585 145.172 32.5121C144.917 32.4657 144.674 32.3651 144.461 32.2171C144.432 32.1932 144.396 32.1814 144.359 32.1841C144.323 32.1868 144.289 32.2039 144.264 32.2316C144.24 32.2593 144.227 32.2956 144.229 32.3325C144.231 32.3694 144.247 32.4041 144.275 32.4291C144.628 32.6944 145.062 32.8285 145.502 32.8084Z" fill="#0C0C0C"/>
<path d="M149.959 24.1755C150.388 24.1755 150.735 23.8267 150.735 23.3965C150.735 22.9663 150.388 22.6175 149.959 22.6175C149.531 22.6175 149.184 22.9663 149.184 23.3965C149.184 23.8267 149.531 24.1755 149.959 24.1755Z" fill="#0C0C0C"/>
<path d="M142.418 25.0609C142.846 25.0609 143.193 24.7121 143.193 24.2819C143.193 23.8516 142.846 23.5029 142.418 23.5029C141.989 23.5029 141.642 23.8516 141.642 24.2819C141.642 24.7121 141.989 25.0609 142.418 25.0609Z" fill="#0C0C0C"/>
<path d="M132.928 31.7491C131.049 32.1154 129.136 30.3937 128.771 28.5067C128.406 26.6197 129.729 25.2823 131.607 24.916L132.819 25.9914L134.543 31.4342L132.928 31.7491Z" fill="#EBCAC2"/>
<path d="M134.254 28.3692C134.254 28.3692 133.204 18.9008 135.924 17.81C137.735 17.0832 142.778 18.9334 146.857 17.3565C148.641 16.6663 150.478 16.8068 150.814 17.6514C150.947 17.9855 151.2 12.7874 147.623 9.52733C144.776 6.93199 137.083 7.45145 133.83 9.06362C124.825 13.5275 131.293 25.3973 131.293 25.3973L132.298 28.5447L134.254 28.3692Z" fill="#0C0C0C"/>
<path d="M146.615 29.1219H146.627C147.233 29.0041 148.236 28.7422 148.152 28.2871C148.08 27.9098 146.276 24.0368 146.071 23.5967C146.062 23.5779 146.05 23.5611 146.034 23.5472C146.019 23.5332 146.001 23.5224 145.982 23.5154C145.963 23.5083 145.942 23.5052 145.921 23.5061C145.901 23.5071 145.881 23.5121 145.862 23.5209C145.843 23.5297 145.827 23.5421 145.813 23.5574C145.799 23.5727 145.788 23.5906 145.781 23.61C145.774 23.6295 145.771 23.6502 145.772 23.6709C145.773 23.6915 145.778 23.7118 145.787 23.7306C146.586 25.4456 147.794 28.0888 147.844 28.346C147.805 28.4638 147.198 28.6912 146.571 28.8117C146.529 28.8179 146.492 28.8404 146.467 28.8742C146.442 28.908 146.431 28.9505 146.438 28.9921C146.444 29.0338 146.466 29.0712 146.5 29.0963C146.534 29.1214 146.576 29.132 146.617 29.1258L146.615 29.1219Z" fill="#0C0C0C"/>
<path d="M147.044 19.6319C147.65 19.34 148.323 19.2179 148.993 19.2785C149.321 19.3063 149.644 19.3833 149.949 19.507C150.251 19.6276 150.537 19.7859 150.799 19.9782C150.848 20.012 150.882 20.0635 150.893 20.1218C150.905 20.1802 150.894 20.2408 150.862 20.2909C150.83 20.341 150.78 20.3767 150.722 20.3905C150.665 20.4043 150.604 20.3952 150.553 20.3649L150.535 20.3587C150.297 20.206 150.041 20.084 149.773 19.9955C149.509 19.907 149.234 19.8592 148.956 19.8537C148.408 19.8384 147.865 19.9688 147.383 20.2318L147.364 20.2432C147.324 20.2657 147.281 20.2802 147.236 20.2859C147.192 20.2916 147.146 20.2884 147.103 20.2765C147.059 20.2645 147.018 20.2441 146.983 20.2163C146.947 20.1886 146.917 20.154 146.895 20.1146C146.872 20.0753 146.858 20.0319 146.852 19.9869C146.846 19.9419 146.85 19.8962 146.862 19.8525C146.873 19.8088 146.894 19.7678 146.921 19.732C146.949 19.6962 146.983 19.6661 147.023 19.6437L147.044 19.6319Z" fill="#0C0C0C"/>
<path d="M142.597 20.8388C142.069 20.6904 141.512 20.6846 140.981 20.8219C140.711 20.8894 140.453 20.9975 140.215 21.1427C139.973 21.2889 139.75 21.465 139.551 21.6669L139.538 21.6795C139.495 21.7211 139.438 21.7443 139.378 21.7441C139.319 21.7439 139.262 21.7204 139.219 21.6784C139.176 21.6365 139.152 21.5795 139.15 21.5196C139.149 21.4598 139.171 21.4017 139.212 21.3579C139.425 21.1112 139.668 20.8926 139.935 20.7073C140.206 20.5183 140.503 20.371 140.818 20.2703C141.132 20.1663 141.458 20.1061 141.789 20.0912C142.127 20.0726 142.466 20.1022 142.796 20.1792C142.885 20.2 142.962 20.2554 143.01 20.3332C143.058 20.4109 143.073 20.5047 143.052 20.5938C143.032 20.683 142.977 20.7602 142.899 20.8085C142.822 20.8568 142.728 20.8722 142.64 20.8514L142.619 20.8459L142.597 20.8388Z" fill="#0C0C0C"/>
<path d="M144.976 13.3588C146.317 12.8129 146.755 10.7632 145.955 8.78067C145.155 6.79809 143.42 5.63339 142.079 6.17925C140.738 6.7251 140.299 8.7748 141.099 10.7574C141.899 12.74 143.635 13.9047 144.976 13.3588Z" fill="#0C0C0C"/>
<path d="M167.99 55.2209C168.037 58.4759 166.77 62.1353 166.348 67.0904C166.262 68.0955 166.059 70.31 165.789 73.1959C165.347 77.9743 164.722 84.5824 164.175 90.5387C156.348 94.6647 147.537 96.534 138.718 95.9394C129.898 95.3448 121.415 92.3095 114.208 87.1699C114.036 87.0403 113.864 86.9146 113.692 86.7929C113.234 80.0592 112.695 72.9917 112.202 68.5274C111.276 60.1917 110.013 56.0416 110.721 53.2381C110.777 52.9994 110.853 52.7657 110.947 52.5392C112.984 47.5763 119.469 45.3618 123.863 44.765C126.545 44.3998 130.579 44.1368 130.579 44.1368C130.579 44.1368 130.919 51.0786 139.062 51.4634C150.148 51.9895 149.41 44.1368 149.464 44.1368C151.259 44.1368 161.035 45.4482 163.479 47.0501C163.888 47.3172 164.28 47.611 164.651 47.9297C165.713 48.8189 166.564 49.9349 167.141 51.1963C167.719 52.4577 168.009 53.8327 167.99 55.2209Z" fill="#28A0CB"/>
<path d="M127.17 60.2545L114.208 87.1699C114.036 87.0403 113.863 86.9146 113.691 86.7929C108.666 83.092 104.405 78.4462 101.143 73.1134L110.721 53.2381L111.1 52.4489L127.17 60.2545Z" fill="#28A0CB"/>
<path d="M125.919 63.3524L114.129 87.1109C114.051 87.052 113.977 86.9971 113.899 86.946L125.673 63.2307C125.69 63.1977 125.719 63.1727 125.754 63.1609C125.789 63.1492 125.827 63.1517 125.861 63.1679C125.893 63.1846 125.917 63.2134 125.928 63.248C125.939 63.2826 125.936 63.3202 125.919 63.3524Z" fill="white"/>
<path d="M185.698 67.3574C183.348 72.7065 180.049 77.5814 175.961 81.7436L165.789 73.1959L152.869 62.3355L164.651 47.9297L164.687 47.8865L185.698 67.3574Z" fill="#28A0CB"/>
<path d="M165.946 73.3007C165.979 73.299 166.01 73.2853 166.034 73.2622C166.058 73.239 166.073 73.2079 166.076 73.1747L166.747 65.2709C166.75 65.2344 166.739 65.1981 166.715 65.1701C166.692 65.142 166.658 65.1245 166.622 65.1213C166.586 65.1186 166.55 65.1303 166.522 65.1538C166.495 65.1772 166.477 65.2107 166.473 65.2469L165.802 73.1511C165.799 73.1875 165.811 73.2237 165.834 73.2517C165.858 73.2796 165.891 73.2971 165.927 73.3003L165.946 73.3007Z" fill="white"/>
<path d="M367.055 304C392.241 304 412.658 283.493 412.658 258.196C412.658 232.899 392.241 212.392 367.055 212.392C341.869 212.392 321.452 232.899 321.452 258.196C321.452 283.493 341.869 304 367.055 304Z" fill="white"/>
<path opacity="0.09" d="M321.451 258.195C321.451 267.254 324.126 276.109 329.137 283.642C334.147 291.174 341.27 297.045 349.602 300.511C357.935 303.978 367.104 304.885 375.95 303.118C384.796 301.351 392.922 296.988 399.3 290.583C405.677 284.177 410.02 276.016 411.78 267.131C413.54 258.246 412.637 249.036 409.185 240.667C405.734 232.297 399.889 225.144 392.389 220.111C384.89 215.078 376.073 212.392 367.054 212.392C361.059 212.37 355.119 213.539 349.577 215.833C344.034 218.127 338.998 221.5 334.759 225.758C330.52 230.015 327.162 235.073 324.878 240.64C322.594 246.207 321.429 252.173 321.451 258.195Z" fill="#28A0CB"/>
<path d="M387.748 232.92C387.02 241.401 387.695 244.276 391.201 249.136C394.158 253.232 377.332 249.75 369.887 248.418L376.457 229.133C376.457 229.133 388.003 229.942 387.748 232.92Z" fill="#0A0A0A"/>
<path d="M362.063 229.391C359.866 237.613 360.113 240.156 355.814 244.473C352.252 248.052 366.136 248.78 373.587 250.08L373.963 229.702C373.963 229.702 362.834 226.504 362.063 229.391Z" fill="#0A0A0A"/>
<path d="M362.803 253.303C362.852 253.297 363.398 262.389 373.914 261.596C381.194 261.049 383.79 253.29 383.957 253.29C383.125 253.152 382.304 252.952 381.501 252.693C380.355 252.074 378.936 251.43 378.567 249.194C378.354 247.905 378.715 241.312 378.604 240.006L367.429 242.512C367.585 245.266 368.68 251.65 364.849 252.78C364.211 252.968 363.524 253.14 362.803 253.303Z" fill="#E2B764"/>
<path opacity="0.5" d="M367.272 250.172C367.447 249.606 367.56 249.021 367.608 248.43C367.731 247.081 367.707 245.722 367.535 244.378C369.807 244.071 371.947 243.129 373.712 241.661C373.92 242.431 375.061 245.794 374.745 246.525C374.147 247.908 371.341 250.172 367.272 250.172Z" fill="#0C0C0C"/>
<path d="M368.717 247.34C373.123 247.768 378.824 245.998 380.005 240.105L381.07 234.787C382.251 228.894 380.127 223.494 374.603 222.377C369.078 221.26 363.991 225.204 362.81 231.096L362.339 233.452C361.886 235.711 360.856 246.576 368.717 247.34Z" fill="#E2B764"/>
<path d="M386.402 236.466L381.433 235.919C371.708 234.123 369.327 226.241 369.327 226.241C369.327 226.241 365.247 231.711 361.784 230.455C361.784 230.455 362.9 217.266 378.276 219.584C384.317 220.494 387.747 225.524 387.747 232.271C387.747 237.232 386.402 236.466 386.402 236.466Z" fill="#0A0A0A"/>
<path opacity="0.1" d="M372.943 238.805C373.007 238.271 372.47 237.768 371.745 237.681C371.02 237.594 370.381 237.956 370.318 238.491C370.254 239.025 370.79 239.528 371.515 239.615C372.24 239.702 372.88 239.339 372.943 238.805Z" fill="#0C0C0C"/>
<path opacity="0.1" d="M363.859 237.482C363.794 238.015 363.155 238.377 362.429 238.291C362.304 238.276 362.181 238.248 362.061 238.207C362.028 237.571 362.026 236.96 362.044 236.393C362.245 236.343 362.454 236.33 362.66 236.357C363.383 236.443 363.92 236.946 363.859 237.482Z" fill="#0C0C0C"/>
<path opacity="0.5" d="M367.061 239.13H367.05C366.826 239.084 366.605 239.024 366.388 238.953C366.063 238.844 365.639 238.665 365.698 238.37C365.765 238.035 367.407 234.597 367.594 234.206C367.602 234.188 367.613 234.173 367.627 234.16C367.641 234.147 367.657 234.137 367.675 234.13C367.693 234.123 367.712 234.12 367.731 234.121C367.75 234.122 367.768 234.127 367.785 234.135C367.803 234.144 367.818 234.155 367.83 234.17C367.843 234.184 367.853 234.201 367.859 234.219C367.865 234.237 367.867 234.256 367.866 234.275C367.864 234.294 367.859 234.313 367.85 234.33C367.15 235.793 366.022 238.201 365.977 238.427C366.314 238.657 366.701 238.802 367.106 238.85C367.141 238.858 367.173 238.879 367.194 238.909C367.214 238.94 367.223 238.977 367.217 239.013C367.211 239.049 367.192 239.082 367.163 239.104C367.133 239.126 367.097 239.136 367.061 239.132V239.13Z" fill="#0C0C0C"/>
<path d="M379.302 241.831C380.981 242.17 382.703 240.641 383.041 238.955C383.379 237.269 382.204 236.064 380.525 235.724L379.434 236.679L377.858 241.539L379.302 241.831Z" fill="#E2B764"/>
<path d="M366.403 231.463C366.196 231.315 365.97 231.196 365.731 231.109C365.49 231.018 365.237 230.961 364.979 230.939C364.722 230.915 364.462 230.929 364.209 230.982C363.954 231.034 363.706 231.118 363.472 231.233L363.464 231.236C363.439 231.245 363.411 231.245 363.386 231.234C363.361 231.224 363.341 231.205 363.33 231.18C363.318 231.156 363.316 231.128 363.324 231.102C363.332 231.076 363.349 231.054 363.372 231.04C363.62 230.908 363.884 230.808 364.157 230.742C364.432 230.675 364.716 230.65 364.999 230.668C365.571 230.7 366.125 230.885 366.602 231.205C366.636 231.23 366.66 231.268 366.667 231.31C366.674 231.352 366.665 231.395 366.641 231.431C366.617 231.466 366.58 231.491 366.539 231.499C366.497 231.508 366.454 231.5 366.418 231.477L366.414 231.474L366.403 231.463Z" fill="#0C0C0C"/>
<path d="M370.927 232.091C371.49 231.978 372.072 232.02 372.613 232.211C372.881 232.303 373.133 232.435 373.362 232.603C373.589 232.769 373.795 232.962 373.974 233.179C373.994 233.201 374.004 233.229 374.003 233.258C374.001 233.287 373.989 233.314 373.967 233.334C373.946 233.353 373.918 233.363 373.889 233.362C373.86 233.361 373.833 233.348 373.814 233.326L373.808 233.321C373.635 233.125 373.438 232.952 373.221 232.805C373.008 232.659 372.773 232.546 372.526 232.47C372.035 232.315 371.512 232.294 371.01 232.408L370.998 232.411C370.956 232.421 370.912 232.414 370.875 232.392C370.837 232.369 370.811 232.333 370.8 232.291C370.79 232.248 370.797 232.204 370.819 232.166C370.842 232.129 370.878 232.102 370.92 232.092L370.927 232.091Z" fill="#0C0C0C"/>
<path d="M345.866 298.762C344.073 297.977 342.732 297.136 339.671 294.82C337.462 293.154 335.409 291.29 333.538 289.249L349.257 259.207L349.94 257.902L364.118 265.388L351.819 288.896L351.763 288.999L351.869 289.417" fill="#28A0CB"/>
<path d="M398.142 274.595C397.729 279.049 397.64 285.978 397.668 292.138C391.741 297.538 384.503 301.275 376.682 302.974C368.861 304.673 360.732 304.274 353.114 301.816C352.181 292.526 350.795 278.875 350.013 270.469C349.221 261.762 346.892 258.886 353.249 254.716C356.752 252.925 362.304 252.768 364.8 252.768C363.953 261.021 381.27 262.037 381.7 252.768C394.652 253.984 400.649 254.287 398.142 274.595Z" fill="#28A0CB"/>
<path d="M365.583 240.292C367.015 241.023 368.648 241.254 370.225 240.949C370.28 240.938 370.336 240.944 370.388 240.964C370.44 240.985 370.484 241.02 370.517 241.066C370.549 241.111 370.568 241.165 370.572 241.22C370.575 241.276 370.562 241.332 370.535 241.381C370.066 242.213 368.95 243.635 367.037 243.056C365.802 242.681 365.335 241.407 365.161 240.615C365.148 240.561 365.152 240.503 365.171 240.451C365.19 240.398 365.224 240.352 365.269 240.318C365.313 240.284 365.366 240.263 365.422 240.258C365.478 240.254 365.534 240.265 365.583 240.292Z" fill="white"/>
<path d="M365.494 233.897C365.876 233.897 366.185 233.586 366.185 233.203C366.185 232.819 365.876 232.508 365.494 232.508C365.112 232.508 364.802 232.819 364.802 233.203C364.802 233.586 365.112 233.897 365.494 233.897Z" fill="#0C0C0C"/>
<path d="M372.141 235.066C372.523 235.066 372.832 234.755 372.832 234.371C372.832 233.988 372.523 233.677 372.141 233.677C371.759 233.677 371.449 233.988 371.449 234.371C371.449 234.755 371.759 235.066 372.141 235.066Z" fill="#0C0C0C"/>
<path d="M351.545 285.464H351.558C351.586 285.46 351.611 285.445 351.628 285.422C351.645 285.399 351.653 285.37 351.649 285.342L350.426 272.969C350.425 272.955 350.42 272.941 350.413 272.929C350.406 272.917 350.397 272.906 350.385 272.897C350.374 272.889 350.361 272.883 350.348 272.879C350.334 272.876 350.32 272.875 350.306 272.878C350.292 272.879 350.278 272.884 350.266 272.891C350.254 272.898 350.244 272.908 350.235 272.919C350.227 272.93 350.221 272.943 350.217 272.957C350.214 272.97 350.213 272.985 350.215 272.999L351.437 285.372C351.441 285.398 351.454 285.421 351.474 285.438C351.494 285.455 351.519 285.464 351.545 285.464Z" fill="#0C0C0C"/>
<path d="M349.946 276.04H337.465V291.416H349.946V276.04Z" fill="#D9E8F6"/>
<path d="M344.835 283.728C344.835 282.713 345.135 281.72 345.697 280.876C346.259 280.032 347.057 279.374 347.991 278.986C348.925 278.597 349.953 278.496 350.945 278.694C351.936 278.892 352.847 279.381 353.562 280.1C354.276 280.818 354.763 281.732 354.96 282.728C355.157 283.724 355.056 284.757 354.669 285.695C354.282 286.633 353.627 287.434 352.786 287.998C351.945 288.563 350.957 288.864 349.946 288.863C348.591 288.862 347.291 288.32 346.333 287.358C345.375 286.395 344.836 285.09 344.835 283.728ZM346.928 283.728C346.928 284.328 347.105 284.914 347.437 285.412C347.769 285.911 348.24 286.299 348.791 286.529C349.343 286.758 349.95 286.818 350.535 286.701C351.12 286.584 351.658 286.295 352.08 285.872C352.502 285.448 352.79 284.907 352.906 284.32C353.023 283.732 352.963 283.122 352.734 282.568C352.506 282.014 352.119 281.541 351.623 281.208C351.127 280.875 350.543 280.697 349.946 280.697C349.146 280.698 348.379 281.018 347.813 281.586C347.248 282.154 346.929 282.925 346.928 283.728Z" fill="#D9E8F6"/>
<path d="M349.847 285.631C349.889 285.371 350.021 285.134 350.219 284.961C350.418 284.789 350.67 284.693 350.932 284.689C350.925 284.678 350.92 284.666 350.917 284.654L350.545 284.573C350.286 284.521 350.053 284.381 349.885 284.177C349.716 283.972 349.624 283.716 349.622 283.451C349.624 283.284 349.664 283.12 349.737 282.971C349.81 282.822 349.915 282.691 350.045 282.587C350.174 282.483 350.325 282.41 350.486 282.372C350.648 282.334 350.815 282.333 350.977 282.368L351.854 282.558C351.854 282.555 351.854 282.552 351.854 282.548C351.856 282.541 351.859 282.534 351.862 282.528C351.634 282.42 351.448 282.238 351.336 282.01C351.224 281.783 351.192 281.524 351.245 281.277C351.341 280.625 352.119 280.411 352.689 280.534L354.96 280.943L354.194 280.432C353.952 280.264 353.783 280.01 353.72 279.721C353.658 279.432 353.707 279.131 353.857 278.877C353.939 278.748 354.047 278.638 354.173 278.553C354.299 278.468 354.441 278.409 354.59 278.381C354.739 278.353 354.893 278.355 355.041 278.388C355.189 278.421 355.329 278.485 355.453 278.574L364.607 289.097L362.575 288.17C361.944 289.102 361.05 289.824 360.008 290.242C358.967 290.661 357.824 290.757 356.727 290.519L351.763 289.432C351.504 289.381 351.27 289.241 351.102 289.037C350.933 288.832 350.841 288.576 350.839 288.31C350.843 288.071 350.922 287.839 351.066 287.648C351.211 287.458 351.411 287.318 351.64 287.25C351.633 287.233 351.63 287.215 351.633 287.197C351.635 287.18 351.642 287.163 351.653 287.15C351.663 287.136 351.677 287.125 351.693 287.118L350.776 286.92C350.488 286.863 350.231 286.699 350.059 286.459C349.886 286.22 349.81 285.924 349.847 285.631Z" fill="#E2B764"/>
<path opacity="0.2" d="M353.512 282.929C353.536 282.924 353.558 282.91 353.573 282.891C353.588 282.872 353.596 282.848 353.596 282.824C353.595 282.799 353.586 282.775 353.57 282.757C353.554 282.738 353.533 282.726 353.509 282.721L351.975 282.461C351.961 282.458 351.947 282.458 351.933 282.46C351.919 282.463 351.906 282.469 351.894 282.477C351.882 282.485 351.872 282.495 351.865 282.507C351.857 282.519 351.852 282.532 351.85 282.546C351.847 282.56 351.848 282.575 351.851 282.589C351.854 282.602 351.86 282.615 351.869 282.627C351.877 282.638 351.888 282.648 351.9 282.655C351.912 282.662 351.926 282.667 351.94 282.669L353.473 282.93C353.486 282.932 353.5 282.932 353.512 282.929Z" fill="#0C0C0C"/>
<path opacity="0.2" d="M353.142 285.108C353.166 285.102 353.187 285.089 353.203 285.07C353.218 285.051 353.226 285.027 353.226 285.003C353.225 284.978 353.216 284.954 353.201 284.936C353.185 284.917 353.163 284.905 353.139 284.9L351.038 284.526C351.024 284.523 351.01 284.522 350.996 284.525C350.982 284.528 350.969 284.533 350.957 284.541C350.945 284.549 350.935 284.559 350.927 284.571C350.919 284.583 350.914 284.596 350.911 284.61C350.909 284.625 350.909 284.639 350.912 284.653C350.915 284.667 350.921 284.68 350.93 284.692C350.938 284.703 350.949 284.713 350.961 284.72C350.974 284.727 350.987 284.732 351.002 284.734L353.102 285.108C353.116 285.111 353.129 285.11 353.142 285.108Z" fill="#0C0C0C"/>
<path opacity="0.2" d="M352.756 287.47C352.78 287.464 352.802 287.451 352.817 287.432C352.832 287.412 352.84 287.388 352.84 287.363C352.839 287.339 352.83 287.315 352.813 287.296C352.797 287.278 352.775 287.266 352.75 287.262L351.754 287.109C351.727 287.106 351.701 287.114 351.679 287.131C351.658 287.147 351.644 287.171 351.64 287.198C351.636 287.225 351.642 287.252 351.658 287.274C351.673 287.296 351.696 287.312 351.722 287.317L352.719 287.471C352.731 287.473 352.744 287.472 352.756 287.47Z" fill="#0C0C0C"/>
<path d="M404.501 284.33C398.884 292.443 390.813 298.52 381.485 301.659L381.481 301.656C379.41 301.248 359.645 293.41 357.031 292.895L359.891 279.491C367.237 280.959 380.634 286.619 388.021 288.092L382.809 264.359C382.62 263.31 382.64 262.235 382.869 261.194C383.097 260.154 383.528 259.169 384.138 258.298C384.748 257.426 385.524 256.685 386.422 256.116C387.319 255.548 388.32 255.165 389.366 254.988C390.412 254.811 391.482 254.845 392.515 255.087C393.548 255.329 394.523 255.775 395.383 256.398C396.243 257.021 396.972 257.81 397.526 258.718C398.081 259.626 398.45 260.636 398.613 261.689L404.501 284.33Z" fill="#28A0CB"/>
<path d="M393.62 289.84C393.646 289.839 393.672 289.829 393.691 289.81C393.711 289.792 393.723 289.767 393.725 289.74C393.727 289.713 393.719 289.687 393.702 289.666C393.686 289.645 393.662 289.63 393.636 289.626L388.082 287.733C388.068 287.731 388.054 287.732 388.04 287.735C388.026 287.738 388.013 287.744 388.002 287.753C387.991 287.761 387.981 287.772 387.974 287.784C387.967 287.796 387.962 287.81 387.96 287.824C387.956 287.852 387.963 287.88 387.98 287.903C387.997 287.926 388.022 287.941 388.05 287.945L393.604 289.838C393.609 289.839 393.615 289.84 393.62 289.84Z" fill="#0C0C0C"/>
<path d="M388.167 287.824C388.17 287.858 388.16 287.891 388.138 287.917C388.126 287.929 388.111 287.937 388.095 287.942C388.079 287.947 388.062 287.949 388.046 287.946L360.069 279.652L357.266 292.845L381.357 301.698C381.282 301.723 381.203 301.748 381.129 301.773C381.075 301.791 381.022 301.809 380.965 301.823L357.109 293.025C357.082 293.018 357.059 293.001 357.044 292.977C357.03 292.953 357.025 292.924 357.031 292.897L359.891 279.492C359.895 279.479 359.901 279.466 359.91 279.455C359.918 279.444 359.929 279.435 359.941 279.428C359.953 279.42 359.966 279.414 359.981 279.412C359.995 279.409 360.009 279.41 360.023 279.414L387.932 287.718L384.773 274.634C384.769 274.606 384.776 274.578 384.793 274.555C384.809 274.532 384.834 274.517 384.862 274.513C384.875 274.51 384.89 274.51 384.903 274.513C384.917 274.516 384.93 274.521 384.942 274.529C384.953 274.537 384.963 274.547 384.971 274.559C384.979 274.571 384.984 274.584 384.986 274.598L388.167 287.824Z" fill="#0C0C0C"/>
<path d="M23.3572 270.726C23.3311 270.726 23.3054 270.721 23.2813 270.711C23.2577 270.701 23.2362 270.686 23.2181 270.668C23.2001 270.65 23.1858 270.628 23.1761 270.604C23.1664 270.58 23.1615 270.555 23.1616 270.529C23.1618 270.503 23.167 270.478 23.1769 270.454L30.8366 252.168C30.8567 252.119 30.8951 252.082 30.9431 252.062C30.9912 252.042 31.045 252.043 31.0928 252.063C31.1406 252.083 31.1784 252.122 31.198 252.17C31.2175 252.218 31.2172 252.272 31.197 252.32L23.5374 270.606C23.5225 270.641 23.4975 270.672 23.4654 270.693C23.4333 270.715 23.3957 270.726 23.3572 270.726Z" fill="#0C0C0C"/>
<path d="M68.4292 270.934H68.4206C68.395 270.935 68.3694 270.931 68.3452 270.922C68.3211 270.914 68.2989 270.9 68.28 270.883C68.261 270.865 68.2457 270.844 68.2348 270.821C68.2239 270.798 68.2177 270.772 68.2166 270.747L67.3628 252.044C67.3621 251.992 67.381 251.942 67.4155 251.904C67.4501 251.866 67.4977 251.843 67.5489 251.838C67.5746 251.837 67.6002 251.841 67.6244 251.85C67.6486 251.859 67.6708 251.872 67.6898 251.89C67.7088 251.907 67.7242 251.928 67.7351 251.951C67.746 251.975 67.7522 252 67.7533 252.026L68.6071 270.729C68.6096 270.779 68.5925 270.829 68.5593 270.867C68.5262 270.906 68.4796 270.93 68.4292 270.934Z" fill="#0C0C0C"/>
</g>
<defs>
<clipPath id="clip0_433_3245">
<rect width="436" height="304" fill="white" transform="translate(0.42334)"/>
</clipPath>
</defs>
</svg>
