<svg width="469" height="470" viewBox="0 0 469 470" fill="none" xmlns="http://www.w3.org/2000/svg">
<g clip-path="url(#clip0_433_942)">
<path d="M380.435 310.599H265.919C261.256 310.599 257.477 314.376 257.477 319.035V381.093C257.477 385.752 261.256 389.529 265.919 389.529H380.435C385.097 389.529 388.877 385.752 388.877 381.093V319.035C388.877 314.376 385.097 310.599 380.435 310.599Z" fill="white"/>
<path opacity="0.1" d="M380.435 310.599H265.919C261.256 310.599 257.477 314.376 257.477 319.035V381.093C257.477 385.752 261.256 389.529 265.919 389.529H380.435C385.097 389.529 388.877 385.752 388.877 381.093V319.035C388.877 314.376 385.097 310.599 380.435 310.599Z" fill="#28A0CB"/>
<path d="M352.682 352.92H342.542C341.925 352.92 341.425 353.421 341.425 354.037V376.496C341.425 377.113 341.925 377.613 342.542 377.613H352.682C353.299 377.613 353.8 377.113 353.8 376.496V354.037C353.8 353.421 353.299 352.92 352.682 352.92Z" fill="white"/>
<path d="M377.117 333.716H366.977C366.36 333.716 365.86 334.216 365.86 334.833V376.496C365.86 377.113 366.36 377.613 366.977 377.613H377.117C377.734 377.613 378.235 377.113 378.235 376.496V334.833C378.235 334.216 377.734 333.716 377.117 333.716Z" fill="white"/>
<path d="M279.375 352.92H269.236C268.618 352.92 268.118 353.421 268.118 354.037V376.496C268.118 377.113 268.618 377.613 269.236 377.613H279.375C279.993 377.613 280.493 377.113 280.493 376.496V354.037C280.493 353.421 279.993 352.92 279.375 352.92Z" fill="white"/>
<path d="M303.811 324.984H293.671C293.054 324.984 292.554 325.484 292.554 326.101V376.496C292.554 377.113 293.054 377.613 293.671 377.613H303.811C304.429 377.613 304.929 377.113 304.929 376.496V326.101C304.929 325.484 304.429 324.984 303.811 324.984Z" fill="white"/>
<path d="M328.246 347.386H318.107C317.489 347.386 316.989 347.886 316.989 348.503V376.496C316.989 377.113 317.489 377.613 318.107 377.613H328.246C328.864 377.613 329.364 377.113 329.364 376.496V348.503C329.364 347.886 328.864 347.386 328.246 347.386Z" fill="white"/>
<path d="M174.333 262.325H28.9911C23.0737 262.325 18.2766 267.118 18.2766 273.031V351.794C18.2766 357.708 23.0737 362.501 28.9911 362.501H174.333C180.251 362.501 185.048 357.708 185.048 351.794V273.031C185.048 267.118 180.251 262.325 174.333 262.325Z" fill="white"/>
<path opacity="0.1" d="M174.333 262.325H28.9911C23.0737 262.325 18.2766 267.118 18.2766 273.031V351.794C18.2766 357.708 23.0737 362.501 28.9911 362.501H174.333C180.251 362.501 185.048 357.708 185.048 351.794V273.031C185.048 267.118 180.251 262.325 174.333 262.325Z" fill="#28A0CB"/>
<path d="M139.11 316.039H126.24C125.457 316.039 124.822 316.674 124.822 317.456V345.961C124.822 346.744 125.457 347.379 126.24 347.379H139.11C139.893 347.379 140.528 346.744 140.528 345.961V317.456C140.528 316.674 139.893 316.039 139.11 316.039Z" fill="white"/>
<path d="M170.123 291.666H157.253C156.47 291.666 155.835 292.3 155.835 293.083V345.962C155.835 346.744 156.47 347.379 157.253 347.379H170.123C170.906 347.379 171.542 346.744 171.542 345.962V293.083C171.542 292.3 170.906 291.666 170.123 291.666Z" fill="white"/>
<path d="M46.0703 316.039H33.2008C32.4173 316.039 31.7822 316.674 31.7822 317.456V345.961C31.7822 346.744 32.4173 347.379 33.2008 347.379H46.0703C46.8538 347.379 47.4889 346.744 47.4889 345.961V317.456C47.4889 316.674 46.8538 316.039 46.0703 316.039Z" fill="white"/>
<path d="M77.0833 280.583H64.2137C63.4303 280.583 62.7952 281.218 62.7952 282.001V345.961C62.7952 346.744 63.4303 347.379 64.2137 347.379H77.0833C77.8667 347.379 78.5018 346.744 78.5018 345.961V282.001C78.5018 281.218 77.8667 280.583 77.0833 280.583Z" fill="white"/>
<path d="M108.097 309.014H95.2274C94.4439 309.014 93.8088 309.649 93.8088 310.432V345.961C93.8088 346.744 94.4439 347.379 95.2274 347.379H108.097C108.88 347.379 109.515 346.744 109.515 345.961V310.432C109.515 309.649 108.88 309.014 108.097 309.014Z" fill="white"/>
<path d="M449.893 0H282.968C276.172 0 270.663 5.50545 270.663 12.2968V102.756C270.663 109.547 276.172 115.053 282.968 115.053H449.893C456.689 115.053 462.198 109.547 462.198 102.756V12.2968C462.198 5.50545 456.689 0 449.893 0Z" fill="white"/>
<path opacity="0.1" d="M449.893 0H282.968C276.172 0 270.663 5.50545 270.663 12.2968V102.756C270.663 109.547 276.172 115.053 282.968 115.053H449.893C456.689 115.053 462.198 109.547 462.198 102.756V12.2968C462.198 5.50545 456.689 0 449.893 0Z" fill="#28A0CB"/>
<path d="M409.44 61.6909H394.659C393.759 61.6909 393.03 62.4198 393.03 63.3188V96.0565C393.03 96.9556 393.759 97.6844 394.659 97.6844H409.44C410.339 97.6844 411.069 96.9556 411.069 96.0565V63.3188C411.069 62.4198 410.339 61.6909 409.44 61.6909Z" fill="white"/>
<path d="M445.058 33.6978H430.277C429.378 33.6978 428.648 34.4266 428.648 35.3257V96.0565C428.648 96.9556 429.378 97.6845 430.277 97.6845H445.058C445.957 97.6845 446.687 96.9556 446.687 96.0565V35.3257C446.687 34.4266 445.957 33.6978 445.058 33.6978Z" fill="white"/>
<path d="M302.584 61.6909H287.804C286.904 61.6909 286.175 62.4198 286.175 63.3188V96.0565C286.175 96.9556 286.904 97.6844 287.804 97.6844H302.584C303.484 97.6844 304.213 96.9556 304.213 96.0565V63.3188C304.213 62.4198 303.484 61.6909 302.584 61.6909Z" fill="white"/>
<path d="M338.203 20.9699H323.422C322.523 20.9699 321.793 21.6987 321.793 22.5978V96.0565C321.793 96.9556 322.523 97.6845 323.422 97.6845H338.203C339.102 97.6845 339.832 96.9556 339.832 96.0565V22.5978C339.832 21.6987 339.102 20.9699 338.203 20.9699Z" fill="white"/>
<path d="M373.821 53.6228H359.04C358.141 53.6228 357.411 54.3516 357.411 55.2507V96.056C357.411 96.9551 358.141 97.684 359.04 97.684H373.821C374.721 97.684 375.45 96.9551 375.45 96.056V55.2507C375.45 54.3516 374.721 53.6228 373.821 53.6228Z" fill="white"/>
<path d="M87.4328 94.9624H6.00265C2.68748 94.9624 0 97.648 0 100.961V145.089C0 148.402 2.68748 151.088 6.00265 151.088H87.4328C90.748 151.088 93.4355 148.402 93.4355 145.089V100.961C93.4355 97.648 90.748 94.9624 87.4328 94.9624Z" fill="white"/>
<path opacity="0.3" d="M87.4328 94.9624H6.00265C2.68748 94.9624 0 97.648 0 100.961V145.089C0 148.402 2.68748 151.088 6.00265 151.088H87.4328C90.748 151.088 93.4355 148.402 93.4355 145.089V100.961C93.4355 97.648 90.748 94.9624 87.4328 94.9624Z" fill="#28A0CB"/>
<path d="M67.6988 125.057H60.4882C60.0493 125.057 59.6936 125.412 59.6936 125.851V141.821C59.6936 142.26 60.0493 142.615 60.4882 142.615H67.6988C68.1376 142.615 68.4933 142.26 68.4933 141.821V125.851C68.4933 125.412 68.1376 125.057 67.6988 125.057Z" fill="white"/>
<path d="M85.074 111.401H77.8634C77.4246 111.401 77.0688 111.756 77.0688 112.195V141.821C77.0688 142.259 77.4246 142.615 77.8634 142.615H85.074C85.5128 142.615 85.8686 142.259 85.8686 141.821V112.195C85.8686 111.756 85.5128 111.401 85.074 111.401Z" fill="white"/>
<path d="M15.5721 125.057H8.36146C7.92264 125.057 7.56689 125.412 7.56689 125.851V141.821C7.56689 142.26 7.92264 142.615 8.36146 142.615H15.5721C16.0109 142.615 16.3666 142.26 16.3666 141.821V125.851C16.3666 125.412 16.0109 125.057 15.5721 125.057Z" fill="white"/>
<path d="M32.9478 105.192H25.7372C25.2984 105.192 24.9426 105.547 24.9426 105.986V141.821C24.9426 142.26 25.2984 142.615 25.7372 142.615H32.9478C33.3866 142.615 33.7424 142.26 33.7424 141.821V105.986C33.7424 105.547 33.3866 105.192 32.9478 105.192Z" fill="white"/>
<path d="M50.323 121.121H43.1124C42.6736 121.121 42.3179 121.476 42.3179 121.915V141.821C42.3179 142.259 42.6736 142.615 43.1124 142.615H50.323C50.7619 142.615 51.1176 142.259 51.1176 141.821V121.915C51.1176 121.476 50.7619 121.121 50.323 121.121Z" fill="white"/>
<path d="M77.6333 293.896L406.521 293.896C414.597 293.896 421.145 287.353 421.145 279.282L421.145 38.6586C421.145 30.5877 414.597 24.045 406.521 24.045L77.6333 24.045C69.5568 24.045 63.0094 30.5877 63.0094 38.6586L63.0094 279.282C63.0094 287.353 69.5568 293.896 77.6333 293.896Z" fill="white"/>
<path d="M62.5215 279.282V38.6586C62.526 34.655 64.1195 30.8167 66.9525 27.9858C69.7855 25.1549 73.6265 23.5625 77.6329 23.5579H406.52C410.527 23.5625 414.368 25.1549 417.201 27.9858C420.034 30.8167 421.627 34.655 421.632 38.6586V279.282C421.627 283.286 420.034 287.124 417.201 289.955C414.368 292.786 410.527 294.378 406.52 294.383H77.6329C73.6265 294.378 69.7855 292.786 66.9525 289.955C64.1195 287.124 62.526 283.286 62.5215 279.282ZM77.6329 24.5322C73.885 24.5366 70.2919 26.0263 67.6417 28.6745C64.9916 31.3228 63.5008 34.9134 63.4964 38.6586V279.282C63.5007 283.027 64.9914 286.618 67.6416 289.266C70.2918 291.915 73.885 293.404 77.6329 293.408H406.52C410.268 293.404 413.861 291.915 416.512 289.266C419.162 286.618 420.653 283.027 420.657 279.282V38.6586C420.652 34.9133 419.162 31.3227 416.511 28.6744C413.861 26.0261 410.268 24.5364 406.52 24.5322H77.6329Z" fill="#292A2E"/>
<path d="M63.0095 38.6571V53.3617H421.143V38.6571C421.143 34.7814 419.602 31.0644 416.86 28.3238C414.117 25.5832 410.397 24.0436 406.519 24.0436H77.6335C73.755 24.0436 70.0353 25.5832 67.2928 28.3238C64.5503 31.0644 63.0095 34.7814 63.0095 38.6571Z" fill="#292A2E"/>
<path d="M401.794 67.3346H262.248C258.823 67.3346 256.046 70.1094 256.046 73.5322V172.177C256.046 175.6 258.823 178.375 262.248 178.375H401.794C405.219 178.375 407.996 175.6 407.996 172.177V73.5322C407.996 70.1094 405.219 67.3346 401.794 67.3346Z" fill="white"/>
<path opacity="0.15" d="M401.794 67.3346H262.248C258.823 67.3346 256.046 70.1094 256.046 73.5322V172.177C256.046 175.6 258.823 178.375 262.248 178.375H401.794C405.219 178.375 407.996 175.6 407.996 172.177V73.5322C407.996 70.1094 405.219 67.3346 401.794 67.3346Z" fill="#28A0CB"/>
<path d="M283.32 81.1907H271.26C270.7 81.1907 270.245 81.6445 270.245 82.2044V163.505C270.245 164.065 270.7 164.519 271.26 164.519H283.32C283.88 164.519 284.335 164.065 284.335 163.505V82.2044C284.335 81.6445 283.88 81.1907 283.32 81.1907Z" fill="#FAFAFA"/>
<path opacity="0.6" d="M270.245 122.037H284.333V163.505C284.333 163.774 284.226 164.032 284.036 164.222C283.846 164.412 283.588 164.519 283.319 164.519H271.26C270.991 164.519 270.733 164.412 270.542 164.222C270.352 164.032 270.245 163.774 270.245 163.505V122.037Z" fill="#FFBC78"/>
<path d="M310.685 81.1907H298.625C298.065 81.1907 297.611 81.6445 297.611 82.2044V163.505C297.611 164.065 298.065 164.519 298.625 164.519H310.685C311.246 164.519 311.7 164.065 311.7 163.505V82.2044C311.7 81.6445 311.246 81.1907 310.685 81.1907Z" fill="#FAFAFA"/>
<path opacity="0.6" d="M297.611 110.488H311.698V163.505C311.698 163.773 311.591 164.031 311.401 164.221C311.211 164.412 310.953 164.518 310.684 164.518H298.625C298.356 164.518 298.098 164.412 297.908 164.221C297.717 164.031 297.611 163.773 297.611 163.505V110.488Z" fill="#FFBC78"/>
<path d="M392.782 81.1907H380.722C380.161 81.1907 379.707 81.6445 379.707 82.2044V163.505C379.707 164.065 380.161 164.519 380.722 164.519H392.782C393.342 164.519 393.797 164.065 393.797 163.505V82.2044C393.797 81.6445 393.342 81.1907 392.782 81.1907Z" fill="#FAFAFA"/>
<path opacity="0.6" d="M379.707 98.836H393.795V163.506C393.795 163.774 393.688 164.032 393.498 164.222C393.308 164.413 393.05 164.519 392.781 164.519H380.722C380.453 164.519 380.195 164.413 380.005 164.222C379.815 164.032 379.708 163.774 379.708 163.506V98.836H379.707Z" fill="#FFBC78"/>
<path d="M338.051 81.1907H325.991C325.431 81.1907 324.977 81.6445 324.977 82.2044V163.505C324.977 164.065 325.431 164.519 325.991 164.519H338.051C338.612 164.519 339.066 164.065 339.066 163.505V82.2044C339.066 81.6445 338.612 81.1907 338.051 81.1907Z" fill="#FAFAFA"/>
<path opacity="0.6" d="M324.977 140.716H339.064V163.505C339.064 163.774 338.957 164.032 338.767 164.222C338.577 164.412 338.319 164.519 338.05 164.519H325.991C325.722 164.519 325.464 164.412 325.274 164.222C325.083 164.032 324.977 163.774 324.977 163.505V140.716Z" fill="#FFBC78"/>
<path d="M365.417 81.1907H353.356C352.796 81.1907 352.342 81.6445 352.342 82.2044V163.505C352.342 164.065 352.796 164.519 353.356 164.519H365.417C365.977 164.519 366.431 164.065 366.431 163.505V82.2044C366.431 81.6445 365.977 81.1907 365.417 81.1907Z" fill="#FAFAFA"/>
<path opacity="0.6" d="M352.34 126.155H366.428V163.505C366.428 163.773 366.321 164.031 366.131 164.221C365.941 164.412 365.683 164.518 365.414 164.518H353.356C353.223 164.518 353.091 164.492 352.968 164.441C352.845 164.39 352.733 164.316 352.639 164.221C352.545 164.127 352.47 164.016 352.419 163.893C352.368 163.77 352.342 163.638 352.342 163.505V126.155H352.34Z" fill="#FFBC78"/>
<path opacity="0.15" d="M399.117 189.244H263.245C258.342 189.244 254.367 193.216 254.367 198.116V271.637C254.367 276.537 258.342 280.509 263.245 280.509H399.117C404.021 280.509 407.996 276.537 407.996 271.637V198.116C407.996 193.216 404.021 189.244 399.117 189.244Z" fill="#28A0CB"/>
<path d="M346.265 212.04C348.088 212.04 349.566 210.564 349.566 208.743C349.566 206.921 348.088 205.445 346.265 205.445C344.443 205.445 342.965 206.921 342.965 208.743C342.965 210.564 344.443 212.04 346.265 212.04Z" fill="#28A0CB"/>
<path d="M346.265 228.851C348.088 228.851 349.566 227.375 349.566 225.554C349.566 223.732 348.088 222.256 346.265 222.256C344.443 222.256 342.965 223.732 342.965 225.554C342.965 227.375 344.443 228.851 346.265 228.851Z" fill="#262626"/>
<path d="M346.265 245.663C348.088 245.663 349.566 244.186 349.566 242.365C349.566 240.544 348.088 239.067 346.265 239.067C344.443 239.067 342.965 240.544 342.965 242.365C342.965 244.186 344.443 245.663 346.265 245.663Z" fill="white"/>
<path opacity="0.5" d="M346.265 262.474C348.088 262.474 349.566 260.997 349.566 259.176C349.566 257.355 348.088 255.878 346.265 255.878C344.443 255.878 342.965 257.355 342.965 259.176C342.965 260.997 344.443 262.474 346.265 262.474Z" fill="#28A0CB"/>
<path d="M392.063 208.741C392.063 209.236 391.867 209.711 391.516 210.06C391.166 210.41 390.691 210.607 390.196 210.607H358.475C358.034 210.615 357.603 210.471 357.255 210.2C356.907 209.929 356.663 209.546 356.564 209.116C356.508 208.845 356.514 208.565 356.58 208.296C356.647 208.027 356.772 207.776 356.947 207.562C357.123 207.347 357.344 207.174 357.594 207.056C357.845 206.937 358.118 206.875 358.395 206.876H390.196C390.441 206.876 390.684 206.924 390.911 207.017C391.137 207.111 391.343 207.249 391.517 207.422C391.69 207.595 391.827 207.801 391.921 208.027C392.015 208.254 392.063 208.496 392.063 208.741Z" fill="white"/>
<path d="M392.063 225.553C392.063 226.048 391.867 226.522 391.516 226.872C391.166 227.222 390.691 227.419 390.196 227.419H358.494C358.235 227.423 357.978 227.375 357.738 227.277C357.498 227.18 357.28 227.036 357.097 226.853C356.914 226.67 356.769 226.453 356.671 226.213C356.574 225.973 356.525 225.716 356.529 225.458C356.554 224.98 356.762 224.53 357.109 224.201C357.456 223.871 357.917 223.688 358.395 223.688H390.196C390.441 223.688 390.684 223.736 390.911 223.83C391.137 223.923 391.343 224.061 391.516 224.234C391.69 224.407 391.827 224.613 391.921 224.839C392.015 225.066 392.063 225.308 392.063 225.553Z" fill="white"/>
<path d="M392.063 242.365C392.063 242.86 391.867 243.334 391.517 243.684C391.166 244.034 390.691 244.231 390.196 244.231H358.203C357.758 244.231 357.332 244.054 357.017 243.74C356.703 243.426 356.526 242.999 356.526 242.555V242.175C356.526 241.731 356.703 241.305 357.017 240.991C357.332 240.676 357.758 240.5 358.203 240.5H390.196C390.441 240.5 390.684 240.548 390.911 240.642C391.137 240.735 391.343 240.873 391.516 241.046C391.69 241.219 391.827 241.425 391.921 241.651C392.015 241.877 392.063 242.12 392.063 242.365Z" fill="white"/>
<path d="M392.063 259.177C392.063 259.672 391.867 260.146 391.517 260.496C391.166 260.846 390.692 261.042 390.196 261.042H358.482C358.04 261.051 357.609 260.908 357.26 260.637C356.911 260.366 356.665 259.983 356.564 259.553C356.508 259.282 356.514 259.002 356.58 258.733C356.646 258.464 356.772 258.213 356.947 257.999C357.122 257.784 357.343 257.612 357.593 257.493C357.844 257.374 358.117 257.313 358.395 257.313H390.195C390.441 257.312 390.683 257.36 390.91 257.454C391.136 257.548 391.342 257.685 391.516 257.858C391.689 258.031 391.827 258.237 391.921 258.463C392.015 258.689 392.063 258.932 392.063 259.177Z" fill="white"/>
<path d="M284.345 233.959C284.345 237.979 285.594 241.9 287.917 245.182C290.241 248.463 293.526 250.944 297.319 252.282L291.984 265.284C284.647 262.521 278.512 257.273 274.649 250.454C270.787 243.636 269.44 235.679 270.844 227.971C272.249 220.262 276.315 213.29 282.335 208.27C288.355 203.25 295.947 200.499 303.788 200.497V214.533C298.632 214.533 293.687 216.58 290.041 220.223C286.394 223.866 284.345 228.807 284.345 233.959Z" fill="#28A0CB"/>
<path d="M337.277 233.959H323.231C323.231 228.806 321.183 223.865 317.537 220.221C313.89 216.577 308.945 214.53 303.789 214.53V200.494C312.67 200.494 321.188 204.02 327.469 210.296C333.749 216.572 337.277 225.084 337.277 233.959Z" fill="#262626"/>
<path d="M337.277 233.959C337.277 241.542 334.7 248.9 329.968 254.828C325.237 260.757 318.632 264.905 311.235 266.593L308.855 252.719C312.981 251.605 316.625 249.164 319.224 245.773C321.822 242.382 323.231 238.23 323.232 233.959H337.277Z" fill="white"/>
<path opacity="0.5" d="M311.234 266.593C304.827 268.044 298.135 267.588 291.984 265.282L297.319 252.282C301.033 253.585 305.053 253.738 308.855 252.721L311.234 266.593Z" fill="#28A0CB"/>
<path opacity="0.15" d="M234.873 67.3346H84.9143C80.0683 67.3346 76.1399 71.2603 76.1399 76.1027V271.741C76.1399 276.583 80.0683 280.509 84.9143 280.509H234.873C239.719 280.509 243.647 276.583 243.647 271.741V76.1027C243.647 71.2603 239.719 67.3346 234.873 67.3346Z" fill="#28A0CB"/>
<path d="M205.214 150.532C205.214 160.259 202.328 169.768 196.92 177.856C191.512 185.944 183.825 192.248 174.832 195.971C165.839 199.693 155.943 200.667 146.396 198.77C136.848 196.872 128.079 192.188 121.196 185.31C114.312 178.431 109.625 169.668 107.726 160.128C105.827 150.587 106.801 140.699 110.526 131.712C114.252 122.725 120.56 115.044 128.653 109.64C136.747 104.235 146.263 101.351 155.997 101.351V150.532H205.214Z" fill="#FAFAFA"/>
<path opacity="0.6" d="M211.248 144.144H162.034V94.9624C175.086 94.963 187.604 100.145 196.834 109.368C206.063 118.591 211.248 131.1 211.248 144.144Z" fill="#28A0CB"/>
<path opacity="0.6" d="M104.962 227.614C106.785 227.614 108.262 226.137 108.262 224.316C108.262 222.495 106.785 221.018 104.962 221.018C103.14 221.018 101.662 222.495 101.662 224.316C101.662 226.137 103.14 227.614 104.962 227.614Z" fill="#28A0CB"/>
<path d="M104.962 244.425C106.785 244.425 108.262 242.948 108.262 241.127C108.262 239.306 106.785 237.829 104.962 237.829C103.14 237.829 101.662 239.306 101.662 241.127C101.662 242.948 103.14 244.425 104.962 244.425Z" fill="#FAFAFA"/>
<path opacity="0.6" d="M218.03 224.317C218.03 224.812 217.833 225.287 217.483 225.636C217.133 225.986 216.658 226.183 216.163 226.183H117.172C116.73 226.191 116.3 226.047 115.952 225.776C115.604 225.504 115.359 225.122 115.26 224.692C115.205 224.42 115.21 224.14 115.277 223.871C115.343 223.602 115.469 223.352 115.644 223.137C115.82 222.923 116.041 222.75 116.291 222.631C116.541 222.513 116.815 222.451 117.092 222.451H216.163C216.408 222.451 216.651 222.499 216.878 222.593C217.104 222.687 217.31 222.824 217.483 222.998C217.657 223.171 217.794 223.377 217.888 223.603C217.982 223.83 218.03 224.072 218.03 224.317Z" fill="#28A0CB"/>
<path d="M218.03 241.127C218.03 241.622 217.833 242.096 217.483 242.446C217.133 242.796 216.658 242.992 216.163 242.992H117.191C116.932 242.996 116.675 242.948 116.435 242.851C116.195 242.754 115.977 242.61 115.793 242.427C115.61 242.244 115.465 242.026 115.368 241.787C115.27 241.547 115.222 241.29 115.225 241.031C115.25 240.553 115.458 240.103 115.805 239.774C116.153 239.445 116.613 239.261 117.092 239.261H216.163C216.408 239.261 216.651 239.309 216.877 239.403C217.104 239.497 217.31 239.634 217.483 239.807C217.656 239.981 217.794 240.186 217.888 240.413C217.982 240.639 218.03 240.882 218.03 241.127Z" fill="white"/>
<path d="M139.305 448.141C139.305 448.141 141.506 459.542 152.187 460.179C162.867 460.816 160.552 469.318 160.552 469.318H119.734V448.937L139.305 448.141Z" fill="#28A0CB"/>
<path d="M116.965 240.176C116.965 240.176 120.018 236.749 119.991 244.523C119.89 273.521 117.932 455.417 117.932 455.417L144.755 455.192L161.004 238.998L116.965 240.176Z" fill="#262626"/>
<path d="M185.108 448.141C185.108 448.141 187.309 459.542 197.991 460.177C208.673 460.812 206.357 469.316 206.357 469.316H165.537V448.937L185.108 448.141Z" fill="#28A0CB"/>
<path d="M190.296 242.428C190.296 242.428 193.647 341.535 193.299 346.379L190.148 454.665L163.768 455.152L159.514 342.461C159.514 342.461 156.726 311.375 149.21 282.51C145.364 267.695 143.05 252.525 142.303 237.238L190.296 242.428Z" fill="#262626"/>
<path d="M155.495 312.695L157.695 279.079C157.695 279.079 159.954 293.054 159.954 305.1C159.954 310.988 158.741 334.299 158.741 334.299L155.495 312.695Z" fill="#0A0A0A"/>
<path d="M116.674 240.173L116.586 240.178C116.586 240.178 116.651 238.488 116.674 240.173Z" fill="#333333"/>
<path d="M116.784 240.173L116.697 240.178C116.697 240.178 116.76 238.488 116.784 240.173Z" fill="#333333"/>
<path d="M263.768 159.732C263.606 159.412 263.349 159.15 263.032 158.983C262.716 158.815 262.355 158.75 261.999 158.796C262.002 158.765 261.995 158.733 261.98 158.706C261.963 158.684 261.941 158.668 261.916 158.658C261.891 158.647 261.864 158.644 261.837 158.648L263.037 157.788C263.396 157.543 263.654 157.176 263.763 156.755C263.873 156.334 263.825 155.888 263.631 155.499C263.426 155.121 263.089 154.832 262.683 154.689C262.278 154.546 261.834 154.558 261.437 154.724C261.441 154.707 261.429 154.691 261.426 154.675L261.919 154.322C262.256 154.09 262.503 153.748 262.617 153.354C262.73 152.961 262.705 152.54 262.544 152.164C262.438 151.93 262.282 151.722 262.086 151.556C261.89 151.389 261.66 151.268 261.412 151.202C261.164 151.135 260.904 151.124 260.651 151.17C260.398 151.216 260.159 151.317 259.95 151.467L258.813 152.281C258.809 152.275 258.813 152.267 258.808 152.261C258.804 152.254 258.791 152.252 258.785 152.245C259.046 151.951 259.2 151.578 259.22 151.185C259.241 150.793 259.128 150.405 258.899 150.086C258.363 149.223 257.123 149.4 256.387 149.926L249.694 154.547L250.89 152.534C251.13 152.146 251.215 151.682 251.127 151.235C251.038 150.787 250.783 150.39 250.414 150.123C250.218 149.992 249.997 149.902 249.765 149.859C249.534 149.816 249.295 149.821 249.066 149.873C248.836 149.925 248.619 150.023 248.428 150.162C248.238 150.3 248.077 150.476 247.957 150.679L241.425 161.669C240.658 162.959 240.425 164.496 240.775 165.954C241.124 167.413 242.029 168.677 243.297 169.48C244.768 170.41 246.483 170.881 248.223 170.831C249.962 170.781 251.648 170.213 253.062 169.2L263.171 161.959C263.507 161.709 263.749 161.353 263.857 160.949C263.965 160.545 263.934 160.116 263.768 159.732Z" fill="#BB6751"/>
<g opacity="0.25">
<path d="M252.189 156.847C252.213 156.881 252.25 156.904 252.291 156.911C252.332 156.918 252.375 156.909 252.409 156.885L258.769 152.483C258.787 152.471 258.801 152.455 258.813 152.438C258.824 152.42 258.832 152.4 258.836 152.38C258.839 152.359 258.839 152.338 258.835 152.317C258.83 152.297 258.822 152.277 258.81 152.26C258.798 152.243 258.783 152.228 258.765 152.217C258.747 152.205 258.727 152.197 258.707 152.194C258.686 152.19 258.665 152.19 258.644 152.195C258.624 152.199 258.604 152.208 258.587 152.22L252.227 156.622C252.192 156.646 252.168 156.683 252.16 156.725C252.153 156.766 252.162 156.809 252.186 156.844L252.189 156.847Z" fill="#0C0C0C"/>
</g>
<g opacity="0.25">
<path d="M254.054 159.704C254.079 159.738 254.115 159.761 254.157 159.768C254.198 159.775 254.24 159.765 254.274 159.741L261.373 154.829C261.408 154.804 261.431 154.767 261.439 154.726C261.446 154.684 261.437 154.641 261.413 154.606C261.388 154.572 261.351 154.549 261.309 154.542C261.268 154.534 261.225 154.543 261.19 154.566L254.092 159.478C254.057 159.502 254.033 159.54 254.026 159.581C254.018 159.623 254.027 159.666 254.052 159.701L254.054 159.704Z" fill="#0C0C0C"/>
</g>
<g opacity="0.25">
<path d="M256.056 162.81C256.081 162.843 256.118 162.866 256.159 162.873C256.2 162.88 256.242 162.871 256.277 162.847L261.939 158.928C261.974 158.904 261.998 158.867 262.006 158.825C262.013 158.784 262.004 158.74 261.98 158.706C261.955 158.671 261.918 158.647 261.877 158.639C261.835 158.632 261.792 158.641 261.757 158.665L256.094 162.584C256.06 162.608 256.036 162.645 256.028 162.687C256.021 162.729 256.03 162.772 256.054 162.807L256.056 162.81Z" fill="#0C0C0C"/>
</g>
<path d="M237.57 159.166L218.385 191.818L194.974 161.134L175.532 178.649L208.733 221.618L208.95 221.924C210.279 223.743 212.05 225.194 214.095 226.14C216.141 227.086 218.393 227.496 220.641 227.332C222.889 227.167 225.057 226.434 226.943 225.2C228.829 223.966 230.369 222.273 231.419 220.281L258.701 170.909L237.57 159.166Z" fill="#97D4EA"/>
<path d="M216.503 195.745C216.461 195.745 216.42 195.734 216.384 195.714C216.347 195.694 216.317 195.664 216.295 195.629C216.273 195.593 216.261 195.552 216.259 195.511C216.257 195.469 216.267 195.427 216.286 195.39L218.167 191.707C218.196 191.65 218.247 191.606 218.309 191.586C218.37 191.567 218.437 191.572 218.495 191.602C218.552 191.631 218.596 191.682 218.616 191.744C218.635 191.805 218.63 191.872 218.601 191.929L216.72 195.612C216.7 195.652 216.669 195.686 216.63 195.709C216.592 195.732 216.548 195.745 216.503 195.745Z" fill="#0C0C0C"/>
<path d="M193.623 191.632L193.037 201.945L193.524 201.973L194.109 191.659L193.623 191.632Z" fill="#0C0C0C"/>
<path d="M131.801 116.994C131.801 116.994 130.902 128.474 128.268 132.612C120.682 144.525 118.369 157.999 125.743 165.137C133.118 172.275 180.679 172.926 184.47 156.744C187.661 143.123 181.169 141.58 179.715 130.294C179.058 125.188 177.21 114.477 177.21 114.477" fill="#0A0A0A"/>
<path d="M172.362 154.158C172.28 154.148 171.369 169.255 153.806 167.938C141.648 167.027 137.313 154.137 137.034 154.137C138.345 153.859 140.553 153.455 141.135 153.143C143.049 152.115 145.418 151.046 146.035 147.33C146.391 145.187 145.788 134.234 145.973 132.067L164.636 136.23C164.376 140.805 162.551 151.413 168.948 153.291C170.012 153.602 171.159 153.887 172.362 154.158Z" fill="#BB6751"/>
<path d="M164.898 148.956C164.606 148.015 164.417 147.044 164.337 146.061C164.131 143.82 164.172 141.562 164.458 139.329C160.665 138.817 157.092 137.253 154.144 134.813C153.797 136.092 151.891 141.681 152.419 142.896C153.416 145.193 158.104 148.956 164.898 148.956Z" fill="#0C0C0C"/>
<path d="M162.424 144.201C155.058 144.827 145.572 141.776 143.714 131.962L142.036 123.107C140.178 113.293 143.829 104.362 153.077 102.613C162.323 100.864 170.742 107.513 172.601 117.327L173.343 121.247C174.057 125.013 175.567 143.084 162.424 144.201Z" fill="#BB6751"/>
<path d="M170.708 121.674C171.348 121.674 171.867 121.156 171.867 120.516C171.867 119.876 171.348 119.358 170.708 119.358C170.068 119.358 169.549 119.876 169.549 120.516C169.549 121.156 170.068 121.674 170.708 121.674Z" fill="#0C0C0C"/>
<path d="M158.833 123.26C159.473 123.26 159.992 122.741 159.992 122.102C159.992 121.462 159.473 120.943 158.833 120.943C158.192 120.943 157.673 121.462 157.673 122.102C157.673 122.741 158.192 123.26 158.833 123.26Z" fill="#0C0C0C"/>
<path d="M165.349 130.596L165.367 130.593C165.741 130.52 166.111 130.425 166.476 130.311C167.019 130.136 167.731 129.847 167.639 129.356C167.533 128.797 164.857 123.053 164.553 122.401C164.54 122.372 164.521 122.347 164.498 122.325C164.475 122.304 164.448 122.287 164.419 122.277C164.389 122.266 164.358 122.261 164.327 122.262C164.296 122.263 164.265 122.271 164.236 122.284C164.208 122.297 164.182 122.316 164.161 122.339C164.14 122.362 164.124 122.389 164.113 122.419C164.103 122.448 164.098 122.479 164.099 122.511C164.101 122.542 164.109 122.573 164.122 122.601C165.263 125.047 167.101 129.068 167.172 129.444C167.111 129.619 166.208 129.951 165.278 130.126C165.217 130.137 165.163 130.171 165.127 130.221C165.09 130.272 165.075 130.334 165.084 130.395C165.094 130.456 165.126 130.512 165.176 130.549C165.225 130.587 165.287 130.603 165.349 130.596V130.596Z" fill="#0C0C0C"/>
<path d="M163.98 134.831C165.489 134.635 166.93 134.088 168.188 133.233C168.24 133.199 168.277 133.145 168.29 133.083C168.303 133.022 168.291 132.958 168.257 132.905C168.222 132.852 168.168 132.815 168.107 132.802C168.045 132.789 167.981 132.801 167.928 132.836C165.206 134.608 162.501 134.895 160.106 133.664C160.058 133.638 160.008 133.614 159.957 133.593C159.898 133.571 159.833 133.574 159.776 133.601C159.718 133.628 159.674 133.676 159.653 133.735C159.632 133.795 159.635 133.86 159.661 133.917C159.688 133.974 159.737 134.018 159.796 134.039C159.814 134.047 159.845 134.064 159.889 134.088C161.148 134.737 162.573 134.995 163.98 134.831Z" fill="#0C0C0C"/>
<path d="M134.638 126.193L142.928 124.675C149.206 122.136 151.104 111.276 151.104 111.276C151.104 111.276 158.73 118.703 177.209 114.479C177.209 114.479 173.504 88.7259 146.203 96.2119C137.4 98.6265 131.082 107.491 131.869 119.338C132.422 127.643 134.638 126.193 134.638 126.193Z" fill="#0A0A0A"/>
<path d="M144.855 134.844C142.045 135.375 139.198 132.802 138.664 129.993C138.13 127.185 140.117 125.206 142.927 124.675L144.731 126.282L147.269 134.387L144.855 134.844Z" fill="#BB6751"/>
<path d="M166.247 117.705C167.066 117.176 168.013 116.877 168.988 116.84C169.468 116.818 169.949 116.869 170.414 116.99C170.874 117.108 171.318 117.284 171.734 117.513C171.793 117.542 171.838 117.593 171.859 117.655C171.881 117.716 171.877 117.784 171.848 117.843C171.82 117.902 171.769 117.947 171.708 117.969C171.646 117.991 171.578 117.988 171.519 117.96L171.501 117.951C171.116 117.762 170.709 117.622 170.289 117.535C169.874 117.446 169.448 117.42 169.025 117.459C168.187 117.529 167.382 117.82 166.692 118.301L166.67 118.318C166.63 118.347 166.586 118.367 166.538 118.379C166.49 118.39 166.441 118.392 166.392 118.384C166.344 118.377 166.298 118.36 166.256 118.334C166.214 118.309 166.178 118.275 166.149 118.235C166.12 118.196 166.099 118.151 166.088 118.103C166.077 118.056 166.075 118.006 166.082 117.958C166.09 117.91 166.107 117.863 166.133 117.822C166.158 117.78 166.192 117.743 166.231 117.715L166.247 117.705Z" fill="#0C0C0C"/>
<path d="M158.854 119.444C158.037 119.244 157.181 119.263 156.374 119.501C155.966 119.618 155.578 119.795 155.223 120.028C154.863 120.262 154.534 120.54 154.244 120.856L154.23 120.869C154.185 120.914 154.124 120.94 154.059 120.942C153.995 120.943 153.933 120.919 153.886 120.875C153.838 120.831 153.81 120.771 153.807 120.706C153.804 120.642 153.825 120.579 153.868 120.531C154.173 120.167 154.524 119.843 154.91 119.567C155.3 119.286 155.729 119.065 156.185 118.912C157.108 118.595 158.099 118.531 159.054 118.728C159.151 118.749 159.236 118.808 159.29 118.891C159.344 118.974 159.362 119.075 159.342 119.172C159.321 119.269 159.262 119.354 159.179 119.408C159.096 119.461 158.994 119.48 158.897 119.459L158.882 119.455L158.854 119.444Z" fill="#0C0C0C"/>
<path d="M164.301 137.059C164.574 137.028 164.844 136.974 165.108 136.897C165.169 136.879 165.22 136.839 165.251 136.784C165.281 136.729 165.289 136.664 165.271 136.603C165.254 136.543 165.213 136.491 165.158 136.461C165.103 136.43 165.038 136.423 164.977 136.44C163.388 136.898 162.484 136.294 162.446 136.266C162.395 136.23 162.331 136.216 162.268 136.227C162.206 136.238 162.151 136.273 162.115 136.324C162.079 136.376 162.064 136.44 162.075 136.502C162.086 136.564 162.122 136.62 162.173 136.656C162.815 137.032 163.566 137.174 164.301 137.059Z" fill="#0C0C0C"/>
<path d="M142.947 124.569L142.865 124.34C153.367 120.573 150.799 110.274 150.772 110.17L151.007 110.108C151.035 110.214 153.662 120.726 142.947 124.569Z" fill="#0C0C0C"/>
<path opacity="0.1" d="M157.859 131.278C159.071 131.148 159.976 130.322 159.88 129.433C159.784 128.545 158.724 127.93 157.512 128.06C156.3 128.191 155.394 129.017 155.49 129.905C155.586 130.794 156.646 131.409 157.859 131.278Z" fill="#0C0C0C"/>
<path opacity="0.1" d="M170.732 127.917C170.829 128.804 171.89 129.418 173.103 129.29C173.312 129.267 173.519 129.222 173.719 129.157C173.788 128.101 173.803 127.085 173.783 126.143C173.447 126.055 173.099 126.031 172.755 126.071C171.542 126.199 170.637 127.025 170.732 127.917Z" fill="#0C0C0C"/>
<path d="M194.182 187.417C193.629 193.911 190.938 234.429 190.407 242.428H120.03C119.616 235.214 114.832 203.665 113.262 189.557C111.763 176.094 108.822 169.354 110.977 165.374C114.5 158.869 124.125 155.11 130.689 154.222C134.697 153.68 140.724 153.291 140.724 153.291C140.724 153.291 141.234 163.608 153.404 164.183C169.971 164.962 168.865 153.291 168.947 153.291C171.631 153.291 186.963 154.989 190.714 157.211C200.933 163.259 195.357 173.657 194.182 187.417Z" fill="#97D4EA"/>
<path d="M239.864 191.954L233.08 224.902C232.943 225.571 232.58 226.173 232.053 226.607C231.525 227.042 230.865 227.282 230.181 227.289L183.469 227.686C183.024 227.69 182.583 227.594 182.179 227.406C181.776 227.217 181.419 226.941 181.136 226.597C180.853 226.253 180.651 225.85 180.544 225.418C180.437 224.985 180.428 224.535 180.517 224.099L187.301 191.15C187.439 190.481 187.802 189.879 188.33 189.446C188.858 189.012 189.519 188.772 190.202 188.766L236.914 188.369C237.359 188.365 237.8 188.461 238.203 188.65C238.606 188.838 238.962 189.115 239.245 189.458C239.528 189.802 239.73 190.204 239.837 190.636C239.944 191.068 239.953 191.518 239.864 191.954Z" fill="#FFBC78"/>
<path d="M196.306 215.358C196.331 215.792 196.198 216.22 195.932 216.563C195.666 216.907 195.285 217.143 194.858 217.228L193.42 217.545C193.446 217.553 193.469 217.568 193.488 217.588C193.506 217.607 193.52 217.631 193.527 217.657C193.531 217.688 193.524 217.718 193.508 217.745C193.854 217.842 194.16 218.044 194.386 218.323C194.611 218.603 194.744 218.945 194.766 219.303C194.768 219.721 194.629 220.127 194.371 220.456C194.114 220.784 193.753 221.017 193.347 221.115L181.204 223.809C180.583 223.949 179.949 224.019 179.313 224.019C177.896 224.019 176.5 223.674 175.245 223.015C173.991 222.355 172.916 221.401 172.113 220.234C171.261 218.999 170.926 217.481 171.177 216.003C171.428 214.525 172.247 213.203 173.458 212.318L183.788 204.773C184.015 204.606 184.279 204.498 184.558 204.456L183.607 209.069L183.861 209.011L183.915 209.001L191.836 207.389C192.718 207.194 193.927 207.515 194.083 208.519C194.167 208.903 194.118 209.304 193.944 209.657C193.771 210.01 193.483 210.294 193.128 210.462C193.133 210.467 193.142 210.472 193.142 210.482C193.142 210.491 193.137 210.496 193.137 210.506L194.507 210.204C194.758 210.149 195.018 210.149 195.268 210.206C195.518 210.263 195.753 210.375 195.955 210.533C196.157 210.692 196.321 210.893 196.435 211.122C196.55 211.352 196.612 211.604 196.618 211.86C196.618 212.27 196.476 212.667 196.217 212.983C195.957 213.3 195.596 213.518 195.194 213.599L194.605 213.731C194.6 213.75 194.605 213.77 194.595 213.784C195.025 213.788 195.438 213.95 195.754 214.241C196.07 214.532 196.267 214.93 196.306 215.358Z" fill="#BB6751"/>
<g opacity="0.25">
<path d="M185.252 212.105C185.261 212.146 185.286 212.181 185.321 212.204C185.357 212.227 185.399 212.235 185.44 212.226L193.019 210.673C193.04 210.668 193.059 210.66 193.077 210.648C193.094 210.637 193.109 210.622 193.121 210.604C193.132 210.587 193.14 210.567 193.144 210.546C193.148 210.526 193.148 210.504 193.144 210.484C193.14 210.463 193.131 210.444 193.12 210.426C193.108 210.409 193.093 210.394 193.075 210.383C193.058 210.371 193.038 210.363 193.017 210.359C192.997 210.355 192.976 210.355 192.955 210.359L185.376 211.912C185.334 211.921 185.298 211.946 185.274 211.981C185.251 212.017 185.243 212.06 185.251 212.101L185.252 212.105Z" fill="#0C0C0C"/>
</g>
<g opacity="0.25">
<path d="M185.845 215.464C185.855 215.505 185.88 215.54 185.915 215.563C185.95 215.586 185.993 215.594 186.033 215.585L194.492 213.852C194.533 213.843 194.57 213.819 194.593 213.783C194.617 213.748 194.625 213.705 194.617 213.663C194.607 213.622 194.582 213.587 194.547 213.564C194.512 213.54 194.469 213.531 194.428 213.538L185.968 215.272C185.948 215.276 185.928 215.284 185.911 215.296C185.893 215.308 185.878 215.323 185.867 215.34C185.855 215.358 185.847 215.378 185.843 215.398C185.839 215.419 185.839 215.44 185.843 215.461L185.845 215.464Z" fill="#0C0C0C"/>
</g>
<g opacity="0.25">
<path d="M186.467 219.105C186.476 219.146 186.501 219.181 186.536 219.204C186.572 219.226 186.614 219.234 186.655 219.226L193.402 217.843C193.423 217.839 193.442 217.831 193.46 217.819C193.477 217.807 193.492 217.792 193.503 217.774C193.515 217.757 193.523 217.737 193.527 217.717C193.531 217.696 193.531 217.675 193.527 217.654C193.522 217.634 193.514 217.614 193.502 217.597C193.491 217.579 193.475 217.564 193.458 217.553C193.44 217.541 193.421 217.533 193.4 217.529C193.379 217.525 193.358 217.526 193.338 217.53L186.591 218.912C186.549 218.921 186.513 218.946 186.489 218.981C186.466 219.016 186.457 219.06 186.466 219.101L186.467 219.105Z" fill="#0C0C0C"/>
</g>
<path d="M180.453 228.61L114.574 240.507C112.518 240.73 110.439 240.474 108.499 239.76C106.559 239.045 104.811 237.891 103.393 236.388C101.974 234.885 100.923 233.074 100.322 231.097C99.7216 229.12 99.5876 227.03 99.9306 224.993L109.15 170.213C109.441 168.48 110.07 166.821 111.002 165.332C111.935 163.842 113.152 162.55 114.584 161.53C116.016 160.511 117.635 159.783 119.348 159.389C121.062 158.995 122.836 158.942 124.57 159.233C126.305 159.525 127.964 160.155 129.454 161.088C130.945 162.021 132.236 163.238 133.255 164.669C134.275 166.101 135.002 167.72 135.395 169.432C135.788 171.145 135.839 172.918 135.546 174.651L129.258 212.361L177.557 206.3L180.453 228.61Z" fill="#97D4EA"/>
<path d="M114.574 240.751C114.513 240.751 114.454 240.728 114.409 240.687C114.364 240.646 114.337 240.589 114.331 240.529C114.326 240.468 114.343 240.408 114.38 240.359C114.417 240.311 114.471 240.278 114.531 240.267L180.181 228.412L177.346 206.572L129.288 212.603C129.251 212.608 129.212 212.604 129.176 212.591C129.141 212.578 129.108 212.558 129.082 212.53C129.056 212.503 129.036 212.47 129.025 212.433C129.013 212.397 129.011 212.359 129.017 212.321L133.014 188.219C133.019 188.188 133.03 188.157 133.047 188.13C133.064 188.103 133.086 188.079 133.112 188.06C133.138 188.042 133.168 188.029 133.199 188.021C133.231 188.014 133.263 188.014 133.295 188.019C133.326 188.024 133.357 188.036 133.384 188.053C133.411 188.07 133.434 188.092 133.453 188.118C133.472 188.144 133.485 188.173 133.492 188.204C133.5 188.236 133.501 188.268 133.495 188.299L129.551 212.078L177.525 206.058C177.589 206.05 177.654 206.067 177.705 206.107C177.756 206.146 177.789 206.204 177.797 206.268L180.694 228.578C180.702 228.64 180.686 228.703 180.649 228.753C180.612 228.804 180.557 228.838 180.495 228.849L114.617 240.747C114.603 240.749 114.588 240.751 114.574 240.751Z" fill="#0C0C0C"/>
<path d="M129.22 212.121L124.983 212.799L125.06 213.28L129.297 212.602L129.22 212.121Z" fill="#0C0C0C"/>
<path d="M457.669 269.498H313.499C307.511 269.498 302.656 274.35 302.656 280.334V329.662C302.656 335.646 307.511 340.497 313.499 340.497H457.669C463.658 340.497 468.513 335.646 468.513 329.662V280.334C468.513 274.35 463.658 269.498 457.669 269.498Z" fill="white"/>
<path opacity="0.4" d="M457.669 269.498H313.499C307.511 269.498 302.656 274.35 302.656 280.334V329.662C302.656 335.646 307.511 340.497 313.499 340.497H457.669C463.658 340.497 468.513 335.646 468.513 329.662V280.334C468.513 274.35 463.658 269.498 457.669 269.498Z" fill="#28A0CB"/>
<path d="M457.669 340.982H313.499C310.495 340.978 307.615 339.784 305.491 337.662C303.367 335.539 302.172 332.661 302.169 329.659V280.336C302.172 277.334 303.367 274.456 305.491 272.333C307.615 270.211 310.495 269.017 313.499 269.013H457.669C460.673 269.017 463.553 270.211 465.677 272.333C467.802 274.456 468.996 277.334 469 280.336V329.661C468.996 332.663 467.801 335.54 465.677 337.662C463.553 339.784 460.673 340.978 457.669 340.982ZM313.499 269.985C310.753 269.989 308.121 271.08 306.179 273.021C304.238 274.961 303.146 277.592 303.144 280.336V329.661C303.147 332.404 304.24 335.034 306.181 336.974C308.122 338.913 310.754 340.004 313.499 340.008H457.669C460.415 340.004 463.047 338.913 464.988 336.973C466.93 335.033 468.022 332.403 468.025 329.659V280.336C468.022 277.592 466.93 274.962 464.988 273.022C463.047 271.082 460.415 269.99 457.669 269.987L313.499 269.985Z" fill="#292A2E"/>
<path d="M317.529 325.369C317.397 325.369 317.268 325.334 317.155 325.267C317.043 325.2 316.95 325.104 316.887 324.989C316.824 324.874 316.793 324.744 316.798 324.612C316.803 324.481 316.842 324.354 316.913 324.243C317.072 324 333.005 299.654 358.326 299.654C371.557 299.654 379.573 304.756 387.326 309.689C394.502 314.256 401.281 318.57 411.77 318.57C433.215 318.57 450.491 287.448 450.662 287.133C450.755 286.963 450.912 286.837 451.098 286.783C451.284 286.728 451.485 286.75 451.655 286.843C451.825 286.936 451.951 287.092 452.006 287.278C452.06 287.464 452.039 287.664 451.946 287.834C451.227 289.15 434.074 320.033 411.77 320.033C400.855 320.033 393.902 315.608 386.541 310.924C378.964 306.101 371.131 301.117 358.326 301.117C333.814 301.117 318.298 324.795 318.144 325.034C318.078 325.137 317.987 325.222 317.879 325.28C317.772 325.339 317.651 325.369 317.529 325.369Z" fill="white"/>
<path d="M451.509 290.345C453.089 290.345 454.371 289.064 454.371 287.485C454.371 285.906 453.089 284.626 451.509 284.626C449.929 284.626 448.648 285.906 448.648 287.485C448.648 289.064 449.929 290.345 451.509 290.345Z" fill="white"/>
</g>
<defs>
<clipPath id="clip0_433_942">
<rect width="469" height="470" fill="white"/>
</clipPath>
</defs>
</svg>
