<svg width="429" height="76" viewBox="0 0 429 76" fill="none" xmlns="http://www.w3.org/2000/svg">
<g clip-path="url(#clip0_2221_22308)">
<g clip-path="url(#clip1_2221_22308)">
<path d="M61.0911 34.802L68.3925 28.442L78.3489 37.1432C78.2282 35.164 77.7937 33.2572 77.0334 31.447C74.2939 24.8577 67.9098 20.5975 60.7653 20.5975C55.5156 20.5975 50.5796 22.9147 47.2125 26.9455L47.1281 27.042C44.6541 30.0471 43.2541 33.8486 43.1455 37.7829L53.8139 28.442L61.1032 34.8141L61.0911 34.802Z" fill="#2E6276"/>
<path d="M41.0939 38.2294C41.0939 33.6796 42.6869 29.2264 45.5833 25.7145L45.6798 25.6059C49.3969 21.1406 54.9001 18.558 60.7653 18.558C68.7304 18.558 75.8507 23.3009 78.904 30.6626C83.7796 28.6833 88.6432 26.7283 93.5188 24.7611C93.8446 24.6284 93.9412 24.5318 93.7722 24.1577C93.1809 22.7699 92.4809 21.4061 91.7568 20.0665C91.6965 19.9459 91.6241 19.8372 91.5516 19.7407C84.9623 9.15676 75.4525 3.29154 63.0341 2.13298C59.474 1.80713 55.9379 2.13298 52.4502 2.96569C44.1954 4.9087 37.4251 9.2171 32.1271 15.8426C31.9702 16.0357 31.8254 16.2409 31.6805 16.434C30.7996 17.6046 30.0151 18.8235 29.2307 20.0665C29.1824 20.139 29.1703 20.2234 29.1462 20.2958C26.3463 25.2197 24.7654 30.5298 24.4757 36.2019C24.2223 41.4034 25.0309 46.4238 26.9256 51.2753C26.986 51.4443 27.0584 51.6011 27.1187 51.758L41.1301 39.5087C41.1059 39.1104 41.0818 38.688 41.0818 38.2173" fill="#2E6276"/>
<path d="M43.1817 39.6656C43.3989 42.3689 44.2437 45.0239 45.6436 47.341C45.7764 47.5583 45.9091 47.7514 46.0177 47.9324L59.9808 35.7675L53.8018 30.3729L43.1696 39.6656H43.1817Z" fill="#2E6276"/>
<path d="M43.942 48.4392C42.6024 46.2187 41.7335 43.7809 41.3352 41.2827L27.7342 53.1821C28.2049 54.1959 28.6997 55.1855 29.2307 56.1509C29.2789 56.2233 29.3514 56.3078 29.3996 56.3802C30.1841 57.7077 31.053 58.9629 31.9823 60.1697L44.4851 49.272C44.3161 49.0185 44.1351 48.753 43.942 48.4392Z" fill="#2E6276"/>
<path d="M93.3257 51.384C88.5466 49.441 83.7676 47.5221 78.9764 45.5912C78.4454 46.9187 77.7575 48.198 76.9248 49.4048C73.256 54.7149 67.2098 57.8888 60.7532 57.8888C54.7673 57.8888 49.0711 55.1131 45.354 50.4306L32.8874 61.3042C33.8891 62.499 34.9631 63.6334 36.1338 64.6954C38.9698 67.2539 42.0231 69.2934 45.2937 70.814C49.6865 72.8657 54.4415 73.976 59.5826 74.1449C63.2996 74.2777 66.9684 73.7949 70.5527 72.7329C77.5524 70.6692 83.4296 66.8315 88.1604 61.2559C88.4742 60.8818 88.7759 60.5077 89.0776 60.1215C90.0552 58.8543 90.9362 57.5147 91.7689 56.1269C92.4689 54.8597 93.1326 53.5684 93.6878 52.2288C93.736 52.084 93.7722 51.9995 93.8084 51.9271L93.8567 51.8064L93.8084 51.6254C93.736 51.5288 93.6033 51.4926 93.3498 51.3719" fill="#2E6276"/>
<path d="M62.1894 35.7674L75.6939 47.5703C76.249 46.6893 76.7197 45.7842 77.0938 44.8308C77.842 42.9964 78.2524 41.0534 78.3368 39.05L68.3925 30.3488L62.1894 35.7554V35.7674Z" fill="#2E6276"/>
<path d="M46.8867 49.103C50.2175 53.339 55.3466 55.8613 60.7532 55.8613C66.1598 55.8613 71.5544 53.2183 74.8732 48.7771L61.0911 36.7329L46.8867 49.115V49.103Z" fill="#2E6276"/>
<path d="M22.9551 38.0605C22.9551 29.3833 25.9239 21.3941 30.8961 15.022C30.7271 14.7203 30.5582 14.4186 30.3772 14.1048C27.517 9.01195 26.0688 6.55001 23.1844 1.81921C20.3001 6.63449 18.8519 9.13264 15.9917 14.31C13.1194 19.3183 11.6954 21.913 8.87136 27.2955C11.1885 26.6921 12.3591 26.4507 14.7245 26.1007C14.1211 27.5731 13.8194 28.3093 13.228 29.8057C9.82476 36.564 6.57838 43.443 3.52508 50.3702C5.92669 49.4892 7.13352 49.1151 9.59546 48.5117C6.51803 55.9699 3.53715 63.4402 0.640747 70.9709C14.4469 66.2039 26.0567 65.5401 39.3198 69.0279C29.4479 62.2696 22.9551 50.9133 22.9551 38.0726" fill="#2E6276"/>
<path d="M81.6435 69.9933H80.8711C80.8711 69.9933 80.7746 69.945 80.7746 69.8968V69.4864C80.7746 69.4864 80.8108 69.3899 80.8711 69.3899H83.0676C83.0676 69.3899 83.1641 69.4382 83.1641 69.4864V69.8968C83.1641 69.8968 83.1159 69.9933 83.0676 69.9933H82.2952V72.8173C82.2952 72.8173 82.2469 72.9139 82.1987 72.9139H81.728C81.728 72.9139 81.6314 72.8656 81.6314 72.8173V69.9933H81.6435Z" fill="#2E6276"/>
<path d="M84.5158 69.4141C84.5158 69.4141 84.552 69.3417 84.6003 69.3417H84.6847C84.6847 69.3417 84.7571 69.3658 84.7692 69.3899L85.8795 71.7674H85.8916L87.0019 69.3899C87.0019 69.3899 87.0381 69.3417 87.0863 69.3417H87.1708C87.1708 69.3417 87.2553 69.3779 87.2553 69.4141L87.8466 72.7932C87.8587 72.8656 87.8225 72.9139 87.7622 72.9139H87.3036C87.3036 72.9139 87.2191 72.8656 87.207 72.8415L86.9053 70.9347H86.8932L86.0123 72.9139C86.0123 72.9139 85.976 72.9742 85.9278 72.9742H85.8433C85.8433 72.9742 85.7709 72.9501 85.7588 72.9139L84.8658 70.9347H84.8537L84.5641 72.8415C84.5641 72.8415 84.5158 72.9139 84.4796 72.9139H84.033C83.9727 72.9139 83.9244 72.8656 83.9365 72.7932L84.5399 69.4141H84.5158Z" fill="#2E6276"/>
</g>
<path fill-rule="evenodd" clip-rule="evenodd" d="M142.84 56.3541L143.217 56.5048L180.377 41.4294C178.644 60.4998 162.664 75.349 143.217 75.349C123.769 75.349 107.789 60.4244 106.056 41.4294L142.84 56.3541ZM129.649 60.0476C128.82 59.2938 127.915 58.9169 126.634 58.9169C124.146 58.9169 122.111 60.8013 122.111 63.3641C122.111 65.927 124.146 67.8868 126.634 67.8868C127.689 67.8868 128.82 67.5099 129.649 66.6807C129.724 66.6054 129.724 66.4546 129.649 66.3792L128.669 65.3239C128.593 65.2486 128.443 65.2486 128.367 65.3239C127.915 65.7008 127.312 65.927 126.709 65.927C125.277 65.927 124.222 64.7209 124.222 63.3641C124.222 62.0074 125.277 60.8013 126.709 60.8013C127.312 60.8013 127.915 61.0275 128.367 61.4797C128.443 61.5551 128.593 61.5551 128.669 61.4797L129.649 60.4244C129.799 60.2737 129.799 60.1229 129.649 60.0476ZM131.458 59.2186C131.458 59.0679 131.533 58.9925 131.684 58.9925H134.774C137.186 58.9925 139.146 60.9523 139.146 63.3643C139.146 65.7764 137.186 67.7362 134.774 67.7362H131.684C131.533 67.7362 131.458 67.6608 131.458 67.5101V59.2186ZM134.624 65.9272C136.056 65.9272 137.036 64.7965 137.036 63.3643C137.036 61.9322 135.98 60.8015 134.624 60.8015H133.418V65.8518H134.624V65.9272ZM141.182 58.9925C141.031 58.9925 140.955 59.0679 140.955 59.2186V67.5101C140.955 67.6608 141.031 67.7362 141.182 67.7362H142.689C142.764 67.7362 142.915 67.6608 142.915 67.5101V64.5704H144.197C145.704 64.5704 146.986 63.3643 146.986 61.7814C146.986 60.2739 145.704 58.9925 144.197 58.9925H141.182ZM145.026 61.7814C145.026 62.3091 144.574 62.7613 144.046 62.7613H142.84V60.8769H144.046C144.574 60.8769 145.026 61.2538 145.026 61.7814ZM148.568 59.2186C148.568 59.0679 148.719 58.9925 148.795 58.9925H150.302C150.453 58.9925 150.528 59.0679 150.528 59.2186V62.3844H154.146V59.2186C154.146 59.0679 154.222 58.9925 154.372 58.9925H155.88C156.031 58.9925 156.106 59.0679 156.106 59.2186V67.5101C156.106 67.6608 155.955 67.7362 155.88 67.7362H154.372C154.222 67.7362 154.146 67.6608 154.146 67.5101V64.1935H150.528V67.5101C150.528 67.6608 150.453 67.7362 150.302 67.7362H148.795C148.644 67.7362 148.568 67.6608 148.568 67.5101V59.2186ZM158.744 58.9925C158.594 58.9925 158.518 59.0679 158.518 59.2186V67.4347C158.518 67.5854 158.594 67.6608 158.744 67.6608H163.945C164.096 67.6608 164.172 67.5854 164.172 67.4347V66.0779C164.172 65.9272 164.096 65.8518 163.945 65.8518H160.478V64.1935H163.342C163.493 64.1935 163.569 64.1181 163.569 63.9674V62.6106C163.569 62.4598 163.493 62.3844 163.342 62.3844H160.478V60.8015H163.945C164.096 60.8015 164.172 60.7261 164.172 60.5754V59.2186C164.172 59.0679 164.096 58.9925 163.945 58.9925H158.744Z" fill="#2E6276"/>
<path fill-rule="evenodd" clip-rule="evenodd" d="M180.528 37.9626V39.0932L143.217 54.244L105.905 39.0932V37.9626C105.905 17.3847 122.639 0.651001 143.217 0.651001C163.794 0.651001 180.528 17.3847 180.528 37.9626ZM141.483 10.5251C141.332 11.6558 141.709 12.6357 142.086 13.6156C139.674 12.4849 138.618 9.09297 139.9 6.83166C140.085 6.58474 140.22 6.64115 140.387 6.71107C140.424 6.72652 140.462 6.74264 140.503 6.75628C141.86 7.3593 142.915 8.56533 143.292 9.99749C143.744 8.56533 144.724 7.3593 146.156 6.83166C146.382 6.75629 146.608 6.68091 146.759 6.98242C148.041 9.16835 146.91 12.5603 144.498 13.6156L144.553 13.473C144.91 12.5469 145.248 11.6725 145.176 10.5251C144.196 11.2035 143.744 12.108 143.292 13.0126C143.249 12.9266 143.207 12.8405 143.164 12.7547L143.164 12.7542L143.164 12.7537C142.762 11.9374 142.369 11.1388 141.483 10.5251ZM138.091 16.7815L137.967 16.6243C137.188 15.6349 136.497 14.7577 136.282 13.5403C137.036 13.6157 137.639 13.9926 139.222 15.5755C139.146 12.4097 136.885 9.92224 133.87 9.62073C133.493 9.62073 133.342 9.69611 133.267 10.073C133.116 11.6559 133.342 13.0881 134.247 14.3695C135.151 15.5755 136.357 16.4047 138.091 16.7815ZM152.94 14.3695C152.036 15.5755 150.754 16.4047 149.096 16.7815L149.22 16.6243C149.999 15.6349 150.69 14.7577 150.905 13.5403C150.076 13.6157 149.548 13.9926 147.965 15.5755C147.965 12.4097 150.302 9.84686 153.317 9.62073C153.694 9.62073 153.845 9.69611 153.92 10.073C154.146 11.6559 153.92 13.0881 152.94 14.3695ZM155.88 21.9823C155.743 21.2332 155.976 20.5456 156.245 19.7529L156.245 19.7523L156.245 19.7513C156.274 19.6671 156.303 19.5816 156.332 19.4948C155.352 20.0978 154.674 20.927 154.372 21.9069C153.995 22.9622 154.221 23.9421 154.674 24.8466C154.824 25.0727 154.9 25.0727 155.126 24.9973C157.01 24.1682 157.915 22.0576 157.312 20.0224C156.633 21.4546 156.407 21.8315 155.88 21.9823ZM160.478 19.8718C160.176 18.9673 159.423 18.2889 158.669 17.6105L158.669 17.6105C160.101 17.6859 161.156 18.1381 161.91 18.9673C162.814 19.7964 163.191 20.9271 163.267 22.1331C163.342 22.51 163.191 22.5854 162.89 22.5854C160.553 22.7361 158.367 21.1532 157.915 18.6658C159.423 19.7211 159.875 19.9472 160.478 19.8718ZM156.709 13.314C157.086 13.6909 157.237 14.1431 157.312 15.4245C157.237 15.726 157.237 16.0275 157.237 16.3291C157.32 16.2397 157.402 16.1508 157.484 16.0626C158.438 15.0349 159.304 14.1014 160.553 13.6155C160.628 14.52 160.327 15.1984 158.819 17.3843C162.438 16.7059 164.85 13.5401 164.548 9.99739C164.473 9.54513 164.397 9.39438 163.945 9.39438C162.136 9.46975 160.553 10.0728 159.272 11.4296C159.196 11.5301 159.113 11.6306 159.029 11.7311C158.861 11.9321 158.694 12.1331 158.593 12.3341C158.443 11.3542 158.066 10.4497 157.387 9.69588C157.161 9.46975 157.01 9.39438 156.784 9.62051C155.88 10.4497 155.201 11.4296 155.126 12.711C155.051 13.917 155.352 15.0476 156.106 16.1783C156.106 15.123 156.181 14.2185 156.709 13.314ZM140.352 18.7413C140.352 16.9323 141.709 15.5001 143.367 15.5001C145.101 15.5001 146.382 16.9323 146.382 18.8167C146.307 20.6257 145.026 21.9825 143.367 21.9825C141.634 21.9825 140.352 20.5504 140.352 18.7413ZM155.578 17.8369C152.789 19.3445 150.001 20.852 147.212 22.2842L144.724 23.641C143.97 24.0178 143.217 24.1686 142.463 23.7163C141.558 23.2641 140.654 22.8118 139.749 22.2842C136.81 20.4751 133.87 18.6661 130.327 17.4601C130.967 17.9497 131.627 18.4205 132.286 18.8913L132.286 18.8914L132.286 18.8914L132.286 18.8915L132.286 18.8916L132.286 18.8917L132.286 18.8918L132.286 18.8919L132.287 18.892L132.287 18.892L132.287 18.8921L132.287 18.8922L132.287 18.8923C132.947 19.3634 133.606 19.8344 134.247 20.3244C136.583 22.1334 138.769 24.0178 140.126 26.2792C141.5 28.5199 141.348 30.8993 141.2 33.2179L141.181 33.5153C141.106 34.646 140.352 40.45 139.749 42.0329C142.131 41.2956 145.068 41.1558 146.248 41.0996C146.636 41.0811 146.834 41.0717 146.759 41.053C146.727 40.0282 146.546 38.2552 146.353 36.3754C146.092 33.8307 145.811 31.0904 145.855 29.7465C145.93 28.5405 146.307 27.3344 146.91 26.2038C148.116 24.0932 150.076 22.3596 152.262 20.7013C152.94 20.1737 153.656 19.6461 154.372 19.1185L154.372 19.1183L154.373 19.1182C155.089 18.5906 155.805 18.063 156.483 17.5354C156.181 17.6108 155.88 17.6862 155.578 17.8369ZM130.072 19.4719L130.026 19.3444C131.005 19.9474 131.608 20.7765 131.985 21.8318C132.287 22.8117 132.136 23.7916 131.684 24.7715C131.608 24.9976 131.458 24.9976 131.232 24.9222C129.347 24.0931 128.367 21.9825 129.046 19.9474C129.724 21.3042 129.95 21.6057 130.478 21.8318C130.621 20.9738 130.357 20.2515 130.072 19.4719ZM127.086 17.7615C125.503 17.9122 124.372 18.5152 123.392 19.4951C122.413 20.5504 122.036 21.8318 122.036 23.1886C122.036 23.5655 122.186 23.6409 122.488 23.6409C125.201 23.7162 127.538 21.7564 127.915 18.8921C126.332 20.0981 125.804 20.3996 125.126 20.3996C125.503 19.3444 126.257 18.5906 127.086 17.7615L127.086 17.7615ZM126.558 13.917C126.483 14.8215 126.86 15.4999 128.443 17.5351C124.825 17.0074 122.262 13.9923 122.413 10.525C122.413 10.1481 122.563 9.92199 123.016 9.92199C124.825 9.92199 126.407 10.3743 127.764 11.6557C128.066 11.8818 128.292 12.1833 128.518 12.4848C128.518 11.5803 128.895 10.6004 129.573 9.84662C129.799 9.62049 129.95 9.54511 130.176 9.77124C131.156 10.525 131.835 11.4295 131.985 12.7109C132.136 13.9923 131.91 15.123 131.156 16.2537C131.081 15.1984 130.93 14.2939 130.402 13.4647C130.026 13.8416 129.875 14.2939 129.875 15.5753C129.95 15.8768 130.026 16.1783 130.026 16.4798C129.95 16.4039 129.875 16.3286 129.801 16.2542L129.8 16.2534C128.771 15.2195 127.894 14.3388 126.558 13.917ZM120.754 16.7813C121.96 16.4798 122.94 16.6306 123.996 16.8567C122.413 14.6708 118.87 14.1432 116.91 15.8768C116.637 16.0819 116.735 16.2249 116.868 16.4184L116.868 16.4185C116.882 16.4383 116.896 16.4588 116.91 16.4798C118.267 18.6658 121.282 19.4195 123.619 18.2135C123.429 18.1407 123.24 18.0736 123.052 18.0066L123.052 18.0066L123.052 18.0066L123.052 18.0066L123.051 18.0066L123.051 18.0066L123.051 18.0066L123.051 18.0066C122.263 17.7268 121.484 17.4503 120.754 16.7813ZM162.588 17.2338C164.322 15.1986 167.94 15.0478 169.749 16.9323C169.928 17.1112 169.871 17.2429 169.802 17.4022C169.784 17.4442 169.765 17.4881 169.749 17.5353C168.166 19.5705 165.076 20.0981 162.89 18.5906C162.999 18.5654 163.108 18.5412 163.216 18.517C164.087 18.3235 164.958 18.1299 165.829 17.4599C164.699 17.083 163.644 17.1584 162.588 17.2338ZM176.081 24.8465H173.367V25.5249C172.613 24.9972 171.935 24.6204 171.935 24.6204C171.787 24.6697 171.156 25.2672 170.546 25.8434L170.546 25.8435L170.546 25.8437L170.546 25.8439L170.546 25.8442L170.545 25.8449C170.223 26.1492 169.908 26.4473 169.674 26.6555C169.428 26.9017 169.433 27.0474 169.443 27.3387C169.445 27.4042 169.448 27.4771 169.448 27.5601V36.4545C169.259 36.4922 169.071 36.5111 168.882 36.5299C168.694 36.5488 168.505 36.5676 168.317 36.6053V27.1832H165.377V29.143H165V28.3138H161.985V36.2284V36.3792C161.936 36.5745 161.698 36.7065 161.351 36.8982C161.163 37.0025 160.943 37.1244 160.704 37.2837V34.2686V33.6656V33.4395H160.402V33.3641C160.402 33.0626 160.176 32.8364 159.875 32.8364H157.99C157.689 32.8364 157.463 33.0626 157.463 33.3641V33.4395H157.01V36.0023H154.523V39.3942C152.036 39.3189 150.679 39.3942 147.814 39.8465L147.965 41.1279C147.965 41.1279 151.659 40.9018 156.483 41.2787C161.684 41.6555 164.774 43.0877 164.774 43.0877C165 43.0877 176.382 38.6405 176.458 38.5651C176.232 37.7359 176.081 24.8465 176.081 24.8465ZM142.227 42.7384C142.992 42.6146 143.808 42.4825 144.649 42.3342C155.126 40.5252 162.814 43.6156 162.814 43.8417L159.95 44.897C159.95 44.897 156.407 43.3141 149.397 43.5402C146.296 43.6076 143.737 44.3988 142.153 44.8887C141.966 44.9465 141.793 45 141.634 45.0478C142.312 45.4246 143.066 45.7262 143.895 46.0277C148.041 47.4598 150.227 48.892 150.227 48.892L148.342 49.6458C148.342 49.6458 145.855 47.8367 140.201 46.0277C140.094 45.9929 139.982 45.9566 139.867 45.919L139.865 45.9182C137.234 45.061 132.548 43.5339 123.091 43.3895C115.402 40.299 107.714 37.3593 107.714 37.3593L115.855 28.9925L122.94 36.4548L124.448 34.6457L128.443 37.8116L133.267 33.8166C133.267 33.8166 138.92 39.3191 139.372 39.6206C138.92 41.6558 138.392 43.3895 138.317 43.4649H138.392C139.304 43.2115 140.659 42.9923 142.227 42.7384ZM112.538 33.7412L115.252 32.5352L119.925 35.5503L115.478 30.8769L112.538 33.7412ZM149.096 44.2939C147.739 44.3693 145.478 44.8969 144.573 45.1231C144.95 45.1984 147.814 46.1783 147.588 46.1783C147.857 46.1247 148.099 46.0668 148.339 46.0097L148.339 46.0097C149.109 45.8261 149.844 45.6507 151.282 45.6507C153.392 45.6507 155.654 46.6306 155.654 46.6306L158.217 45.5753C158.217 45.4999 154.674 43.8417 149.096 44.2939ZM151.734 48.0628L149.548 47.0075C149.548 47.0075 150.604 46.706 151.659 46.6306C153.166 46.5552 153.996 47.1583 153.996 47.1583L151.734 48.0628ZM127.313 45.1504L127.314 45.1506L127.314 45.1506C128.243 45.5217 129.227 45.9144 129.799 46.1785C129.799 46.1031 133.945 46.4046 138.091 47.3091C142.086 48.289 146.005 50.5504 146.005 50.5504L147.438 49.9473C147.438 49.9473 145.176 48.3644 141.181 46.9323C136.056 45.1232 129.724 44.2941 125.578 44.4448C126.017 44.6329 126.652 44.8862 127.313 45.1504ZM141.016 50.8697C138.848 49.9169 136.39 48.837 132.815 47.3843C134.925 47.4597 137.111 48.0627 139.146 48.7411C141.634 49.4195 144.95 51.0778 144.95 51.0778L143.217 51.8316C142.495 51.5195 141.773 51.2024 141.016 50.8697Z" fill="#2E6276"/>
<path d="M216.634 5.02261C218.066 5.02261 219.574 5.55025 220.704 6.53015C220.93 6.75628 221.232 6.75628 221.458 6.53015L223.795 4.11809C224.021 3.89196 224.021 3.51508 223.795 3.28895C221.76 1.40452 219.574 0.5 216.558 0.5C210.528 0.5 205.704 5.32412 205.704 11.3543C205.704 17.3844 210.528 22.1332 216.558 22.1332C219.197 22.1332 221.835 21.2287 223.87 19.1935C224.096 18.9673 224.096 18.5905 223.87 18.3643L221.533 15.8769C221.383 15.6508 220.93 15.6508 220.78 15.8769C219.724 16.7814 218.141 17.3091 216.785 17.3091C213.393 17.3091 210.905 14.5201 210.905 11.2035C210.754 7.81156 213.242 5.02261 216.634 5.02261Z" fill="#2E6276"/>
<path d="M243.091 0.5C237.061 0.5 232.312 5.32412 232.312 11.3543C232.312 17.3844 237.061 22.1332 243.091 22.1332C249.121 22.1332 253.87 17.3844 253.87 11.3543C253.945 5.32412 249.121 0.5 243.091 0.5ZM243.091 17.3091C239.849 17.3091 237.136 14.5955 237.136 11.3543C237.136 8.03769 239.849 5.32412 243.091 5.32412C246.407 5.32412 249.121 8.03769 249.121 11.3543C249.121 14.5955 246.407 17.3091 243.091 17.3091Z" fill="#2E6276"/>
<path d="M275.88 17.3843H268.644V1.40441C268.644 1.1029 268.342 0.801392 268.041 0.801392H264.498C264.197 0.801392 263.895 1.1029 263.895 1.40441V21.2285C263.895 21.53 264.121 21.8316 264.498 21.8316H275.88C276.182 21.8316 276.483 21.53 276.483 21.2285V17.9873C276.408 17.6104 276.182 17.3843 275.88 17.3843Z" fill="#2E6276"/>
<path d="M295.403 0.5C289.372 0.5 284.624 5.32412 284.624 11.3543C284.624 17.3844 289.372 22.1332 295.403 22.1332C301.433 22.1332 306.181 17.3844 306.181 11.3543C306.257 5.32412 301.433 0.5 295.403 0.5ZM295.403 17.3091C292.161 17.3091 289.448 14.5955 289.448 11.3543C289.448 8.03769 292.161 5.32412 295.403 5.32412C298.719 5.32412 301.433 8.03769 301.433 11.3543C301.433 14.5955 298.719 17.3091 295.403 17.3091Z" fill="#2E6276"/>
<path d="M328.493 13.314C331.131 12.2587 332.94 10.0728 332.94 7.28381C332.94 3.74109 330.001 0.801392 326.383 0.801392H317.413C317.111 0.801392 316.81 1.1029 316.81 1.40441V21.2285C316.81 21.53 317.036 21.8316 317.413 21.8316H320.955C321.257 21.8316 321.558 21.53 321.558 21.2285V13.5401H323.594L327.89 21.4547C327.965 21.6054 328.116 21.7562 328.342 21.7562H332.337C332.865 21.7562 333.091 21.3039 332.865 20.927L328.493 13.314ZM326.006 9.77125H321.558V5.09788H326.006C327.212 5.09788 328.267 6.15315 328.267 7.35918C328.267 8.64059 327.212 9.77125 326.006 9.77125Z" fill="#2E6276"/>
<path d="M381.257 0.801392H373.945C373.644 0.801392 373.418 1.1029 373.418 1.40441V21.2285C373.418 21.53 373.644 21.8316 373.945 21.8316H381.257C387.061 21.8316 391.81 17.1582 391.81 11.2788C391.81 5.47476 387.061 0.801392 381.257 0.801392ZM380.955 17.3089H378.091V5.17325H380.955C384.347 5.17325 386.835 7.81145 386.835 11.2034C386.835 14.6707 384.347 17.3089 380.955 17.3089Z" fill="#2E6276"/>
<path d="M411.935 0.5C405.905 0.5 401.156 5.32412 401.156 11.3543C401.156 17.3844 405.905 22.1332 411.935 22.1332C417.89 22.1332 422.714 17.3844 422.714 11.3543C422.714 5.32412 417.89 0.5 411.935 0.5ZM411.935 17.3091C408.694 17.3091 405.98 14.5955 405.98 11.3543C405.98 8.03769 408.694 5.32412 411.935 5.32412C415.252 5.32412 417.89 8.03769 417.89 11.3543C417.89 14.5955 415.252 17.3091 411.935 17.3091Z" fill="#2E6276"/>
<path d="M353.594 0.801508C353.518 0.650754 353.292 0.5 353.066 0.5H352.764C352.538 0.5 352.312 0.650754 352.237 0.801508L342.89 21.0025C342.739 21.3794 342.965 21.7563 343.418 21.7563H346.734C347.337 21.7563 347.639 21.6055 347.79 21.0025L348.845 18.5905H356.985L358.041 20.9271C358.342 21.6055 358.493 21.6809 359.096 21.6809H362.413C362.865 21.6809 363.091 21.304 362.94 20.9271L353.594 0.801508ZM350.202 15.1231L352.915 8.86684L355.704 15.1231H350.202Z" fill="#2E6276"/>
<path d="M205.629 51.3038H207.362V40.9018H205.629V38.8666H211.885C213.016 38.8666 213.995 38.942 214.9 39.2435C217.689 40.0726 219.573 42.56 219.573 46.1028C219.573 49.4947 217.84 51.9822 215.126 52.8867C214.146 53.2636 213.166 53.3389 211.96 53.3389H205.704V51.3038H205.629ZM211.81 51.2284C212.714 51.2284 213.468 51.153 214.146 50.8515C215.805 50.1731 216.86 48.5148 216.86 46.1028C216.86 43.6907 215.729 41.957 214.071 41.354C213.317 41.0525 212.639 41.0525 211.81 41.0525H210.076V51.2284H211.81Z" fill="#2E6276"/>
<path d="M226.282 42.7108C229.297 42.7108 230.88 44.8967 230.88 47.6103C230.88 47.9118 230.805 48.5148 230.805 48.5148H223.644C223.795 50.3993 225.227 51.3792 226.734 51.3792C228.393 51.3792 229.749 50.2485 229.749 50.2485L230.729 52.0576C230.729 52.0576 229.146 53.4897 226.508 53.4897C223.041 53.4897 220.93 51.0023 220.93 48.0626C221.006 44.9721 223.192 42.7108 226.282 42.7108ZM228.242 47.0073C228.166 45.5751 227.337 44.746 226.207 44.746C224.85 44.746 223.945 45.6505 223.719 47.0073H228.242Z" fill="#2E6276"/>
<path d="M233.669 55.4495V45.349C233.669 45.0475 233.518 44.8967 233.216 44.8967H232.086V42.9369H234.724C235.704 42.9369 236.005 43.3892 236.005 43.9168V43.9922C236.005 44.2184 236.005 44.4445 236.005 44.4445H236.081C236.081 44.4445 236.985 42.7108 239.397 42.7108C242.186 42.7108 243.995 44.8967 243.995 48.138C243.995 51.4545 241.96 53.5651 239.247 53.5651C237.211 53.5651 236.232 52.1329 236.232 52.1329H236.156C236.156 52.1329 236.232 52.5098 236.232 53.0374V55.5249H237.739V57.4847H232.161V55.5249H233.669V55.4495ZM238.719 51.3792C240.151 51.3792 241.357 50.2485 241.357 48.138C241.357 46.1782 240.302 44.8967 238.794 44.8967C237.438 44.8967 236.156 45.8766 236.156 48.138C236.156 49.7962 237.061 51.3792 238.719 51.3792Z" fill="#2E6276"/>
<path d="M250.93 46.9322H251.609V46.5553C251.609 45.1986 250.78 44.7463 249.724 44.7463C248.141 44.7463 246.785 45.7262 246.785 45.7262L245.805 43.9171C245.805 43.9171 247.388 42.6357 249.95 42.6357C252.739 42.6357 254.247 44.0679 254.247 46.7061V50.8518C254.247 51.1533 254.398 51.3041 254.699 51.3041H255.604V53.2639H253.192C252.212 53.2639 251.835 52.7362 251.835 52.1332V51.9825C251.835 51.681 251.91 51.4548 251.91 51.4548H251.835C251.835 51.4548 250.93 53.4146 248.594 53.4146C246.86 53.4146 245.126 52.3594 245.126 50.2488C245.051 47.2337 249.197 46.9322 250.93 46.9322ZM249.197 51.681C250.629 51.681 251.609 50.1734 251.609 48.892V48.5151H251.156C250.177 48.5151 247.689 48.6659 247.689 50.2488C247.689 51.0026 248.217 51.681 249.197 51.681Z" fill="#2E6276"/>
<path d="M256.734 51.3794H258.242V45.3493C258.242 45.0477 258.091 44.897 257.789 44.897H256.659V42.9372H259.372C260.277 42.9372 260.729 43.3141 260.729 44.2186V44.8216C260.729 45.1985 260.654 45.5 260.654 45.5H260.729C261.181 43.9925 262.463 42.8618 264.046 42.8618C264.272 42.8618 264.498 42.9372 264.498 42.9372V45.5C264.498 45.5 264.196 45.4246 263.895 45.4246C261.784 45.4246 260.88 47.2337 260.88 49.1935V51.4548H262.387V53.4146H256.809V51.3794H256.734Z" fill="#2E6276"/>
<path d="M266.609 44.8972H265.026V42.9374H266.684V40.0731H269.171V42.9374H271.508V44.8972H269.171V49.2691C269.171 51.0028 270.528 51.3043 271.282 51.3043C271.583 51.3043 271.734 51.3043 271.734 51.3043V53.4148C271.734 53.4148 271.433 53.4902 270.905 53.4902C269.473 53.4902 266.609 53.0379 266.609 49.5706V44.8972Z" fill="#2E6276"/>
<path d="M273.091 51.3794H274.599V45.2739C274.599 44.9724 274.448 44.8216 274.146 44.8216H273.016V42.8618H275.729C276.634 42.8618 277.086 43.3141 277.086 43.9925V44.4447C277.086 44.6709 277.011 44.897 277.011 44.897H277.086C277.614 43.8417 278.895 42.5603 280.629 42.5603C282.061 42.5603 283.116 43.2387 283.493 44.8216H283.568C284.171 43.6156 285.528 42.5603 287.187 42.5603C289.297 42.5603 290.503 43.7663 290.503 46.4799V51.2287H292.011V53.1885H287.94V47.0075C287.94 45.8015 287.714 44.897 286.508 44.897C284.774 44.897 283.87 46.6307 283.87 48.5905V51.2287H285.377V53.1885H281.307V47.0075C281.307 45.8769 281.156 44.897 279.875 44.897C278.066 44.897 277.237 46.8568 277.237 48.6658V51.1533H278.744V53.1131H273.091V51.3794Z" fill="#2E6276"/>
<path d="M298.267 42.7108C301.282 42.7108 302.865 44.8967 302.865 47.6103C302.865 47.9118 302.79 48.5148 302.79 48.5148H295.629C295.779 50.3993 297.212 51.3792 298.719 51.3792C300.377 51.3792 301.734 50.2485 301.734 50.2485L302.714 52.0576C302.714 52.0576 301.131 53.4897 298.493 53.4897C295.026 53.4897 292.915 51.0023 292.915 48.0626C292.991 44.9721 295.176 42.7108 298.267 42.7108ZM300.227 47.0073C300.151 45.5751 299.322 44.746 298.192 44.746C296.835 44.746 295.93 45.6505 295.704 47.0073H300.227Z" fill="#2E6276"/>
<path d="M304.373 51.3795H305.88V45.3493C305.88 45.0478 305.729 44.897 305.428 44.897H304.297V42.9372H307.011C307.915 42.9372 308.368 43.3895 308.368 44.0679V44.5202C308.368 44.7463 308.292 44.9724 308.292 44.9724H308.368C308.518 44.6709 309.574 42.6357 312.212 42.6357C314.398 42.6357 315.679 43.8418 315.679 46.5553V51.3041H317.187V53.2639H313.041V47.083C313.041 45.8016 312.664 44.9724 311.383 44.9724C309.498 44.9724 308.443 46.7815 308.443 48.5905V51.3041H309.951V53.2639H304.373V51.3795Z" fill="#2E6276"/>
<path d="M319.373 44.8972H317.79V42.9374H319.448V40.0731H321.935V42.9374H324.272V44.8972H321.935V49.2691C321.935 51.0028 323.292 51.3043 324.046 51.3043C324.347 51.3043 324.498 51.3043 324.498 51.3043V53.4148C324.498 53.4148 324.197 53.4902 323.669 53.4902C322.237 53.4902 319.373 53.0379 319.373 49.5706V44.8972Z" fill="#2E6276"/>
<path d="M336.257 42.7108C339.423 42.7108 341.985 44.9721 341.985 48.138C341.985 51.3038 339.423 53.5651 336.257 53.5651C333.091 53.5651 330.528 51.3038 330.528 48.138C330.528 44.9721 333.091 42.7108 336.257 42.7108ZM336.257 51.3792C337.915 51.3792 339.347 50.0978 339.347 48.138C339.347 46.2535 337.915 44.8967 336.257 44.8967C334.599 44.8967 333.166 46.2535 333.166 48.138C333.166 50.0978 334.599 51.3792 336.257 51.3792Z" fill="#2E6276"/>
<path d="M343.342 51.3795H344.85V44.8971H343.267V42.9373H344.85V42.485C344.85 39.0931 347.563 38.7162 348.92 38.7162C349.523 38.7162 349.975 38.7916 349.975 38.7916V40.9021C349.975 40.9021 349.674 40.8267 349.146 40.8267C348.543 40.8267 347.413 40.9775 347.413 42.485V43.0127H349.749V44.9725H347.413V51.4549H349.146V53.4147H343.342V51.3795Z" fill="#2E6276"/>
<path d="M356.081 51.3038H357.815V40.9018H356.081V38.8666H363.016C363.845 38.8666 364.749 38.942 365.428 39.2435C367.011 39.9219 367.99 41.5048 367.99 43.5399C367.99 45.5751 366.935 47.3088 365.277 47.9118C364.599 48.1379 363.845 48.2133 363.091 48.2133H360.528V51.3791H362.262V53.3389H356.081V51.3038ZM362.714 46.1028C363.317 46.1028 363.769 46.0274 364.146 45.8013C364.9 45.4244 365.352 44.5952 365.352 43.5399C365.352 42.56 364.975 41.8063 364.297 41.354C363.92 41.1279 363.392 40.9771 362.714 40.9771H360.453V46.0274H362.714V46.1028Z" fill="#2E6276"/>
<path d="M370.403 44.8972H368.82V42.9374H373.041V49.1937C373.041 50.3997 373.342 51.3042 374.699 51.3042C376.508 51.3042 377.563 49.4952 377.563 47.6107V44.8972H375.98V42.9374H380.126V51.0027C380.126 51.3042 380.277 51.455 380.578 51.455H381.558V53.3394H378.995C378.091 53.3394 377.639 52.8871 377.639 52.2087V51.7565C377.639 51.455 377.639 51.3042 377.639 51.3042H377.563C377.413 51.6811 376.357 53.5655 373.794 53.5655C371.684 53.5655 370.403 52.4349 370.403 49.6459V44.8972Z" fill="#2E6276"/>
<path d="M383.518 40.8264H381.935V38.8666H386.081V43.3892C386.081 43.9168 386.006 44.2937 386.006 44.2937H386.081C386.081 44.2937 386.986 42.7108 389.171 42.7108C391.96 42.7108 393.769 44.8967 393.769 48.1379C393.769 51.4545 391.734 53.5651 389.021 53.5651C386.759 53.5651 385.93 51.9068 385.93 51.9068H385.855C385.855 51.9068 385.93 52.2837 385.93 52.6605V53.2636H383.518V40.8264ZM388.644 51.3791C390.076 51.3791 391.282 50.2485 391.282 48.1379C391.282 46.1781 390.227 44.8967 388.719 44.8967C387.362 44.8967 386.081 45.8766 386.081 48.1379C386.081 49.7962 386.91 51.3791 388.644 51.3791Z" fill="#2E6276"/>
<path d="M395.955 40.8264H394.372V38.8666H398.518V49.8716C398.518 50.7761 398.744 51.3038 399.573 51.3038C399.875 51.3038 400.026 51.3038 400.026 51.3038V53.4143C400.026 53.4143 399.573 53.4897 399.121 53.4897C397.463 53.4897 395.955 52.9621 395.955 50.0977V40.8264Z" fill="#2E6276"/>
<path d="M401.383 51.3791H402.89V44.8967H401.307V42.9369H405.528V51.3791H407.036V53.3389H401.458V51.3791H401.383ZM402.89 38.8666H405.528V41.2033H402.89V38.8666Z" fill="#2E6276"/>
<path d="M413.669 42.7108C415.403 42.7108 417.89 43.3892 417.89 45.1983V46.6304H415.629V45.952C415.629 45.2736 414.574 44.9721 413.669 44.9721C411.785 44.9721 410.654 46.2535 410.654 48.138C410.654 50.2485 412.161 51.4545 413.895 51.4545C415.327 51.4545 416.533 50.6254 417.136 50.1731L418.041 51.9822C417.362 52.6606 415.704 53.5651 413.744 53.5651C410.729 53.5651 408.016 51.5299 408.016 48.138C408.091 45.0475 410.428 42.7108 413.669 42.7108Z" fill="#2E6276"/>
<path d="M205.629 73.1635H207.362V62.7615H205.629V60.7263H211.81V62.7615H210.076V66.9072H216.634V62.7615H214.9V60.7263H221.081V62.7615H219.347V73.1635H221.081V75.1233H214.9V73.1635H216.634V69.0932H210.076V73.2389H211.81V75.1987H205.629V73.1635Z" fill="#2E6276"/>
<path d="M227.79 64.5706C230.805 64.5706 232.388 66.7565 232.388 69.4701C232.388 69.7716 232.312 70.3746 232.312 70.3746H225.151C225.302 72.259 226.734 73.2389 228.242 73.2389C229.9 73.2389 231.257 72.1082 231.257 72.1082L232.237 73.9173C232.237 73.9173 230.654 75.3495 228.016 75.3495C224.548 75.3495 222.438 72.862 222.438 69.9223C222.513 66.8319 224.699 64.5706 227.79 64.5706ZM229.749 68.867C229.674 67.4349 228.845 66.6057 227.714 66.6057C226.357 66.6057 225.453 67.5103 225.227 68.867H229.749Z" fill="#2E6276"/>
<path d="M239.397 68.7914H240.076V68.4145C240.076 67.0577 239.247 66.6054 238.191 66.6054C236.608 66.6054 235.252 67.5853 235.252 67.5853L234.272 65.7763C234.272 65.7763 235.855 64.4949 238.418 64.4949C241.206 64.4949 242.714 65.927 242.714 68.5652V72.711C242.714 73.0125 242.865 73.1632 243.166 73.1632H244.071V75.123H241.659C240.679 75.123 240.302 74.5954 240.302 73.9924V73.8416C240.302 73.5401 240.377 73.314 240.377 73.314H240.302C240.302 73.314 239.397 75.2738 237.061 75.2738C235.327 75.2738 233.593 74.2185 233.593 72.1079C233.518 69.0929 237.739 68.7914 239.397 68.7914ZM237.664 73.5401C239.096 73.5401 240.076 72.0326 240.076 70.7512V70.3743H239.624C238.644 70.3743 236.156 70.525 236.156 72.1079C236.156 72.8617 236.684 73.5401 237.664 73.5401Z" fill="#2E6276"/>
<path d="M245.805 62.6861H244.222V60.7263H248.367V71.7313C248.367 72.6359 248.594 73.1635 249.423 73.1635C249.724 73.1635 249.875 73.1635 249.875 73.1635V75.2741C249.875 75.2741 249.423 75.3494 248.97 75.3494C247.312 75.3494 245.805 74.8218 245.805 71.9575V62.6861Z" fill="#2E6276"/>
<path d="M252.362 66.7564H250.779V64.7966H252.438V61.9323H254.925V64.7966H257.262V66.7564H254.925V71.1282C254.925 72.8619 256.282 73.1634 257.036 73.1634C257.337 73.1634 257.488 73.1634 257.488 73.1634V75.274C257.488 75.274 257.186 75.3493 256.659 75.3493C255.227 75.3493 252.362 74.8971 252.362 71.4297V66.7564Z" fill="#2E6276"/>
<path d="M258.468 73.2389H259.976V62.6861H258.393V60.7263H262.614V65.7766C262.614 66.3042 262.538 66.6811 262.538 66.6811H262.614C263.141 65.7012 264.423 64.5705 266.232 64.5705C268.493 64.5705 269.85 65.7766 269.85 68.4901V73.2389H271.358V75.1987H267.287V69.0178C267.287 67.7364 266.986 66.9072 265.629 66.9072C263.82 66.9072 262.689 68.4901 262.689 70.3746V73.2389H264.197V75.1987H258.619V73.2389H258.468Z" fill="#2E6276"/>
<path d="M279.799 67.51C279.799 67.4346 277.839 66.7562 277.839 64.3442C277.839 61.7813 280.025 60.5753 282.588 60.5753C283.568 60.5753 284.473 60.8015 284.473 60.8015L283.87 62.912C283.87 62.912 283.342 62.7612 282.89 62.7612C281.533 62.7612 280.478 63.4396 280.478 64.6457C280.478 65.5502 280.93 66.6809 282.664 66.6809H285.377V64.721H287.94V66.6809H289.824V68.7914H287.94V70.6005C287.94 73.5402 285.905 75.5 282.588 75.5C279.347 75.5 277.236 73.6155 277.236 71.2035C277.236 69.5452 278.216 68.0376 279.799 67.51ZM282.664 73.0879C284.322 73.0879 285.453 72.1834 285.453 70.3743V68.716H282.588C281.005 68.716 279.95 69.4698 279.95 70.902C279.95 72.1834 281.005 73.0879 282.664 73.0879Z" fill="#2E6276"/>
<path d="M296.005 73.1635H297.739V62.7615H296.005V60.7263H306.709V64.4198H304.448V62.8369H300.377V66.8318H305.126V68.9424H300.377V73.0128H304.749V71.3545H307.011V75.1233H296.005V73.1635Z" fill="#2E6276"/>
<path d="M308.744 73.2386H310.252V67.2084C310.252 66.9069 310.101 66.7562 309.799 66.7562H308.669V64.7964H311.382C312.287 64.7964 312.739 65.2486 312.739 65.927V66.3793C312.739 66.6054 312.664 66.8316 312.664 66.8316H312.739C312.89 66.53 313.945 64.4949 316.583 64.4949C318.769 64.4949 320.051 65.7009 320.051 68.4145V73.1632H321.558V75.123H317.488V68.9421C317.488 67.6607 317.111 66.8316 315.83 66.8316C313.945 66.8316 312.89 68.6406 312.89 70.4497V73.1632H314.397V75.123H308.82V73.2386H308.744Z" fill="#2E6276"/>
<path d="M322.011 64.7964H326.986V66.7562H325.855L327.664 71.8818C327.89 72.4095 327.965 73.0125 327.965 73.0125H328.041C328.041 73.0125 328.116 72.4095 328.267 71.8818L330.076 66.7562H328.87V64.7964H333.845V66.7562H332.639L329.473 75.1984H326.533L323.367 66.7562H322.086V64.7964H322.011Z" fill="#2E6276"/>
<path d="M334.749 73.2389H336.257V66.7565H334.674V64.7967H338.895V73.2389H340.403V75.1987H334.825V73.2389H334.749ZM336.182 60.7263H338.82V63.063H336.182V60.7263Z" fill="#2E6276"/>
<path d="M341.684 73.2385H343.191V67.2084C343.191 66.9069 343.041 66.7561 342.739 66.7561H341.608V64.7963H344.322C345.226 64.7963 345.679 65.1732 345.679 66.0777V66.6808C345.679 67.0576 345.603 67.3591 345.603 67.3591H345.679C346.131 65.8516 347.412 64.7209 348.995 64.7209C349.221 64.7209 349.448 64.7963 349.448 64.7963V67.3591C349.448 67.3591 349.146 67.2838 348.845 67.2838C346.734 67.2838 345.83 69.0928 345.83 71.0526V73.3139H347.337V75.2737H341.684V73.2385Z" fill="#2E6276"/>
<path d="M355.93 64.5706C359.096 64.5706 361.659 66.8319 361.659 69.9977C361.659 73.1635 359.096 75.4248 355.93 75.4248C352.764 75.4248 350.202 73.1635 350.202 69.9977C350.277 66.8319 352.764 64.5706 355.93 64.5706ZM356.006 73.2389C357.664 73.2389 359.096 71.9575 359.096 69.9977C359.096 68.1133 357.664 66.7565 356.006 66.7565C354.347 66.7565 352.915 68.1133 352.915 69.9977C352.915 71.9575 354.272 73.2389 356.006 73.2389Z" fill="#2E6276"/>
<path d="M363.091 73.2386H364.599V67.2084C364.599 66.9069 364.448 66.7562 364.146 66.7562H363.016V64.7964H365.729C366.634 64.7964 367.086 65.2486 367.086 65.927V66.3793C367.086 66.6054 367.011 66.8316 367.011 66.8316H367.086C367.237 66.53 368.292 64.4949 370.93 64.4949C373.116 64.4949 374.398 65.7009 374.398 68.4145V73.1632H375.905V75.123H371.835V68.9421C371.835 67.6607 371.458 66.8316 370.176 66.8316C368.292 66.8316 367.237 68.6406 367.237 70.4497V73.1632H368.744V75.123H363.166V73.2386H363.091Z" fill="#2E6276"/>
<path d="M377.111 73.2384H378.619V67.1329C378.619 66.8314 378.468 66.6806 378.166 66.6806H377.036V64.7208H379.749C380.654 64.7208 381.106 65.1731 381.106 65.8515V66.3037C381.106 66.5299 381.031 66.756 381.031 66.756H381.106C381.634 65.7007 382.915 64.4193 384.649 64.4193C386.081 64.4193 387.136 65.0977 387.513 66.6806H387.589C388.192 65.4746 389.548 64.4193 391.207 64.4193C393.317 64.4193 394.523 65.6253 394.523 68.3389V73.0877H396.031V75.0475H391.96V68.8665C391.96 67.6605 391.734 66.756 390.528 66.756C388.795 66.756 387.89 68.4897 387.89 70.4495V73.0877H389.398V75.0475H385.327V68.8665C385.327 67.7359 385.176 66.756 383.895 66.756C382.086 66.756 381.257 68.7158 381.257 70.5248V73.0123H382.764V74.9721H377.111V73.2384Z" fill="#2E6276"/>
<path d="M402.212 64.5706C405.227 64.5706 406.81 66.7565 406.81 69.4701C406.81 69.7716 406.734 70.3746 406.734 70.3746H399.573C399.724 72.259 401.156 73.2389 402.664 73.2389C404.322 73.2389 405.679 72.1082 405.679 72.1082L406.659 73.9173C406.659 73.9173 405.076 75.3495 402.438 75.3495C398.97 75.3495 396.86 72.862 396.86 69.9223C396.935 66.8319 399.121 64.5706 402.212 64.5706ZM404.171 68.867C404.096 67.4349 403.267 66.6057 402.136 66.6057C400.779 66.6057 399.875 67.5103 399.649 68.867H404.171Z" fill="#2E6276"/>
<path d="M408.317 73.2386H409.825V67.2084C409.825 66.9069 409.674 66.7562 409.372 66.7562H408.242V64.7964H410.955C411.86 64.7964 412.312 65.2486 412.312 65.927V66.3793C412.312 66.6054 412.237 66.8316 412.237 66.8316H412.312C412.463 66.53 413.518 64.4949 416.156 64.4949C418.342 64.4949 419.624 65.7009 419.624 68.4145V73.1632H421.131V75.123H417.061V68.9421C417.061 67.6607 416.684 66.8316 415.403 66.8316C413.518 66.8316 412.463 68.6406 412.463 70.4497V73.1632H413.97V75.123H408.393V73.2386H408.317Z" fill="#2E6276"/>
<path d="M423.393 66.7564H421.81V64.7966H423.468V61.9323H425.955V64.7966H428.292V66.7564H425.955V71.1282C425.955 72.8619 427.312 73.1634 428.066 73.1634C428.367 73.1634 428.518 73.1634 428.518 73.1634V75.274C428.518 75.274 428.217 75.3493 427.689 75.3493C426.257 75.3493 423.393 74.8971 423.393 71.4297V66.7564Z" fill="#2E6276"/>
<path d="M193.568 0.575684H192.588V75.1989H193.568V0.575684Z" fill="#2E6276"/>
</g>
<defs>
<clipPath id="clip0_2221_22308">
<rect width="427.877" height="75" fill="white" transform="translate(0.640747 0.5)"/>
</clipPath>
<clipPath id="clip1_2221_22308">
<rect width="93.2039" height="72.3618" fill="white" transform="translate(0.640747 1.81921)"/>
</clipPath>
</defs>
</svg>
