<svg width="279" height="100" viewBox="0 0 279 100" fill="none" xmlns="http://www.w3.org/2000/svg">
<g clip-path="url(#clip0_2000_2419)">
<path d="M73.9741 21.9696L73.4047 21.3755L72.8105 20.93L72.0926 20.6578H71.3746H70.4834L69.7654 20.93L69.196 21.3755L68.6018 21.9696L68.181 22.5388L67.8839 23.2566L67.7353 24.1476L67.5868 24.8654L67.7353 25.7317L67.8839 26.4742L68.181 27.192L68.6018 27.7613L69.196 28.3553L69.7654 28.6523L70.4834 28.9246L71.2261 29.0731L72.0926 28.9246L72.8105 28.6523L73.4047 28.2068L73.9741 27.7613V30.6819L72.6868 31.1026L71.944 31.2511L71.2261 31.3997L69.914 31.2511L68.7504 30.8304L67.7353 30.2364L66.8688 29.3701L66.1261 28.5038L65.5567 27.3405L65.2596 26.1772L65.1111 24.8654L65.2596 23.7021L65.5567 22.3903L66.1261 21.227L66.8688 20.3608L67.7353 19.4945L68.7504 18.9004L69.914 18.4797L71.2261 18.3312H71.944L72.6868 18.4797L73.4047 18.7519L73.9741 19.049V21.9696Z" fill="#2E6276"/>
<path d="M80.3862 22.8359H81.1041L81.5498 22.9844L82.1192 23.43L82.5648 23.727L82.8619 24.321L83.159 24.915L83.3075 25.509V26.6723L83.159 27.2664L82.8619 27.8604L82.5648 28.3059L82.1192 28.7514L81.5498 29.1969L81.1041 29.4939H79.792L79.3464 29.1969L78.777 28.7514L78.3313 28.3059L78.0343 27.8604L77.7372 27.2664L77.5886 26.6723L77.4401 26.1031L77.5886 25.5338L77.7372 24.9398L78.0343 24.3457L78.3313 23.7517L78.777 23.4547L79.2226 23.0092L79.8168 22.8607H80.3862V22.8359ZM80.3862 31.2512H81.5498L82.4163 30.8057L83.2828 30.3602L84.0007 29.7662L84.5949 28.8999L85.0405 28.0336L85.3376 27.0188V24.9893L85.0405 24.123L84.5949 23.2567L84.0007 22.3904L83.2828 21.7964L82.4163 21.2271L81.5498 20.9301L80.3862 20.7816L79.3711 20.9301L78.5046 21.2271L77.6381 21.7964L76.9202 22.3904L76.326 23.2567L75.8804 24.123L75.5833 24.9893V27.0188L75.8804 28.0336L76.326 28.8999L76.9202 29.7662L77.6381 30.3602L78.5046 30.8057L79.3711 31.2512H80.3862Z" fill="#2E6276"/>
<path d="M86.7735 21.0786H88.6551V26.5981L88.8036 27.6376L88.9522 28.6524L89.2492 28.9247L89.5216 29.3702L89.9672 29.5187L90.4128 29.6672L90.9822 29.5187L91.4279 29.3702L91.7249 28.9247L91.9973 28.6524L92.1458 27.6376L92.2944 26.5981V21.0786H94.1759V27.0436V27.9099L93.9036 28.8009L93.755 29.5187L93.3094 30.0879L92.8885 30.5335L92.1458 30.979L91.4279 31.2512H90.4128H89.5216L88.8036 30.979L88.0857 30.5335L87.64 30.0879L87.2192 29.5187L87.0706 28.8009L86.7735 27.9099V27.0436V21.0786Z" fill="#2E6276"/>
<path d="M96.0822 20.8063H97.5181L102.767 27.7613V21.0785H104.648V31.2512H103.187L98.1123 24.2714H97.9637V30.9789H96.0822V20.8063Z" fill="#2E6276"/>
<path d="M109.872 30.979H107.842V22.8359H105.96V21.0786H111.927V22.8359H109.872V30.979Z" fill="#2E6276"/>
<path d="M112.199 21.0786H114.378L116.135 24.5685L118.017 21.0786H120.344L117.15 26.4743V30.979H115.269V26.4743L112.199 21.0786Z" fill="#2E6276"/>
<path d="M129.059 22.8359H129.628L130.222 22.9844L130.668 23.43L131.113 23.727L131.559 24.321L131.856 24.915L132.005 25.509V26.6723L131.708 27.2664L131.559 27.8604L131.113 28.3059L130.668 28.7514L130.222 29.1969L129.628 29.4939H128.464L127.87 29.1969L127.425 28.7514L126.979 28.3059L126.533 27.8604L126.385 27.2664L126.088 26.6723V25.509L126.236 24.915L126.533 24.321L126.979 23.727L127.425 23.43L127.87 22.9844L128.464 22.8359H129.034H129.059ZM129.059 31.2512H130.074L131.089 30.8057L131.807 30.3602L132.525 29.7662L133.119 28.8999L133.564 28.0336L133.861 27.0188L134.01 26.0041L133.861 24.9893L133.564 24.123L133.119 23.2567L132.525 22.3904L131.807 21.7964L131.089 21.2271L130.074 20.9301L129.059 20.7816L128.044 20.9301L127.029 21.2271L126.311 21.7964L125.593 22.3904L124.998 23.2567L124.553 24.123L124.256 24.9893L124.107 26.0041L124.256 27.0188L124.553 28.0336L124.998 28.8999L125.593 29.7662L126.311 30.3602L127.029 30.8057L128.044 31.2512H129.059Z" fill="#2E6276"/>
<path d="M137.352 22.8359V25.014H140.249V26.5981H137.352V30.979H135.471V21.0786H140.397V22.8359H137.352Z" fill="#2E6276"/>
<path d="M147.973 28.9246H151.464V30.9789H145.497V18.6282H147.973V28.9246Z" fill="#2E6276"/>
<path d="M156.985 22.8359H157.554L158.148 22.9844L158.594 23.43L159.039 23.727L159.485 24.321L159.634 24.915L159.931 25.509V26.6723L159.634 27.2664L159.485 27.8604L159.039 28.3059L158.594 28.7514L158.148 29.1969L157.554 29.4939H156.39L155.796 29.1969L155.351 28.7514L154.905 28.3059L154.459 27.8604L154.162 27.2664L154.014 26.6723V25.509L154.162 24.915L154.459 24.321L154.905 23.727L155.351 23.43L155.796 22.9844L156.39 22.8359H156.96H156.985ZM156.985 31.2512H158L159.015 30.8057L159.733 30.3602L160.451 29.7662L161.045 28.8999L161.49 28.0336L161.787 27.0188L161.936 26.0041L161.787 24.9893L161.49 24.123L161.045 23.2567L160.451 22.3904L159.733 21.7964L159.015 21.2271L158 20.9301L156.985 20.7816L155.97 20.9301L154.954 21.2271L154.237 21.7964L153.519 22.3904L152.924 23.2567L152.479 24.123L152.182 24.9893L152.033 26.0041L152.182 27.0188L152.479 28.0336L152.924 28.8999L153.519 29.7662L154.237 30.3602L154.954 30.8057L155.97 31.2512H156.985Z" fill="#2E6276"/>
<path d="M168.026 23.2566L167.729 22.9844L167.432 22.6873L167.011 22.5388H166.566H166.145L165.699 22.8359L165.402 23.1081V23.5536V23.8506L165.551 24.1476L165.996 24.5684L167.284 25.1624L168.026 25.5832L168.596 26.0287L168.893 26.4742L169.19 26.895V27.3405L169.338 27.9098L169.19 28.6523L169.041 29.2216L168.744 29.8156L168.447 30.3849L167.878 30.6819L167.432 31.1027L166.714 31.2512H165.996L165.105 31.1027L164.238 30.8304L163.52 30.0879L162.926 29.3701L164.238 28.2068L164.535 28.6523L164.981 29.0731L165.402 29.5186L165.996 29.6671L166.566 29.5186L167.011 29.2216L167.16 28.6523L167.284 28.2068V27.7613L167.16 27.489L166.714 27.0435L166.145 26.7465L165.551 26.598L164.684 26.1772L163.941 25.5832L163.669 25.1624L163.52 24.8654L163.372 24.4199V23.8506V23.2566L163.52 22.6873L163.818 22.0933L164.238 21.6726L164.535 21.3755L165.105 21.0785L165.699 20.93L166.268 20.8063L167.011 20.93L167.729 21.0785L168.447 21.5241L168.893 21.9696L168.026 23.2566Z" fill="#2E6276"/>
<path d="M180.38 26.4742H177.483L178.944 21.9696L180.405 26.4742H180.38ZM181.098 28.3553L182.113 30.9789H184.589L179.934 18.3312H178.053L173.25 30.9789H175.726L176.741 28.3553H181.098Z" fill="#2E6276"/>
<path d="M185.752 20.8063H187.213L192.437 27.7613V21.0785H194.318V31.2512H193.031L187.782 24.2714H187.634V30.9789H185.752V20.8063Z" fill="#2E6276"/>
<path d="M205.088 25.7317V26.0287L204.939 27.0435L204.79 28.0583L204.493 28.9246L203.924 29.6671L203.355 30.3849L202.612 30.8304L201.597 31.2512H200.582H199.567L198.552 30.8304L197.809 30.3849L197.091 29.8156L196.522 28.9246L196.224 28.0583L195.927 27.192L195.779 26.1772L195.927 25.0139L196.224 24.1476L196.645 23.2566L197.091 22.3903L197.809 21.8211L198.7 21.227L199.567 20.93L200.73 20.8063L201.894 20.93L203.057 21.5241L203.924 22.2418L204.221 22.6873L204.642 23.2566L202.909 24.1476L202.463 23.5536L202.042 22.9844L201.3 22.6873L200.582 22.5388L199.988 22.6873L199.418 22.8359L198.973 23.2566L198.552 23.7021L198.255 24.2714L197.957 24.8654L197.809 25.4347V26.1772V26.7465L197.957 27.3405L198.255 27.9098L198.552 28.5038L198.973 28.9246L199.418 29.2216L199.988 29.5186L200.582 29.6671L201.027 29.5186L201.448 29.3701L202.191 28.9246L202.76 28.2068L202.909 27.7613V27.3405H200.879V25.7317H205.088Z" fill="#2E6276"/>
<path d="M208.578 22.8359V25.014H211.623V26.5981H208.578V29.3702H211.772V30.979H206.548V21.0786H211.772V22.8359H208.578Z" fill="#2E6276"/>
<path d="M215.56 29.3702H218.159V30.979H213.505V21.0786H215.56V29.3702Z" fill="#2E6276"/>
<path d="M221.353 22.8359V25.014H224.423V26.5981H221.353V29.3702H224.571V30.979H219.471V21.0786H224.571V22.8359H221.353Z" fill="#2E6276"/>
<path d="M231.107 23.2566L230.81 22.9844L230.365 22.6873L230.092 22.5388H229.498H229.077L228.78 22.8359L228.483 23.1081L228.334 23.5536V23.8506L228.483 24.1476L228.929 24.5684L230.365 25.1624L231.107 25.5832L231.677 26.0287L231.974 26.4742L232.122 26.895L232.271 27.3405V27.9098V28.6523L232.122 29.2216L231.825 29.8156L231.404 30.3849L230.959 30.6819L230.365 31.1027L229.795 31.2512H229.077L228.062 31.1027L227.171 30.8304L226.601 30.0879L226.007 29.3701L227.171 28.2068L227.468 28.6523L227.914 29.0731L228.483 29.5186L229.077 29.6671L229.498 29.5186L229.944 29.2216L230.241 28.6523V28.2068V27.7613L230.092 27.489L229.647 27.0435L229.226 26.7465L228.632 26.598L227.616 26.1772L227.022 25.5832L226.75 25.1624L226.453 24.8654V24.4199L226.304 23.8506L226.453 23.2566L226.601 22.6873L226.899 22.0933L227.171 21.6726L227.616 21.3755L228.062 21.0785L228.632 20.93L229.226 20.8063L229.944 20.93L230.662 21.0785L231.404 21.5241L231.974 21.9696L231.107 23.2566Z" fill="#2E6276"/>
<path d="M52.4602 75.4315L54.0694 77.9066L53.0544 77.4611L51.8908 77.1641H49.4151L48.2515 77.3126L46.9394 77.6096L45.6273 78.0551L44.1666 78.6244L43.8695 76.4463L43.3001 74.4167L42.7059 72.3872L41.8394 70.5061L40.8244 68.625L39.8094 66.744L37.4822 63.1056L36.4672 61.9423L35.3036 61.076L33.9914 60.3582L32.5308 59.7642L31.0701 59.3187L29.6094 59.0217H26.4158L25.6978 58.7247L24.9799 58.2792L24.4105 57.8336L24.2619 57.5366L24.1134 57.0911L23.9648 56.4971L24.1134 55.9031L24.559 54.8883L25.0046 54.022L25.1532 53.428V52.8587L24.8561 52.5617L24.7076 51.9677V50.9529L25.574 50.0866L24.2619 49.4926L23.8163 49.0471L23.6678 48.7501V48.3045L23.8163 48.0075L23.9648 47.562V46.6957L23.6678 45.8295V45.1117L23.2221 44.6662L22.6527 44.3692L21.6377 43.9236L21.0683 43.7751L20.7712 43.3296L20.4741 43.0326L20.3256 42.4386L20.4741 41.7208L20.6226 41.1268L21.3406 39.9635L22.2071 38.9487L23.2221 37.9339L24.0886 37.0676L24.9551 35.9043L25.1037 35.3103L25.4007 34.741V31.9689L25.5493 30.6571L25.8464 29.3454L26.1435 28.1821L27.01 25.8555L28.025 23.3804V22.6626L28.3221 22.0686L28.7677 20.9053L29.2133 20.1875L29.5104 19.8905L31.5405 17.2669L33.5706 15.0888L35.4521 13.3563L36.9128 12.49L38.522 11.896L40.1312 11.599L41.8642 11.4504L45.3549 11.599H48.6971L49.1428 11.7475H52.9306L55.8272 11.896L55.5301 12.0445L57.5602 12.49L59.5903 13.2078L61.0509 13.777L60.9024 14.074L60.6053 14.2225L60.0359 14.074L59.4417 13.9255H59.1446L58.699 14.074L50.1331 14.2225H47.6573L45.1816 14.6681L42.8545 15.3858L40.5273 16.1036L39.6608 16.6976L38.4972 17.1432L37.4822 17.7372L37.0366 18.1827L36.5909 18.6282L35.7244 20.237L35.4274 20.9548L35.2788 21.8211L34.9817 22.4151L34.8332 23.0091L34.6847 24.1724L34.5361 25.3357L34.3876 26.499L34.957 28.5286L34.5113 29.5434L34.0657 30.5581L33.9172 31.5729V34.7658L34.0657 36.9439V37.3894L33.7686 37.8349L33.0507 38.5527L31.4415 40.013L30.8721 40.7308L30.7235 41.1763L30.575 41.6218V41.9188L30.8721 42.3643L31.1691 42.8098L31.7386 43.2554V43.8494L31.59 44.4187L31.4415 45.7304V46.3245L31.59 46.8937L31.8871 47.3393L32.6051 47.6363L32.7536 48.0818L32.4565 48.3788L32.0109 48.5273L31.7138 48.8243V48.9728L31.8623 49.2698L32.8774 51.0024V53.329L33.0259 53.7745L33.1745 54.3685L33.6201 54.814L34.0657 55.111L34.9322 55.5566L35.7987 55.8536L36.6652 56.0021L37.5317 56.1506H41.171L42.0375 56.2991L42.7555 56.5961L43.4734 57.1901L44.0428 57.7841L44.637 58.6504L45.0826 59.5167L45.652 61.3978L46.5185 63.2788L46.9641 64.1451L47.5336 65.0114L48.4001 66.1747L49.118 67.4865L50.4301 70.1101L51.4452 72.7337L52.3117 75.5058L52.4602 75.4315ZM42.5822 0.164033L44.0428 0.312539L45.5035 0.758055L48.1277 1.35208L46.8156 1.50058L45.652 1.35208L44.3399 1.20357H43.0278L42.0127 1.50058L40.9977 1.9461L38.9676 2.81238L38.1011 3.2579L37.0861 3.70341L35.9225 3.85192L34.9075 4.00042H30.6988L29.9808 4.14893L29.2628 4.29743L28.2478 5.16372L27.2328 6.03L25.3512 7.91107L24.9056 8.20808L24.46 8.50509L23.2964 9.09911L22.727 9.39612L22.2814 9.84164L21.8357 10.2872L21.5386 10.8812L20.9692 11.4752L20.6721 12.193L20.3751 12.787V13.6533L19.9294 14.2473L19.6324 14.9651L19.1867 16.4254L19.0382 18.0342L18.5926 19.6182L19.0382 20.336L19.6076 21.0538L20.0532 21.7716L20.2018 22.2171V23.6774L19.9047 24.6922L19.6076 25.707L19.162 26.5732L18.1469 28.4543L17.8498 29.4691L17.5528 30.4839L17.4042 30.9294V31.5234L17.5528 32.6867V33.2807L17.7013 33.8748L17.5528 34.4688L17.2557 34.9143L14.6314 37.5379L13.3193 38.7012L11.8586 39.8645L11.1407 40.7308L10.4227 41.597L10.2742 42.0426L10.1256 42.6118V43.0574L10.2742 43.5029L11.1407 44.0969L12.0072 44.5424L14.0373 45.2602L14.3343 45.8542L14.4829 46.2997L14.3343 47.3145L14.1858 48.3293L13.8887 49.1956L13.5916 50.2104V51.0766L13.7402 51.5222L13.8887 51.9677L14.3343 52.4132L14.9285 52.8587L14.78 53.5765L14.4829 54.2943V55.012L14.78 55.4576L15.0771 55.7546L15.6712 56.7694L15.9683 57.3634V57.9574L15.5227 58.8237L15.2256 59.5415L15.0771 60.4077L15.2256 61.4225L15.6712 62.1403L16.2406 62.8581L16.81 63.3036L17.528 63.6006L18.246 63.8976L19.1125 64.0461H22.4547L24.1877 64.3431L24.9056 64.4916L25.6236 64.9371L26.3415 65.3827L26.9109 66.1004L28.5201 68.427L29.6837 70.9021L32.0109 76.0008L32.5803 77.1641L33.1745 78.1789L33.6201 79.3422L34.0657 80.5055L34.5113 82.9806L34.8084 85.6042L33.3478 87.213L31.8871 88.9703L30.4264 90.8514L29.1143 92.7324L27.0842 96.0738L25.475 99.2667L24.3114 100.281L25.1779 98.5489L25.7473 96.6678L26.3415 94.7868L26.9109 93.0542L27.0595 91.5939L26.9109 89.9851L26.7624 88.5248L26.4653 87.0645L26.0197 85.6042L25.3017 84.2924L24.4352 82.9806L23.4202 81.9658L22.9746 80.951L22.6775 80.0847L22.2318 78.0551L21.7862 76.0256L21.4891 75.0108L21.0435 74.1445L20.0285 73.4267L19.0134 72.8327L17.9984 72.3872L16.9833 71.9417L14.6562 71.4961L12.329 70.9021H8.68973L7.97177 70.7536L7.10528 70.4566L6.38732 70.0111L5.66937 69.2933L5.22374 68.724L4.77811 68.0063L4.48103 67.2885L4.33248 66.5707V65.1104L4.62957 64.2441L4.77811 63.5264L5.0752 63.0808L5.52082 62.6353L5.81791 62.1898L5.96645 61.8928V61.5958L5.2485 60.878L4.67908 60.0117L4.53054 59.4177V58.5514L4.82763 57.9574L5.27325 57.6604L5.4218 57.3634V57.0664L4.70384 56.9179L4.25821 56.4723L3.81259 55.8783V55.2843L3.96113 53.824L3.81259 52.2152L3.66404 50.4826L1.03979 48.8738L0.594168 48.5768L0.297083 48.2798L-1.92225e-06 47.8343L-0.148544 47.3888V46.374L-1.92225e-06 45.3592L0.297083 44.3444L0.594168 43.6266L0.891253 42.9088L6.56062 35.0628L6.41208 34.048L6.26354 31.2759L6.41208 29.5434L6.56062 27.6623L7.00625 25.6327L7.60042 23.4546L8.91254 20.2618L9.6305 18.8015L9.92758 18.2074L10.0761 17.7619L10.3732 17.3164L10.8188 16.8709L11.8339 15.8561L12.7004 14.8413L12.8489 14.5443L12.9975 14.0988H12.4033L11.8091 13.8018L11.2149 13.5048L10.6455 13.0593L10.0514 12.3415L9.75428 11.4752V10.3119L10.0514 9.74263L10.3485 9.14861L10.7941 8.55459L11.3882 8.10907L12.7004 7.09429L14.3096 6.37651L16.1911 5.65873L17.9241 5.06471L19.5333 4.7677L20.994 4.47069L24.0391 3.60441L26.9357 2.73813L29.8323 1.72334L32.8774 1.00556L41.171 0.139282H40.7254H41.5919L42.4584 0.287788L42.5822 0.164033Z" fill="#2E6276"/>
<path d="M65.4082 39.0972H73.5532L76.5984 39.2457L77.7619 39.3942L78.777 39.5427L79.4949 39.8397L80.2129 40.2852L80.9309 40.7307L81.3765 41.1762L81.8221 41.6218L82.1192 42.2158L82.7134 43.5276L82.8619 45.4086L83.0104 47.8837V50.6558L82.8619 52.1161V53.2794L82.5648 54.2942L82.2677 55.012L81.9707 55.7298L81.4012 56.299L80.8071 56.7446L80.0891 57.1901L79.2226 57.4871L78.2076 57.7841L77.044 57.9326H73.5532V70.5803H65.4082V39.1962V39.0972ZM73.5532 44.4929V52.4874H74.1227L75.1377 52.3389L75.4348 52.1904L75.7319 51.8934L75.8804 51.5964L76.029 51.0024L76.1775 49.5421V47.067L76.029 45.6067L75.8804 45.1611L75.5833 44.8641L75.2862 44.7156L74.8406 44.5671L73.5285 44.4186L73.5532 44.4929Z" fill="#2E6276"/>
<path d="M103.039 44.7651V70.4813H95.0671L95.1909 68.3032L94.7701 69.0458L94.3244 69.4665L93.755 69.9121L93.1609 70.3576L92.5914 70.6298L91.9973 70.7783L90.4128 70.9268L88.8036 70.7783L88.2342 70.6298L87.4915 70.3576L86.4764 69.615L86.2041 69.1943L85.7585 68.7488L85.3129 67.734L85.1643 66.5707L85.0405 64.9619V62.066V44.7651H92.8885V62.2145V64.6896L93.0123 65.8529L93.1609 66.1252L93.3094 66.2737L94.0273 66.4222H94.473L94.7701 66.2737L94.9186 66.1252L95.0671 65.8529L95.1909 64.5411V62.066V44.7651H103.039Z" fill="#2E6276"/>
<path d="M113.808 39.0972V46.4977L114.823 45.4829L115.838 44.7651L117.15 44.4681L118.463 44.3196H119.923L121.235 44.7651L122.25 45.3344L123.117 46.2007L123.563 47.067L123.86 47.9332V49.3935L124.008 51.7201V63.3531L123.86 65.8281L123.563 67.5855L123.265 68.1547L122.968 68.8725L122.399 69.4418L121.83 69.8873L121.112 70.3328L120.245 70.7783L119.379 70.9268H118.512L117.2 70.7783L115.888 70.3328L114.873 69.615L113.709 68.6002L113.264 70.4813H105.985V39.0972H113.833H113.808ZM116.135 52.0419L115.987 50.4331L115.838 49.4183L115.69 49.1213L115.393 48.9728L115.244 48.8243H114.799L114.229 48.9728L114.081 49.1213L113.932 49.4183L113.783 50.2846V64.8134L113.932 65.8281L114.081 66.1252L114.378 66.2737L114.947 66.4222H115.244L115.541 66.2737L115.69 66.1252L115.838 65.8281L115.987 64.8134L116.135 62.9323V52.0419Z" fill="#2E6276"/>
<path d="M134.604 39.0972H126.608V70.4813H134.604V39.0972Z" fill="#2E6276"/>
<path d="M145.497 43.1811H137.501V39.1219H145.497V43.1811ZM145.497 70.4813H137.501V44.7652H145.497V70.4813Z" fill="#2E6276"/>
<path d="M165.699 54.517H158.272V51.4479V50.1608L158 49.4183L157.703 48.9975L157.108 48.849L156.539 48.9975L156.242 49.2698L155.945 50.1608V51.4479V63.6748L156.093 64.8134L156.242 65.7044L156.539 65.9767L156.687 66.2737L156.985 66.4222H157.257H157.703L158 66.2737L158.272 65.9767L158.42 65.7044L158.569 64.6896L158.718 62.9323V59.8879H165.699L165.551 62.6353L165.402 64.5411L165.253 65.2589L164.956 66.1252L164.684 66.8677L164.09 67.734L163.52 68.4517L162.926 69.1943L162.06 69.7635L161.342 70.2091L160.327 70.4813L159.312 70.7783L158.148 70.9268H156.985H155.375L153.915 70.6298L152.751 70.3576L151.588 69.912L150.721 69.1943L150.003 68.4517L149.409 67.5855L148.839 66.7192L148.542 65.5559L148.245 64.2441L148.097 62.6353V60.9027V53.5022V52.0419L148.245 50.5816L148.394 49.5668L148.691 48.552L149.137 47.8342L149.855 46.9432L150.572 46.2254L151.588 45.6562L152.751 45.0621L153.915 44.6166L155.375 44.3444H156.836H158.272L159.584 44.6166L160.896 45.0621L162.06 45.6562L163.075 46.2254L163.818 47.0917L164.535 47.958L164.956 48.849L165.253 50.0123L165.551 51.2994V52.7597L165.699 54.517Z" fill="#2E6276"/>
<path d="M194.046 39.0972V70.4813H185.901V57.2643H183.425V70.4813H175.28V39.0972H183.425V50.2846H185.901V39.0972H194.046Z" fill="#2E6276"/>
<path d="M214.966 58.1306H204.79V65.1104L204.939 65.8282L205.385 66.2737L205.954 66.4222H206.4L206.697 66.2737L206.994 65.9767L207.142 65.6797L207.439 64.8134L207.588 63.2046V59.7147H214.99V61.5958L214.842 63.7739L214.693 65.3827L214.099 66.6945L213.233 68.0063L212.638 68.724L211.92 69.3181L211.203 69.9121L210.485 70.2091L209.47 70.6546L208.454 70.8031L207.439 70.9516H204.964L203.8 70.8031L202.785 70.6546L201.77 70.2091L200.904 69.9121L200.037 69.4666L199.319 68.8725L198.75 68.2785L197.883 66.9667L197.586 66.2489L197.289 65.5312L196.992 63.6501V52.0172L197.141 50.5569L197.438 49.3936L197.883 48.2303L198.329 47.364L199.047 46.4977L199.913 45.9037L200.78 45.3097L201.943 44.8642L203.107 44.4187L204.271 44.2701H207.167L208.628 44.5672L209.94 44.8642L211.103 45.4582L212.119 46.176L212.985 46.8937L213.579 47.76L214.149 48.7748L214.446 49.9381L214.743 51.2499L214.891 52.8587L215.04 54.5913V58.0811L214.966 58.1306ZM207.118 53.923V52.0419L206.969 50.4331L206.821 49.4183L206.672 49.1213L206.523 48.9728L205.929 48.8243L205.211 48.9728L205.063 49.1213L204.914 49.2698L204.766 50.2846V53.923H207.093H207.118Z" fill="#2E6276"/>
<path d="M224.571 54.6408H217.169V51.5965L217.318 50.2847L217.466 49.2699L217.912 48.4036L218.209 47.5373L218.927 46.8195L219.645 46.2255L220.66 45.5077L221.675 44.9137L222.987 44.6167L224.448 44.3197H227.79L229.548 44.6167L230.86 45.0622L232.023 45.6563L232.89 46.374L233.608 47.2403L234.053 48.1066L234.499 49.1214L234.647 50.4332L234.796 52.3142V70.4814H227.245V68.1548L226.8 68.8726L226.354 69.4666L225.908 69.9121L225.339 70.3577L224.745 70.6547L224.175 70.8032L223.457 70.9517H221.7L220.685 70.6547L219.818 70.3577L218.952 69.7636L218.506 69.4666L218.06 69.0211L217.615 68.0063L217.318 66.546L217.169 64.8135V61.3236L217.318 60.1603L217.615 59.294L218.06 58.7L218.63 58.1307L219.645 57.5367L220.957 56.9674L222.566 56.2496L225.463 54.9378L226.329 54.4923L226.775 54.1953L226.923 53.4775V50.4332L226.626 49.4184L226.329 48.9729L225.735 48.8244L225.017 48.9729L224.868 49.1214L224.72 49.4184L224.571 50.2847V54.6408ZM226.899 58.2792L225.438 59.591L224.992 60.0365L224.844 60.6058L224.547 61.7691V64.8135L224.695 65.8282L224.844 66.1252L225.141 66.2738L225.71 66.4223L226.304 66.2738L226.75 65.9767L226.899 65.1105V58.2792Z" fill="#2E6276"/>
<path d="M245.64 39.0972H237.495V70.4813H245.64V39.0972Z" fill="#2E6276"/>
<path d="M256.681 41.2753V45.3592H258.86V49.4183H256.681V63.2293L256.83 65.2589V65.8529L256.978 66.1252H257.127L257.696 66.2737L259.157 66.4222V70.4813H255.963H253.636L252.175 70.3576L251.012 69.9121L250.145 69.318L249.427 68.4518L249.279 67.8825L249.13 67.437L248.833 65.7044V62.5115V49.4183H247.1V45.3592H248.833V41.2753H256.681Z" fill="#2E6276"/>
<path d="M268.466 39.0972V46.2254L269.481 45.3591L270.644 44.7651L271.808 44.3444H273.12H274.135L275.001 44.4929L275.868 44.9136L276.586 45.3591L277.329 45.9284L277.75 46.5224L278.195 47.0917L278.344 47.6857L278.641 49.7153V52.7597V70.4813H270.793V52.3389V50.5816L270.644 49.4183L270.496 49.2698L270.199 48.9975L269.902 48.849H269.629H269.332L269.035 48.9975L268.738 49.2698L268.614 49.5668L268.466 50.4331V52.1904V70.4813H260.618V39.0972H268.466Z" fill="#2E6276"/>
</g>
<defs>
<clipPath id="clip0_2000_2419">
<rect width="278.641" height="100" fill="white"/>
</clipPath>
</defs>
</svg>
