<svg width="301" height="80" viewBox="0 0 301 80" fill="none" xmlns="http://www.w3.org/2000/svg">
<g clip-path="url(#clip0_2000_2459)">
<path d="M80.7529 60.6256V71.0711H75.7072V42.8327C79.071 42.6557 81.0185 42.6557 81.5496 42.6557C85.9757 42.6557 89.251 43.3638 91.3755 44.6917C93.4115 46.0195 94.4737 48.2325 94.4737 51.1537C94.4737 57.6158 90.6673 60.8911 82.9659 60.8911C82.4348 60.8026 81.6381 60.7141 80.7529 60.6256ZM80.7529 47.1703V56.1995C81.6381 56.288 82.2578 56.3765 82.7889 56.3765C85.0905 56.3765 86.7724 56.0224 87.8346 55.2257C88.8969 54.429 89.428 53.1897 89.428 51.5078C89.428 48.5866 87.0379 47.0817 82.3463 47.0817C81.7266 47.0817 81.1955 47.0818 80.7529 47.1703ZM112.001 71.0711V58.324C112.001 57.0847 111.558 56.0224 110.762 55.2257C109.965 54.429 108.903 54.075 107.663 54.075C106.867 54.075 106.07 54.252 105.273 54.6946C104.477 55.1372 103.857 55.5798 103.503 56.1995V71.0711H98.6343V42.6557L103.503 41.5049V51.6849C104.742 50.5341 106.513 50.003 108.637 50.003C111.204 50.003 113.24 50.7111 114.657 52.1275C116.073 53.5438 116.781 55.5798 116.781 58.324V71.0711H112.001ZM123.332 71.0711V54.3405H120.676V50.3571H128.201V71.0711H123.332ZM125.81 42.3901C126.607 42.3901 127.227 42.6557 127.758 43.1868C128.289 43.7179 128.555 44.4261 128.555 45.1343C128.555 45.931 128.289 46.5506 127.758 47.0817C127.227 47.6129 126.519 47.8784 125.81 47.8784C125.014 47.8784 124.394 47.6129 123.863 47.0817C123.332 46.5506 123.066 45.8424 123.066 45.1343C123.066 44.3376 123.332 43.7179 123.863 43.1868C124.394 42.6557 125.102 42.3901 125.81 42.3901ZM134.663 42.6557L139.531 41.5049V64.7861C139.531 67.3532 140.328 68.8581 141.833 69.3007C141.125 70.717 139.797 71.4252 138.026 71.4252C135.813 71.4252 134.751 69.9203 134.751 66.9106V42.6557H134.663ZM156.97 69.0351C156.527 69.7433 155.731 70.3629 154.668 70.8056C153.606 71.2482 152.455 71.5137 151.305 71.5137C149.092 71.5137 147.321 70.9826 146.082 69.8318C144.843 68.681 144.134 67.1762 144.134 65.0516C144.134 62.6616 145.02 60.8026 146.79 59.4748C148.561 58.147 151.128 57.4388 154.403 57.4388C154.934 57.4388 155.642 57.5273 156.439 57.7044C156.439 55.3143 154.934 54.075 151.836 54.075C149.977 54.075 148.472 54.3405 147.321 54.9602L146.259 51.2423C147.941 50.4456 149.888 50.003 152.19 50.003C155.377 50.003 157.678 50.7111 159.095 52.1275C160.511 53.5438 161.308 56.288 161.308 60.2715V64.6976C161.308 67.4417 161.839 69.2122 162.99 69.9203C162.547 70.6285 162.104 71.0711 161.662 71.2482C161.131 71.4252 160.599 71.5137 159.98 71.5137C159.272 71.5137 158.652 71.2482 158.121 70.717C157.59 70.1859 157.236 69.5663 156.97 69.0351ZM156.527 61.3337C155.731 61.1567 155.111 61.0682 154.668 61.0682C150.862 61.0682 148.915 62.3075 148.915 64.7861C148.915 66.645 149.977 67.5303 152.101 67.5303C155.023 67.5303 156.439 66.1139 156.439 63.1927V61.3337H156.527ZM179.897 71.0711V69.8318C179.455 70.2744 178.835 70.6285 177.861 70.9826C176.887 71.3367 175.914 71.5137 174.94 71.5137C172.019 71.5137 169.806 70.6285 168.124 68.7696C166.442 66.9106 165.645 64.432 165.645 61.1567C165.645 57.8814 166.619 55.2257 168.478 53.1897C170.337 51.1537 172.727 50.0915 175.648 50.0915C177.242 50.0915 178.658 50.4456 179.897 51.0652V42.7442L184.766 41.5934V71.1596H179.897V71.0711ZM179.897 55.3143C178.835 54.5176 177.773 54.075 176.71 54.075C174.763 54.075 173.258 54.6946 172.284 55.8454C171.311 56.9962 170.602 58.7666 170.602 60.8911C170.602 65.2287 172.638 67.3532 176.799 67.3532C177.242 67.3532 177.861 67.1762 178.481 66.9106C179.189 66.645 179.632 66.3795 179.809 66.1139V55.3143H179.897ZM207.959 62.219H193.175C193.264 63.9009 193.795 65.1402 194.857 66.0254C195.92 66.9106 197.336 67.3532 199.106 67.3532C201.319 67.3532 203.001 66.8221 204.152 65.6713L206.011 69.3892C204.329 70.8056 201.762 71.4252 198.398 71.4252C195.211 71.4252 192.733 70.54 190.874 68.681C189.015 66.8221 188.13 64.255 188.13 60.9797C188.13 57.7044 189.103 55.0487 191.139 53.1012C193.175 51.0652 195.566 50.0915 198.398 50.0915C201.408 50.0915 203.798 50.9767 205.657 52.7471C207.427 54.5176 208.401 56.8191 208.401 59.5633C208.401 60.0944 208.224 60.9797 207.959 62.219ZM193.352 58.5896H203.532C203.178 55.5798 201.496 54.075 198.487 54.075C195.743 54.075 194.061 55.5798 193.352 58.5896ZM213.093 42.6557L217.962 41.5049V64.7861C217.962 67.3532 218.758 68.8581 220.263 69.3007C219.555 70.717 218.227 71.4252 216.457 71.4252C214.244 71.4252 213.181 69.9203 213.181 66.9106V42.6557H213.093ZM228.319 70.54V79.1266H223.45V50.3571H228.319V51.7734C229.558 50.6226 230.974 50.003 232.745 50.003C239.295 50.003 242.659 53.6324 242.659 60.8911C242.659 64.255 241.774 66.9106 239.915 68.681C238.056 70.54 235.577 71.4252 232.479 71.4252C230.974 71.4252 229.558 71.1596 228.319 70.54ZM228.319 55.4913V66.3795C229.204 67.0876 230.178 67.4417 231.417 67.4417C233.63 67.4417 235.223 66.9106 236.197 65.8483C237.171 64.7861 237.613 63.1042 237.613 60.8026C237.613 58.324 237.171 56.6421 236.197 55.6684C235.223 54.6946 233.63 54.1635 231.417 54.1635C230.266 54.075 229.204 54.5176 228.319 55.4913ZM260.275 71.0711V58.324C260.275 57.0847 259.832 56.0224 259.036 55.2257C258.239 54.429 257.177 54.075 255.937 54.075C255.141 54.075 254.344 54.252 253.547 54.6946C252.751 55.1372 252.131 55.5798 251.777 56.1995V71.0711H246.908V42.6557L251.777 41.5049V51.6849C253.016 50.5341 254.787 50.003 256.911 50.003C259.478 50.003 261.514 50.7111 262.931 52.1275C264.347 53.5438 265.055 55.5798 265.055 58.324V71.0711H260.275ZM271.694 71.0711V54.3405H269.039V50.3571H276.563V71.0711H271.694ZM274.173 42.3901C274.969 42.3901 275.589 42.6557 276.12 43.1868C276.651 43.7179 276.917 44.4261 276.917 45.1343C276.917 45.931 276.651 46.5506 276.12 47.0817C275.589 47.6129 274.881 47.8784 274.173 47.8784C273.376 47.8784 272.756 47.6129 272.225 47.0817C271.694 46.5506 271.429 45.8424 271.429 45.1343C271.429 44.3376 271.694 43.7179 272.225 43.1868C272.756 42.6557 273.376 42.3901 274.173 42.3901ZM293.648 69.0351C293.205 69.7433 292.408 70.3629 291.346 70.8056C290.284 71.2482 289.133 71.5137 287.982 71.5137C285.769 71.5137 283.999 70.9826 282.759 69.8318C281.52 68.681 280.812 67.1762 280.812 65.0516C280.812 62.6616 281.697 60.8026 283.468 59.4748C285.238 58.147 287.805 57.4388 291.08 57.4388C291.612 57.4388 292.32 57.5273 293.116 57.7044C293.116 55.3143 291.612 54.075 288.513 54.075C286.654 54.075 285.149 54.3405 283.999 54.9602L282.936 51.2423C284.618 50.4456 286.566 50.003 288.867 50.003C292.054 50.003 294.356 50.7111 295.772 52.1275C297.188 53.5438 297.985 56.288 297.985 60.2715V64.6976C297.985 67.4417 298.516 69.2122 299.667 69.9203C299.224 70.6285 298.782 71.0711 298.339 71.2482C297.808 71.4252 297.277 71.5137 296.657 71.5137C295.949 71.5137 295.329 71.2482 294.798 70.717C294.267 70.1859 293.825 69.5663 293.648 69.0351ZM293.205 61.3337C292.408 61.1567 291.789 61.0682 291.346 61.0682C287.54 61.0682 285.592 62.3075 285.592 64.7861C285.592 66.645 286.654 67.5303 288.779 67.5303C291.7 67.5303 293.116 66.1139 293.116 63.1927V61.3337H293.205Z" fill="#2E6276"/>
<path d="M87.6576 14.3288L86.4183 16.8074C85.7986 16.1877 84.7364 15.8336 83.2315 15.8336C81.8152 15.8336 80.6644 16.4533 79.7792 17.6041C78.8939 18.7548 78.4513 20.2597 78.4513 22.0301C78.4513 23.8006 78.8939 25.2169 79.6906 26.2792C80.4873 27.3414 81.6381 27.8726 82.9659 27.8726C84.5593 27.8726 85.7986 27.3414 86.6838 26.1907L88.1002 28.5808C86.8609 29.8201 85.0905 30.5282 82.7889 30.5282C80.4873 30.5282 78.6284 29.7315 77.3891 28.2267C76.0612 26.7218 75.4416 24.5973 75.4416 21.9416C75.4416 19.463 76.1498 17.427 77.5661 15.7451C78.9825 14.0632 80.8414 13.2665 83.0545 13.2665C85.0019 13.178 86.5068 13.5321 87.6576 14.3288ZM91.1099 30.0856V20.2597H89.5165V17.9581H93.9426V30.1741H91.1099V30.0856ZM92.5263 13.178C92.9689 13.178 93.4115 13.355 93.6771 13.6206C94.0311 13.9747 94.1197 14.3288 94.1197 14.7714C94.1197 15.214 93.9426 15.6566 93.6771 15.9222C93.323 16.2762 92.9689 16.3648 92.5263 16.3648C92.0837 16.3648 91.6411 16.1877 91.3755 15.9222C91.0214 15.5681 90.9329 15.214 90.9329 14.7714C90.9329 14.3288 91.1099 13.8862 91.3755 13.6206C91.7296 13.355 92.0837 13.178 92.5263 13.178ZM97.7491 20.1712H96.3327V17.8696H97.7491V15.391L100.582 14.3288V17.8696H103.946V20.1712H100.582V25.4825C100.582 26.3677 100.759 26.9874 101.024 27.3414C101.29 27.6955 101.733 27.8726 102.441 27.8726C103.149 27.8726 103.769 27.6955 104.388 27.3414V29.9971C103.769 30.2627 102.795 30.3512 101.555 30.3512C100.316 30.3512 99.431 29.9971 98.7228 29.2889C98.1031 28.5808 97.7491 27.607 97.7491 26.3677V20.1712ZM111.913 32.0331C111.647 32.8298 110.939 33.538 109.965 34.0691C108.991 34.6002 107.841 34.8658 106.513 34.8658V32.3872C108.726 32.3872 109.788 31.8561 109.788 30.7053C109.788 29.9971 109.522 28.8463 108.903 27.3414L105.096 17.8696H108.018L111.381 26.2792L114.391 17.8696H117.312L111.913 32.0331Z" fill="#2E6276"/>
<path d="M121.915 23.9776C121.915 22.1186 122.447 20.6137 123.509 19.463C124.571 18.3122 125.987 17.6925 127.758 17.6925C129.617 17.6925 131.033 18.2237 132.095 19.3744C133.158 20.5252 133.6 22.0301 133.6 23.9776C133.6 25.925 133.069 27.4299 132.007 28.5807C130.945 29.7315 129.528 30.2626 127.758 30.2626C125.899 30.2626 124.483 29.643 123.42 28.4922C122.447 27.4299 121.915 25.925 121.915 23.9776ZM124.925 23.9776C124.925 26.6332 125.899 27.961 127.846 27.961C128.732 27.961 129.44 27.607 129.971 26.8988C130.502 26.1906 130.768 25.2169 130.768 23.889C130.768 21.2334 129.794 19.9056 127.846 19.9056C126.961 19.9056 126.253 20.2597 125.722 20.9678C125.191 21.7645 124.925 22.7383 124.925 23.9776ZM142.718 15.568C142.098 15.391 141.656 15.3024 141.302 15.3024C140.771 15.3024 140.328 15.568 139.974 16.0106C139.62 16.4532 139.443 17.0729 139.443 17.6925C139.443 17.781 139.443 17.8696 139.443 17.9581H142.01V20.2597H139.531V30.0856H136.699V20.2597H134.928V17.9581H136.699C136.787 16.4532 137.23 15.3024 138.026 14.3287C138.823 13.4435 139.885 12.9124 141.213 12.9124C141.921 12.9124 142.718 13.0894 143.692 13.355L142.718 15.568Z" fill="#2E6276"/>
<path d="M26.4891 62.219C26.6661 64.0779 27.0202 66.9106 27.2858 68.0614C38.7936 71.0712 46.672 69.5663 48.531 68.327C49.8588 67.3533 50.8325 66.9106 48.9736 63.1042C44.7245 64.7861 36.0494 64.6976 26.4891 62.219Z" fill="#2E6276"/>
<path d="M21.7974 67.4417C20.4696 66.9991 19.1418 67.7072 18.6992 69.0351C18.3451 70.0088 18.6992 71.0711 19.4959 71.6907L18.9647 72.8415C18.9647 72.8415 19.3188 73.1956 19.9385 73.3726C20.5581 73.5497 20.9122 73.4611 20.9122 73.4611L21.0893 72.2218C22.1515 72.2218 23.0367 71.6022 23.3908 70.5399C23.8334 69.3006 23.1252 67.8843 21.7974 67.4417ZM63.4911 15.3024C64.1108 13.1779 62.6944 12.8238 62.2518 12.7353L48.2654 8.84032C47.2031 8.57475 47.5572 6.09614 46.5835 5.83058C46.5835 5.83058 36.5805 2.99788 35.6068 2.73232C34.6331 2.46675 33.6593 4.76832 32.5971 4.41423L18.5221 0.430755C18.0795 0.342233 16.6632 -0.100375 16.132 2.02415L12.9453 13.4434C12.8567 13.6205 12.7682 13.6205 12.5912 13.6205L11.6174 13.3549C11.2633 13.2664 10.9978 13.3549 10.7322 13.8861C10.4666 14.4172 10.1126 15.2139 9.75847 16.4532C9.31587 17.8695 9.22734 19.1088 9.13882 19.5514C9.13882 19.994 9.13882 20.2596 9.66995 20.4367L18.6106 22.9153C19.1418 23.0923 19.8499 23.0923 20.2926 22.1186C21.2663 20.0826 23.6564 16.1876 24.4531 15.745C25.5153 15.1254 31.8889 16.1876 31.8889 16.1876C31.8889 16.1876 31.7118 16.5417 31.4463 17.5154C31.1807 18.4892 31.8004 20.9678 31.1807 21.3219C28.0825 23.0923 22.4171 20.4367 20.5581 25.6594C15.955 39.0262 12.5026 44.6916 7.27987 48.1439C9.75847 51.0652 15.5124 54.0749 23.9219 56.642C23.8334 56.3765 23.8334 56.1109 23.8334 55.8453C23.8334 55.4027 23.8334 54.7831 23.6564 52.8356C23.4793 50.9766 23.3023 50.0914 23.3023 49.2062C23.3023 48.2325 23.3908 47.4358 23.8334 45.8424C23.9219 45.6653 23.9219 45.3998 24.0105 45.2227C24.6301 43.0982 26.6661 37.1673 27.4628 35.4853C27.6399 35.2198 27.8169 35.2198 27.8169 35.2198C27.9054 35.2198 28.0825 35.3083 27.9939 35.5739C27.8169 37.4328 26.312 43.4523 25.6924 45.6653C25.6039 45.8424 25.6039 46.1079 25.5153 46.285C25.0727 47.7899 25.1612 48.498 25.1612 49.2947C25.1612 50.0914 25.4268 51.0652 25.6039 52.9241C25.7809 54.8716 25.7809 55.6683 25.7809 56.1109C25.7809 56.465 25.7809 56.642 26.0465 57.2617C26.135 57.2617 26.135 57.2617 26.2235 57.2617C35.7839 59.9173 43.1311 60.537 47.0261 59.2092C44.3705 53.5438 44.3704 46.8161 47.2031 33.0067C48.3539 27.5184 42.1574 26.9873 40.387 23.8005C40.0329 23.2694 41.8033 21.4104 42.1574 20.4367C42.423 19.4629 42.5115 19.0203 42.5115 19.0203C42.5115 19.0203 48.708 21.4989 49.3277 22.5612C49.7703 23.3579 49.8588 27.961 49.5932 30.174C49.5047 31.2363 50.1244 31.5904 50.6555 31.7674L59.5962 34.246C60.1273 34.4231 60.3044 34.1575 60.4814 33.7149C60.6584 33.2723 61.1896 32.21 61.6322 30.7937C61.9863 29.5544 62.0748 28.6692 62.0748 28.0495C62.0748 27.5184 61.8978 27.2528 61.5437 27.1643L60.4814 26.9873C60.3044 26.9873 60.2158 26.8102 60.3044 26.6332M3.56195 50.4455C-0.0674341 52.9241 0.375174 54.1634 1.43743 55.4912C3.91604 58.678 10.5552 63.4582 22.6826 66.822C22.6826 66.822 25.0727 67.4417 25.4268 67.5302C25.2498 66.5565 24.8072 63.4582 24.6301 61.6878C14.4501 58.8551 6.39465 54.2519 3.56195 50.4455Z" fill="#2E6276"/>
</g>
<defs>
<clipPath id="clip0_2000_2459">
<rect width="300" height="79.3154" fill="white" transform="translate(0.640747 0.342285)"/>
</clipPath>
</defs>
</svg>
