<svg width="300" height="59" viewBox="0 0 300 59" fill="none" xmlns="http://www.w3.org/2000/svg">
<mask id="mask0_3158_5141" style="mask-type:luminance" maskUnits="userSpaceOnUse" x="0" y="0" width="300" height="59">
<path d="M300 0H0V58.7084H300V0Z" fill="white"/>
</mask>
<g mask="url(#mask0_3158_5141)">
<path d="M190.214 14.2433C190.484 14.2433 190.784 14.3032 191.054 14.3331C192.553 9.90452 195.102 4.03967 196.361 0.987549C196.092 1.04739 195.792 1.07732 195.522 1.07732C195.252 1.07732 194.922 1.04739 194.652 0.987549C193.663 3.97982 192.343 7.48078 190.994 10.7124C189.794 7.48078 188.415 3.89005 187.545 0.987549C186.975 1.04739 186.405 1.07732 185.836 1.07732C185.266 1.07732 184.696 1.04739 184.096 0.987549C185.356 3.9499 188.145 11.0416 189.344 14.3331C189.614 14.3032 189.914 14.2433 190.214 14.2433Z" fill="#2E6276"/>
<path d="M198.251 14.3331C198.671 14.3032 199.21 14.2433 199.84 14.2433C200.47 14.2433 201.01 14.3032 201.429 14.3331C201.309 12.6275 201.28 11.1314 201.28 8.97692V6.34372C201.28 4.18928 201.309 2.69314 201.429 0.987549C201.01 1.01747 200.47 1.07732 199.84 1.07732C199.21 1.07732 198.671 1.01747 198.251 0.987549C198.371 2.69314 198.401 4.18928 198.401 6.34372V8.97692C198.401 11.1314 198.371 12.6275 198.251 14.3331Z" fill="#2E6276"/>
<path d="M207.727 2.09469C209.826 2.09469 210.726 2.33407 210.726 4.63812C210.726 6.46341 209.796 7.39102 208.087 7.39102C207.937 7.39102 207.817 7.39102 207.667 7.36109C207.667 5.59565 207.667 3.86013 207.727 2.09469ZM204.638 14.3331C205.058 14.3032 205.598 14.2433 206.227 14.2433C206.857 14.2433 207.397 14.3032 207.817 14.3331C207.697 12.6275 207.667 11.1314 207.667 8.97692V8.19893H207.847L211.325 14.363C211.925 14.3331 212.525 14.2732 213.095 14.2732C213.665 14.2732 214.264 14.3331 214.834 14.363C213.425 12.1787 211.955 9.96437 210.696 7.78001C212.615 7.30125 213.695 6.10434 213.695 4.2192C213.695 3.08214 213.215 2.21438 212.435 1.64585C211.775 1.16709 211.056 0.987549 209.076 0.987549C207.757 0.987549 206.917 1.07732 206.227 1.07732C205.598 1.07732 205.058 1.01747 204.638 0.987549C204.758 2.69315 204.788 4.18928 204.788 6.34372V8.97692C204.788 11.1314 204.758 12.6275 204.638 14.3331Z" fill="#2E6276"/>
<path d="M223.471 14.6024C225.18 14.6024 226.949 14.2433 228.659 13.7646C228.629 13.4653 228.599 12.448 228.599 11.6401C228.599 10.4132 228.659 8.7974 228.749 8.37848C228.509 8.40841 228.119 8.46825 227.159 8.46825C226.379 8.46825 225.99 8.40841 225.72 8.37848C225.72 8.73756 225.84 9.60532 225.84 11.6999C225.84 12.2684 225.84 12.7472 225.78 13.0464C225.48 13.2559 224.34 13.3756 223.681 13.3756C220.682 13.3756 218.972 11.0416 218.972 7.98949C218.972 3.91999 221.461 1.94509 223.86 1.94509C225.63 1.94509 226.859 2.72308 227.699 3.86015H227.969C228.089 3.20185 228.299 2.54355 228.509 1.88525C227.129 1.13718 225.81 0.718262 223.83 0.718262C219.272 0.718262 215.794 3.17193 215.794 8.07926C215.794 12.0291 219.002 14.5725 223.441 14.5725" fill="#2E6276"/>
<path d="M231.627 14.3331C232.047 14.3032 232.587 14.2433 233.217 14.2433C233.846 14.2433 234.386 14.3032 234.806 14.3331C234.686 12.6275 234.656 11.1314 234.656 8.97692V6.34372C234.656 4.18928 234.686 2.69314 234.806 0.987549C234.386 1.01747 233.846 1.07732 233.217 1.07732C232.587 1.07732 232.047 1.01747 231.627 0.987549C231.747 2.69314 231.777 4.18928 231.777 6.34372V8.97692C231.777 11.1314 231.717 12.6275 231.627 14.3331Z" fill="#2E6276"/>
<path d="M238.854 14.2432C239.154 14.2432 239.454 14.2731 239.754 14.333C239.694 13.6148 239.634 12.5376 239.634 9.42565C239.634 7.98936 239.634 6.37353 239.664 4.90732C242.663 8.04921 245.482 11.1612 248.121 14.3031C248.361 14.2432 248.601 14.2133 248.87 14.2133C249.14 14.2133 249.38 14.2432 249.65 14.3031C249.65 9.15635 249.65 6.58299 249.95 0.95752C249.65 1.01737 249.38 1.04729 249.08 1.04729C248.78 1.04729 248.511 1.01737 248.211 0.95752C248.361 1.82528 248.361 7.09168 248.361 10.1737C245.512 7.09168 242.723 4.03956 239.964 0.95752C239.664 1.01737 239.394 1.04729 239.094 1.04729C238.794 1.04729 238.525 1.01737 238.225 0.95752C238.225 1.88512 238.315 3.08203 238.315 4.81755C238.315 8.76735 238.015 13.7645 237.925 14.3031C238.195 14.2432 238.525 14.2133 238.824 14.2133" fill="#2E6276"/>
<path d="M253.159 14.3331C253.579 14.3032 254.118 14.2433 254.748 14.2433C255.378 14.2433 255.918 14.3032 256.337 14.3331C256.218 12.6275 256.188 11.1314 256.188 8.97692V6.34372C256.188 4.18928 256.218 2.69314 256.337 0.987549C255.918 1.01747 255.378 1.07732 254.748 1.07732C254.118 1.07732 253.579 1.01747 253.159 0.987549C253.279 2.69314 253.309 4.18928 253.309 6.34372V8.97692C253.309 11.1314 253.279 12.6275 253.159 14.3331Z" fill="#2E6276"/>
<path d="M263.774 4.63805C264.404 6.13418 264.944 7.66024 265.514 9.24615H261.975C262.545 7.69017 263.145 6.16411 263.804 4.63805M260.116 14.333C260.476 12.9865 260.926 11.6699 261.435 10.3533C262.125 10.3533 262.785 10.3234 263.445 10.3234C264.284 10.3234 265.094 10.3234 265.934 10.3533C266.413 11.6699 266.863 13.0164 267.283 14.333C267.823 14.3031 268.393 14.2432 268.932 14.2432C269.472 14.2432 270.012 14.3031 270.642 14.333C269.172 11.1612 266.923 5.29635 265.244 0.897705C265.004 0.927628 264.764 0.987473 264.524 0.987473C264.284 0.987473 264.044 0.927628 263.774 0.897705C262.095 5.29635 259.186 12.1786 258.257 14.333C258.617 14.3031 258.916 14.2432 259.216 14.2432C259.516 14.2432 259.816 14.3031 260.116 14.333Z" fill="#2E6276"/>
<path d="M184.276 27.7384C184.276 26.6911 184.276 24.3272 184.276 23.9682C184.876 23.9083 185.356 23.8784 186.285 23.8784C188.954 23.8784 190.724 25.8533 190.724 29.0251C190.724 33.0647 188.894 35.0096 185.986 35.0096C185.176 35.0096 184.666 34.9797 184.276 34.9498C184.276 34.5907 184.276 32.2268 184.276 31.1795V27.7384ZM181.247 36.1168C181.667 36.0869 182.207 36.027 182.837 36.027C183.856 36.027 185.176 36.1168 187.095 36.1168C190.754 36.1168 193.782 33.304 193.782 29.055C193.782 24.1776 190.754 22.7712 186.345 22.7712C184.636 22.7712 183.677 22.861 182.837 22.861C182.207 22.861 181.667 22.8012 181.247 22.7712C181.367 24.4768 181.397 25.973 181.397 28.1274V30.7606C181.397 32.915 181.367 34.4112 181.247 36.1168Z" fill="#2E6276"/>
<path d="M199.24 22.861C198.101 22.861 196.931 22.7712 195.792 22.7712C195.912 24.4768 195.942 25.973 195.942 28.1274V30.7606C195.942 32.915 195.912 34.4112 195.792 36.1168C196.212 36.0869 196.751 36.027 199.9 36.027C201.669 36.027 202.599 36.0869 203.289 36.1168C203.259 35.8774 203.199 35.6979 203.199 35.2789C203.199 34.86 203.229 34.6805 203.289 34.4112C201.789 34.5907 200.29 34.6506 198.85 34.6506C198.82 33.8726 198.79 33.0647 198.79 32.2268C198.79 31.389 198.79 30.5512 198.79 29.7432C200.26 29.7432 201.729 29.8031 203.199 29.9228C203.139 29.5338 203.109 29.3542 203.109 29.1448C203.109 28.9054 203.109 28.7259 203.199 28.277C201.729 28.3668 200.47 28.3967 198.79 28.4266C198.79 27.0203 198.79 25.6139 198.88 24.2075C199.48 24.2075 201.789 24.3571 203.259 24.4469C203.229 24.1477 203.169 23.9981 203.169 23.5792C203.169 23.25 203.199 23.0106 203.259 22.7712C202.749 22.8311 201.1 22.861 199.21 22.861" fill="#2E6276"/>
<path d="M208.147 23.9082C208.357 23.9082 208.657 23.9082 208.956 23.9082C210.066 23.9082 210.996 24.5665 210.996 26.5114C210.996 29.025 209.406 29.3541 208.087 29.3541C208.087 27.5587 208.087 25.7335 208.117 23.9082M205.088 36.1166C205.508 36.0867 206.048 36.0269 206.677 36.0269C207.307 36.0269 207.847 36.0867 208.267 36.1166C208.117 34.1717 208.117 32.2566 208.117 30.3116H209.106C211.985 30.3116 214.084 29.1147 214.084 26.1823C214.084 25.0452 213.695 24.2373 212.885 23.579C212.285 23.0703 211.325 22.801 209.496 22.801C208.567 22.801 207.547 22.8908 206.647 22.8908C206.018 22.8908 205.478 22.8309 205.058 22.801C205.178 24.5066 205.208 26.0028 205.208 28.1572V30.7904C205.208 32.9448 205.178 34.441 205.058 36.1466" fill="#2E6276"/>
<path d="M216.393 31.0298C216.963 29.4739 217.563 27.9478 218.223 26.4217C218.852 27.9179 219.392 29.4439 219.962 31.0298H216.423H216.393ZM223.381 36.0269C223.92 36.0269 224.46 36.0868 225.09 36.1167C223.621 32.9748 221.341 27.08 219.692 22.6814C219.452 22.7113 219.212 22.7712 218.972 22.7712C218.732 22.7712 218.493 22.7113 218.223 22.6814C216.573 27.08 213.665 33.9623 212.705 36.1167C213.065 36.0868 213.365 36.0269 213.665 36.0269C213.964 36.0269 214.264 36.0868 214.564 36.1167C214.924 34.8001 215.344 33.4536 215.884 32.137C216.543 32.137 217.233 32.1071 217.893 32.1071C218.733 32.1071 219.542 32.1071 220.382 32.137C220.862 33.4536 221.311 34.7702 221.731 36.1167C222.271 36.0868 222.841 36.0269 223.381 36.0269Z" fill="#2E6276"/>
<path d="M230.008 23.8784C232.137 23.8784 233.007 24.1477 233.007 26.4218C233.007 28.2471 232.077 29.1747 230.368 29.1747C230.218 29.1747 230.098 29.1747 229.948 29.1448C229.948 27.3793 229.948 25.6438 230.008 23.8784ZM226.919 22.7712C227.039 24.4768 227.069 25.973 227.069 28.1274V30.7606C227.069 32.915 227.039 34.4112 226.919 36.1168C227.339 36.0869 227.879 36.027 228.509 36.027C229.138 36.027 229.678 36.0869 230.098 36.1168C229.978 34.4112 229.948 32.915 229.948 30.7606V29.9826H230.128L233.607 36.1467C234.206 36.1168 234.806 36.0569 235.376 36.0569C235.946 36.0569 236.545 36.1168 237.115 36.1467C235.706 33.9623 234.206 31.7481 232.977 29.5637C234.896 29.0849 235.976 27.888 235.976 26.0029C235.976 24.8658 235.496 23.9981 234.716 23.4595C234.026 22.9807 233.307 22.8012 231.357 22.8012C230.038 22.8012 229.198 22.8909 228.509 22.8909C227.879 22.8909 227.339 22.8311 226.919 22.8012" fill="#2E6276"/>
<path d="M243.742 30.7605V25.913C243.742 25.1649 243.742 24.4767 243.772 24.2074C244.552 24.2074 246.172 24.3271 247.221 24.4767C247.161 24.1775 247.131 23.9082 247.131 23.6389C247.131 23.3696 247.191 23.0703 247.221 22.801C245.572 22.8609 244.702 22.8908 242.303 22.8908C239.904 22.8908 239.034 22.8609 237.265 22.801C237.325 23.1003 237.355 23.3696 237.355 23.6389C237.355 23.9082 237.325 24.2074 237.265 24.4767C238.435 24.3271 240.054 24.2074 240.804 24.2074C240.864 24.4767 240.864 25.1649 240.864 25.913V30.7605C240.864 32.9149 240.834 34.411 240.714 36.1166C241.134 36.0867 241.673 36.0269 242.303 36.0269C242.933 36.0269 243.473 36.0867 243.892 36.1166C243.772 34.411 243.742 32.9149 243.742 30.7605Z" fill="#2E6276"/>
<path d="M264.164 36.1168C263.685 33.3938 262.995 27.2297 262.485 22.7712C262.215 22.8311 261.945 22.861 261.675 22.861C261.405 22.861 261.106 22.8311 260.836 22.7712C259.426 25.8533 257.837 29.1448 256.307 32.0174C254.898 29.2944 253.249 25.8533 251.839 22.7712C251.599 22.8311 251.329 22.861 251.06 22.861C250.79 22.861 250.55 22.8311 250.28 22.7712C249.74 27.2297 249.11 31.6583 248.271 36.1168C248.601 36.0569 248.87 36.027 249.17 36.027C249.47 36.027 249.77 36.0569 250.07 36.1168C250.28 33.2143 250.43 30.2519 250.85 27.3195H250.88C252.349 30.2519 253.729 33.1844 255.108 36.1168C255.228 36.1168 255.348 36.0869 255.468 36.0869C255.588 36.0869 255.708 36.0869 255.828 36.1168C257.237 33.1245 258.677 30.1322 260.116 27.14H260.146C260.446 30.1322 260.776 33.4237 260.926 36.1168C261.465 36.0569 262.005 36.027 262.515 36.027C263.025 36.027 263.565 36.0569 264.074 36.1168" fill="#2E6276"/>
<path d="M269.712 22.861C268.573 22.861 267.403 22.7712 266.263 22.7712C266.383 24.4768 266.413 25.973 266.413 28.1274V30.7606C266.413 32.915 266.383 34.4112 266.263 36.1168C266.683 36.0869 267.223 36.027 270.372 36.027C272.171 36.027 273.071 36.0869 273.76 36.1168C273.731 35.8774 273.671 35.6979 273.671 35.2789C273.671 34.86 273.701 34.6805 273.76 34.4112C272.261 34.5907 270.762 34.6506 269.322 34.6506C269.292 33.8726 269.262 33.0647 269.262 32.2268C269.262 31.389 269.262 30.5512 269.262 29.7432C270.732 29.7432 272.201 29.8031 273.671 29.9228C273.611 29.5338 273.581 29.3542 273.581 29.1448C273.581 28.9054 273.581 28.7259 273.671 28.277C272.201 28.3668 270.942 28.3967 269.262 28.4266C269.262 27.0203 269.262 25.6139 269.352 24.2075C269.922 24.2075 272.261 24.3571 273.73 24.4469C273.701 24.1477 273.641 23.9981 273.641 23.5792C273.641 23.25 273.671 23.0106 273.73 22.7712C273.221 22.8311 271.571 22.861 269.682 22.861" fill="#2E6276"/>
<path d="M286.355 22.7711C286.475 23.6389 286.475 28.9053 286.475 31.9873C283.627 28.9053 280.868 25.8532 278.079 22.7711C277.779 22.831 277.509 22.8609 277.209 22.8609C276.909 22.8609 276.609 22.831 276.339 22.7711C276.339 23.6987 276.429 24.8956 276.429 26.6312C276.429 30.581 276.13 35.5781 276.04 36.1167C276.339 36.0568 276.639 36.0269 276.939 36.0269C277.239 36.0269 277.539 36.0568 277.839 36.1167C277.779 35.3985 277.719 34.3213 277.719 31.2093C277.719 29.7431 277.719 28.1572 277.749 26.691C280.718 29.8329 283.567 32.9748 286.235 36.0868C286.475 36.0269 286.715 35.997 286.985 35.997C287.255 35.997 287.495 36.0269 287.765 36.0868C287.765 30.94 287.765 28.3667 288.065 22.7412C287.765 22.8011 287.495 22.831 287.195 22.831C286.895 22.831 286.625 22.8011 286.325 22.7412" fill="#2E6276"/>
<path d="M296.551 24.2373C297.331 24.2373 298.95 24.357 300 24.4767C299.94 24.1775 299.91 23.9082 299.91 23.6389C299.91 23.3696 299.94 23.1003 300 22.801C298.351 22.8609 297.481 22.8908 295.082 22.8908C292.683 22.8908 291.813 22.8609 290.044 22.801C290.104 23.1003 290.134 23.3696 290.134 23.6389C290.134 23.9082 290.104 24.2074 290.044 24.4767C291.214 24.357 292.833 24.2373 293.583 24.2373C293.643 24.5066 293.643 25.1948 293.643 25.9429V30.7904C293.643 32.9448 293.613 34.441 293.493 36.1466C293.912 36.1166 294.452 36.0568 295.082 36.0568C295.712 36.0568 296.251 36.1166 296.671 36.1466C296.551 34.441 296.521 32.9448 296.521 30.7904V25.9429C296.521 25.1948 296.521 24.5066 296.551 24.2373Z" fill="#2E6276"/>
<path d="M182.237 56.943C180.048 56.943 178.159 55.5067 178.159 51.4073C178.159 48.0858 179.718 45.3928 182.357 45.3928C184.846 45.3928 186.585 47.4575 186.585 50.7789C186.585 54.998 184.546 56.943 182.237 56.943ZM182.417 44.3156C177.919 44.3156 174.98 47.4275 174.98 51.2277C174.98 56.0453 178.279 58.1399 182.357 58.1399C186.675 58.1399 189.764 55.0279 189.764 51.1978C189.764 46.5299 186.525 44.2856 182.417 44.2856" fill="#2E6276"/>
<path d="M194.922 44.6447C193.782 44.6447 192.613 44.5549 191.473 44.5549C191.593 46.2605 191.623 47.7567 191.623 49.9111V52.5443C191.623 54.6987 191.593 56.1949 191.473 57.9005C191.893 57.8706 192.433 57.8107 193.063 57.8107C193.693 57.8107 194.232 57.8706 194.652 57.9005C194.532 56.1949 194.502 54.7287 194.502 52.5443V51.5568C195.972 51.5568 197.441 51.6167 198.91 51.7364C198.85 51.3175 198.82 51.1679 198.82 50.9285C198.82 50.6891 198.82 50.5096 198.91 50.0607C197.441 50.1206 196.182 50.1804 194.502 50.2103C194.502 48.804 194.502 47.3976 194.592 45.9912C195.162 45.9912 197.501 46.1408 198.97 46.2306C198.94 45.9314 198.91 45.7818 198.91 45.3628C198.91 45.0038 198.94 44.7943 198.97 44.5549C198.461 44.6148 196.811 44.6447 194.922 44.6447Z" fill="#2E6276"/>
<path d="M218.253 44.5549C217.833 44.5849 217.293 44.6447 216.663 44.6447C216.034 44.6447 215.494 44.5849 215.074 44.5549C215.194 46.2306 215.224 47.7267 215.224 49.8812C214.504 49.8812 213.665 49.9111 212.315 49.9111C210.966 49.9111 210.006 49.9111 209.346 49.8812C209.346 47.7267 209.376 46.2306 209.496 44.5549C209.076 44.5849 208.537 44.6447 207.907 44.6447C207.277 44.6447 206.737 44.5849 206.317 44.5549C206.437 46.2605 206.467 47.7567 206.467 49.9111V52.5443C206.467 54.6987 206.437 56.1949 206.317 57.9005C206.737 57.8706 207.277 57.8107 207.907 57.8107C208.537 57.8107 209.076 57.8706 209.496 57.9005C209.376 56.1949 209.346 54.7287 209.346 52.5443V51.4372C210.336 51.4072 211.325 51.3474 212.285 51.3474C213.245 51.3474 214.234 51.4072 215.224 51.4372V52.5443C215.224 54.6987 215.194 56.1949 215.074 57.9005C215.494 57.8706 216.034 57.8107 216.663 57.8107C217.293 57.8107 217.833 57.8706 218.253 57.9005C218.133 56.1949 218.103 54.7287 218.103 52.5443V49.9111C218.103 47.7567 218.133 46.2605 218.253 44.5549Z" fill="#2E6276"/>
<path d="M224.67 44.6448C223.531 44.6448 222.361 44.5551 221.222 44.5551C221.341 46.2607 221.371 47.7568 221.371 49.9112V52.5444C221.371 54.6989 221.341 56.195 221.222 57.9006C221.641 57.8707 222.181 57.8108 225.33 57.8108C227.129 57.8108 228.029 57.9006 228.719 57.9006C228.689 57.6612 228.629 57.4817 228.629 57.0628C228.629 56.6439 228.689 56.4643 228.719 56.195C227.219 56.3746 225.72 56.4344 224.28 56.4344C224.25 55.6564 224.22 54.8485 224.22 54.0107C224.22 53.1728 224.22 52.335 224.22 51.5271C225.69 51.5271 227.129 51.5869 228.629 51.7066C228.569 51.2877 228.539 51.1381 228.539 50.8987C228.539 50.6593 228.539 50.4798 228.629 50.0309C227.159 50.0908 225.93 50.1506 224.22 50.1805C224.22 48.7742 224.22 47.3678 224.31 45.9614C224.91 45.9614 227.219 46.1111 228.689 46.2008C228.659 45.9016 228.599 45.752 228.599 45.3331C228.599 44.974 228.659 44.7645 228.689 44.5251C228.179 44.585 226.529 44.6149 224.64 44.6149" fill="#2E6276"/>
<path d="M233.487 52.7836C234.056 51.2276 234.656 49.7016 235.316 48.1755C235.946 49.6716 236.485 51.1977 237.025 52.7836H233.487ZM236.066 44.5549C235.826 44.5549 235.586 44.495 235.346 44.4651C233.667 48.8637 230.758 55.746 229.828 57.9004C230.188 57.8705 230.488 57.8106 230.788 57.8106C231.088 57.8106 231.387 57.8705 231.687 57.9004C232.047 56.5838 232.497 55.2672 233.007 53.9506C233.667 53.9506 234.356 53.9207 235.016 53.9207C235.856 53.9207 236.665 53.9207 237.505 53.9506C237.985 55.2672 238.435 56.6137 238.854 57.9004C239.394 57.8705 239.964 57.8106 240.504 57.8106C241.044 57.8106 241.583 57.8705 242.213 57.9004C240.744 54.7585 238.465 48.8637 236.815 44.4651C236.575 44.495 236.335 44.5549 236.066 44.5549Z" fill="#2E6276"/>
<path d="M246.291 56.4344C246.291 55.4469 246.262 53.9508 246.262 52.5145V49.8813C246.262 47.697 246.291 46.2307 246.411 44.5251C245.992 44.5551 245.482 44.6149 244.822 44.6149C244.162 44.6149 243.653 44.5551 243.233 44.5251C243.353 46.2307 243.383 47.7269 243.383 49.8813V52.5145C243.383 54.669 243.353 56.1651 243.233 57.8707C243.653 57.8408 244.192 57.7809 247.341 57.7809C249.11 57.7809 250.04 57.8707 250.73 57.8707C250.7 57.6313 250.67 57.4518 250.67 57.0328C250.67 56.6139 250.7 56.4344 250.73 56.1651C249.23 56.3446 247.761 56.4045 246.291 56.4045" fill="#2E6276"/>
<path d="M254.988 44.6447C252.589 44.6447 251.719 44.6148 249.95 44.5549C250.01 44.8542 250.04 45.1235 250.04 45.3928C250.04 45.6621 250.01 45.9613 249.95 46.2306C251.12 46.1109 252.739 45.9613 253.489 45.9613C253.549 46.2306 253.549 46.9188 253.549 47.6669V52.5144C253.549 54.6688 253.519 56.165 253.399 57.8705C253.818 57.8406 254.358 57.7808 254.988 57.7808C255.618 57.7808 256.158 57.8406 256.577 57.8705C256.457 56.165 256.427 54.6987 256.427 52.5144V47.6669C256.427 46.9188 256.427 46.2306 256.487 45.9613C257.267 45.9613 258.886 46.081 259.936 46.2306C259.876 45.9314 259.846 45.6621 259.846 45.3928C259.846 45.1235 259.876 44.8242 259.936 44.5549C258.287 44.6148 257.417 44.6447 255.018 44.6447" fill="#2E6276"/>
<path d="M273.041 44.5549C272.621 44.5849 272.081 44.6447 271.451 44.6447C270.822 44.6447 270.282 44.5849 269.862 44.5549C269.982 46.2306 270.012 47.7267 270.012 49.8812C269.262 49.8812 268.453 49.9111 267.103 49.9111C265.754 49.9111 264.794 49.9111 264.134 49.8812C264.134 47.7267 264.194 46.2306 264.284 44.5549C263.864 44.5849 263.325 44.6447 262.695 44.6447C262.065 44.6447 261.525 44.5849 261.106 44.5549C261.226 46.2605 261.256 47.7567 261.256 49.9111V52.5443C261.256 54.6987 261.226 56.1949 261.106 57.9005C261.525 57.8706 262.065 57.8107 262.695 57.8107C263.325 57.8107 263.864 57.8706 264.284 57.9005C264.164 56.1949 264.134 54.7287 264.134 52.5443V51.4372C265.124 51.4072 266.114 51.3474 267.073 51.3474C268.033 51.3474 269.022 51.4072 270.012 51.4372V52.5443C270.012 54.6987 269.982 56.1949 269.862 57.9005C270.282 57.8706 270.822 57.8107 271.451 57.8107C272.081 57.8107 272.621 57.8706 273.041 57.9005C272.921 56.1949 272.891 54.7287 272.891 52.5443V49.9111C272.891 47.7567 272.921 46.2605 273.041 44.5549Z" fill="#2E6276"/>
<path d="M49.99 0.598362C48.7005 0.598362 47.471 0.418825 46.3315 0.179443C39.3443 13.3155 30.5878 28.606 21.9812 42.7595C19.5522 28.5761 16.4934 12.8068 15.1439 0.179443C12.625 0.448748 10.046 0.598362 7.58697 0.598362C5.12795 0.598362 2.57897 0.448748 0 0.179443C2.9988 13.1659 9.17633 44.1958 11.6353 58.7083C12.8649 58.5288 14.1843 58.2894 15.4438 58.2894C16.7033 58.2894 17.8729 58.5288 19.1024 58.7083C29.5382 39.2885 45.6118 13.4951 53.7985 0.179443C52.569 0.448748 51.2495 0.598362 49.99 0.598362Z" fill="#2E6276"/>
<path d="M98.1208 27.5887C94.7021 45.2431 84.926 53.8908 72.1811 53.8908C68.7025 53.8908 66.4234 53.7411 64.7441 53.6514C64.984 52.0355 66.9932 41.6823 67.8928 37.1041L70.8317 21.9931C71.7313 17.4149 73.7405 7.06167 74.1303 5.44585C76.8293 5.20646 78.9584 5.02693 83.0368 5.02693C94.7621 5.02693 100.82 13.6746 98.1208 27.5887ZM84.1463 0.179443C76.6793 0.179443 72.421 0.598362 68.6725 0.598362C65.8836 0.598362 63.6345 0.329057 61.7753 0.179443C60.8157 7.63021 59.7361 14.1833 57.8768 23.6688L55.6277 35.219C53.7685 44.7045 52.3291 51.2576 50.3798 58.7083C52.2991 58.5288 54.6381 58.2894 57.427 58.2894C61.8353 58.2894 67.563 58.7083 76.0496 58.7083C92.0332 58.7083 107.867 46.4101 111.495 27.7383C115.694 6.37345 103.549 0.179443 84.1463 0.179443Z" fill="#2E6276"/>
<path d="M180.318 0.179443C178.399 0.35898 176.06 0.598362 173.271 0.598362C170.482 0.598362 168.203 0.329057 166.373 0.179443C165.444 7.57036 164.334 14.0935 162.505 23.4893C159.266 23.579 155.668 23.6688 149.64 23.6688C143.613 23.6688 139.534 23.579 136.655 23.4893C138.485 14.0636 139.924 7.54044 141.873 0.179443C139.984 0.35898 137.615 0.598362 134.826 0.598362C132.037 0.598362 129.788 0.329057 127.959 0.179443C126.999 7.63021 125.92 14.1833 124.06 23.6688L121.811 35.219C119.952 44.7045 118.513 51.2576 116.563 58.7083C118.483 58.5288 120.822 58.2894 123.611 58.2894C126.399 58.2894 128.649 58.5288 130.508 58.7083C131.467 51.2576 132.547 44.7045 134.406 35.219L135.336 30.3715C139.714 30.1919 144.062 30.0423 148.321 30.0423C152.579 30.0423 156.867 30.2817 161.186 30.3715L160.256 35.219C158.397 44.7045 156.957 51.2576 155.008 58.7083C156.927 58.5288 159.266 58.2894 162.055 58.2894C164.844 58.2894 167.093 58.5288 168.952 58.7083C169.912 51.2576 170.992 44.7045 172.851 35.219L175.1 23.6688C176.959 14.1534 178.399 7.63021 180.348 0.179443" fill="#2E6276"/>
<path d="M25.1899 0.0898438L19.3123 9.75489L20.4218 16.0686L30.078 0.0898438H25.1899Z" fill="#2E6276"/>
<path d="M37.3051 0L22.0412 25.1949L23.1208 31.4787L42.1931 0H37.3051Z" fill="#2E6276"/>
</g>
</svg>
