<svg width="281" height="196" viewBox="0 0 281 196" fill="none" xmlns="http://www.w3.org/2000/svg">
<g clip-path="url(#clip0_433_3759)">
<path opacity="0.2" d="M83.822 26.9955L146.919 110.52L22.2071 156.559L83.822 26.9955ZM243.844 175.454L243.845 175.45L244.03 175.464L243.853 175.344L252.006 67.5961L252.014 67.4886L252.039 67.4784L252.015 67.4725L252.022 67.3841L252.054 66.9637L251.645 66.8613L83.8592 24.8253L83.8579 24.8249L83.6601 24.7748L83.2621 24.674L83.0858 25.0448L19.8999 157.912L19.5875 158.569L20.3128 158.625L243.056 175.896L243.307 175.915L243.807 175.954L243.844 175.454ZM250.415 68.7076L242.463 173.796L149.7 111.03L250.415 68.7076ZM24.2198 157.419L148.027 111.714L240.341 174.175L24.2198 157.419ZM85.5597 26.801L248.884 67.7191L148.376 109.955L85.5597 26.801Z" fill="#07648D" stroke="#07648D"/>
<path d="M279.976 69.8047C279.774 74.9198 278.343 79.9098 275.804 84.3484C273.265 88.787 269.694 92.5421 265.396 95.293C261.098 98.0439 256.2 99.7086 251.122 100.145C246.044 100.581 240.937 99.7765 236.236 97.799C234.031 96.8709 231.94 95.6909 230.004 94.2825C226.303 91.5991 223.223 88.1447 220.974 84.1555V84.152C218.577 79.8852 217.197 75.1182 216.943 70.2253C216.689 65.3325 217.568 60.4472 219.511 55.9532C221.454 51.4592 224.408 47.479 228.141 44.3253C231.874 41.1715 236.285 38.9301 241.026 37.7772C245.767 36.6244 250.709 36.5914 255.465 37.6808C260.221 38.7703 264.661 40.9526 268.435 44.0562C272.21 47.1599 275.216 51.1003 277.219 55.5679C279.221 60.0356 280.165 64.9087 279.976 69.8045L279.976 69.8047Z" fill="white"/>
<path opacity="0.09" d="M279.976 69.8047C279.774 74.9198 278.343 79.9098 275.804 84.3484C273.265 88.787 269.694 92.5421 265.396 95.293C261.098 98.0439 256.2 99.7086 251.122 100.145C246.044 100.581 240.937 99.7765 236.236 97.799C234.031 96.8709 231.94 95.6909 230.004 94.2825C226.303 91.5991 223.223 88.1447 220.974 84.1555V84.152C218.577 79.8852 217.197 75.1182 216.943 70.2253C216.689 65.3325 217.568 60.4472 219.511 55.9532C221.454 51.4592 224.408 47.479 228.141 44.3253C231.874 41.1715 236.285 38.9301 241.026 37.7772C245.767 36.6244 250.709 36.5914 255.465 37.6808C260.221 38.7703 264.661 40.9526 268.435 44.0562C272.21 47.1599 275.216 51.1003 277.219 55.5679C279.221 60.0356 280.165 64.9087 279.976 69.8045L279.976 69.8047Z" fill="#28A0CB"/>
<path d="M255.909 44.4436C255.909 44.4436 263.452 44.5364 260.852 54.9768L260.143 55.0116L258.705 55.0819" fill="#0C0C0C"/>
<path d="M247.487 65.9305C247.522 65.9272 247.662 72.4393 255.198 72.1657C260.415 71.9771 262.484 66.5056 262.604 66.5102C262.047 66.3687 261.109 66.1572 260.866 66.0144C260.064 65.5406 259.068 65.0411 258.865 63.4329C258.749 62.506 259.189 57.8048 259.145 56.8701L251.091 58.349C251.126 60.3213 251.731 64.9135 248.963 65.6143C248.502 65.7303 248.007 65.8339 247.487 65.9305Z" fill="#B78557"/>
<path d="M250.767 63.8174C250.908 63.4174 251.005 63.0031 251.056 62.5819C251.181 61.6211 251.201 60.6495 251.115 59.6844C252.747 59.5277 254.302 58.9144 255.604 57.9143C255.731 58.469 256.453 60.9053 256.206 61.4192C255.742 62.391 253.674 63.9309 250.767 63.8174Z" fill="#0C0C0C"/>
<path d="M252.596 62.6669C255.753 62.4399 259.562 60.5092 259.694 56.2118L259.814 52.3349C259.946 48.0382 257.805 44.4852 253.779 44.3601C249.751 44.234 246.633 47.6245 246.501 51.9211L246.448 53.6375C246.44 54.2274 246.472 54.8171 246.544 55.4026C246.723 56.9508 247 59.3049 248.015 60.9124C248.973 62.4299 250.578 62.8114 252.596 62.6669Z" fill="#B78557"/>
<path d="M259.404 57.5138C260.628 57.5516 261.661 56.2671 261.699 55.0379C261.737 53.8087 260.765 53.0996 259.541 53.0615L258.885 53.8656L258.351 57.481L259.404 57.5138Z" fill="#B78557"/>
<path d="M246.708 56.7001C246.929 56.9635 247.212 57.1671 247.532 57.2924C247.851 57.4178 248.197 57.4609 248.537 57.4178C249.265 57.3257 249.748 57.6258 250.356 57.5655C250.866 57.5151 250.954 57.2783 251.825 57.2266C255.186 57.0267 257.708 56.8139 257.871 52.578L260.01 50.6699C260.01 50.6699 260.966 62.4081 254.645 63.9684C250.76 64.9266 247.117 64.5764 246.649 60.9124C246.268 57.9352 246.708 56.7001 246.708 56.7001Z" fill="#0C0C0C"/>
<path d="M248.3 54.2487C248.574 54.2487 248.796 54.0255 248.796 53.7502C248.796 53.4749 248.574 53.2517 248.3 53.2517C248.026 53.2517 247.804 53.4749 247.804 53.7502C247.804 54.0255 248.026 54.2487 248.3 54.2487Z" fill="#0C0C0C"/>
<path d="M252.734 54.1559C253.008 54.1559 253.231 53.9328 253.231 53.6574C253.231 53.3821 253.008 53.1589 252.734 53.1589C252.46 53.1589 252.238 53.3821 252.238 53.6574C252.238 53.9328 252.46 54.1559 252.734 54.1559Z" fill="#0C0C0C"/>
<path d="M258.222 55.5154C258.222 55.5154 257.919 49.4269 256.089 49.0176C254.871 48.7451 251.875 50.433 249.137 49.8566C247.94 49.6044 246.794 49.8818 246.668 50.4501C246.617 50.675 245.67 48.6803 247.596 46.253C249.13 44.3206 254.117 43.7769 256.336 44.4602C262.48 46.3529 259.789 53.3342 259.789 53.3342L259.475 55.4256L258.222 55.5154Z" fill="#0C0C0C"/>
<path d="M261.014 50.606C262.822 50.606 264.288 49.1336 264.288 47.3174C264.288 45.5012 262.822 44.0288 261.014 44.0288C259.205 44.0288 257.739 45.5012 257.739 47.3174C257.739 49.1336 259.205 50.606 261.014 50.606Z" fill="#0C0C0C"/>
<path d="M250.416 57.3699H250.408C250.013 57.3585 249.353 57.2955 249.361 56.9992C249.368 56.7536 250.112 54.1217 250.197 53.8221C250.204 53.7963 250.221 53.7746 250.245 53.7615C250.268 53.7485 250.295 53.7453 250.321 53.7526C250.347 53.76 250.368 53.7772 250.381 53.8006C250.394 53.824 250.397 53.8516 250.39 53.8773C250.06 55.043 249.567 56.8378 249.562 57.004C249.599 57.0751 250.005 57.1553 250.413 57.1672C250.44 57.1669 250.466 57.1772 250.485 57.1959C250.504 57.2146 250.515 57.2401 250.515 57.2669C250.515 57.2936 250.505 57.3194 250.486 57.3385C250.468 57.3577 250.442 57.3686 250.416 57.3689V57.3699Z" fill="#0C0C0C"/>
<path d="M249.215 52.0565C248.807 51.9353 248.375 51.9266 247.963 52.0313C247.76 52.0814 247.566 52.1618 247.387 52.2699C247.21 52.3758 247.046 52.5038 246.901 52.6509C246.876 52.6735 246.861 52.7053 246.859 52.7393C246.857 52.7732 246.869 52.8065 246.891 52.8318C246.914 52.8571 246.945 52.8724 246.979 52.8742C247.013 52.8761 247.046 52.8644 247.071 52.8417L247.079 52.8352C247.215 52.7124 247.365 52.6073 247.526 52.5223C247.686 52.4376 247.856 52.3776 248.033 52.3442C248.383 52.2757 248.744 52.301 249.08 52.4176L249.093 52.4224C249.116 52.4317 249.142 52.436 249.167 52.4353C249.193 52.4346 249.218 52.4288 249.241 52.4183C249.264 52.4078 249.285 52.3927 249.302 52.374C249.32 52.3552 249.333 52.3332 249.342 52.3092C249.351 52.2852 249.355 52.2597 249.354 52.2341C249.352 52.2086 249.346 52.1835 249.335 52.1604C249.324 52.1373 249.309 52.1166 249.29 52.0995C249.271 52.0824 249.249 52.0692 249.225 52.0608L249.215 52.0565Z" fill="#0C0C0C"/>
<path d="M252.139 52.4182C252.462 52.2691 252.819 52.2086 253.174 52.243C253.353 52.2588 253.529 52.3019 253.695 52.3708C253.864 52.4396 254.024 52.5295 254.171 52.6384L254.179 52.6439C254.206 52.6618 254.239 52.6685 254.271 52.6626C254.303 52.6568 254.332 52.6388 254.351 52.6124C254.37 52.586 254.379 52.5531 254.375 52.5206C254.371 52.4881 254.355 52.4584 254.329 52.4376C254.17 52.3055 253.996 52.194 253.809 52.1058C253.62 52.0158 253.419 51.9547 253.213 51.9245C252.792 51.8609 252.363 51.912 251.969 52.0725C251.923 52.0926 251.886 52.1302 251.867 52.1771C251.848 52.224 251.849 52.2765 251.868 52.3233C251.887 52.37 251.924 52.4072 251.971 52.4269C252.017 52.4466 252.069 52.4471 252.116 52.4283L252.125 52.4243L252.139 52.4182Z" fill="#0C0C0C"/>
<path d="M272.246 82.1911C271.965 84.3201 271.692 87.2443 271.447 90.2678C270.491 91.2898 269.468 92.2473 268.387 93.1338C267.699 93.6949 266.989 94.2283 266.257 94.734C262.3 97.4473 257.78 99.2214 253.04 99.9224C248.299 100.623 243.462 100.233 238.894 98.78C238.832 95.9715 238.747 92.1832 238.663 88.7126C238.566 84.7091 238.468 81.1245 238.416 79.9467C238.2 75.2723 236.966 72.1535 237.899 69.6032C238.177 68.8483 238.626 68.1681 239.209 67.6155C241.382 65.4795 246.779 65.5281 248.944 65.6126C248.981 65.6141 248.312 70.6322 255.435 70.5717C260.67 70.5286 261.063 66.0849 261.063 66.0849C261.063 66.0849 263.642 66.3544 265.356 66.6532C268.158 67.1462 269.98 68.1785 271.397 69.7202C272.72 71.1577 273.5 72.6837 272.246 82.1911Z" fill="#07648D"/>
<path d="M230.373 66.1073L230.589 60.7529C230.593 60.6351 230.574 60.5176 230.531 60.4079C230.488 60.2982 230.423 60.1986 230.34 60.1156C230.257 60.0325 230.157 59.9678 230.047 59.9256C229.938 59.8834 229.821 59.8646 229.704 59.8703C229.488 59.8879 229.286 59.9853 229.138 60.1437C228.989 60.3021 228.905 60.5102 228.9 60.7277L228.854 61.876L227.349 58.1988C227.188 57.7871 226.729 57.3846 226.281 57.5957C226.104 57.6655 225.955 57.7938 225.859 57.9596C225.763 58.1254 225.726 58.3189 225.754 58.5085C225.75 58.509 225.746 58.5099 225.742 58.5112C225.739 58.5128 225.736 58.5147 225.734 58.5168L225.487 57.8819C225.441 57.7643 225.369 57.6584 225.278 57.572C225.186 57.4856 225.076 57.4208 224.956 57.3825C224.837 57.3441 224.71 57.333 224.585 57.3501C224.461 57.3672 224.341 57.412 224.236 57.4812C224.073 57.5935 223.953 57.7588 223.896 57.9495C223.84 58.1401 223.85 58.3445 223.925 58.5284L224.03 58.7984C224.024 58.8052 224.019 58.8129 224.015 58.8214C223.902 58.6556 223.734 58.5355 223.541 58.4828C223.347 58.43 223.142 58.4478 222.961 58.5332C222.765 58.6327 222.614 58.8026 222.538 59.009C222.461 59.2155 222.465 59.4432 222.548 59.6469L222.81 60.3182C222.799 60.3113 222.787 60.3069 222.775 60.3055C222.763 60.3041 222.75 60.3057 222.739 60.3101C222.725 60.3161 222.714 60.3259 222.706 60.3383C222.564 60.2186 222.387 60.1489 222.202 60.14C222.017 60.1312 221.834 60.1836 221.682 60.2892C221.524 60.4034 221.409 60.5678 221.356 60.7558C221.303 60.9437 221.314 61.1442 221.389 61.3248L223.592 66.9878C223.9 67.7801 224.437 68.4618 225.134 68.9457C225.83 69.4295 226.655 69.6934 227.501 69.7035C228.232 69.7122 228.936 69.4346 229.466 68.9297C229.996 68.4248 230.309 67.7323 230.338 66.9994L230.373 66.1073Z" fill="#B78557"/>
<g opacity="0.2">
<path d="M227.226 62.1558C227.207 62.1632 227.185 62.1628 227.167 62.1547C227.148 62.1466 227.133 62.1314 227.125 62.1124L225.699 58.6133C225.694 58.6036 225.692 58.5932 225.691 58.5826C225.691 58.5719 225.693 58.5613 225.696 58.5514C225.7 58.5415 225.706 58.5325 225.714 58.5249C225.721 58.5173 225.73 58.5113 225.74 58.5073C225.75 58.5033 225.76 58.5013 225.771 58.5015C225.781 58.5017 225.792 58.504 225.801 58.5084C225.811 58.5128 225.82 58.5191 225.827 58.5269C225.834 58.5347 225.839 58.544 225.843 58.554L227.27 62.0531C227.274 62.0626 227.276 62.0728 227.275 62.0831C227.275 62.0934 227.273 62.1036 227.269 62.1131C227.265 62.1226 227.26 62.1312 227.252 62.1384C227.245 62.1457 227.236 62.1514 227.227 62.1553L227.226 62.1558Z" fill="#0C0C0C"/>
</g>
<g opacity="0.2">
<path d="M225.707 62.8307C225.688 62.8381 225.666 62.8377 225.648 62.8296C225.629 62.8214 225.614 62.8061 225.606 62.787L224.014 58.8819C224.007 58.8629 224.007 58.8416 224.015 58.8227C224.023 58.8039 224.038 58.7889 224.057 58.7811C224.076 58.7743 224.097 58.7749 224.115 58.7827C224.134 58.7906 224.149 58.8053 224.157 58.8237L225.749 62.7288C225.757 62.748 225.757 62.7696 225.749 62.7887C225.741 62.8079 225.726 62.823 225.707 62.8309V62.8307Z" fill="#0C0C0C"/>
</g>
<g opacity="0.2">
<path d="M224.066 63.5707C224.047 63.5782 224.025 63.5778 224.006 63.5696C223.988 63.5615 223.973 63.5462 223.965 63.5271L222.695 60.4123C222.687 60.3931 222.687 60.3715 222.695 60.3524C222.703 60.3333 222.719 60.3181 222.738 60.3103C222.757 60.3024 222.778 60.3025 222.797 60.3105C222.816 60.3185 222.831 60.3338 222.839 60.353L224.11 63.4671C224.118 63.4863 224.118 63.5079 224.11 63.527C224.102 63.5462 224.086 63.5613 224.067 63.5692L224.066 63.5707Z" fill="#0C0C0C"/>
</g>
<path d="M248.02 74.5021L235.046 94.5371C234.574 95.2654 233.942 95.8752 233.198 96.3198C232.093 95.7074 231.026 95.027 230.003 94.2827C227.824 92.7035 225.855 90.851 224.144 88.7701L221.419 67.548L232.325 65.7927L233.569 76.0079L238.551 68.314L248.02 74.5021Z" fill="#07648D"/>
<path d="M249.541 58.463C250.731 58.5424 251.914 58.2211 252.902 57.55C252.936 57.5269 252.976 57.514 253.017 57.513C253.059 57.512 253.099 57.5227 253.135 57.5441C253.17 57.5654 253.199 57.5965 253.217 57.6335C253.236 57.6706 253.243 57.7122 253.239 57.7535C253.159 58.4595 252.812 59.7581 251.337 59.9235C250.385 60.0301 249.695 59.2956 249.347 58.8072C249.323 58.7734 249.309 58.7334 249.307 58.6919C249.305 58.6505 249.315 58.6092 249.335 58.5731C249.355 58.5369 249.386 58.5074 249.422 58.4879C249.459 58.4684 249.5 58.4597 249.541 58.463Z" fill="white"/>
<path d="M275.764 84.4429C273.847 87.763 271.347 90.7074 268.386 93.1338C267.699 93.695 266.989 94.2283 266.257 94.734L261.19 75.3709L272.602 72.356L275.764 84.4429Z" fill="#07648D"/>
<path d="M266.368 94.6584C266.332 94.6821 266.293 94.7088 266.257 94.734C266.221 94.7592 266.185 94.7844 266.149 94.8079L262.286 80.057L262.53 79.9932L266.368 94.6584Z" fill="#0C0C0C"/>
<path d="M238.693 89.6246C238.662 89.6233 238.632 89.6102 238.61 89.5879C238.588 89.5657 238.575 89.5358 238.573 89.5043L238.324 84.0074C238.323 83.9739 238.334 83.9413 238.357 83.9166C238.379 83.8918 238.411 83.8771 238.444 83.8756C238.477 83.8741 238.51 83.8859 238.534 83.9085C238.559 83.9311 238.574 83.9626 238.575 83.996L238.824 89.4929C238.825 89.5263 238.814 89.5589 238.791 89.5836C238.769 89.6083 238.738 89.623 238.704 89.6246H238.693Z" fill="#0C0C0C"/>
<path d="M144.834 140.491C162.597 140.491 176.997 126.027 176.997 108.186C176.997 90.3448 162.597 75.8816 144.834 75.8816C127.071 75.8816 112.671 90.3448 112.671 108.186C112.671 126.027 127.071 140.491 144.834 140.491Z" fill="white"/>
<path opacity="0.09" d="M176.998 108.185C176.998 114.574 175.111 120.82 171.577 126.132C168.043 131.445 163.02 135.585 157.143 138.03C151.266 140.475 144.799 141.115 138.56 139.869C132.322 138.622 126.591 135.546 122.093 131.028C117.595 126.51 114.532 120.754 113.291 114.488C112.05 108.221 112.687 101.726 115.121 95.8231C117.555 89.9203 121.677 84.8751 126.967 81.3255C132.256 77.7759 138.474 75.8813 144.835 75.8813C149.063 75.8656 153.252 76.6905 157.162 78.3083C161.071 79.9262 164.623 82.3051 167.612 85.3079C170.602 88.3108 172.97 91.8782 174.581 95.8046C176.192 99.731 177.013 103.939 176.998 108.185Z" fill="#28A0CB"/>
<path d="M130.597 89.1323C130.597 89.1323 130.274 94.0089 129.182 95.7783C126.037 100.872 125.126 106.602 128.275 109.596C131.424 112.591 151.511 112.632 153.032 105.746C154.313 99.9489 151.564 99.3256 150.895 94.5435C150.593 92.3798 149.76 87.8425 149.76 87.8425" fill="#0A0A0A"/>
<path d="M147.833 104.735C147.798 104.731 147.414 111.143 139.997 110.585C134.862 110.199 133.032 104.727 132.914 104.727C133.468 104.609 134.4 104.437 134.646 104.306C135.455 103.869 136.455 103.415 136.716 101.838C136.866 100.93 136.611 96.2792 136.691 95.3596L144.572 97.1264C144.462 99.068 143.691 103.571 146.393 104.368C146.841 104.499 147.325 104.62 147.833 104.735Z" fill="#BB6751"/>
<path opacity="0.5" d="M144.681 102.527C144.558 102.128 144.478 101.716 144.444 101.299C144.357 100.347 144.375 99.3888 144.496 98.441C142.894 98.224 141.385 97.5601 140.14 96.5247C139.993 97.0675 139.188 99.4395 139.412 99.9557C139.834 100.93 141.812 102.527 144.681 102.527Z" fill="#0C0C0C"/>
<path d="M143.662 100.53C140.555 100.832 136.534 99.583 135.701 95.4268L134.95 91.6766C134.117 87.5203 135.615 83.7116 139.511 82.9241C143.407 82.1364 146.995 84.9161 147.828 89.0733L148.161 90.7335C148.48 92.3284 149.206 99.9908 143.662 100.53Z" fill="#BB6751"/>
<path opacity="0.1" d="M141.687 95.0842C142.198 95.0229 142.576 94.6678 142.531 94.2909C142.487 93.9141 142.036 93.6583 141.524 93.7196C141.013 93.7809 140.635 94.136 140.68 94.5128C140.724 94.8897 141.175 95.1454 141.687 95.0842Z" fill="#0C0C0C"/>
<path opacity="0.1" d="M147.09 93.577C147.136 93.9529 147.587 94.2074 148.098 94.1479C148.186 94.1372 148.273 94.1175 148.358 94.0888C148.381 93.6403 148.383 93.2086 148.37 92.8092C148.228 92.7736 148.08 92.765 147.935 92.784C147.424 92.8442 147.046 93.1993 147.09 93.577Z" fill="#0C0C0C"/>
<path opacity="0.5" d="M144.831 94.7396H144.838C144.996 94.7062 145.152 94.6641 145.305 94.6135C145.534 94.5379 145.832 94.4105 145.792 94.2028C145.744 93.9657 144.587 91.5413 144.454 91.2654C144.442 91.2428 144.421 91.2258 144.397 91.2179C144.372 91.2101 144.346 91.2119 144.323 91.2231C144.3 91.2343 144.282 91.2539 144.272 91.278C144.263 91.3021 144.264 91.3289 144.274 91.3527C144.767 92.3865 145.563 94.083 145.595 94.2424C145.57 94.3167 145.19 94.462 144.798 94.5414C144.774 94.5471 144.752 94.5622 144.738 94.5834C144.723 94.6047 144.718 94.6306 144.722 94.6559C144.726 94.6812 144.739 94.7039 144.76 94.7196C144.78 94.7352 144.805 94.7426 144.831 94.7401V94.7396Z" fill="#0C0C0C"/>
<path d="M131.841 93.0228L135.334 92.3374C137.973 91.2279 138.721 86.6105 138.721 86.6105C138.721 86.6105 141.977 89.7254 149.76 87.8418C149.76 87.8418 148.069 76.9296 136.578 80.2419C132.872 81.3098 130.248 85.1034 130.638 90.1278C130.912 93.6496 131.841 93.0228 131.841 93.0228Z" fill="#0A0A0A"/>
<path d="M136.197 96.6442C135.013 96.8835 133.798 95.8053 133.561 94.6158C133.324 93.4264 134.151 92.5767 135.335 92.3374L136.105 93.0109L137.216 96.4384L136.197 96.6442Z" fill="#BB6751"/>
<path d="M145.294 89.332C145.59 89.1213 145.937 88.9934 146.298 88.9613C146.48 88.9439 146.663 88.9541 146.841 88.9914C147.021 89.0281 147.196 89.0874 147.361 89.1679L147.367 89.1701C147.385 89.1775 147.405 89.1776 147.424 89.1704C147.442 89.1632 147.457 89.1493 147.465 89.1314C147.473 89.1136 147.475 89.0932 147.468 89.0745C147.462 89.0557 147.449 89.0401 147.432 89.0307C147.257 88.9378 147.071 88.8675 146.878 88.8214C146.684 88.7739 146.484 88.7561 146.285 88.7684C145.881 88.7909 145.491 88.9215 145.155 89.1467C145.142 89.155 145.131 89.1659 145.122 89.1786C145.113 89.1914 145.107 89.2058 145.104 89.221C145.101 89.2362 145.101 89.2519 145.104 89.2671C145.107 89.2823 145.113 89.2967 145.122 89.3096C145.13 89.3224 145.141 89.3333 145.154 89.3417C145.167 89.3501 145.182 89.3558 145.197 89.3584C145.212 89.361 145.228 89.3606 145.243 89.357C145.258 89.3535 145.272 89.347 145.285 89.3378L145.287 89.336L145.294 89.332Z" fill="#0C0C0C"/>
<path d="M142.103 89.7748C141.707 89.6956 141.296 89.7247 140.914 89.8592C140.726 89.9245 140.548 90.018 140.387 90.1366C140.227 90.2534 140.082 90.39 139.955 90.5431C139.942 90.5583 139.936 90.578 139.937 90.5979C139.938 90.6178 139.947 90.6365 139.962 90.65C139.977 90.6634 139.996 90.6706 140.016 90.6701C140.036 90.6695 140.055 90.6612 140.069 90.647L140.073 90.6427C140.195 90.5046 140.333 90.3825 140.486 90.2793C140.636 90.176 140.802 90.0962 140.976 90.0425C141.322 89.9335 141.691 89.9185 142.045 89.9989L142.054 90.0009C142.069 90.0049 142.084 90.0058 142.099 90.0037C142.114 90.0016 142.129 89.9964 142.142 89.9885C142.155 89.9807 142.167 89.9702 142.176 89.9578C142.185 89.9454 142.192 89.9313 142.195 89.9163C142.199 89.9013 142.199 89.8858 142.197 89.8706C142.195 89.8554 142.189 89.8408 142.181 89.8277C142.173 89.8147 142.162 89.8033 142.15 89.7945C142.137 89.7856 142.123 89.7793 142.108 89.776L142.103 89.7748Z" fill="#0C0C0C"/>
<path d="M135.336 92.28C137.684 91.4022 138.463 89.7736 138.703 88.5615C138.859 87.7532 138.844 86.9212 138.661 86.1189L138.588 86.1391C138.769 86.931 138.783 87.752 138.629 88.5497C138.392 89.7416 137.625 91.3443 135.31 92.2091L135.336 92.28Z" fill="#0C0C0C"/>
<path d="M165.023 103.458L166.429 98.6674C166.46 98.5622 166.512 98.4645 166.583 98.3807C166.653 98.2969 166.74 98.2288 166.839 98.1806C166.937 98.1325 167.044 98.1054 167.153 98.1011C167.262 98.0967 167.371 98.1153 167.473 98.1555C167.658 98.2357 167.807 98.3822 167.891 98.5665C167.975 98.7508 167.988 98.9598 167.927 99.1531L167.626 100.18L170.049 97.387C170.313 97.0715 170.838 96.8542 171.17 97.1752C171.306 97.2902 171.4 97.4481 171.435 97.6232C171.47 97.7983 171.445 97.9802 171.364 98.1391C171.367 98.1409 171.371 98.143 171.374 98.1455C171.376 98.1477 171.378 98.1501 171.379 98.1528L171.787 97.6664C171.862 97.5764 171.957 97.5044 172.063 97.4558C172.17 97.4071 172.286 97.383 172.403 97.3851C172.52 97.3872 172.636 97.4156 172.74 97.4681C172.845 97.5206 172.937 97.5959 173.009 97.6886C173.12 97.8368 173.177 98.0187 173.17 98.2039C173.163 98.3891 173.093 98.5664 172.972 98.706L172.799 98.913C172.802 98.9209 172.805 98.9295 172.805 98.9382C172.954 98.8258 173.139 98.7703 173.325 98.7819C173.511 98.7934 173.688 98.871 173.822 99.001C173.965 99.1475 174.048 99.3428 174.054 99.548C174.06 99.7531 173.989 99.953 173.855 100.108L173.424 100.622C173.435 100.619 173.447 100.618 173.458 100.621C173.469 100.623 173.48 100.628 173.489 100.636C173.499 100.645 173.506 100.657 173.51 100.671C173.671 100.608 173.848 100.6 174.014 100.648C174.18 100.696 174.325 100.797 174.428 100.937C174.533 101.085 174.585 101.265 174.576 101.446C174.567 101.628 174.497 101.802 174.378 101.939L170.747 106.276C170.239 106.882 169.562 107.323 168.803 107.54C168.044 107.758 167.238 107.743 166.488 107.498C165.841 107.286 165.301 106.829 164.984 106.224C164.667 105.62 164.597 104.915 164.79 104.259L165.023 103.458Z" fill="#BB6751"/>
<g opacity="0.2">
<path d="M168.978 100.917C168.992 100.929 169.011 100.935 169.029 100.933C169.048 100.932 169.066 100.923 169.078 100.909L171.379 98.2494C171.392 98.2348 171.398 98.2157 171.397 98.1964C171.395 98.1771 171.386 98.1592 171.372 98.1465C171.357 98.1338 171.338 98.1275 171.319 98.1288C171.3 98.1302 171.282 98.1392 171.269 98.1538L168.968 100.813C168.962 100.82 168.957 100.829 168.954 100.838C168.951 100.847 168.95 100.856 168.951 100.866C168.951 100.876 168.954 100.885 168.958 100.893C168.963 100.902 168.968 100.91 168.976 100.916L168.978 100.917Z" fill="#0C0C0C"/>
</g>
<g opacity="0.2">
<path d="M170.117 101.969C170.132 101.981 170.151 101.986 170.169 101.985C170.188 101.983 170.205 101.974 170.218 101.96L172.786 98.9925C172.792 98.9852 172.797 98.9768 172.8 98.9678C172.803 98.9587 172.804 98.9491 172.803 98.9395C172.803 98.93 172.8 98.9206 172.796 98.9121C172.792 98.9035 172.786 98.8959 172.779 98.8896C172.764 98.8776 172.745 98.8716 172.726 98.873C172.707 98.8744 172.689 98.8829 172.676 98.8969L170.11 101.865C170.104 101.872 170.099 101.88 170.096 101.889C170.093 101.899 170.092 101.908 170.092 101.918C170.093 101.927 170.096 101.937 170.1 101.945C170.104 101.954 170.11 101.961 170.117 101.968L170.117 101.969Z" fill="#0C0C0C"/>
</g>
<g opacity="0.2">
<path d="M171.345 103.115C171.36 103.127 171.378 103.133 171.397 103.131C171.416 103.129 171.433 103.121 171.446 103.107L173.494 100.739C173.506 100.725 173.511 100.706 173.509 100.687C173.507 100.669 173.499 100.652 173.485 100.639C173.471 100.627 173.452 100.621 173.434 100.621C173.415 100.622 173.398 100.63 173.385 100.643L171.336 103.011C171.33 103.018 171.325 103.027 171.322 103.036C171.319 103.045 171.318 103.054 171.318 103.064C171.319 103.073 171.322 103.083 171.326 103.091C171.33 103.1 171.336 103.108 171.343 103.114L171.345 103.115Z" fill="#0C0C0C"/>
</g>
<path d="M173.579 105.55L168.144 130.316C168.131 130.372 168.119 130.43 168.104 130.485C166.883 131.768 165.561 132.949 164.15 134.018C163.866 134.23 163.582 134.439 163.291 134.641C163.111 134.661 162.93 134.671 162.749 134.671C161.78 134.671 160.829 134.414 159.99 133.928C159.151 133.442 158.454 132.742 157.969 131.9L147.611 113.898L157.176 108.348L160.417 113.981L162.792 103.161L173.579 105.55Z" fill="#00BDE3"/>
<path d="M156.852 116.841C156.819 117.234 156.754 117.935 156.664 118.858C156.212 123.576 155.155 134.091 154.665 138.95C148.481 140.936 141.844 141.003 135.621 139.144H135.618C131.022 137.762 126.793 135.363 123.242 132.124C123.262 127.779 123.199 122.893 122.908 119.751C122.037 110.363 122.86 108.893 124.213 107.534C124.324 107.423 124.439 107.315 124.555 107.209C125.953 105.933 127.708 105.101 130.266 104.753C131.958 104.523 134.504 104.357 134.504 104.357C134.504 104.357 134.719 108.739 139.858 108.981C146.855 109.312 146.388 104.357 146.423 104.357C148.183 104.357 152.099 104.468 154.57 105.731C154.572 105.731 154.572 105.731 154.575 105.734C155.072 105.977 155.525 106.303 155.913 106.699C158.742 109.71 157.346 110.998 156.852 116.841Z" fill="#00BDE3"/>
<path d="M145.872 95.559C144.863 96.0745 143.711 96.2376 142.599 96.0224C142.56 96.0151 142.52 96.0189 142.484 96.0335C142.447 96.048 142.416 96.0727 142.393 96.1046C142.37 96.1365 142.356 96.1743 142.354 96.2136C142.352 96.2529 142.361 96.2921 142.38 96.3265C142.712 96.9133 143.498 97.9166 144.847 97.5078C145.718 97.2438 146.047 96.3437 146.169 95.7866C146.178 95.7481 146.175 95.708 146.162 95.6709C146.148 95.6339 146.124 95.6015 146.093 95.5776C146.062 95.5536 146.024 95.5392 145.985 95.5359C145.946 95.5326 145.907 95.5406 145.872 95.559Z" fill="white"/>
<path d="M145.935 91.049C146.205 91.049 146.423 90.8296 146.423 90.559C146.423 90.2884 146.205 90.0691 145.935 90.0691C145.666 90.0691 145.448 90.2884 145.448 90.559C145.448 90.8296 145.666 91.049 145.935 91.049Z" fill="#0C0C0C"/>
<path d="M141.247 91.8732C141.517 91.8732 141.735 91.6538 141.735 91.3832C141.735 91.1127 141.517 90.8933 141.247 90.8933C140.978 90.8933 140.76 91.1127 140.76 91.3832C140.76 91.6538 140.978 91.8732 141.247 91.8732Z" fill="#0C0C0C"/>
<path d="M155.773 127.418C155.77 127.418 155.767 127.418 155.763 127.418C155.744 127.415 155.726 127.404 155.714 127.388C155.702 127.372 155.696 127.352 155.699 127.332L156.562 118.606C156.563 118.596 156.566 118.586 156.571 118.577C156.576 118.569 156.582 118.561 156.59 118.555C156.598 118.549 156.607 118.545 156.617 118.542C156.627 118.54 156.637 118.539 156.647 118.541C156.666 118.544 156.684 118.554 156.696 118.57C156.708 118.586 156.714 118.606 156.711 118.626L155.849 127.353C155.846 127.371 155.837 127.388 155.823 127.4C155.809 127.411 155.791 127.418 155.773 127.418Z" fill="#0C0C0C"/>
<path d="M150.553 126.997L155.267 124.883C155.37 124.837 155.482 124.813 155.595 124.812C155.709 124.812 155.821 124.835 155.925 124.88C156.029 124.926 156.122 124.992 156.199 125.076C156.276 125.16 156.334 125.258 156.371 125.366C156.433 125.567 156.419 125.784 156.331 125.974C156.243 126.165 156.087 126.316 155.894 126.398L154.884 126.852L158.714 126.892C159.14 126.889 159.664 127.159 159.636 127.639C159.637 127.824 159.576 128.005 159.462 128.151C159.348 128.296 159.188 128.399 159.008 128.442C159.009 128.446 159.01 128.45 159.01 128.454C159.01 128.457 159.009 128.461 159.008 128.464L159.665 128.459C159.787 128.458 159.907 128.485 160.017 128.536C160.127 128.588 160.224 128.664 160.301 128.758C160.379 128.852 160.434 128.963 160.463 129.081C160.493 129.199 160.496 129.323 160.472 129.442C160.43 129.63 160.325 129.798 160.174 129.917C160.024 130.036 159.838 130.1 159.646 130.098L159.367 130.1C159.363 130.108 159.358 130.116 159.352 130.122C159.541 130.165 159.709 130.273 159.825 130.429C159.942 130.585 160 130.777 159.988 130.971C159.969 131.183 159.871 131.381 159.714 131.524C159.557 131.667 159.352 131.745 159.14 131.743L158.445 131.747C158.455 131.754 158.463 131.763 158.469 131.774C158.475 131.785 158.478 131.797 158.478 131.809C158.477 131.823 158.473 131.837 158.465 131.848C158.623 131.934 158.749 132.069 158.823 132.233C158.897 132.397 158.916 132.581 158.875 132.756C158.83 132.94 158.724 133.102 158.575 133.218C158.426 133.333 158.242 133.395 158.054 133.392L152.198 133.434C151.378 133.44 150.576 133.2 149.893 132.745C149.211 132.29 148.679 131.64 148.366 130.879C148.096 130.224 148.092 129.488 148.354 128.829C148.615 128.169 149.123 127.639 149.768 127.349L150.553 126.997Z" fill="#BB6751"/>
<g opacity="0.2">
<path d="M155.217 128.422C155.217 128.442 155.225 128.461 155.239 128.475C155.253 128.489 155.272 128.497 155.292 128.497L158.935 128.53C158.955 128.53 158.974 128.523 158.988 128.509C159.002 128.494 159.01 128.475 159.011 128.455C159.011 128.435 159.003 128.416 158.989 128.402C158.975 128.387 158.956 128.379 158.936 128.379L155.293 128.346C155.273 128.346 155.254 128.354 155.24 128.368C155.226 128.382 155.218 128.402 155.218 128.422H155.217Z" fill="#0C0C0C"/>
</g>
<g opacity="0.2">
<path d="M155.158 130.035C155.158 130.055 155.166 130.075 155.181 130.089C155.195 130.103 155.214 130.111 155.234 130.111L159.298 130.148C159.318 130.148 159.337 130.14 159.351 130.126C159.366 130.111 159.374 130.092 159.374 130.072C159.373 130.052 159.365 130.033 159.351 130.019C159.337 130.005 159.318 129.997 159.298 129.997L155.234 129.96C155.214 129.96 155.194 129.968 155.18 129.982C155.166 129.996 155.158 130.015 155.158 130.035H155.158Z" fill="#0C0C0C"/>
</g>
<g opacity="0.2">
<path d="M155.085 131.781C155.085 131.801 155.093 131.82 155.107 131.834C155.121 131.849 155.14 131.857 155.16 131.857L158.402 131.886C158.422 131.886 158.441 131.878 158.456 131.864C158.47 131.85 158.478 131.831 158.478 131.81C158.478 131.79 158.47 131.771 158.456 131.757C158.441 131.743 158.422 131.735 158.402 131.735L155.16 131.706C155.14 131.706 155.121 131.714 155.107 131.728C155.093 131.742 155.085 131.761 155.085 131.781V131.781Z" fill="#0C0C0C"/>
</g>
<path d="M151.904 135.427L135.621 139.144H135.618C131.022 137.762 126.793 135.364 123.242 132.124C122.86 131.776 122.487 131.42 122.122 131.055C121.486 130.417 120.878 129.754 120.297 129.065L122.576 110.648C122.825 109.164 123.651 107.839 124.872 106.966C126.093 106.093 127.609 105.742 129.087 105.992C130.565 106.242 131.884 107.071 132.753 108.298C133.623 109.524 133.971 111.047 133.723 112.532L132.282 129.824L150.438 125.696L151.904 135.427Z" fill="#00BDE3"/>
<path d="M128.609 130.504C128.599 130.504 128.589 130.503 128.58 130.5C128.57 130.497 128.562 130.492 128.554 130.486C128.547 130.479 128.541 130.471 128.536 130.462C128.532 130.453 128.529 130.444 128.528 130.434C128.527 130.424 128.529 130.414 128.532 130.404C128.535 130.395 128.54 130.386 128.546 130.379C128.553 130.371 128.561 130.365 128.569 130.36C128.578 130.356 128.588 130.353 128.598 130.352L132.238 129.571C132.248 129.569 132.258 129.57 132.267 129.572C132.277 129.574 132.286 129.579 132.294 129.585C132.302 129.59 132.309 129.598 132.314 129.606C132.319 129.615 132.322 129.624 132.324 129.634C132.325 129.644 132.325 129.654 132.322 129.664C132.32 129.673 132.316 129.682 132.31 129.69C132.304 129.698 132.297 129.705 132.288 129.71C132.28 129.715 132.27 129.719 132.26 129.72L128.619 130.502C128.616 130.503 128.612 130.503 128.609 130.504Z" fill="#0C0C0C"/>
<path d="M151.904 135.427C151.908 135.447 151.904 135.467 151.894 135.484C151.884 135.501 151.867 135.513 151.848 135.518L136.03 139.262C135.93 139.235 135.832 139.207 135.734 139.177L151.738 135.392L150.312 125.81L132.264 129.721C132.253 129.723 132.241 129.722 132.229 129.718C132.218 129.715 132.208 129.709 132.199 129.701C132.191 129.692 132.186 129.681 132.182 129.67C132.179 129.659 132.178 129.647 132.179 129.635L133.191 119.753C133.192 119.744 133.196 119.734 133.201 119.726C133.207 119.718 133.214 119.71 133.222 119.705C133.23 119.699 133.239 119.695 133.249 119.693C133.259 119.691 133.269 119.691 133.278 119.693C133.298 119.696 133.316 119.707 133.327 119.723C133.339 119.739 133.344 119.759 133.341 119.779L132.345 129.56L150.345 125.641C150.354 125.638 150.365 125.638 150.375 125.64C150.385 125.641 150.394 125.645 150.402 125.651C150.411 125.656 150.419 125.662 150.425 125.67C150.431 125.678 150.435 125.687 150.438 125.696L151.904 135.427Z" fill="#0C0C0C"/>
<path d="M29.4915 177.711C45.7793 177.711 58.9831 164.449 58.9831 148.09C58.9831 131.73 45.7793 118.469 29.4915 118.469C13.2038 118.469 0 131.73 0 148.09C0 164.449 13.2038 177.711 29.4915 177.711Z" fill="white"/>
<path opacity="0.09" d="M29.4915 177.711C45.7793 177.711 58.9831 164.449 58.9831 148.09C58.9831 131.73 45.7793 118.469 29.4915 118.469C13.2038 118.469 0 131.73 0 148.09C0 164.449 13.2038 177.711 29.4915 177.711Z" fill="#28A0CB"/>
<path d="M21.3699 131.289C21.3699 131.289 21.6895 140.21 27.6179 140.62L28.6221 128.856L21.3699 131.289Z" fill="#0A0A0A"/>
<path d="M22.5117 142.442C24.4514 142.442 26.0238 140.863 26.0238 138.915C26.0238 136.967 24.4514 135.387 22.5117 135.387C20.572 135.387 18.9995 136.967 18.9995 138.915C18.9995 140.863 20.572 142.442 22.5117 142.442Z" fill="#0A0A0A"/>
<path d="M36.2537 144.761C36.2223 144.756 35.8754 150.541 29.1845 150.037C24.5524 149.689 22.901 144.753 22.795 144.753C23.3244 144.665 23.8465 144.538 24.3573 144.373C25.0866 143.979 25.9891 143.57 26.2241 142.147C26.3597 141.327 26.13 137.132 26.2005 136.302L33.3107 137.896C33.2102 139.648 32.5159 143.71 34.953 144.429C35.3582 144.548 35.795 144.658 36.2537 144.761Z" fill="#725145"/>
<path opacity="0.5" d="M33.4101 142.769C33.2987 142.408 33.227 142.036 33.1963 141.659C33.1182 140.801 33.1337 139.937 33.2427 139.082C31.7976 138.886 30.4362 138.286 29.3131 137.352C29.181 137.842 28.455 139.982 28.6561 140.447C29.0361 141.329 30.8218 142.769 33.4101 142.769Z" fill="#0C0C0C"/>
<path d="M32.2962 141.21C29.4802 141.246 25.9597 139.819 25.5234 136.02L25.1298 132.59C24.6932 128.791 26.3263 125.48 29.8881 125.068C33.4497 124.656 36.4656 127.427 36.9022 131.227L37.0764 132.744C37.2438 134.203 37.3206 141.146 32.2962 141.21Z" fill="#725145"/>
<path d="M36.0557 132.642C36.2996 132.642 36.4973 132.444 36.4973 132.199C36.4973 131.954 36.2996 131.755 36.0557 131.755C35.8118 131.755 35.6141 131.954 35.6141 132.199C35.6141 132.444 35.8118 132.642 36.0557 132.642Z" fill="#0C0C0C"/>
<path d="M31.5421 133.161C31.7859 133.161 31.9836 132.962 31.9836 132.717C31.9836 132.472 31.7859 132.274 31.5421 132.274C31.2982 132.274 31.1005 132.472 31.1005 132.717C31.1005 132.962 31.2982 133.161 31.5421 133.161Z" fill="#0C0C0C"/>
<path opacity="0.5" d="M33.7819 136.094H33.7889C33.9332 136.076 34.0764 136.05 34.218 136.017C34.4293 135.965 34.708 135.874 34.6862 135.684C34.6611 135.468 33.8027 133.2 33.7048 132.943C33.7006 132.932 33.6942 132.921 33.686 132.913C33.6779 132.904 33.6681 132.897 33.6573 132.892C33.6464 132.887 33.6347 132.885 33.6229 132.884C33.611 132.884 33.5992 132.886 33.5881 132.89C33.577 132.895 33.5668 132.901 33.5582 132.909C33.5496 132.917 33.5426 132.927 33.5378 132.938C33.5329 132.949 33.5303 132.961 33.5299 132.973C33.5296 132.984 33.5316 132.996 33.5359 133.007C33.9021 133.973 34.4898 135.56 34.5064 135.706C34.2804 135.833 34.0272 135.905 33.7681 135.914C33.7442 135.916 33.722 135.927 33.7064 135.945C33.6908 135.964 33.683 135.987 33.6849 136.011C33.6867 136.035 33.6979 136.058 33.7161 136.073C33.7343 136.089 33.758 136.097 33.7819 136.095V136.094Z" fill="#0C0C0C"/>
<path opacity="0.5" d="M33.1453 137.675C33.7238 137.642 34.2865 137.473 34.7879 137.181C34.8077 137.169 34.822 137.15 34.8278 137.127C34.8337 137.104 34.8307 137.08 34.8195 137.06C34.8082 137.039 34.7896 137.024 34.7674 137.017C34.7452 137.01 34.7212 137.012 34.7003 137.022C33.6173 137.624 32.5815 137.659 31.7053 137.123C31.6876 137.112 31.6694 137.101 31.6506 137.092C31.6289 137.083 31.6048 137.084 31.5832 137.092C31.5617 137.101 31.5444 137.118 31.5349 137.14C31.5254 137.161 31.5245 137.185 31.5324 137.207C31.5402 137.229 31.5562 137.247 31.5771 137.258C31.5838 137.261 31.5954 137.269 31.6112 137.278C32.0718 137.561 32.606 137.699 33.1453 137.675Z" fill="#0C0C0C"/>
<path d="M22.234 133.565L25.4256 133.214C27.8806 132.418 28.9006 128.322 28.9006 128.322C28.9006 128.322 31.1005 130.835 37.6197 129.688C37.6197 129.688 37.3672 121.246 27.4523 122.434C24.0001 122.849 21.397 126.326 21.3702 130.873C21.3516 134.058 22.234 133.565 22.234 133.565Z" fill="#0A0A0A"/>
<path d="M25.8777 137.152C24.7952 137.278 23.7842 136.216 23.6594 135.128C23.5347 134.041 24.343 133.34 25.4256 133.215L26.067 133.879L26.8083 137.044L25.8777 137.152Z" fill="#725145"/>
<path d="M34.4939 131.092C34.8132 130.915 35.174 130.827 35.5388 130.837C35.7189 130.841 35.8974 130.872 36.0682 130.93C36.238 130.986 36.4 131.063 36.5505 131.16C36.5656 131.169 36.5764 131.184 36.5806 131.202C36.5849 131.219 36.5823 131.238 36.5734 131.253C36.5645 131.269 36.55 131.28 36.5328 131.285C36.5157 131.29 36.4973 131.289 36.4815 131.28L36.477 131.278C36.3344 131.193 36.1817 131.126 36.0226 131.079C35.8649 131.032 35.701 131.009 35.5365 131.011C35.2092 131.013 34.8881 131.101 34.6059 131.268L34.5991 131.272C34.5875 131.28 34.5744 131.285 34.5606 131.288C34.5469 131.29 34.5328 131.29 34.5192 131.287C34.5056 131.284 34.4927 131.278 34.4814 131.27C34.4701 131.262 34.4605 131.251 34.4532 131.239C34.446 131.227 34.4412 131.214 34.4392 131.2C34.4372 131.186 34.438 131.172 34.4415 131.159C34.445 131.145 34.4513 131.132 34.4598 131.121C34.4683 131.11 34.479 131.101 34.4912 131.094L34.4939 131.092Z" fill="#0C0C0C"/>
<path d="M31.6335 131.621C31.3214 131.521 30.9887 131.507 30.6692 131.579C30.5084 131.614 30.3537 131.674 30.2106 131.756C30.0659 131.837 29.932 131.936 29.8119 132.051L29.8081 132.054C29.7945 132.065 29.7776 132.069 29.7607 132.068C29.7438 132.066 29.728 132.058 29.7164 132.046C29.7048 132.034 29.6981 132.017 29.6977 132C29.6972 131.983 29.703 131.967 29.714 131.954C29.8392 131.825 29.9798 131.714 30.1327 131.621C30.2866 131.527 30.4537 131.456 30.6283 131.412C30.9816 131.32 31.3529 131.325 31.7036 131.426C31.7171 131.43 31.7298 131.436 31.7409 131.444C31.752 131.453 31.7613 131.464 31.7682 131.476C31.7751 131.488 31.7795 131.502 31.7811 131.516C31.7827 131.53 31.7814 131.544 31.7774 131.557C31.7734 131.571 31.7668 131.583 31.7579 131.594C31.7489 131.605 31.7379 131.614 31.7255 131.62C31.7131 131.627 31.6995 131.63 31.6855 131.631C31.6716 131.633 31.6575 131.631 31.6443 131.626H31.6415L31.6335 131.621Z" fill="#0C0C0C"/>
<path d="M33.2058 138.534C33.3105 138.53 33.4146 138.517 33.5171 138.495C33.5399 138.489 33.5596 138.475 33.5721 138.455C33.5845 138.435 33.5888 138.411 33.5839 138.388C33.5791 138.365 33.5655 138.344 33.5461 138.331C33.5266 138.318 33.5028 138.313 33.4797 138.317C33.3197 138.364 33.1516 138.376 32.9865 138.352C32.8215 138.329 32.6633 138.27 32.5227 138.18C32.5041 138.165 32.4803 138.158 32.4564 138.16C32.4325 138.163 32.4106 138.175 32.3954 138.193C32.3802 138.212 32.3731 138.236 32.3755 138.26C32.3779 138.284 32.3896 138.306 32.4082 138.321C32.6415 138.483 32.9234 138.558 33.2058 138.534Z" fill="#0C0C0C"/>
<path opacity="0.1" d="M30.9304 136.164C31.3948 136.148 31.7615 135.857 31.7496 135.515C31.7377 135.173 31.3516 134.909 30.8873 134.926C30.4229 134.942 30.0562 135.232 30.0681 135.574C30.08 135.917 30.4661 136.181 30.9304 136.164Z" fill="#0C0C0C"/>
<path opacity="0.1" d="M35.8998 135.22C35.9128 135.562 36.2987 135.825 36.7631 135.81C36.8434 135.807 36.9231 135.796 37.0011 135.776C37.0561 135.375 37.0897 134.987 37.1081 134.627C36.983 134.584 36.8511 134.565 36.7192 134.571C36.2557 134.587 35.8892 134.876 35.8998 135.22Z" fill="#0C0C0C"/>
<path d="M46.2467 150.854C46.2266 152.874 45.5362 155.282 45.2902 158.192C45.2249 158.968 43.5652 161.215 43.3242 163.714C43.0205 166.896 43.696 171.858 43.7864 174.004C39.1215 176.597 33.8445 177.872 28.516 177.694C23.1874 177.517 18.0062 175.893 13.5227 172.995C13.4021 167.483 13.2591 160.678 13.0758 159.046C12.4808 153.66 12.6415 150.254 13.5001 148.66C14.9034 146.058 17.4013 145.264 20.0147 144.906C21.6114 144.689 24.0089 144.535 24.0089 144.535C24.0089 144.535 24.2122 148.663 29.0575 148.892C35.6525 149.205 35.2131 144.535 35.2458 144.535C37.6383 144.535 42.1722 145.11 43.9094 146.3C45.7521 147.558 46.2693 149.051 46.2467 150.854Z" fill="#97D4EA"/>
<path d="M23.4617 153.995L14.5143 173.607C11.079 171.57 8.08999 168.855 5.72766 165.626L13.1913 149.267L23.4617 153.995Z" fill="#97D4EA"/>
<path d="M53.4743 165.33C51.7215 167.786 49.606 169.959 47.2007 171.775C46.409 172.375 45.587 172.934 44.7379 173.449L35.5546 153.171L45.8375 148.471L53.4743 165.33Z" fill="#97D4EA"/>
<path d="M90.8681 61.6811C107.826 61.6811 121.573 47.8733 121.573 30.8405C121.573 13.8078 107.826 0 90.8681 0C73.91 0 60.1627 13.8078 60.1627 30.8405C60.1627 47.8733 73.91 61.6811 90.8681 61.6811Z" fill="white"/>
<path opacity="0.09" d="M90.8681 61.6811C107.826 61.6811 121.573 47.8733 121.573 30.8405C121.573 13.8078 107.826 0 90.8681 0C73.91 0 60.1627 13.8078 60.1627 30.8405C60.1627 47.8733 73.91 61.6811 90.8681 61.6811Z" fill="#28A0CB"/>
<path d="M96.8054 12.3728C96.8054 12.3728 98.7498 10.2563 98.5994 6.22484C98.4832 3.10345 96.044 5.58286 96.044 5.58286C96.044 5.58286 95.9383 3.33618 94.3871 3.84301C92.8359 4.34984 92.3589 6.8169 92.3589 6.8169" fill="#0C0C0C"/>
<path d="M86.2067 5.59546C86.2067 5.59546 78.4632 7.88122 83.2547 18.11L83.9619 18.0299L85.3973 17.8675" fill="#0C0C0C"/>
<path d="M97.1805 28.7202C97.1453 28.7157 96.7537 35.2409 89.2065 34.671C83.9817 34.2779 82.1187 28.7101 81.9989 28.7101C82.5623 28.5898 83.2584 28.4075 83.5351 28.3447C84.1381 28.2042 84.6842 27.8825 85.1008 27.4226C85.5173 26.9627 85.7846 26.3863 85.867 25.77C86.0199 24.8451 85.7606 20.1132 85.8404 19.1775L93.8604 20.9753C93.7484 22.952 92.9641 27.5338 95.7131 28.3447C96.1708 28.4791 96.6636 28.6027 97.1805 28.7202Z" fill="#EBCAC2"/>
<path d="M93.9731 26.4727C93.8476 26.066 93.7667 25.6468 93.7318 25.2225C93.6437 24.2542 93.6613 23.2791 93.7843 22.3147C92.1542 22.0937 90.6185 21.4179 89.3518 20.364C89.2027 20.9165 88.3838 23.3303 88.6104 23.8553C89.0392 24.8478 91.0534 26.4727 93.9731 26.4727Z" fill="#0C0C0C"/>
<path d="M92.6639 24.3952C89.5007 24.6809 85.4174 23.3825 84.5988 19.1474L83.8599 15.326C83.0413 11.0899 84.5922 7.22562 88.5623 6.45151C92.5324 5.67715 96.1635 8.53177 96.9824 12.7669L97.3088 14.4586C97.4112 15.0414 97.4738 15.6305 97.4961 16.2219C97.5669 17.7853 97.6686 20.1613 96.9204 21.9178C96.2145 23.5764 94.6854 24.2129 92.6639 24.3952Z" fill="#EBCAC2"/>
<path opacity="0.5" d="M93.1422 20.2081C93.7215 20.1972 94.2902 20.0496 94.8024 19.7774C94.8135 19.7724 94.8235 19.7651 94.8318 19.7561C94.84 19.747 94.8464 19.7364 94.8505 19.7248C94.8545 19.7132 94.8562 19.7009 94.8554 19.6887C94.8546 19.6764 94.8514 19.6645 94.8459 19.6535C94.8404 19.6426 94.8327 19.6328 94.8234 19.6249C94.814 19.617 94.8032 19.6111 94.7915 19.6075C94.7798 19.6039 94.7675 19.6027 94.7554 19.604C94.7432 19.6053 94.7315 19.6091 94.7208 19.6151C93.6162 20.1751 92.5796 20.1698 91.7243 19.6014C91.707 19.5894 91.6892 19.5783 91.6708 19.5682C91.6602 19.5629 91.6486 19.5598 91.6367 19.559C91.6248 19.5583 91.6129 19.5598 91.6017 19.5637C91.5905 19.5676 91.5801 19.5736 91.5711 19.5815C91.5622 19.5894 91.5549 19.5989 91.5497 19.6096C91.5444 19.6203 91.5414 19.632 91.5406 19.6439C91.5398 19.6558 91.5414 19.6678 91.5452 19.6791C91.5491 19.6904 91.5551 19.7008 91.5629 19.7097C91.5708 19.7187 91.5803 19.726 91.591 19.7313C91.5978 19.7351 91.6088 19.7426 91.6244 19.753C92.0739 20.0531 92.6024 20.2115 93.1422 20.2081Z" fill="#0C0C0C"/>
<path d="M93.1701 21.0696C93.2748 21.0693 93.3794 21.0601 93.4826 21.0419C93.4943 21.0399 93.5055 21.0356 93.5156 21.0293C93.5256 21.0229 93.5343 21.0146 93.5412 21.0049C93.548 20.9952 93.5529 20.9842 93.5556 20.9726C93.5582 20.9609 93.5585 20.9489 93.5565 20.9371C93.5545 20.9254 93.5503 20.9141 93.5439 20.904C93.5376 20.8939 93.5294 20.8852 93.5197 20.8783C93.51 20.8714 93.4991 20.8665 93.4875 20.8639C93.4759 20.8612 93.4639 20.8609 93.4522 20.8629C93.2905 20.9036 93.1221 20.9092 92.9581 20.8793C92.794 20.8495 92.6382 20.7849 92.501 20.6899C92.483 20.6746 92.4596 20.667 92.4361 20.6687C92.4125 20.6704 92.3905 20.6814 92.3749 20.6992C92.3592 20.717 92.3512 20.7403 92.3524 20.764C92.3537 20.7877 92.3641 20.81 92.3815 20.8261C92.6084 20.9964 92.8871 21.0825 93.1701 21.0696Z" fill="#0C0C0C"/>
<path d="M96.0323 15.5257C96.3073 15.5257 96.5303 15.3017 96.5303 15.0254C96.5303 14.7491 96.3073 14.5251 96.0323 14.5251C95.7572 14.5251 95.5342 14.7491 95.5342 15.0254C95.5342 15.3017 95.7572 15.5257 96.0323 15.5257Z" fill="#0C0C0C"/>
<path d="M91.189 16.0943C91.4641 16.0943 91.6871 15.8703 91.6871 15.594C91.6871 15.3177 91.4641 15.0938 91.189 15.0938C90.9139 15.0938 90.6909 15.3177 90.6909 15.594C90.6909 15.8703 90.9139 16.0943 91.189 16.0943Z" fill="#0C0C0C"/>
<path d="M85.0949 20.3894C83.8884 20.6247 82.6597 19.519 82.4253 18.3072C82.1908 17.0953 83.0401 16.2365 84.2463 16.0012L85.0246 16.6919L86.1317 20.1872L85.0949 20.3894Z" fill="#EBCAC2"/>
<path d="M85.9461 18.2188C85.9461 18.2188 85.272 12.1382 87.0186 11.4377C88.1817 10.9709 91.4204 12.1591 94.0396 11.1464C95.1854 10.7032 96.3653 10.7934 96.5812 11.3358C96.6668 11.5504 96.829 8.21214 94.5322 6.11851C92.7036 4.45179 87.7629 4.78538 85.6742 5.82072C79.8908 8.68744 84.0447 16.3103 84.0447 16.3103L84.6899 18.3315L85.9461 18.2188Z" fill="#0C0C0C"/>
<path d="M93.8848 18.7022H93.8926C94.2817 18.6266 94.9259 18.4584 94.8716 18.1662C94.8252 17.9238 93.6666 15.4366 93.5351 15.1539C93.5295 15.1419 93.5215 15.1311 93.5117 15.1221C93.502 15.1132 93.4905 15.1062 93.4781 15.1017C93.4656 15.0972 93.4524 15.0952 93.4392 15.0958C93.426 15.0964 93.413 15.0996 93.401 15.1053C93.389 15.1109 93.3783 15.1189 93.3693 15.1287C93.3604 15.1385 93.3535 15.15 93.349 15.1625C93.3445 15.175 93.3425 15.1883 93.3431 15.2016C93.3437 15.2149 93.3469 15.2279 93.3526 15.2399C93.8662 16.3413 94.6419 18.0388 94.6736 18.204C94.6485 18.2796 94.2588 18.4256 93.8562 18.503C93.8295 18.507 93.8056 18.5215 93.7895 18.5432C93.7735 18.5649 93.7667 18.5922 93.7707 18.6189C93.7746 18.6457 93.789 18.6697 93.8107 18.6858C93.8323 18.7019 93.8594 18.7087 93.886 18.7048L93.8848 18.7022Z" fill="#0C0C0C"/>
<path d="M94.1599 12.6078C94.5491 12.4203 94.9816 12.3419 95.4116 12.3808C95.6225 12.3987 95.8296 12.4481 96.0259 12.5276C96.2198 12.605 96.4031 12.7066 96.5717 12.8302C96.603 12.8519 96.6246 12.885 96.6321 12.9224C96.6396 12.9599 96.6324 12.9988 96.6119 13.031C96.5914 13.0631 96.5592 13.0861 96.5222 13.095C96.4853 13.1038 96.4463 13.0979 96.4135 13.0785L96.4022 13.0745C96.2494 12.9765 96.0849 12.8981 95.9127 12.8412C95.7433 12.7844 95.5663 12.7538 95.3877 12.7502C95.0357 12.7404 94.6874 12.8241 94.378 12.993L94.3652 13.0004C94.34 13.0148 94.3123 13.0241 94.2835 13.0278C94.2548 13.0314 94.2256 13.0294 94.1976 13.0217C94.1697 13.014 94.1435 13.0009 94.1206 12.9831C94.0977 12.9653 94.0785 12.9431 94.0641 12.9178C94.0497 12.8925 94.0404 12.8646 94.0368 12.8357C94.0331 12.8069 94.0352 12.7775 94.0428 12.7494C94.0505 12.7214 94.0635 12.6951 94.0813 12.672C94.099 12.649 94.1211 12.6298 94.1463 12.6153L94.1599 12.6078Z" fill="#0C0C0C"/>
<path d="M91.3042 13.3828C90.9651 13.2875 90.607 13.2837 90.2661 13.3719C90.0928 13.4152 89.9271 13.4847 89.7745 13.5779C89.6188 13.6718 89.4755 13.7849 89.3478 13.9145L89.3397 13.9226C89.3122 13.9494 89.2754 13.9643 89.2371 13.9641C89.1988 13.964 89.1621 13.9489 89.1347 13.9219C89.1074 13.895 89.0916 13.8584 89.0907 13.82C89.0899 13.7815 89.104 13.7442 89.1301 13.7161C89.2668 13.5577 89.423 13.4173 89.5948 13.2983C89.7687 13.1769 89.9597 13.0823 90.1614 13.0176C90.3631 12.9509 90.5729 12.9122 90.785 12.9027C91.0022 12.8907 91.22 12.9097 91.4319 12.9591C91.4889 12.9725 91.5383 13.0081 91.5692 13.058C91.6001 13.108 91.61 13.1682 91.5966 13.2254C91.5833 13.2827 91.5479 13.3322 91.4982 13.3633C91.4485 13.3943 91.3885 13.4042 91.3315 13.3908L91.3185 13.3873L91.3042 13.3828Z" fill="#0C0C0C"/>
<path d="M92.8317 8.57927C93.6929 8.22872 93.9746 6.9124 93.4608 5.63918C92.9471 4.36597 91.8325 3.618 90.9713 3.96855C90.1101 4.3191 89.8284 5.63542 90.3422 6.90863C90.8559 8.18185 91.9705 8.92982 92.8317 8.57927Z" fill="#0C0C0C"/>
<path d="M107.611 35.463C107.642 37.5533 106.828 39.9034 106.557 43.0856C106.502 43.7311 106.371 45.1532 106.198 47.0065C105.914 50.0752 105.513 54.319 105.161 58.1441C100.135 60.7939 94.4765 61.9943 88.8127 61.6124C83.1489 61.2306 77.7009 59.2813 73.0724 55.9806C72.9619 55.8974 72.8514 55.8167 72.741 55.7386C72.4473 51.4142 72.1008 46.8754 71.7845 44.0084C71.1895 38.6552 70.3786 35.99 70.833 34.1896C70.8694 34.0363 70.9181 33.8862 70.9786 33.7408C72.2866 30.5536 76.4515 29.1314 79.2732 28.7482C80.9954 28.5137 83.5862 28.3447 83.5862 28.3447C83.5862 28.3447 83.8046 32.8028 89.034 33.0499C96.1537 33.3878 95.6792 28.3447 95.7143 28.3447C96.8666 28.3447 103.145 29.1869 104.714 30.2157C104.977 30.3872 105.229 30.5759 105.468 30.7805C106.149 31.3516 106.695 32.0683 107.066 32.8784C107.437 33.6885 107.623 34.5715 107.611 35.463Z" fill="#28A0CB"/>
<path d="M81.3971 38.6957L73.0724 55.9807C72.9619 55.8975 72.8515 55.8168 72.741 55.7386C69.5139 53.3619 66.777 50.3784 64.6824 46.9537L70.833 34.1897L71.0766 33.6829L81.3971 38.6957Z" fill="#28A0CB"/>
<path d="M80.5937 40.6853L73.0221 55.943C72.9719 55.9052 72.9242 55.8699 72.874 55.8371L80.4356 40.6071C80.4464 40.5859 80.4651 40.5698 80.4876 40.5623C80.5102 40.5548 80.5347 40.5564 80.5561 40.5668C80.5767 40.5775 80.5923 40.596 80.5993 40.6182C80.6064 40.6404 80.6044 40.6646 80.5937 40.6853Z" fill="white"/>
<path d="M118.984 43.2572C117.475 46.6924 115.356 49.8231 112.73 52.496L106.198 47.0067L97.901 40.0321L105.468 30.7807L105.49 30.7529L118.984 43.2572Z" fill="#28A0CB"/>
<path d="M106.299 47.0739C106.32 47.0728 106.34 47.064 106.356 47.0491C106.371 47.0343 106.38 47.0143 106.382 46.9929L106.813 41.9171C106.815 41.8937 106.808 41.8704 106.793 41.8524C106.778 41.8344 106.756 41.8231 106.733 41.821C106.71 41.8193 106.687 41.8268 106.669 41.8419C106.651 41.857 106.64 41.8784 106.638 41.9017L106.207 46.9778C106.205 47.0012 106.212 47.0244 106.227 47.0424C106.242 47.0603 106.264 47.0716 106.287 47.0736L106.299 47.0739Z" fill="white"/>
<path d="M235.452 195.229C251.626 195.229 264.738 182.059 264.738 165.814C264.738 149.568 251.626 136.398 235.452 136.398C219.277 136.398 206.165 149.568 206.165 165.814C206.165 182.059 219.277 195.229 235.452 195.229Z" fill="white"/>
<path opacity="0.09" d="M206.165 165.813C206.165 171.631 207.882 177.318 211.1 182.155C214.318 186.992 218.892 190.763 224.244 192.989C229.595 195.215 235.483 195.798 241.164 194.663C246.845 193.528 252.063 190.727 256.159 186.613C260.255 182.499 263.044 177.258 264.174 171.552C265.304 165.846 264.724 159.932 262.508 154.557C260.291 149.182 256.537 144.588 251.721 141.356C246.905 138.124 241.243 136.398 235.451 136.398C231.601 136.384 227.787 137.135 224.227 138.608C220.667 140.082 217.433 142.248 214.711 144.982C211.989 147.716 209.832 150.965 208.365 154.54C206.899 158.115 206.151 161.946 206.165 165.813Z" fill="#28A0CB"/>
<path d="M248.741 149.581C248.273 155.028 248.706 156.875 250.958 159.995C252.857 162.626 242.051 160.39 237.271 159.535L241.489 147.149C241.489 147.149 248.905 147.669 248.741 149.581Z" fill="#0A0A0A"/>
<path d="M232.246 147.315C230.835 152.595 230.993 154.229 228.233 157.001C225.945 159.299 234.862 159.767 239.646 160.602L239.888 147.515C239.888 147.515 232.741 145.461 232.246 147.315Z" fill="#0A0A0A"/>
<path d="M232.721 162.672C232.752 162.668 233.103 168.507 239.856 167.998C244.532 167.646 246.199 162.664 246.306 162.664C245.772 162.574 245.244 162.446 244.729 162.28C243.993 161.882 243.082 161.469 242.845 160.033C242.708 159.205 242.94 154.971 242.868 154.133L235.692 155.742C235.792 157.51 236.495 161.61 234.035 162.336C233.625 162.457 233.184 162.567 232.721 162.672Z" fill="#E2B764"/>
<path opacity="0.5" d="M235.591 160.661C235.703 160.297 235.776 159.922 235.807 159.542C235.886 158.676 235.87 157.803 235.76 156.94C237.219 156.742 238.593 156.138 239.727 155.195C239.86 155.689 240.593 157.849 240.39 158.319C240.006 159.207 238.204 160.661 235.591 160.661Z" fill="#0C0C0C"/>
<path d="M236.519 158.842C239.349 159.117 243.009 157.98 243.768 154.195L244.452 150.781C245.211 146.996 243.846 143.528 240.299 142.811C236.751 142.094 233.484 144.626 232.726 148.41L232.423 149.923C232.132 151.374 231.471 158.352 236.519 158.842Z" fill="#E2B764"/>
<path d="M247.876 151.859L244.685 151.507C238.44 150.354 236.91 145.293 236.91 145.293C236.91 145.293 234.291 148.805 232.067 147.999C232.067 147.999 232.784 139.529 242.658 141.017C246.537 141.602 248.74 144.832 248.74 149.165C248.74 152.351 247.876 151.859 247.876 151.859Z" fill="#0A0A0A"/>
<path opacity="0.1" d="M239.233 153.361C239.274 153.018 238.929 152.695 238.464 152.639C237.998 152.583 237.588 152.816 237.547 153.159C237.506 153.502 237.85 153.826 238.316 153.881C238.782 153.937 239.192 153.704 239.233 153.361Z" fill="#0C0C0C"/>
<path opacity="0.1" d="M233.399 152.511C233.357 152.854 232.947 153.086 232.481 153.031C232.401 153.021 232.321 153.003 232.245 152.977C232.223 152.569 232.222 152.176 232.234 151.812C232.363 151.78 232.497 151.772 232.629 151.789C233.094 151.844 233.438 152.167 233.399 152.511Z" fill="#0C0C0C"/>
<path opacity="0.5" d="M235.455 153.57H235.448C235.305 153.54 235.163 153.502 235.023 153.456C234.815 153.386 234.542 153.271 234.58 153.082C234.623 152.866 235.678 150.658 235.798 150.407C235.803 150.396 235.81 150.386 235.819 150.378C235.828 150.369 235.838 150.363 235.85 150.359C235.861 150.354 235.873 150.353 235.886 150.353C235.898 150.354 235.91 150.357 235.921 150.362C235.932 150.367 235.942 150.375 235.95 150.384C235.958 150.393 235.964 150.404 235.968 150.416C235.972 150.427 235.973 150.44 235.972 150.452C235.971 150.464 235.968 150.476 235.962 150.487C235.512 151.427 234.788 152.973 234.759 153.118C234.976 153.266 235.224 153.359 235.484 153.39C235.507 153.395 235.527 153.409 235.541 153.428C235.554 153.447 235.559 153.471 235.556 153.494C235.552 153.518 235.539 153.539 235.521 153.553C235.502 153.567 235.479 153.574 235.455 153.571V153.57Z" fill="#0C0C0C"/>
<path d="M243.317 155.304C244.395 155.522 245.501 154.54 245.718 153.457C245.935 152.374 245.181 151.6 244.102 151.383L243.401 151.996L242.39 155.117L243.317 155.304Z" fill="#E2B764"/>
<path d="M235.033 148.646C234.9 148.551 234.755 148.475 234.602 148.419C234.446 148.36 234.284 148.324 234.119 148.31C233.953 148.294 233.787 148.303 233.624 148.337C233.46 148.371 233.301 148.425 233.151 148.498L233.146 148.5C233.13 148.506 233.112 148.506 233.096 148.499C233.08 148.492 233.067 148.48 233.059 148.464C233.052 148.449 233.05 148.431 233.055 148.414C233.06 148.397 233.071 148.383 233.086 148.374C233.246 148.29 233.415 148.225 233.591 148.183C233.767 148.14 233.95 148.124 234.131 148.135C234.499 148.156 234.854 148.275 235.16 148.481C235.183 148.497 235.198 148.521 235.202 148.548C235.207 148.575 235.201 148.603 235.186 148.625C235.171 148.648 235.147 148.664 235.12 148.669C235.093 148.675 235.066 148.67 235.043 148.655L235.04 148.653L235.033 148.646Z" fill="#0C0C0C"/>
<path d="M237.939 149.049C238.3 148.977 238.673 149.003 239.021 149.126C239.193 149.185 239.355 149.27 239.502 149.378C239.648 149.484 239.78 149.609 239.895 149.748C239.908 149.762 239.914 149.78 239.913 149.798C239.913 149.817 239.904 149.835 239.891 149.847C239.877 149.86 239.859 149.866 239.84 149.865C239.822 149.864 239.804 149.856 239.792 149.843L239.788 149.839C239.677 149.713 239.551 149.602 239.412 149.508C239.274 149.414 239.124 149.341 238.965 149.292C238.65 149.193 238.314 149.179 237.992 149.252L237.984 149.254C237.957 149.261 237.928 149.257 237.905 149.242C237.881 149.228 237.864 149.204 237.857 149.177C237.85 149.15 237.855 149.121 237.869 149.098C237.883 149.074 237.907 149.056 237.934 149.05L237.939 149.049Z" fill="#0C0C0C"/>
<path d="M221.844 191.865C220.693 191.361 219.832 190.821 217.866 189.334C216.447 188.264 215.129 187.067 213.927 185.756L224.021 166.463L224.46 165.625L233.565 170.433L225.667 185.529L225.631 185.596L225.699 185.864" fill="#28A0CB"/>
<path d="M255.416 176.345C255.151 179.206 255.093 183.655 255.112 187.611C251.305 191.079 246.657 193.479 241.634 194.57C236.612 195.661 231.391 195.405 226.499 193.827C225.9 187.861 225.009 179.094 224.508 173.695C223.999 168.104 222.503 166.257 226.585 163.579C228.835 162.429 232.401 162.328 234.003 162.328C233.459 167.628 244.581 168.28 244.857 162.328C253.175 163.109 257.026 163.303 255.416 176.345Z" fill="#28A0CB"/>
<path d="M234.507 154.316C235.426 154.785 236.475 154.934 237.487 154.738C237.523 154.731 237.559 154.734 237.592 154.748C237.625 154.761 237.654 154.784 237.675 154.813C237.696 154.842 237.708 154.876 237.71 154.912C237.712 154.948 237.704 154.984 237.687 155.015C237.386 155.549 236.669 156.463 235.44 156.091C234.647 155.85 234.347 155.032 234.235 154.524C234.227 154.488 234.23 154.452 234.242 154.418C234.254 154.384 234.276 154.354 234.305 154.332C234.333 154.31 234.367 154.297 234.403 154.294C234.439 154.291 234.475 154.299 234.507 154.316Z" fill="white"/>
<path d="M234.449 150.209C234.694 150.209 234.893 150.01 234.893 149.763C234.893 149.517 234.694 149.317 234.449 149.317C234.204 149.317 234.005 149.517 234.005 149.763C234.005 150.01 234.204 150.209 234.449 150.209Z" fill="#0C0C0C"/>
<path d="M238.718 150.96C238.963 150.96 239.162 150.76 239.162 150.514C239.162 150.267 238.963 150.068 238.718 150.068C238.473 150.068 238.274 150.267 238.274 150.514C238.274 150.76 238.473 150.96 238.718 150.96Z" fill="#0C0C0C"/>
<path d="M225.491 183.325H225.499C225.517 183.323 225.534 183.313 225.545 183.299C225.556 183.284 225.56 183.266 225.558 183.247L224.773 175.301C224.772 175.292 224.769 175.284 224.764 175.276C224.76 175.268 224.754 175.261 224.746 175.255C224.739 175.25 224.731 175.246 224.722 175.244C224.713 175.241 224.704 175.241 224.695 175.243C224.686 175.244 224.678 175.247 224.67 175.251C224.662 175.256 224.655 175.262 224.65 175.269C224.644 175.276 224.641 175.285 224.638 175.293C224.636 175.302 224.636 175.311 224.637 175.32L225.422 183.267C225.424 183.283 225.433 183.298 225.445 183.309C225.458 183.32 225.474 183.326 225.491 183.325Z" fill="#0C0C0C"/>
<path d="M224.464 177.273H216.449V187.147H224.464V177.273Z" fill="#D9E8F6"/>
<path d="M221.182 182.21C221.182 181.558 221.375 180.921 221.735 180.379C222.096 179.837 222.609 179.414 223.209 179.165C223.809 178.915 224.469 178.85 225.106 178.978C225.742 179.105 226.327 179.419 226.786 179.88C227.245 180.341 227.558 180.929 227.684 181.568C227.811 182.208 227.746 182.871 227.497 183.473C227.249 184.076 226.828 184.591 226.288 184.953C225.748 185.315 225.114 185.508 224.464 185.508C223.594 185.507 222.759 185.16 222.144 184.541C221.529 183.923 221.183 183.085 221.182 182.21ZM222.526 182.21C222.526 182.595 222.64 182.972 222.853 183.292C223.066 183.612 223.369 183.862 223.723 184.009C224.077 184.156 224.466 184.195 224.842 184.12C225.218 184.045 225.564 183.859 225.835 183.587C226.106 183.315 226.29 182.968 226.365 182.59C226.44 182.213 226.402 181.821 226.255 181.466C226.108 181.11 225.86 180.806 225.541 180.592C225.222 180.378 224.848 180.264 224.464 180.264C223.951 180.264 223.458 180.47 223.095 180.835C222.731 181.2 222.527 181.694 222.526 182.21Z" fill="#D9E8F6"/>
<path d="M224.401 183.433C224.428 183.266 224.512 183.113 224.64 183.003C224.767 182.892 224.929 182.83 225.098 182.828C225.093 182.821 225.09 182.813 225.088 182.805L224.849 182.753C224.683 182.72 224.533 182.63 224.425 182.499C224.317 182.368 224.257 182.203 224.256 182.032C224.258 181.926 224.283 181.82 224.33 181.725C224.377 181.629 224.444 181.544 224.528 181.478C224.611 181.411 224.708 181.364 224.811 181.34C224.915 181.316 225.023 181.315 225.127 181.337L225.69 181.459C225.69 181.457 225.69 181.455 225.69 181.453C225.691 181.449 225.693 181.444 225.695 181.44C225.548 181.371 225.429 181.254 225.357 181.108C225.285 180.962 225.264 180.796 225.299 180.636C225.36 180.218 225.86 180.08 226.226 180.16L227.685 180.422L227.192 180.094C227.037 179.986 226.928 179.823 226.888 179.637C226.848 179.452 226.879 179.258 226.976 179.095C227.029 179.013 227.098 178.942 227.179 178.887C227.26 178.833 227.351 178.795 227.447 178.777C227.543 178.759 227.641 178.76 227.736 178.781C227.832 178.803 227.922 178.843 228.001 178.901L233.88 185.658L232.574 185.064C232.169 185.662 231.595 186.126 230.926 186.394C230.257 186.663 229.524 186.725 228.819 186.572L225.631 185.874C225.465 185.841 225.315 185.751 225.206 185.62C225.098 185.489 225.039 185.324 225.038 185.153C225.04 185 225.091 184.851 225.184 184.728C225.276 184.606 225.405 184.516 225.552 184.473C225.548 184.462 225.546 184.45 225.547 184.438C225.549 184.427 225.554 184.417 225.56 184.408C225.567 184.399 225.576 184.392 225.586 184.388L224.998 184.26C224.812 184.224 224.647 184.118 224.537 183.965C224.426 183.811 224.377 183.621 224.401 183.433Z" fill="#E2B764"/>
<path opacity="0.2" d="M226.755 181.697C226.77 181.694 226.784 181.685 226.793 181.673C226.803 181.661 226.808 181.645 226.808 181.63C226.808 181.614 226.802 181.599 226.792 181.587C226.782 181.575 226.768 181.567 226.752 181.564L225.767 181.397C225.758 181.395 225.749 181.395 225.74 181.397C225.731 181.398 225.723 181.402 225.715 181.407C225.708 181.412 225.701 181.419 225.696 181.426C225.692 181.434 225.688 181.443 225.687 181.452C225.685 181.461 225.686 181.47 225.688 181.479C225.69 181.488 225.694 181.496 225.699 181.503C225.704 181.511 225.711 181.517 225.719 181.522C225.727 181.526 225.736 181.529 225.745 181.53L226.729 181.698C226.738 181.699 226.746 181.699 226.755 181.697Z" fill="#0C0C0C"/>
<path opacity="0.2" d="M226.517 183.097C226.532 183.093 226.546 183.085 226.556 183.073C226.566 183.06 226.571 183.045 226.57 183.029C226.57 183.013 226.565 182.998 226.554 182.986C226.544 182.974 226.53 182.966 226.515 182.963L225.166 182.723C225.157 182.721 225.148 182.721 225.139 182.723C225.13 182.724 225.121 182.728 225.113 182.733C225.106 182.738 225.099 182.744 225.094 182.752C225.089 182.76 225.086 182.768 225.084 182.777C225.082 182.786 225.083 182.796 225.085 182.805C225.087 182.814 225.091 182.822 225.096 182.83C225.102 182.837 225.108 182.843 225.116 182.848C225.124 182.852 225.133 182.855 225.142 182.857L226.491 183.097C226.5 183.099 226.508 183.098 226.517 183.097Z" fill="#0C0C0C"/>
<path opacity="0.2" d="M226.269 184.614C226.285 184.61 226.298 184.602 226.308 184.589C226.318 184.577 226.323 184.561 226.323 184.545C226.322 184.529 226.316 184.514 226.306 184.502C226.295 184.49 226.281 184.483 226.265 184.48L225.625 184.382C225.608 184.38 225.591 184.385 225.578 184.396C225.564 184.407 225.555 184.422 225.552 184.439C225.55 184.456 225.554 184.474 225.564 184.488C225.573 184.502 225.588 184.512 225.605 184.516L226.245 184.614C226.253 184.616 226.261 184.615 226.269 184.614Z" fill="#0C0C0C"/>
<path d="M259.499 182.597C255.893 187.807 250.709 191.71 244.719 193.726L244.716 193.724C243.386 193.462 230.693 188.428 229.014 188.098L230.851 179.49C235.568 180.432 244.172 184.067 248.916 185.013L245.569 169.771C245.448 169.098 245.461 168.407 245.607 167.739C245.754 167.071 246.031 166.439 246.422 165.879C246.814 165.319 247.313 164.843 247.889 164.478C248.465 164.114 249.108 163.867 249.779 163.754C250.451 163.64 251.139 163.662 251.802 163.817C252.466 163.973 253.092 164.259 253.644 164.659C254.196 165.059 254.664 165.566 255.02 166.149C255.376 166.732 255.614 167.381 255.718 168.057L259.499 182.597Z" fill="#28A0CB"/>
<path d="M252.512 186.135C252.529 186.135 252.545 186.128 252.558 186.117C252.57 186.105 252.578 186.089 252.579 186.072C252.58 186.054 252.575 186.037 252.565 186.024C252.554 186.01 252.539 186.001 252.522 185.998L248.955 184.783C248.946 184.781 248.937 184.782 248.928 184.784C248.919 184.786 248.911 184.79 248.904 184.795C248.897 184.801 248.89 184.808 248.886 184.815C248.881 184.823 248.878 184.832 248.877 184.841C248.874 184.859 248.879 184.877 248.89 184.892C248.901 184.907 248.917 184.916 248.935 184.919L252.502 186.134C252.505 186.135 252.508 186.135 252.512 186.135Z" fill="#0C0C0C"/>
<path d="M249.01 184.841C249.012 184.863 249.005 184.884 248.991 184.901C248.984 184.908 248.974 184.914 248.964 184.917C248.953 184.92 248.943 184.921 248.932 184.919L230.965 179.593L229.165 188.065L244.636 193.751C244.588 193.767 244.538 193.783 244.49 193.799C244.455 193.811 244.421 193.822 244.385 193.831L229.064 188.181C229.047 188.177 229.032 188.165 229.023 188.15C229.013 188.135 229.01 188.116 229.014 188.099L230.851 179.49C230.853 179.482 230.857 179.473 230.863 179.466C230.868 179.459 230.875 179.453 230.883 179.449C230.891 179.444 230.899 179.44 230.908 179.439C230.918 179.437 230.927 179.437 230.936 179.44L248.859 184.773L246.83 176.37C246.827 176.352 246.832 176.334 246.843 176.32C246.853 176.305 246.869 176.295 246.887 176.292C246.896 176.291 246.905 176.291 246.914 176.292C246.923 176.294 246.931 176.298 246.939 176.303C246.946 176.308 246.952 176.315 246.957 176.322C246.962 176.33 246.966 176.338 246.967 176.347L249.01 184.841Z" fill="#0C0C0C"/>
<path d="M14.7282 173.861C14.7115 173.861 14.695 173.857 14.6795 173.851C14.6643 173.845 14.6505 173.835 14.6389 173.823C14.6273 173.812 14.6182 173.798 14.6119 173.782C14.6057 173.767 14.6026 173.751 14.6027 173.734C14.6028 173.718 14.6061 173.701 14.6125 173.686L19.5315 161.942C19.5445 161.912 19.5691 161.887 19.6 161.875C19.6308 161.862 19.6654 161.862 19.6961 161.875C19.7268 161.888 19.7511 161.913 19.7636 161.944C19.7762 161.975 19.7759 162.01 19.763 162.04L14.844 173.783C14.8344 173.806 14.8183 173.826 14.7978 173.84C14.7772 173.853 14.753 173.861 14.7282 173.861Z" fill="#0C0C0C"/>
<path d="M43.6735 173.994H43.668C43.6515 173.995 43.6351 173.993 43.6196 173.987C43.6041 173.981 43.5898 173.973 43.5777 173.961C43.5655 173.95 43.5556 173.937 43.5487 173.922C43.5417 173.907 43.5377 173.891 43.5369 173.874L42.9887 161.863C42.9882 161.83 43.0003 161.798 43.0225 161.773C43.0447 161.749 43.0753 161.734 43.1082 161.731C43.1246 161.73 43.1411 161.733 43.1567 161.738C43.1722 161.744 43.1864 161.753 43.1986 161.764C43.2108 161.775 43.2207 161.789 43.2277 161.804C43.2347 161.819 43.2387 161.835 43.2395 161.851L43.7877 173.862C43.7894 173.895 43.7784 173.927 43.7571 173.951C43.7358 173.976 43.7058 173.991 43.6735 173.994Z" fill="#0C0C0C"/>
</g>
<defs>
<clipPath id="clip0_433_3759">
<rect width="280" height="195.229" fill="white"/>
</clipPath>
</defs>
</svg>
