<svg width="280" height="151" viewBox="0 0 280 151" fill="none" xmlns="http://www.w3.org/2000/svg">
<g clip-path="url(#clip0_433_3465)">
<path d="M249.346 140.811H29.712C26.9645 140.811 24.7372 143.04 24.7372 145.79V145.79C24.7372 148.54 26.9645 150.769 29.712 150.769H249.346C252.094 150.769 254.321 148.54 254.321 145.79V145.79C254.321 143.04 252.094 140.811 249.346 140.811Z" fill="#C1D8ED"/>
<path d="M231.561 0H46.7603C42.7135 0 39.433 3.28342 39.433 7.33373V135.095C39.433 139.145 42.7135 142.429 46.7603 142.429H231.561C235.607 142.429 238.888 139.145 238.888 135.095V7.33373C238.888 3.28342 235.607 0 231.561 0Z" fill="#C1D8ED"/>
<path d="M231.105 5.00146H47.2155C45.4263 5.00146 43.9758 6.45317 43.9758 8.24394V134.026C43.9758 135.817 45.4263 137.269 47.2155 137.269H231.105C232.895 137.269 234.345 135.817 234.345 134.026V8.24394C234.345 6.45317 232.895 5.00146 231.105 5.00146Z" fill="#C1D8ED"/>
<path d="M135.907 11.4133H50.4078V68.4184H135.907V11.4133Z" fill="#F3F5FD"/>
<path d="M60.64 18.5784H53.5486V68.3444H60.64V18.5784Z" fill="#C1D8ED"/>
<path d="M60.6398 68.3445H83.8802V18.5784H60.6398L60.6398 68.3445Z" fill="#DEE8F5"/>
<g opacity="0.53">
<path d="M61.6872 67.3066H82.8325V49.9203H61.6872V67.3066Z" fill="#F3F5FD"/>
</g>
<g opacity="0.53">
<path d="M61.6872 28.6807L82.8325 28.6807V19.6489H61.6872V28.6807Z" fill="white"/>
</g>
<g opacity="0.53">
<path d="M61.6872 38.7419H82.8325V29.7102H61.6872V38.7419Z" fill="white"/>
</g>
<g opacity="0.53">
<path d="M61.6872 48.8032H82.8325V39.7714H61.6872V48.8032Z" fill="white"/>
</g>
<path d="M71.7911 67.6389H72.7286V49.6201H71.7911V67.6389Z" fill="#DEE8F5"/>
<path d="M75.0335 64.6999C75.5603 64.6999 75.9875 64.2725 75.9875 63.7451C75.9875 63.2178 75.5603 62.7903 75.0335 62.7903C74.5066 62.7903 74.0795 63.2178 74.0795 63.7451C74.0795 64.2725 74.5066 64.6999 75.0335 64.6999Z" fill="white"/>
<path d="M69.4867 64.6999C70.0136 64.6999 70.4407 64.2725 70.4407 63.7451C70.4407 63.2178 70.0136 62.7903 69.4867 62.7903C68.9598 62.7903 68.5327 63.2178 68.5327 63.7451C68.5327 64.2725 68.9598 64.6999 69.4867 64.6999Z" fill="white"/>
<path d="M78.8757 31.5164V32.9345V38.7419H71.4279V32.9345V31.5164H78.8757Z" fill="#C1D8ED"/>
<path d="M81.1353 32.9343H73.6874V38.742H81.1353V32.9343Z" fill="#DEE8F5"/>
<path d="M81.1353 32.9343H73.6874V33.3696H81.1353V32.9343Z" fill="#C1D8ED"/>
<path d="M73.6876 32.9341H81.1355V31.516H73.6876V32.9341Z" fill="#DEE8F5"/>
<path d="M76.6026 34.9727H78.2201C78.3241 34.9727 78.4084 34.8883 78.4084 34.7841V34.2891C78.4084 34.1849 78.3241 34.1005 78.2201 34.1005H76.6026C76.4986 34.1005 76.4143 34.1849 76.4143 34.2891V34.7841C76.4143 34.8883 76.4986 34.9727 76.6026 34.9727Z" fill="white"/>
<path d="M70.5226 32.4993V33.7246V38.7417H64.0883V33.7246V32.4993H70.5226Z" fill="#C1D8ED"/>
<path d="M72.6315 33.7246H66.1971V38.742H72.6315V33.7246Z" fill="#DEE8F5"/>
<path d="M72.6315 33.7246H66.1971V34.1007H72.6315V33.7246Z" fill="#C1D8ED"/>
<path d="M66.1971 33.7246H72.6315V32.4995H66.1971V33.7246Z" fill="#DEE8F5"/>
<path d="M68.7156 35.4856H70.113C70.2028 35.4856 70.2756 35.4127 70.2756 35.3228V34.8951C70.2756 34.8051 70.2028 34.7322 70.113 34.7322H68.7156C68.6258 34.7322 68.5529 34.8051 68.5529 34.8951V35.3228C68.5529 35.4127 68.6258 35.4856 68.7156 35.4856Z" fill="white"/>
<path d="M82.3435 22.9713L81.3702 22.741L80.1501 27.9062L81.1234 28.1365L82.3435 22.9713Z" fill="white"/>
<path d="M80.2999 22.3394L79.7595 22.4392L80.5952 26.9731L81.1356 26.8733L80.2999 22.3394Z" fill="#C1D8ED"/>
<path d="M80.2995 22.3379L79.7596 22.4407L79.8547 22.9407L80.3945 22.8379L80.2995 22.3379Z" fill="#DEE8F5"/>
<path d="M81.9728 23.4924L80.2218 27.9409L80.5219 28.0592L82.2729 23.6108L81.9728 23.4924Z" fill="#C1D8ED"/>
<path d="M82.3557 25.4387H79.7164V28.8148H82.3557V25.4387Z" fill="#C1D8ED"/>
<path d="M78.3207 22.8071H76.0812V28.7491H78.3207V22.8071Z" fill="#C1D8ED"/>
<path d="M76.3051 21.9895H75.1069V28.7492H76.3051V21.9895Z" fill="#DEE8F5"/>
<path d="M75.1069 22.3711H73.2424V28.7493H75.1069V22.3711Z" fill="white"/>
<path d="M68.7196 22.3711H67.6302V28.7493H68.7196V22.3711Z" fill="#DEE8F5"/>
<path d="M70.8579 22.8265L68.8013 23.8289L71.1858 28.73L73.2425 27.7277L70.8579 22.8265Z" fill="#DEE8F5"/>
<path d="M67.6388 22.8433H65.3993V28.7853H67.6388V22.8433Z" fill="#C1D8ED"/>
<path d="M65.6234 22.0256H64.4253V28.7853H65.6234V22.0256Z" fill="#DEE8F5"/>
<path d="M64.4252 22.407H62.5608V28.7852H64.4252V22.407Z" fill="#C1D8ED"/>
<path d="M77.1576 42.7097L76.1167 42.3879L74.2361 48.4821L75.2769 48.8038L77.1576 42.7097Z" fill="#DEE8F5"/>
<path d="M65.7556 42.8611H63.5161V48.8031H65.7556V42.8611Z" fill="#C1D8ED"/>
<path d="M66.7296 42.0435H65.5315V48.8032H66.7296V42.0435Z" fill="white"/>
<path d="M68.5941 42.4253H66.7296V48.8035H68.5941V42.4253Z" fill="#DEE8F5"/>
<path d="M74.2064 42.4253H73.1171V48.8035H74.2064V42.4253Z" fill="#DEE8F5"/>
<path d="M73.0354 43.9018L70.9788 42.8994L68.5942 47.8006L70.6508 48.803L73.0354 43.9018Z" fill="white"/>
<path d="M77.7091 45.6272C77.7546 45.7089 77.8306 45.7692 77.9205 45.7949C78.0103 45.8206 78.1067 45.8096 78.1885 45.7643C78.2471 45.7446 78.3097 45.74 78.3706 45.7509C78.4314 45.7619 78.4886 45.7879 78.5367 45.8268C78.6955 45.9458 78.8063 46.1179 78.8491 46.3117H80.7053C80.7123 46.1997 80.7267 46.0884 80.7484 45.9783C80.7984 45.6778 80.94 45.4002 81.1538 45.1835C81.2047 45.1279 81.2728 45.0913 81.3471 45.0795C81.389 45.1034 81.4354 45.1185 81.4833 45.1237C81.5313 45.129 81.5798 45.1244 81.6259 45.1102C81.672 45.096 81.7147 45.0725 81.7513 45.0411C81.788 45.0097 81.8178 44.9712 81.839 44.9278C81.8603 44.8845 81.8724 44.8373 81.8747 44.789C81.8769 44.7408 81.8693 44.6927 81.8523 44.6475C81.8352 44.6023 81.8091 44.5612 81.7756 44.5265C81.742 44.4918 81.7018 44.4644 81.6572 44.4459C81.4909 44.3773 81.3075 44.3615 81.1319 44.4006C80.9564 44.4397 80.797 44.5319 80.6754 44.6646C80.5805 44.7525 80.4953 44.8505 80.4214 44.9568C80.4497 44.7767 80.4936 44.5994 80.5528 44.427C80.6239 44.2092 80.7543 44.0157 80.9295 43.8681C81.0003 43.8101 81.0458 43.7269 81.0565 43.636C81.0673 43.5451 81.0423 43.4535 80.987 43.3807C80.9316 43.3078 80.8502 43.2592 80.7598 43.2452C80.6694 43.2312 80.5771 43.2529 80.5024 43.3056C80.2178 43.5346 80.0053 43.8408 79.8902 44.1876C79.8775 44.2227 79.8667 44.2583 79.8547 44.2944C79.635 43.747 79.4102 43.2837 78.9567 43.0169C78.8763 42.9735 78.7822 42.963 78.6941 42.9876C78.6061 43.0122 78.5311 43.07 78.4847 43.1489C78.4384 43.2277 78.4244 43.3214 78.4457 43.4104C78.467 43.4993 78.5219 43.5766 78.5988 43.6258C78.8757 43.7887 79.0415 44.1567 79.2284 44.629C79.0221 44.3907 78.775 44.1912 78.4986 44.0399C78.4577 44.0146 78.4122 43.9979 78.3647 43.9909C78.3172 43.9838 78.2688 43.9865 78.2224 43.9988C78.176 44.0111 78.1326 44.0328 78.0948 44.0624C78.0571 44.0921 78.0258 44.1291 78.0028 44.1713C77.9798 44.2135 77.9657 44.2599 77.9612 44.3077C77.9568 44.3556 77.9621 44.4038 77.9769 44.4495C77.9917 44.4952 78.0156 44.5374 78.0473 44.5735C78.0789 44.6097 78.1176 44.6389 78.1609 44.6596C78.3759 44.7782 78.5666 44.9363 78.7229 45.1257C78.5844 45.0639 78.434 45.0338 78.2824 45.0374C78.1308 45.0411 77.982 45.0785 77.8466 45.1469C77.7648 45.1924 77.7044 45.2685 77.6786 45.3586C77.6528 45.4486 77.6638 45.5452 77.7091 45.6272Z" fill="#8DDBE0"/>
<path d="M81.3994 46.3118H78.1195V47.2661H81.3994V46.3118Z" fill="#DEE8F5"/>
<path d="M78.1188 47.2664V48.3126C78.1188 48.4427 78.1704 48.5675 78.2623 48.6595C78.3543 48.7515 78.479 48.8032 78.609 48.8032H80.9085C81.0385 48.8032 81.1632 48.7516 81.2552 48.6596C81.3472 48.5675 81.3989 48.4428 81.3989 48.3126V47.2664H78.1188Z" fill="#C1D8ED"/>
<path d="M128.02 22.8918V48.3125H114.468V48.8592H113.857V48.3125H100.305V22.8918H128.02Z" fill="white"/>
<path d="M128.02 16.5938H100.305V48.3122H128.02V16.5938Z" fill="white"/>
<g opacity="0.78">
<path d="M108.548 34.3923H101.832V48.859H108.548V34.3923Z" fill="#C1D8ED"/>
</g>
<g opacity="0.78">
<path d="M115.2 31.2945L121.733 29.2722V49.1361H115.2V31.2945Z" fill="#C1D8ED"/>
</g>
<path d="M107.992 37.1299L112.253 34.3127L116.239 37.1299V49.1362H107.992V37.1299Z" fill="#DEE8F5"/>
<path d="M128.013 40.1067H119.935V49.1361H128.013V40.1067Z" fill="#DEE8F5"/>
<path d="M103.23 43.7517H100.305V48.7841H103.23V43.7517Z" fill="#DEE8F5"/>
<path d="M128.02 35.2964H100.305V35.9079H128.02V35.2964Z" fill="#F3F5FD"/>
<path d="M128.02 28.6687H100.305V29.2802H128.02V28.6687Z" fill="#F3F5FD"/>
<path d="M128.02 41.9255H100.305V42.537H128.02V41.9255Z" fill="#F3F5FD"/>
<path d="M114.468 22.8918H113.857V48.8592H114.468V22.8918Z" fill="#F3F5FD"/>
<path d="M129.975 48.3123H98.3496V49.7704H129.975V48.3123Z" fill="#C1D8ED"/>
<path d="M129.975 15.1355H98.3496V16.5937H129.975V15.1355Z" fill="#C1D8ED"/>
<path d="M128.02 21.6182H100.305V22.8923H128.02V21.6182Z" fill="#DEE8F5"/>
<path d="M128.02 19.9434H100.305V21.2175H128.02V19.9434Z" fill="#DEE8F5"/>
<path d="M128.02 18.2686H100.305V19.5427H128.02V18.2686Z" fill="#DEE8F5"/>
<path d="M128.02 16.5938H100.305V17.8679H128.02V16.5938Z" fill="#DEE8F5"/>
<path d="M75.6492 25.7297C75.5974 20.7057 77.5812 17.5924 80.2711 15.883C82.9252 14.1963 91.248 12.7282 94.4033 18.8521C96.4625 22.8475 95.6498 24.2757 96.2329 30.6751C96.8161 37.0745 99.0582 37.7459 101.329 45.5024C103.112 51.5867 93.1277 54.8167 84.48 54.5375C75.8324 54.2582 70.3518 52.3424 69.8501 46.838C69.1299 38.9375 75.7507 35.5751 75.6492 25.7297Z" fill="#0F1011"/>
<path d="M80.8011 39.6201C80.8011 39.6201 83.3988 38.2109 82.7508 31.102L88.1349 30.0515C88.1349 30.0515 87.5872 36.4356 90.3343 38.4358L80.8011 39.6201Z" fill="#725145"/>
<g opacity="0.15">
<path d="M89.2169 37.1124L84.7052 33.7229L88.2238 33.6541C88.3689 34.8384 88.6575 36.1083 89.2169 37.1124Z" fill="black"/>
</g>
<path d="M79.6653 28.3715C80.0585 30.5264 81.2541 32.5598 83.1628 33.2394C85.4286 34.0465 87.1125 34.2998 89.7056 34.0642C95.6053 33.5255 94.3141 20.0996 91.4872 17.5155C88.6603 14.9315 80.4496 16.6585 79.488 21.033C78.9913 23.2954 79.2912 26.3199 79.6653 28.3715Z" fill="#725145"/>
<path d="M88.0912 26.631C88.3613 26.631 88.5802 26.4118 88.5802 26.1415C88.5802 25.8712 88.3613 25.6521 88.0912 25.6521C87.8211 25.6521 87.6022 25.8712 87.6022 26.1415C87.6022 26.4118 87.8211 26.631 88.0912 26.631Z" fill="#0F1011"/>
<path d="M91.9475 26.2789C92.2176 26.2789 92.4365 26.0598 92.4365 25.7895C92.4365 25.5192 92.2176 25.3 91.9475 25.3C91.6774 25.3 91.4585 25.5192 91.4585 25.7895C91.4585 26.0598 91.6774 26.2789 91.9475 26.2789Z" fill="#0F1011"/>
<path d="M92.7833 24.7384L91.4883 24.7339C91.4274 24.7339 91.3689 24.7097 91.3259 24.6665C91.2828 24.6234 91.2585 24.5649 91.2585 24.5039C91.2585 24.4429 91.2828 24.3844 91.3259 24.3413C91.3689 24.2982 91.4274 24.2739 91.4883 24.2739L92.7833 24.2784C92.8442 24.2784 92.9026 24.3026 92.9457 24.3458C92.9888 24.3889 93.013 24.4474 93.013 24.5084C93.013 24.5694 92.9888 24.6279 92.9457 24.671C92.9026 24.7142 92.8442 24.7384 92.7833 24.7384Z" fill="#0F1011"/>
<path d="M87.0252 25.2643C86.9691 25.2643 86.9149 25.2437 86.8729 25.2065C86.8309 25.1693 86.804 25.118 86.7971 25.0623C86.7903 25.0066 86.8041 24.9503 86.8358 24.904C86.8676 24.8578 86.9152 24.8247 86.9696 24.8111L88.2443 24.4916C88.2737 24.4836 88.3045 24.4816 88.3347 24.4857C88.365 24.4897 88.3941 24.4998 88.4205 24.5153C88.4468 24.5307 88.4698 24.5513 88.4881 24.5757C88.5064 24.6002 88.5196 24.628 88.5271 24.6577C88.5345 24.6873 88.536 24.7181 88.5314 24.7483C88.5268 24.7785 88.5162 24.8075 88.5003 24.8336C88.4843 24.8596 88.4634 24.8823 88.4387 24.9001C88.4139 24.918 88.3858 24.9308 88.3561 24.9377L87.0812 25.2572C87.0629 25.2619 87.0441 25.2643 87.0252 25.2643Z" fill="#0F1011"/>
<path d="M88.353 29.995C88.353 29.995 90.1603 30.1692 91.4217 29.7148C91.4217 29.7148 91.4217 30.9051 89.995 31.0345C88.5682 31.1638 88.353 29.995 88.353 29.995Z" fill="white"/>
<path d="M83.5866 22.7425C84.0283 30.3804 82.5095 36.2333 82.5095 36.2333C82.5095 36.2333 77.9074 30.7004 77.2121 24.7923C76.5597 19.2547 80.6114 15.9429 83.3634 15.3006C93.8221 12.8588 94.5484 20.4942 94.5484 20.4942C93.8723 23.0987 82.4549 24.7148 82.4549 24.7148" fill="#0F1011"/>
<path d="M85.6409 28.2742C85.6881 28.821 85.5171 29.3642 85.1653 29.7851C84.8134 30.206 84.3092 30.4703 83.7632 30.5202C83.2171 30.57 82.6736 30.4014 82.2514 30.0511C81.8292 29.7009 81.5629 29.1976 81.5105 28.6512C81.481 28.379 81.5066 28.1035 81.5857 27.8413C81.6648 27.5791 81.7958 27.3355 81.9709 27.1251C82.146 26.9146 82.3616 26.7415 82.605 26.6162C82.8483 26.4909 83.1143 26.4159 83.3872 26.3957C84.8648 26.3342 85.5368 27.1328 85.6409 28.2742Z" fill="#725145"/>
<g opacity="0.15">
<path d="M90.2861 28.8372C90.2458 28.8371 90.207 28.8227 90.1764 28.7965C90.1459 28.7702 90.1257 28.7339 90.1195 28.6941C90.1134 28.6543 90.1216 28.6136 90.1428 28.5794C90.164 28.5451 90.1967 28.5196 90.235 28.5073L91.2271 28.1922L90.5171 26.6476C90.5063 26.6273 90.4998 26.605 90.4979 26.5821C90.496 26.5592 90.4989 26.5362 90.5062 26.5144C90.5135 26.4926 90.5252 26.4726 90.5406 26.4555C90.5559 26.4384 90.5746 26.4246 90.5954 26.415C90.6163 26.4053 90.6388 26.4001 90.6618 26.3995C90.6848 26.3989 90.7076 26.403 90.7289 26.4115C90.7502 26.4201 90.7696 26.4329 90.7858 26.4491C90.802 26.4654 90.8147 26.4848 90.8231 26.5062L91.613 28.2245C91.6231 28.2463 91.6284 28.2699 91.6286 28.2939C91.6288 28.3178 91.6239 28.3415 91.6142 28.3634C91.6045 28.3854 91.5903 28.405 91.5725 28.4209C91.5547 28.4369 91.5337 28.4489 91.5108 28.4562L90.3367 28.829C90.3204 28.8343 90.3033 28.8371 90.2861 28.8372Z" fill="black"/>
</g>
<path d="M116.233 42.5677C116.233 42.5677 116.771 38.557 119.615 39.115C121.409 39.4671 130.057 40.1137 130.089 40.9139C130.17 42.8934 122.247 42.4091 121.313 44.1298L116.233 42.5677Z" fill="#725145"/>
<path d="M118.583 39.1203C118.583 39.1203 122.734 38.3038 123.687 38.6565C124.531 38.9688 122.548 40.1647 122.548 40.1647L118.583 39.1203Z" fill="#725145"/>
<path d="M106.089 65.3812C106.035 65.3812 105.982 65.3812 105.928 65.3772C105.359 65.3495 104.807 65.1744 104.326 64.8691C103.844 64.5638 103.45 64.1387 103.182 63.6353L92.618 43.7929L98.7906 41.054L106.401 55.6639L116.533 40.4177L122.016 44.0681L108.83 63.9106C108.53 64.3628 108.122 64.7337 107.644 64.9903C107.166 65.2468 106.632 65.3811 106.089 65.3812Z" fill="#28A0CB"/>
<path d="M99.3067 68.4189H72.3288C73.0441 66.3224 73.4385 64.1297 73.4987 61.9151C73.5034 61.7197 73.5058 61.5209 73.5058 61.3187C73.4901 60.1952 73.3605 59.0762 73.1187 57.9789C72.2271 53.6485 70.1051 48.9537 70.2259 44.9763C70.2819 43.0808 70.8493 41.3474 72.3001 39.8941C73.8389 38.3552 76.4945 37.3612 79.7329 37.3577C79.975 39.2475 91.4411 39.2544 91.5285 37.401C91.9666 37.4079 92.3068 37.4147 92.5173 37.4246C96.6123 37.6018 98.5462 39.424 99.3474 42.1217C100.414 45.7061 99.4799 50.8351 98.9617 55.7059C98.8052 57.1683 98.6877 58.6081 98.6717 59.9746C98.6096 62.8033 98.8223 65.6314 99.3067 68.4189Z" fill="#28A0CB"/>
<path d="M91.5282 37.4005C91.4408 39.2534 90.4341 41.9791 87.3272 42.1841C83.1868 42.4572 79.9754 39.2463 79.7329 37.3562H79.743C83.8197 37.3567 89.1517 37.3633 91.5282 37.4005Z" fill="#725145"/>
<path d="M85.5791 65.2399L84.7056 68.4188H72.3288C72.3279 68.4219 72.3267 68.4248 72.3253 68.4277L72.2933 68.4188L67.0147 66.9653C66.5897 66.8483 66.1926 66.647 65.8467 66.3735C65.5009 66.1 65.2134 65.7598 65.0013 65.373C64.7893 64.9863 64.6569 64.5609 64.6121 64.122C64.5674 63.6831 64.611 63.2397 64.7406 62.818L70.2264 44.9754L70.8599 42.9131L77.1546 44.851L73.1192 57.9781L72.0336 61.5109L73.4992 61.9143L85.5791 65.2399Z" fill="#28A0CB"/>
<path d="M227.914 11.4133H142.414V68.4181H227.914V11.4133Z" fill="#F3F5FD"/>
<path d="M186.248 40.6885V20.3887H161.612V40.6885H186.248Z" fill="#DEE8F5"/>
<path d="M184.549 38.9886V22.0886H163.31V38.9886H184.549Z" fill="white"/>
<path d="M177.289 34.3536V25.3157H166.725V34.3536H177.289Z" fill="#C1D8ED"/>
<path d="M177.87 37.1387C179.673 37.1387 181.135 35.6758 181.135 33.8712C181.135 32.0667 179.673 30.6038 177.87 30.6038C176.067 30.6038 174.606 32.0667 174.606 33.8712C174.606 35.6758 176.067 37.1387 177.87 37.1387Z" fill="#DEE8F5"/>
<path d="M172.774 37.139V29.8347H171.333V37.139H172.774Z" fill="#F3F5FD"/>
<path d="M172.506 68.2474C172.111 68.1138 171.754 67.8848 171.468 67.5807C171.182 67.2767 170.974 66.9068 170.864 66.5036C170.654 65.6918 170.681 64.8364 170.943 64.0397C171.134 63.387 171.423 62.7562 171.494 62.0799C171.732 59.8281 169.549 57.5272 170.576 55.5096C170.908 54.8571 171.551 54.3472 171.666 53.6245C171.76 53.0264 171.466 52.4463 171.32 51.8571C171.206 51.4552 171.184 51.0325 171.258 50.6212C171.332 50.2098 171.498 49.8207 171.745 49.4835C172.269 48.8359 173.259 48.5529 173.981 48.9677C174.926 49.5097 175.008 50.8491 174.765 51.9116C174.522 52.9741 174.073 54.0673 174.369 55.1163C174.652 56.116 175.572 56.8688 175.737 57.8946C175.874 58.7472 175.458 59.5787 175.276 60.4228C174.988 61.7495 175.281 63.1247 175.293 64.482C175.306 65.8394 174.923 67.3604 172.506 68.2474Z" fill="#8DDBE0"/>
<path d="M171.272 68.0666C170.319 67.7768 169.558 67.2418 169.368 66.2627C169.211 65.4549 169.403 64.5477 168.962 63.854C168.363 62.9135 167.75 62.8072 167.004 61.9785C165.859 60.7044 165.819 60.1405 165.894 57.7798C165.926 56.7816 164.549 55.6552 165.034 54.6964C165.461 53.8513 166.76 53.848 167.496 54.4416C168.233 55.0352 168.556 55.9891 168.877 56.8801C169.199 57.771 169.603 58.7134 170.416 59.1969C170.904 59.4868 171.543 59.6211 171.812 60.1207C172.029 60.5213 171.92 61.0123 171.833 61.4603C171.614 62.5862 171.668 63.9598 172.613 64.6102C173.039 64.9035 173.597 65.0044 173.947 65.3852C174.293 65.7622 174.349 66.3195 174.325 66.8306" fill="#DEE8F5"/>
<path d="M181.106 54.0248C181.106 55.4504 180.037 56.0631 179.493 56.7088C178.71 57.6436 178.294 58.8327 178.325 60.0526C178.363 61.4146 178.942 62.8638 178.323 64.0774C177.869 64.9681 176.899 65.4441 176.136 66.0898C175.407 66.7131 174.853 67.5154 174.528 68.4179H171.945C171.745 67.9611 171.658 67.4629 171.69 66.9652C171.721 66.4676 171.872 65.9848 172.129 65.5572C172.708 64.6405 173.784 64.009 174.01 62.9486C174.212 62.0037 173.652 61.0281 173.821 60.0785C174.003 59.044 174.956 58.3653 175.714 57.6395C175.912 57.4632 176.081 57.2582 176.218 57.0316C176.55 56.4307 176.458 55.6955 176.571 55.0168C176.788 53.7208 177.857 52.5685 179.154 52.354C180.291 52.1655 181.106 52.8206 181.106 54.0248Z" fill="#F3F5FD"/>
<path d="M176.079 66.9241H169.221V68.4181H176.079V66.9241Z" fill="#FFBC78"/>
<path d="M223.324 62.6858H204.402L205.685 48.714C205.716 48.3797 205.87 48.0689 206.118 47.8427C206.366 47.6164 206.689 47.491 207.024 47.491H223.246C223.433 47.4909 223.618 47.5299 223.789 47.6055C223.96 47.6811 224.114 47.7915 224.24 47.9298C224.366 48.0681 224.462 48.2312 224.521 48.4086C224.581 48.5861 224.603 48.774 224.586 48.9604L223.324 62.6858Z" fill="#C1D8ED"/>
<path d="M206.522 56.1545H193.658V67.6712H206.522V56.1545Z" fill="#C1D8ED"/>
<path d="M219.657 62.6858H201.432L202.715 48.714C202.746 48.3797 202.901 48.069 203.148 47.8427C203.396 47.6165 203.719 47.491 204.055 47.491H219.578C219.765 47.4909 219.95 47.5299 220.121 47.6055C220.292 47.6811 220.446 47.7915 220.572 47.9298C220.698 48.0681 220.794 48.2312 220.853 48.4086C220.913 48.5861 220.935 48.774 220.917 48.9604L219.657 62.6858Z" fill="#DEE8F5"/>
<g opacity="0.48">
<path d="M219.657 62.6858H201.432L202.715 48.714C202.746 48.3797 202.901 48.069 203.148 47.8427C203.396 47.6165 203.719 47.491 204.055 47.491H219.578C219.765 47.4909 219.95 47.5299 220.121 47.6055C220.292 47.6811 220.446 47.7915 220.572 47.9298C220.698 48.0681 220.794 48.2312 220.853 48.4086C220.913 48.5861 220.935 48.774 220.917 48.9604L219.657 62.6858Z" fill="#C1D8ED"/>
</g>
<path d="M226.089 58.0638V67.6969C226.09 67.9442 226.042 68.1892 225.948 68.418H213.224V56.155H224.182C224.688 56.155 225.173 56.3561 225.53 56.7141C225.888 57.072 226.089 57.5575 226.089 58.0638Z" fill="#C1D8ED"/>
<path d="M215.318 58.2511V67.512C215.318 67.8261 215.247 68.1363 215.11 68.4192H191.769C191.633 68.1361 191.563 67.826 191.564 67.512V58.2511C191.582 57.7074 191.811 57.192 192.202 56.8138C192.592 56.4356 193.115 56.2242 193.658 56.2242C194.202 56.2242 194.724 56.4356 195.115 56.8138C195.506 57.192 195.734 57.7074 195.753 58.2511V65.4171H211.131V58.2511C211.131 57.6955 211.352 57.1627 211.744 56.7698C212.137 56.377 212.669 56.1562 213.225 56.1563C213.78 56.1562 214.312 56.377 214.705 56.7698C215.097 57.1627 215.318 57.6955 215.318 58.2511Z" fill="#DEE8F5"/>
<path d="M194.655 61.2803H211.16V65.7622H194.655C194.301 65.7622 193.96 65.6211 193.709 65.37C193.458 65.1189 193.317 64.7782 193.317 64.4231V62.6194C193.317 62.2643 193.458 61.9237 193.709 61.6725C193.96 61.4214 194.301 61.2803 194.655 61.2803Z" fill="#F3F5FD"/>
<g opacity="0.15">
<path d="M194.655 61.2803H211.16V65.7622H194.655C194.301 65.7622 193.96 65.6211 193.709 65.37C193.458 65.1189 193.317 64.7782 193.317 64.4231V62.6194C193.317 62.2643 193.458 61.9237 193.709 61.6725C193.96 61.4214 194.301 61.2803 194.655 61.2803Z" fill="#C1D8ED"/>
</g>
<path d="M151.189 66.9241H164.053V56.1544H151.189V66.9241Z" fill="#C1D8ED"/>
<path d="M156.279 62.6848H142.414V47.4905H153.656C153.992 47.4902 154.315 47.6155 154.563 47.8418C154.811 48.0681 154.965 48.3791 154.996 48.7135L156.279 62.6848Z" fill="#DEE8F5"/>
<g opacity="0.48">
<path d="M156.279 62.6848H142.414V47.4905H153.656C153.992 47.4902 154.315 47.6155 154.563 47.8418C154.811 48.0681 154.965 48.3791 154.996 48.7135L156.279 62.6848Z" fill="#C1D8ED"/>
</g>
<path d="M144.489 56.155V68.418H142.415V67.8077C142.401 67.7093 142.394 67.6101 142.394 67.5107V58.2511C142.394 58.1517 142.401 58.0525 142.415 57.9542V56.1562L144.489 56.155Z" fill="#C1D8ED"/>
<path d="M166.146 58.2511V67.512C166.147 67.826 166.077 68.1361 165.941 68.4192H142.6C142.463 68.1362 142.393 67.8261 142.393 67.512V58.2511C142.392 58.1518 142.4 58.0525 142.414 57.9542C142.492 57.4325 142.765 56.9596 143.176 56.6299C143.588 56.3002 144.109 56.1379 144.634 56.1754C145.16 56.2128 145.653 56.4473 146.014 56.832C146.374 57.2168 146.577 57.7235 146.581 58.2511V65.4171H161.96V58.2511C161.96 57.6955 162.18 57.1627 162.573 56.7698C162.966 56.377 163.498 56.1562 164.053 56.1563C164.608 56.1562 165.14 56.377 165.533 56.7698C165.926 57.1627 166.146 57.6955 166.146 58.2511Z" fill="#DEE8F5"/>
<path d="M163.056 65.7622H146.552V61.2802H163.056C163.411 61.2802 163.751 61.4213 164.002 61.6725C164.253 61.9236 164.394 62.2642 164.394 62.6194V64.423C164.394 64.7782 164.253 65.1188 164.002 65.37C163.751 65.6211 163.411 65.7622 163.056 65.7622Z" fill="#F3F5FD"/>
<g opacity="0.15">
<path d="M163.056 65.7622H146.552V61.2802H163.056C163.411 61.2802 163.751 61.4213 164.002 61.6725C164.253 61.9236 164.394 62.2642 164.394 62.6194V64.423C164.394 64.7782 164.253 65.1188 164.002 65.37C163.751 65.6211 163.411 65.7622 163.056 65.7622Z" fill="#C1D8ED"/>
</g>
<path d="M192.61 40.4186C192.61 40.4186 189.751 39.0005 190.17 31.303L184.318 30.3818C184.318 30.3818 185.161 37.2499 182.275 39.5168L192.61 40.4186Z" fill="#E2B764"/>
<g opacity="0.15">
<path d="M183.429 38.0446L188.164 34.2085L184.364 34.2733C184.255 35.5571 183.993 36.9389 183.429 38.0446Z" fill="black"/>
</g>
<path d="M193.392 28.2342C193.053 30.5756 191.843 32.8168 189.81 33.6257C187.396 34.5862 185.592 34.696 182.781 34.7731C178.946 34.8782 178.963 30.8711 178.745 26.8394C178.526 22.7915 178.729 18.4375 180.206 16.9845C183.155 14.0842 192.085 15.6251 193.294 20.3071C193.92 22.7298 193.715 26.0059 193.392 28.2342Z" fill="#E2B764"/>
<path d="M189.956 33.4008C190.087 33.7849 190.176 33.9515 190.519 33.7347C191.866 32.8831 194.899 31.0274 195.766 24.3624C196.543 18.3902 192.812 16.0382 189.865 15.2429C187.325 14.5577 181.441 14.5638 178.727 16.3033C176.389 17.803 178.858 21.0744 178.858 21.0744C179.91 21.0942 180.147 21.9934 182.626 21.9246C184.543 21.8721 185.766 20.9804 187.563 21.0056C189.208 21.0292 189.572 22.0229 189.532 22.6657C189.285 26.5751 189.49 32.0425 189.956 33.4008Z" fill="#0F1011"/>
<path d="M184.211 26.6894C184.503 26.6894 184.739 26.4528 184.739 26.1609C184.739 25.869 184.503 25.6323 184.211 25.6323C183.919 25.6323 183.683 25.869 183.683 26.1609C183.683 26.4528 183.919 26.6894 184.211 26.6894Z" fill="#0F1011"/>
<path d="M180.036 26.4616C180.327 26.4616 180.564 26.225 180.564 25.9331C180.564 25.6412 180.327 25.4045 180.036 25.4045C179.744 25.4045 179.508 25.6412 179.508 25.9331C179.508 26.225 179.744 26.4616 180.036 26.4616Z" fill="#0F1011"/>
<path d="M179.083 24.8318C179.018 24.8316 178.956 24.8059 178.91 24.7604C178.864 24.7149 178.837 24.6531 178.836 24.5883C178.835 24.5235 178.859 24.4607 178.903 24.4135C178.948 24.3662 179.009 24.3382 179.074 24.3353L180.472 24.2795C180.504 24.2782 180.537 24.2833 180.568 24.2946C180.598 24.3059 180.626 24.3231 180.65 24.3452C180.674 24.3673 180.693 24.394 180.707 24.4236C180.721 24.4532 180.728 24.4852 180.73 24.5178C180.731 24.5504 180.726 24.583 180.715 24.6136C180.703 24.6442 180.686 24.6723 180.664 24.6963C180.642 24.7203 180.615 24.7396 180.586 24.7533C180.556 24.767 180.524 24.7747 180.492 24.776L179.093 24.8316L179.083 24.8318Z" fill="#0F1011"/>
<path d="M185.318 25.1719C185.301 25.1719 185.283 25.1701 185.266 25.1665L183.878 24.8722C183.846 24.8658 183.815 24.8531 183.788 24.8347C183.761 24.8164 183.737 24.7928 183.719 24.7653C183.701 24.7379 183.689 24.7071 183.682 24.6747C183.676 24.6424 183.677 24.6092 183.683 24.577C183.69 24.5448 183.703 24.5143 183.722 24.4872C183.741 24.4602 183.765 24.4371 183.792 24.4193C183.82 24.4016 183.851 24.3895 183.883 24.3839C183.916 24.3782 183.949 24.379 183.981 24.3863L185.37 24.6806C185.43 24.6933 185.483 24.7278 185.519 24.7774C185.555 24.827 185.572 24.8882 185.565 24.9492C185.559 25.0102 185.53 25.0668 185.485 25.1079C185.439 25.149 185.38 25.1718 185.319 25.1719H185.318Z" fill="#0F1011"/>
<path d="M186.993 27.3788C186.961 27.9726 187.166 28.5548 187.562 28.9975C187.959 29.4402 188.515 29.7071 189.108 29.7394C189.701 29.7718 190.283 29.5669 190.726 29.17C191.168 28.773 191.434 28.2165 191.467 27.6227C191.534 26.3865 190.589 25.2691 189.353 25.2628C187.754 25.2543 187.061 26.1427 186.993 27.3788Z" fill="#E2B764"/>
<g opacity="0.15">
<path d="M181.942 29.1566C181.926 29.1566 181.909 29.1544 181.894 29.15L180.612 28.7942C180.587 28.7873 180.564 28.7751 180.544 28.7586C180.524 28.742 180.508 28.7214 180.496 28.6982C180.485 28.6749 180.479 28.6495 180.478 28.6236C180.477 28.5978 180.482 28.5721 180.492 28.5482L181.277 26.663C181.295 26.6184 181.331 26.583 181.376 26.5645C181.42 26.5461 181.47 26.5462 181.515 26.5648C181.56 26.5833 181.595 26.6188 181.613 26.6635C181.632 26.7082 181.632 26.7584 181.613 26.803L180.907 28.498L181.99 28.7987C182.032 28.8106 182.069 28.8374 182.093 28.8742C182.117 28.911 182.127 28.9553 182.121 28.999C182.115 29.0426 182.094 29.0826 182.061 29.1117C182.028 29.1407 181.985 29.1569 181.941 29.1571L181.942 29.1566Z" fill="black"/>
</g>
<path d="M184.081 30.3299C184.081 30.3299 182.137 30.5891 180.758 30.1487C180.758 30.1487 180.805 31.4332 182.35 31.5175C183.894 31.6019 184.081 30.3299 184.081 30.3299Z" fill="white"/>
<path d="M152.633 40.8264C152.633 40.8264 153.038 37.8116 153.546 37.755C154.394 37.6608 155.134 41.7417 155.497 42.6381L151.514 43.9004" fill="#E2B764"/>
<path d="M148.885 34.4819C147.663 34.8667 147.96 38.7252 149.334 42.1168C150.707 45.5084 152.783 47.8691 153.97 47.3877C155.157 46.9063 155.006 43.7658 153.634 40.3733C152.261 36.9807 151.514 33.6539 148.885 34.4819Z" fill="#E2B764"/>
<path d="M160.566 66.5106C159.815 66.5107 159.081 66.2837 158.461 65.8593C157.841 65.4349 157.364 64.8329 157.092 64.1322L148.885 43.0048L155.832 40.3013L161.758 55.5586L174.543 40.3208L180.252 45.1174L163.42 65.179C163.07 65.5959 162.633 65.9312 162.14 66.1612C161.647 66.3913 161.11 66.5105 160.566 66.5106Z" fill="#07648D"/>
<path d="M199.76 62.092C199.755 64.2375 200.065 66.3721 200.681 68.4271H173.704C174.087 65.8785 174.253 63.302 174.202 60.7253C174.092 51.2331 169.107 38.3122 180.45 37.8249C180.665 37.8143 181.011 37.8072 181.455 37.8013C181.543 39.6834 193.187 39.6763 193.434 37.7554C196.722 37.7589 199.421 38.7686 200.984 40.3333C201.712 41.0505 202.272 41.9215 202.621 42.8828C204.05 46.8131 201.926 51.87 200.635 56.6901C200.134 58.5508 199.76 60.3799 199.76 62.092Z" fill="#07648D"/>
<path d="M181.456 37.8011C181.544 39.683 182.567 42.4509 185.722 42.6597C189.927 42.9368 193.188 39.6762 193.435 37.7566H193.424C189.284 37.7566 183.869 37.7634 181.456 37.8011Z" fill="#E2B764"/>
<path d="M212 68.4278H204.481L203.892 64.0314L200.636 56.6899L195.845 45.8973L202.622 42.8811L202.658 42.8669L210.921 61.4911C211.064 61.8148 211.161 62.1571 211.207 62.5079L212 68.4278Z" fill="#07648D"/>
<path d="M227.914 74.0103H142.414V131.015H227.914V74.0103Z" fill="#F3F5FD"/>
<path d="M147.615 130.273C148.283 130.462 148.933 130.71 149.557 131.015H145.31C145.317 130.961 145.33 130.908 145.35 130.857C145.436 130.658 145.573 130.486 145.747 130.358C145.921 130.229 146.126 130.148 146.341 130.124C146.499 130.101 146.66 130.097 146.819 130.112C146.821 130.112 146.821 130.112 146.821 130.11C147.067 130.135 147.309 130.184 147.546 130.254C147.57 130.261 147.593 130.264 147.615 130.273Z" fill="#DEE8F5"/>
<path d="M164.844 129.066C164.581 129.75 164.245 130.403 163.841 131.015H151.429C151.337 130.873 151.233 130.74 151.118 130.617C150.923 130.412 150.71 130.227 150.48 130.063C150.176 129.841 149.851 129.641 149.533 129.438C148.35 128.684 147.229 127.836 146.181 126.903C145.432 126.236 144.702 125.496 144.347 124.558C144.251 124.348 144.198 124.121 144.191 123.89C144.183 123.659 144.222 123.429 144.304 123.213C144.624 122.527 145.536 122.336 146.28 122.477C147.584 122.727 148.627 123.684 149.552 124.638C150.317 125.432 151.177 126.309 152.279 126.358C152.467 126.376 152.655 126.338 152.822 126.25C152.969 126.139 153.076 125.983 153.127 125.806C153.177 125.629 153.17 125.44 153.105 125.267C152.965 124.927 152.753 124.62 152.483 124.37C151.028 122.807 149.599 121.184 148.655 119.27C147.711 117.357 147.292 115.099 147.949 113.07C148.123 112.468 148.443 111.917 148.881 111.468C149.102 111.246 149.369 111.075 149.663 110.968C149.957 110.861 150.272 110.82 150.583 110.848C151.426 110.959 152.06 111.671 152.488 112.406C153.957 114.93 153.865 118.021 154.28 120.91C154.395 121.721 154.565 122.55 155.045 123.217C155.089 123.282 155.147 123.335 155.214 123.375C155.61 123.604 155.966 123.14 156.116 122.748C156.373 122.07 156.545 121.346 156.742 120.644C156.921 119.936 157.194 119.256 157.552 118.62C157.659 118.449 157.775 118.284 157.901 118.127C158.301 117.64 158.871 117.23 159.502 117.232C160.276 117.239 160.938 117.885 161.162 118.625C161.385 119.365 161.254 120.168 161.011 120.903C160.532 122.26 159.784 123.505 158.812 124.565C158.313 125.133 157.748 125.706 157.597 126.448C157.552 126.7 157.571 126.959 157.653 127.202C157.736 127.444 157.878 127.662 158.068 127.834C158.157 127.911 158.26 127.97 158.373 128.006C158.485 128.043 158.603 128.056 158.72 128.046C158.972 128.004 159.212 127.909 159.424 127.768C159.518 127.713 159.61 127.662 159.704 127.607C160.074 127.398 160.444 127.187 160.813 126.976C161.753 126.439 162.885 125.892 163.865 126.354C164.106 126.477 164.319 126.651 164.488 126.864C164.657 127.076 164.778 127.323 164.844 127.586C164.983 128.07 164.983 128.583 164.844 129.066Z" fill="#DEE8F5"/>
<path d="M209.217 87.0333C211.849 87.0333 213.983 84.8979 213.983 82.2638C213.983 79.6297 211.849 77.4944 209.217 77.4944C206.586 77.4944 204.452 79.6297 204.452 82.2638C204.452 84.8979 206.586 87.0333 209.217 87.0333Z" fill="#C1D8ED"/>
<path d="M208.246 87.0333C210.878 87.0333 213.011 84.8979 213.011 82.2638C213.011 79.6297 210.878 77.4944 208.246 77.4944C205.614 77.4944 203.481 79.6297 203.481 82.2638C203.481 84.8979 205.614 87.0333 208.246 87.0333Z" fill="#DEE8F5"/>
<path d="M208.246 86.3305C210.49 86.3305 212.309 84.5098 212.309 82.2638C212.309 80.0178 210.49 78.197 208.246 78.197C206.002 78.197 204.183 80.0178 204.183 82.2638C204.183 84.5098 206.002 86.3305 208.246 86.3305Z" fill="#F3F5FD"/>
<path d="M208.246 82.6389C208.212 82.639 208.178 82.6298 208.148 82.6122C208.119 82.5951 208.095 82.5706 208.078 82.5412C208.061 82.5118 208.052 82.4784 208.052 82.4445V79.4395C208.052 79.388 208.072 79.3385 208.109 79.3021C208.145 79.2656 208.195 79.2451 208.246 79.2451C208.298 79.2451 208.347 79.2656 208.383 79.3021C208.42 79.3385 208.44 79.388 208.44 79.4395V82.1122L210.112 81.172C210.134 81.1587 210.159 81.15 210.185 81.1464C210.21 81.1428 210.236 81.1444 210.261 81.1511C210.287 81.1578 210.31 81.1695 210.33 81.1854C210.351 81.2013 210.368 81.2211 210.381 81.2437C210.393 81.2664 210.402 81.2913 210.404 81.3171C210.407 81.3429 210.405 81.369 210.398 81.3939C210.39 81.4188 210.378 81.4419 210.362 81.462C210.345 81.4821 210.325 81.4987 210.302 81.5108L208.342 82.6139C208.313 82.6303 208.28 82.6389 208.246 82.6389Z" fill="#DEE8F5"/>
<path d="M214.166 122.654L213.945 123.733L212.454 131.015H211.774L213.271 123.733L213.559 122.331L214.166 122.654Z" fill="#C1D8ED"/>
<path d="M223.235 131.015H222.557L221.065 123.733L220.839 122.633L221.448 122.31L221.74 123.733L223.235 131.015Z" fill="#C1D8ED"/>
<path d="M223.825 121.299H211.181C210.862 121.299 210.603 121.558 210.603 121.878V123.154C210.603 123.474 210.862 123.733 211.181 123.733H223.825C224.144 123.733 224.404 123.474 224.404 123.154V121.878C224.404 121.558 224.144 121.299 223.825 121.299Z" fill="#DEE8F5"/>
<path d="M221.198 112.638C220.686 112.47 220.16 112.659 219.658 113.041C220.32 111.368 220.593 109.856 219.461 109.789C218.669 109.742 218.062 110.35 217.601 111.215C217.439 109.694 217.021 108.56 216.084 108.936C215.055 109.349 214.899 110.763 215.055 112.243C214.602 111.487 214.113 111.065 213.671 111.509C212.349 112.832 215.594 116.562 215.594 116.562H216.4L216.86 117.061C216.767 117.258 216.716 117.375 216.716 117.375L217.3 118.565C217.3 118.565 223.322 113.335 221.198 112.638Z" fill="#DEE8F5"/>
<path d="M219.753 121.23H215.192L214.428 115.901H220.516L219.753 121.23Z" fill="#C1D8ED"/>
<path d="M203.543 127.759H180.773L182.68 110.471C182.779 109.904 183.075 109.389 183.516 109.019C183.956 108.648 184.514 108.445 185.089 108.445H202.895C203.252 108.445 203.604 108.523 203.927 108.673C204.251 108.824 204.537 109.044 204.767 109.317C204.996 109.59 205.163 109.91 205.256 110.255C205.349 110.6 205.365 110.96 205.304 111.312L203.543 127.759Z" fill="#C1D8ED"/>
<path d="M200.433 119.619C200.433 119.619 200.32 123.632 200.087 127.758C200.026 128.861 199.955 129.971 199.875 131.015H164.974V122.207C164.973 121.521 165.245 120.863 165.73 120.378C166.214 119.892 166.871 119.62 167.556 119.619H200.433Z" fill="#F3F5FD"/>
<path d="M191.051 119.619V131.015H170.497V122.207C170.497 121.867 170.564 121.53 170.694 121.216C170.824 120.902 171.014 120.617 171.254 120.377C171.494 120.137 171.779 119.946 172.093 119.816C172.406 119.686 172.743 119.619 173.082 119.619H191.051Z" fill="#DEE8F5"/>
<path d="M198.97 127.759H176.199L178.107 110.471C178.206 109.904 178.501 109.389 178.942 109.019C179.383 108.648 179.94 108.445 180.515 108.445H198.322C198.679 108.445 199.031 108.523 199.355 108.673C199.678 108.824 199.964 109.044 200.194 109.317C200.423 109.59 200.59 109.91 200.683 110.255C200.776 110.6 200.792 110.96 200.731 111.312L198.97 127.759Z" fill="#DEE8F5"/>
<path d="M195.67 129.648V131.015H165.875V129.648C165.875 129.4 165.924 129.154 166.019 128.925C166.114 128.696 166.253 128.487 166.428 128.312C166.604 128.136 166.812 127.997 167.041 127.902C167.27 127.807 167.515 127.758 167.763 127.758H193.782C194.03 127.758 194.275 127.807 194.505 127.902C194.734 127.997 194.942 128.136 195.117 128.312C195.292 128.487 195.432 128.696 195.526 128.925C195.621 129.154 195.67 129.4 195.67 129.648Z" fill="white"/>
<path d="M205.438 119.619V131.015H190.354V122.207C190.354 121.867 190.421 121.53 190.551 121.216C190.68 120.902 190.871 120.617 191.111 120.377C191.351 120.137 191.636 119.946 191.95 119.816C192.263 119.686 192.6 119.619 192.939 119.619H205.438Z" fill="#F3F5FD"/>
<path d="M208.756 122.046V131.015H195.877V122.207C195.877 121.867 195.944 121.53 196.074 121.216C196.204 120.902 196.394 120.617 196.634 120.377C196.874 120.137 197.159 119.946 197.473 119.816C197.787 119.686 198.123 119.619 198.462 119.619H206.331C206.974 119.619 207.591 119.875 208.046 120.33C208.5 120.785 208.756 121.403 208.756 122.046Z" fill="#DEE8F5"/>
<path d="M159.967 97.3027H159.697V103.974H159.967V97.3027Z" fill="#C1D8ED"/>
<path d="M159.832 104.859C160.182 104.859 160.465 104.575 160.465 104.226C160.465 103.876 160.182 103.593 159.832 103.593C159.483 103.593 159.2 103.876 159.2 104.226C159.2 104.575 159.483 104.859 159.832 104.859Z" fill="#C1D8ED"/>
<path d="M157.604 93.1255L157.588 101.312L157.552 118.62L157.527 131.015H156.721L156.742 120.644L156.783 101.312L156.799 93.1255H157.604Z" fill="#C1D8ED"/>
<path d="M163.118 101.312H150.944L153.231 89.8909H160.831L163.118 101.312Z" fill="#DEE8F5"/>
<path d="M164.499 130.369C163.94 130.369 163.389 130.232 162.894 129.972C162.4 129.712 161.975 129.335 161.658 128.874C161.341 128.413 161.141 127.882 161.074 127.327C161.008 126.771 161.077 126.208 161.276 125.685L168.07 107.851L172.862 109.68L175.691 105.824L181.253 109.912L167.281 128.959C166.961 129.396 166.542 129.752 166.058 129.997C165.575 130.242 165.04 130.369 164.499 130.369Z" fill="#00BDE3"/>
<path d="M204.82 130.384C204.433 130.681 203.99 130.896 203.518 131.015H201.759C201.456 130.938 201.165 130.822 200.892 130.67L199.93 130.132C200.038 130.433 200.14 130.726 200.232 131.015H171.871C172.396 128.717 173.337 125.439 173.264 119.231C173.159 110.108 168.367 100.648 179.271 100.179C179.477 100.168 179.81 100.163 180.236 100.155C180.322 101.963 191.513 101.958 191.751 100.111C194.912 100.115 197.504 101.085 199.005 102.588C199.991 103.516 200.663 104.73 200.927 106.059L206.113 126.663C206.284 127.342 206.252 128.056 206.023 128.717C205.793 129.378 205.375 129.958 204.82 130.384Z" fill="#00BDE3"/>
<path d="M180.236 100.156C180.321 101.964 181.304 104.625 184.337 104.826C188.379 105.092 191.513 101.958 191.75 100.113H191.74C187.761 100.113 182.556 100.119 180.236 100.156Z" fill="#BB6751"/>
<path d="M176.243 106.318C176.414 106.548 176.27 106.877 175.346 107.85C174.771 108.458 174.068 109.304 173.549 109.942L168.846 108.146C169.182 106.758 169.717 104.844 170.217 104.41C171.017 103.712 173.986 105.054 173.986 105.054C173.986 105.054 174.308 104.068 174.729 103.048C175.212 101.874 175.826 100.654 176.227 100.854C176.615 101.048 176.329 102.262 175.885 103.564C175.317 105.242 174.485 107.064 174.485 107.064C174.485 107.064 175.823 105.757 176.243 106.318Z" fill="#BB6751"/>
<path d="M176.723 116.659L180.706 116.023C180.863 115.998 181.013 115.94 181.145 115.853C181.278 115.766 181.391 115.652 181.477 115.518C181.562 115.385 181.619 115.234 181.643 115.077C181.666 114.92 181.656 114.76 181.614 114.607L179.108 105.605C179.033 105.339 178.864 105.109 178.631 104.959C178.398 104.81 178.118 104.751 177.845 104.795L173.862 105.431C173.705 105.456 173.556 105.514 173.423 105.601C173.29 105.688 173.177 105.802 173.092 105.936C173.006 106.069 172.949 106.22 172.926 106.377C172.902 106.534 172.912 106.694 172.955 106.847L175.461 115.848C175.535 116.115 175.705 116.345 175.938 116.495C176.17 116.644 176.45 116.703 176.723 116.659Z" fill="#C1D8ED"/>
<path d="M183.138 114.3L180.789 117.49C180.789 117.49 174.474 116.223 173.882 111.354C173.814 110.794 173.873 109.243 174.566 109.451C176.373 109.993 178.623 112.769 180.2 113.138C179.84 112.493 179.401 111.583 179.684 111.416C180.429 110.977 182.432 113.621 183.138 114.3Z" fill="#BB6751"/>
<path d="M177.147 81.6208C177.147 81.6208 174.614 90.7024 173.191 95.415C173.124 95.6383 173.11 95.8743 173.15 96.104C173.19 96.3338 173.283 96.5509 173.422 96.7381C173.561 96.9253 173.742 97.0773 173.95 97.1819C174.159 97.2866 174.389 97.341 174.622 97.3407H183.509C183.892 97.3406 184.261 97.1926 184.539 96.9274C184.817 96.6623 184.982 96.3002 185 95.9165L185.599 83.2744L177.147 81.6208Z" fill="#0F1011"/>
<path d="M190.766 101.822C190.766 101.822 188.181 100.453 188.752 93.4117L183.414 92.426C183.414 92.426 184.019 98.7382 181.321 100.744L190.766 101.822Z" fill="#BB6751"/>
<g opacity="0.15">
<path d="M182.413 99.4248L186.845 96.0249L183.362 95.9915C183.262 97.1851 182.94 98.3495 182.413 99.4248Z" fill="black"/>
</g>
<path d="M191.779 90.6797C191.411 92.816 190.248 94.84 188.365 95.5316C186.313 96.3489 184.093 96.6511 181.898 96.412C176.055 95.9379 177.199 82.639 179.971 80.0535C182.742 77.468 190.886 79.0966 191.88 83.4157C192.395 85.6498 192.128 88.6475 191.779 90.6797Z" fill="#BB6751"/>
<path d="M183.418 89.0415C183.685 89.0415 183.902 88.8246 183.902 88.557C183.902 88.2894 183.685 88.0725 183.418 88.0725C183.15 88.0725 182.934 88.2894 182.934 88.557C182.934 88.8246 183.15 89.0415 183.418 89.0415Z" fill="#0F1011"/>
<path d="M179.598 88.7312C179.866 88.7312 180.082 88.5143 180.082 88.2467C180.082 87.9791 179.866 87.7622 179.598 87.7622C179.331 87.7622 179.114 87.9791 179.114 88.2467C179.114 88.5143 179.331 88.7312 179.598 88.7312Z" fill="#0F1011"/>
<path d="M178.758 87.2154C178.699 87.2139 178.643 87.1895 178.602 87.1472C178.56 87.105 178.537 87.0483 178.536 86.9891C178.536 86.9299 178.559 86.8729 178.599 86.8301C178.64 86.7873 178.696 86.7621 178.755 86.7599L180.038 86.7424H180.041C180.1 86.7439 180.157 86.7683 180.198 86.8106C180.239 86.8528 180.263 86.9095 180.263 86.9687C180.264 87.0279 180.241 87.0849 180.2 87.1277C180.159 87.1705 180.103 87.1957 180.044 87.1979L178.762 87.2154H178.758Z" fill="#0F1011"/>
<path d="M184.462 87.6781C184.444 87.6781 184.426 87.6759 184.408 87.6717L183.144 87.3685C183.114 87.3623 183.086 87.3501 183.061 87.3328C183.036 87.3154 183.014 87.2932 182.998 87.2675C182.982 87.2417 182.971 87.2129 182.966 87.1829C182.96 87.1528 182.962 87.122 182.969 87.0923C182.976 87.0626 182.989 87.0347 183.007 87.0101C183.025 86.9856 183.048 86.9649 183.074 86.9493C183.1 86.9338 183.129 86.9237 183.159 86.9196C183.19 86.9154 183.22 86.9175 183.25 86.9255L184.514 87.2287C184.568 87.2418 184.616 87.2743 184.648 87.32C184.68 87.3657 184.694 87.4215 184.687 87.4768C184.681 87.5322 184.654 87.5832 184.612 87.6203C184.571 87.6574 184.517 87.6779 184.462 87.6781Z" fill="#0F1011"/>
<path d="M183.197 92.3725C183.197 92.3725 181.41 92.5626 180.157 92.126C180.157 92.126 180.168 93.3042 181.582 93.4187C182.996 93.5332 183.197 92.3725 183.197 92.3725Z" fill="white"/>
<g opacity="0.15">
<path d="M181.271 91.2465C181.311 91.2465 181.35 91.2321 181.38 91.2059C181.411 91.1797 181.43 91.1435 181.436 91.1039C181.442 91.0642 181.434 91.0238 181.412 90.9899C181.391 90.956 181.358 90.9309 181.32 90.9192L180.335 90.6176L181.023 89.0817C181.04 89.0414 181.04 88.9962 181.024 88.9556C181.008 88.915 180.977 88.8822 180.937 88.8644C180.897 88.8466 180.852 88.8451 180.811 88.8602C180.77 88.8753 180.737 88.9058 180.718 88.9452L179.876 90.8264L181.222 91.2392C181.238 91.2441 181.255 91.2465 181.271 91.2465Z" fill="black"/>
</g>
<path d="M176.842 82.7094C176.842 82.7094 177.698 75.7834 188.786 77.4845C191.55 77.9086 195.468 80.0686 196.103 87.148C196.393 90.3957 197.511 93.4577 198.364 95.3956C198.465 95.6232 198.508 95.8723 198.488 96.1205C198.469 96.3686 198.387 96.608 198.252 96.8167C198.116 97.0255 197.931 97.1971 197.712 97.316C197.494 97.4349 197.249 97.4973 197 97.4976L189.206 97.5001C188.81 97.5008 188.431 97.3442 188.151 97.0648C187.87 96.7854 187.713 96.406 187.712 96.0102C187.712 95.9883 187.712 95.9661 187.713 95.9442C187.769 94.6163 187.814 92.3683 187.738 88.9321C187.333 86.9711 188.412 85.5883 186.845 86.0391C181.026 87.7093 177.279 82.8216 176.842 82.7094Z" fill="#0F1011"/>
<path d="M185.864 90.6432C185.82 91.1862 185.993 91.7244 186.346 92.1395C186.698 92.5546 187.201 92.8126 187.744 92.8566C188.286 92.9006 188.824 92.7271 189.239 92.3743C189.654 92.0215 189.911 91.5182 189.955 90.9752C190.008 90.442 189.846 89.9099 189.506 89.4959C189.167 89.0818 188.676 88.8198 188.144 88.7674C188.12 88.7653 188.098 88.7634 188.076 88.762C186.613 88.7144 185.956 89.5123 185.864 90.6432Z" fill="#BB6751"/>
<path d="M135.906 74.01H50.4064V131.015H135.906V74.01Z" fill="#F3F5FD"/>
<path d="M73.0283 88.7256H60.6348V101.13H73.0283V88.7256Z" fill="#DEE8F5"/>
<path d="M72.1738 89.5808H61.4891V100.275H72.1738V89.5808Z" fill="white"/>
<path d="M63.6505 92.0166V96.0735L67.6817 92.0388L63.6505 92.0166Z" fill="#F3F5FD"/>
<path d="M67.2726 97.8389C68.5224 97.8389 69.5356 96.8248 69.5356 95.5739C69.5356 94.3229 68.5224 93.3088 67.2726 93.3088C66.0227 93.3088 65.0095 94.3229 65.0095 95.5739C65.0095 96.8248 66.0227 97.8389 67.2726 97.8389Z" fill="#C1D8ED"/>
<path d="M87.2755 78.6392H75.212V93.305H87.2755V78.6392Z" fill="#DEE8F5"/>
<path d="M86.2654 79.6504H76.2223V92.2941H86.2654V79.6504Z" fill="white"/>
<path d="M83.5109 81.6829H78.14V87.9718H83.5109V81.6829Z" fill="#DEE8F5"/>
<path d="M83.2246 86.374H83.2244C82.152 86.374 81.2827 87.2441 81.2827 88.3174V88.3176C81.2827 89.3909 82.152 90.261 83.2244 90.261H83.2246C84.297 90.261 85.1663 89.3909 85.1663 88.3176V88.3174C85.1663 87.2441 84.297 86.374 83.2246 86.374Z" fill="#C1D8ED"/>
<path d="M85.166 84.4263H80.8254V85.284H85.166V84.4263Z" fill="#F3F5FD"/>
<path d="M87.7146 96.0664H77.5963V106.193H87.7146V96.0664Z" fill="#DEE8F5"/>
<path d="M86.8898 96.8916H78.4208V105.368H86.8898V96.8916Z" fill="white"/>
<path d="M85.6439 97.9119H83.4889V104.274H85.6439V97.9119Z" fill="#DEE8F5"/>
<path d="M82.4328 97.9119L79.5665 100.781H85.2675L82.4328 97.9119Z" fill="#C1D8ED"/>
<path d="M84.5873 102.006H80.2467V102.864H84.5873V102.006Z" fill="#F3F5FD"/>
<path d="M128.583 128.494C128.583 128.494 128.183 113.658 124.334 113.41C120.486 113.162 127.489 129.456 127.489 129.456" fill="#DEE8F5"/>
<path d="M128.755 127.48C128.755 127.48 133.551 116.805 130.358 114.643C127.164 112.48 127.325 127.756 127.325 127.756" fill="#C1D8ED"/>
<path d="M129.759 126.561H125.446V131.015H129.759V126.561Z" fill="#C1D8ED"/>
<path d="M73.5807 114.887H53.2928V131.015H73.5807V114.887Z" fill="#C1D8ED"/>
<path d="M78.9675 114.887H58.6797V131.015H78.9675V114.887Z" fill="#DEE8F5"/>
<g opacity="0.53">
<path d="M77.8769 116.288H59.7721V122.04H77.8769V116.288Z" fill="#F3F5FD"/>
</g>
<g opacity="0.53">
<path d="M77.8769 123.448H59.7721V129.199H77.8769V123.448Z" fill="#F3F5FD"/>
</g>
<path d="M68.8245 119.969C69.2686 119.969 69.6286 119.609 69.6286 119.164C69.6286 118.72 69.2686 118.359 68.8245 118.359C68.3805 118.359 68.0205 118.72 68.0205 119.164C68.0205 119.609 68.3805 119.969 68.8245 119.969Z" fill="white"/>
<path d="M68.8245 127.128C69.2686 127.128 69.6286 126.768 69.6286 126.323C69.6286 125.879 69.2686 125.519 68.8245 125.519C68.3805 125.519 68.0205 125.879 68.0205 126.323C68.0205 126.768 68.3805 127.128 68.8245 127.128Z" fill="white"/>
<path d="M87.0353 102.191C87.0353 102.191 89.5952 100.833 89.0236 93.856L94.3127 92.8743C94.3127 92.8743 93.7185 99.1297 96.3942 101.116L87.0353 102.191Z" fill="#B78557"/>
<g opacity="0.15">
<path d="M95.3105 99.8078L90.9165 96.4435L94.3676 96.4077C94.4994 97.5704 94.7709 98.8181 95.3105 99.8078Z" fill="black"/>
</g>
<path d="M86.0227 91.1505C86.3888 93.2673 87.5429 95.2717 89.4086 95.9555C91.6233 96.7671 93.2636 96.822 95.817 96.822C99.3015 96.822 99.1863 93.185 99.2841 89.5198C99.3825 85.84 99.09 81.8927 97.713 80.6106C94.964 78.051 86.8962 79.6718 85.9149 83.9527C85.4073 86.1668 85.6742 89.1355 86.0227 91.1505Z" fill="#B78557"/>
<path d="M101.152 82.7377C101.152 82.7377 102.579 82.4189 102.188 80.9939C101.929 80.0495 100.72 80.2592 100.72 80.2592C100.72 80.2592 101.864 80.0495 101.864 79.0491C101.864 78.4186 101.381 77.3511 99.9209 77.9614C98.2081 78.6773 96.2546 78.5854 94.7695 78.3354C93.9031 78.1895 93.0581 77.9864 92.2178 77.9751H92.2133C91.2266 77.958 90.2429 78.0897 89.2953 78.3658C86.6402 79.1608 82.622 81.5437 83.4762 86.9454C84.4297 92.9741 87.2561 95.2796 88.4997 96.0191C88.5733 96.0635 88.656 96.0905 88.7415 96.0982C88.8271 96.1058 88.9133 96.094 88.9935 96.0634C89.0738 96.0329 89.1461 95.9844 89.2049 95.9218C89.2638 95.8592 89.3076 95.784 89.3332 95.7019C89.6863 94.5722 90.2942 91.7292 90.1236 85.8671C98.2848 85.4665 100.633 85.3449 100.633 85.3449C100.633 85.3449 102.554 85.4167 102.554 84.0121C102.554 82.6074 101.152 82.7377 101.152 82.7377Z" fill="#0F1011"/>
<path d="M94.3051 89.5198C94.57 89.5198 94.7847 89.3049 94.7847 89.0398C94.7847 88.7747 94.57 88.5598 94.3051 88.5598C94.0403 88.5598 93.8256 88.7747 93.8256 89.0398C93.8256 89.3049 94.0403 89.5198 94.3051 89.5198Z" fill="#0F1011"/>
<path d="M98.0897 89.2093C98.3546 89.2093 98.5693 88.9944 98.5693 88.7293C98.5693 88.4642 98.3546 88.2493 98.0897 88.2493C97.8248 88.2493 97.6101 88.4642 97.6101 88.7293C97.6101 88.9944 97.8248 89.2093 98.0897 89.2093Z" fill="#0F1011"/>
<path d="M98.921 87.7068H98.9182L97.6468 87.691C97.5871 87.6903 97.5301 87.6658 97.4883 87.623C97.4466 87.5802 97.4236 87.5225 97.4243 87.4627C97.4251 87.4029 97.4495 87.3458 97.4923 87.3041C97.5351 87.2623 97.5927 87.2393 97.6525 87.24L98.9238 87.2558C98.9824 87.258 99.0378 87.2829 99.0783 87.3253C99.1188 87.3676 99.1413 87.4241 99.1409 87.4827C99.1406 87.5413 99.1175 87.5975 99.0765 87.6394C99.0355 87.6813 98.9798 87.7055 98.9213 87.7071L98.921 87.7068Z" fill="#0F1011"/>
<path d="M93.27 88.1698C93.2147 88.1699 93.1613 88.1498 93.12 88.1131C93.0786 88.0764 93.0521 88.0258 93.0456 87.9709C93.0391 87.9159 93.053 87.8605 93.0847 87.8152C93.1163 87.7698 93.1635 87.7377 93.2172 87.7249L94.4702 87.424C94.499 87.4171 94.5289 87.4159 94.5581 87.4205C94.5873 87.4251 94.6154 87.4354 94.6406 87.4509C94.6658 87.4663 94.6878 87.4866 94.7052 87.5106C94.7226 87.5345 94.7351 87.5617 94.742 87.5905C94.749 87.6193 94.7502 87.6491 94.7456 87.6784C94.7409 87.7077 94.7306 87.7357 94.7152 87.761C94.6997 87.7862 94.6795 87.8082 94.6555 87.8256C94.6316 87.8431 94.6045 87.8556 94.5757 87.8625L93.3229 88.1644C93.3056 88.1683 93.2878 88.1701 93.27 88.1698Z" fill="#0F1011"/>
<path d="M91.8097 90.2144C91.8538 90.7524 91.6826 91.2859 91.3337 91.6976C90.9847 92.1092 90.4867 92.3652 89.9492 92.4093C89.4117 92.4535 88.8786 92.2821 88.4674 91.9328C88.0561 91.5836 87.8003 91.0852 87.7562 90.5472C87.7298 90.2799 87.7573 90.0101 87.8372 89.7538C87.9171 89.4975 88.0477 89.2598 88.2212 89.0551C88.3948 88.8503 88.6077 88.6825 88.8473 88.5618C89.087 88.4411 89.3484 88.3699 89.6162 88.3524C91.0662 88.305 91.7182 89.0942 91.8097 90.2144Z" fill="#B78557"/>
<g opacity="0.15">
<path d="M96.4359 91.7026C96.3956 91.7039 96.3562 91.6903 96.3252 91.6644C96.2942 91.6385 96.2738 91.6021 96.2678 91.5622C96.2618 91.5222 96.2707 91.4815 96.2928 91.4476C96.3148 91.4138 96.3485 91.3892 96.3874 91.3786L97.3629 91.0789L96.6801 89.5578C96.6621 89.5177 96.6608 89.4721 96.6764 89.431C96.692 89.3899 96.7233 89.3568 96.7633 89.3388C96.8034 89.3208 96.8489 89.3194 96.89 89.335C96.931 89.3507 96.9642 89.382 96.9822 89.4221L97.7414 91.1142C97.7512 91.1356 97.7562 91.1589 97.7562 91.1824C97.7563 91.2059 97.7512 91.2292 97.7415 91.2506C97.7318 91.272 97.7177 91.2911 97.7 91.3066C97.6823 91.3221 97.6615 91.3336 97.639 91.3404L96.4842 91.6956C96.4686 91.7003 96.4523 91.7027 96.4359 91.7026Z" fill="black"/>
</g>
<path d="M94.5272 92.8202C94.5272 92.8202 96.298 93.0071 97.539 92.573C97.539 92.573 97.5293 93.7401 96.128 93.8551C94.7266 93.9701 94.5272 92.8202 94.5272 92.8202Z" fill="white"/>
<path d="M128.186 131.015H117.231C114.42 128.798 111.934 126.821 111.091 126.111L104.794 116.691C104.552 118.521 104.406 120.361 104.356 122.206C104.286 125.161 104.535 128.115 105.098 131.016H78.8051C79.7055 128.612 80.1687 126.065 80.173 123.497C80.173 121.878 79.8175 120.151 79.3466 118.39L76.2647 125.333L75.5019 131.016H68.3845L69.3428 123.893C69.3874 123.56 69.4794 123.236 69.6159 122.929L77.4325 105.312L77.4725 105.329C77.8018 104.418 78.3294 103.592 79.017 102.911C80.4932 101.433 83.0453 100.477 86.1578 100.474C86.3909 102.291 97.4071 102.296 97.4919 100.517C97.911 100.524 98.2382 100.529 98.4407 100.538C101.379 100.665 103.157 101.674 104.19 103.255L104.261 103.208L116.307 121.219L128.186 131.015Z" fill="#97D4EA"/>
<path d="M97.4909 100.515C97.4069 102.296 96.4397 104.914 93.4543 105.112C89.4754 105.374 86.3911 102.289 86.1576 100.473H86.1675C90.0842 100.473 95.2074 100.479 97.4909 100.515Z" fill="#B78557"/>
<path d="M113.683 86.1357L112.336 86.9143L114.976 91.4905L116.323 90.7119L113.683 86.1357Z" fill="#DEE8F5"/>
<path d="M112.676 86.1711H111.12V91.4552H112.676V86.1711Z" fill="#DEE8F5"/>
<path d="M121.736 84.7366H120.181V91.4553H121.736V84.7366Z" fill="#DEE8F5"/>
<path d="M120.136 86.1711H118.581V91.4552H120.136V86.1711Z" fill="#C1D8ED"/>
<path d="M123.292 85.4919H121.736V91.4552H123.292V85.4919Z" fill="#C1D8ED"/>
<path d="M118.556 85.3059H116.072V91.4551H118.556V85.3059Z" fill="white"/>
<path d="M125.785 89.6997C125.785 89.6997 125.777 87.0713 127.096 86.5225C128.415 85.9736 126.44 89.6997 126.44 89.6997H125.785Z" fill="#DEE8F5"/>
<path d="M126.44 89.6996C126.44 89.6996 127.129 84.7793 125.722 84.7793C124.314 84.7793 125.785 89.6996 125.785 89.6996" fill="#DEE8F5"/>
<path d="M126.018 89.9162C126.018 89.9162 125.358 85.5311 124.18 85.8829C123.002 86.2347 125.555 90.0538 125.555 90.0538L126.018 89.9162Z" fill="#DEE8F5"/>
<path d="M127.317 88.3806H124.245V91.4553H127.317V88.3806Z" fill="#C1D8ED"/>
<path d="M128.569 91.4553H110.342V92.1385H128.569V91.4553Z" fill="#DEE8F5"/>
</g>
<defs>
<clipPath id="clip0_433_3465">
<rect width="280" height="150.769" fill="white"/>
</clipPath>
</defs>
</svg>
