<svg width="280" height="151" viewBox="0 0 280 151" fill="none" xmlns="http://www.w3.org/2000/svg">
<g clip-path="url(#clip0_433_3416)">
<path d="M249.817 140.438H30.1828C27.4353 140.438 25.208 142.662 25.208 145.404V145.404C25.208 148.147 27.4353 150.37 30.1828 150.37H249.817C252.565 150.37 254.792 148.147 254.792 145.404V145.404C254.792 142.662 252.565 140.438 249.817 140.438Z" fill="#C1D8ED"/>
<path d="M232.032 0H47.2313C43.1845 0 39.9039 3.27474 39.9039 7.31433V134.738C39.9039 138.777 43.1845 142.052 47.2313 142.052H232.032C236.078 142.052 239.359 138.777 239.359 134.738V7.31433C239.359 3.27474 236.078 0 232.032 0Z" fill="#C1D8ED"/>
<path d="M231.576 4.98828H47.6864C45.8972 4.98828 44.4468 6.43614 44.4468 8.22217V133.672C44.4468 135.458 45.8972 136.906 47.6864 136.906H231.576C233.366 136.906 234.816 135.458 234.816 133.672V8.22217C234.816 6.43614 233.366 4.98828 231.576 4.98828Z" fill="#C1D8ED"/>
<path d="M228.231 11.9873H50.3582V130.761H228.231V11.9873Z" fill="white"/>
<path d="M228.231 11.9873H50.3582V21.7712H228.231V11.9873Z" fill="#DEE8F5"/>
<path d="M222.728 19.3344C224.086 19.3344 225.187 18.2353 225.187 16.8796C225.187 15.5239 224.086 14.4248 222.728 14.4248C221.37 14.4248 220.269 15.5239 220.269 16.8796C220.269 18.2353 221.37 19.3344 222.728 19.3344Z" fill="white"/>
<path d="M99.7136 30.4348H62.144V32.8969H99.7136V30.4348Z" fill="#C1D8ED"/>
<path d="M155.585 42.0735H62.144V44.5356H155.585V42.0735Z" fill="#DEE8F5"/>
<path d="M208.248 42.0735H163.237V44.5356H208.248V42.0735Z" fill="#C1D8ED"/>
<path d="M171.949 53.7124H62.144V56.1745H171.949V53.7124Z" fill="#DEE8F5"/>
<path d="M215.87 53.7124H179.6V56.1745H215.87V53.7124Z" fill="#C1D8ED"/>
<path d="M138.19 103.954H62.144V106.416H138.19V103.954Z" fill="#C1D8ED"/>
<path d="M189.009 103.954H145.842V106.416H189.009V103.954Z" fill="#C1D8ED"/>
<path d="M122.553 115.593H62.144V118.055H122.553V115.593Z" fill="#C1D8ED"/>
<path d="M189.009 115.593H130.205V118.055H189.009V115.593Z" fill="#DEE8F5"/>
<path d="M105.039 67.5894H62.144V70.0514H105.039V67.5894Z" fill="#DEE8F5"/>
<path d="M189.009 67.5894H112.69V70.0514H189.009V67.5894Z" fill="#DEE8F5"/>
<path d="M122.553 79.228H62.144V81.6901H122.553V79.228Z" fill="#DEE8F5"/>
<path d="M157.429 79.228H130.205V81.6901H157.429V79.228Z" fill="#DEE8F5"/>
<path d="M105.039 90.9014H62.144V93.3635H105.039V90.9014Z" fill="#DEE8F5"/>
<path d="M189.009 90.9014H112.69V93.3635H189.009V90.9014Z" fill="#C1D8ED"/>
<path d="M111.869 50.8398H110.187V63.5548H111.869V50.8398Z" fill="#262626"/>
<path d="M113.899 51.6793V50H108.157V51.6793H113.899Z" fill="#262626"/>
<path d="M113.899 64.0753V62.396H108.157V64.0753H113.899Z" fill="#262626"/>
<path d="M74 74H105.22V61.3173H74V74Z" fill="#262626"/>
<path d="M81.8494 67.8579L86.4622 65.6235V66.4978L82.8028 68.198V68.2173L86.4622 69.9272V70.7918L81.8494 68.5574V67.8579Z" fill="white" stroke="white" stroke-width="0.628" stroke-miterlimit="10"/>
<path d="M87.5245 71.1803L89.8991 64.1372H90.7361L88.3601 71.1803H87.5245Z" fill="white" stroke="white" stroke-width="0.628" stroke-miterlimit="10"/>
<path d="M96.3225 68.5768L91.7097 70.7918V69.9272L95.4273 68.2173V68.198L91.7097 66.4881V65.6235L96.3225 67.8385V68.5768Z" fill="white" stroke="white" stroke-width="0.628" stroke-miterlimit="10"/>
<path d="M155.168 87.9431H153.279V102.221H155.168V87.9431Z" fill="#8DDBE0"/>
<path d="M157.448 88.8857V87H151.001V88.8857H157.448Z" fill="#8DDBE0"/>
<path d="M157.447 102.805V100.919H151V102.805H157.447Z" fill="#8DDBE0"/>
<path d="M199.078 96.7588H164.021V111H199.078V96.7588Z" fill="#8DDBE0"/>
<path d="M173.577 103.49L178.757 100.98V101.962L174.648 103.871V103.893L178.757 105.813V106.784L173.577 104.275V103.49Z" fill="white" stroke="white" stroke-width="0.628" stroke-miterlimit="10"/>
<path d="M179.949 107.22L182.616 99.3115H183.556L180.889 107.22H179.949Z" fill="white" stroke="white" stroke-width="0.628" stroke-miterlimit="10"/>
<path d="M189.829 104.297L184.649 106.784V105.813L188.823 103.893V103.871L184.649 101.951V100.98L189.829 103.468V104.297Z" fill="white" stroke="white" stroke-width="0.628" stroke-miterlimit="10"/>
</g>
<defs>
<clipPath id="clip0_433_3416">
<rect width="280" height="150.37" fill="white"/>
</clipPath>
</defs>
</svg>
