<svg width="240" height="170" viewBox="0 0 240 170" fill="none" xmlns="http://www.w3.org/2000/svg">
<g clip-path="url(#clip0_433_1938)">
<g clip-path="url(#clip1_433_1938)">
<path d="M269.517 51.7375H266.318C266.255 51.7374 266.192 51.7511 266.133 51.7777C266.075 51.8043 266.021 51.8433 265.976 51.8925C265.931 51.9417 265.896 52.0001 265.872 52.0644C265.847 52.1287 265.835 52.1976 265.835 52.2672V74.8942H225.859V4.52973C225.859 4.46015 225.846 4.39124 225.822 4.32694C225.798 4.26264 225.762 4.20422 225.717 4.15502C225.673 4.10582 225.619 4.0668 225.561 4.0402C225.502 4.0136 225.439 3.99994 225.376 4H222.177C222.048 4 221.926 4.05581 221.835 4.15515C221.744 4.2545 221.693 4.38924 221.693 4.52973V25.2659H175.1V4.52973C175.101 4.46015 175.088 4.39124 175.064 4.32694C175.04 4.26264 175.004 4.20422 174.959 4.15502C174.914 4.10582 174.861 4.0668 174.802 4.0402C174.744 4.0136 174.681 3.99994 174.617 4H171.418C171.355 4 171.292 4.01371 171.233 4.04033C171.175 4.06696 171.122 4.10599 171.077 4.15518C171.032 4.20438 170.996 4.26278 170.972 4.32705C170.948 4.39131 170.935 4.46019 170.935 4.52973V65.658H125.114V35.5282C125.114 35.4586 125.102 35.3897 125.078 35.3254C125.053 35.2612 125.018 35.2028 124.973 35.1536C124.928 35.1044 124.875 35.0654 124.816 35.0388C124.758 35.0121 124.695 34.9984 124.631 34.9984H121.432C121.304 34.9986 121.181 35.0544 121.091 35.1537C121 35.2531 120.949 35.3877 120.949 35.5282V100.479H86.1633V91.0547C86.1634 90.9851 86.1509 90.9163 86.1267 90.852C86.1025 90.7877 86.0669 90.7293 86.0221 90.6801C85.9772 90.631 85.924 90.5919 85.8654 90.5653C85.8068 90.5387 85.744 90.525 85.6806 90.525H82.4832C82.4197 90.5249 82.3569 90.5386 82.2982 90.5652C82.2396 90.5918 82.1863 90.6308 82.1414 90.68C82.0965 90.7292 82.0609 90.7876 82.0367 90.8519C82.0124 90.9162 81.9999 90.9851 82 91.0547V115H86.165V105.045H120.952V115H125.114V70.2244H170.935V115H175.1V29.8347H221.693V115H225.859V79.4612H265.835V115H270V52.2672C270 52.1977 269.988 52.1288 269.963 52.0645C269.939 52.0003 269.904 51.9419 269.859 51.8927C269.814 51.8435 269.761 51.8044 269.702 51.7778C269.643 51.7512 269.581 51.7375 269.517 51.7375Z" fill="#D8E9F9"/>
<path d="M79 114.973H277.163V263.401C277.163 263.825 277.014 264.232 276.75 264.532C276.485 264.832 276.126 265 275.752 265H80.4115C80.0371 265 79.6781 264.832 79.4134 264.532C79.1487 264.232 79 263.825 79 263.401V114.973Z" fill="#F3F5FD"/>
<path d="M115.271 131.417H94.1932C93.8034 131.417 93.4873 131.775 93.4873 132.217V156.099C93.4873 156.541 93.8034 156.899 94.1932 156.899H115.271C115.661 156.899 115.977 156.541 115.977 156.099V132.217C115.977 131.775 115.661 131.417 115.271 131.417Z" fill="#D8E9F9"/>
<path d="M151.946 131.417H130.868C130.478 131.417 130.162 131.775 130.162 132.217V156.099C130.162 156.541 130.478 156.899 130.868 156.899H151.946C152.336 156.899 152.652 156.541 152.652 156.099V132.217C152.652 131.775 152.336 131.417 151.946 131.417Z" fill="#D8E9F9"/>
<path d="M188.62 131.417H167.542C167.152 131.417 166.836 131.775 166.836 132.217V156.099C166.836 156.541 167.152 156.899 167.542 156.899H188.62C189.01 156.899 189.326 156.541 189.326 156.099V132.217C189.326 131.775 189.01 131.417 188.62 131.417Z" fill="#D8E9F9"/>
<path d="M225.295 131.417H204.217C203.827 131.417 203.511 131.775 203.511 132.217V156.099C203.511 156.541 203.827 156.899 204.217 156.899H225.295C225.685 156.899 226.001 156.541 226.001 156.099V132.217C226.001 131.775 225.685 131.417 225.295 131.417Z" fill="#D8E9F9"/>
<path d="M34.2747 46.2267C34.1474 34.2269 39.7257 26.7891 46.1646 22.7077C52.5175 18.6791 66.9472 15.8173 74.5006 30.442C79.429 39.9853 79.6696 42.7514 81.0661 58.0358C82.4625 73.3202 87.8266 74.9245 93.2651 93.4506C97.5321 107.983 73.6325 115.698 52.9326 115.031C32.2326 114.364 19.1175 109.789 17.9129 96.6411C16.1891 77.7732 34.5178 69.7425 34.2747 46.2267Z" fill="#0F1011"/>
<path d="M46.449 77.2546C47.9843 74.4778 49.5353 69.2404 48.6713 59.7821L61.5599 57.272C61.5599 57.272 60.2594 72.4367 66.7686 77.2538L46.449 77.2546Z" fill="#725145"/>
<path opacity="0.15" d="M64.1479 74.1375L53.3486 66.0458L61.7709 65.8806C62.0416 68.7567 62.8478 71.557 64.1479 74.1375Z" fill="black"/>
<path d="M41.2841 53.26C42.2258 58.4074 45.0873 63.2633 49.656 64.8866C54.6373 66.8089 60.014 67.4844 65.3168 66.8542C79.439 65.5678 76.3485 33.5003 69.5813 27.3283C62.8142 21.1562 43.1592 25.2839 40.86 35.7322C39.6711 41.1363 40.3887 48.3603 41.2841 53.26Z" fill="#725145"/>
<path d="M61.4533 49.1035C62.0999 49.1035 62.624 48.58 62.624 47.9343C62.624 47.2886 62.0999 46.7651 61.4533 46.7651C60.8068 46.7651 60.2826 47.2886 60.2826 47.9343C60.2826 48.58 60.8068 49.1035 61.4533 49.1035Z" fill="#0F1011"/>
<path d="M70.6842 48.2619C71.3307 48.2619 71.8549 47.7385 71.8549 47.0928C71.8549 46.447 71.3307 45.9236 70.6842 45.9236C70.0376 45.9236 69.5135 46.447 69.5135 47.0928C69.5135 47.7385 70.0376 48.2619 70.6842 48.2619Z" fill="#0F1011"/>
<path d="M72.6852 44.5828L69.5831 44.5721C69.4373 44.5721 69.2974 44.5142 69.1943 44.4112C69.0912 44.3082 69.0333 44.1686 69.0333 44.023C69.0333 43.8773 69.0912 43.7377 69.1943 43.6347C69.2974 43.5317 69.4373 43.4739 69.5831 43.4739L72.686 43.4838C72.8282 43.4893 72.9628 43.5496 73.0615 43.652C73.1602 43.7545 73.2153 43.8911 73.2153 44.0333C73.2153 44.1754 73.1602 44.3121 73.0615 44.4145C72.9628 44.517 72.8282 44.5773 72.686 44.5828H72.6852Z" fill="#0F1011"/>
<path d="M58.901 45.8387C58.7664 45.8391 58.6364 45.7902 58.5355 45.7013C58.4345 45.6123 58.3698 45.4895 58.3535 45.3561C58.3372 45.2227 58.3704 45.0879 58.447 44.9773C58.5235 44.8668 58.638 44.7881 58.7688 44.7562L61.8204 43.9932C61.9619 43.9579 62.1117 43.9801 62.2369 44.0551C62.362 44.13 62.4522 44.2515 62.4876 44.3929C62.523 44.5342 62.5007 44.6838 62.4257 44.8088C62.3507 44.9338 62.229 45.0238 62.0874 45.0592L59.0358 45.8222C58.9917 45.8329 58.9465 45.8384 58.901 45.8387Z" fill="#0F1011"/>
<path d="M62.0801 57.1381C62.0801 57.1381 66.4066 57.551 69.426 56.4685C69.426 56.4685 69.426 59.3122 66.0106 59.6235C62.5952 59.9348 62.0801 57.1381 62.0801 57.1381Z" fill="#F8FCFF"/>
<path d="M50.6713 39.8153C50.3638 63.0999 48.1166 72.1462 48.1166 72.1462C48.1166 72.1462 37.0767 58.8261 35.4099 44.7117C33.8481 31.4833 43.547 23.5739 50.1348 22.0406C75.1703 16.2079 75.1761 35.0461 75.1761 35.0461C73.5573 41.2669 47.9595 44.5234 47.9595 44.5234" fill="#0F1011"/>
<path d="M55.5884 53.028C55.6476 53.6763 55.5784 54.3299 55.3847 54.9515C55.191 55.5731 54.8766 56.1505 54.4594 56.6507C54.0423 57.151 53.5306 57.5643 52.9535 57.867C52.3764 58.1698 51.7453 58.356 51.0961 58.4152C50.4469 58.4743 49.7925 58.4052 49.1701 58.2118C48.5476 58.0183 47.9695 57.7043 47.4686 57.2877C46.9677 56.8711 46.5538 56.3601 46.2507 55.7837C45.9475 55.2074 45.761 54.5771 45.7018 53.9288C45.6308 53.2784 45.6916 52.6204 45.8807 51.994C46.0699 51.3676 46.3834 50.7857 46.8026 50.283C47.2218 49.7803 47.7381 49.367 48.3207 49.0679C48.9034 48.7688 49.5403 48.5899 50.1937 48.542C53.7306 48.3942 55.3387 50.3015 55.5884 53.028Z" fill="#725145"/>
<g opacity="0.15">
<path d="M66.7075 54.3722C66.6108 54.3728 66.517 54.3387 66.4434 54.2761C66.3697 54.2135 66.321 54.1265 66.3062 54.031C66.2914 53.9356 66.3114 53.8379 66.3626 53.756C66.4138 53.674 66.4928 53.6132 66.5851 53.5845L68.9596 52.8323L67.2598 49.1431C67.2182 49.0463 67.2161 48.9372 67.2539 48.839C67.2917 48.7408 67.3665 48.6611 67.4622 48.6171C67.5579 48.5731 67.6671 48.5681 67.7664 48.6033C67.8657 48.6384 67.9474 48.711 67.994 48.8054L69.8848 52.9099C69.9086 52.9621 69.9211 53.0187 69.9213 53.0761C69.9215 53.1334 69.9094 53.1901 69.886 53.2425C69.8625 53.2948 69.8281 53.3416 69.7852 53.3796C69.7422 53.4176 69.6916 53.4461 69.6368 53.4631L66.8257 54.3532C66.7875 54.3654 66.7476 54.3718 66.7075 54.3722Z" fill="black"/>
</g>
<path d="M34.1242 43.1733C33.6918 40.3298 33.8262 37.429 34.5198 34.6376C35.2133 31.8461 36.4522 29.219 38.1654 26.9071C39.8786 24.5953 42.0323 22.6442 44.5028 21.1661C46.9732 19.688 49.7118 18.712 52.5611 18.294C55.4104 17.8761 58.3143 18.0245 61.106 18.7307C63.8977 19.4369 66.5222 20.687 68.8287 22.4092C71.1352 24.1314 73.0782 26.2918 74.5462 28.7662C76.0142 31.2406 76.9781 33.9803 77.3827 36.8279" fill="#FFBC78"/>
<path opacity="0.22" d="M67.6642 38.4645C67.6642 38.4645 67.0607 23.3023 49.9713 18.9468C49.9713 18.9468 51.8075 18.5116 52.4293 18.4208C53.3582 18.264 54.2982 18.1811 55.2403 18.1731C55.2403 18.1731 72.0139 20.9466 74.204 37.2937L67.6642 38.4645Z" fill="white"/>
<path d="M78.523 35.7605L32.7241 42.4788L33.0441 44.6542L78.843 37.936L78.523 35.7605Z" fill="#FFBC78"/>
<path opacity="0.09" d="M78.523 35.7605L32.7241 42.4788L33.0441 44.6542L78.843 37.936L78.523 35.7605Z" fill="black"/>
<path opacity="0.63" d="M47.7446 21.6062C50.2547 21.2594 52.8114 21.6706 55.0855 22.787C60.8424 25.6769 61.4277 29.6609 61.4277 29.6609C61.4277 29.6609 55.3129 21.4304 47.7446 21.6062Z" fill="white"/>
<path d="M70.3312 34.8874C72.1279 34.8874 73.5845 33.4327 73.5845 31.6383C73.5845 29.8438 72.1279 28.3892 70.3312 28.3892C68.5344 28.3892 67.0778 29.8438 67.0778 31.6383C67.0778 33.4327 68.5344 34.8874 70.3312 34.8874Z" fill="#FFBC78"/>
<path opacity="0.09" d="M70.3312 34.8874C72.1279 34.8874 73.5845 33.4327 73.5845 31.6383C73.5845 29.8438 72.1279 28.3892 70.3312 28.3892C68.5344 28.3892 67.0778 29.8438 67.0778 31.6383C67.0778 33.4327 68.5344 34.8874 70.3312 34.8874Z" fill="black"/>
<path d="M71.9218 34.6537C73.7185 34.6537 75.1751 33.1991 75.1751 31.4046C75.1751 29.6102 73.7185 28.1555 71.9218 28.1555C70.125 28.1555 68.6684 29.6102 68.6684 31.4046C68.6684 33.1991 70.125 34.6537 71.9218 34.6537Z" fill="#FFBC78"/>
<path opacity="0.13" d="M71.9218 34.6537C73.7185 34.6537 75.1751 33.1991 75.1751 31.4046C75.1751 29.6102 73.7185 28.1555 71.9218 28.1555C70.125 28.1555 68.6684 29.6102 68.6684 31.4046C68.6684 33.1991 70.125 34.6537 71.9218 34.6537Z" fill="white"/>
<path opacity="0.36" d="M71.922 33.108C72.864 33.108 73.6276 32.3453 73.6276 31.4046C73.6276 30.4638 72.864 29.7012 71.922 29.7012C70.98 29.7012 70.2164 30.4638 70.2164 31.4046C70.2164 32.3453 70.98 33.108 71.922 33.108Z" fill="white"/>
<path d="M78.144 89.897L88.1976 133.817L106.704 181.792" stroke="#28A0CB" stroke-width="20" stroke-miterlimit="10"/>
<path d="M73.7848 405.592L104.37 405.072C102.934 368.715 102.846 330.578 102.398 294.134C96.4277 254.852 93.2843 211.716 85.9161 172.716L85.6953 172.782L85.0488 168.381L22.1502 164.5L19.703 205.541H19.8964C16.6117 264.491 10.6837 347.521 6.94666 404.607L37.429 407.179C42.9205 351.209 51.4197 269.655 56.6474 210.857C62.6506 239.484 66.7341 269.124 71.9551 297.505C72.9994 333.031 73.8823 370.17 73.7848 405.592Z" fill="#262626"/>
<path d="M90.0663 171.144C86.6029 179.096 18.5337 182.398 17.6243 168.411C17.0455 159.51 24.8999 151.74 24.8999 134.393C24.8999 117.045 8.91835 94.8913 21.9401 81.8867C25.7184 78.1132 32.2425 75.6774 40.1952 75.6692C40.7905 80.3013 48.678 88.1702 58.8473 87.5014C66.4784 86.9977 68.9505 80.3178 69.1654 75.7765C70.2402 75.793 71.0753 75.8096 71.5962 75.8343C99.0285 77.0151 86.9742 108.193 86.7096 131.098C86.3872 157.9 93.638 162.953 90.0663 171.144Z" fill="#28A0CB"/>
<path d="M69.1654 75.7765C68.9505 80.3178 66.4784 86.9977 58.8473 87.5014C48.678 88.1702 40.7905 80.3013 40.1953 75.6692H40.2201C50.2323 75.67 63.3325 75.6857 69.1654 75.7765Z" fill="#725145"/>
<path d="M66.8876 75.67L68.9744 181.739C68.9744 181.739 91.1626 181.947 95.1079 178.007L89.0807 123.689C89.0807 123.689 76.7684 112.111 78.4559 76.6411C78.4526 76.6402 71.8648 74.8113 66.8876 75.67Z" fill="#FFBC78"/>
<path d="M44.7301 75.67L48.0521 181.239C48.0521 181.239 17.2035 183.329 13.2573 179.388L22.5345 123.189C22.5345 123.189 34.8692 111.51 33.1817 76.0416C37.0044 75.4788 40.879 75.3541 44.7301 75.67Z" fill="#FFBC78"/>
<path d="M90.5616 137.112L68.1064 137.789L68.0403 134.486L74.0757 134.304L71.0663 75.4736C72.1792 75.5298 73.2885 75.6428 74.3899 75.8122L77.3745 134.205L90.1978 133.817L90.5616 137.112Z" fill="white"/>
<path d="M91.9919 149.959L68.3627 150.752L68.2965 147.449L91.6281 146.673L91.9919 149.959Z" fill="white"/>
<path d="M46.6598 137.128L20.914 137.813L21.2778 134.502L37.9291 134.057L36.5318 75.6553C37.4743 75.5893 38.5822 75.5315 39.8389 75.5232L41.2362 133.966L46.5523 133.825L46.6598 137.128Z" fill="white"/>
<path d="M47.1311 152.172H19.3185L19.6822 148.869H47.0319L47.1311 152.172Z" fill="white"/>
<path d="M32.6766 105.546L46.5623 104.286L54.6804 112.848L70.6363 111.394L56.305 160.989L40.1953 163.251L33.2248 154.654L18.5495 158.082L32.6766 105.546Z" fill="#F3F5FD"/>
<path opacity="0.07" d="M46.5623 104.286L54.6804 112.848L40.1953 163.251L33.2248 154.654L46.5623 104.286Z" fill="black"/>
<path d="M56.4705 134.908C62.4811 134.908 66.8878 125.43 66.8878 135.123C66.8878 144.816 51.1171 145.527 51.1171 145.527L51.6487 134.803C51.6487 134.803 55.0997 130.762 56.5019 130.762C57.9041 130.762 56.4705 134.908 56.4705 134.908Z" fill="#725145"/>
<path d="M50.998 150.313L8.62161 148.46C7.21095 148.399 5.83439 148.007 4.60293 147.318C3.37146 146.628 2.31955 145.658 1.532 144.488C0.744445 143.318 0.243298 141.979 0.0689585 140.579C-0.105381 139.18 0.0519666 137.759 0.528315 136.432L18.2866 87.2668L29.9441 107.757L21.6177 131.004L51.7859 132.325L50.998 150.313Z" fill="#28A0CB"/>
</g>
</g>
<defs>
<clipPath id="clip0_433_1938">
<rect width="240" height="170" fill="white"/>
</clipPath>
<clipPath id="clip1_433_1938">
<rect width="240" height="170" fill="white"/>
</clipPath>
</defs>
</svg>
