<svg width="286" height="39" viewBox="0 0 286 39" fill="none" xmlns="http://www.w3.org/2000/svg">
<g clip-path="url(#clip0_433_1576)">
<path d="M3.30909 31.0908C1.96175 27.1102 4.68691 22.956 8.02295 21.0857C11.3114 19.2422 16.0082 19.6723 18.1121 23.2788C19.0039 24.8114 19.3056 26.9587 18.1582 28.2956C16.9617 29.69 15.4709 29.6048 14.2737 28.2269C14.0015 27.9039 13.7612 27.5523 13.5565 27.1773C13.4324 26.9587 13.315 26.7354 13.2072 26.5081C13.1678 26.4244 13.1329 26.34 13.0928 26.2555C12.9902 26.0235 13.2072 26.5918 13.0601 26.1719C12.9409 25.8349 12.8404 25.4907 12.7591 25.1412C12.7212 24.9747 12.6848 24.8066 12.658 24.6385C12.6417 24.5414 12.6261 24.4444 12.612 24.3465C12.6595 24.6693 12.5978 24.1887 12.5956 24.1674C12.5276 23.3743 12.5403 22.5758 12.6335 21.7857C12.6647 21.5221 12.6008 21.9972 12.6424 21.7336C12.6588 21.6294 12.6751 21.526 12.6937 21.4219C12.7257 21.2403 12.7613 21.0588 12.8007 20.8789C12.8981 20.4382 13.0182 20.0035 13.1604 19.5768C13.2005 19.4544 13.3328 19.0875 13.3321 19.0899C13.2808 19.2201 13.3796 18.9786 13.3782 18.981C13.4198 18.8839 13.4629 18.7868 13.5067 18.6905C13.694 18.2808 13.904 17.8832 14.1354 17.4997C14.5262 16.8421 15.0037 16.2473 15.5534 15.7335C16.087 15.2283 16.688 14.8098 17.337 14.4914C17.4566 14.4272 17.5809 14.3731 17.7086 14.3296C17.956 14.2341 18.2087 14.1504 18.4621 14.0731C19.0094 13.9023 19.5678 13.7744 20.1327 13.6903C22.2103 13.4172 24.3184 13.7687 26.2172 14.7048C28.116 15.6409 29.7293 17.1241 30.8736 18.9857C31.3109 19.7285 31.5752 20.5712 31.6446 21.444C31.714 22.3169 31.5865 23.1947 31.2727 24.0048C31.1717 24.2291 31.0544 24.4446 30.9219 24.6496C30.7666 24.8958 31.0304 24.5344 30.9063 24.6764C30.8736 24.7135 30.8424 24.7553 30.8082 24.7861C30.7621 24.8327 30.7146 24.8745 30.6678 24.9195C31.0914 24.5123 30.7465 24.8721 30.7361 24.8469C30.6833 24.8822 30.6284 24.9141 30.5719 24.9424C30.6997 24.8548 30.8268 24.8745 30.6143 24.9148C30.5615 24.925 30.1357 25.0126 30.3772 24.9842C30.6001 24.9582 30.2338 24.9787 30.1602 24.9842C30.0866 24.9897 30.0175 24.9731 29.9454 24.9708C30.0019 24.9708 30.2642 25.0497 30.0041 24.9779C29.831 24.9298 29.6578 24.895 29.4876 24.8358C29.4014 24.8058 29.0581 24.6464 29.3056 24.7704C29.1413 24.6875 28.98 24.5991 28.8232 24.5012C28.6664 24.4034 28.494 24.285 28.3365 24.1666C28.3201 24.154 28.1232 23.993 28.2681 24.1153C28.1856 24.0451 28.1053 23.9709 28.0258 23.8967C27.3427 23.2506 26.7585 22.4956 26.2943 21.6586C26.1456 21.4013 26.0082 21.1401 25.8803 20.8694C25.8372 20.7787 25.6685 20.3589 25.7956 20.7021C25.6735 20.3735 25.5695 20.0375 25.4842 19.6959C25.2894 19.0051 25.1972 18.2862 25.2107 17.5652C25.2048 17.158 25.2189 16.7507 25.2531 16.3451C25.2561 16.2081 25.2733 16.0718 25.3044 15.9387C25.3467 15.6917 25.395 15.4462 25.453 15.2032C25.6277 14.3918 25.9579 13.6272 26.4228 12.9572C27.3643 11.7212 28.6646 10.851 30.1208 10.4823C31.6379 10.0631 33.2261 10.0248 34.7596 10.3703C36.2766 10.6918 37.6981 11.3973 38.9034 12.4269C39.5003 12.9491 40.0199 13.5636 40.4448 14.2498C41.474 15.9253 44.0201 14.3635 42.9827 12.6715C41.7509 10.7844 40.0763 9.27183 38.1247 8.2835C36.1731 7.29517 34.0122 6.86544 31.8561 7.03684C29.6775 7.14641 27.5757 7.92466 25.8053 9.27729C23.9958 10.7371 22.7902 12.8855 22.4425 15.2703C22.0612 17.5112 22.3042 19.8216 23.1415 21.918C23.9789 24.0145 25.3742 25.8058 27.1563 27.0724C28.627 28.058 30.6395 28.5473 32.218 27.5395C34.2245 26.2611 34.7863 23.1722 34.5218 20.8978C34.0962 18.157 32.6838 15.6992 30.583 14.0439C28.4265 12.097 25.7729 10.8761 22.9605 10.5368C20.3436 10.2314 17.7004 10.7602 15.3676 12.056C13.5848 13.1462 12.1292 14.7504 11.1695 16.6829C9.29747 20.3817 8.94001 25.1665 11.061 28.8362C12.45 31.2368 14.9001 33.1166 17.6565 32.2162C18.8973 31.7896 19.9751 30.9489 20.7296 29.8193C21.484 28.6897 21.8747 27.3315 21.8435 25.947C21.7491 20.0108 15.8982 16.2662 10.76 16.9599C5.42858 17.6788 0.653046 22.3089 0.0496013 28.077C-0.0860803 29.3751 0.0574848 30.6889 0.469483 31.9194C0.581421 32.3127 0.83151 32.6453 1.16796 32.8482C1.50441 33.051 1.90144 33.1087 2.27685 33.0093C2.65033 32.8953 2.96691 32.6304 3.15875 32.2715C3.35058 31.9126 3.40242 31.4882 3.30315 31.0892L3.30909 31.0908Z" fill="#FFBC78"/>
<path d="M112.951 13.9999L108 16.9978L115.539 28.0395L120.49 25.0416L112.951 13.9999Z" fill="#FFBC78"/>
<path d="M187.944 34.3736L192.298 38.188L200.546 27.6656L196.193 23.8513L187.944 34.3736Z" fill="#FFBC78"/>
<path d="M283.423 34.6206C278.876 34.2182 274.601 32.3997 271.275 29.4527C269.364 27.6979 268.031 25.4605 267.439 23.0095C266.7 19.9804 266.994 16.385 268.836 13.7483C269.697 12.5716 270.829 11.5933 272.147 10.8866C273.466 10.18 274.937 9.76323 276.451 9.66758C279.343 9.55239 283.039 10.7593 284.28 13.4436C285.272 15.5898 284.043 18.1366 282.079 19.3889C278.961 21.3701 274.892 20.9131 271.807 19.128C270.129 18.109 268.686 16.7816 267.566 15.2252C266.446 13.6688 265.671 11.9156 265.287 10.0704C264.613 6.80643 265.02 2.75621 267.64 0.311962C267.966 0.0730963 268.379 -0.0353202 268.789 0.0101557C269.199 0.0556315 269.574 0.251342 269.832 0.554972C270.079 0.864286 270.191 1.25143 270.143 1.63592C270.094 2.02041 269.891 2.37267 269.574 2.61947C269.811 2.40172 269.464 2.75175 269.449 2.7681C269.382 2.84687 269.319 2.92862 269.258 3.01111C269.142 3.16054 269.042 3.32122 268.962 3.49045C268.707 4.00654 268.514 4.54731 268.384 5.1031C268.129 6.28397 268.074 7.49546 268.221 8.69256C268.555 11.3054 269.868 13.7203 271.924 15.5029C273.864 17.1661 276.515 18.2912 279.117 17.5154C279.64 17.3767 280.125 17.1325 280.537 16.7997C280.616 16.7373 280.695 16.6719 280.774 16.6042C280.533 16.8205 280.853 16.5173 280.877 16.4861C280.934 16.4207 280.989 16.353 281.042 16.2839C281.095 16.2148 281.366 15.7593 281.165 16.1353C281.3 15.8834 281.36 15.5608 281.506 15.323C281.498 15.3364 281.461 15.6671 281.491 15.3661C281.519 15.2142 281.525 15.0595 281.51 14.9061C281.431 14.4201 281.537 14.9537 281.448 14.6928C281.435 14.6579 281.278 14.348 281.369 14.5048C281.292 14.3913 281.207 14.2824 281.115 14.1786C281.08 14.1325 280.834 13.8865 281.02 14.0567C280.637 13.7277 280.206 13.4524 279.74 13.2392C278.803 12.7643 277.747 12.5375 276.685 12.583C276.905 12.5756 276.563 12.5964 276.514 12.6016C276.378 12.6172 276.243 12.6276 276.108 12.6462C275.836 12.6827 275.567 12.7338 275.301 12.7993C275.485 12.7532 275.222 12.8223 275.205 12.8275C275.047 12.8758 274.889 12.9308 274.731 12.9895C274.439 13.0996 274.153 13.2236 273.874 13.3611C272.868 13.8757 272.003 14.6048 271.349 15.4902C269.946 17.5064 269.977 20.3334 270.522 22.5673C270.587 22.8379 270.627 22.9716 270.673 23.1091C270.755 23.3509 270.846 23.5897 270.944 23.8255C271.137 24.2846 271.362 24.7314 271.617 25.1632C271.86 25.5779 271.459 24.9402 271.724 25.3349C271.778 25.4166 271.833 25.4969 271.89 25.5771C272.029 25.7753 272.175 25.9698 272.328 26.1605C272.661 26.5742 273.021 26.9678 273.406 27.3392C273.475 27.4061 273.545 27.4722 273.616 27.5383C273.383 27.3236 273.756 27.655 273.803 27.6951C274.005 27.8651 274.212 28.0303 274.424 28.1908C274.883 28.5366 275.361 28.8591 275.857 29.1569C276.082 29.2922 276.311 29.4185 276.54 29.5471C276.606 29.585 276.887 29.7321 276.614 29.5909C276.74 29.6556 276.867 29.718 276.995 29.7797C277.497 30.0227 278.012 30.2442 278.534 30.4486C279.46 30.8008 280.409 31.0952 281.375 31.3299C281.46 31.3515 281.744 31.4102 281.405 31.3381C281.524 31.3634 281.641 31.3894 281.761 31.4124C281.992 31.4585 282.223 31.5001 282.455 31.5388C282.883 31.6086 283.314 31.6639 283.747 31.7045C285.751 31.891 285.421 34.8146 283.421 34.6281L283.423 34.6206Z" fill="#FFBC78"/>
</g>
<defs>
<clipPath id="clip0_433_1576">
<rect width="286" height="39.0001" fill="white"/>
</clipPath>
</defs>
</svg>
