<svg width="160" height="180" viewBox="0 0 160 180" fill="none" xmlns="http://www.w3.org/2000/svg">
<path d="M101.894 52.3037C101.894 52.3037 96.4262 49.3929 97.6473 34.4437L86.3481 32.3408C86.3481 32.3408 87.6173 45.7431 81.9026 49.9985L101.894 52.3037Z" fill="#E2B764"/>
<path opacity="0.15" d="M84.2197 47.1963L93.6042 39.9883L86.2335 39.9116C86.0198 42.4446 85.3368 44.9151 84.2197 47.1963Z" fill="black"/>
<path d="M104.057 28.647C103.275 33.1828 100.809 37.4773 96.8249 38.9412C92.0952 40.6805 88.5916 40.7977 83.1379 40.7977C75.6951 40.7977 75.9412 33.0054 75.7326 25.152C75.5205 17.2681 76.147 8.81054 79.0884 6.06306C84.9572 0.57876 102.191 4.0518 104.287 13.2242C105.369 17.9695 104.803 24.3306 104.057 28.647Z" fill="#E2B764"/>
<path d="M71.744 10.6224C71.744 10.6224 68.6957 9.9394 69.5301 6.88736C70.083 4.86403 72.666 5.31341 72.666 5.31341C72.666 5.31341 70.2209 4.86403 70.2209 2.72072C70.2209 1.37183 71.2539 -0.917746 74.3722 0.389967C78.0306 1.92415 82.2024 1.7275 85.3744 1.19149C87.1693 0.797236 88.9911 0.539049 90.8246 0.419085H90.8338C92.9413 0.382485 95.0422 0.664644 97.066 1.2561C102.737 2.95996 111.319 8.06515 109.495 19.6386C107.458 32.556 101.422 37.4958 98.7652 39.0804C98.608 39.1753 98.4315 39.2332 98.2488 39.2496C98.0662 39.266 97.8822 39.2405 97.7108 39.175C97.5394 39.1096 97.385 39.0059 97.2594 38.8718C97.1337 38.7377 97.04 38.5767 96.9854 38.401C96.2317 35.9801 94.9349 29.8888 95.2969 17.3285C77.8659 16.4702 72.8512 16.2096 72.8512 16.2096C72.8512 16.2096 68.7466 16.3637 68.7466 13.3542C68.7466 10.3448 71.744 10.6224 71.744 10.6224Z" fill="#0F1011"/>
<path d="M86.3664 25.1536C86.9323 25.1536 87.391 24.693 87.391 24.1249C87.391 23.5568 86.9323 23.0962 86.3664 23.0962C85.8006 23.0962 85.3419 23.5568 85.3419 24.1249C85.3419 24.693 85.8006 25.1536 86.3664 25.1536Z" fill="#0F1011"/>
<path d="M78.2838 24.4883C78.8496 24.4883 79.3083 24.0277 79.3083 23.4596C79.3083 22.8915 78.8496 22.4309 78.2838 22.4309C77.7179 22.4309 77.2592 22.8915 77.2592 23.4596C77.2592 24.0277 77.7179 24.4883 78.2838 24.4883Z" fill="#0F1011"/>
<path d="M79.222 20.7498L76.5083 20.7838" stroke="#0F1011" stroke-width="1.362" stroke-miterlimit="10" stroke-linecap="round"/>
<path d="M88.5775 21.7776L85.9012 21.1309" stroke="#0F1011" stroke-width="1.362" stroke-miterlimit="10" stroke-linecap="round"/>
<path d="M91.6964 26.6423C91.6197 27.7857 91.9942 28.9135 92.739 29.7818C93.4838 30.6501 94.5391 31.1892 95.6766 31.2824C96.8142 31.3757 97.9426 31.0157 98.8179 30.2803C99.6932 29.5448 100.245 28.493 100.354 27.3523C100.41 26.7796 100.352 26.2014 100.181 25.6521C100.01 25.1028 99.7312 24.5935 99.3604 24.1547C98.9896 23.7159 98.5347 23.3565 98.0227 23.098C97.5107 22.8394 96.9521 22.6869 96.3801 22.6496C93.2845 22.5509 91.8923 24.242 91.6964 26.6423Z" fill="#E2B764"/>
<g opacity="0.15">
<path d="M81.8185 29.8305C81.9032 29.8306 81.9851 29.8001 82.0493 29.7446C82.1135 29.6892 82.1557 29.6124 82.1683 29.5283C82.1809 29.4442 82.163 29.3584 82.1179 29.2864C82.0728 29.2145 82.0034 29.1612 81.9224 29.1362L79.8386 28.4973L81.296 25.2379C81.333 25.1523 81.335 25.0554 81.3014 24.9684C81.2679 24.8813 81.2015 24.811 81.1166 24.7727C81.0318 24.7344 80.9354 24.7312 80.8483 24.7638C80.7611 24.7964 80.6903 24.8622 80.6511 24.9468L79.0298 28.5725C79.0092 28.6184 78.9986 28.6682 78.9986 28.7185C78.9987 28.7688 79.0094 28.8186 79.0301 28.8645C79.0507 28.9103 79.0809 28.9512 79.1185 28.9845C79.1561 29.0178 79.2003 29.0426 79.2482 29.0574L81.7145 29.8177C81.7483 29.8275 81.7834 29.8318 81.8185 29.8305Z" fill="black"/>
</g>
<path d="M85.8927 32.2259C85.8927 32.2259 82.1105 32.6263 79.4582 31.6963C79.4582 31.6963 79.4794 34.1974 82.4718 34.4438C85.4642 34.6901 85.8927 32.2259 85.8927 32.2259Z" fill="#F8FCFF"/>
<path d="M57.4912 162.098C56.1477 161.871 40.9914 159.272 40.9914 159.272L43.491 144.576C43.491 144.576 58.6063 147.168 59.9455 147.394L57.4912 162.098Z" fill="#E2B764"/>
<path d="M32.3452 176.194C32.2812 176.59 32.2991 176.995 32.3978 177.383C32.4965 177.772 32.6739 178.135 32.9189 178.452C33.164 178.769 33.4714 179.031 33.8219 179.223C34.1725 179.415 34.5587 179.532 34.9565 179.568C35.5078 179.617 36.0616 179.506 36.5526 179.25C37.0436 178.993 37.4515 178.601 37.7283 178.12L46.2924 161.965C46.457 161.652 46.5523 161.307 46.5717 160.954C46.5911 160.6 46.5342 160.247 46.4049 159.917C45.1718 157.291 44.8099 154.336 45.3725 151.488C45.9024 149.285 47.038 147.276 48.6498 145.69C48.806 145.553 48.9201 145.374 48.9788 145.174C49.0376 144.975 49.0386 144.762 48.9818 144.562C48.9249 144.362 48.8126 144.182 48.6578 144.043C48.503 143.905 48.3122 143.813 48.1075 143.78L39.7724 142.378C39.5265 142.337 39.2749 142.345 39.0321 142.401C38.7892 142.458 38.5598 142.562 38.3572 142.708C38.1545 142.853 37.9825 143.038 37.851 143.251C37.7196 143.463 37.6312 143.7 37.5911 143.947L32.3452 176.194Z" fill="#C1D8ED"/>
<path d="M104.411 122.349C110.701 122.612 117.106 122.797 123.513 122.956L133.14 123.169L142.756 123.343L143.714 123.36C147.686 123.435 151.482 125.02 154.336 127.794C157.19 130.568 158.891 134.325 159.095 138.308C159.299 142.292 157.992 146.204 155.436 149.258C152.88 152.311 149.267 154.278 145.324 154.762L50.2917 166.349L46.4226 138.149L141.03 123.485L143.598 154.904L133.834 155.538L124.077 156.13C117.561 156.508 111.043 156.862 104.408 157.135L104.411 122.349Z" fill="#262626"/>
<path d="M128.383 155.923C115.263 154.006 113.959 153.651 113.525 153.538L117.384 139.141C117.341 139.13 117.284 139.114 117.216 139.099C118.29 139.335 124.958 140.357 130.519 141.169L128.383 155.923Z" fill="#E2B764"/>
<path d="M144.772 168.738C144.91 169.114 144.969 169.515 144.945 169.915C144.922 170.315 144.816 170.706 144.636 171.064C144.455 171.421 144.203 171.737 143.895 171.993C143.587 172.248 143.23 172.437 142.846 172.547C142.314 172.7 141.749 172.697 141.219 172.539C140.688 172.381 140.214 172.074 139.851 171.654L128.389 157.426C128.169 157.149 128.011 156.829 127.926 156.486C127.84 156.143 127.829 155.785 127.894 155.438C128.609 152.624 128.406 149.654 127.315 146.965C126.378 144.904 124.884 143.148 123.002 141.898C122.822 141.793 122.676 141.639 122.58 141.454C122.485 141.27 122.444 141.061 122.461 140.853C122.479 140.646 122.556 140.448 122.682 140.282C122.808 140.117 122.978 139.99 123.173 139.918L131.092 136.954C131.326 136.866 131.574 136.826 131.824 136.835C132.073 136.845 132.318 136.903 132.544 137.008C132.771 137.112 132.975 137.26 133.144 137.444C133.313 137.628 133.445 137.843 133.531 138.078L144.772 168.738Z" fill="#C1D8ED"/>
<path d="M83.3075 154.581C79.326 154.241 75.3451 153.995 71.3649 153.764C67.3854 153.551 63.4053 153.338 59.4272 153.196L53.4594 152.966L47.4931 152.793C43.515 152.66 39.5384 152.605 35.5611 152.529L36.9391 123.841C44.3847 124.886 51.8395 125.847 59.2914 126.831C66.7434 127.815 74.2046 128.72 81.6643 129.642L92.8602 130.967L104.063 132.228C111.536 133.034 119.01 133.835 126.499 134.495L123.212 162.772C115.773 161.683 108.316 160.735 100.859 159.79L89.6713 158.428L78.4725 157.129C71.0022 156.301 63.5332 155.46 56.058 154.692C48.5827 153.925 41.106 153.138 33.6208 152.434C30.0307 152.096 26.7001 150.41 24.2954 147.712C21.8907 145.014 20.5895 141.504 20.652 137.885C20.7146 134.265 22.1364 130.802 24.6328 128.19C27.1293 125.577 30.5162 124.008 34.1158 123.796L35.0017 123.746C38.972 123.512 42.9437 123.299 46.9133 123.008L52.8691 122.599L58.8227 122.132C62.7922 121.832 66.7611 121.459 70.7292 121.09C74.6967 120.702 78.6648 120.298 82.6302 119.801L83.3075 154.581Z" fill="#262626"/>
<path d="M118.86 117.995L120.953 153.282L60.5041 152.569L65.0669 121.328L118.86 117.995Z" fill="#262626"/>
<path d="M139.039 110.016L123.019 60.1465C122.356 57.5501 120.977 55.1941 119.04 53.3495C115.808 50.1051 110.229 48.0108 103.428 48.0037C102.918 51.9864 78.8345 52.0006 78.6514 48.096C77.7322 48.1102 77.0173 48.1244 76.5725 48.1457C66.8424 48.5667 62.9259 52.3265 61.6821 57.9869L41.2594 107.605C40.7592 108.82 40.5879 110.147 40.763 111.45C40.9381 112.753 41.4533 113.986 42.2564 115.025C43.0595 116.063 44.1218 116.87 45.3357 117.363C46.5496 117.856 47.8718 118.018 49.1682 117.833L60.3266 116.236C59.7772 119.027 59.6903 121.197 60.7763 123.705C63.7383 130.542 121.952 133.381 122.73 121.355C122.738 121.237 122.739 121.12 122.743 121L132.417 120.097C133.566 119.99 134.677 119.625 135.668 119.028C136.658 118.432 137.502 117.62 138.138 116.652C138.774 115.685 139.185 114.586 139.341 113.437C139.497 112.288 139.394 111.119 139.039 110.016ZM59.9497 101.232L63.6414 92.2628C63.6004 95.4711 63.4293 98.2867 63.1847 100.769L59.9497 101.232ZM121.414 105.581L118.592 105.845C117.201 101.4 116.498 96.7668 116.509 92.1074C116.509 91.5643 116.531 91.0254 116.566 90.488L121.414 105.581Z" fill="#07648D"/>
<path d="M98.751 71.8633L101.25 109.262C101.279 109.703 101.218 110.146 101.07 110.562C100.923 110.978 100.691 111.359 100.39 111.682C100.09 112.005 99.7263 112.262 99.3225 112.438C98.9188 112.614 98.4833 112.705 98.0432 112.705H46.0181C45.2231 112.705 44.4564 112.409 43.866 111.874C43.2756 111.34 42.9034 110.604 42.8214 109.81L38.9735 72.4085C38.9272 71.9592 38.9755 71.5052 39.1151 71.0758C39.2547 70.6464 39.4825 70.2512 39.7839 69.9158C40.0852 69.5804 40.4533 69.3122 40.8644 69.1287C41.2755 68.9452 41.7203 68.8503 42.1702 68.8503H95.5457C96.361 68.8507 97.1456 69.1621 97.7408 69.7216C98.3359 70.281 98.697 71.0466 98.751 71.8633Z" fill="#9EBCEA"/>
<path d="M50.3639 112.705H105.026C106.264 112.705 107.268 111.697 107.268 110.453C107.268 109.209 106.264 108.201 105.026 108.201H50.3639C49.1252 108.201 48.121 109.209 48.121 110.453C48.121 111.697 49.1252 112.705 50.3639 112.705Z" fill="#9EBCEA"/>
<path d="M68.7325 95.7485C71.466 95.7485 73.682 93.5236 73.682 90.7789C73.682 88.0343 71.466 85.8093 68.7325 85.8093C65.9989 85.8093 63.7829 88.0343 63.7829 90.7789C63.7829 93.5236 65.9989 95.7485 68.7325 95.7485Z" fill="white"/>
<path d="M75.8641 117.454C79.0389 119.421 83.9531 120.351 88.2381 120.692L88.4785 112.854C86.4633 112.797 83.3663 112.584 80.3329 112.705C78.9619 111.582 78.1727 111.25 76.7664 109.837C75.2688 108.333 71.3388 107.43 70.5963 109.837C69.8539 112.243 73.0775 115.722 75.8641 117.454Z" fill="#E2B764"/>
<path d="M78.6514 48.096C78.8345 52.0006 80.9495 57.7441 87.4758 58.1771C96.173 58.7522 102.918 51.9864 103.428 48.0037H103.406C94.8429 48.0037 83.6434 48.0179 78.6514 48.096Z" fill="#E2B764"/>
<path d="M64.2208 52.4371L53.0326 45.3377H0V2.00073H64.2208V52.4371Z" fill="#FFBC78"/>
<path d="M9.43891 23.2685L23.891 16.2273V18.9826L12.4263 24.3398V24.4015L23.891 29.7886V32.5133L9.43891 25.4722V23.2685Z" fill="white" stroke="white" stroke-miterlimit="10"/>
<path d="M27.2171 33.7379L34.657 11.543H37.2796L29.8397 33.7379H27.2171Z" fill="white" stroke="white" stroke-miterlimit="10"/>
<path d="M54.7827 25.5332L40.3299 32.5133V29.7886L51.977 24.4015V24.3397L40.3299 18.9499V16.2251L54.7827 23.2046V25.5332Z" fill="white" stroke="white" stroke-miterlimit="10"/>
</svg>
