<svg width="240" height="170" viewBox="0 0 240 170" fill="none" xmlns="http://www.w3.org/2000/svg">
<g clip-path="url(#clip0_433_1234)">
<g clip-path="url(#clip1_433_1234)">
<g clip-path="url(#clip2_433_1234)">
<path d="M112.868 -51H-53.3772V115.149H112.868V-51Z" fill="#F4F4F4"/>
<path d="M114.774 -51H112.868V115.149H114.774V-51Z" fill="#F4F4F4"/>
<path opacity="0.05" d="M114.774 -51H112.868V115.149H114.774V-51Z" fill="#292A2E"/>
<path opacity="0.05" d="M72.5945 63.4905V20.0205H36.9654V45.2755H-18.2241V89.9932H-41.6804V115.149H-18.2241H-13.7051H104.871V63.4905H72.5945Z" fill="#292A2E"/>
<path opacity="0.34" d="M67.4847 24.7402H41.539V29.46H67.4847V24.7402Z" fill="#FFFFFA"/>
<path opacity="0.34" d="M67.4846 34.5208H41.539V39.2406H67.4846V34.5208Z" fill="#FFFFFA"/>
<path opacity="0.34" d="M67.4846 44.3015H41.539V49.0213H67.4846V44.3015Z" fill="#FFFFFA"/>
<path opacity="0.34" d="M100.27 68.072H95.4883V72.7918H100.27V68.072Z" fill="#FFFFFA"/>
<path opacity="0.34" d="M100.27 77.8525H95.4883V82.5723H100.27V77.8525Z" fill="#FFFFFA"/>
<path opacity="0.34" d="M100.27 87.6333H95.4883V92.3531H100.27V87.6333Z" fill="#FFFFFA"/>
<path opacity="0.34" d="M91.4237 68.072H86.6415V72.7918H91.4237V68.072Z" fill="#FFFFFA"/>
<path opacity="0.34" d="M91.4237 77.8525H86.6415V82.5723H91.4237V77.8525Z" fill="#FFFFFA"/>
<path opacity="0.34" d="M91.4237 87.6333H86.6415V92.3531H91.4237V87.6333Z" fill="#FFFFFA"/>
<path opacity="0.34" d="M82.8159 68.072H78.0338V72.7918H82.8159V68.072Z" fill="#FFFFFA"/>
<path opacity="0.34" d="M82.8159 77.8525H78.0338V82.5723H82.8159V77.8525Z" fill="#FFFFFA"/>
<path opacity="0.34" d="M82.8159 87.6333H78.0338V92.3531H82.8159V87.6333Z" fill="#FFFFFA"/>
<path d="M112.868 31.1426H79.4169V-51H76.6506V31.1426H-13.7051V-51H-16.4718V31.1426H-53.3772V33.9076H-16.4718V115.149H-13.7051V33.9076H76.6506V115.149H79.4169V33.9076H112.868V31.1426Z" fill="white"/>
<path d="M119.491 114.949H-60V120.474H119.491V114.949Z" fill="#F4F4F4"/>
<path opacity="0.1" d="M119.491 114.949H-60V120.474H119.491V114.949Z" fill="#292A2E"/>
<path opacity="0.1" d="M122.083 114.949H119.491V120.474H122.083V114.949Z" fill="#292A2E"/>
<path opacity="0.1" d="M122.083 114.949H119.491V120.474H122.083V114.949Z" fill="#292A2E"/>
<path d="M279.386 -43.3796H-0.556768C-8.62767 -43.3796 -15.1704 -36.8407 -15.1704 -28.7745V279.87C-15.1704 287.936 -8.62767 294.475 -0.556768 294.475H279.386C287.457 294.475 294 287.936 294 279.87V-28.7745C294 -36.8407 287.457 -43.3796 279.386 -43.3796Z" fill="white"/>
<path opacity="0.1" d="M36.1035 71.759C55.8355 71.759 71.8315 55.7723 71.8315 36.0517C71.8315 16.3312 55.8355 0.344482 36.1035 0.344482C16.3715 0.344482 0.375584 16.3312 0.375584 36.0517C0.375584 55.7723 16.3715 71.759 36.1035 71.759Z" fill="#73B3E7"/>
<path opacity="0.6" d="M150.642 2.74268H83.3331C80.8197 2.74268 78.7822 5.04548 78.7822 7.88614V18.5543C78.7822 21.3949 80.8197 23.6977 83.3331 23.6977H150.642C153.156 23.6977 155.193 21.3949 155.193 18.5543V7.88614C155.193 5.04548 153.156 2.74268 150.642 2.74268Z" fill="#FFBC78"/>
<path opacity="0.1" d="M124.896 101.566H5.96241C3.43594 101.566 1.38785 103.613 1.38785 106.138V117.434C1.38785 119.959 3.43594 122.006 5.96241 122.006H124.896C127.423 122.006 129.471 119.959 129.471 117.434V106.138C129.471 103.613 127.423 101.566 124.896 101.566Z" fill="#73B3E7"/>
<path opacity="0.1" d="M124.896 149.352H5.96241C3.43594 149.352 1.38785 151.399 1.38785 153.924V165.22C1.38785 167.745 3.43594 169.792 5.96241 169.792H124.896C127.423 169.792 129.471 167.745 129.471 165.22V153.924C129.471 151.399 127.423 149.352 124.896 149.352Z" fill="#73B3E7"/>
<path opacity="0.2" d="M36.1036 34.5152C42.9571 34.5152 48.513 28.9625 48.513 22.1129C48.513 15.2634 42.9571 9.71069 36.1036 9.71069C29.25 9.71069 23.6941 15.2634 23.6941 22.1129C23.6941 28.9625 29.25 34.5152 36.1036 34.5152Z" fill="#73B3E7"/>
<path opacity="0.2" d="M62.9629 59.5976C59.6097 63.4187 55.4789 66.4802 50.8466 68.5775C46.2143 70.6747 41.1874 71.7594 36.1019 71.7589C31.0165 71.7585 25.9898 70.6729 21.3579 68.5748C16.726 66.4767 12.5957 63.4144 9.24314 59.5927C10.9606 53.8048 14.5038 48.7267 19.3446 45.1155C24.1853 41.5044 30.0643 39.5537 36.1049 39.5542C42.1454 39.5547 48.024 41.5065 52.8641 45.1186C57.7042 48.7306 61.2466 53.8094 62.9629 59.5976Z" fill="#73B3E7"/>
<path opacity="0.2" d="M52.9789 86.1179H4.55219C2.80457 86.1179 1.38784 87.5338 1.38784 89.2804C1.38784 91.027 2.80457 92.4429 4.55219 92.4429H52.9789C54.7265 92.4429 56.1433 91.027 56.1433 89.2804C56.1433 87.5338 54.7265 86.1179 52.9789 86.1179Z" fill="#73B3E7"/>
<path opacity="0.2" d="M185.514 35.2825H81.0131C79.781 35.2825 78.7822 36.3723 78.7822 37.7167C78.7822 39.061 79.781 40.1509 81.0131 40.1509H185.514C186.746 40.1509 187.745 39.061 187.745 37.7167C187.745 36.3723 186.746 35.2825 185.514 35.2825Z" fill="#73B3E7"/>
<path opacity="0.2" d="M185.514 49.8877H81.0131C79.781 49.8877 78.7822 50.9775 78.7822 52.3219C78.7822 53.6663 79.781 54.7561 81.0131 54.7561H185.514C186.746 54.7561 187.745 53.6663 187.745 52.3219C187.745 50.9775 186.746 49.8877 185.514 49.8877Z" fill="#73B3E7"/>
<path opacity="0.2" d="M166.069 64.4927H80.973C79.7631 64.4927 78.7822 65.5825 78.7822 66.9269C78.7822 68.2712 79.7631 69.3611 80.973 69.3611H166.069C167.279 69.3611 168.26 68.2712 168.26 66.9269C168.26 65.5825 167.279 64.4927 166.069 64.4927Z" fill="#73B3E7"/>
<path opacity="0.2" d="M52.9789 133.904H4.55219C2.80457 133.904 1.38784 135.32 1.38784 137.066C1.38784 138.813 2.80457 140.229 4.55219 140.229H52.9789C54.7265 140.229 56.1433 138.813 56.1433 137.066C56.1433 135.32 54.7265 133.904 52.9789 133.904Z" fill="#73B3E7"/>
<path d="M114.407 12.6156L120.857 20.2275L120.458 18.9206C120.337 18.4962 120.382 18.0418 120.584 17.6494C120.786 17.257 121.129 16.9559 121.545 16.8068C121.762 16.7374 121.991 16.7128 122.218 16.7347C122.444 16.7566 122.664 16.8244 122.864 16.9341C123.064 17.0438 123.239 17.193 123.38 17.3727C123.52 17.5523 123.622 17.7586 123.68 17.979L126.628 29.0737C127 30.4742 126.81 31.9646 126.098 33.227C125.386 34.4894 124.209 35.4238 122.817 35.8309C121.202 36.3035 119.482 36.2832 117.878 35.7725C116.274 35.2618 114.859 34.2841 113.815 32.9646L109.095 26.9779C108.843 26.6717 108.705 26.288 108.705 25.8919C108.704 25.4958 108.84 25.1116 109.09 24.8044C109.322 24.5313 109.635 24.3395 109.983 24.257C110.332 24.1745 110.698 24.2056 111.028 24.3457C111.034 24.3194 111.048 24.2954 111.067 24.2763C111.087 24.2595 111.11 24.2477 111.135 24.242C111.16 24.2363 111.186 24.2368 111.211 24.2436L110.336 23.1389C110.068 22.8151 109.927 22.4053 109.938 21.9853C109.948 21.5653 110.111 21.1633 110.395 20.8537C110.686 20.5565 111.077 20.378 111.493 20.3528C111.908 20.3276 112.318 20.4575 112.643 20.7173C112.645 20.6997 112.65 20.6826 112.659 20.667L112.3 20.214C112.065 19.9036 111.937 19.5262 111.934 19.1374C111.931 18.7486 112.053 18.3692 112.283 18.0551C112.563 17.7172 112.965 17.5025 113.402 17.4569C113.839 17.4114 114.276 17.5386 114.62 17.8115L114.643 17.7887L111.933 14.5906C111.794 14.4266 111.69 14.236 111.628 14.0305C111.565 13.8249 111.544 13.6088 111.568 13.3952C111.591 13.1815 111.658 12.975 111.764 12.788C111.87 12.601 112.013 12.4376 112.185 12.3078C112.525 12.0679 112.944 11.9662 113.357 12.0234C113.77 12.0805 114.145 12.2922 114.407 12.6156Z" fill="#CA8043"/>
<path opacity="0.2" d="M94.5544 17.9909C94.561 18.0081 94.5706 18.0241 94.5827 18.038L97.2527 21.1153C97.2663 21.131 97.2828 21.1439 97.3013 21.1532C97.3199 21.1625 97.3401 21.1681 97.3608 21.1697C97.3814 21.1712 97.4022 21.1687 97.4219 21.1622C97.4417 21.1557 97.4599 21.1454 97.4756 21.1318C97.4913 21.1183 97.5042 21.1018 97.5136 21.0833C97.5229 21.0647 97.5285 21.0446 97.5301 21.0239C97.5316 21.0032 97.529 20.9824 97.5225 20.9627C97.516 20.943 97.5057 20.9248 97.4922 20.9091L94.8245 17.833C94.7995 17.8072 94.7664 17.7907 94.7308 17.786C94.6951 17.7814 94.6589 17.7889 94.6281 17.8073C94.5972 17.8258 94.5735 17.8541 94.5608 17.8877C94.5481 17.9213 94.5471 17.9583 94.558 17.9925L94.5544 17.9909Z" fill="#0C0C0C"/>
<path opacity="0.2" d="M92.6469 20.791C92.6533 20.8077 92.6625 20.8232 92.674 20.8369L94.7523 23.2697C94.7801 23.2988 94.818 23.3161 94.8582 23.3182C94.8984 23.3202 94.9379 23.3068 94.9686 23.2807C94.9992 23.2546 95.0187 23.2177 95.023 23.1777C95.0273 23.1376 95.0161 23.0975 94.9917 23.0655L92.9134 20.6327C92.8893 20.6042 92.8558 20.5852 92.819 20.579C92.7821 20.5729 92.7443 20.5801 92.7122 20.5992C92.6802 20.6184 92.656 20.6483 92.6439 20.6836C92.6319 20.719 92.6328 20.7575 92.6465 20.7922L92.6469 20.791Z" fill="#0C0C0C"/>
<path opacity="0.2" d="M91.0247 24.4514C91.0317 24.4694 91.0418 24.4861 91.0547 24.5005L92.0651 25.6267C92.0789 25.6421 92.0955 25.6547 92.1142 25.6636C92.1328 25.6726 92.153 25.6778 92.1736 25.6789C92.1943 25.6801 92.2149 25.6771 92.2345 25.6703C92.254 25.6635 92.2719 25.6529 92.2873 25.6391C92.3027 25.6253 92.3153 25.6086 92.3242 25.59C92.3332 25.5714 92.3384 25.5512 92.3396 25.5306C92.3407 25.51 92.3378 25.4893 92.3309 25.4698C92.3241 25.4503 92.3135 25.4323 92.2997 25.4169L91.2913 24.2903C91.2667 24.2635 91.2336 24.246 91.1976 24.2409C91.1616 24.2357 91.1249 24.2431 91.0937 24.2619C91.0626 24.2807 91.0389 24.3097 91.0267 24.3439C91.0145 24.3782 91.0145 24.4156 91.0267 24.4498L91.0247 24.4514Z" fill="#0C0C0C"/>
<path d="M192.52 88.9615L136.219 85.0236C134.188 84.8816 132.238 84.1672 130.597 82.9633C128.955 81.7594 127.688 80.1152 126.943 78.2213L109.142 32.9645L129.197 25.0854L144.508 64.0146L194.022 67.4779L192.52 88.9615Z" fill="#28A0CB"/>
<path d="M215.517 137.442C215.517 137.442 215.412 134.635 215.434 141.001C215.517 164.742 215.929 191.86 216.936 207.729C218.555 233.239 222.706 313.667 222.706 313.667L200.748 313.482L179.466 136.477L215.517 137.442Z" fill="#262626"/>
<path d="M155.486 139.285C155.486 139.285 153.541 220.427 153.826 224.393L161.992 313.051L183.587 313.45L181.483 221.185C181.483 221.185 182.968 195.734 189.12 172.101C192.268 159.972 194.163 147.552 194.774 135.036L155.486 139.285Z" fill="#262626"/>
<path d="M215.755 137.439L215.827 137.443C215.827 137.443 215.775 136.059 215.755 137.439Z" fill="#333333"/>
<path d="M152.395 94.2459C152.848 99.5629 155.051 132.736 155.486 139.285H215.491C215.831 133.378 217.353 107.549 218.638 95.9979C219.865 84.9753 222.272 79.4565 220.508 76.1981C217.624 70.8723 209.745 67.7946 204.372 67.0676C201.091 66.6237 196.157 66.3054 196.157 66.3054C196.157 66.3054 195.739 74.7528 185.776 75.223C172.214 75.8611 173.12 66.3054 173.053 66.3054C170.856 66.3054 158.062 67.338 155.234 69.5143C150.287 73.3206 151.434 82.978 152.395 94.2459Z" fill="#28A0CB"/>
<path d="M151.567 87.5832C151.516 87.5833 151.467 87.5639 151.43 87.529C151.392 87.494 151.37 87.4462 151.367 87.3954L150.885 78.952C150.882 78.8992 150.9 78.8474 150.935 78.8079C150.97 78.7684 151.02 78.7445 151.073 78.7414C151.125 78.739 151.177 78.7573 151.216 78.7924C151.256 78.8275 151.28 78.8766 151.283 78.9293L151.767 87.3723C151.77 87.425 151.752 87.4769 151.717 87.5164C151.682 87.5558 151.633 87.5798 151.58 87.5828L151.567 87.5832Z" fill="#0C0C0C"/>
<path d="M228.465 138.938C230.23 138.937 231.969 138.511 233.534 137.695C235.098 136.878 236.442 135.696 237.451 134.249C238.461 132.802 239.105 131.133 239.33 129.383C239.555 127.634 239.353 125.856 238.743 124.201C238.123 122.521 223.59 84.0574 220.823 76.9309L200.336 85.2263C201.892 89.2337 207.528 104.422 212.056 116.658L204.533 115.841L202.166 137.61L227.28 138.873C227.674 138.916 228.069 138.938 228.465 138.938Z" fill="#28A0CB"/>
<path d="M165.905 65.5773C165.972 65.5686 167.812 72.4913 182.177 71.4141C192.121 70.6695 194.548 63.9043 194.774 63.9043C193.702 63.6766 191.961 63.4401 191.485 63.1864C189.919 62.3457 188.778 61.3219 188.204 59.1252C187.755 57.4071 187.526 50.7935 187.526 47.4753L172.223 50.912C172.436 54.6553 173.929 63.3324 168.697 64.8682C167.827 65.1219 166.889 65.3556 165.905 65.5773Z" fill="#E98862"/>
<path d="M172.753 58.2704C178.786 58.7462 186.535 56.2005 188.007 48.1567L189.335 40.8982C190.807 32.8544 187.773 25.5608 180.197 24.1757C172.619 22.7906 165.761 28.276 164.29 36.3198L163.701 39.5331C163.136 42.6199 161.99 57.4217 172.753 58.2704Z" fill="#CA8043"/>
<path d="M167.16 50.8852C168.243 45.4477 168.739 41.8196 168.681 37.9921C167.156 35.32 167.557 32.2491 167.904 30.9235C166.854 31.5904 165.619 31.9069 164.377 31.8276C164.377 31.8276 166.899 21.7103 175.471 18.988C177.047 18.3746 181.072 17.6001 186.417 18.3327C190.963 18.9557 202.167 22.3528 203.768 34.9607V34.9679C203.822 35.3858 204.897 47.0023 207.041 52.5758C209.924 60.0684 213.972 62.3963 213.87 71.0411C213.738 82.1605 193.283 83.6406 180.948 82.809C168.613 81.9775 161.724 77.9227 161.634 69.9092C161.54 60.9306 164.993 61.7645 167.16 50.8852Z" fill="#0A0A0A"/>
<path d="M216.774 96.2218L215.3 139.28L215.699 139.294L217.173 96.2355L216.774 96.2218Z" fill="#0C0C0C"/>
</g>
</g>
</g>
<defs>
<clipPath id="clip0_433_1234">
<rect width="240" height="170" fill="white"/>
</clipPath>
<clipPath id="clip1_433_1234">
<rect width="240" height="170" fill="white"/>
</clipPath>
<clipPath id="clip2_433_1234">
<rect width="355" height="341.926" fill="white" transform="translate(-60 -51)"/>
</clipPath>
</defs>
</svg>
