<svg width="240" height="170" viewBox="0 0 240 170" fill="none" xmlns="http://www.w3.org/2000/svg">
<g clip-path="url(#clip0_433_2217)">
<g clip-path="url(#clip1_433_2217)">
<path d="M331.911 -58H173.885C167.451 -58 162.235 -52.7874 162.235 -46.3573V39.2901C162.235 45.7202 167.451 50.9328 173.885 50.9328H331.911C338.345 50.9328 343.561 45.7202 343.561 39.2901V-46.3573C343.561 -52.7874 338.345 -58 331.911 -58Z" fill="white"/>
<path opacity="0.1" d="M331.911 -58H173.885C167.451 -58 162.235 -52.7874 162.235 -46.3573V39.2901C162.235 45.7202 167.451 50.9328 173.885 50.9328H331.911C338.345 50.9328 343.561 45.7202 343.561 39.2901V-46.3573C343.561 -52.7874 338.345 -58 331.911 -58Z" fill="#28A0CB"/>
<path d="M192.455 0.40947H178.462C177.61 0.40947 176.92 1.09956 176.92 1.95082V32.9471C176.92 33.7984 177.61 34.4885 178.462 34.4885H192.455C193.307 34.4885 193.997 33.7984 193.997 32.9471V1.95082C193.997 1.09956 193.307 0.40947 192.455 0.40947Z" fill="white"/>
<path d="M226.175 -38.1455H212.182C211.331 -38.1455 210.64 -37.4554 210.64 -36.6042V32.9471C210.64 33.7984 211.331 34.4885 212.182 34.4885H226.175C227.027 34.4885 227.717 33.7984 227.717 32.9471V-36.6042C227.717 -37.4554 227.027 -38.1455 226.175 -38.1455Z" fill="white"/>
<path d="M-20.505 220.263L290.851 220.263C298.497 220.263 304.695 214.068 304.695 206.427L304.695 -21.3978C304.695 -29.0393 298.497 -35.234 290.851 -35.234L-20.505 -35.234C-28.1511 -35.234 -34.3495 -29.0393 -34.3495 -21.3978L-34.3495 206.427C-34.3495 214.068 -28.1511 220.263 -20.505 220.263Z" fill="white"/>
<path d="M-34.8115 206.427V-21.3977C-34.8072 -25.1883 -33.2986 -28.8225 -30.6167 -31.5028C-27.9347 -34.1832 -24.2985 -35.6909 -20.5056 -35.6951H290.85C294.643 -35.6909 298.279 -34.1832 300.961 -31.5028C303.643 -28.8225 305.152 -25.1883 305.156 -21.3977V206.427C305.152 210.217 303.643 213.851 300.961 216.532C298.279 219.212 294.643 220.72 290.85 220.724H-20.5056C-24.2985 220.72 -27.9347 219.212 -30.6167 216.532C-33.2986 213.851 -34.8072 210.217 -34.8115 206.427ZM-20.5056 -34.7727C-24.0537 -34.7686 -27.4553 -33.3581 -29.9642 -30.8507C-32.4731 -28.3433 -33.8844 -24.9437 -33.8886 -21.3977V206.427C-33.8845 209.973 -32.4732 213.372 -29.9643 215.88C-27.4554 218.387 -24.0537 219.798 -20.5056 219.802H290.85C294.398 219.798 297.8 218.387 300.309 215.88C302.818 213.372 304.229 209.973 304.233 206.427V-21.3977C304.229 -24.9438 302.818 -28.3434 300.309 -30.8508C297.8 -33.3583 294.398 -34.7687 290.85 -34.7727H-20.5056Z" fill="#292A2E"/>
<path d="M234.376 5.75301H102.268C99.0257 5.75301 96.397 8.38016 96.397 11.6209V105.019C96.397 108.26 99.0257 110.887 102.268 110.887H234.376C237.618 110.887 240.247 108.26 240.247 105.019V11.6209C240.247 8.38016 237.618 5.75301 234.376 5.75301Z" fill="white"/>
<path opacity="0.15" d="M234.376 5.75301H102.268C99.0257 5.75301 96.397 8.38016 96.397 11.6209V105.019C96.397 108.26 99.0257 110.887 102.268 110.887H234.376C237.618 110.887 240.247 108.26 240.247 105.019V11.6209C240.247 8.38016 237.618 5.75301 234.376 5.75301Z" fill="#28A0CB"/>
<path d="M122.217 18.872H110.8C110.269 18.872 109.839 19.3017 109.839 19.8318V96.808C109.839 97.3381 110.269 97.7678 110.8 97.7678H122.217C122.748 97.7678 123.178 97.3381 123.178 96.808V19.8318C123.178 19.3017 122.748 18.872 122.217 18.872Z" fill="#FAFAFA"/>
<path opacity="0.6" d="M109.839 57.5456H123.176V96.8081C123.176 97.0626 123.075 97.3067 122.895 97.4867C122.715 97.6667 122.471 97.7678 122.216 97.7678H110.8C110.545 97.7678 110.301 97.6667 110.121 97.4867C109.941 97.3067 109.839 97.0626 109.839 96.8081V57.5456Z" fill="#FFBC78"/>
<path d="M148.124 18.872H136.706C136.176 18.872 135.746 19.3017 135.746 19.8318V96.808C135.746 97.3381 136.176 97.7678 136.706 97.7678H148.124C148.654 97.7678 149.084 97.3381 149.084 96.808V19.8318C149.084 19.3017 148.654 18.872 148.124 18.872Z" fill="#FAFAFA"/>
<path opacity="0.6" d="M135.746 46.6108H149.083V96.8076C149.083 97.0621 148.982 97.3062 148.802 97.4862C148.622 97.6662 148.377 97.7674 148.123 97.7674H136.706C136.452 97.7674 136.207 97.6662 136.027 97.4862C135.847 97.3062 135.746 97.0621 135.746 96.8076V46.6108Z" fill="#FFBC78"/>
<path d="M225.844 18.872H214.427C213.896 18.872 213.466 19.3017 213.466 19.8318V96.808C213.466 97.3381 213.896 97.7678 214.427 97.7678H225.844C226.375 97.7678 226.805 97.3381 226.805 96.808V19.8318C226.805 19.3017 226.375 18.872 225.844 18.872Z" fill="#FAFAFA"/>
<path opacity="0.6" d="M213.466 35.5788H226.803V96.8085C226.803 97.0631 226.702 97.3072 226.522 97.4872C226.342 97.6672 226.097 97.7683 225.843 97.7683H214.427C214.172 97.7683 213.928 97.6672 213.748 97.4872C213.568 97.3072 213.467 97.0631 213.467 96.8085V35.5788H213.466Z" fill="#FFBC78"/>
<path d="M174.031 18.872H162.614C162.083 18.872 161.653 19.3017 161.653 19.8318V96.808C161.653 97.3381 162.083 97.7678 162.614 97.7678H174.031C174.562 97.7678 174.992 97.3381 174.992 96.808V19.8318C174.992 19.3017 174.562 18.872 174.031 18.872Z" fill="#FAFAFA"/>
<path opacity="0.6" d="M161.653 75.2314H174.99V96.808C174.99 97.0626 174.889 97.3067 174.709 97.4867C174.529 97.6667 174.285 97.7678 174.03 97.7678H162.614C162.359 97.7678 162.115 97.6667 161.935 97.4867C161.755 97.3067 161.653 97.0626 161.653 96.808V75.2314Z" fill="#FFBC78"/>
<path d="M199.938 18.872H188.52C187.99 18.872 187.56 19.3017 187.56 19.8318V96.808C187.56 97.3381 187.99 97.7678 188.52 97.7678H199.938C200.468 97.7678 200.898 97.3381 200.898 96.808V19.8318C200.898 19.3017 200.468 18.872 199.938 18.872Z" fill="#FAFAFA"/>
<path opacity="0.6" d="M187.559 61.4451H200.895V96.8076C200.895 97.0621 200.794 97.3063 200.614 97.4862C200.434 97.6662 200.19 97.7674 199.935 97.7674H188.52C188.394 97.7674 188.269 97.7425 188.153 97.6943C188.036 97.6461 187.93 97.5754 187.841 97.4862C187.752 97.3971 187.681 97.2913 187.633 97.1749C187.585 97.0584 187.56 96.9336 187.56 96.8076V61.4451H187.559Z" fill="#FFBC78"/>
<path opacity="0.6" d="M5.36691 157.506C7.09237 157.506 8.49113 156.109 8.49113 154.384C8.49113 152.66 7.09237 151.262 5.36691 151.262C3.64144 151.262 2.24268 152.66 2.24268 154.384C2.24268 156.109 3.64144 157.506 5.36691 157.506Z" fill="#28A0CB"/>
<path d="M5.36691 173.424C7.09237 173.424 8.49113 172.026 8.49113 170.301C8.49113 168.577 7.09237 167.179 5.36691 167.179C3.64144 167.179 2.24268 168.577 2.24268 170.301C2.24268 172.026 3.64144 173.424 5.36691 173.424Z" fill="#FAFAFA"/>
<path opacity="0.6" d="M112.407 154.386C112.407 154.854 112.221 155.303 111.89 155.635C111.558 155.966 111.109 156.152 110.64 156.152H16.9256C16.5077 156.16 16.0998 156.024 15.7704 155.767C15.4409 155.509 15.2097 155.147 15.1156 154.74C15.0633 154.483 15.0688 154.218 15.1317 153.963C15.1946 153.709 15.3134 153.471 15.4794 153.268C15.6455 153.065 15.8546 152.901 16.0917 152.789C16.3288 152.677 16.588 152.619 16.8504 152.619H110.64C110.872 152.619 111.102 152.664 111.316 152.753C111.531 152.842 111.726 152.972 111.89 153.136C112.054 153.3 112.184 153.495 112.273 153.709C112.362 153.924 112.408 154.153 112.407 154.386Z" fill="#28A0CB"/>
<path d="M112.408 170.301C112.408 170.769 112.222 171.219 111.89 171.55C111.559 171.881 111.109 172.067 110.64 172.067H16.9439C16.6987 172.071 16.4554 172.025 16.2281 171.933C16.0009 171.841 15.7945 171.705 15.621 171.532C15.4475 171.359 15.3105 171.152 15.2181 170.926C15.1258 170.699 15.0799 170.455 15.0832 170.21C15.1069 169.758 15.3035 169.332 15.6324 169.02C15.9612 168.708 16.3973 168.534 16.8506 168.534H110.64C110.872 168.534 111.102 168.58 111.317 168.669C111.531 168.758 111.726 168.888 111.89 169.052C112.054 169.216 112.184 169.411 112.273 169.625C112.362 169.839 112.408 170.069 112.408 170.301Z" fill="white"/>
<path d="M16.7305 169.401C16.7305 169.401 19.6203 166.156 19.5949 173.517C19.4994 200.972 17.6456 373.193 17.6456 373.193L43.0391 372.98L58.4216 168.285L16.7305 169.401Z" fill="#262626"/>
<path d="M86.1525 171.533C86.1525 171.533 89.3247 265.368 88.9952 269.955L86.0122 372.481L61.0382 372.942L57.0113 266.245C57.0113 266.245 54.3716 236.813 47.256 209.483C43.6156 195.456 41.4247 181.093 40.7178 166.619L86.1525 171.533Z" fill="#262626"/>
<path d="M16.4547 169.398L16.3716 169.403C16.3716 169.403 16.4325 167.802 16.4547 169.398Z" fill="#333333"/>
<path d="M16.5591 169.398L16.4761 169.403C16.4761 169.403 16.5361 167.802 16.5591 169.398Z" fill="#333333"/>
<path d="M155.708 93.2355C155.555 92.9328 155.312 92.685 155.012 92.5263C154.712 92.3676 154.37 92.3058 154.033 92.3496C154.036 92.3197 154.03 92.2897 154.015 92.2638C153.999 92.2436 153.979 92.228 153.955 92.2183C153.931 92.2087 153.906 92.2054 153.88 92.2089L155.016 91.3953C155.356 91.163 155.6 90.8154 155.704 90.4168C155.807 90.0183 155.762 89.5958 155.578 89.2276C155.385 88.8697 155.065 88.5964 154.681 88.4608C154.297 88.3252 153.877 88.337 153.501 88.4939C153.505 88.4777 153.493 88.4625 153.491 88.4478L153.958 88.1138C154.277 87.8934 154.51 87.5696 154.618 87.1971C154.726 86.8247 154.702 86.4264 154.549 86.0698C154.449 85.8482 154.301 85.6516 154.116 85.4942C153.93 85.3367 153.712 85.2223 153.478 85.1592C153.243 85.096 152.997 85.0858 152.757 85.1291C152.518 85.1724 152.291 85.2683 152.093 85.4098L151.017 86.1814C151.013 86.1749 151.017 86.1676 151.013 86.1616C151.008 86.1556 150.996 86.1532 150.99 86.1468C151.238 85.8688 151.383 85.5151 151.403 85.1437C151.422 84.7722 151.315 84.4052 151.098 84.1027C150.591 83.2855 149.417 83.4529 148.721 83.9514L142.384 88.326L143.516 86.4203C143.744 86.0534 143.824 85.6139 143.74 85.1903C143.657 84.7668 143.416 84.3907 143.065 84.1378C142.88 84.0138 142.671 83.9289 142.452 83.8882C142.232 83.8475 142.007 83.8519 141.789 83.9012C141.572 83.9504 141.366 84.0434 141.186 84.1746C141.005 84.3057 140.853 84.4723 140.74 84.664L134.556 95.0698C133.83 96.2905 133.609 97.7459 133.94 99.1268C134.271 100.508 135.128 101.705 136.328 102.465C137.72 103.346 139.344 103.791 140.991 103.744C142.638 103.697 144.234 103.159 145.573 102.2L155.143 95.3437C155.461 95.1073 155.69 94.7705 155.792 94.3879C155.895 94.0052 155.865 93.5991 155.708 93.2355Z" fill="#BB6751"/>
<g opacity="0.25">
<path d="M144.745 90.5043C144.769 90.5363 144.803 90.558 144.842 90.5647C144.882 90.5713 144.922 90.5624 144.954 90.5398L150.975 86.3719C150.992 86.3605 151.006 86.3461 151.017 86.3294C151.027 86.3127 151.035 86.294 151.038 86.2744C151.042 86.2548 151.042 86.2348 151.037 86.2153C151.033 86.1959 151.025 86.1775 151.014 86.1611C151.002 86.1447 150.988 86.1308 150.971 86.12C150.955 86.1092 150.936 86.1019 150.916 86.0983C150.897 86.0948 150.877 86.0951 150.857 86.0993C150.838 86.1035 150.819 86.1115 150.803 86.1228L144.781 90.2907C144.748 90.3137 144.726 90.3487 144.719 90.3882C144.712 90.4277 144.72 90.4685 144.743 90.5015L144.745 90.5043Z" fill="#0C0C0C"/>
</g>
<g opacity="0.25">
<path d="M146.512 93.2092C146.535 93.2412 146.57 93.2629 146.609 93.2694C146.648 93.276 146.688 93.267 146.72 93.2443L153.44 88.593C153.473 88.57 153.496 88.535 153.503 88.4955C153.51 88.456 153.501 88.4153 153.478 88.3823C153.454 88.3504 153.419 88.3286 153.38 88.3215C153.341 88.3144 153.301 88.3224 153.267 88.344L146.548 92.9952C146.515 93.0183 146.492 93.0534 146.485 93.093C146.478 93.1326 146.486 93.1734 146.509 93.2065L146.512 93.2092Z" fill="#0C0C0C"/>
</g>
<g opacity="0.25">
<path d="M148.408 96.1494C148.431 96.1814 148.466 96.203 148.505 96.2097C148.544 96.2163 148.584 96.2074 148.616 96.185L153.977 92.4745C154.01 92.4517 154.032 92.4166 154.04 92.3771C154.047 92.3376 154.038 92.2968 154.015 92.2638C153.992 92.2307 153.957 92.2082 153.918 92.201C153.878 92.1938 153.837 92.2026 153.804 92.2255L148.444 95.9359C148.411 95.9588 148.388 95.9939 148.381 96.0334C148.374 96.0729 148.382 96.1136 148.405 96.1467L148.408 96.1494Z" fill="#0C0C0C"/>
</g>
<path d="M130.906 92.6996L112.744 123.615L90.581 94.5629L72.1748 111.146L103.606 151.83L103.812 152.12C105.07 153.842 106.746 155.215 108.683 156.111C110.619 157.007 112.751 157.395 114.879 157.239C117.007 157.084 119.061 156.389 120.846 155.221C122.631 154.053 124.089 152.45 125.083 150.563L150.911 103.818L130.906 92.6996Z" fill="#97D4EA"/>
<path d="M110.963 127.333C110.923 127.333 110.884 127.323 110.85 127.304C110.815 127.284 110.786 127.257 110.765 127.223C110.745 127.189 110.733 127.151 110.732 127.111C110.73 127.072 110.739 127.032 110.757 126.997L112.538 123.51C112.566 123.456 112.614 123.414 112.672 123.396C112.73 123.377 112.794 123.382 112.848 123.41C112.903 123.438 112.944 123.486 112.963 123.544C112.981 123.603 112.976 123.666 112.948 123.72L111.168 127.207C111.149 127.245 111.119 127.277 111.083 127.299C111.047 127.321 111.005 127.333 110.963 127.333Z" fill="#0C0C0C"/>
<path d="M89.3015 123.439L88.7471 133.203L89.2078 133.229L89.7623 123.465L89.3015 123.439Z" fill="#0C0C0C"/>
<path d="M30.7754 52.7711C30.7754 52.7711 29.9245 63.6399 27.4302 67.5579C20.249 78.8371 18.0588 91.5946 25.0406 98.3531C32.0223 105.112 77.0477 105.728 80.6366 90.407C83.658 77.5102 77.5115 76.0491 76.1353 65.3635C75.5128 60.5291 73.7638 50.3876 73.7638 50.3876" fill="#0A0A0A"/>
<path d="M69.1744 87.9584C69.0969 87.9483 68.2339 102.252 51.6077 101.005C40.0974 100.143 35.993 87.9381 35.7295 87.9381C36.9704 87.6748 39.0605 87.2924 39.6115 86.9972C41.4237 86.0241 43.6665 85.0113 44.2507 81.4937C44.5876 79.4644 44.0163 69.0937 44.1921 67.0422L61.8604 70.9837C61.6135 75.3158 59.8857 85.3595 65.9418 87.1375C66.9496 87.4312 68.035 87.7015 69.1744 87.9584Z" fill="#BB6751"/>
<path d="M62.1084 83.0327C61.8315 82.1414 61.6532 81.2224 61.5767 80.2922C61.3824 78.1696 61.4211 76.0321 61.6921 73.9179C58.101 73.4334 54.7179 71.952 51.9272 69.6421C51.599 70.8532 49.7947 76.1451 50.2944 77.2949C51.2386 79.4704 55.6762 83.0327 62.1084 83.0327Z" fill="#0C0C0C"/>
<path d="M59.7658 78.5309C52.7928 79.1235 43.8124 76.235 42.0532 66.9431L40.4653 58.5588C38.7057 49.2669 42.1626 40.8107 50.9169 39.1549C59.6707 37.4992 67.6405 43.7942 69.4002 53.0861L70.103 56.7979C70.7786 60.3631 72.2083 77.4729 59.7658 78.5309Z" fill="#BB6751"/>
<path d="M67.6081 57.2024C68.2142 57.2024 68.7055 56.7114 68.7055 56.1057C68.7055 55.4999 68.2142 55.0089 67.6081 55.0089C67.0021 55.0089 66.5107 55.4999 66.5107 56.1057C66.5107 56.7114 67.0021 57.2024 67.6081 57.2024Z" fill="#0C0C0C"/>
<path d="M56.366 58.7036C56.972 58.7036 57.4634 58.2126 57.4634 57.6069C57.4634 57.0012 56.972 56.5101 56.366 56.5101C55.7599 56.5101 55.2686 57.0012 55.2686 57.6069C55.2686 58.2126 55.7599 58.7036 56.366 58.7036Z" fill="#0C0C0C"/>
<path d="M62.5344 65.6494L62.5515 65.6466C62.9061 65.5771 63.2566 65.4879 63.6014 65.3796C64.1159 65.214 64.7902 64.9405 64.7025 64.4756C64.6023 63.9462 62.0693 58.5081 61.7808 57.8901C61.7685 57.8631 61.751 57.8388 61.7293 57.8186C61.7075 57.7984 61.682 57.7827 61.6542 57.7724C61.6264 57.7622 61.5968 57.7575 61.5671 57.7587C61.5375 57.7599 61.5084 57.767 61.4815 57.7795C61.4546 57.792 61.4304 57.8097 61.4104 57.8316C61.3904 57.8535 61.3749 57.8792 61.3648 57.9071C61.3548 57.935 61.3504 57.9646 61.3518 57.9942C61.3533 58.0238 61.3606 58.0528 61.3733 58.0796C62.4537 60.3958 64.193 64.2026 64.2604 64.5591C64.2027 64.7247 63.348 65.0383 62.468 65.2048C62.4102 65.2149 62.3587 65.2471 62.3244 65.2947C62.2901 65.3422 62.2757 65.4013 62.2844 65.4593C62.2931 65.5172 62.3241 65.5695 62.3708 65.605C62.4175 65.6404 62.4762 65.6562 62.5344 65.6489V65.6494Z" fill="#0C0C0C"/>
<path d="M61.2393 69.6587C62.6673 69.4735 64.0316 68.9555 65.2224 68.1464C65.2723 68.1138 65.3073 68.0628 65.3196 68.0045C65.3318 67.9462 65.3205 67.8854 65.2879 67.8355C65.2553 67.7856 65.2043 67.7507 65.146 67.7384C65.0876 67.7261 65.0268 67.7375 64.9769 67.77C62.4 69.4479 59.8392 69.7196 57.5719 68.5541C57.5261 68.5292 57.4789 68.5067 57.4307 68.4868C57.3746 68.4665 57.3127 68.4694 57.2587 68.4947C57.2047 68.5201 57.163 68.5658 57.1428 68.6219C57.1225 68.678 57.1254 68.7398 57.1507 68.7938C57.1761 68.8477 57.2219 68.8894 57.278 68.9097C57.2955 68.9171 57.3241 68.9327 57.3661 68.9558C58.5584 69.5701 59.907 69.8148 61.2393 69.6587Z" fill="#0C0C0C"/>
<path d="M33.4613 61.4806L41.3092 60.043C47.2522 57.6392 49.0496 47.357 49.0496 47.357C49.0496 47.357 56.2686 54.389 73.7629 50.3895C73.7629 50.3895 70.2556 26.0064 44.4099 33.0942C36.076 35.3804 30.0947 43.7735 30.84 54.9905C31.3629 62.8536 33.4613 61.4806 33.4613 61.4806Z" fill="#0A0A0A"/>
<path d="M43.133 69.6711C40.473 70.1743 37.7775 67.7377 37.2722 65.0789C36.7669 62.42 38.6479 60.5461 41.3083 60.043L43.0158 61.5649L45.4183 69.2385L43.133 69.6711Z" fill="#BB6751"/>
<path d="M63.3849 53.444C64.1607 52.9429 65.0572 52.66 65.9802 52.6249C66.4346 52.6044 66.8895 52.6525 67.3296 52.7674C67.7655 52.8792 68.1855 53.0455 68.5798 53.2623C68.6354 53.2897 68.6779 53.3379 68.6981 53.3964C68.7183 53.4549 68.7145 53.5191 68.6876 53.5749C68.6607 53.6306 68.6129 53.6735 68.5545 53.6942C68.496 53.7149 68.4318 53.7117 68.3758 53.6852L68.3592 53.6774C67.9946 53.4984 67.6091 53.366 67.2115 53.2831C66.8187 53.1989 66.4154 53.1746 66.0153 53.2111C65.2216 53.2775 64.4596 53.5526 63.8067 54.0085L63.7854 54.0242C63.7479 54.0515 63.7054 54.0711 63.6603 54.0819C63.6152 54.0928 63.5684 54.0946 63.5226 54.0874C63.4768 54.0801 63.4329 54.0639 63.3933 54.0397C63.3538 54.0155 63.3194 53.9838 63.2921 53.9463C63.2648 53.9088 63.2452 53.8663 63.2344 53.8212C63.2236 53.7762 63.2217 53.7294 63.2289 53.6836C63.2362 53.6378 63.2524 53.5939 63.2766 53.5544C63.3008 53.5149 63.3326 53.4805 63.3701 53.4533L63.3849 53.444Z" fill="#0C0C0C"/>
<path d="M56.3863 55.0905C55.6127 54.901 54.8028 54.9196 54.0387 55.1445C53.6524 55.2549 53.2849 55.423 52.9487 55.6431C52.6081 55.8646 52.2966 56.128 52.0216 56.4271L52.0091 56.4396C51.9661 56.4827 51.908 56.5074 51.847 56.5085C51.7861 56.5096 51.7271 56.487 51.6826 56.4455C51.638 56.4039 51.6114 56.3467 51.6082 56.2859C51.6051 56.225 51.6257 56.1654 51.6658 56.1195C51.955 55.7748 52.2866 55.4682 52.6529 55.2068C53.0215 54.9405 53.4282 54.7314 53.8592 54.5864C54.7329 54.2863 55.6712 54.2264 56.5759 54.413C56.6677 54.4327 56.748 54.488 56.7989 54.5668C56.8499 54.6456 56.8675 54.7414 56.8478 54.8332C56.8281 54.9249 56.7727 55.0051 56.6939 55.056C56.615 55.107 56.5191 55.1245 56.4274 55.1048L56.413 55.1011L56.3863 55.0905Z" fill="#0C0C0C"/>
<path d="M61.5431 71.7687C61.8017 71.7391 62.0574 71.6878 62.3073 71.6151C62.3646 71.5986 62.4131 71.5601 62.442 71.5079C62.4709 71.4558 62.4779 71.3943 62.4614 71.337C62.445 71.2797 62.4064 71.2313 62.3542 71.2024C62.302 71.1735 62.2405 71.1665 62.1832 71.1829C60.6783 71.616 59.8227 71.0446 59.7872 71.0178C59.7382 70.9836 59.6776 70.9702 59.6188 70.9806C59.5599 70.9909 59.5076 71.0242 59.4734 71.0732C59.4391 71.1221 59.4257 71.1826 59.436 71.2414C59.4464 71.3003 59.4798 71.3526 59.5287 71.3868C60.1358 71.7429 60.8477 71.8779 61.5431 71.7687Z" fill="#0C0C0C"/>
<path d="M41.327 59.9433L41.249 59.7261C51.1916 56.1592 48.7601 46.4079 48.7347 46.3096L48.9576 46.2511C48.9839 46.3511 51.4708 56.304 41.327 59.9433Z" fill="#0C0C0C"/>
<path opacity="0.1" d="M55.4437 66.2954C56.5914 66.1719 57.4482 65.3898 57.3576 64.5485C57.267 63.7071 56.2632 63.1252 55.1156 63.2486C53.9679 63.3721 53.1111 64.1542 53.2017 64.9956C53.2923 65.8369 54.2961 66.4189 55.4437 66.2954Z" fill="#0C0C0C"/>
<path opacity="0.1" d="M67.6309 63.1128C67.7232 63.9531 68.7274 64.5342 69.8756 64.4124C70.074 64.3908 70.2696 64.3488 70.4594 64.287C70.524 63.2871 70.5383 62.325 70.5194 61.4335C70.202 61.3503 69.8719 61.3272 69.5461 61.3653C68.3979 61.4866 67.5414 62.2688 67.6309 63.1128Z" fill="#0C0C0C"/>
<path d="M89.8318 119.448C89.308 125.597 86.7606 163.959 86.2571 171.533H19.6321C19.2399 164.702 14.7109 134.832 13.2245 121.474C11.8054 108.727 9.02131 102.346 11.062 98.5772C14.3966 92.4183 23.5091 88.8592 29.7224 88.0184C33.5167 87.5055 39.223 87.1375 39.223 87.1375C39.223 87.1375 39.7061 96.9058 51.2275 97.4496C66.9109 98.1875 65.8638 87.1375 65.9413 87.1375C68.4823 87.1375 82.9968 88.7448 86.5479 90.8483C96.2228 96.5751 90.9435 106.42 89.8318 119.448Z" fill="#97D4EA"/>
<path d="M133.078 123.744L126.656 154.939C126.526 155.572 126.183 156.142 125.683 156.554C125.184 156.965 124.559 157.193 123.912 157.199L79.6897 157.575C79.2678 157.579 78.8505 157.488 78.4683 157.309C78.0861 157.131 77.7487 156.869 77.4807 156.544C77.2128 156.218 77.0211 155.837 76.9198 155.427C76.8184 155.018 76.8099 154.591 76.8949 154.178L83.3169 122.982C83.4475 122.349 83.7913 121.779 84.2911 121.369C84.791 120.958 85.4166 120.731 86.0637 120.725L130.286 120.349C130.707 120.346 131.124 120.437 131.506 120.615C131.887 120.794 132.224 121.055 132.492 121.381C132.76 121.706 132.951 122.087 133.053 122.496C133.154 122.905 133.163 123.331 133.078 123.744Z" fill="#FFBC78"/>
<path d="M91.8417 145.903C91.8652 146.313 91.7395 146.719 91.4877 147.044C91.2358 147.37 90.8748 147.593 90.4711 147.674L89.1097 147.973C89.134 147.981 89.156 147.995 89.1737 148.014C89.1914 148.032 89.2043 148.055 89.2113 148.079C89.2146 148.108 89.2081 148.138 89.1928 148.162C89.5201 148.254 89.8106 148.446 90.0239 148.71C90.2373 148.975 90.3629 149.299 90.3834 149.638C90.3854 150.034 90.2538 150.418 90.0102 150.729C89.7665 151.041 89.4248 151.261 89.0405 151.354L77.545 153.904C76.9573 154.036 76.3568 154.103 75.7545 154.103C74.4127 154.103 73.0912 153.776 71.9037 153.152C70.7163 152.528 69.6986 151.624 68.9384 150.519C68.1322 149.35 67.8143 147.913 68.0521 146.513C68.29 145.114 69.0649 143.862 70.2121 143.025L79.9909 135.881C80.2061 135.723 80.4563 135.62 80.72 135.581L79.8201 139.948L80.0601 139.893L80.1108 139.884L87.6099 138.357C88.4452 138.173 89.5897 138.477 89.7374 139.427C89.8165 139.791 89.7702 140.171 89.606 140.505C89.4418 140.839 89.1693 141.108 88.8329 141.267C88.8375 141.272 88.8467 141.277 88.8467 141.286C88.8467 141.295 88.8421 141.3 88.8421 141.309L90.1388 141.023C90.3761 140.97 90.6221 140.971 90.859 141.025C91.096 141.079 91.318 141.185 91.5092 141.335C91.7003 141.485 91.8558 141.675 91.9643 141.892C92.0729 142.11 92.1319 142.348 92.137 142.591C92.137 142.979 92.0028 143.355 91.7572 143.655C91.5116 143.955 91.1697 144.161 90.7895 144.238L90.2311 144.362C90.2265 144.381 90.2311 144.399 90.2219 144.413C90.6288 144.416 91.0199 144.57 91.3193 144.845C91.6187 145.121 91.8049 145.498 91.8417 145.903Z" fill="#BB6751"/>
<g opacity="0.25">
<path d="M81.377 142.823C81.3859 142.862 81.4095 142.895 81.4428 142.917C81.4761 142.938 81.5164 142.945 81.5552 142.937L88.7303 141.467C88.7498 141.463 88.7683 141.455 88.7847 141.444C88.8012 141.433 88.8153 141.418 88.8263 141.402C88.8372 141.385 88.8448 141.367 88.8486 141.347C88.8523 141.327 88.8522 141.307 88.8482 141.288C88.8442 141.268 88.8364 141.25 88.8252 141.234C88.8141 141.217 88.7998 141.203 88.7832 141.192C88.7666 141.181 88.748 141.173 88.7285 141.17C88.7089 141.166 88.6889 141.166 88.6694 141.17L81.4943 142.64C81.4549 142.649 81.4203 142.672 81.3982 142.705C81.376 142.739 81.3681 142.78 81.3761 142.819L81.377 142.823Z" fill="#0C0C0C"/>
</g>
<g opacity="0.25">
<path d="M81.939 146.004C81.9479 146.042 81.9715 146.076 82.0048 146.097C82.0381 146.118 82.0784 146.126 82.1171 146.118L90.1247 144.477C90.1641 144.469 90.1986 144.445 90.2207 144.412C90.2428 144.378 90.2508 144.337 90.2429 144.298C90.2335 144.259 90.2098 144.226 90.1766 144.204C90.1434 144.182 90.1031 144.173 90.0638 144.18L82.0553 145.821C82.0358 145.825 82.0173 145.833 82.0008 145.844C81.9843 145.855 81.9702 145.87 81.9592 145.886C81.9482 145.903 81.9406 145.921 81.9369 145.941C81.9331 145.96 81.9332 145.98 81.9371 146L81.939 146.004Z" fill="#0C0C0C"/>
</g>
<g opacity="0.25">
<path d="M82.5269 149.451C82.5359 149.489 82.5595 149.523 82.5928 149.544C82.626 149.565 82.6663 149.573 82.7051 149.565L89.0924 148.256C89.1119 148.252 89.1304 148.244 89.1469 148.233C89.1634 148.222 89.1775 148.207 89.1884 148.191C89.1994 148.174 89.2069 148.155 89.2107 148.136C89.2145 148.116 89.2143 148.096 89.2103 148.077C89.2063 148.057 89.1985 148.039 89.1874 148.022C89.1762 148.006 89.1619 147.992 89.1453 147.981C89.1287 147.97 89.1101 147.962 89.0906 147.959C89.0711 147.955 89.051 147.955 89.0315 147.959L82.6442 149.268C82.6048 149.276 82.5702 149.299 82.5481 149.333C82.5259 149.367 82.518 149.408 82.526 149.447L82.5269 149.451Z" fill="#0C0C0C"/>
</g>
<path d="M76.8336 158.45L14.4667 169.714C12.5207 169.925 10.5522 169.683 8.71563 169.007C6.87905 168.33 5.22431 167.237 3.88124 165.814C2.53817 164.391 1.54328 162.676 0.97464 160.804C0.405997 158.932 0.279061 156.954 0.603784 155.025L9.33224 103.159C9.60716 101.518 10.2029 99.9479 11.0855 98.5373C11.968 97.1266 13.1201 95.9037 14.4758 94.9382C15.8315 93.9728 17.3642 93.2838 18.9865 92.9106C20.6088 92.5375 22.2887 92.4875 23.9303 92.7635C25.5719 93.0395 27.143 93.6362 28.5538 94.5193C29.9645 95.4024 31.1873 96.5547 32.1523 97.9103C33.1173 99.266 33.8055 100.798 34.1776 102.42C34.5497 104.042 34.5984 105.721 34.321 107.361L28.3679 143.065L74.0919 137.326L76.8336 158.45Z" fill="#97D4EA"/>
<path d="M14.4661 169.945C14.4085 169.945 14.353 169.923 14.3106 169.884C14.2682 169.845 14.2418 169.792 14.2367 169.735C14.2317 169.677 14.2482 169.62 14.2831 169.574C14.318 169.529 14.3688 169.497 14.4255 169.487L76.5764 158.262L73.8924 137.584L28.3964 143.294C28.3607 143.299 28.3244 143.295 28.2905 143.283C28.2566 143.271 28.226 143.251 28.2012 143.225C28.1762 143.199 28.1576 143.168 28.147 143.134C28.1363 143.099 28.1339 143.063 28.1398 143.027L31.9239 120.208C31.9285 120.178 31.9391 120.149 31.9551 120.123C31.971 120.097 31.9919 120.075 32.0167 120.057C32.0414 120.04 32.0694 120.027 32.099 120.02C32.1287 120.014 32.1594 120.013 32.1893 120.018C32.2192 120.023 32.2478 120.034 32.2736 120.05C32.2993 120.066 32.3217 120.087 32.3393 120.111C32.357 120.136 32.3696 120.164 32.3765 120.193C32.3834 120.223 32.3843 120.254 32.3794 120.283L28.6451 142.798L74.0622 137.097C74.1228 137.09 74.1839 137.106 74.2322 137.144C74.2804 137.181 74.3119 137.236 74.3198 137.296L77.0619 158.42C77.0694 158.478 77.0542 158.538 77.0192 158.585C76.9842 158.633 76.9323 158.666 76.8741 158.676L14.5076 169.941C14.4939 169.943 14.48 169.945 14.4661 169.945Z" fill="#0C0C0C"/>
<path d="M28.3326 142.838L24.3208 143.48L24.3938 143.936L28.4056 143.294L28.3326 142.838Z" fill="#0C0C0C"/>
</g>
</g>
<defs>
<clipPath id="clip0_433_2217">
<rect width="240" height="170" fill="white"/>
</clipPath>
<clipPath id="clip1_433_2217">
<rect width="444" height="445" fill="white" transform="translate(-94 -58)"/>
</clipPath>
</defs>
</svg>
