<svg width="88" height="88" viewBox="0 0 88 88" fill="none" xmlns="http://www.w3.org/2000/svg">
<path d="M0.5 44C0.5 43.3634 0.513669 42.7301 0.540728 42.1003L0.0411891 42.0788C0.0966269 40.7884 0.207642 39.5124 0.371901 38.2532L0.867701 38.3179C1.03255 37.0541 1.25163 35.8075 1.52252 34.5803L1.03428 34.4725C1.31174 33.2156 1.64295 31.9789 2.02537 30.7649L2.50226 30.9151C2.88422 29.7026 3.31786 28.513 3.80061 27.3489L3.33874 27.1573C3.8308 25.9708 4.37327 24.8104 4.9635 23.6789L5.40682 23.9101C5.9935 22.7854 6.62792 21.6895 7.3074 20.6252L6.88595 20.3561C7.5758 19.2755 8.31154 18.2271 9.09043 17.2135L9.48689 17.5182C10.2586 16.5139 11.0733 15.5442 11.928 14.6119L11.5595 14.274C12.4246 13.3304 13.3304 12.4246 14.274 11.5594L14.6119 11.928C15.5442 11.0733 16.5139 10.2586 17.5182 9.48688L17.2135 9.09042C18.2271 8.31153 19.2755 7.57579 20.3561 6.88595L20.6252 7.30739C21.6895 6.62792 22.7854 5.9935 23.9101 5.40681L23.6789 4.9635C24.8104 4.37327 25.9708 3.83079 27.1573 3.33874L27.3489 3.80061C28.513 3.31786 29.7026 2.88422 30.9151 2.50226L30.7649 2.02536C31.9789 1.64294 33.2156 1.31174 34.4725 1.03428L34.5803 1.52252C35.8075 1.25162 37.0541 1.03255 38.3179 0.8677L38.2532 0.3719C39.5125 0.207641 40.7884 0.0966261 42.0788 0.0411886L42.1003 0.540728C42.7301 0.513669 43.3634 0.5 44 0.5C44.6366 0.5 45.2699 0.513669 45.8997 0.540728L45.9212 0.041189C47.2116 0.0966268 48.4876 0.207642 49.7468 0.371901L49.6821 0.867701C50.9459 1.03255 52.1925 1.25163 53.4197 1.52252L53.5275 1.03428C54.7844 1.31174 56.0211 1.64295 57.2351 2.02537L57.0849 2.50226C58.2974 2.88422 59.487 3.31786 60.6511 3.80061L60.8427 3.33874C62.0292 3.8308 63.1896 4.37327 64.3211 4.9635L64.0899 5.40682C65.2146 5.9935 66.3105 6.62792 67.3748 7.3074L67.6439 6.88596C68.7245 7.5758 69.7729 8.31154 70.7865 9.09043L70.4818 9.48689C71.4861 10.2586 72.4558 11.0733 73.3881 11.928L73.726 11.5595C74.6696 12.4246 75.5754 13.3304 76.4406 14.274L76.072 14.6119C76.9267 15.5442 77.7414 16.5139 78.5131 17.5182L78.9096 17.2135C79.6885 18.2271 80.4242 19.2755 81.1141 20.3561L80.6926 20.6252C81.3721 21.6895 82.0065 22.7854 82.5932 23.9101L83.0365 23.6789C83.6267 24.8104 84.1692 25.9708 84.6613 27.1573L84.1994 27.3489C84.6821 28.513 85.1158 29.7026 85.4977 30.9151L85.9746 30.7649C86.3571 31.9789 86.6883 33.2156 86.9657 34.4725L86.4775 34.5803C86.7484 35.8075 86.9675 37.0541 87.1323 38.3179L87.6281 38.2532C87.7924 39.5125 87.9034 40.7884 87.9588 42.0788L87.4593 42.1003C87.4863 42.7301 87.5 43.3634 87.5 44C87.5 44.6366 87.4863 45.2699 87.4593 45.8997L87.9588 45.9212C87.9034 47.2116 87.7924 48.4876 87.6281 49.7468L87.1323 49.6821C86.9675 50.9459 86.7484 52.1925 86.4775 53.4197L86.9657 53.5275C86.6883 54.7844 86.3571 56.0211 85.9746 57.2351L85.4977 57.0849C85.1158 58.2974 84.6821 59.487 84.1994 60.6511L84.6613 60.8427C84.1692 62.0292 83.6267 63.1896 83.0365 64.3211L82.5932 64.0899C82.0065 65.2146 81.3721 66.3105 80.6926 67.3748L81.114 67.6439C80.4242 68.7245 79.6885 69.7729 78.9096 70.7865L78.5131 70.4818C77.7414 71.4861 76.9267 72.4558 76.072 73.3881L76.4405 73.726C75.5754 74.6696 74.6696 75.5754 73.726 76.4406L73.3881 76.072C72.4558 76.9267 71.4861 77.7414 70.4818 78.5131L70.7865 78.9096C69.7729 79.6885 68.7245 80.4242 67.6439 81.1141L67.3748 80.6926C66.3105 81.3721 65.2146 82.0065 64.0899 82.5932L64.3211 83.0365C63.1896 83.6267 62.0292 84.1692 60.8427 84.6613L60.6511 84.1994C59.487 84.6821 58.2974 85.1158 57.0849 85.4977L57.2351 85.9746C56.0211 86.3571 54.7844 86.6883 53.5275 86.9657L53.4197 86.4775C52.1925 86.7484 50.9459 86.9675 49.6821 87.1323L49.7468 87.6281C48.4875 87.7924 47.2116 87.9034 45.9212 87.9588L45.8997 87.4593C45.2699 87.4863 44.6366 87.5 44 87.5C43.3634 87.5 42.7301 87.4863 42.1003 87.4593L42.0788 87.9588C40.7884 87.9034 39.5124 87.7924 38.2532 87.6281L38.3179 87.1323C37.0541 86.9675 35.8075 86.7484 34.5803 86.4775L34.4725 86.9657C33.2156 86.6883 31.9789 86.3571 30.7649 85.9746L30.9151 85.4977C29.7026 85.1158 28.513 84.6821 27.3489 84.1994L27.1573 84.6613C25.9708 84.1692 24.8104 83.6267 23.6789 83.0365L23.9101 82.5932C22.7854 82.0065 21.6895 81.3721 20.6252 80.6926L20.3561 81.114C19.2755 80.4242 18.2271 79.6885 17.2135 78.9096L17.5182 78.5131C16.5139 77.7414 15.5442 76.9267 14.6119 76.072L14.274 76.4405C13.3304 75.5754 12.4246 74.6696 11.5594 73.726L11.928 73.3881C11.0733 72.4558 10.2586 71.4861 9.48688 70.4818L9.09042 70.7865C8.31153 69.7729 7.57579 68.7245 6.88595 67.6439L7.30739 67.3748C6.62792 66.3105 5.9935 65.2146 5.40681 64.0899L4.9635 64.3211C4.37327 63.1896 3.83079 62.0292 3.33874 60.8427L3.80061 60.6511C3.31786 59.487 2.88422 58.2974 2.50226 57.0849L2.02536 57.2351C1.64294 56.0211 1.31174 54.7844 1.03428 53.5275L1.52252 53.4197C1.25162 52.1925 1.03255 50.9459 0.8677 49.6821L0.3719 49.7468C0.207641 48.4875 0.0966261 47.2116 0.0411886 45.9212L0.540728 45.8997C0.513669 45.2699 0.5 44.6366 0.5 44Z" fill="white"/>
<path d="M0.5 44C0.5 43.3634 0.513669 42.7301 0.540728 42.1003L0.0411891 42.0788C0.0966269 40.7884 0.207642 39.5124 0.371901 38.2532L0.867701 38.3179C1.03255 37.0541 1.25163 35.8075 1.52252 34.5803L1.03428 34.4725C1.31174 33.2156 1.64295 31.9789 2.02537 30.7649L2.50226 30.9151C2.88422 29.7026 3.31786 28.513 3.80061 27.3489L3.33874 27.1573C3.8308 25.9708 4.37327 24.8104 4.9635 23.6789L5.40682 23.9101C5.9935 22.7854 6.62792 21.6895 7.3074 20.6252L6.88595 20.3561C7.5758 19.2755 8.31154 18.2271 9.09043 17.2135L9.48689 17.5182C10.2586 16.5139 11.0733 15.5442 11.928 14.6119L11.5595 14.274C12.4246 13.3304 13.3304 12.4246 14.274 11.5594L14.6119 11.928C15.5442 11.0733 16.5139 10.2586 17.5182 9.48688L17.2135 9.09042C18.2271 8.31153 19.2755 7.57579 20.3561 6.88595L20.6252 7.30739C21.6895 6.62792 22.7854 5.9935 23.9101 5.40681L23.6789 4.9635C24.8104 4.37327 25.9708 3.83079 27.1573 3.33874L27.3489 3.80061C28.513 3.31786 29.7026 2.88422 30.9151 2.50226L30.7649 2.02536C31.9789 1.64294 33.2156 1.31174 34.4725 1.03428L34.5803 1.52252C35.8075 1.25162 37.0541 1.03255 38.3179 0.8677L38.2532 0.3719C39.5125 0.207641 40.7884 0.0966261 42.0788 0.0411886L42.1003 0.540728C42.7301 0.513669 43.3634 0.5 44 0.5C44.6366 0.5 45.2699 0.513669 45.8997 0.540728L45.9212 0.041189C47.2116 0.0966268 48.4876 0.207642 49.7468 0.371901L49.6821 0.867701C50.9459 1.03255 52.1925 1.25163 53.4197 1.52252L53.5275 1.03428C54.7844 1.31174 56.0211 1.64295 57.2351 2.02537L57.0849 2.50226C58.2974 2.88422 59.487 3.31786 60.6511 3.80061L60.8427 3.33874C62.0292 3.8308 63.1896 4.37327 64.3211 4.9635L64.0899 5.40682C65.2146 5.9935 66.3105 6.62792 67.3748 7.3074L67.6439 6.88596C68.7245 7.5758 69.7729 8.31154 70.7865 9.09043L70.4818 9.48689C71.4861 10.2586 72.4558 11.0733 73.3881 11.928L73.726 11.5595C74.6696 12.4246 75.5754 13.3304 76.4406 14.274L76.072 14.6119C76.9267 15.5442 77.7414 16.5139 78.5131 17.5182L78.9096 17.2135C79.6885 18.2271 80.4242 19.2755 81.1141 20.3561L80.6926 20.6252C81.3721 21.6895 82.0065 22.7854 82.5932 23.9101L83.0365 23.6789C83.6267 24.8104 84.1692 25.9708 84.6613 27.1573L84.1994 27.3489C84.6821 28.513 85.1158 29.7026 85.4977 30.9151L85.9746 30.7649C86.3571 31.9789 86.6883 33.2156 86.9657 34.4725L86.4775 34.5803C86.7484 35.8075 86.9675 37.0541 87.1323 38.3179L87.6281 38.2532C87.7924 39.5125 87.9034 40.7884 87.9588 42.0788L87.4593 42.1003C87.4863 42.7301 87.5 43.3634 87.5 44C87.5 44.6366 87.4863 45.2699 87.4593 45.8997L87.9588 45.9212C87.9034 47.2116 87.7924 48.4876 87.6281 49.7468L87.1323 49.6821C86.9675 50.9459 86.7484 52.1925 86.4775 53.4197L86.9657 53.5275C86.6883 54.7844 86.3571 56.0211 85.9746 57.2351L85.4977 57.0849C85.1158 58.2974 84.6821 59.487 84.1994 60.6511L84.6613 60.8427C84.1692 62.0292 83.6267 63.1896 83.0365 64.3211L82.5932 64.0899C82.0065 65.2146 81.3721 66.3105 80.6926 67.3748L81.114 67.6439C80.4242 68.7245 79.6885 69.7729 78.9096 70.7865L78.5131 70.4818C77.7414 71.4861 76.9267 72.4558 76.072 73.3881L76.4405 73.726C75.5754 74.6696 74.6696 75.5754 73.726 76.4406L73.3881 76.072C72.4558 76.9267 71.4861 77.7414 70.4818 78.5131L70.7865 78.9096C69.7729 79.6885 68.7245 80.4242 67.6439 81.1141L67.3748 80.6926C66.3105 81.3721 65.2146 82.0065 64.0899 82.5932L64.3211 83.0365C63.1896 83.6267 62.0292 84.1692 60.8427 84.6613L60.6511 84.1994C59.487 84.6821 58.2974 85.1158 57.0849 85.4977L57.2351 85.9746C56.0211 86.3571 54.7844 86.6883 53.5275 86.9657L53.4197 86.4775C52.1925 86.7484 50.9459 86.9675 49.6821 87.1323L49.7468 87.6281C48.4875 87.7924 47.2116 87.9034 45.9212 87.9588L45.8997 87.4593C45.2699 87.4863 44.6366 87.5 44 87.5C43.3634 87.5 42.7301 87.4863 42.1003 87.4593L42.0788 87.9588C40.7884 87.9034 39.5124 87.7924 38.2532 87.6281L38.3179 87.1323C37.0541 86.9675 35.8075 86.7484 34.5803 86.4775L34.4725 86.9657C33.2156 86.6883 31.9789 86.3571 30.7649 85.9746L30.9151 85.4977C29.7026 85.1158 28.513 84.6821 27.3489 84.1994L27.1573 84.6613C25.9708 84.1692 24.8104 83.6267 23.6789 83.0365L23.9101 82.5932C22.7854 82.0065 21.6895 81.3721 20.6252 80.6926L20.3561 81.114C19.2755 80.4242 18.2271 79.6885 17.2135 78.9096L17.5182 78.5131C16.5139 77.7414 15.5442 76.9267 14.6119 76.072L14.274 76.4405C13.3304 75.5754 12.4246 74.6696 11.5594 73.726L11.928 73.3881C11.0733 72.4558 10.2586 71.4861 9.48688 70.4818L9.09042 70.7865C8.31153 69.7729 7.57579 68.7245 6.88595 67.6439L7.30739 67.3748C6.62792 66.3105 5.9935 65.2146 5.40681 64.0899L4.9635 64.3211C4.37327 63.1896 3.83079 62.0292 3.33874 60.8427L3.80061 60.6511C3.31786 59.487 2.88422 58.2974 2.50226 57.0849L2.02536 57.2351C1.64294 56.0211 1.31174 54.7844 1.03428 53.5275L1.52252 53.4197C1.25162 52.1925 1.03255 50.9459 0.8677 49.6821L0.3719 49.7468C0.207641 48.4875 0.0966261 47.2116 0.0411886 45.9212L0.540728 45.8997C0.513669 45.2699 0.5 44.6366 0.5 44Z" stroke="#224A58" stroke-dasharray="4 4"/>
<rect width="50" height="50" transform="translate(19 19)" fill="white"/>
<path fill-rule="evenodd" clip-rule="evenodd" d="M66.2926 58.5833L47.3343 39.6249C49.2093 34.8333 48.1676 29.2083 44.2093 25.2499C40.0426 21.0833 33.7926 20.2499 28.7926 22.5416L37.7509 31.4999L31.5009 37.7499L22.3343 28.7916C19.8343 33.7916 20.8759 40.0416 25.0426 44.2083C29.0009 48.1666 34.6259 49.2083 39.4176 47.3333L58.3759 66.2916C59.2093 67.1249 60.4593 67.1249 61.2926 66.2916L66.0843 61.4999C67.1259 60.6666 67.1259 59.2083 66.2926 58.5833Z" fill="#224A58"/>
</svg>
